<svg xmlns="http://www.w3.org/2000/svg" width="93" height="16" viewBox="0 0 93 16">
    <g fill="#2E1A46">
        <path d="M7.8 6.807c-.697-.46-1.67-.656-2.604-.853-.816-.17-1.67-.34-2.302-.695-.618-.328-.829-.695-.829-1.443 0-1.508 1.25-2.032 2.315-2.032 1.566 0 2.408.695 2.644 2.216l.013.118h1.408V.668H7.419l-.04.066c-.013.014-.184.328-.315.892C6.446.84 5.55.472 4.275.472 2.328.472.368 1.574.368 4.04c0 1.443.513 2.309 1.71 2.925.605.315 1.513.511 2.394.708.908.21 1.776.407 2.197.682.54.341.75.76.75 1.495 0 2.02-2.17 2.177-2.828 2.177-1.829 0-2.841-.852-3.105-2.61l-.013-.118H0v3.895h1.04l.039-.065c.013-.013.21-.407.381-1.154.54.708 1.526 1.442 3.289 1.442 2.775 0 4.433-1.403 4.433-3.764 0-1.311-.448-2.229-1.382-2.845M13.365 12.184c-.79 0-.869-.066-.869-.774V0H9.34v1.193h.264c.828 0 1 .08 1 .958v9.338c0 .603-.08.695-.672.695H9.34v1.01h4.539v-1.01h-.513zM18.376 4.76c1.421 0 2.131.932 2.131 2.781v.131h-4.604c.092-1.875.96-2.911 2.473-2.911m0-1.26c-2.617 0-4.446 2.02-4.446 4.932 0 3.108 1.776 4.97 4.762 4.97 1.723 0 2.868-.59 3.341-1.101l.04-.04v-1.075l-.21.144c-.514.354-1.632.708-2.75.708-2.157 0-3.091-.918-3.17-3.173h6.235l.026-.105c.092-.433.145-.853.145-1.338-.04-2.453-1.513-3.921-3.973-3.921M27.545 4.76c1.42 0 2.144.932 2.144 2.781v.131h-4.604c.079-1.875.947-2.911 2.46-2.911m0-1.26c-2.618 0-4.446 2.02-4.446 4.932 0 3.108 1.776 4.97 4.762 4.97 1.723 0 2.867-.59 3.34-1.101l.04-.04v-1.075l-.21.144c-.526.354-1.631.708-2.763.708-2.157 0-3.09-.918-3.17-3.173h6.235l.027-.105c.092-.433.131-.853.131-1.338-.013-2.453-1.486-3.921-3.946-3.921M40.2 7.882v.695c0 2.4-.777 3.567-2.395 3.567-2 0-2.894-1.875-2.894-3.724v-.38c0-1.561 1.079-3.174 2.894-3.174 1.592 0 2.394 1.01 2.394 3.016m-1.88-4.38c-1.566 0-2.803.747-3.408 2.02-.066-.906-.237-1.653-.25-1.692l-.026-.105H31.78v1.193h.277c.828 0 1 .079 1 .957v8.407c0 .603-.08.695-.671.695h-.592v1.01h4.683v-1.01h-.658c-.842 0-.868-.105-.868-.564v-2.859c.605 1.18 1.75 1.836 3.262 1.836 2.447 0 4.025-1.993 4.025-5.101-.04-2.951-1.526-4.787-3.92-4.787"/>
        <path d="M56.655 1.889h.697V.656h-4.354l-3.21 10.295L46.633.656h-4.42v1.233h.697c.644 0 .868.13.868.878v8.407c0 .747-.224.878-.868.878h-.697v1.128h4.775v-1.128h-.71c-.869 0-1.066-.13-1.066-.747V2.452l3.394 10.728h1.828L53.84 2.426v8.879c0 .63-.171.747-1.065.747h-.71v1.128h5.287v-1.128h-.697c-.645 0-.868-.13-.868-.878V2.767c0-.747.237-.878.868-.878M79.214 4.76c1.421 0 2.131.932 2.131 2.781v.131h-4.604c.08-1.875.948-2.911 2.473-2.911m0-1.26c-2.617 0-4.446 2.02-4.446 4.932 0 3.108 1.776 4.97 4.762 4.97 1.723 0 2.868-.59 3.328-1.101l.04-.04v-1.075l-.21.144c-.527.354-1.632.708-2.763.708-2.158 0-3.091-.918-3.17-3.173h6.235l.026-.105c.092-.433.145-.853.145-1.338-.013-2.453-1.487-3.921-3.947-3.921M89.422 3.593c-1 0-2.105.643-2.657 2.033-.053-.957-.25-1.757-.263-1.796l-.026-.105H83.62v1.193h.263c.829 0 1 .079 1 .957v5.614c0 .603-.079.695-.671.695h-.592v1.01h4.946v-1.01h-.842c-.829 0-.947-.092-.947-.774V9.128c0-1.98.881-3.869 1.881-4.105.119.603.487.944 1.013.944.658 0 1.092-.446 1.092-1.115.013-.773-.513-1.259-1.342-1.259"/>
        <path d="M90.922 13.062c-.882 0-1.553-.669-1.553-1.56 0-.892.671-1.574 1.553-1.574.894 0 1.539.669 1.539 1.574s-.645 1.56-1.54 1.56m0-3.514c-1.091 0-1.986.878-1.986 1.94 0 1.089.869 1.942 1.987 1.942 1.105 0 1.96-.853 1.96-1.941 0-1.089-.855-1.941-1.96-1.941"/>
        <path d="M90.698 10.702h.263c.237 0 .342.091.342.328 0 .21-.066.34-.368.34h-.237v-.668zm1.066 1.455c-.053 0-.093-.026-.093-.078l-.118-.315c-.026-.105-.092-.184-.184-.236.237-.092.381-.289.381-.525 0-.367-.276-.59-.736-.59h-1v.276h.197c.04 0 .053.013.053.065v1.364c0 .079-.026.079-.053.079h-.197v.262h1v-.262h-.198c-.092 0-.105-.013-.105-.092v-.485h.197c.158 0 .198.052.237.196l.092.315c.053.236.198.354.395.354.158 0 .263-.052.329-.157v-.262l-.04.026c-.065.04-.105.065-.157.065M62.93 9.679c-.053 1.718-1.224 2.505-2.29 2.505-.946 0-1.42-.486-1.42-1.443v-.092c0-.905.46-1.193 1.526-1.665.171-.08.342-.145.513-.21.566-.223 1.144-.46 1.697-.918v1.823h-.026zm12.351 2.505c-.434 0-.513-.053-1.328-.84l-3.526-3.396 2.434-2.23c.776-.695 1.026-.787 1.605-.787h.5V3.738h-4.328V4.93h.79c.223 0 .328.066.341.118.026.066-.026.197-.223.38l-2.723 2.558V.013h-3.157v1.194h.263c.828 0 1 .078 1 .957v8.38c0 .997-.158 1.364-.737 1.548-.171.052-.408.105-.618.105-.5 0-.777-.17-.777-1.089V7.056c0-2.36-1.21-3.554-3.604-3.554-2.275 0-3.46 1.101-3.46 2.19 0 .616.435 1.049 1.04 1.049.381 0 1.039-.157 1.039-1.233v-.603c.276-.118.631-.184 1.066-.184 1.828 0 2.038.984 2.038 1.731 0 .827-1.42 1.22-2.552 1.548-.434.118-.841.236-1.144.367-1.355.564-1.947 1.312-1.947 2.453 0 1.626 1.118 2.623 2.907 2.623 1.329 0 2.29-.551 2.776-1.561.17 1.01.842 1.521 2.012 1.521.369 0 .71-.078 1.013-.21h4.289v-1.01h-.592c-.842 0-.869-.091-.869-.55V8.682l2.894 2.872c.277.276.356.46.316.525-.026.052-.131.105-.381.105h-.5v1.01h4.288v-1.01h-.145z"/>
    </g>
</svg>
