<svg xmlns="http://www.w3.org/2000/svg" viewBox="-28 -28 120 120"><title>Artboard 1</title><g fill="#FFF"><path d="M84.4 65.6L35.5-18.9c-1.1-2-3.7-2.8-5.7-1.7-.7.4-1.3 1-1.7 1.7L-6.3 41.2c10.9.6 16.1-4.3 21.2-9 4.5-4.2 9.2-8.6 17-8.6 10.1 0 15.2 9.4 15.4 9.8.6 1.4 0 3.1-1.4 3.8-1.4.6-2.9.1-3.7-1.2-.3-.5-4.1-6.6-10.3-6.6-5.5 0-8.9 3.1-13.1 7.1-5.5 5.1-13.7 10.3-27.3 8.7l-11.8 20.7c-1.1 2-.4 4.6 1.6 5.7.6.4 1.3.5 2 .5h49.2L26 62.9c-1.7-2.5-1.6-5.7.2-8.1l7.2-11.5c.8-1.3 2.6-1.7 3.9-.9 1.3.8 1.7 2.6.9 3.9L31 57.9c-.5.8-.7 1.1-.1 1.9 1.4 2.2 7.9 12 8.1 12.2h41.8c2.3 0 4.2-1.9 4.1-4.2.1-.8-.1-1.5-.5-2.2zM64.7 42.5c-.6.8-1.8 1-2.6.5-1.4-.7-2.9-1.1-4.5-1.1-2.8-.1-5.4 1.1-7.2 3.2l-9.9 12.4c-.4.4-.9.7-1.5.7-.5 0-1.1-.2-1.4-.6-.3-.4-.5-.8-.5-1.3 0-.4.1-.8.3-1.1l6.5-11.1c3.5-5.8 8-7.3 12-7.4L54 30c-.4-.8-.1-1.7.6-2.2.8-.6 1.9-.4 2.5.4l.1.1L65 40.1c.3.8.2 1.7-.3 2.4zm24.8 30.4c0-1.2-1-2.2-2.2-2.2-1.2 0-2.2 1-2.2 2.2 0 1.2 1 2.2 2.2 2.2 1.2 0 2.2-1 2.2-2.2zm-3.8 0v-.2c.1-1 1-1.7 1.9-1.6 1 .1 1.7 1 1.6 1.9-.1 1-1 1.7-1.9 1.6h-.1c-.9-.1-1.6-.9-1.5-1.7z"/><path d="M88.3 74.1l-.7-1.1c.4 0 .7-.1.7-.7s-.4-.7-1-.7h-.9v2.5h.5v-1h.2l.6 1h.6zm-1.4-1.4v-.6h.4c.2 0 .5 0 .5.3s-.2.3-.4.3h-.5zm-111.2 4.2l-3.1 8.2h2.2l.6-1.8h3.1l.6 1.8h2.4l-3.2-8.2h-2.6zm.2 4.9l1-3.2 1 3.2h-2zm11.5-4.9v4.7c0 1.1-.3 2-1.4 2-1.1 0-1.4-.9-1.4-2v-4.7h-2.2V82c0 2.2 1.5 3.2 3.6 3.2s3.6-1 3.6-3.2v-5.1h-2.2zm5.7 2.3c0-.7.9-.8 1.5-.8s1.2.1 1.8.4l.1-1.7c-.7-.2-1.4-.3-2.1-.3-1.6 0-3.5.5-3.5 2.5 0 3 3.9 2 3.9 3.5 0 .7-.7.8-1.3.8-.8 0-1.6-.2-2.2-.5l-.3 1.8c.8.2 1.6.4 2.4.4 1.8 0 3.6-.6 3.6-2.7 0-3-3.9-2.1-3.9-3.4zm4.7-.7h2v6.6H2v-6.6h2v-1.6h-6.2zM10 81.1c1-.2 1.7-1.1 1.6-2.1 0-1.4-1.2-2.1-2.6-2.1H5V85h2.2v-3.2h.5c.8 0 1.1.4 1.5 1.8l.5 1.5H12l-.8-2.2c-.4-1-.5-1.6-1.2-1.8zm-2.2-.8h-.6v-1.8h.6c.8 0 1.6.1 1.6.9 0 .9-.8.9-1.6.9zm7.7-3.4l-3.1 8.2h2.2l.6-1.8h3.1l.6 1.8h2.4l-3.2-8.2h-2.6zm.3 4.9l1.1-3.2 1 3.2h-2.1zm8.7-4.9h-2.2v8.2h5.6v-1.6h-3.4zm4.6 0h2.2v8.2h-2.2zm6.5 0l-3.1 8.2h2.2l.6-1.8h3.1l.6 1.8h2.4l-3.2-8.2h-2.6zm.2 4.9l1.1-3.2 1 3.2h-2.1zm12.2.7h-.1l-2.7-5.6h-2.8v8.2h2l-.1-5.6h.1l2.8 5.6h2.7v-8.2h-2zm12.5-.1l-1.8-5.5h-3.4v8.2h2.1v-6.3l2 6.3h2l2.1-6.3v6.3h2.1v-8.2h-3.3zm9.2-5.5l-3.1 8.2h2.2l.6-1.8h3.1l.6 1.8h2.4l-3.2-8.2h-2.6zm.2 4.9l1.1-3.2 1 3.2h-2.1zm9.6-4.9h-3v8.2h3c2.8 0 4.8-1.1 4.8-4.1 0-3.1-1.9-4.1-4.8-4.1zm.1 6.6h-.9v-4.9h.9c1.4 0 2.5 1.1 2.5 2.5s-1.2 2.4-2.5 2.4zm8.3.1v-1.9h3.4v-1.5h-3.4v-1.7h3.6v-1.6h-5.8v8.2h5.9v-1.5z"/></g></svg>