<svg xmlns="http://www.w3.org/2000/svg" viewBox="0 0 185 36"><path fill="#FFF" d="M181.3 7.8c-1.7.1-3.1-1.3-3.1-2.9s1.3-3.1 2.9-3.1c1.7-.1 3.1 1.3 3.1 2.9v.1c.1 1.6-1.2 2.9-2.7 3h-.2m0-6.8c-2.1 0-3.8 1.7-3.8 3.8 0 2.1 1.7 3.8 3.8 3.7 2.1 0 3.8-1.7 3.7-3.8 0-2-1.7-3.7-3.7-3.7m-.5 2.3h.5c.3-.1.6.1.6.4v.2c.1.3-.1.6-.5.7h-.6V3.3zm2.1 2.8c-.1 0-.2-.1-.2-.1l-.2-.6c0-.2-.2-.4-.4-.4.4-.1.7-.6.7-1 0-.7-.6-1.2-1.2-1.2h-2.1v.5h.4c.1 0 .1 0 .1.1V6c0 .1 0 .2-.1.2h-.4v.5h1.9v-.5h-.4c-.2 0-.2 0-.2-.2v-.9h.4c.2 0 .4.1.5.3l.2.6c0 .4.4.7.8.7.2 0 .5-.1.6-.3v-.5h-.1c-.1.1-.2.2-.3.2m-54-5.1c-6.6 0-12.6 3.9-15.4 9.9-2.8-6.1-8.9-10-15.7-9.9-9.7.2-17.3 8.3-17.1 18 .1 3.1 1 6.2 2.7 8.9-2.7 3-6.5 4.8-10.6 4.7-7.3 0-13.3-6.3-13.3-14 0-7.8 6-14.1 13.3-14.1 2.2 0 4.4.5 6.4 1.5h.2c.1 0 .1-.1.1-.1.4-.9.8-1.8 1.3-2.7V3c0-.1 0-.2-.1-.2C78.3 1.6 75.7 1 73 1c-6.6.1-12.6 4-15.4 10-2.8-6.1-9-10-15.7-10-9.7.2-17.3 8.3-17.1 18 .1 3.1 1 6.2 2.7 8.9-2.7 3-6.5 4.8-10.6 4.7-7.3 0-13.3-6.3-13.3-14 0-7.8 6-14.1 13.3-14.1 2.2 0 4.4.5 6.4 1.5h.2c.1 0 .1-.1.1-.1.4-.9.8-1.8 1.3-2.7V3c0-.1 0-.2-.1-.2-2.4-1.2-5-1.8-7.7-1.8C7.5 1.1-.4 8.9-.4 18.5S7.4 36 17 36c4.7 0 9.3-1.9 12.6-5.3 3.2 3.4 7.6 5.3 12.3 5.3 6.7.1 12.8-3.8 15.7-9.9 4 8.6 14.2 12.3 22.8 8.4 2-.9 3.7-2.2 5.2-3.7 3.2 3.4 7.6 5.3 12.3 5.3 6.7.1 12.8-3.8 15.7-9.9 4.3 8.5 14.7 12 23.2 7.7s12-14.7 7.7-23.2c-3.1-6-9.1-9.7-15.6-9.7M41.7 32.6c-7.3 0-13.3-6.3-13.3-14 0-7.8 6-14.1 13.3-14.1 7.8 0 14 6.3 14 14.1 0 7.7-6.2 14-14 14m55.9 0c-7.3 0-13.3-6.3-13.3-14 0-7.8 6-14.1 13.3-14.1 7.8 0 14 6.3 14 14.1 0 7.7-6.2 14-14 14m31.1 0c-7.3 0-13.3-6.3-13.3-14 0-7.8 6-14.1 13.3-14.1 7.8.1 14 6.4 13.9 14.2-.1 7.6-6.3 13.8-13.9 13.9M162 1c-5 0-9.1 2.1-11.2 5.6V2c0-.1-.1-.2-.2-.2h-3.2c-.1 0-.2.1-.2.2v33.1c0 .1.1.2.2.2h3.2c.1 0 .2-.1.2-.2V18.7c0-10 3.3-14.4 11.1-14.5 10.4.3 11.2 5.5 11.2 12.9v18c0 .1.1.2.2.2h3.2c.1 0 .2-.1.2-.2v-18C176.9 9.2 176 1.4 162 1"/></svg>