<svg xmlns="http://www.w3.org/2000/svg" viewBox="0 0 202 45"><path fill="#FFF" d="M135.2 22.7c-1.1.9-2.3 1.5-3.6 1.9-.4.1-.7.3-1.1.4-2.3 1-3.3 1.6-3.3 3.5v.2c-.2 1.5.8 2.9 2.3 3.1h.7c2.3 0 4.8-1.7 4.9-5.3l.1-3.8zm26.5 9.2h.4v2.2h-9.2v-2.2h1.1c.3.1.6 0 .8-.2 0-.5-.3-.9-.7-1.1l-6.2-6.1v6.3c0 1 .1 1.2 1.9 1.2h1.3v2h-9.2c-.7.3-1.4.5-2.2.4-2.5 0-4-1.1-4.3-3.2-1.1 2.1-3.1 3.3-6 3.3-3.9 0-6.2-2.1-6.2-5.6 0-2.4 1.3-4 4.2-5.2.8-.3 1.6-.6 2.5-.8 2.4-.7 5.5-1.5 5.5-3.3 0-1.6-.5-3.7-4.4-3.7-.8 0-1.6.1-2.3.4v1.3c0 2.3-1.4 2.6-2.2 2.6-1.2 0-2.2-.9-2.2-2.1V18c0-2.3 2.6-4.7 7.4-4.7 5.1 0 7.7 2.5 7.7 7.5v8.6c0 2 .6 2.3 1.7 2.3.4 0 .9-.1 1.3-.2 1.3-.4 1.6-1.2 1.6-3.3V10.6c0-1.9-.4-2-2.2-2h-.6V6h6.8v16.9l5.8-5.4c.3-.2.5-.5.5-.8-.2-.2-.5-.3-.7-.2h-1.7V14h9.3v2.5H160c-1.2 0-1.8.2-3.4 1.7l-5.2 4.7 7.6 7.2c1.6 1.7 1.8 1.8 2.7 1.8m30.4-18.3c-2.6.1-4.9 1.8-5.7 4.3-.1-1.3-.3-2.6-.6-3.8l-.1-.2h-6.1v2.5h.6c1.8 0 2.2.2 2.2 2v11.9c0 1.3-.2 1.5-1.5 1.5h-1.3V34h10.6v-2.2h-1.8c-1.8 0-2-.2-2-1.6v-4.9c0-4.2 1.9-8.2 4-8.7.1 1.1 1 2 2.2 2 1.2.1 2.3-.9 2.4-2.1v-.3c.1-1.4-1.1-2.6-2.5-2.7-.1.1-.3.1-.4.1M174.8 22c0-3.9-1.5-5.9-4.6-5.9-3.3 0-5.1 2.2-5.3 6.2h9.9V22zm3.8-.2c0 1-.1 1.9-.3 2.8v.2h-13.4c.2 4.8 2.2 6.7 6.8 6.7 2.1 0 4.1-.5 5.9-1.5l.4-.3V32l-.1.1c-1 1.1-3.5 2.3-7.2 2.3-6.4 0-10.2-4-10.2-10.6 0-6.2 3.9-10.5 9.6-10.5 5.4.1 8.5 3.3 8.5 8.5m-58.7 8V11.9c0-1.6.5-1.9 1.9-1.9h1.5V7.4h-9.4L107 29.3l-6.8-21.9h-9.5V10h1.5c1.4 0 1.9.3 1.9 1.9v17.9c0 1.6-.5 1.9-1.9 1.9h-1.5V34H101v-2.4h-1.5c-1.9 0-2.3-.3-2.3-1.6V11.2l7.3 22.8h3.9l7.3-22.9V30c0 1.3-.4 1.6-2.3 1.6h-1.5V34h11.3v-2.4h-1.5c-1.4.1-1.8-.2-1.8-1.8m-33.5-7.1c0-4.3-1.7-6.4-5.1-6.4-3.9 0-6.2 3.4-6.2 6.7v.8c0 3.9 1.9 7.9 6.2 7.9 3.5 0 5.1-2.5 5.1-7.6v-1.4zm4.3.9c0 6.6-3.4 10.9-8.6 10.9-2.9.2-5.6-1.3-7-3.9v6.1c0 1 .1 1.2 1.9 1.2h1.4V40h-10v-2.2h1.3c1.3 0 1.5-.2 1.5-1.5V18.5c0-1.9-.4-2-2.2-2h-.6V14h6.1l.1.2c.3 1.2.5 2.4.5 3.6 1.4-2.8 4.2-4.5 7.3-4.3 5.1-.1 8.3 3.8 8.3 10.1M63.8 22c0-3.9-1.5-5.9-4.6-5.9-3.3 0-5.1 2.2-5.3 6.2h9.9V22zm3.8-.2c0 1-.1 1.9-.3 2.8v.2H53.9c.2 4.8 2.2 6.7 6.8 6.7 2.1 0 4.1-.5 5.9-1.5l.4-.3v2.5c-1 1.1-3.5 2.3-7.2 2.3-6.4 0-10.2-4-10.2-10.6 0-6.2 3.9-10.5 9.6-10.5 5.3 0 8.4 3.2 8.4 8.4m-23.5.3c0-3.9-1.5-5.9-4.6-5.9-3.3 0-5.1 2.2-5.3 6.2h9.9v-.3zm3.8-.3c0 1-.1 1.9-.3 2.8v.2H34.2c.2 4.8 2.2 6.7 6.8 6.7 2.1 0 4.1-.5 5.9-1.5l.4-.3V32l-.1.1c-1 1.1-3.5 2.3-7.2 2.3-6.4 0-10.2-4-10.2-10.6 0-6.2 3.9-10.5 9.6-10.5 5.4.1 8.5 3.3 8.5 8.5m-21 8.5V6h-6.8v2.5h.6c1.8 0 2.2.2 2.2 2v19.8c0 1.3-.2 1.5-1.5 1.5h-1.3V34h9.8v-2.2h-1.1c-1.8.1-1.9 0-1.9-1.5m-7.2-3.8c0 5-3.6 8-9.5 8-3.8 0-5.9-1.6-7.1-3.1-.2.8-.5 1.7-.8 2.5l-.1.2H0v-8.3h3.1v.2c.6 3.7 2.7 5.6 6.7 5.6 1.4 0 6.1-.3 6.1-4.6.1-1.3-.5-2.5-1.6-3.2-1.5-.7-3.1-1.2-4.7-1.5-1.8-.3-3.5-.8-5.1-1.5C1.9 19.5.8 17.6.8 14.6.8 9.3 5 7 9.2 7c2.7 0 4.7.8 6 2.4.1-.7.4-1.3.7-1.9l.1-.1h2.2v7.3h-3v-.2c-.5-3.2-2.3-4.7-5.7-4.7-2.3 0-5 1.1-5 4.3-.2 1.3.6 2.6 1.8 3.1 1.6.7 3.2 1.2 4.9 1.5 2 .3 3.9.9 5.6 1.8 2 1.3 3.1 3.6 2.9 6"/></svg>