<svg xmlns="http://www.w3.org/2000/svg" width="211" height="41" viewBox="0 0 211 41"><defs><style>.cls-1{fill:#fff;fill-rule:evenodd}</style></defs><path class="cls-1" d="M.19 120.986l.925-1.48a.8.8 0 0 1 1.209-.29c1.671 1.409 2.951 2.492 5.689 2.492 2.453 0 4.018-1.517 4.018-3.358 0-2.165-1.849-3.537-5.368-5.018C3.035 111.78.19 109.867.19 105.679.19 102.864 2.323 99 7.977 99a11.939 11.939 0 0 1 6.577 2.129.867.867 0 0 1 .213 1.228l-.889 1.372a.834.834 0 0 1-1.244.361 8.287 8.287 0 0 0-4.8-1.8c-2.986 0-4.017 1.914-4.017 3.249 0 2.058 1.564 3.322 4.515 4.549 4.124 1.7 7.644 3.682 7.644 8.086 0 3.755-3.306 6.823-7.928 6.823A11.429 11.429 0 0 1 .4 122.141a.744.744 0 0 1-.213-1.155m33.563-4.946l-4.373-9.891H29.2l-4.338 9.891h8.888zm-16.106 7.653L28.559 99.4a.829.829 0 0 1 .6-.4h.356a.83.83 0 0 1 .6.4l10.843 24.3a.637.637 0 0 1-.6.939h-2.24a.828.828 0 0 1-.817-.541l-2.2-4.946H23.474l-2.169 4.946a.9.9 0 0 1-.818.541h-2.24a.637.637 0 0 1-.6-.939m26.765-24.049a.673.673 0 0 1 .675-.651h.285a1.137 1.137 0 0 1 1.067.541l14.933 17.582h.071v-17.076a.68.68 0 0 1 .676-.685h2.275a.705.705 0 0 1 .675.685v24.3a.674.674 0 0 1-.675.65h-.32a1.087 1.087 0 0 1-1.031-.506l-14.969-18.126H48v17.581a.681.681 0 0 1-.676.686h-2.24a.7.7 0 0 1-.675-.686V99.651zM82.84 99a12.24 12.24 0 0 1 8.6 3.357.678.678 0 0 1 .035 1.011l-1.564 1.625a.527.527 0 0 1-.89 0 9.549 9.549 0 0 0-6.151-2.419 9.378 9.378 0 0 0 .036 18.735 9.44 9.44 0 0 0 6.115-2.382.643.643 0 0 1 .854-.036l1.636 1.624a.7.7 0 0 1-.036.975 12.1 12.1 0 0 1-8.64 3.5A13 13 0 0 1 82.84 99m17.666 3.754h-5.795a.68.68 0 0 1-.675-.686v-2.021a.68.68 0 0 1 .675-.686H110a.681.681 0 0 1 .676.686v2.021a.681.681 0 0 1-.676.686h-5.8v21.191a.7.7 0 0 1-.676.686h-2.346a.7.7 0 0 1-.676-.686v-21.19zm14.077-2.708a.7.7 0 0 1 .675-.685h2.382a.68.68 0 0 1 .675.685v15.2c0 3.61 2.276 6.137 5.9 6.137a5.68 5.68 0 0 0 5.973-6.065v-15.271a.68.68 0 0 1 .675-.685h2.382a.7.7 0 0 1 .675.685V115.5a9.672 9.672 0 0 1-19.34 0v-15.453zm38.039 15.993l-4.374-9.891h-.177l-4.338 9.891h8.889zm-16.107 7.653l10.916-24.3a.831.831 0 0 1 .6-.4h.356a.831.831 0 0 1 .6.4l10.844 24.3a.637.637 0 0 1-.6.939h-2.241a.829.829 0 0 1-.818-.541l-2.2-4.946h-11.625l-2.17 4.946a.893.893 0 0 1-.817.541h-2.239a.637.637 0 0 1-.606-.939m36.83-12.057a4.453 4.453 0 0 0 4.338-4.477 4.39 4.39 0 0 0-4.338-4.3h-6.328v8.772h6.328zm-10.061-11.589a.68.68 0 0 1 .675-.685h9.671a7.727 7.727 0 0 1 7.75 7.725 8.005 8.005 0 0 1-5.261 7.329l4.871 9.169a.683.683 0 0 1-.606 1.047h-2.665a.755.755 0 0 1-.747-.47l-4.658-9.422h-5.368v9.206a.7.7 0 0 1-.676.686h-2.311a.68.68 0 0 1-.675-.686v-23.9zm30.075 8.773l6.4-9.133a.764.764 0 0 1 .569-.325h2.666a.668.668 0 0 1 .57 1.046l-8.427 12.022v11.516a.7.7 0 0 1-.675.686h-2.347a.68.68 0 0 1-.675-.686v-11.48l-8.32-12.058a.667.667 0 0 1 .569-1.046h2.631a.7.7 0 0 1 .569.325l6.4 9.133h.072zm15.026-6.657a.388.388 0 0 0 .4-.4.379.379 0 0 0-.4-.4h-.713v.8h.713zm-1.3-1.211a.153.153 0 0 1 .153-.154h1.184a.945.945 0 0 1 .985.959.89.89 0 0 1-.609.894c.145.3.289.61.425.9a.15.15 0 0 1-.136.22h-.361a.173.173 0 0 1-.143-.114l-.4-.959h-.5v.918a.154.154 0 0 1-.152.155h-.3a.153.153 0 0 1-.153-.155v-2.666zm1.033 3.7a2.358 2.358 0 1 0-2.322-2.357 2.337 2.337 0 0 0 2.322 2.357m0-5.284a2.923 2.923 0 1 1-2.874 2.927 2.913 2.913 0 0 1 2.874-2.927" transform="translate(0 -91)" id="Sanctuary_logo.svg"/></svg>