<?xml version="1.0" encoding="utf-8"?>
<!-- Generator: Adobe Illustrator 22.0.1, SVG Export Plug-In . SVG Version: 6.00 Build 0)  -->
<svg version="1.1" id="Layer_1" xmlns="http://www.w3.org/2000/svg" xmlns:xlink="http://www.w3.org/1999/xlink" x="0px" y="0px"
	 viewBox="0 0 841.9 595.3" style="enable-background:new 0 0 841.9 595.3;" xml:space="preserve">
<style type="text/css">
	.st0{fill:#2E1A46;}
</style>
<g>
	<g>
		<defs>
			<path id="SVGID_1_" d="M402.6,324.3c-0.8,0-1.3,0.6-1.3,1.3v2c0,0.7,0.6,1.3,1.3,1.3h12.2v42.9c0,0.7,0.6,1.3,1.3,1.3h2.6
				c0.7,0,1.3-0.6,1.3-1.3V329h12.1c0.8,0,1.3-0.6,1.3-1.3v-2c0-0.7-0.6-1.3-1.3-1.3H402.6z M475.3,324.3c-0.8,0-1.3,0.6-1.3,1.3
				v29.5c0,8-5,13.8-13.3,13.8c-8.2,0-13.1-5.9-13.1-13.9v-29.4c0-0.7-0.6-1.3-1.3-1.3h-2.7c-0.7,0-1.3,0.6-1.3,1.3v29.8
				c0,9.6,6.1,17,15.5,18.2h6c9.4-1.3,15.6-8.6,15.6-18.2v-29.8c0-0.7-0.6-1.3-1.3-1.3H475.3z M543.4,329.4H557
				c5.4,0,10.1,4.5,10.1,9.8c0,5.7-4.7,10.2-10.1,10.2h-13.5V329.4z M539.3,324.3c-0.8,0-1.3,0.6-1.3,1.3v46.2
				c0,0.7,0.6,1.3,1.3,1.3h2.7c0.7,0,1.3-0.6,1.3-1.3v-17.8h13.3l9.1,18.1c0.4,0.7,0.7,1,1.5,1h3.3c1.2,0,1.7-1.1,1.2-2l-9.6-17.7
				c6.1-2.4,10.3-7.8,10.3-14.2c0-8.3-6.8-14.9-15.2-14.9H539.3z M612.2,324.3c-0.5,0-0.9,0.4-1.1,0.6L597,344.4L582.9,325
				c-0.2-0.3-0.6-0.6-1.1-0.6h-3.3c-1.1,0-1.7,1.1-1.1,2l16.8,23.3v22.2c0,0.7,0.6,1.3,1.3,1.3h2.7c0.7,0,1.3-0.6,1.3-1.3v-22.3
				l17-23.2c0.6-0.9,0-2-1.1-2H612.2z M216.2,336.1c0,8,4.6,10.9,12.3,14.2c8,3.4,12.2,6.2,12.2,11c0,4.4-3.7,8-9.4,8
				c-6.2,0-11.5-4.7-12-5.1c-1-0.8-1.5-0.5-2.2,0.4l-1.1,1.3c-1,1.3-0.1,1.9,0.4,2.4c0.8,0.7,5.2,4.5,11.8,5.5h5.6
				c7-1.1,12.4-6.2,12.4-12.6c0-8.1-6.1-11.7-15.5-15.5c-5.9-2.4-9.4-4.6-9.4-9.6c0-2.9,2.2-7.7,9.6-7.7c3.9,0,6.3,1,9.3,2.8
				c1.1,0.6,1.9,0.6,2.4-0.4l0.7-1.2c0.8-1.3,0-2.2-0.4-2.4c0,0-5.1-3.6-11.9-3.6C220,323.6,216.2,331.3,216.2,336.1 M273.5,333.7
				h0.6c3.4,7.6,6.8,15.3,10.2,22.9h-20.9L273.5,333.7z M273.5,323.6c-0.6,0-1,0.3-1.2,0.8l-21.2,47c-0.4,0.9,0.1,1.8,1.2,1.8h2.8
				c0.6,0,1-0.4,1.2-0.8l5.1-11.5h24.8l5.2,11.5c0.1,0.3,0.6,0.8,1.2,0.8h2.8c1,0,1.6-0.9,1.2-1.8l-21.1-47
				c-0.2-0.4-0.6-0.8-1.2-0.8H273.5z M306.1,323.6c-0.7,0-1.3,0.6-1.3,1.3v47c0,0.7,0.6,1.3,1.3,1.3h2.4c0.8,0,1.3-0.6,1.3-1.3v-38
				h0.1l31.6,39.4c0.1,0.2,0.2,0.3,0.3,0.4h2c0.4-0.2,0.6-0.6,0.6-1.1v-47c0-0.7-0.6-1.3-1.3-1.3h-2.4c-0.8,0-1.3,0.6-1.3,1.3v37.2
				h-0.1l-31.1-38.7c-0.3-0.4-0.6-0.6-1.1-0.6H306.1z M353.5,348.8c0,12.9,9.5,23.3,22,24.9h6.2c5.1-0.7,9.8-3.1,13.6-6.6
				c0.5-0.5,0.6-1.5,0.1-1.9l-1.6-1.6c-0.6-0.6-1.1-0.6-1.8-0.1c-3.7,3.1-7.3,5.2-13.3,5.2c-11,0-19.5-9.3-19.5-20
				c0-10.8,8.4-20.1,19.5-20.1c5.1,0,9.7,2.1,13.3,5.2c0.7,0.7,1.2,0.8,1.8,0.1l1.9-1.9c0.6-0.6,0.5-1.4-0.1-2
				c-4.7-4-9.8-6.5-16.9-6.5C364.7,323.6,353.5,334.9,353.5,348.8 M507,333.7h0.6c3.4,7.6,6.8,15.3,10.2,22.9h-20.9L507,333.7z
				 M507,323.6c-0.6,0-1,0.3-1.2,0.8l-21.2,47c-0.4,0.9,0.1,1.8,1.2,1.8h2.8c0.6,0,1-0.4,1.2-0.8l5.1-11.5h24.8l5.2,11.5
				c0.1,0.3,0.6,0.8,1.2,0.8h2.8c1,0,1.6-0.9,1.2-1.8l-21.1-47c-0.2-0.4-0.6-0.8-1.2-0.8H507z"/>
		</defs>
		<use xlink:href="#SVGID_1_"  style="overflow:visible;fill:#2E1A46;"/>
		<clipPath id="SVGID_2_">
			<use xlink:href="#SVGID_1_"  style="overflow:visible;"/>
		</clipPath>
	</g>
	<path class="st0" d="M276,238.4c-0.5-1.9-1.1-3.9-1.8-5.9c-0.6-1.7-1.3-3.4-2.1-5.1c-0.5-1-1.1-2-1.7-2.8c-0.5-0.7-1.1-1.4-1.8-1.8
		c-0.6-0.5-1.5-0.7-2.3-0.8c-1-0.1-2-0.1-3,0l-2.7,0.2c-1.1,0.1-2.2,0.3-3.3,0.5c-1.6,0.3-3.2,0.7-4.7,1.2c-1.8,0.7-3.5,1.3-5.2,2.1
		c-1.3,0.5-2.5,1.1-3.8,1.8c-1.1,0.5-2.2,1.2-3.1,1.8c-1.5,0.9-3,1.9-4.4,2.9c-1.5,1.1-3,2.3-4.5,3.5c-1.5,1.2-2.9,2.5-4.3,4
		c-1.3,1.3-2.5,2.6-3.6,4c-1.1,1.4-2,2.7-2.9,4.1c-0.8,1.4-1.6,2.9-2.3,4.4c-0.6,1.4-1,2.8-1.4,4.4c-0.3,1.3-0.5,2.7-0.6,4
		c-0.1,1.5-0.1,2.9,0,4.4c0.2,1.3,0.5,2.6,0.9,3.9c0.3,0.9,0.8,1.8,1.4,2.6c0.5,0.8,1.1,1.6,1.8,2.4c0.8,0.8,1.5,1.5,2.4,2.3
		c1,0.8,2.1,1.6,3.2,2.2l4.2,2.6l4.7,2.6l5.3,2.8c1.1,0.5,2.2,1.2,3.2,1.9c0.5,0.4,0.8,0.8,1.1,1.2c0.2,0.4,0.3,0.9,0.3,1.3
		c0,0.8-0.3,1.5-0.9,2c-1.4,1.2-3.2,2.1-5.1,2.4c-2,0.3-4,0.5-6,0.5c-1.2,0-2.4-0.1-3.6-0.2c-3.9-0.4-7.9-1.1-11.8-2.3
		c-0.5-0.1-1.1-0.2-1.6-0.3c-0.4-0.1-0.7,0.1-0.9,0.4c-0.2,0.3-0.4,0.8-0.4,1.2c0,0.5,0,1.1,0.2,1.5c0.2,0.8,0.6,1.5,1.1,2.1
		c1.6,2.1,3.7,3.8,6,4.9c1.7,0.8,3.4,1.6,5.2,2.2c11.6,4.3,24.3,3.1,35-3.1c1.1-0.6,2.2-1.3,3.2-2.1c1-0.8,1.9-1.6,2.8-2.5
		c0.8-0.8,1.5-1.7,2.2-2.6c0.6-0.8,1.1-1.6,1.5-2.5c0.4-0.8,0.8-1.7,1-2.7c0.2-0.6,0.3-1.4,0.3-2.1c0.1-0.2,0.1-0.5,0.1-0.8
		c0-0.4-0.1-0.8-0.1-1.2c-0.2-0.8-0.5-1.5-0.8-2.3c-0.5-1-1.2-2-2-2.8c-1.1-1.3-2.4-2.5-3.7-3.8l-3.9-3.8l-2.8-2.8
		c-0.6-0.7-1.2-1.3-1.7-2c-0.4-0.5-0.8-1.2-1.1-1.8v0.1c-0.3-0.7-0.5-1.4-0.6-2.1c-0.1-0.3-0.1-0.8-0.1-1.2c0-0.4,0-0.8,0.1-1.2
		c0.1-0.8,0.4-1.5,0.8-2.2c0.4-0.8,0.9-1.4,1.6-2c0.7-0.7,1.5-1.4,2.4-1.9c1.1-0.6,2.2-1.2,3.4-1.8c1.1-0.5,2.3-0.9,3.4-1.2l2.5-0.6
		l2.3-0.5c0.7-0.2,1.2-0.5,1.8-0.8c0.5-0.4,0.9-0.9,1.1-1.4c0.3-0.9,0.5-1.8,0.6-2.8c0.1-0.4,0.1-0.9,0.1-1.3c0-0.6,0-1.3-0.1-1.9
		C276.8,242,276.5,240.2,276,238.4 M226,252.6l3.9-4.6l-1.7-4l3.7,1.6l2.3-2.8l-0.2,3.7l3.2,1.4l-3.4,1.5l-0.4,7.4l-2.5-6.1
		L226,252.6z M236.6,270.1l-0.4,7.2l-2.5-6l-5.4,2.4l4.3-5l-1.5-3.8l3.5,1.5l2.4-2.7l-0.2,3.6l3.1,1.2L236.6,270.1z M240.9,243.8
		l3.8-4.6l-1.6-3.9l3.6,1.5l2.4-2.8l-0.2,3.8l3.2,1.4l-3.4,1.4l-0.3,7.4l-2.6-6.2L240.9,243.8z M253,257.2l-0.3,6.8l-2.5-5.7l-5,2.1
		l3.9-4.5l-1.7-3.7l3.5,1.4l2.3-2.8l-0.2,3.7l3.2,1.3L253,257.2z"/>
	<path class="st0" d="M295.6,296.9c0.1,0.1,0.1,0.1,0.1,0.2c0,0.5-0.4,0.8-0.8,0.9c-0.8,0.2-1.5,0.2-2.3,0.2
		c-4.3-0.3-8.3-2.1-11.3-5c-0.9-0.8-1.5-1.9-1.7-3.1c-0.6-2.4-0.9-4.8-1.1-7.1c-0.5-5-0.7-10.1-0.6-15l0-3.1
		c0.2-10.8,1.1-21.6,2.5-32c0.1-0.7,0.7-1.2,1.3-1.2l0.2,0c1.1,0.2,2.2,0.5,3.3,0.8c2.3,0.8,4.6,1.8,6.7,2.9
		c3.4,1.8,6.4,4.2,9.1,6.9c0.6,0.6,0.9,1.5,0.9,2.3c0,0.4-0.1,0.8-0.2,1c-3.3,9-5.5,18.3-6.6,27.8
		C294.1,281.3,294.3,289.3,295.6,296.9 M314.4,275.9L314.4,275.9c0.1-0.9,0.2-1.7,0.5-2.5c0.3-1,0.7-2,1.3-3
		c0.5-0.9,1.1-1.8,1.7-2.6c0.4-0.5,0.9-1,1.6-1.2c0.3-0.2,0.6-0.2,0.9-0.2c0.1,0,0.3,0.1,0.4,0.1c0.5,0.1,0.9,0.4,1.1,0.8
		c0.3,0.4,0.4,0.9,0.4,1.4v0.1c0,0.7-0.1,1.5-0.4,2.1c-0.2,0.8-0.7,1.7-1.2,2.4c-0.4,0.7-1,1.4-1.6,2c-0.5,0.5-1.1,0.9-1.7,1.3
		c-0.5,0.3-1,0.5-1.7,0.6c-0.1,0.1-0.2,0.1-0.3,0.1c-0.3,0-0.5-0.1-0.8-0.2c-0.2-0.2-0.3-0.5-0.3-0.9V275.9z M331.2,284.5H331
		c-1.6,1.4-3.4,2.5-5.3,3.3c-0.9,0.4-1.8,0.6-2.8,0.7c-1.1,0.1-2.2,0-3.2-0.2c-2-0.4-3.6-1.6-4.7-3.2c-0.6-1-0.9-2-1-3.1l1,0
		c5.2,0,10.2-2.4,13.5-6.4c0.8-1,1.4-2,2-3c0.5-0.9,0.9-1.9,1.1-3c0.2-0.8,0.4-1.5,0.4-2.2v-0.1c0-0.6-0.1-1.4-0.2-2
		c-0.2-0.8-0.4-1.5-0.8-2.2c-0.5-0.9-1.1-1.7-1.8-2.4c-0.8-0.9-1.6-1.8-2.6-2.6c-0.8-0.7-1.6-1.3-2.5-1.8c-0.9-0.5-1.9-1.1-3-1.5
		c-0.9-0.4-1.8-0.7-2.7-0.8c-0.7-0.1-1.4-0.2-2.1-0.2h-0.8c-0.4,0-0.8,0-1.2,0.1c-0.8,0.1-1.7,0.3-2.5,0.5c-0.9,0.3-1.9,0.7-2.8,1.2
		c-0.8,0.5-1.7,1.1-2.4,1.8c-0.7,0.5-1.3,1-1.7,1.6c-0.8,0.8-1.6,1.7-2.2,2.6c-0.8,1.1-1.5,2.3-2,3.6c-0.9,1.8-1.6,3.8-2,5.9
		c-0.2,1.2-0.4,2.5-0.4,3.8c0,2.7,0.6,5.3,1.6,7.7c0.5,1.1,1,2.1,1.7,3.1c0.6,0.9,1.4,1.8,2.2,2.6c0.8,0.8,1.7,1.6,2.7,2.3
		c1.3,0.8,2.6,1.5,4,2.1c2.2,0.9,4.5,1.4,6.9,1.4c2.2,0,4.3-0.4,6.4-1.2c1.2-0.4,2.3-1,3.4-1.6c1.8-1.2,3.4-2.8,4.8-4.5
		c0.2-0.4,0.4-0.8,0.4-1.2c0-0.3-0.1-0.6-0.3-0.8C331.7,284.5,331.5,284.5,331.2,284.5 M348.9,275.8c0.1-0.8,0.2-1.7,0.5-2.5
		c0.4-1,0.7-1.9,1.3-2.9c0.5-0.9,1.1-1.8,1.7-2.6c0.5-0.5,1-0.9,1.6-1.2c0.3-0.2,0.6-0.2,0.9-0.2c0.1,0,0.3,0,0.5,0.1
		c0.4,0.1,0.8,0.4,1.1,0.8c0.2,0.4,0.4,0.9,0.4,1.4l0,0.1c-0.1,0.7-0.2,1.4-0.4,2.1c-0.3,0.9-0.7,1.7-1.2,2.4
		c-0.5,0.8-1.1,1.4-1.7,1.9c-0.5,0.5-1,0.9-1.6,1.3c-0.5,0.3-1,0.6-1.6,0.7H350c-0.2,0-0.5-0.1-0.8-0.2c-0.1-0.2-0.3-0.6-0.3-0.9
		V275.8z M365.7,284.5h-0.2c-1.5,1.4-3.3,2.5-5.3,3.4c-0.9,0.4-1.8,0.6-2.8,0.6c-1.1,0.1-2.2,0-3.2-0.2c-1.9-0.4-3.6-1.5-4.6-3.2
		c-0.6-0.9-0.9-2-1.1-3.1c0.3,0,0.7,0.1,1,0.1c5.3,0,10.3-2.4,13.5-6.4c0.8-1,1.4-1.9,2-3c0.5-0.9,0.8-1.9,1.1-3
		c0.2-0.7,0.3-1.5,0.3-2.2c0-0.7-0.1-1.4-0.2-2c-0.1-0.8-0.4-1.6-0.8-2.2c-0.5-0.9-1.1-1.7-1.8-2.5c-0.8-0.9-1.7-1.7-2.6-2.6
		c-0.8-0.7-1.6-1.3-2.5-1.8c-1-0.6-2-1.1-3-1.5c-0.9-0.4-1.8-0.7-2.8-0.8c-0.7-0.1-1.4-0.2-2.1-0.2c-0.3,0-0.5-0.1-0.8-0.1
		c-0.4,0-0.8,0.1-1.2,0.1c-0.9,0.1-1.7,0.3-2.6,0.6c-0.9,0.3-1.8,0.7-2.7,1.2c-0.9,0.5-1.7,1.1-2.5,1.8c-0.6,0.5-1.2,1.1-1.7,1.6
		c-0.8,0.9-1.5,1.8-2.2,2.7c-0.8,1.1-1.5,2.3-2.1,3.5c-0.8,1.9-1.5,3.9-1.9,5.9c-0.3,1.3-0.4,2.5-0.4,3.8c0,2.7,0.5,5.3,1.6,7.8
		c0.5,1.1,1.1,2.1,1.8,3.1c0.6,0.9,1.3,1.8,2.1,2.5c0.8,0.9,1.8,1.7,2.8,2.3c1.2,0.8,2.5,1.6,3.9,2.1c2.2,0.9,4.5,1.4,6.9,1.4
		c2.2,0,4.4-0.3,6.4-1.1c1.2-0.4,2.3-1,3.4-1.7c1.8-1.2,3.4-2.7,4.8-4.4c0.3-0.4,0.4-0.8,0.5-1.2c0-0.4-0.2-0.7-0.4-0.9
		C366.3,284.6,366.1,284.5,365.7,284.5 M394.1,274.3c0,0.6-0.1,1.1-0.3,1.7c-0.2,0.8-0.5,1.5-0.9,2.1c-0.5,0.8-1,1.5-1.6,2.2
		c-0.4,0.4-0.8,0.8-1.2,1.2l-1.2,0.9c-0.3,0.2-0.7,0.5-1.1,0.6c-0.1,0.1-0.3,0.1-0.5,0.1c-0.2,0-0.3-0.1-0.4-0.1
		c-0.6-0.2-1-0.7-1-1.3v-0.2c0-0.3,0.1-0.6,0.2-0.9l0.3-1.2l0.8-2.1c0.5-1,0.9-2,1.5-3c0.5-0.8,1-1.5,1.6-2.2
		c0.3-0.4,0.7-0.6,1.2-0.8c0.2-0.1,0.3,0,0.5,0c0.2,0,0.3,0,0.5,0.1c0.5,0.2,0.8,0.5,1.1,0.9c0.2,0.5,0.4,1.1,0.5,1.7V274.3z
		 M405.2,265.5c-1.9-2.9-4.5-5.2-7.5-6.8c-2-1-4.2-1.4-6.4-0.9c-1.4,0.3-2.8,0.7-4,1.3c-1.4,0.8-2.7,1.5-3.9,2.5
		c-1.1-0.8-2.2-1.6-3.4-2.3c-1.8-1.1-3.8-1.8-5.9-2c-1.3-0.1-2.6-0.2-3.9-0.2c-0.7,0-1.3,0.2-2,0.5c-0.2,0.2-0.4,0.5-0.3,0.8
		c1,6.3,1.5,12.6,1.6,18.9l0,0.9c0,6.6-0.5,13.1-1.5,19.6c-0.2,1.3-0.3,2.7-0.4,4.1c0,0.5,0.2,0.9,0.5,1.3c1.2,1.5,2.7,2.7,4.3,3.6
		c1.7,0.9,3.5,1.5,5.4,1.8c1.5,0.2,3.1,0.3,4.6,0.1c1-0.1,1.8-1,1.8-2l0-3.7c0-2.5,0.1-5.1,0.1-7.4c0.1-2.2,0.3-4.4,0.6-6.4
		c6.8,3.3,15.2,1.1,19.4-5.2c1.9-2.8,3-6,3.2-9.2v-0.9c0-1.4-0.2-2.7-0.6-4C406.7,268.2,406,266.7,405.2,265.5 M489.7,265.2
		c0.1,0.4,0.1,0.8,0.1,1.2v0.3v0.2c0,0.5-0.1,1.1-0.2,1.7l-1.2,4l-1.2,4.4c-0.4,1.4-0.7,2.7-1,4.1c-0.2,1.4-0.4,2.7-0.7,4.2
		c-0.1,1-0.1,1.9-0.1,2.8c0,0.3,0.1,0.6,0.1,0.9c0,0.4-0.1,0.8-0.1,1.3c-0.1,0.3-0.3,0.7-0.6,0.9l-0.7,0.7c-0.6,0.3-1.2,0.5-1.8,0.5
		c-0.5,0.1-1.1,0.1-1.6,0.1c-0.4,0-0.8-0.1-1.3-0.1c-0.6,0-1.4-0.1-2-0.3c-0.8-0.3-1.6-0.6-2.5-1.1c-0.7-0.4-1.3-1-1.8-1.6
		c-0.5-0.6-0.9-1.3-1.2-1.9c-0.3-0.8-0.5-1.6-0.6-2.4c-0.2-1.2-0.3-2.5-0.4-3.7l-0.1-3c0.1-0.3,0.1-0.6,0.1-0.9c0-0.4,0-0.7-0.1-1
		c0-0.4-0.2-0.5-0.5-0.6c-0.3,0.1-0.7,0.2-0.9,0.5c-0.6,0.7-1,1.5-1.3,2.4c-0.5,1.6-1.1,3.2-1.6,5l-1,4l-0.7,3
		c-0.1,0.6-0.4,1.1-0.8,1.6c-0.5,0.5-1.1,0.8-1.7,0.9c-0.5,0.1-1.1,0.1-1.6,0.1c-0.5,0-0.9,0-1.4-0.1c-0.8-0.1-1.5-0.2-2.2-0.4
		c-0.8-0.2-1.6-0.5-2.3-0.8c-0.8-0.4-1.7-1-2.4-1.6c-0.7-0.6-1.4-1.3-1.9-2.1c-0.5-0.8-0.9-1.7-1.2-2.6c-0.4-1-0.6-2-0.8-3
		c-0.1-0.6-0.1-1.4-0.1-2c0-0.4,0.1-0.7,0.1-0.9l0-1.7l0.2-3.1l-4.1,10.1c-2.3,5.7-5.5,11-9.4,15.8c-1.4,1.7-3,3.2-5,4.4
		c-0.8,0.5-1.7,0.9-2.6,1.3c-1.3,0.4-2.6,0.6-3.9,0.6c-2.1,0-4.2-0.6-6-1.7c-1.1-0.7-2.2-1.6-3.1-2.7c-0.9-0.9-1.4-2.2-1.3-3.5
		c0-0.2,0.1-0.4,0.1-0.6c1.1,0.5,2.2,0.8,3.4,0.8c1.7,0,3.3-0.8,4.5-2c3-3.3,5.4-7.2,6.9-11.4l2.6-7l-4.6,4.8
		c-1,1.1-2.3,1.9-3.6,2.4c-1,0.4-2,0.6-3,0.6c-0.7,0-1.4-0.1-2.1-0.3c-1.2-0.4-2.4-1.1-3.3-2c-0.8-0.8-1.3-1.7-1.8-2.6
		c-0.5-1.3-1-2.6-1.3-4l-4.7-17.9c-0.1-0.4-0.1-0.7-0.1-1v-0.2c0.1-0.7,0.5-1.3,1.3-1.5c0.4-0.1,0.7-0.1,1.1-0.2
		c0.9-0.2,1.8-0.2,2.7-0.2h0.1c1.8,0,3.6,0.3,5.4,0.8c1.4,0.5,2.9,1.1,4.2,1.8c0.5,0.2,1,0.6,1.4,0.9c0.9,0.8,1.5,1.9,1.6,3.1
		l0.7,6.2c0.2,1.1,0.4,2.2,0.7,3.2c0.3,0.8,0.7,1.7,1.2,2.4c0.5,0.7,1.4,0.8,2,0.2c1.4-1.3,2.5-2.8,3.5-4.3c1.1-1.8,1.9-3.8,2.4-5.9
		c0.4-1.4,0.7-2.9,0.9-4.3c0.2-1.1,1.1-1.9,2.2-1.9c0.2,0,0.3,0.1,0.4,0.1c0.8,0.1,1.7,0.4,2.4,0.7c3.6,1.3,6.9,3.8,9.1,7l0.2-4.4
		l0.8-32.1l0-1.9c0-0.2,0.2-0.5,0.4-0.8c0.1-0.2,0.3-0.4,0.5-0.5c0.3-0.1,0.7-0.2,1.1-0.2c0.2,0,0.4-0.1,0.5-0.1
		c0.4,0,0.7,0.1,1.1,0.1c1,0.1,2,0.4,3,0.6l3.2,1.2l3.2,1.2c0.8,0.4,1.6,0.7,2.3,1.2c0.8,0.5,1.6,1.1,2.2,1.7l0.7,0.7l0.5,0.5
		l0.3,1.1c0.2,0.5,0.2,1,0.2,1.5v0.2c-0.1,1.5-0.3,2.9-0.6,4.4l-1.6,8l-1.8,9.6l-0.8,5l-0.4,3.4c0,0.5-0.1,1.1-0.1,1.7l1.4-1.8
		l2.4-3.3c0.6-0.9,1.4-1.8,2.2-2.5c0.7-0.7,1.4-1.4,2.1-1.9c0.7-0.5,1.5-0.9,2.4-1.2c0.7-0.3,1.4-0.5,2.1-0.6c0.4,0,0.8-0.1,1.1-0.1
		c0.4,0,0.8,0.1,1.1,0.1c0.8,0.1,1.5,0.2,2.3,0.5c0.8,0.2,1.7,0.5,2.5,0.9c0.8,0.4,1.6,0.8,2.4,1.3c0.5,0.3,0.9,0.7,1.4,1.2
		c0.4,0.4,0.7,0.9,1.1,1.4C489.3,263.9,489.5,264.5,489.7,265.2 M507.1,275.8c0.1-0.8,0.2-1.7,0.4-2.5c0.4-1,0.8-2,1.3-2.9
		c0.5-0.9,1.1-1.8,1.7-2.6c0.5-0.5,1-1,1.6-1.2c0.3-0.1,0.6-0.2,1-0.2h0.5c0.4,0.1,0.8,0.4,1,0.8c0.3,0.4,0.4,0.9,0.4,1.4v0.1
		c0,0.7-0.1,1.4-0.4,2.1c-0.3,0.9-0.7,1.7-1.2,2.4c-0.5,0.7-1,1.4-1.7,1.9c-0.5,0.5-1,0.9-1.6,1.3c-0.5,0.3-1.1,0.5-1.7,0.6
		c-0.1,0.1-0.2,0.1-0.4,0.1c-0.2,0-0.5-0.1-0.8-0.2c-0.2-0.2-0.3-0.5-0.3-0.9C507,276,507,276,507.1,275.8 M523.8,284.5h-0.2
		c-1.6,1.3-3.3,2.5-5.3,3.3c-0.9,0.4-1.8,0.6-2.8,0.7c-1,0.1-2.2,0-3.2-0.2c-1.9-0.4-3.6-1.5-4.7-3.2c-0.5-0.9-0.9-2-1-3.1h1
		c5.3,0,10.2-2.3,13.6-6.4c0.8-0.9,1.4-1.9,2-3c0.5-0.9,0.9-2,1.2-3c0.2-0.7,0.3-1.5,0.3-2.2c0-0.7-0.1-1.4-0.2-2
		c-0.2-0.8-0.4-1.5-0.8-2.3c-0.5-0.9-1.1-1.7-1.8-2.4c-0.8-0.9-1.7-1.8-2.6-2.6c-0.8-0.7-1.6-1.3-2.5-1.8c-0.9-0.6-1.9-1.1-3-1.5
		c-0.9-0.4-1.8-0.6-2.8-0.8c-0.7-0.2-1.4-0.3-2.1-0.3h-0.8c-0.4,0-0.8,0-1.2,0c-0.9,0.1-1.7,0.3-2.6,0.6c-1,0.2-1.9,0.7-2.8,1.2
		c-0.8,0.5-1.7,1.1-2.4,1.8c-0.7,0.5-1.2,1.1-1.8,1.7c-0.8,0.8-1.5,1.8-2.2,2.7c-0.8,1.1-1.5,2.3-2,3.5c-0.9,1.9-1.6,3.8-2,5.9
		c-0.2,1.2-0.4,2.5-0.4,3.8c0,2.7,0.5,5.3,1.6,7.7c0.5,1.1,1,2.1,1.8,3.1c0.6,0.9,1.3,1.8,2.1,2.6h-0.1c0.9,0.8,1.8,1.6,2.8,2.3
		c1.2,0.8,2.5,1.5,4,2.1c2.2,0.9,4.5,1.4,6.9,1.4c2.2,0,4.3-0.3,6.4-1.1c1.2-0.4,2.3-1,3.4-1.7c1.8-1.2,3.4-2.7,4.8-4.5
		c0.3-0.4,0.4-0.8,0.4-1.2c0-0.4-0.1-0.7-0.4-0.9C524.3,284.6,524.1,284.5,523.8,284.5 M550,270.5c-0.4,1-0.9,2-1.4,3
		c-0.5,0.9-1.1,1.8-1.8,2.7c-0.8,0.9-1.5,1.8-2.4,2.7c-0.7,0.7-1.4,1.4-2.3,1.9c-0.4,0.3-0.9,0.5-1.5,0.6h-0.2
		c-0.4,0-0.8-0.1-1.1-0.2c-0.5-0.2-0.8-0.6-1-1c-0.2-0.4-0.3-0.8-0.3-1.1v-0.2c0.1-0.5,0.2-1,0.5-1.5c0.4-0.9,1-1.6,1.5-2.4
		c0.6-0.9,1.4-1.8,2.2-2.5c0.8-0.8,1.6-1.5,2.5-2.2c0.7-0.5,1.4-1.1,2.3-1.5c0.5-0.4,1.1-0.6,1.7-0.8c0.2-0.1,0.4-0.1,0.6-0.1
		c0.2,0,0.4,0.1,0.6,0.1c0.3,0.2,0.5,0.5,0.5,0.9C550.5,269.4,550.3,270,550,270.5 M564.4,266.7c-0.5-0.7-1.1-1.4-1.8-2.1
		c-0.6-0.5-1.2-1-2-1.4c-0.7-0.3-1.3-0.5-2.1-0.7c-0.4-0.1-0.9-0.1-1.4-0.1l-1.4-0.1c-0.5-0.1-1.1-0.4-1.5-0.7
		c-0.5-0.6-1.1-1.2-1.6-1.9c-0.6-0.8-1.3-1.5-2.1-2.2c-0.6-0.5-1.4-1-2.2-1.3c-0.8-0.3-1.7-0.5-2.5-0.6c-0.2,0-0.3-0.1-0.6-0.1
		c-0.5,0-1.1,0.1-1.6,0.2c-0.8,0.2-1.5,0.4-2.3,0.7c-0.9,0.4-1.8,0.8-2.7,1.3c-0.9,0.4-1.7,0.9-2.5,1.5c-1.1,0.8-2.2,1.7-3.3,2.5
		c-1,0.9-2,1.8-2.8,2.9c-0.8,0.9-1.5,1.9-2.1,3c-0.6,1.2-1.1,2.3-1.6,3.5c-0.4,0.9-0.7,1.8-0.9,2.8c-0.2,0.8-0.4,1.7-0.4,2.6
		c0,0.4-0.1,0.8-0.1,1.2c0,0.4,0.1,0.8,0.1,1.2c0,0.8,0.1,1.7,0.3,2.5c0.2,0.8,0.5,1.6,0.8,2.4c0.3,0.8,0.9,1.6,1.4,2.3
		c0.5,0.7,1.1,1.3,1.8,1.8c0.7,0.5,1.4,1,2.2,1.4c0.8,0.4,1.7,0.7,2.6,0.9c0.5,0.1,1.1,0.1,1.6,0.1l1.1,0c0.9-0.1,1.8-0.2,2.7-0.3
		c1-0.2,1.9-0.5,2.8-0.9c1.1-0.4,2-0.9,3-1.5c1.4-0.9,2.6-1.9,3.7-3v0.1c0.2,0.9,0.5,1.7,1,2.5c0.8,1.3,1.9,2.3,3.2,3.1
		c1.7,0.9,3.5,1.4,5.4,1.4c1.6,0,3.2-0.4,4.7-1c0.5-0.2,0.8-0.7,0.8-1.2v-0.1c-0.1-0.7-0.1-1.4-0.3-2l-0.4-1.8
		c-0.1-0.8-0.2-1.7-0.3-2.6c0-1.2,0-2.4,0.1-3.5c0.2-1.7,0.5-3.2,0.8-4.7l1-4.1c0.2-0.6,0.3-1.3,0.4-1.9V269c0-0.3-0.1-0.6-0.2-0.8
		L564.4,266.7z M592.6,271.8c-0.2,0.5-0.5,1.1-0.8,1.6l-1.5,2.4l-1.6,2.2l-1.9,2.4l-0.9,1c-0.2,0.2-0.4,0.4-0.7,0.5
		c-0.2,0.1-0.5,0.2-0.7,0.2h-0.2c-0.3,0-0.6-0.2-0.9-0.4c-0.3-0.3-0.5-0.7-0.5-1.1c0.1-0.7,0.4-1.3,0.7-1.9c0.6-1,1.2-2,1.9-3
		c0.7-0.9,1.5-1.8,2.4-2.6c0.7-0.6,1.5-1.3,2.3-1.9c0.4-0.4,1-0.6,1.5-0.8h0.2c0.2,0,0.4,0.1,0.5,0.2c0.1,0.1,0.2,0.3,0.2,0.5
		C592.7,271.5,592.7,271.6,592.6,271.8 M616.6,246.2c0.1-0.3,0.2-1.1,0.2-1.9v-0.2c0-0.5-0.1-0.9-0.3-1.4c-0.3-0.5-0.7-1.1-1.2-1.4
		c-1-0.7-2.1-1.2-3.2-1.6c-1.9-0.7-3.8-1.3-5.8-1.6c-1.2-0.2-2.3-0.3-3.5-0.3c-0.8,0-1.7,0-2.6,0.2c-0.3,0.1-0.6,0.3-0.7,0.6
		l-0.2,0.8l-0.2,2.3l0,3.8v1c0,1.8-0.1,3.5-0.3,5.2c-0.2,2.3-0.7,4.6-1.2,6.9c-0.4,1.5-0.8,3.1-1.3,4.6c-0.2,0.8-0.5,1.4-1,2
		c-0.2,0.3-0.5,0.4-0.9,0.2c-0.4-0.2-0.7-0.5-1.1-0.8c-0.4-0.4-0.9-0.8-1.4-1.1c-0.8-0.5-1.5-0.9-2.4-1.3c-0.9-0.4-1.8-0.7-2.7-0.8
		c-0.5-0.1-0.9-0.1-1.4-0.1c-0.3,0-0.6,0.1-0.9,0.1c-0.7,0-1.4,0.1-2.1,0.3c-1.1,0.3-2.1,0.6-3.1,1.1c-1.1,0.5-2.2,1-3.2,1.8
		c-1,0.6-1.9,1.4-2.8,2.1c-2.7,2.5-4.8,5.5-6.4,8.8c-0.7,1.7-1.1,3.4-1.1,5.1c0,1.3,0.2,2.6,0.6,3.8c0.6,1.8,1.7,3.5,3.2,4.8
		c2.2,1.7,4.7,2.9,7.5,3.4c0.6,0.1,1.2,0.1,1.9,0.1c2.1,0,4.2-0.5,6.1-1.4c2.2-1.1,4.2-2.6,6.1-4.3c1.6-1.4,3-2.9,4.3-4.5l1.7,3.6
		c0.5,1.1,1.2,2,1.9,3c0.8,1,1.7,1.8,2.7,2.5c0.8,0.6,1.7,1.1,2.6,1.6c0.8,0.4,1.7,0.7,2.6,0.9c0.5,0.1,1.1,0.1,1.6,0.1
		c0.3,0,0.6-0.1,0.9-0.1c0.8-0.1,1.6-0.1,2.4-0.3c0.6-0.2,1.2-0.5,1.8-0.8c0.5-0.3,0.8-0.8,1-1.2c0.2-0.3,0.2-0.7,0.2-1
		c0-0.2,0-0.3-0.1-0.5c-0.1-0.6-0.3-1.3-0.6-1.8L613,285c-0.6-1.5-1-3.3-1.1-5c-0.5-5-0.3-10,0.7-14.9
		C613.8,258.5,615.1,252.4,616.6,246.2"/>
	<path class="st0" d="M623.9,326.6c0.3,0,0.5-0.2,0.5-0.5c0-0.3-0.2-0.5-0.5-0.5H623v1H623.9z M622.5,325.3c0-0.1,0.1-0.2,0.2-0.2
		h1.2c0.5,0,1,0.3,1,1c0,0.6-0.5,0.9-0.7,0.9c0.2,0.3,0.3,0.7,0.5,1c0.1,0.1,0,0.2-0.1,0.2h-0.3c-0.1,0-0.1-0.1-0.2-0.1l-0.5-1.1
		H623v1c0,0.1-0.1,0.2-0.2,0.2h-0.2c-0.1,0-0.2-0.1-0.2-0.2V325.3z M623.6,329.3c1.4,0,2.6-1.1,2.6-2.5c0-1.4-1.1-2.6-2.6-2.6
		c-1.4,0-2.6,1.1-2.6,2.6C621,328.1,622.2,329.3,623.6,329.3 M623.6,323.6c1.7,0,3.1,1.4,3.1,3.1c0,1.7-1.4,3.1-3.1,3.1
		c-1.7,0-3.1-1.4-3.1-3.1C620.5,325,621.9,323.6,623.6,323.6"/>
</g>
</svg>
