<svg xmlns="http://www.w3.org/2000/svg" viewBox="0 0 342 145"><path fill="#FFF" d="M27.2 31.8c-2.4-1.6-5.8-2.3-9.1-3-2.8-.4-5.5-1.2-8-2.4-2.2-1.1-2.9-2.4-2.9-5 0-5.3 4.3-7.1 8.1-7.1 5.5 0 8.4 2.5 9.2 7.7l.1.4h4.9V10.3h-3.6l-.1.2c-.5 1-.9 2-1.1 3.1-2.2-2.7-5.3-4-9.7-4-6.8 0-13.6 3.9-13.6 12.5 0 5 1.8 8.1 6 10.2 2.7 1.1 5.5 2 8.3 2.5 3.2.7 6.2 1.4 7.7 2.4 1.9 1.2 2.6 2.7 2.6 5.3 0 7-7.6 7.6-9.9 7.6-6.4 0-9.9-3-10.8-9.1l-.1-.4H0v13.6h3.6l.1-.3c.6-1.3 1.1-2.6 1.4-4 1.9 2.5 5.3 5 11.5 5C26.2 54.9 32 50 32 41.7c0-4.5-1.6-7.8-4.8-9.9m19.4 18.8c-2.8 0-3-.2-3-2.7V8h-11v4.2h.9c2.9 0 3.5.3 3.5 3.4v32.6c0 2.1-.3 2.4-2.4 2.4h-2.1v3.6h15.8v-3.6h-1.7zm17.5-25.9c4.9 0 7.4 3.3 7.4 9.7v.5h-16c.2-6.6 3.3-10.2 8.6-10.2m0-4.5c-9.1 0-15.5 7.1-15.5 17.3 0 10.9 6.2 17.4 16.6 17.4 6 0 10-2.1 11.6-3.8l.1-.1v-3.7l-.7.5c-2.9 1.7-6.2 2.5-9.6 2.5-7.5 0-10.8-3.2-11.1-11.1h21.7l.1-.4c.3-1.5.5-3.1.5-4.7 0-8.7-5.2-13.9-13.7-13.9M96 24.7c4.9 0 7.5 3.3 7.5 9.7v.5h-16c.2-6.6 3.2-10.2 8.5-10.2m0-4.5c-9.1 0-15.5 7.1-15.5 17.3 0 10.9 6.2 17.4 16.6 17.4 6 0 10-2.1 11.6-3.8l.1-.1v-3.7l-.7.5c-2.9 1.7-6.2 2.5-9.6 2.5-7.5 0-10.8-3.2-11.1-11.1h21.7l.1-.4c.3-1.5.5-3.1.5-4.7 0-8.7-5.1-13.9-13.7-13.9m44.1 15.3V38c0 8.4-2.7 12.5-8.3 12.5-7 0-10.1-6.5-10.1-13v-1.3c0-5.4 3.8-11.1 10.1-11.1 5.5-.1 8.3 3.4 8.3 10.4m-6.6-15.3c-5.5 0-9.8 2.6-11.9 7.1-.1-2-.4-4-.9-5.9l-.1-.3h-10v4.2h.9c2.9 0 3.5.3 3.5 3.4V58c0 2.1-.3 2.4-2.3 2.4h-2.1v3.5H127v-3.5h-2.3c-2.9 0-3-.3-3-2v-10c2.1 4.1 6.1 6.4 11.3 6.4 8.5 0 14-7 14-17.9.1-10.2-5.1-16.7-13.5-16.7m64-5.6h2.4v-4.3h-15.2l-11.2 36-11-36h-15.4v4.3h2.4c2.2 0 3 .5 3 3.1v29.4c0 2.6-.8 3.1-3 3.1h-2.4v3.9h16.7v-3.9h-2.5c-3 0-3.7-.5-3.7-2.6v-31l11.8 37.5h6.4l11.9-37.6v31c0 2.2-.6 2.6-3.7 2.6h-2.5V54h18.4v-3.9h-2.4c-2.2 0-3-.5-3-3.1V17.7c-.1-2.6.7-3.1 3-3.1m78.6 10.1c5 0 7.4 3.3 7.4 9.7v.5h-16c.2-6.6 3.3-10.2 8.6-10.2m0-4.5c-9.1 0-15.5 7.1-15.5 17.3 0 10.9 6.2 17.4 16.6 17.4 6 0 10-2.1 11.6-3.8l.1-.1v-3.7l-.7.5c-2.9 1.7-6.2 2.5-9.6 2.5-7.5 0-10.8-3.2-11.1-11.1h21.7l.1-.4c.3-1.5.5-3.1.5-4.7 0-8.7-5.1-13.9-13.7-13.9m35.6.4c-3.5 0-7.4 2.2-9.3 7.1-.1-2.1-.4-4.2-.9-6.3l-.1-.3h-10v4.2h.9c2.9 0 3.5.3 3.5 3.4v19.6c0 2.1-.3 2.4-2.3 2.4h-2.1v3.6h17.2v-3.6h-3c-2.9 0-3.3-.3-3.3-2.7v-8c0-6.9 3.1-13.5 6.5-14.4.4 2.1 1.7 3.3 3.5 3.3 2 .1 3.7-1.5 3.8-3.5V25c.3-2.8-1.5-4.4-4.4-4.4m23.5 114.7c-3 .1-5.5-2.3-5.6-5.4-.1-3 2.3-5.5 5.4-5.6s5.5 2.3 5.6 5.4v.1c.1 2.9-2.1 5.3-5 5.5h-.4m0-12.2c-3.8 0-6.9 3-6.9 6.8s3 6.9 6.8 6.9 6.9-3 6.9-6.8-3-6.9-6.8-6.9m-.8 4h.9c.5-.1 1.1.2 1.2.8v.4c.1.6-.3 1.1-.8 1.2h-1.2l-.1-2.4zm3.7 5.1c-.2 0-.3-.1-.3-.3l-.4-1.1c-.1-.4-.3-.7-.7-.8.8-.3 1.3-1 1.3-1.8 0-1.3-1-2.1-2.6-2.1h-3.5v1h.7c.1 0 .2 0 .2.2v4.8c0 .3-.1.3-.2.3h-.7v.9h3.5v-.9h-.7c-.3 0-.4-.1-.4-.3v-1.7h.7c.4-.1.8.2.8.6v.1l.3 1.1c.1.7.7 1.3 1.4 1.2.5.1.9-.2 1.1-.6v-.9l-.2.1c0 .1-.1.2-.3.2M219.3 41.8c-.2 6-4.3 8.7-8 8.7-3.3 0-5-1.7-5-5v-.3c0-3.1 1.6-4.2 5.3-5.8.6-.3 1.2-.5 1.8-.7 2.1-.7 4.1-1.8 5.9-3.2v6.3zm43.1 8.8c-1.5 0-1.8-.2-4.6-3l-12.3-11.9 8.5-7.8c2.7-2.4 3.6-2.8 5.6-2.8h1.7V21h-15.1v4.2h2.7c.4-.1.9.1 1.2.4.1.2-.1.7-.8 1.4l-9.5 8.9V8h-11v4.2h.9c2.9 0 3.5.3 3.5 3.4v29.3c0 3.5-.5 4.8-2.6 5.4-.7.2-1.4.3-2.1.4-1.7 0-2.7-.6-2.7-3.8V32.7c0-8.2-4.2-12.4-12.5-12.4-7.9 0-12.1 3.9-12.1 7.7-.1 2 1.4 3.6 3.4 3.7h.2c1.4 0 3.6-.6 3.6-4.3v-2.1c1.2-.5 2.4-.7 3.7-.6 6.4 0 7.1 3.4 7.1 6 0 2.9-4.9 4.3-8.9 5.4-1.3.4-2.7.8-4 1.3-4.7 2-6.8 4.6-6.8 8.6 0 5.7 3.9 9.2 10.1 9.2 4.6 0 8-1.9 9.7-5.4.6 3.5 3 5.3 7 5.3 1.2 0 2.4-.2 3.5-.7h15v-3.6h-2.1c-2.9 0-3-.3-3-1.9V38.3l10.1 10c1 1 1.2 1.6 1.1 1.8-.4.3-.9.5-1.3.4H248v3.6h15v-3.6l-.6.1zM236 74.7c-12.1.1-23.1 7.1-28.2 18-7.5-15.7-26.4-22.4-42.1-14.8-15.7 7.5-22.4 26.4-14.8 42.1.5 1.1 1.1 2.2 1.8 3.2-4.9 5.5-12 8.6-19.3 8.5-13.4 0-24.4-11.3-24.4-25.3 0-14.1 10.9-25.5 24.4-25.5 4.1 0 8.1.9 11.8 2.8.1 0 .2.1.3 0 .1 0 .2-.1.2-.2.7-1.5 1.5-3.3 2.3-4.9v-.4c0-.1-.1-.3-.2-.3-4.4-2.1-9.2-3.2-14-3.2-12.1.1-23.1 7.1-28.2 18C98 77.1 79.1 70.4 63.4 77.9 47.7 85.4 41 104.3 48.5 120c.5 1.1 1.1 2.2 1.8 3.2-4.9 5.5-12 8.6-19.3 8.5-13.5 0-24.4-11.3-24.4-25.3S17.5 81 31 81c4.1 0 8.1.9 11.8 2.8.1 0 .2.1.3 0 .1 0 .2-.1.2-.2.7-1.5 1.5-3.3 2.3-4.9v-.4c0-.1-.1-.3-.2-.3-4.4-2.1-9.2-3.2-14-3.2C13.9 74.9-.2 89.2 0 106.6c.1 17.5 14.4 31.5 31.8 31.4 8.5-.1 16.6-3.5 22.5-9.6 12.2 12.5 32.2 12.8 44.7.6 2.7-2.6 4.9-5.6 6.5-9 5.2 10.9 16.2 17.9 28.3 18 8.6.1 16.9-3.4 23-9.6 12.2 12.5 32.2 12.8 44.7.6 2.7-2.6 4.9-5.6 6.5-9 7.6 15.7 26.4 22.3 42.1 14.7 15.7-7.6 22.3-26.4 14.7-42.1-5.5-11-16.6-17.9-28.8-17.9m-159.6 57c-13.5 0-24.4-11.3-24.4-25.3 0-14.1 10.9-25.5 24.4-25.5 14.6 0 25.6 11 25.6 25.5.1 13.9-11.1 25.2-25 25.3h-.6m102.3 0c-13.5 0-24.4-11.3-24.4-25.3 0-14.1 10.9-25.5 24.4-25.5 14.6 0 25.6 11 25.6 25.5.1 13.9-11.1 25.2-25 25.3h-.6m56.9 0c-13.5 0-24.4-11.3-24.4-25.3 0-14.1 10.9-25.5 24.4-25.5 14.6 0 25.6 11 25.6 25.5.1 13.9-11.1 25.2-25 25.3h-.6m61.1-57.1c-9.1 0-16.7 3.8-20.4 10.1v-8.3c0-.2-.2-.4-.4-.4h-5.8c-.2 0-.4.2-.4.4v59.8c0 .2.2.4.4.4h5.8c.2 0 .4-.2.4-.4v-29.5c0-18.1 6.1-26 20.3-26.2 19 .5 20.5 10 20.6 23.2v32.5c0 .2.2.4.4.4h5.8c.2 0 .4-.2.4-.4v-32.5c.2-14.3-1.6-28.3-27.1-29.1"/></svg>