<?xml version="1.0" standalone="no"?>
<!DOCTYPE svg PUBLIC "-//W3C//DTD SVG 1.1//EN" "http://www.w3.org/Graphics/SVG/1.1/DTD/svg11.dtd" >
<svg>
<metadata>
Created by FontForge 20090622 at Wed Feb 28 04:21:36 2018
 By deploy user
Copyright (c) 2008 by Kris Sowersby / KLIM. All rights reserved.
</metadata>
<defs>
<font id="Newzald-Medium" horiz-adv-x="580" >
  <font-face 
    font-family="Newzald Medium"
    font-weight="500"
    font-stretch="normal"
    units-per-em="1000"
    panose-1="2 0 5 4 0 0 0 2 0 4"
    ascent="800"
    descent="-200"
    x-height="436"
    cap-height="588"
    bbox="-179 -272 1261 921.162"
    underline-thickness="50"
    underline-position="-50"
    unicode-range="U+0020-U+FB06"
  />
<missing-glyph horiz-adv-x="262" 
 />
    <glyph glyph-name="f_b" unicode="fb" horiz-adv-x="808" 
d="M355 19v518q-43 8 -43 51q0 36 29 50q-19 11 -49 11q-104 0 -104 -156v-57h97l-8 -49h-89v-339l65 -19l-13 -29h-203v28l45 17v342h-71v36l71 16v35q0 104 54.5 158.5t147.5 54.5q66 0 101 -32l58 26h18v-300h4q41 65 130 65q77 0 126.5 -55.5t49.5 -153.5
q0 -121 -72 -184t-183 -63q-88 0 -161 29zM461 344v-286q23 -23 65 -23q58 0 96 44t38 130q0 82 -32.5 122.5t-87.5 40.5q-46 0 -79 -28z" />
    <glyph glyph-name="f_f_b" unicode="ffb" horiz-adv-x="1090" 
d="M630 537h-1q-43 8 -43 51q0 36 29 50q-19 11 -49 11q-105 0 -105 -156v-57h97l-8 -49h-89v-339l66 -19l-13 -29h-203v28l44 17v342h-167v-339l65 -19l-13 -29h-203v28l45 17v342h-71v36l71 16v23q0 106 58.5 160.5t162.5 54.5q73 0 112 -39q53 49 143 49q66 0 101 -32
l58 26h19v-300h4q39 65 129 65q77 0 126.5 -55.5t49.5 -153.5q0 -121 -72 -184t-183 -63q-88 0 -160 29v518zM736 344v-286q23 -23 64 -23q59 0 97 44t38 130q0 82 -32.5 122.5t-88.5 40.5q-45 0 -78 -28zM355 474q0 26 5 54q-39 12 -39 53q0 34 23 50q-16 10 -39 10
q-117 0 -117 -156v-49h167v38z" />
    <glyph glyph-name="f_f_h" unicode="ffh" horiz-adv-x="1082" 
d="M629 45v492q-43 8 -43 51q0 36 29 50q-19 11 -49 11q-105 0 -105 -156v-57h97l-8 -49h-89v-339l66 -19l-13 -29h-203v28l44 17v342h-167v-339l65 -19l-13 -29h-203v28l45 17v342h-71v36l71 16v23q0 106 58.5 160.5t162.5 54.5q73 0 112 -39q53 49 143 49q66 0 101 -32
l58 26h18v-315h4q26 40 64.5 60.5t79.5 20.5q53 0 88 -32.5t35 -107.5v-259l66 -19l-13 -29h-203v28l44 17v240q0 41 -19.5 61t-52.5 20q-53 0 -93 -37v-281l65 -19l-13 -29h-202v28zM355 474q0 26 5 54q-39 12 -39 53q0 34 23 50q-16 10 -39 10q-117 0 -117 -156v-49h167
v38z" />
    <glyph glyph-name="f_f_j" unicode="ffj" horiz-adv-x="799" 
d="M629 -83v470h-168v-339l66 -19l-13 -29h-203v28l44 17v342h-167v-339l65 -19l-13 -29h-203v28l45 17v342h-71v36l71 16v23q0 106 58.5 160.5t162.5 54.5q76 0 115 -41q55 51 152 51q56 0 92 -20.5t36 -63.5q0 -28 -17 -46t-43 -18t-42.5 14.5t-16.5 40.5q0 38 26 53
q-22 5 -32 5q-112 0 -112 -163v-53h210l46 12h18v-497q0 -77 -45 -123.5t-136 -46.5q-37 0 -59 15.5t-22 45.5q0 25 16 39.5t41 14.5t37.5 -14.5t12.5 -38.5q0 -19 -9 -32q24 0 41 26.5t17 79.5zM355 463q0 35 6 65q-40 12 -40 53q0 34 23 50q-16 10 -39 10
q-117 0 -117 -156v-49h167v27z" />
    <glyph glyph-name="f_f_k" unicode="ffk" horiz-adv-x="1059" 
d="M629 45v492q-43 8 -43 51q0 36 29 50q-19 11 -49 11q-105 0 -105 -156v-57h97l-8 -49h-89v-339l66 -19l-13 -29h-203v28l44 17v342h-167v-339l65 -19l-13 -29h-203v28l45 17v342h-71v36l71 16v23q0 106 58.5 160.5t162.5 54.5q73 0 112 -39q53 49 143 49q66 0 101 -32
l58 26h18v-430l39 8l129 125l-56 21l7 31h174l7 -30l-56 -21l-125 -116l143 -220l66 -21l-6 -28h-153l-133 213h-36v-165l66 -19l-13 -29h-203v28zM355 474q0 26 5 54q-39 12 -39 53q0 34 23 50q-16 10 -39 10q-117 0 -117 -156v-49h167v38z" />
    <glyph glyph-name="f_h" unicode="fh" horiz-adv-x="808" 
d="M355 45v492q-43 8 -43 51q0 36 29 50q-19 11 -49 11q-104 0 -104 -156v-57h97l-8 -49h-89v-339l65 -19l-13 -29h-203v28l45 17v342h-71v36l71 16v35q0 104 54.5 158.5t147.5 54.5q66 0 101 -32l58 26h18v-315h4q26 40 64.5 60.5t79.5 20.5q53 0 88.5 -32.5t35.5 -107.5
v-259l65 -19l-13 -29h-203v28l45 17v240q0 41 -20 61t-52 20q-54 0 -94 -37v-281l66 -19l-13 -29h-203v28z" />
    <glyph glyph-name="f_j" unicode="fj" horiz-adv-x="525" 
d="M355 -83v470h-167v-339l65 -19l-13 -29h-203v28l45 17v342h-73v36l73 16v24q0 113 57.5 168.5t156.5 55.5q56 0 92 -20.5t36 -63.5q0 -28 -17 -46t-43 -18t-42.5 14.5t-16.5 40.5q0 38 26 53q-20 5 -32 5q-111 0 -111 -163v-53h209l46 12h18v-497q0 -77 -45 -123.5
t-136 -46.5q-36 0 -58.5 15.5t-22.5 45.5q0 25 16.5 39.5t40.5 14.5q25 0 37.5 -14.5t12.5 -38.5q0 -19 -9 -32q24 0 41 26.5t17 79.5z" />
    <glyph glyph-name="f_k" unicode="fk" horiz-adv-x="786" 
d="M355 45v492q-43 8 -43 51q0 36 29 50q-19 11 -49 11q-104 0 -104 -156v-57h97l-8 -49h-89v-339l65 -19l-13 -29h-203v28l45 17v342h-71v36l71 16v35q0 104 54.5 158.5t147.5 54.5q66 0 101 -32l58 26h18v-430l40 8l128 125l-56 21l7 31h174l8 -30l-57 -21l-125 -116
l144 -220l65 -21l-6 -28h-153l-132 213h-37v-165l66 -19l-13 -29h-203v28z" />
    <glyph glyph-name="ff" unicode="ff" horiz-adv-x="586" 
d="M355 45v342h-167v-339l65 -19l-13 -29h-203v28l45 17v342h-71v36l71 16v23q0 106 58.5 160.5t162.5 54.5q76 0 114 -40q54 50 140 50q52 0 84.5 -20.5t32.5 -61.5q0 -27 -16 -44t-42 -17q-25 0 -41 15t-16 39q0 34 22 51q-15 4 -27 4q-93 0 -93 -148v-69h122l-8 -49h-114
v-338l88 -19l-13 -30h-225v28zM355 470q0 28 5 58q-39 12 -39 53q0 34 23 50q-16 10 -39 10q-117 0 -117 -156v-49h167v34z" />
    <glyph glyph-name="ffi" unicode="ffi" horiz-adv-x="817" 
d="M629 45v342h-168v-339l66 -19l-13 -29h-203v28l44 17v342h-167v-339l65 -19l-13 -29h-203v28l45 17v342h-71v36l71 16v23q0 106 58.5 160.5t162.5 54.5q76 0 115 -41q55 51 152 51q56 0 92 -20.5t36 -63.5q0 -28 -17 -46t-43 -18t-42.5 14.5t-16.5 40.5q0 38 26 53
q-22 5 -32 5q-112 0 -112 -163v-53h210l46 12h18v-400l66 -19l-13 -29h-203v28zM355 463q0 35 6 65q-40 12 -40 53q0 34 23 50q-16 10 -39 10q-117 0 -117 -156v-49h167v27z" />
    <glyph glyph-name="ffl" unicode="ffl" horiz-adv-x="816" 
d="M82 45v342h-71v36l71 16v23q0 106 58.5 160.5t162.5 54.5q73 0 112 -39q53 49 143 49q66 0 101 -32l58 26h18v-633l66 -19l-13 -29h-203v28l44 17v492q-43 8 -43 51q0 36 29 50q-19 11 -49 11q-105 0 -105 -156v-57h97l-8 -49h-89v-339l66 -19l-13 -29h-203v28l44 17v342
h-167v-339l65 -19l-13 -29h-203v28zM355 474q0 26 5 54q-39 12 -39 53q0 34 23 50q-16 10 -39 10q-117 0 -117 -156v-49h167v38z" />
    <glyph glyph-name="fi" unicode="fi" horiz-adv-x="543" 
d="M461 48l66 -19l-13 -29h-203v28l44 17v342h-167v-339l65 -19l-13 -29h-203v28l45 17v342h-73v36l73 16v24q0 113 57.5 168.5t156.5 55.5q56 0 92 -20.5t36 -63.5q0 -28 -17 -46t-43 -18t-42.5 14.5t-16.5 40.5q0 38 26 53q-20 5 -32 5q-111 0 -111 -163v-53h209l46 12h18
v-400z" />
    <glyph glyph-name="fl" unicode="fl" horiz-adv-x="542" 
d="M188 48l65 -19l-13 -29h-203v28l45 17v342h-71v36l71 16v35q0 104 54.5 158.5t147.5 54.5q66 0 101 -32l58 26h18v-633l66 -19l-13 -29h-203v28l44 17v492q-43 8 -43 51q0 36 29 50q-19 11 -49 11q-104 0 -104 -156v-57h97l-8 -49h-89v-339z" />
    <glyph glyph-name=".notdef" horiz-adv-x="262" 
 />
    <glyph glyph-name=".null" horiz-adv-x="0" 
 />
    <glyph glyph-name="nonmarkingreturn" horiz-adv-x="333" 
 />
    <glyph glyph-name="space" unicode=" " horiz-adv-x="184" 
 />
    <glyph glyph-name="exclam" unicode="!" horiz-adv-x="263" 
d="M108 188l-43 340v60h127v-61l-42 -339h-42zM58 65q0 31 21 52t51 21t52 -21t22 -52t-22 -52t-52 -21t-51 21t-21 52z" />
    <glyph glyph-name="quotedbl" unicode="&#x22;" horiz-adv-x="366" 
d="M115 379h-31l-45 218q0 24 17 40t43 16q27 0 44 -16t17 -40zM283 379h-31l-45 218q0 24 17 40t43 16q27 0 44 -16t17 -40z" />
    <glyph glyph-name="numbersign" unicode="#" horiz-adv-x="678" 
d="M85 343l15 49h158l55 195h54l-56 -195h111l56 195h53l-55 -195h155l-15 -49h-155l-30 -107h162l-15 -49h-162l-53 -187h-53l53 187h-111l-53 -187h-54l53 187h-151l15 49h151l30 107h-158zM297 343l-31 -107h111l31 107h-111z" />
    <glyph glyph-name="dollar" unicode="$" horiz-adv-x="510" 
d="M240 -110v100q-81 2 -135.5 34t-54.5 84q0 29 17 47t46 18t44 -16t15 -41q0 -19 -11.5 -32.5t-28.5 -17.5q42 -31 108 -33v215l-46 18q-125 49 -125 166q0 75 48 117t123 48v100h42v-100q73 -3 121.5 -33t48.5 -77q0 -28 -15.5 -46.5t-44.5 -18.5q-26 0 -41.5 14
t-15.5 37q0 19 12 34t33 17q-35 27 -98 31v-203l48 -19q67 -27 98.5 -68.5t31.5 -107.5q0 -76 -49 -117.5t-129 -47.5v-102h-42zM368 128q0 41 -20 62.5t-66 41.5v-197q86 12 86 93zM156 464q0 -35 18.5 -56.5t65.5 -39.5v186q-39 -5 -61.5 -28.5t-22.5 -61.5z" />
    <glyph glyph-name="percent" unicode="%" horiz-adv-x="909" 
d="M35 411q0 85 44.5 136t113.5 51q73 0 116 -48t43 -139q0 -84 -43.5 -134t-115.5 -50q-71 0 -114.5 48t-43.5 136zM133 411q0 -139 83 -139q38 0 61 38t23 101q0 58 -23.5 97t-63.5 39q-80 0 -80 -136zM208 -39l436 667h57l-437 -667h-56zM557 177q0 85 44.5 136t113.5 51
q73 0 116 -48t43 -139q0 -84 -43.5 -134t-115.5 -50q-71 0 -114.5 48t-43.5 136zM655 177q0 -139 83 -139q38 0 61 38t23 101q0 58 -23.5 97t-63.5 39q-80 0 -80 -136z" />
    <glyph glyph-name="ampersand" unicode="&#x26;" horiz-adv-x="584" 
d="M572 0h-144l-48 55q-60 -65 -181 -65q-183 0 -183 140q0 110 141 160l-39 40q-53 55 -53 124q0 71 50 107.5t124 36.5q79 0 122 -34.5t43 -96.5q0 -54 -39.5 -93.5t-95.5 -57.5l143 -149q33 71 34 113l-62 22l3 27h168l3 -27l-48 -23q-15 -56 -68 -141l86 -92l49 -15z
M124 149q0 -49 28.5 -76.5t78.5 -27.5q71 0 120 39l-168 181q-59 -39 -59 -116zM237 557q-35 0 -55 -21.5t-20 -58.5q0 -41 36 -82l48 -54q37 34 52 63t15 69q0 36 -21 60t-55 24z" />
    <glyph glyph-name="quotesingle" unicode="'" horiz-adv-x="198" 
d="M115 379h-31l-45 218q0 24 17 40t43 16q27 0 44 -16t17 -40z" />
    <glyph glyph-name="parenleft" unicode="(" horiz-adv-x="328" 
d="M126 279q0 -125 43 -221.5t130 -198.5h-67q-183 178 -183 420t183 420h67q-87 -102 -130 -198.5t-43 -221.5z" />
    <glyph glyph-name="parenright" unicode=")" horiz-adv-x="328" 
d="M202 279q0 125 -43 221.5t-130 198.5h67q183 -178 183 -420t-183 -420h-67q87 102 130 198.5t43 221.5z" />
    <glyph glyph-name="asterisk" unicode="*" horiz-adv-x="374" 
d="M70 371l-41 22l1 47q56 10 119 44q-57 32 -119 46l-1 46l41 22q39 -45 98 -81q-2 68 -21 126l40 23l40 -23q-20 -56 -20 -125q57 34 97 80l41 -22l-1 -47q-60 -12 -119 -44q59 -34 119 -46l1 -46l-41 -22q-37 44 -97 80q0 -69 20 -125l-40 -23l-40 23q19 57 21 125
q-58 -34 -98 -80z" />
    <glyph glyph-name="plus" unicode="+" horiz-adv-x="496" 
d="M55 270h166v161h51v-161h169v-51h-169v-174h-51v174h-166v51z" />
    <glyph glyph-name="comma" unicode="," horiz-adv-x="269" 
d="M159 29h-7q-7 -31 -41 -31q-27 0 -42 18.5t-15 45.5q0 31 21 50.5t53 19.5q40 0 63 -25.5t23 -68.5q0 -64 -47 -115t-118 -69l-9 32q58 25 88.5 63.5t30.5 79.5z" />
    <glyph glyph-name="hyphen" unicode="-" horiz-adv-x="329" 
d="M40 204v63h249v-63h-249z" />
    <glyph glyph-name="period" unicode="." horiz-adv-x="251" 
d="M52 65q0 31 21.5 52t51.5 21t52 -21t22 -52t-22 -52t-52 -21t-51.5 21t-21.5 52z" />
    <glyph glyph-name="slash" unicode="/" horiz-adv-x="309" 
d="M10 -141l230 842h59l-230 -842h-59z" />
    <glyph glyph-name="zero" unicode="0" horiz-adv-x="578" 
d="M171 249q0 -91 39 -144t105 -53q68 0 110 56.5t42 140.5t-42 140.5t-110 56.5q-66 0 -105 -52.5t-39 -144.5zM289 -10q-106 0 -172.5 70.5t-66.5 188.5t66.5 188.5t172.5 70.5t172.5 -70.5t66.5 -188.5t-66.5 -188.5t-172.5 -70.5z" />
    <glyph glyph-name="one" unicode="1" horiz-adv-x="395" 
d="M258 498v-443l113 -19l-10 -36h-314l-10 36l115 19v351h-117l-8 29l213 74z" />
    <glyph glyph-name="two" unicode="2" horiz-adv-x="462" 
d="M154 85h257v-85h-377l-12 49q127 93 165 129q85 81 85 152q0 46 -25 71.5t-66 25.5q-42 0 -66.5 -22.5t-24.5 -62.5q0 -14 3 -24l-33 -10q-13 27 -13 62q0 60 43 99t119 39q82 0 127 -42t45 -114q0 -28 -6 -52.5t-21.5 -46.5t-28 -38t-39.5 -36.5t-40.5 -30t-47 -31
l-44.5 -28.5v-4z" />
    <glyph glyph-name="three" unicode="3" horiz-adv-x="467" 
d="M24 9q0 29 16.5 46.5t44.5 17.5q26 0 43 -17.5t17 -40.5q0 -21 -12.5 -34.5t-29.5 -15.5q25 -23 83 -23q123 0 123 113q0 63 -49 95.5t-132 36.5l-9 30q85 23 123 51.5t38 76.5q0 40 -22.5 63.5t-66.5 23.5q-42 0 -66 -24t-24 -59q0 -17 6 -35l-33 -11q-16 30 -16 65
q0 61 44 100.5t125 39.5q77 0 121.5 -37.5t44.5 -101.5q0 -63 -41 -95.5t-99 -42.5v-4q167 -20 167 -155q0 -86 -66 -129t-163 -43q-73 0 -120 31t-47 78z" />
    <glyph glyph-name="four" unicode="4" horiz-adv-x="516" 
d="M400 117h101v-56h-101v-151h-111v151h-284v35l284 402h111v-381zM148 117h141v191l4 111h-4q-16 -35 -57 -94l-104 -147q-14 -20 -26.5 -35t-17.5 -20l-6 -5v-4q12 3 70 3z" />
    <glyph glyph-name="five" unicode="5" horiz-adv-x="456" 
d="M126 393l-5 -105q285 0 285 -205q0 -94 -64.5 -138.5t-160.5 -44.5q-71 0 -113.5 30t-42.5 77q0 31 18 48t45 17t42.5 -16t15.5 -41q0 -22 -13.5 -35.5t-32.5 -15.5q20 -23 77 -23q58 0 91.5 30.5t33.5 90.5q0 71 -60.5 106t-168.5 37l15 293h297v-105h-259z" />
    <glyph glyph-name="six" unicode="6" horiz-adv-x="534" 
d="M169 297q-6 -32 -6 -65q0 -198 113 -198q51 0 80.5 39t29.5 107q0 67 -32 105t-86 38q-56 0 -99 -26zM178 333q41 43 128 43q82 0 133.5 -47.5t51.5 -138.5q0 -92 -59.5 -146t-155.5 -54q-113 0 -169.5 64t-56.5 179q0 148 106.5 250t297.5 115l8 -35q-234 -45 -284 -230
z" />
    <glyph glyph-name="seven" unicode="7" horiz-adv-x="446" 
d="M141 62l150 258l46 78v4q-14 -9 -78 -9h-167l-59 -82l-18 6l20 181h406l5 -8l-279 -483h4q13 21 42 21q25 0 40.5 -17t15.5 -44q0 -32 -19.5 -49.5t-53.5 -17.5q-36 0 -57.5 21.5t-21.5 57.5q0 42 24 83z" />
    <glyph glyph-name="eight" unicode="8" horiz-adv-x="540" 
d="M270 32q49 0 77 32.5t28 92.5q0 123 -105 123q-106 0 -106 -123q0 -60 28.5 -92.5t77.5 -32.5zM270 318q43 0 69 30t26 90q0 115 -95 115q-46 0 -71 -29.5t-25 -85.5q0 -60 26 -90t70 -30zM270 -10q-105 0 -162.5 42.5t-57.5 118.5q0 59 33.5 96.5t91.5 49.5v4
q-56 11 -84 48.5t-28 88.5q0 72 54 116t153 44q98 0 152 -44t54 -116q0 -51 -27.5 -88.5t-83.5 -48.5v-4q58 -12 91.5 -49.5t33.5 -96.5q0 -76 -57.5 -118.5t-162.5 -42.5z" />
    <glyph glyph-name="nine" unicode="9" horiz-adv-x="534" 
d="M365 201q6 30 6 65q0 198 -113 198q-51 0 -80 -39t-29 -107q0 -67 32 -105t86 -38q55 0 98 26zM356 165q-40 -43 -128 -43q-82 0 -133 47.5t-51 138.5q0 92 59.5 146t154.5 54q113 0 169.5 -64t56.5 -179q0 -148 -106.5 -250t-297.5 -115l-8 35q234 45 284 230z" />
    <glyph glyph-name="colon" unicode=":" horiz-adv-x="259" 
d="M52 65q0 31 21.5 52t51.5 21t52 -21t22 -52t-22 -52t-52 -21t-51.5 21t-21.5 52zM52 349q0 31 21.5 52t51.5 21t52 -21t22 -52t-22 -52t-52 -21t-51.5 21t-21.5 52z" />
    <glyph glyph-name="semicolon" unicode=";" horiz-adv-x="269" 
d="M159 29h-7q-7 -31 -41 -31q-27 0 -42 18.5t-15 45.5q0 31 21 50.5t53 19.5q40 0 63 -25.5t23 -68.5q0 -64 -47 -115t-118 -69l-9 32q58 25 88.5 63.5t30.5 79.5zM53 349q0 31 21.5 52t51.5 21t52 -21t22 -52t-22 -52t-52 -21t-51.5 21t-21.5 52z" />
    <glyph glyph-name="less" unicode="&#x3c;" horiz-adv-x="385" 
d="M329 403l-194 -159l194 -161l-36 -42l-238 203l239 200z" />
    <glyph glyph-name="equal" unicode="=" horiz-adv-x="496" 
d="M441 154h-386v52h386v-52zM441 280h-386v51h386v-51z" />
    <glyph glyph-name="greater" unicode="&#x3e;" horiz-adv-x="385" 
d="M250 244l-194 159l35 41l239 -200l-238 -203l-36 42z" />
    <glyph glyph-name="question" unicode="?" horiz-adv-x="404" 
d="M210 190h-29q-22 24 -22 59q0 9 1.5 16.5t5 14.5t6 11.5t9.5 11.5t10 9.5l12 10t11 9.5q52 42 52 98q0 44 -24 70.5t-69 26.5q-43 0 -67 -28t-24 -67q0 -43 31 -80l-28 -18q-56 39 -56 109q0 63 44 109t128 46q86 0 131.5 -43.5t45.5 -113.5q0 -33 -8 -57t-28.5 -43
t-30.5 -26t-40 -25q-37 -23 -49 -36.5t-12 -41.5v-22zM120 65q0 31 21.5 52t51.5 21t52 -21t22 -52t-22 -52t-52 -21t-51.5 21t-21.5 52z" />
    <glyph glyph-name="at" unicode="@" horiz-adv-x="802" 
d="M455 195h-23q-50 0 -75.5 -15t-25.5 -53q0 -27 16 -42t44 -15q33 0 64 31v94zM462 69h-4q-25 -61 -112 -61q-54 0 -86 28.5t-32 81.5q0 57 44.5 87t123.5 30q34 0 59 -5v37q0 39 -24 58.5t-65 19.5q-62 0 -114 -30l-11 25q61 79 173 79q63 0 105 -35t42 -109v-156
q0 -59 43 -59q45 0 76 47t31 141q0 138 -87 210.5t-211 72.5q-144 0 -233 -89.5t-89 -233.5q0 -147 85.5 -236.5t237.5 -89.5q82 0 143.5 14t135.5 49l13 -28q-118 -79 -292 -79q-177 0 -275.5 99.5t-98.5 270.5q0 167 102.5 267t270.5 100q73 0 135 -20t110.5 -59
t76 -102.5t27.5 -145.5q0 -130 -54 -185t-131 -55q-90 0 -115 61z" />
    <glyph glyph-name="A" unicode="A" horiz-adv-x="596" 
d="M426 51l-48 131h-213l-47 -127l79 -21l-5 -34h-181l-7 31l49 25l200 532h91l199 -532l50 -25l-7 -31h-228l-6 35zM239 381l-56 -150h177l-54 151q-12 32 -19 62.5t-9 45.5l-1 14h-4q-8 -54 -34 -123z" />
    <glyph glyph-name="B" unicode="B" horiz-adv-x="554" 
d="M482 441q0 -49 -34 -86.5t-91 -41.5v-4q158 -20 158 -150q0 -83 -60 -121t-152 -38h-260l-8 32l70 23v478l-70 23l8 32h234q100 0 152.5 -37.5t52.5 -109.5zM281 282h-65v-224l38 -13h22q66 0 95.5 30t29.5 92q0 53 -32 84t-88 31zM216 542v-215h57q97 0 97 107
q0 54 -26.5 81t-88.5 27h-39z" />
    <glyph glyph-name="C" unicode="C" horiz-adv-x="548" 
d="M39 293q0 148 76 226.5t200 78.5q54 0 124 -19l60 19v-167l-21 -5l-41 57q-28 39 -55 55t-65 16q-155 0 -155 -261q0 -121 45 -180t122 -59q93 0 170 59l21 -32q-31 -44 -85.5 -67.5t-119.5 -23.5q-125 0 -200.5 78t-75.5 225z" />
    <glyph glyph-name="D" unicode="D" horiz-adv-x="622" 
d="M43 588h220q147 0 233.5 -69.5t86.5 -215.5q0 -144 -87 -223.5t-219 -79.5h-234l-8 32l70 23v478l-70 23zM216 57l51 -15q194 1 194 255q0 244 -206 244h-39v-484z" />
    <glyph glyph-name="E" unicode="E" horiz-adv-x="524" 
d="M310 274h-94v-209l39 -17h128l87 140l26 -6l-20 -182h-433l-8 32l70 23v478l-70 23l8 32h424v-157l-21 -5l-78 113h-152v-217h93l41 86l22 -4v-214l-21 -4z" />
    <glyph glyph-name="F" unicode="F" horiz-adv-x="496" 
d="M320 35l-8 -35h-269l-8 32l70 23v478l-70 23l8 32h432v-157l-21 -5l-74 113h-164v-217h93l41 86l22 -4v-214l-21 -4l-41 88h-94v-217z" />
    <glyph glyph-name="G" unicode="G" horiz-adv-x="609" 
d="M162 293q0 -127 40.5 -191t112.5 -64q59 0 107 27v159l-69 23l7 32h219l8 -32l-58 -23v-234h-21l-48 43q-66 -43 -151 -43q-116 0 -193 78t-77 225t80 226t206 79q54 0 124 -19l59 19v-167l-21 -5l-41 57q-27 39 -54 55t-65 16q-77 0 -121 -65t-44 -196z" />
    <glyph glyph-name="H" unicode="H" horiz-adv-x="701" 
d="M423 588h235l8 -32l-70 -23v-478l70 -23l-8 -32h-235l-7 32l69 23v219h-269v-219l70 -23l-8 -32h-235l-8 32l70 23v478l-70 23l8 32h235l8 -32l-70 -23v-211h269v211l-69 23z" />
    <glyph glyph-name="I" unicode="I" horiz-adv-x="321" 
d="M43 588h235l8 -32l-70 -23v-478l70 -23l-8 -32h-235l-8 32l70 23v478l-70 23z" />
    <glyph glyph-name="J" unicode="J" horiz-adv-x="294" 
d="M90 -44v577l-71 23l8 32h236l8 -32l-71 -23v-532q0 -92 -52 -141.5t-146 -49.5q-93 0 -93 67q0 30 17 46t42 16q28 0 43 -16.5t15 -42.5q0 -21 -11 -36q40 2 57.5 29t17.5 83z" />
    <glyph glyph-name="K" unicode="K" horiz-adv-x="616" 
d="M216 322l59 8l164 204l-62 22l5 32h186l7 -33l-64 -18l-162 -198l189 -285l81 -21l-7 -33h-172l-177 280h-47v-225l70 -23l-8 -32h-235l-8 32l70 23v478l-70 23l8 32h235l8 -32l-70 -23v-211z" />
    <glyph glyph-name="L" unicode="L" horiz-adv-x="499" 
d="M286 556l-70 -23v-468l40 -17h112l90 159l26 -6l-23 -201h-418l-8 32l70 23v478l-70 23l8 32h235z" />
    <glyph glyph-name="M" unicode="M" horiz-adv-x="812" 
d="M552 374l-140 -374h-58l-143 374q-11 28 -22.5 63t-16.5 56l-6 21h-4q6 -73 6 -143v-316l75 -23l-8 -32h-192l-8 32l70 23v478l-70 23l8 32h206l131 -364q10 -28 16.5 -53t7.5 -37l1 -11h4q3 34 26 101l131 364h204l7 -32l-70 -23v-478l70 -23l-7 -32h-236l-8 32l71 23
v316l5 143h-4q-22 -75 -46 -140z" />
    <glyph glyph-name="N" unicode="N" horiz-adv-x="657" 
d="M168 344v-289l75 -23l-8 -32h-192l-8 32l70 23v478l-70 23l8 32h175l223 -316q17 -24 33.5 -54.5t24.5 -48.5l8 -18h4q-5 71 -5 142v240l-75 23l7 32h191l8 -32l-70 -23v-533h-63l-268 369q-17 24 -34.5 54.5t-26.5 48.5l-9 18h-4q6 -72 6 -146z" />
    <glyph glyph-name="O" unicode="O" horiz-adv-x="629" 
d="M315 37q79 0 115 62.5t36 194.5t-36 194.5t-115 62.5t-115.5 -62.5t-36.5 -194.5t36.5 -194.5t115.5 -62.5zM315 -10q-129 0 -202.5 82.5t-73.5 221.5t73.5 221.5t202.5 82.5t202.5 -82.5t73.5 -221.5t-73.5 -221.5t-202.5 -82.5z" />
    <glyph glyph-name="P" unicode="P" horiz-adv-x="523" 
d="M269 220h-53v-163l104 -22l-8 -35h-269l-8 32l70 23v478l-70 23l8 32h226q103 0 166.5 -42.5t63.5 -137.5q0 -99 -67 -143.5t-163 -44.5zM216 542v-276h34q71 0 103 32t32 110q0 70 -33 102t-102 32h-34z" />
    <glyph glyph-name="Q" unicode="Q" horiz-adv-x="629" 
d="M327 -67q-34 42 -76 63q-101 19 -156.5 98t-55.5 200q0 139 73.5 221.5t202.5 82.5t202.5 -82.5t73.5 -221.5q0 -125 -59.5 -205t-166.5 -95v-4q61 -6 105 -61l36 -46l75 -25l-7 -28h-162zM315 37q79 0 115 62.5t36 194.5t-36 194.5t-115 62.5t-115.5 -62.5t-36.5 -194.5
t36.5 -194.5t115.5 -62.5z" />
    <glyph glyph-name="R" unicode="R" horiz-adv-x="595" 
d="M216 542v-235h55q57 0 87 26.5t30 93.5q0 115 -117 115h-55zM522 53l76 -24l-7 -29h-170l-114 215q-14 25 -34 37t-57 12v-209l70 -23l-8 -32h-235l-8 32l70 23v478l-70 23l8 32h253q93 0 150.5 -38.5t57.5 -122.5q0 -70 -48 -108.5t-115 -42.5v-4q63 -11 96 -70z" />
    <glyph glyph-name="S" unicode="S" horiz-adv-x="473" 
d="M243 34q42 0 66.5 23.5t24.5 67.5q0 43 -21.5 66.5t-71.5 44.5l-71 31q-58 26 -87 65.5t-29 102.5q0 81 52 122t127 41q43 0 123 -20l47 20l4 -165l-25 -6l-38 59q-40 70 -112 70q-40 0 -64.5 -23.5t-24.5 -61.5t18.5 -61.5t65.5 -43.5l78 -33q64 -27 94.5 -69t30.5 -107
q0 -82 -54 -124.5t-133 -42.5q-67 0 -134 30l-49 -30l-18 187l30 6l39 -63q27 -46 57.5 -66t74.5 -20z" />
    <glyph glyph-name="T" unicode="T" horiz-adv-x="549" 
d="M117 35l102 21v484h-103l-78 -114l-21 5v157h515v-157l-21 -5l-78 114h-103v-484l102 -21l-8 -35h-299z" />
    <glyph glyph-name="U" unicode="U" horiz-adv-x="637" 
d="M547 533v-324q0 -105 -62 -162t-163 -57q-234 0 -234 211v332l-69 23l7 32h235l8 -32l-70 -23v-323q0 -160 137 -160q69 0 109 41t40 124v318l-75 23l8 32h192l8 -32z" />
    <glyph glyph-name="V" unicode="V" horiz-adv-x="586" 
d="M351 207l116 325l-79 22l5 34h183l7 -31l-49 -25l-196 -532h-91l-194 532l-49 25l7 31h228l6 -35l-74 -16l114 -331q10 -29 17 -59.5t9 -46.5l2 -16h4q10 53 34 123z" />
    <glyph glyph-name="W" unicode="W" horiz-adv-x="812" 
d="M518 0l-85 328q-8 30 -13.5 64t-7.5 53l-1 19h-4q-7 -71 -25 -137l-87 -327h-103l-133 531l-50 26l7 31h228l6 -35l-75 -16l69 -312q7 -29 12 -62t6 -52l2 -19h4q11 63 28 133l90 363h88l94 -363q8 -30 13 -63.5t7 -51.5l1 -18h4q5 63 22 134l74 306l-80 22l5 34h183
l7 -31l-50 -25l-134 -532h-102z" />
    <glyph glyph-name="X" unicode="X" horiz-adv-x="605" 
d="M313 362l122 171l-64 21l4 34h190l6 -35l-57 -14l-167 -222l189 -262l61 -23l-8 -32h-252l-7 32l79 21l-132 187l-134 -183l79 -28l-7 -29h-200l-8 29l61 26l174 229l-174 248l-51 25l7 31h236l8 -35l-72 -16z" />
    <glyph glyph-name="Y" unicode="Y" horiz-adv-x="565" 
d="M171 537l101 -186q13 -25 21 -46t9 -29l2 -9h4q6 27 37 83l101 182l-80 22l5 34h183l7 -31l-49 -25l-174 -312v-164l102 -21l-8 -35h-299l-8 35l102 21v164l-174 312l-49 25l7 31h228l6 -35z" />
    <glyph glyph-name="Z" unicode="Z" horiz-adv-x="518" 
d="M24 12l266 456q13 23 25.5 41.5t18.5 24.5l6 7v4q-19 -3 -78 -3h-103l-89 -118l-22 4l14 160h411l5 -14l-268 -452q-15 -24 -28 -42.5t-19 -24.5l-6 -6v-4q21 3 81 3h137l94 128l24 -7l-29 -169h-434z" />
    <glyph glyph-name="bracketleft" unicode="[" horiz-adv-x="340" 
d="M100 -141v842h200v-35l-125 -13v-745l125 -13v-36h-200z" />
    <glyph glyph-name="backslash" unicode="\" horiz-adv-x="309" 
d="M69 701l230 -842h-59l-230 842h59z" />
    <glyph glyph-name="bracketright" unicode="]" horiz-adv-x="340" 
d="M240 701v-842h-200v36l124 13v745l-124 13v35h200z" />
    <glyph glyph-name="asciicircum" unicode="^" horiz-adv-x="425" 
d="M20 283l169 305h46l170 -305l-77 -4l-118 220l-116 -220z" />
    <glyph glyph-name="underscore" unicode="_" horiz-adv-x="374" 
d="M40 -87v47h294v-47h-294z" />
    <glyph glyph-name="grave" unicode="`" horiz-adv-x="313" 
d="M217 488l-117 94q-19 14 -19.5 36t22.5 39q22 15 43.5 8.5t31.5 -30.5l55 -133z" />
    <glyph glyph-name="a" unicode="a" horiz-adv-x="451" 
d="M378 302v-208q0 -34 14.5 -44.5t54.5 -5.5l3 -22q-35 -32 -94 -32q-67 0 -79 62h-3q-15 -30 -46.5 -46t-70.5 -16q-56 0 -90.5 31t-34.5 90q0 65 47.5 98t132.5 33q30 0 60 -7v47q0 43 -25.5 65.5t-69.5 22.5q-61 0 -119 -37l-13 28q65 85 180 85q65 0 109 -36t44 -108z
M272 198h-25q-55 0 -82.5 -17t-27.5 -60q0 -31 17 -48.5t46 -17.5q44 0 72 29v114z" />
    <glyph glyph-name="b" unicode="b" horiz-adv-x="519" 
d="M66 579l-54 49v11l141 42h19v-300h4q39 65 129 65q77 0 126.5 -55.5t49.5 -153.5q0 -121 -72 -184t-183 -63q-91 0 -160 28v561zM172 344v-286q23 -23 64 -23q59 0 97 44t38 130q0 82 -32.5 122.5t-88.5 40.5q-45 0 -78 -28z" />
    <glyph glyph-name="c" unicode="c" horiz-adv-x="425" 
d="M299 398q-20 5 -34 5q-58 0 -91.5 -45t-33.5 -127q0 -78 35.5 -123t98.5 -45q54 0 112 40l15 -23q-53 -90 -170 -90q-85 0 -139.5 59.5t-54.5 164.5q0 108 64.5 170t160.5 62q59 0 96.5 -23.5t37.5 -68.5q0 -28 -17.5 -46t-43.5 -18t-43 16t-17 42q0 31 24 50z" />
    <glyph glyph-name="d" unicode="d" horiz-adv-x="526" 
d="M147 225q0 -80 34 -122t97 -42q40 0 69 21v292q-25 28 -74 28q-57 0 -91.5 -47t-34.5 -130zM358 56l-3 1q-48 -67 -135 -67q-83 0 -133 57t-50 156q0 120 68 181.5t164 61.5q46 0 78 -16v148l-54 50v11l141 42h19v-601l57 -46v-13l-145 -30z" />
    <glyph glyph-name="e" unicode="e" horiz-adv-x="440" 
d="M140 233q0 -79 34.5 -124.5t96.5 -45.5t118 40l15 -23q-49 -90 -170 -90q-86 0 -141.5 58t-55.5 165q0 108 61.5 170.5t151.5 62.5q72 0 116 -41.5t44 -117.5q0 -30 -5 -54h-265zM240 402q-37 0 -63 -31.5t-35 -93.5h166q2 16 2 31q0 94 -70 94z" />
    <glyph glyph-name="f" unicode="f" horiz-adv-x="312" 
d="M188 49l88 -19l-13 -30h-226v28l45 17v342h-71v36l71 16v31q0 107 58 162t143 55q52 0 85 -20.5t33 -61.5q0 -27 -16.5 -44t-41.5 -17t-41.5 15t-16.5 39q0 34 22 51q-13 4 -27 4q-92 0 -92 -148v-69h122l-8 -49h-114v-338z" />
    <glyph glyph-name="g" unicode="g" horiz-adv-x="470" 
d="M168 76h149q68 0 107 -34t39 -99q0 -83 -68.5 -123.5t-174.5 -40.5q-200 0 -200 110q0 77 107 101v4q-38 4 -59 26.5t-21 57.5q0 70 88 88q-88 33 -88 125q0 67 47 111t133 44q83 0 158 -36q-6 10 -6 24q0 23 14.5 36.5t36.5 13.5q24 0 37.5 -15t13.5 -39
q0 -26 -15.5 -40.5t-43.5 -14.5q-30 0 -79 20v-9q25 -13 41.5 -38.5t16.5 -57.5q0 -68 -52 -103.5t-122 -35.5q-33 0 -57 7q-42 -19 -42 -48q0 -34 40 -34zM162 -21q-45 -23 -45 -77q0 -81 109 -81q146 0 146 94q0 64 -80 64h-130zM294 296q0 53 -14.5 78.5t-55.5 25.5
q-40 0 -54.5 -25.5t-14.5 -78.5t14.5 -78.5t54.5 -25.5q41 0 55.5 25.5t14.5 78.5z" />
    <glyph glyph-name="h" unicode="h" horiz-adv-x="531" 
d="M350 45v240q0 41 -20 61t-52 20q-54 0 -94 -37v-281l66 -19l-13 -29h-203v28l44 17v533l-53 50v11l141 42h18v-315h4q26 40 64.5 60.5t79.5 20.5q53 0 88.5 -32.5t35.5 -107.5v-259l65 -19l-13 -29h-203v28z" />
    <glyph glyph-name="i" unicode="i" horiz-adv-x="272" 
d="M66 578q0 29 20.5 49.5t49.5 20.5q30 0 50 -20.5t20 -49.5t-20 -49.5t-50 -20.5q-29 0 -49.5 20.5t-20.5 49.5zM190 48l65 -19l-13 -29h-202v28l44 17v284l-45 59v11l133 47h18v-398z" />
    <glyph glyph-name="j" unicode="j" horiz-adv-x="239" 
d="M52 578q0 29 20 49.5t50 20.5q29 0 49.5 -20.5t20.5 -49.5t-20.5 -49.5t-49.5 -20.5q-30 0 -50 20.5t-20 49.5zM176 449v-498q0 -77 -45.5 -123.5t-135.5 -46.5q-37 0 -59 15.5t-22 45.5q0 25 16 39.5t41 14.5q24 0 36.5 -14.5t12.5 -38.5q0 -21 -9 -32q25 0 42 26.5
t17 79.5v417l-48 59v11l135 45h19z" />
    <glyph glyph-name="k" unicode="k" horiz-adv-x="509" 
d="M184 48l66 -19l-13 -29h-203v28l44 17v533l-53 50v11l141 42h18v-435l38 8l137 130l-60 21l7 31h174l7 -30l-56 -21l-127 -120l143 -216l65 -21l-11 -28h-148l-131 208h-38v-160z" />
    <glyph glyph-name="l" unicode="l" horiz-adv-x="265" 
d="M184 48l66 -19l-13 -29h-203v28l44 17v533l-53 50v11l141 42h18v-633z" />
    <glyph glyph-name="m" unicode="m" horiz-adv-x="791" 
d="M453 325v-277l65 -19l-13 -29h-201v28l43 17v240q0 39 -18 59t-48 20q-49 0 -91 -39v-277l66 -19l-13 -29h-203v28l44 16v285l-45 59v11l133 47h17l-3 -85h4q55 86 142 86q42 0 73 -21.5t42 -65.5h4q55 87 143 87q52 0 87 -33.5t35 -107.5v-258l65 -19l-13 -29h-201v28
l43 17v240q0 39 -18 59t-48 20q-47 0 -91 -39z" />
    <glyph glyph-name="n" unicode="n" horiz-adv-x="537" 
d="M461 48l66 -19l-13 -29h-203v28l44 18v235q0 81 -73 81q-50 0 -92 -38v-276l66 -19l-13 -29h-203v28l44 17v284l-45 59v11l133 47h17l-3 -86h4q53 86 149 86q52 0 87 -36t35 -108v-254z" />
    <glyph glyph-name="o" unicode="o" horiz-adv-x="500" 
d="M463 218q0 -110 -57.5 -169t-155.5 -59t-155.5 59t-57.5 169t57.5 169t155.5 59t155.5 -59t57.5 -169zM151 218q0 -184 99 -184t99 184t-99 184t-99 -184z" />
    <glyph glyph-name="p" unicode="p" horiz-adv-x="520" 
d="M234 -10q-28 0 -60 8v-160l70 -19l-13 -29h-210v28l47 17v493l-46 60v11l139 47h16l-3 -68h4q17 31 51.5 49.5t77.5 18.5q77 0 126.5 -55.5t49.5 -153.5q0 -121 -71 -184t-178 -63zM174 341v-282q21 -23 64 -23q59 0 96.5 44t37.5 133q0 77 -32.5 117t-86.5 40
q-45 0 -79 -29z" />
    <glyph glyph-name="q" unicode="q" horiz-adv-x="514" 
d="M347 47h-3q-39 -57 -124 -57q-83 0 -133 57t-50 156q0 120 68 181.5t164 61.5q49 0 82 -20l102 21v-609l70 -19l-13 -29h-210v28l47 17v212zM147 225q0 -80 34 -122t97 -42q40 0 69 21v292q-25 28 -74 28q-57 0 -91.5 -47t-34.5 -130z" />
    <glyph glyph-name="r" unicode="r" horiz-adv-x="395" 
d="M190 49l88 -19l-13 -30h-225v28l44 17v283l-45 59v11l133 48h17l-3 -103h4q19 45 51.5 74.5t74.5 29.5q37 0 58 -19.5t21 -52.5q0 -30 -18 -48t-45 -18q-29 0 -45.5 18t-16.5 47q-40 -16 -80 -73v-252z" />
    <glyph glyph-name="s" unicode="s" horiz-adv-x="401" 
d="M39 135l25 7q33 -65 64.5 -88.5t74.5 -23.5q73 0 73 59q0 26 -16.5 42.5t-52.5 28.5l-60 20q-102 33 -102 134q0 65 41 98.5t109 33.5q50 0 86 -19l51 18l6 -129l-22 -7q-31 51 -60 72.5t-64 21.5q-29 0 -46.5 -15t-17.5 -40q0 -47 60 -68l64 -21q57 -19 84.5 -51
t27.5 -87q0 -66 -44.5 -98.5t-120.5 -32.5q-53 0 -103 23l-47 -23z" />
    <glyph glyph-name="t" unicode="t" horiz-adv-x="328" 
d="M12 387v30l140 137h24v-118h140l-7 -49h-132v-250q0 -80 64 -80q37 0 78 21l10 -24q-50 -64 -140 -64q-118 0 -118 131v266h-59z" />
    <glyph glyph-name="u" unicode="u" horiz-adv-x="502" 
d="M328 329l-45 59v11l133 47h18v-370l52 -41v-14l-144 -30l-10 71h-4q-44 -72 -136 -72q-56 0 -94 34.5t-38 109.5v195l-45 59v11l133 47h18v-295q0 -93 71 -93q49 0 91 41v230z" />
    <glyph glyph-name="v" unicode="v" horiz-adv-x="463" 
d="M292 214l61 170l-65 21l6 31h164l6 -31l-46 -18l-150 -387h-71l-154 379l-44 29l7 28h203l7 -32l-64 -16l66 -175q11 -28 19.5 -57.5t11.5 -45.5l3 -15h4q12 55 36 119z" />
    <glyph glyph-name="w" unicode="w" horiz-adv-x="685" 
d="M6 436h206l6 -31l-63 -17l53 -181q7 -24 12 -49t7 -38l2 -13h4q5 47 23 100l75 229h71l71 -229q7 -23 13 -48t8 -39l3 -13h4q7 48 23 100l56 177l-65 21l6 31h160l5 -31l-45 -17l-127 -388h-78l-70 203q-7 20 -13 44.5t-9 39.5l-3 15h-4q-11 -57 -25 -99l-67 -203h-79
l-123 380l-44 28z" />
    <glyph glyph-name="x" unicode="x" horiz-adv-x="475" 
d="M67 57l117 155l-125 173l-50 22l6 29h199l9 -31l-43 -10l71 -113h4l76 108l-50 16l7 30h160l7 -30l-61 -23l-109 -143l136 -192l57 -19l-11 -29h-198l-8 28l43 13l-84 127h-5l-90 -123l69 -17l-7 -28h-184l-6 28z" />
    <glyph glyph-name="y" unicode="y" horiz-adv-x="471" 
d="M212 -25l-164 404l-44 29l7 28h204l7 -32l-64 -16l69 -178q12 -33 20 -64t10 -46l2 -14h4q14 59 36 125l57 173l-64 21l5 31h164l6 -31l-46 -18l-143 -385q-44 -119 -89.5 -169t-112.5 -50q-41 0 -63 21t-22 53q0 29 16.5 45.5t45.5 16.5q26 0 40.5 -16t14.5 -40
q0 -21 -12 -37q30 1 63.5 44.5t52.5 104.5z" />
    <glyph glyph-name="z" unicode="z" horiz-adv-x="442" 
d="M193 393h-54l-81 -104l-22 4l12 143h354l5 -14l-196 -306q-14 -22 -28 -40.5t-21 -25.5l-6 -7v-4q16 3 75 3h74l86 113l24 -7l-24 -148h-360l-6 12l196 307l50 73v4q-19 -3 -78 -3z" />
    <glyph glyph-name="braceleft" unicode="{" horiz-adv-x="380" 
d="M128 280v-4q47 -12 74.5 -40.5t27.5 -93.5v-130q0 -56 29 -84t81 -38v-33q-85 0 -136.5 38.5t-51.5 114.5v127q0 69 -32.5 94.5t-92.5 33.5v26q29 4 47.5 9.5t38.5 18.5t29.5 37.5t9.5 61.5v128q0 76 51.5 114.5t136.5 38.5v-33q-53 -10 -81.5 -38.5t-28.5 -84.5v-130
q0 -65 -27.5 -93t-74.5 -40z" />
    <glyph glyph-name="bar" unicode="|" horiz-adv-x="144" 
d="M45 -141v842h54v-842h-54z" />
    <glyph glyph-name="braceright" unicode="}" horiz-adv-x="380" 
d="M251 276v4q-21 6 -36.5 13.5t-32 21.5t-25 39t-8.5 59v130q0 102 -109 123v33q84 0 135.5 -38.5t51.5 -114.5v-128q0 -37 10 -61.5t30 -37.5t38 -18.5t47 -9.5v-26q-29 -4 -47 -9.5t-38 -18.5t-30 -38t-10 -62v-127q0 -76 -51.5 -114.5t-135.5 -38.5v33q109 21 109 122
v130q0 65 28 93t74 41z" />
    <glyph glyph-name="asciitilde" unicode="~" horiz-adv-x="447" 
d="M239 193l-61 25q-15 7 -33 7q-43 0 -49 -56l-20 2q-10 28 -10 43q0 35 24 59t64 24q26 0 54 -12l61 -25q21 -9 37 -9q40 0 43 56l22 -4q10 -25 10 -46q0 -34 -22 -55.5t-58 -21.5q-33 0 -62 13z" />
    <glyph glyph-name="nbspace" unicode="&#xa0;" horiz-adv-x="170" 
 />
    <glyph glyph-name="exclamdown" unicode="&#xa1;" horiz-adv-x="226" 
d="M37 370q0 32 22.5 54t53.5 22t53.5 -22t22.5 -54t-22.5 -54.5t-53.5 -22.5t-53.5 22.5t-22.5 54.5zM47 -92l42 340h42l43 -339v-61h-127v60z" />
    <glyph glyph-name="cent" unicode="&#xa2;" horiz-adv-x="509" 
d="M256 -114v104q-92 5 -145.5 62t-53.5 162q0 102 57 162t142 68v108h41v-107q68 -4 110.5 -35.5t42.5 -75.5q0 -26 -15.5 -42.5t-40.5 -16.5q-23 0 -39 15.5t-16 37.5q0 18 10 32t26 17q-38 26 -78 28v-353q72 2 134 59l20 -18q-54 -92 -154 -102v-105h-41zM158 227
q0 -70 25.5 -114.5t72.5 -56.5v347q-98 -20 -98 -176z" />
    <glyph glyph-name="sterling" unicode="&#xa3;" horiz-adv-x="619" 
d="M119 285v41h85l8 56q25 216 217 216q61 0 98.5 -25t37.5 -72q0 -29 -16 -45.5t-41 -16.5q-23 0 -39 14t-16 37q0 20 12.5 33.5t29.5 15.5q-15 22 -66 22q-46 0 -64.5 -30t-31.5 -101l-18 -104h143v-41h-150l-16 -97q-6 -33 -15 -63q110 -45 155 -45q48 0 71 17.5t27 66.5
l24 4q9 -22 9 -49q0 -66 -34.5 -97.5t-95.5 -31.5q-35 0 -71.5 13.5t-55.5 25.5l-56 37q-47 -76 -132 -76q-46 0 -69.5 23t-23.5 59q0 42 27 66.5t73 24.5q23 0 56 -7l17 129h-79zM114 33q50 0 61 78q-29 12 -52 12q-24 0 -37 -13.5t-13 -34.5q0 -42 41 -42z" />
    <glyph glyph-name="currency" unicode="&#xa4;" horiz-adv-x="530" 
d="M500 492l-70 -70q37 -54 37 -116q0 -65 -37 -117l70 -69l-47 -48l-69 68q-53 -38 -122 -38q-67 0 -117 36l-69 -69l-47 48l69 68q-40 55 -40 121t41 121l-69 69l47 48l69 -71q53 37 118 37q63 0 119 -39l69 69zM129 304q0 -55 39 -94t95 -39t95.5 39t39.5 94
q0 56 -39.5 95.5t-95.5 39.5t-95 -39.5t-39 -95.5z" />
    <glyph glyph-name="yen" unicode="&#xa5;" horiz-adv-x="605" 
d="M191 537l101 -186q13 -25 21 -46t9 -29l2 -9h4q6 27 37 83l101 182l-80 22l5 34h183l7 -31l-49 -25l-122 -219h108v-41h-131l-29 -52v-27h160v-41h-160v-96l102 -21l-8 -35h-299l-8 35l102 21v96h-150v41h150v27l-29 52h-121v41h98l-122 219l-49 25l7 31h228l6 -35z" />
    <glyph glyph-name="brokenbar" unicode="&#xa6;" horiz-adv-x="144" 
d="M45 317v384h54v-384h-54zM45 -141v384h54v-384h-54z" />
    <glyph glyph-name="section" unicode="&#xa7;" horiz-adv-x="485" 
d="M226 -96q94 0 94 62q0 25 -13.5 40.5t-47.5 29.5l-74 29q-57 23 -84 54t-27 87q0 51 29.5 84t77.5 47l-3 1q-95 29 -95 125q0 64 47.5 99.5t119.5 35.5q67 0 105.5 -23.5t38.5 -65.5q0 -25 -15 -40.5t-38 -15.5q-24 0 -38.5 14.5t-14.5 36.5q0 33 30 42q-24 14 -68 14
q-38 0 -60 -16.5t-22 -44.5q0 -27 14.5 -42t46.5 -26l63 -24q64 -24 95 -56t31 -91q0 -101 -108 -131q49 -20 74 -49t25 -79q0 -63 -51 -97.5t-133 -34.5q-65 0 -110 22.5t-45 69.5q0 26 14.5 42.5t39.5 16.5q27 1 41.5 -13t14.5 -37q0 -37 -31 -46q23 -20 77 -20zM256 313
l-21 6q-33 -3 -56.5 -22t-23.5 -55q0 -54 65 -78l43 -17q31 5 48 26.5t17 54.5q0 63 -72 85z" />
    <glyph glyph-name="dieresis" unicode="&#xa8;" horiz-adv-x="476" 
d="M80 564q0 27 17.5 44t42.5 17q28 0 46 -17t18 -44q0 -26 -18 -43.5t-46 -17.5q-25 0 -42.5 17.5t-17.5 43.5zM270 563q0 27 18 44t44 17q28 0 46 -17t18 -44q0 -26 -18.5 -43.5t-45.5 -17.5q-26 0 -44 18t-18 43z" />
    <glyph glyph-name="copyright" unicode="&#xa9;" horiz-adv-x="683" 
d="M49 294q0 132 89 219.5t217 87.5t217.5 -87.5t89.5 -219.5t-89.5 -219t-217.5 -87t-217 87t-89 219zM80 294q0 -120 80 -199t196 -79t196 79t80 199t-80 199t-196 79t-196 -79t-80 -199zM481 200l15 -19q-42 -58 -130 -58q-83 0 -130 45.5t-47 125.5q0 78 49.5 124
t130.5 46q29 0 75 -11l39 11v-109l-15 -2l-22 31q-31 44 -78 44q-46 0 -66.5 -33.5t-20.5 -100.5q0 -128 98 -128q55 0 102 34z" />
    <glyph glyph-name="ordfeminine" unicode="&#xaa;" horiz-adv-x="398" 
d="M316 507v-158q0 -17 8 -26.5t16.5 -11.5t25.5 -3l2 -16q-37 -26 -82 -26q-52 0 -59 50h-2q-38 -53 -103 -53q-38 0 -65 25t-27 66q0 113 193 120v21q0 35 -20 53.5t-54 18.5q-54 0 -97 -30l-11 27q51 69 145 69q55 0 92.5 -31t37.5 -95zM125 374q0 -20 12.5 -33t31.5 -13
q32 0 54 15v102q-55 -4 -76.5 -21.5t-21.5 -49.5z" />
    <glyph glyph-name="guillemotleft" unicode="&#xab;" horiz-adv-x="438" 
d="M186 46l-156 173l156 174l54 -8l-111 -166l111 -166zM354 46l-156 173l156 174l54 -8l-110 -166l110 -166z" />
    <glyph glyph-name="logicalnot" unicode="&#xac;" horiz-adv-x="553" 
d="M444 296h-394v54h453v-211h-59v157z" />
    <glyph glyph-name="uni00AD" unicode="&#xad;" horiz-adv-x="329" 
d="M40 204v63h249v-63h-249z" />
    <glyph glyph-name="registered" unicode="&#xae;" horiz-adv-x="683" 
d="M35 294q0 132 89 219.5t217 87.5t217.5 -87.5t89.5 -219.5t-89.5 -219t-217.5 -87t-217 87t-89 219zM66 294q0 -120 80 -199t196 -79t196 79t80 199t-80 199t-196 79t-196 -79t-80 -199zM297 433v-126h26q40 1 57.5 14t17.5 49q0 38 -17.5 50.5t-60.5 12.5h-23zM477 170
l51 -16l-4 -19h-113l-58 111q-7 13 -12 18.5t-16 10.5t-28 6v-110l50 -14l-6 -22h-160l-5 22l46 14v256l-46 15l5 21h149q73 0 112 -19.5t39 -72.5q0 -79 -104 -85q25 -5 37.5 -14.5t21.5 -26.5z" />
    <glyph glyph-name="macron" unicode="&#xaf;" horiz-adv-x="441" 
d="M361 511h-281v57h281v-57z" />
    <glyph glyph-name="degree" unicode="&#xb0;" horiz-adv-x="298" 
d="M30 539q0 48 33.5 81t86.5 33q52 0 85 -33t33 -81q0 -50 -33 -83t-85 -33q-56 0 -88 33t-32 83zM83 537q0 -29 18 -48t49 -19q29 0 47.5 19t18.5 48q0 30 -18.5 50t-47.5 20q-30 0 -48.5 -19.5t-18.5 -50.5z" />
    <glyph glyph-name="plusminus" unicode="&#xb1;" horiz-adv-x="496" 
d="M55 333h166v126h51v-126h169v-52h-169v-139h-51v139h-166v52zM441 50h-386v51h386v-51z" />
    <glyph glyph-name="twosuperior" unicode="&#xb2;" horiz-adv-x="366" 
d="M131 301h184v-67h-276l-7 42q100 62 139 101.5t39 90.5q0 32 -17 50.5t-48 18.5q-59 0 -61 -62q0 -8 2 -28l-32 -9q-10 22 -10 47q-1 48 31 80.5t95 32.5q59 0 94.5 -31.5t35.5 -88.5q0 -34 -14.5 -61.5t-44.5 -49.5t-50.5 -33t-59.5 -29v-4z" />
    <glyph glyph-name="threesuperior" unicode="&#xb3;" horiz-adv-x="353" 
d="M34 329l39 7q6 -67 68 -67q31 0 50.5 14.5t19.5 43.5q0 70 -99 70l-5 26q51 11 69 24.5t18 43.5q0 52 -54 52q-52 0 -52 -50q0 -11 3 -18l-31 -6q-9 15 -9 38q0 37 29.5 64t89.5 27q56 0 87 -24t31 -69q0 -38 -26 -60t-66 -26v-4q107 -5 107 -86q0 -53 -42 -78t-105 -25
q-122 0 -122 103z" />
    <glyph glyph-name="acute" unicode="&#xb4;" horiz-adv-x="313" 
d="M213 582l-117 -94l-16 14l55 133q10 24 31.5 30.5t44.5 -8.5q23 -17 22 -39t-20 -36z" />
    <glyph glyph-name="mu" unicode="&#xb5;" horiz-adv-x="502" 
d="M328 419l88 27h18v-370l52 -41v-14l-144 -30l-10 71h-4q-44 -72 -135 -72q-17 0 -37 10.5t-31 28.5l42 -196l-11 -25l-96 20v591l88 27h18v-295q0 -93 71 -93q49 0 91 41v320z" />
    <glyph glyph-name="paragraph" unicode="&#xb6;" horiz-adv-x="469" 
d="M361 531v-530q0 -71 -38.5 -110.5t-112.5 -39.5q-48 0 -74 20.5t-26 55.5q0 27 17.5 43t43.5 16t40 -15t14 -39q0 -26 -15 -43q48 1 69.5 26.5t21.5 92.5v207h-70q-91 0 -146 46.5t-55 133.5q0 94 66 143.5t167 49.5h162v-45z" />
    <glyph glyph-name="periodcentered" unicode="&#xb7;" horiz-adv-x="226" 
d="M40 250q0 31 21.5 52t51.5 21t51.5 -21t21.5 -52t-21.5 -52t-51.5 -21t-51.5 21t-21.5 52z" />
    <glyph glyph-name="periodcentered" unicode="&#x22c5;" horiz-adv-x="226" 
d="M40 250q0 31 21.5 52t51.5 21t51.5 -21t21.5 -52t-21.5 -52t-51.5 -21t-51.5 21t-21.5 52z" />
    <glyph glyph-name="cedilla" unicode="&#xb8;" horiz-adv-x="363" 
d="M80 -182l17 22q26 -22 61 -22q45 0 45 37q0 19 -13.5 31.5t-25 16.5t-37.5 11l38 103h35l-23 -59q42 -7 74 -28t32 -61q0 -87 -114 -87q-61 0 -89 36z" />
    <glyph glyph-name="onesuperior" unicode="&#xb9;" horiz-adv-x="347" 
d="M233 588v-305l96 -17l-10 -32h-263l-10 32l99 17v222h-101l-8 25l178 68z" />
    <glyph glyph-name="ordmasculine" unicode="&#xba;" horiz-adv-x="419" 
d="M210 633q81 0 130 -47.5t49 -140.5q0 -92 -50 -139t-131 -47q-178 0 -178 186q0 90 50 139t130 49zM210 292q80 0 80 152q0 154 -80 154t-80 -154q0 -152 80 -152z" />
    <glyph glyph-name="guillemotright" unicode="&#xbb;" horiz-adv-x="438" 
d="M240 219l-156 -173l-54 7l111 166l-111 166l54 8zM408 219l-155 -173l-55 7l111 166l-111 166l55 8z" />
    <glyph glyph-name="onequarter" unicode="&#xbc;" horiz-adv-x="869" 
d="M233 588v-305l96 -17l-10 -32h-263l-10 32l99 17v222h-101l-8 25l178 68zM218 -39l436 667h56l-436 -667h-56zM775 121h70v-43h-70v-78h-89v78h-185v32l174 244h100v-233zM686 121v115l4 73h-4q-10 -27 -34 -61l-55 -81q-10 -15 -20 -26.5t-15 -15.5l-6 -4v-4q8 4 49 4
h81z" />
    <glyph glyph-name="onehalf" unicode="&#xbd;" horiz-adv-x="898" 
d="M233 588v-305l96 -17l-10 -32h-263l-10 32l99 17v222h-101l-8 25l178 68zM218 -39l436 667h56l-436 -667h-56zM658 67h188v-67h-275l-7 42q100 62 139 101.5t39 90.5q0 32 -17.5 50.5t-48.5 18.5q-29 0 -44.5 -16.5t-15.5 -45.5q-1 -12 2 -28l-32 -9q-11 20 -11 47
q0 49 32.5 81t94.5 32q59 0 94.5 -31.5t35.5 -88.5q0 -27 -12 -52t-27.5 -41.5t-43 -34t-44.5 -26.5t-47 -23z" />
    <glyph glyph-name="threequarters" unicode="&#xbe;" horiz-adv-x="826" 
d="M34 329l39 7q6 -67 68 -67q31 0 50.5 14.5t19.5 43.5q0 70 -99 70l-5 26q51 11 69 24.5t18 43.5q0 52 -54 52q-52 0 -52 -50q0 -11 3 -18l-31 -6q-9 15 -9 38q0 37 29.5 64t89.5 27q56 0 87 -24t31 -69q0 -38 -26 -60t-66 -26v-4q107 -5 107 -86q0 -53 -42 -78t-105 -25
q-122 0 -122 103zM174 -39l437 667h56l-437 -667h-56zM731 121h71v-43h-71v-78h-89v78h-184v32l174 244h99v-233zM642 121v115l4 73h-4q-10 -27 -33 -61l-55 -81q-10 -15 -20.5 -26.5t-15.5 -15.5l-6 -4v-4q9 4 49 4h81z" />
    <glyph glyph-name="questiondown" unicode="&#xbf;" horiz-adv-x="404" 
d="M201 248h28q23 -25 23 -59q0 -8 -1.5 -15t-3 -12.5t-6 -11.5l-7 -9.5t-9 -9.5t-9 -8l-10.5 -8.5t-10 -8.5q-51 -42 -51 -98q0 -45 23.5 -71t68.5 -26q43 0 67.5 28t24.5 67t-31 80l27 18q57 -40 57 -110q0 -63 -44 -108.5t-128 -45.5q-87 0 -132.5 43.5t-45.5 113.5
q0 31 7.5 54.5t26 41.5t29 26t37.5 24q5 3 8 5q36 21 48.5 35.5t12.5 42.5v22zM290 373q0 -31 -21.5 -52.5t-51.5 -21.5t-51.5 21.5t-21.5 52.5t21.5 52t51.5 21t51.5 -21t21.5 -52z" />
    <glyph glyph-name="Agrave" unicode="&#xc0;" horiz-adv-x="596" 
d="M426 51l-48 131h-213l-47 -127l79 -21l-5 -34h-181l-7 31l49 25l200 532h91l199 -532l50 -25l-7 -31h-228l-6 35zM239 381l-56 -150h177l-54 151q-12 32 -19 62.5t-9 45.5l-1 14h-4q-8 -54 -34 -123zM352 617l-132 72q-22 11 -29 30.5t10 41.5q18 19 38.5 16.5
t35.5 -22.5l91 -119z" />
    <glyph glyph-name="Aacute" unicode="&#xc1;" horiz-adv-x="596" 
d="M426 51l-48 131h-213l-47 -127l79 -21l-5 -34h-181l-7 31l49 25l200 532h91l199 -532l50 -25l-7 -31h-228l-6 35zM239 381l-56 -150h177l-54 151q-12 32 -19 62.5t-9 45.5l-1 14h-4q-8 -54 -34 -123zM386 698l-133 -72l-13 19l90 119q15 20 35.5 22.5t38.5 -16.5
q17 -22 10.5 -41.5t-28.5 -30.5z" />
    <glyph glyph-name="Acircumflex" unicode="&#xc2;" horiz-adv-x="596" 
d="M426 51l-48 131h-213l-47 -127l79 -21l-5 -34h-181l-7 31l49 25l200 532h91l199 -532l50 -25l-7 -31h-228l-6 35zM239 381l-56 -150h177l-54 151q-12 32 -19 62.5t-9 45.5l-1 14h-4q-8 -54 -34 -123zM298 760h20l140 -142h-107l-69 70l-75 -70h-52z" />
    <glyph glyph-name="Atilde" unicode="&#xc3;" horiz-adv-x="596" 
d="M426 51l-48 131h-213l-47 -127l79 -21l-5 -34h-181l-7 31l49 25l200 532h91l199 -532l50 -25l-7 -31h-228l-6 35zM318 655l-61 26q-17 7 -33 7q-44 -2 -50 -57l-21 3q-10 22 -10 43q0 35 24.5 58.5t65.5 23.5q25 0 55 -12l61 -25q24 -8 38 -8q40 0 44 55l23 -4
q9 -23 9 -46q0 -33 -22 -54.5t-59 -22.5q-29 0 -64 13zM239 381l-56 -150h177l-54 151q-12 32 -19 62.5t-9 45.5l-1 14h-4q-8 -54 -34 -123z" />
    <glyph glyph-name="Adieresis" unicode="&#xc4;" horiz-adv-x="596" 
d="M426 51l-48 131h-213l-47 -127l79 -21l-5 -34h-181l-7 31l49 25l200 532h91l199 -532l50 -25l-7 -31h-228l-6 35zM239 381l-56 -150h177l-54 151q-12 32 -19 62.5t-9 45.5l-1 14h-4q-8 -54 -34 -123zM331 681q0 27 18 44.5t44 17.5q27 0 45.5 -17.5t18.5 -44.5
q0 -25 -18.5 -42.5t-45.5 -17.5q-26 0 -44 17.5t-18 42.5zM141 682q0 27 17.5 44.5t42.5 17.5q28 0 46 -17t18 -45q0 -26 -18 -43t-46 -17q-25 0 -42.5 17.5t-17.5 42.5z" />
    <glyph glyph-name="Aring" unicode="&#xc5;" horiz-adv-x="596" 
d="M426 51l-48 131h-213l-47 -127l79 -21l-5 -34h-181l-7 31l49 25l200 532h91l199 -532l50 -25l-7 -31h-228l-6 35zM197 717q0 39 27.5 66t70.5 27t71 -27t28 -66q0 -41 -27.5 -68.5t-71.5 -27.5q-45 0 -71.5 27t-26.5 69zM239 381l-56 -150h177l-54 151q-12 32 -19 62.5
t-9 45.5l-1 14h-4q-8 -54 -34 -123zM243 715q0 -23 13.5 -37.5t38.5 -14.5q23 0 37.5 15t14.5 37q0 24 -14 39t-38 15t-38 -15t-14 -39z" />
    <glyph glyph-name="AE" unicode="&#xc6;" horiz-adv-x="824" 
d="M276 588h492v-157l-21 -5l-78 113h-153v-217h93l41 86l22 -4v-214l-21 -4l-41 88h-94v-209l40 -17h128l87 140l26 -6l-20 -182h-434l-7 32l70 23v137h-195l-80 -138l70 -20l-5 -34h-185l-7 30l60 26l275 477l-70 23zM358 443l-119 -203h167v299h-4q-8 -37 -44 -96z" />
    <glyph glyph-name="Ccedilla" unicode="&#xc7;" horiz-adv-x="548" 
d="M199 -182l17 22q26 -22 61 -22q46 0 46 37q0 19 -13.5 31.5t-25 16.5t-38.5 11l29 78q-108 12 -172 89t-64 212q0 148 76 226.5t200 78.5q54 0 124 -19l60 19v-167l-21 -5l-41 57q-28 39 -55 55t-65 16q-155 0 -155 -261q0 -121 45 -180t122 -59q93 0 170 59l21 -32
q-31 -44 -85.5 -67.5t-119.5 -23.5h-6l-12 -32q41 -7 73 -28t32 -61q0 -87 -114 -87q-60 0 -89 36z" />
    <glyph glyph-name="Egrave" unicode="&#xc8;" horiz-adv-x="524" 
d="M310 274h-94v-209l39 -17h128l87 140l26 -6l-20 -182h-433l-8 32l70 23v478l-70 23l8 32h424v-157l-21 -5l-78 113h-152v-217h93l41 86l22 -4v-214l-21 -4zM332 617l-132 72q-22 11 -29 30.5t10 41.5q18 19 38.5 16.5t35.5 -22.5l91 -119z" />
    <glyph glyph-name="Eacute" unicode="&#xc9;" horiz-adv-x="524" 
d="M310 274h-94v-209l39 -17h128l87 140l26 -6l-20 -182h-433l-8 32l70 23v478l-70 23l8 32h424v-157l-21 -5l-78 113h-152v-217h93l41 86l22 -4v-214l-21 -4zM341 698l-132 -72l-14 19l91 119q15 20 35.5 22.5t38.5 -16.5q17 -22 10 -41.5t-29 -30.5z" />
    <glyph glyph-name="Ecircumflex" unicode="&#xca;" horiz-adv-x="524" 
d="M310 274h-94v-209l39 -17h128l87 140l26 -6l-20 -182h-433l-8 32l70 23v478l-70 23l8 32h424v-157l-21 -5l-78 113h-152v-217h93l41 86l22 -4v-214l-21 -4zM267 770h20l140 -142h-107l-69 70l-75 -70h-52z" />
    <glyph glyph-name="Edieresis" unicode="&#xcb;" horiz-adv-x="524" 
d="M310 274h-94v-209l39 -17h128l87 140l26 -6l-20 -182h-433l-8 32l70 23v478l-70 23l8 32h424v-157l-21 -5l-78 113h-152v-217h93l41 86l22 -4v-214l-21 -4zM117 682q0 27 17.5 44.5t42.5 17.5q28 0 46 -17t18 -45q0 -26 -18 -43t-46 -17q-25 0 -42.5 17.5t-17.5 42.5z
M307 681q0 27 18 44.5t44 17.5q27 0 45 -17.5t18 -44.5q0 -25 -18.5 -42.5t-44.5 -17.5t-44 17.5t-18 42.5z" />
    <glyph glyph-name="Igrave" unicode="&#xcc;" horiz-adv-x="321" 
d="M43 588h235l8 -32l-70 -23v-478l70 -23l-8 -32h-235l-8 32l70 23v478l-70 23zM218 617l-133 72q-22 11 -28.5 30.5t10.5 41.5q18 19 38.5 16.5t35.5 -22.5l90 -119z" />
    <glyph glyph-name="Iacute" unicode="&#xcd;" horiz-adv-x="321" 
d="M43 588h235l8 -32l-70 -23v-478l70 -23l-8 -32h-235l-8 32l70 23v478l-70 23zM236 698l-132 -72l-14 19l91 119q15 20 35.5 22.5t38.5 -16.5q17 -22 10 -41.5t-29 -30.5z" />
    <glyph glyph-name="Icircumflex" unicode="&#xce;" horiz-adv-x="321" 
d="M43 588h236l8 -32l-71 -23v-478l71 -23l-8 -32h-236l-7 32l69 23v478l-69 23zM152 770h21l127 -142h-107l-58 66l-61 -66h-52z" />
    <glyph glyph-name="Idieresis" unicode="&#xcf;" horiz-adv-x="321" 
d="M17 682q0 27 18 44.5t43 17.5q28 0 46 -17t18 -45q0 -26 -18 -43t-46 -17q-25 0 -43 17.5t-18 42.5zM182 681q0 27 18.5 44.5t43.5 17.5q27 0 45.5 -17.5t18.5 -44.5q0 -25 -18.5 -42.5t-45.5 -17.5q-25 0 -43.5 17.5t-18.5 42.5zM43 588h235l8 -32l-70 -23v-478l70 -23
l-8 -32h-235l-8 32l70 23v478l-70 23z" />
    <glyph glyph-name="Eth" unicode="&#xd0;" horiz-adv-x="622" 
d="M41 274v48h64v211l-70 23l8 32h220q147 0 233.5 -69.5t86.5 -215.5q0 -144 -87 -223.5t-219 -79.5h-234l-8 32l70 23v219h-64zM216 57l51 -15q194 1 194 255q0 244 -206 244h-39v-219h116v-48h-116v-217z" />
    <glyph glyph-name="Ntilde" unicode="&#xd1;" horiz-adv-x="657" 
d="M168 344v-289l75 -23l-8 -32h-192l-8 32l70 23v478l-70 23l8 32h175l223 -316q17 -24 33.5 -54.5t24.5 -48.5l8 -18h4q-5 71 -5 142v240l-75 23l7 32h191l8 -32l-70 -23v-533h-63l-268 369q-17 24 -34.5 54.5t-26.5 48.5l-9 18h-4q6 -72 6 -146zM347 655l-61 26
q-17 7 -34 7q-44 -2 -50 -57l-20 3q-11 24 -11 43q0 35 25 58.5t65 23.5q27 0 55 -12l62 -25q22 -8 38 -8q40 0 44 55l22 -4q10 -25 10 -46q0 -33 -22.5 -54.5t-58.5 -22.5q-31 0 -64 13z" />
    <glyph glyph-name="Ograve" unicode="&#xd2;" horiz-adv-x="629" 
d="M315 37q79 0 115 62.5t36 194.5t-36 194.5t-115 62.5t-115.5 -62.5t-36.5 -194.5t36.5 -194.5t115.5 -62.5zM315 -10q-129 0 -202.5 82.5t-73.5 221.5t73.5 221.5t202.5 82.5t202.5 -82.5t73.5 -221.5t-73.5 -221.5t-202.5 -82.5zM391 617l-133 72q-22 11 -28.5 30.5
t10.5 41.5q18 19 38.5 16.5t35.5 -22.5l90 -119z" />
    <glyph glyph-name="Oacute" unicode="&#xd3;" horiz-adv-x="629" 
d="M315 37q79 0 115 62.5t36 194.5t-36 194.5t-115 62.5t-115.5 -62.5t-36.5 -194.5t36.5 -194.5t115.5 -62.5zM315 -10q-129 0 -202.5 82.5t-73.5 221.5t73.5 221.5t202.5 82.5t202.5 -82.5t73.5 -221.5t-73.5 -221.5t-202.5 -82.5zM385 698l-132 -72l-14 19l91 119
q15 20 35.5 22.5t38.5 -16.5q17 -22 10 -41.5t-29 -30.5z" />
    <glyph glyph-name="Ocircumflex" unicode="&#xd4;" horiz-adv-x="629" 
d="M315 37q79 0 115 62.5t36 194.5t-36 194.5t-115 62.5t-115.5 -62.5t-36.5 -194.5t36.5 -194.5t115.5 -62.5zM315 -10q-129 0 -202.5 82.5t-73.5 221.5t73.5 221.5t202.5 82.5t202.5 -82.5t73.5 -221.5t-73.5 -221.5t-202.5 -82.5zM313 770h20l140 -142h-107l-69 70
l-75 -70h-52z" />
    <glyph glyph-name="Otilde" unicode="&#xd5;" horiz-adv-x="629" 
d="M315 37q79 0 115 62.5t36 194.5t-36 194.5t-115 62.5t-115.5 -62.5t-36.5 -194.5t36.5 -194.5t115.5 -62.5zM315 -10q-129 0 -202.5 82.5t-73.5 221.5t73.5 221.5t202.5 82.5t202.5 -82.5t73.5 -221.5t-73.5 -221.5t-202.5 -82.5zM330 655l-61 26q-17 7 -34 7
q-43 -2 -50 -57l-20 3q-10 22 -10 43q0 35 24.5 58.5t64.5 23.5q26 0 55 -12l62 -25q22 -8 38 -8q40 0 44 55l22 -4q10 -25 10 -46q0 -33 -22 -54.5t-59 -22.5q-31 0 -64 13z" />
    <glyph glyph-name="Odieresis" unicode="&#xd6;" horiz-adv-x="629" 
d="M315 37q79 0 115 62.5t36 194.5t-36 194.5t-115 62.5t-115.5 -62.5t-36.5 -194.5t36.5 -194.5t115.5 -62.5zM315 -10q-129 0 -202.5 82.5t-73.5 221.5t73.5 221.5t202.5 82.5t202.5 -82.5t73.5 -221.5t-73.5 -221.5t-202.5 -82.5zM157 682q0 27 18 44.5t43 17.5
q28 0 46 -17t18 -45q0 -26 -18 -43t-46 -17q-25 0 -43 17.5t-18 42.5zM347 681q0 27 18.5 44.5t43.5 17.5q27 0 45.5 -17.5t18.5 -44.5q0 -25 -18.5 -42.5t-45.5 -17.5q-25 0 -43.5 17.5t-18.5 42.5z" />
    <glyph glyph-name="multiply" unicode="&#xd7;" horiz-adv-x="447" 
d="M55 117l129 129l-125 125l36 36l126 -124l131 130l37 -36l-132 -131l135 -135l-36 -36l-135 134l-129 -128z" />
    <glyph glyph-name="Oslash" unicode="&#xd8;" horiz-adv-x="628" 
d="M314 -10q-101 0 -165 44l-46 -63h-55l66 91q-75 80 -75 237q0 137 73 218t202 81q92 0 158 -44l47 64h57l-68 -93q81 -83 81 -226q0 -150 -69 -229.5t-206 -79.5zM466 298q0 91 -17 146l-249 -340q39 -67 114 -67q76 0 114 68.5t38 192.5zM314 552q-78 0 -115 -62.5
t-37 -191.5q0 -86 18 -146l247 340q-38 60 -113 60z" />
    <glyph glyph-name="Ugrave" unicode="&#xd9;" horiz-adv-x="637" 
d="M547 533v-324q0 -105 -62 -162t-163 -57q-234 0 -234 211v332l-69 23l7 32h235l8 -32l-70 -23v-323q0 -160 137 -160q69 0 109 41t40 124v318l-75 23l8 32h192l8 -32zM374 617l-133 72q-22 11 -28.5 30.5t10.5 41.5q18 19 38.5 16.5t35.5 -22.5l90 -119z" />
    <glyph glyph-name="Uacute" unicode="&#xda;" horiz-adv-x="637" 
d="M547 533v-324q0 -105 -62 -162t-163 -57q-234 0 -234 211v332l-69 23l7 32h235l8 -32l-70 -23v-323q0 -160 137 -160q69 0 109 41t40 124v318l-75 23l8 32h192l8 -32zM417 698l-133 -72l-13 19l90 119q15 20 35.5 22.5t38.5 -16.5q17 -22 10.5 -41.5t-28.5 -30.5z" />
    <glyph glyph-name="Ucircumflex" unicode="&#xdb;" horiz-adv-x="637" 
d="M547 533v-324q0 -105 -62 -162t-163 -57q-234 0 -234 211v332l-69 23l7 32h235l8 -32l-70 -23v-323q0 -160 137 -160q69 0 109 41t40 124v318l-75 23l8 32h192l8 -32zM319 770h20l140 -142h-107l-69 70l-75 -70h-52z" />
    <glyph glyph-name="Udieresis" unicode="&#xdc;" horiz-adv-x="637" 
d="M547 533v-324q0 -105 -62 -162t-163 -57q-234 0 -234 211v332l-69 23l7 32h235l8 -32l-70 -23v-323q0 -160 137 -160q69 0 109 41t40 124v318l-75 23l8 32h192l8 -32zM171 682q0 27 18 44.5t43 17.5q28 0 46 -17t18 -45q0 -26 -18 -43t-46 -17q-25 0 -43 17.5t-18 42.5z
M362 681q0 27 18 44.5t44 17.5q27 0 45 -17.5t18 -44.5q0 -25 -18.5 -42.5t-44.5 -17.5t-44 17.5t-18 42.5z" />
    <glyph glyph-name="Yacute" unicode="&#xdd;" horiz-adv-x="565" 
d="M171 537l101 -186q13 -25 21 -46t9 -29l2 -9h4q6 27 37 83l101 182l-80 22l5 34h183l7 -31l-49 -25l-174 -312v-164l102 -21l-8 -35h-299l-8 35l102 21v164l-174 312l-49 25l7 31h228l6 -35zM371 698l-132 -72l-14 19l91 119q15 20 35.5 22.5t38.5 -16.5q17 -22 10 -41.5
t-29 -30.5z" />
    <glyph glyph-name="Thorn" unicode="&#xde;" horiz-adv-x="522" 
d="M215 467h53q106 0 168 -37t62 -130q0 -176 -230 -176h-53v-67l105 -22l-8 -35h-270l-7 32l69 23v478l-69 23l7 32h237l8 -32l-72 -23v-66zM215 421v-251h34q72 0 103.5 28.5t31.5 101.5q0 64 -33 92.5t-102 28.5h-34z" />
    <glyph glyph-name="germandbls" unicode="&#xdf;" horiz-adv-x="576" 
d="M400 549q0 45 -28.5 70t-73.5 25q-57 0 -82.5 -36t-25.5 -112l-1 -496h-153v28l47 20v339h-71v36l71 16v27q0 109 64 165t173 56q82 0 131 -32.5t49 -95.5q0 -31 -13 -56t-27.5 -37.5t-48.5 -38.5q-21 -16 -30 -23.5t-17.5 -21.5t-8.5 -31q0 -23 22.5 -42.5t76.5 -49.5
q56 -32 81.5 -60.5t25.5 -79.5q0 -64 -44 -96.5t-119 -32.5q-49 0 -99 23l-47 -23l-10 148l24 6q45 -71 72 -95t65 -24q69 0 69 55q0 29 -16 45.5t-61 42.5q-69 37 -96.5 67t-27.5 79q0 8 1 15.5t2 13t5 12.5t5.5 11t7.5 11.5t8 10.5t10 11t10 10.5t12.5 12t12.5 11.5
q32 31 43.5 54.5t11.5 61.5z" />
    <glyph glyph-name="agrave" unicode="&#xe0;" horiz-adv-x="451" 
d="M378 302v-208q0 -34 14.5 -44.5t54.5 -5.5l3 -22q-35 -32 -94 -32q-67 0 -79 62h-3q-15 -30 -46.5 -46t-70.5 -16q-56 0 -90.5 31t-34.5 90q0 65 47.5 98t132.5 33q30 0 60 -7v47q0 43 -25.5 65.5t-69.5 22.5q-61 0 -119 -37l-13 28q65 85 180 85q65 0 109 -36t44 -108z
M272 198h-25q-55 0 -82.5 -17t-27.5 -60q0 -31 17 -48.5t46 -17.5q44 0 72 29v114zM265 488l-116 94q-19 14 -20 36t22 39q22 15 43.5 8.5t32.5 -30.5l55 -133z" />
    <glyph glyph-name="aacute" unicode="&#xe1;" horiz-adv-x="451" 
d="M378 302v-208q0 -34 14.5 -44.5t54.5 -5.5l3 -22q-35 -32 -94 -32q-67 0 -79 62h-3q-15 -30 -46.5 -46t-70.5 -16q-56 0 -90.5 31t-34.5 90q0 65 47.5 98t132.5 33q30 0 60 -7v47q0 43 -25.5 65.5t-69.5 22.5q-61 0 -119 -37l-13 28q65 85 180 85q65 0 109 -36t44 -108z
M272 198h-25q-55 0 -82.5 -17t-27.5 -60q0 -31 17 -48.5t46 -17.5q44 0 72 29v114zM300 582l-116 -94l-17 14l55 133q10 24 32 31t44 -9q23 -17 22 -39t-20 -36z" />
    <glyph glyph-name="acircumflex" unicode="&#xe2;" horiz-adv-x="451" 
d="M378 302v-208q0 -34 14.5 -44.5t54.5 -5.5l3 -22q-35 -32 -94 -32q-67 0 -79 62h-3q-15 -30 -46.5 -46t-70.5 -16q-56 0 -90.5 31t-34.5 90q0 65 47.5 98t132.5 33q30 0 60 -7v47q0 43 -25.5 65.5t-69.5 22.5q-61 0 -119 -37l-13 28q65 85 180 85q65 0 109 -36t44 -108z
M272 198h-25q-55 0 -82.5 -17t-27.5 -60q0 -31 17 -48.5t46 -17.5q44 0 72 29v114zM206 662h21l139 -180h-101l-72 103l-79 -103h-50z" />
    <glyph glyph-name="atilde" unicode="&#xe3;" horiz-adv-x="451" 
d="M378 302v-208q0 -34 14.5 -44.5t54.5 -5.5l3 -22q-35 -32 -94 -32q-67 0 -79 62h-3q-15 -30 -46.5 -46t-70.5 -16q-56 0 -90.5 31t-34.5 90q0 65 47.5 98t132.5 33q30 0 60 -7v47q0 43 -25.5 65.5t-69.5 22.5q-61 0 -119 -37l-13 28q65 85 180 85q65 0 109 -36t44 -108z
M272 198h-25q-55 0 -82.5 -17t-27.5 -60q0 -31 17 -48.5t46 -17.5q44 0 72 29v114zM236 512l-60 25q-15 7 -33 7q-43 0 -49 -56l-20 2q-10 23 -10 43q0 36 24 59.5t64 23.5q25 0 54 -12l61 -25q21 -9 37 -9q38 0 43 56l22 -4q10 -25 10 -46q0 -34 -22 -55.5t-58 -21.5
q-33 0 -63 13z" />
    <glyph glyph-name="adieresis" unicode="&#xe4;" horiz-adv-x="451" 
d="M378 302v-208q0 -34 14.5 -44.5t54.5 -5.5l3 -22q-35 -32 -94 -32q-67 0 -79 62h-3q-15 -30 -46.5 -46t-70.5 -16q-56 0 -90.5 31t-34.5 90q0 65 47.5 98t132.5 33q30 0 60 -7v47q0 43 -25.5 65.5t-69.5 22.5q-61 0 -119 -37l-13 28q65 85 180 85q65 0 109 -36t44 -108z
M272 198h-25q-55 0 -82.5 -17t-27.5 -60q0 -31 17 -48.5t46 -17.5q44 0 72 29v114zM58 564q0 27 17.5 44t42.5 17q28 0 46 -17t18 -44q0 -26 -18 -43.5t-46 -17.5q-25 0 -42.5 17.5t-17.5 43.5zM248 563q0 27 18 44t44 17q27 0 45 -17t18 -44q0 -25 -18.5 -43t-44.5 -18
t-44 18t-18 43z" />
    <glyph glyph-name="aring" unicode="&#xe5;" horiz-adv-x="451" 
d="M378 302v-208q0 -34 14.5 -44.5t54.5 -5.5l3 -22q-35 -32 -94 -32q-67 0 -79 62h-3q-15 -30 -46.5 -46t-70.5 -16q-56 0 -90.5 31t-34.5 90q0 65 47.5 98t132.5 33q30 0 60 -7v47q0 43 -25.5 65.5t-69.5 22.5q-61 0 -119 -37l-13 28q65 85 180 85q65 0 109 -36t44 -108z
M272 198h-25q-55 0 -82.5 -17t-27.5 -60q0 -31 17 -48.5t46 -17.5q44 0 72 29v114zM122 589q0 39 27.5 66.5t71.5 27.5q43 0 71 -27.5t28 -66.5q0 -40 -28 -68t-71 -28q-46 0 -72.5 27.5t-26.5 68.5zM168 588q0 -23 14 -37.5t39 -14.5q23 0 37 14.5t14 37.5t-14 38t-37 15
q-24 0 -38.5 -15t-14.5 -38z" />
    <glyph glyph-name="ae" unicode="&#xe6;" horiz-adv-x="666" 
d="M365 220q1 -71 35.5 -114t96.5 -43t118 40l15 -22q-50 -91 -170 -91q-98 0 -152 69q-41 -69 -139 -69q-64 0 -100.5 32t-36.5 91q0 75 59.5 107.5t174.5 38.5q4 21 7 34q-3 37 -28.5 57.5t-65.5 20.5q-64 0 -120 -39l-13 29q64 85 178 85q74 0 114 -49q57 49 138 49
q72 0 116 -41.5t44 -117.5q0 -29 -5 -53zM206 59q52 0 84 29q-27 50 -27 125v4q-71 -5 -99 -24.5t-28 -65.5q0 -30 18 -49t52 -19zM466 402q-39 0 -66.5 -36.5t-31.5 -100.5l166 9q1 8 1 34q0 94 -69 94z" />
    <glyph glyph-name="ccedilla" unicode="&#xe7;" horiz-adv-x="425" 
d="M116 -182l17 22q26 -22 60 -22q46 0 46 37q0 19 -13.5 31.5t-24.5 16.5t-38 11l29 80q-70 12 -112.5 69.5t-42.5 150.5q0 108 64.5 170t160.5 62q59 0 96.5 -23.5t37.5 -68.5q0 -28 -17.5 -46t-43.5 -18t-43 16t-17 42q0 31 24 50q-20 5 -34 5q-58 0 -91.5 -45
t-33.5 -127q0 -78 35.5 -123t98.5 -45q54 0 112 40l15 -23q-53 -90 -170 -90h-6l-12 -32q42 -7 74 -28t32 -61q0 -87 -115 -87q-60 0 -88 36z" />
    <glyph glyph-name="egrave" unicode="&#xe8;" horiz-adv-x="440" 
d="M140 233q0 -79 34.5 -124.5t96.5 -45.5t118 40l15 -23q-49 -90 -170 -90q-86 0 -141.5 58t-55.5 165q0 108 61.5 170.5t151.5 62.5q72 0 116 -41.5t44 -117.5q0 -30 -5 -54h-265zM240 402q-37 0 -63 -31.5t-35 -93.5h166q2 16 2 31q0 94 -70 94zM278 488l-117 94
q-19 14 -19.5 36t22.5 39q22 15 43.5 8.5t31.5 -30.5l55 -133z" />
    <glyph glyph-name="eacute" unicode="&#xe9;" horiz-adv-x="440" 
d="M140 233q0 -79 34.5 -124.5t96.5 -45.5t118 40l15 -23q-49 -90 -170 -90q-86 0 -141.5 58t-55.5 165q0 108 61.5 170.5t151.5 62.5q72 0 116 -41.5t44 -117.5q0 -30 -5 -54h-265zM240 402q-37 0 -63 -31.5t-35 -93.5h166q2 16 2 31q0 94 -70 94zM319 582l-116 -94l-17 14
l55 133q11 24 32.5 30.5t43.5 -8.5q23 -17 22 -39t-20 -36z" />
    <glyph glyph-name="ecircumflex" unicode="&#xea;" horiz-adv-x="440" 
d="M140 233q0 -79 34.5 -124.5t96.5 -45.5t118 40l15 -23q-49 -90 -170 -90q-86 0 -141.5 58t-55.5 165q0 108 61.5 170.5t151.5 62.5q72 0 116 -41.5t44 -117.5q0 -30 -5 -54h-265zM240 402q-37 0 -63 -31.5t-35 -93.5h166q2 16 2 31q0 94 -70 94zM235 662h21l139 -180
h-101l-72 103l-79 -103h-50z" />
    <glyph glyph-name="edieresis" unicode="&#xeb;" horiz-adv-x="440" 
d="M140 233q0 -79 34.5 -124.5t96.5 -45.5t118 40l15 -23q-49 -90 -170 -90q-86 0 -141.5 58t-55.5 165q0 108 61.5 170.5t151.5 62.5q72 0 116 -41.5t44 -117.5q0 -30 -5 -54h-265zM240 402q-37 0 -63 -31.5t-35 -93.5h166q2 16 2 31q0 94 -70 94zM88 564q0 27 17.5 44
t42.5 17q28 0 46 -17t18 -44q0 -26 -18 -43.5t-46 -17.5q-25 0 -42.5 17.5t-17.5 43.5zM278 563q0 27 18 44t44 17q28 0 46 -17t18 -44q0 -26 -18.5 -43.5t-45.5 -17.5q-26 0 -44 18t-18 43z" />
    <glyph glyph-name="igrave" unicode="&#xec;" horiz-adv-x="272" 
d="M190 48l65 -19l-13 -29h-202v28l44 20v284l-45 59v11l133 44h18v-398zM165 488l-117 94q-19 14 -19.5 36t22.5 39q22 15 43.5 8.5t31.5 -30.5l55 -133z" />
    <glyph glyph-name="iacute" unicode="&#xed;" horiz-adv-x="272" 
d="M190 48l65 -19l-13 -29h-202v28l44 20v284l-45 59v11l133 44h18v-398zM213 582l-117 -94l-16 14l55 133q10 24 31.5 30.5t43.5 -8.5q23 -17 22.5 -39t-19.5 -36z" />
    <glyph glyph-name="icircumflex" unicode="&#xee;" horiz-adv-x="272" 
d="M127 662h20l130 -180h-101l-60 93l-72 -93h-50zM190 48l65 -19l-13 -29h-202v28l44 20v284l-45 59v11l133 44h18v-398z" />
    <glyph glyph-name="idieresis" unicode="&#xef;" horiz-adv-x="272" 
d="M190 48l65 -19l-13 -29h-202v28l44 20v284l-45 59v11l133 44h18v-398zM-19 564q0 27 17.5 44t42.5 17q28 0 46 -17t18 -44q0 -26 -18 -43.5t-46 -17.5q-25 0 -42.5 17.5t-17.5 43.5zM171 563q0 27 18 44t44 17q27 0 45 -17t18 -44q0 -25 -18.5 -43t-44.5 -18t-44 18
t-18 43z" />
    <glyph glyph-name="eth" unicode="&#xf0;" horiz-adv-x="511" 
d="M103 529l131 52q-48 41 -128 81l15 27q107 -25 183 -81l101 40l13 -37l-79 -31q135 -124 135 -325q0 -134 -59.5 -199.5t-159.5 -65.5q-104 0 -161 58t-57 177q0 106 59.5 163.5t150.5 57.5q55 0 92 -31q-21 80 -74 136l-149 -58zM358 250q0 68 -8 115q-36 37 -89 37
q-108 0 -108 -171q0 -201 103 -201q102 0 102 220z" />
    <glyph glyph-name="ntilde" unicode="&#xf1;" horiz-adv-x="537" 
d="M461 48l66 -19l-13 -29h-203v28l44 18v235q0 81 -73 81q-50 0 -92 -38v-276l66 -19l-13 -29h-203v28l44 17v284l-45 59v11l133 47h17l-3 -86h4q53 86 149 86q52 0 87 -36t35 -108v-254zM294 512l-60 25q-17 7 -33 7q-43 0 -49 -56l-20 2q-11 26 -11 43q0 35 24 59t64 24
q25 0 54 -12l61 -25q21 -9 37 -9q40 0 43 56l23 -4q9 -27 9 -46q0 -34 -22 -55.5t-58 -21.5q-32 0 -62 13z" />
    <glyph glyph-name="ograve" unicode="&#xf2;" horiz-adv-x="500" 
d="M463 218q0 -110 -57.5 -169t-155.5 -59t-155.5 59t-57.5 169t57.5 169t155.5 59t155.5 -59t57.5 -169zM151 218q0 -184 99 -184t99 184t-99 184t-99 -184zM290 488l-116 94q-19 14 -20 36t22 39q22 15 43.5 8.5t32.5 -30.5l55 -133z" />
    <glyph glyph-name="oacute" unicode="&#xf3;" horiz-adv-x="500" 
d="M463 218q0 -110 -57.5 -169t-155.5 -59t-155.5 59t-57.5 169t57.5 169t155.5 59t155.5 -59t57.5 -169zM151 218q0 -184 99 -184t99 184t-99 184t-99 -184zM331 582l-116 -94l-17 14l55 133q11 24 32.5 30.5t43.5 -8.5q23 -17 22 -39t-20 -36z" />
    <glyph glyph-name="ocircumflex" unicode="&#xf4;" horiz-adv-x="500" 
d="M463 218q0 -110 -57.5 -169t-155.5 -59t-155.5 59t-57.5 169t57.5 169t155.5 59t155.5 -59t57.5 -169zM151 218q0 -184 99 -184t99 184t-99 184t-99 -184zM247 662h21l139 -180h-101l-72 103l-79 -103h-50z" />
    <glyph glyph-name="otilde" unicode="&#xf5;" horiz-adv-x="500" 
d="M463 218q0 -110 -57.5 -169t-155.5 -59t-155.5 59t-57.5 169t57.5 169t155.5 59t155.5 -59t57.5 -169zM151 218q0 -184 99 -184t99 184t-99 184t-99 -184zM268 512l-60 25q-15 7 -33 7q-43 0 -49 -56l-20 2q-10 23 -10 43q0 36 24 59.5t64 23.5q26 0 54 -12l61 -25
q21 -9 37 -9q38 0 43 56l22 -4q10 -25 10 -46q0 -34 -22 -55.5t-58 -21.5q-33 0 -63 13z" />
    <glyph glyph-name="odieresis" unicode="&#xf6;" horiz-adv-x="500" 
d="M463 218q0 -110 -57.5 -169t-155.5 -59t-155.5 59t-57.5 169t57.5 169t155.5 59t155.5 -59t57.5 -169zM151 218q0 -184 99 -184t99 184t-99 184t-99 -184zM94 564q0 27 18 44t43 17q28 0 46 -17t18 -44q0 -26 -18 -43.5t-46 -17.5q-25 0 -43 17.5t-18 43.5zM284 563
q0 27 18 44t44 17q28 0 46 -17t18 -44q0 -26 -18.5 -43.5t-45.5 -17.5q-25 0 -43.5 18t-18.5 43z" />
    <glyph glyph-name="divide" unicode="&#xf7;" horiz-adv-x="496" 
d="M441 219h-386v51h386v-51zM201 81q0 19 12.5 32t30.5 13q19 0 32 -13t13 -32q0 -18 -13 -30.5t-32 -12.5q-18 0 -30.5 12.5t-12.5 30.5zM201 403q0 18 12.5 31.5t30.5 13.5q19 0 32 -13.5t13 -31.5q0 -19 -13 -31.5t-32 -12.5q-18 0 -30.5 12.5t-12.5 31.5z" />
    <glyph glyph-name="oslash" unicode="&#xf8;" horiz-adv-x="512" 
d="M257 446q61 0 109 -23l30 43h49l-45 -65q74 -60 74 -184q0 -113 -60 -170t-159 -57q-68 0 -120 25l-30 -44h-49l46 67q-65 57 -65 179q0 110 60.5 169.5t159.5 59.5zM256 30q100 0 100 187q0 59 -11 103l-167 -243q24 -47 78 -47zM154 217q0 -54 7 -92l165 239
q-27 39 -70 39q-55 0 -78.5 -47.5t-23.5 -138.5z" />
    <glyph glyph-name="ugrave" unicode="&#xf9;" horiz-adv-x="502" 
d="M328 329l-45 59v11l133 47h18v-370l52 -41v-14l-144 -30l-10 71h-4q-44 -72 -136 -72q-56 0 -94 34.5t-38 109.5v195l-45 59v11l133 47h18v-295q0 -93 71 -93q49 0 91 41v230zM282 488l-116 94q-19 14 -20 36t22 39q22 15 43.5 8.5t32.5 -30.5l55 -133z" />
    <glyph glyph-name="uacute" unicode="&#xfa;" horiz-adv-x="502" 
d="M328 329l-45 59v11l133 47h18v-370l52 -41v-14l-144 -30l-10 71h-4q-44 -72 -136 -72q-56 0 -94 34.5t-38 109.5v195l-45 59v11l133 47h18v-295q0 -93 71 -93q49 0 91 41v230zM336 582l-117 -94l-16 14l55 133q10 24 31.5 30.5t43.5 -8.5q23 -17 22.5 -39t-19.5 -36z" />
    <glyph glyph-name="ucircumflex" unicode="&#xfb;" horiz-adv-x="502" 
d="M328 329l-45 59v11l133 47h18v-370l52 -41v-14l-144 -30l-10 71h-4q-44 -72 -136 -72q-56 0 -94 34.5t-38 109.5v195l-45 59v11l133 47h18v-295q0 -93 71 -93q49 0 91 41v230zM251 662h20l140 -180h-101l-72 103l-80 -103h-50z" />
    <glyph glyph-name="udieresis" unicode="&#xfc;" horiz-adv-x="502" 
d="M328 329l-45 59v11l133 47h18v-370l52 -41v-14l-144 -30l-10 71h-4q-44 -72 -136 -72q-56 0 -94 34.5t-38 109.5v195l-45 59v11l133 47h18v-295q0 -93 71 -93q49 0 91 41v230zM100 564q0 27 17.5 44t42.5 17q28 0 46 -17t18 -44q0 -26 -18 -43.5t-46 -17.5
q-25 0 -42.5 17.5t-17.5 43.5zM290 563q0 27 18 44t44 17q27 0 45 -17t18 -44q0 -25 -18.5 -43t-44.5 -18t-44 18t-18 43z" />
    <glyph glyph-name="yacute" unicode="&#xfd;" horiz-adv-x="471" 
d="M212 -25l-164 404l-44 29l7 28h204l7 -32l-64 -16l69 -178q12 -33 20 -64t10 -46l2 -14h4q14 59 36 125l57 173l-64 21l5 31h164l6 -31l-46 -18l-143 -385q-44 -119 -89.5 -169t-112.5 -50q-41 0 -63 21t-22 53q0 29 16.5 45.5t45.5 16.5q26 0 40.5 -16t14.5 -40
q0 -21 -12 -37q30 1 63.5 44.5t52.5 104.5zM323 582l-116 -94l-17 14l55 133q10 24 32 31t44 -9q23 -17 22 -39t-20 -36z" />
    <glyph glyph-name="thorn" unicode="&#xfe;" horiz-adv-x="514" 
d="M228 -10q-29 0 -61 8v-160l70 -19l-13 -29h-210v28l47 17v743l-53 50v11l141 42h18v-303h4q18 31 52.5 49.5t77.5 18.5q77 0 126.5 -55.5t49.5 -153.5q0 -121 -71 -184t-178 -63zM167 341v-282q24 -22 65 -22q58 0 96 43.5t38 132.5q0 77 -32.5 117t-86.5 40
q-46 0 -80 -29z" />
    <glyph glyph-name="ydieresis" unicode="&#xff;" horiz-adv-x="471" 
d="M212 -25l-164 404l-44 29l7 28h204l7 -32l-64 -16l69 -178q12 -33 20 -64t10 -46l2 -14h4q14 59 36 125l57 173l-64 21l5 31h164l6 -31l-46 -18l-143 -385q-44 -119 -89.5 -169t-112.5 -50q-41 0 -63 21t-22 53q0 29 16.5 45.5t45.5 16.5q26 0 40.5 -16t14.5 -40
q0 -21 -12 -37q30 1 63.5 44.5t52.5 104.5zM88 564q0 27 18 44t43 17q28 0 46 -17t18 -44q0 -26 -18 -43.5t-46 -17.5q-25 0 -43 17.5t-18 43.5zM278 563q0 27 18 44t44 17q28 0 46 -17t18 -44q0 -26 -18.5 -43.5t-45.5 -17.5q-25 0 -43.5 18t-18.5 43z" />
    <glyph glyph-name="Amacron" unicode="&#x100;" horiz-adv-x="596" 
d="M426 51l-48 131h-213l-47 -127l79 -21l-5 -34h-181l-7 31l49 25l200 532h91l199 -532l50 -25l-7 -31h-228l-6 35zM239 381l-56 -150h177l-54 151q-12 32 -19 62.5t-9 45.5l-1 14h-4q-8 -54 -34 -123zM452 653h-312v56h312v-56z" />
    <glyph glyph-name="amacron" unicode="&#x101;" horiz-adv-x="451" 
d="M378 302v-208q0 -34 14.5 -44.5t54.5 -5.5l3 -22q-35 -32 -94 -32q-67 0 -79 62h-3q-15 -30 -46.5 -46t-70.5 -16q-56 0 -90.5 31t-34.5 90q0 65 47.5 98t132.5 33q30 0 60 -7v47q0 43 -25.5 65.5t-69.5 22.5q-61 0 -119 -37l-13 28q65 85 180 85q65 0 109 -36t44 -108z
M272 198h-25q-55 0 -82.5 -17t-27.5 -60q0 -31 17 -48.5t46 -17.5q44 0 72 29v114zM354 511h-282v57h282v-57z" />
    <glyph glyph-name="Abreve" unicode="&#x102;" horiz-adv-x="596" 
d="M426 51l-48 131h-213l-47 -127l79 -21l-5 -34h-181l-7 31l49 25l200 532h91l199 -532l50 -25l-7 -31h-228l-6 35zM239 381l-56 -150h177l-54 151q-12 32 -19 62.5t-9 45.5l-1 14h-4q-8 -54 -34 -123zM295 692q43 0 66.5 16t36.5 52h35q-3 -61 -38 -99t-100 -38t-100 38
t-39 99h35q14 -36 37.5 -52t66.5 -16z" />
    <glyph glyph-name="abreve" unicode="&#x103;" horiz-adv-x="451" 
d="M378 302v-208q0 -34 14.5 -44.5t54.5 -5.5l3 -22q-35 -32 -94 -32q-67 0 -79 62h-3q-15 -30 -46.5 -46t-70.5 -16q-56 0 -90.5 31t-34.5 90q0 65 47.5 98t132.5 33q30 0 60 -7v47q0 43 -25.5 65.5t-69.5 22.5q-61 0 -119 -37l-13 28q65 85 180 85q65 0 109 -36t44 -108z
M272 198h-25q-55 0 -82.5 -17t-27.5 -60q0 -31 17 -48.5t46 -17.5q44 0 72 29v114zM215 565q90 0 105 91h31q2 -16 2 -25q0 -59 -38 -98t-100 -39t-100.5 39.5t-38.5 97.5q0 13 3 25h30q8 -48 34 -69.5t72 -21.5z" />
    <glyph glyph-name="Aogonek" unicode="&#x104;" horiz-adv-x="596" 
d="M215 -121q0 52 36 86.5t105 59.5l70 26l-48 131h-213l-47 -127l79 -21l-5 -34h-181l-7 31l49 25l200 532h91l199 -532l50 -25l-7 -31h-202q-45 -21 -64 -41.5t-19 -56.5q0 -27 15.5 -42.5t41.5 -15.5q38 0 67 32l15 -15q-32 -76 -120 -76q-47 0 -76 23.5t-29 70.5z
M239 381l-56 -150h177l-54 151q-12 32 -19 62.5t-9 45.5l-1 14h-4q-8 -54 -34 -123z" />
    <glyph glyph-name="aogonek" unicode="&#x105;" horiz-adv-x="451" 
d="M221 -121q0 78 97 120q-34 13 -41 53h-3q-15 -30 -46.5 -46t-70.5 -16q-56 0 -90.5 31t-34.5 90q0 65 47.5 98t132.5 33q20 0 60 -5v45q0 43 -25.5 65.5t-69.5 22.5q-61 0 -119 -37l-13 28q65 85 180 85q65 0 109 -36t44 -108v-205q0 -34 14.5 -44.5t54.5 -5.5l3 -21
q-13 -7 -37.5 -18.5t-39.5 -19.5t-32 -20.5t-25.5 -29t-8.5 -36.5q0 -27 15.5 -42.5t42.5 -15.5q38 0 66 32l15 -15q-31 -76 -119 -76q-48 0 -77 23.5t-29 70.5zM272 198h-25q-55 0 -82.5 -17t-27.5 -60q0 -31 17 -48.5t46 -17.5q40 0 72 33v110z" />
    <glyph glyph-name="Cacute" unicode="&#x106;" horiz-adv-x="548" 
d="M39 293q0 148 76 226.5t200 78.5q54 0 124 -19l60 19v-167l-21 -5l-41 57q-28 39 -55 55t-65 16q-155 0 -155 -261q0 -121 45 -180t122 -59q93 0 170 59l21 -32q-31 -44 -85.5 -67.5t-119.5 -23.5q-125 0 -200.5 78t-75.5 225zM384 698l-132 -72l-14 19l90 119
q16 20 36 22.5t39 -16.5q16 -22 9.5 -41.5t-28.5 -30.5z" />
    <glyph glyph-name="cacute" unicode="&#x107;" horiz-adv-x="425" 
d="M299 398q-20 5 -34 5q-58 0 -91.5 -45t-33.5 -127q0 -78 35.5 -123t98.5 -45q54 0 112 40l15 -23q-53 -90 -170 -90q-85 0 -139.5 59.5t-54.5 164.5q0 108 64.5 170t160.5 62q59 0 96.5 -23.5t37.5 -68.5q0 -28 -17.5 -46t-43.5 -18t-43 16t-17 42q0 31 24 50zM322 582
l-117 -94l-16 14l55 133q10 24 31.5 30.5t44.5 -8.5q23 -17 22 -39t-20 -36z" />
    <glyph glyph-name="Ccircumflex" unicode="&#x108;" horiz-adv-x="548" 
d="M39 293q0 148 76 226.5t200 78.5q54 0 124 -19l60 19v-167l-21 -5l-41 57q-28 39 -55 55t-65 16q-155 0 -155 -261q0 -121 45 -180t122 -59q93 0 170 59l21 -32q-31 -44 -85.5 -67.5t-119.5 -23.5q-125 0 -200.5 78t-75.5 225zM306 770h20l140 -142h-107l-69 70l-76 -70
h-51z" />
    <glyph glyph-name="ccircumflex" unicode="&#x109;" horiz-adv-x="425" 
d="M299 398q-20 5 -34 5q-58 0 -91.5 -45t-33.5 -127q0 -78 35.5 -123t98.5 -45q54 0 112 40l15 -23q-53 -90 -170 -90q-85 0 -139.5 59.5t-54.5 164.5q0 108 64.5 170t160.5 62q59 0 96.5 -23.5t37.5 -68.5q0 -28 -17.5 -46t-43.5 -18t-43 16t-17 42q0 31 24 50zM237 662
h20l140 -180h-101l-72 103l-80 -103h-50z" />
    <glyph glyph-name="Cdotaccent" unicode="&#x10a;" horiz-adv-x="548" 
d="M39 293q0 148 76 226.5t200 78.5q54 0 124 -19l60 19v-167l-21 -5l-41 57q-28 39 -55 55t-65 16q-155 0 -155 -261q0 -121 45 -180t122 -59q93 0 170 59l21 -32q-31 -44 -85.5 -67.5t-119.5 -23.5q-125 0 -200.5 78t-75.5 225zM236 697q0 29 19 47t47 18q29 0 48.5 -18
t19.5 -47q0 -28 -19.5 -46.5t-48.5 -18.5q-27 0 -46.5 18.5t-19.5 46.5z" />
    <glyph glyph-name="cdotaccent" unicode="&#x10b;" horiz-adv-x="425" 
d="M299 398q-20 5 -34 5q-58 0 -91.5 -45t-33.5 -127q0 -78 35.5 -123t98.5 -45q54 0 112 40l15 -23q-53 -90 -170 -90q-85 0 -139.5 59.5t-54.5 164.5q0 108 64.5 170t160.5 62q59 0 96.5 -23.5t37.5 -68.5q0 -28 -17.5 -46t-43.5 -18t-43 16t-17 42q0 31 24 50zM175 562
q0 29 19 47.5t47 18.5q29 0 48.5 -18.5t19.5 -47.5q0 -28 -19.5 -46.5t-48.5 -18.5q-27 0 -46.5 18.5t-19.5 46.5z" />
    <glyph glyph-name="Ccaron" unicode="&#x10c;" horiz-adv-x="548" 
d="M39 293q0 148 76 226.5t200 78.5q54 0 124 -19l60 19v-167l-21 -5l-41 57q-28 39 -55 55t-65 16q-155 0 -155 -261q0 -121 45 -180t122 -59q93 0 170 59l21 -32q-31 -44 -85.5 -67.5t-119.5 -23.5q-125 0 -200.5 78t-75.5 225zM323 620h-20l-140 142h110l64 -73l76 73h53
z" />
    <glyph glyph-name="ccaron" unicode="&#x10d;" horiz-adv-x="425" 
d="M299 398q-20 5 -34 5q-58 0 -91.5 -45t-33.5 -127q0 -78 35.5 -123t98.5 -45q54 0 112 40l15 -23q-53 -90 -170 -90q-85 0 -139.5 59.5t-54.5 164.5q0 108 64.5 170t160.5 62q59 0 96.5 -23.5t37.5 -68.5q0 -28 -17.5 -46t-43.5 -18t-43 16t-17 42q0 31 24 50zM248 482
h-21l-139 180h101l72 -103l79 103h50z" />
    <glyph glyph-name="Dcaron" unicode="&#x10e;" horiz-adv-x="622" 
d="M43 588h220q147 0 233.5 -69.5t86.5 -215.5q0 -144 -87 -223.5t-219 -79.5h-234l-8 32l70 23v478l-70 23zM216 57l51 -15q194 1 194 255q0 244 -206 244h-39v-484zM295 620h-20l-140 142h110l65 -73l75 73h53z" />
    <glyph glyph-name="dcaron" unicode="&#x10f;" horiz-adv-x="526" 
d="M147 225q0 -80 34 -122t97 -42q40 0 69 21v292q-25 28 -74 28q-57 0 -91.5 -47t-34.5 -130zM358 56l-3 1q-48 -67 -135 -67q-83 0 -133 57t-50 156q0 120 68 181.5t164 61.5q46 0 78 -16v148l-54 50v11l141 42h19v-601l57 -46v-13l-145 -30zM509 480l9 148q2 20 12 32.5
t29 11.5q22 0 37 -11.5t14 -32.5q-2 -14 -7 -24l-67 -130z" />
    <glyph glyph-name="Dcroat" unicode="&#x110;" horiz-adv-x="622" 
d="M41 274v48h64v211l-70 23l8 32h220q147 0 233.5 -69.5t86.5 -215.5q0 -144 -87 -223.5t-219 -79.5h-234l-8 32l70 23v219h-64zM216 57l51 -15q194 1 194 255q0 244 -206 244h-39v-219h116v-48h-116v-217z" />
    <glyph glyph-name="dcroat" unicode="&#x111;" horiz-adv-x="526" 
d="M358 56l-3 1q-48 -67 -135 -67q-83 0 -133 57t-50 156q0 120 68 181.5t164 61.5q46 0 78 -16v85h-169v38h169v25l-54 50v11l141 42h19v-128h56v-38h-56v-435l57 -46v-13l-145 -30zM147 225q0 -80 34 -122t97 -42q40 0 69 21v292q-25 28 -74 28q-57 0 -91.5 -47
t-34.5 -130z" />
    <glyph glyph-name="Emacron" unicode="&#x112;" horiz-adv-x="524" 
d="M310 274h-94v-209l39 -17h128l87 140l26 -6l-20 -182h-433l-8 32l70 23v478l-70 23l8 32h424v-157l-21 -5l-78 113h-152v-217h93l41 86l22 -4v-214l-21 -4zM430 653h-312v56h312v-56z" />
    <glyph glyph-name="emacron" unicode="&#x113;" horiz-adv-x="440" 
d="M140 233q0 -79 34.5 -124.5t96.5 -45.5t118 40l15 -23q-49 -90 -170 -90q-86 0 -141.5 58t-55.5 165q0 108 61.5 170.5t151.5 62.5q72 0 116 -41.5t44 -117.5q0 -30 -5 -54h-265zM240 402q-37 0 -63 -31.5t-35 -93.5h166q2 16 2 31q0 94 -70 94zM377 511h-281v57h281v-57
z" />
    <glyph glyph-name="Ebreve" unicode="&#x114;" horiz-adv-x="524" 
d="M310 274h-94v-209l39 -17h128l87 140l26 -6l-20 -182h-433l-8 32l70 23v478l-70 23l8 32h424v-157l-21 -5l-78 113h-152v-217h93l41 86l22 -4v-214l-21 -4zM277 692q43 0 66.5 16t36.5 52h35q-3 -61 -38 -99t-100 -38t-100 38t-39 99h35q14 -36 37.5 -52t66.5 -16z" />
    <glyph glyph-name="ebreve" unicode="&#x115;" horiz-adv-x="440" 
d="M140 233q0 -79 34.5 -124.5t96.5 -45.5t118 40l15 -23q-49 -90 -170 -90q-86 0 -141.5 58t-55.5 165q0 108 61.5 170.5t151.5 62.5q72 0 116 -41.5t44 -117.5q0 -30 -5 -54h-265zM240 402q-37 0 -63 -31.5t-35 -93.5h166q2 16 2 31q0 94 -70 94zM238 565q90 0 105 91h31
q2 -16 2 -25q0 -59 -38 -98t-100 -39t-100.5 39.5t-38.5 97.5q0 13 3 25h30q8 -48 34 -69.5t72 -21.5z" />
    <glyph glyph-name="Edotaccent" unicode="&#x116;" horiz-adv-x="524" 
d="M310 274h-94v-209l39 -17h128l87 140l26 -6l-20 -182h-433l-8 32l70 23v478l-70 23l8 32h424v-157l-21 -5l-78 113h-152v-217h93l41 86l22 -4v-214l-21 -4zM210 697q0 29 19 47t47 18q29 0 48.5 -18t19.5 -47q0 -28 -19.5 -46.5t-48.5 -18.5q-27 0 -46.5 18.5t-19.5 46.5
z" />
    <glyph glyph-name="edotaccent" unicode="&#x117;" horiz-adv-x="440" 
d="M140 233q0 -79 34.5 -124.5t96.5 -45.5t118 40l15 -23q-49 -90 -170 -90q-86 0 -141.5 58t-55.5 165q0 108 61.5 170.5t151.5 62.5q72 0 116 -41.5t44 -117.5q0 -30 -5 -54h-265zM240 402q-37 0 -63 -31.5t-35 -93.5h166q2 16 2 31q0 94 -70 94zM173 569q0 29 19.5 47.5
t46.5 18.5q29 0 48.5 -18.5t19.5 -47.5q0 -28 -19.5 -46.5t-48.5 -18.5q-27 0 -46.5 19t-19.5 46z" />
    <glyph glyph-name="Eogonek" unicode="&#x118;" horiz-adv-x="524" 
d="M251 -121q0 78 96 121h-304l-8 32l70 23v478l-70 23l8 32h424v-157l-21 -5l-78 113h-152v-217h93l41 86l22 -4v-214l-21 -4l-41 88h-94v-209l39 -17h128l87 140l26 -6l-20 -182h-56q-45 -21 -64 -41.5t-19 -56.5q0 -27 15 -42.5t42 -15.5q38 0 67 32l14 -15
q-31 -76 -119 -76q-47 0 -76 23.5t-29 70.5z" />
    <glyph glyph-name="eogonek" unicode="&#x119;" horiz-adv-x="440" 
d="M146 -121q0 75 69 112q-79 6 -128.5 63t-49.5 159q0 108 61.5 170.5t151.5 62.5q72 0 116 -41.5t44 -117.5q0 -30 -5 -54h-265q0 -79 34.5 -124.5t96.5 -45.5t118 40l15 -23q-31 -55 -102 -81q-40 -14 -55 -36t-15 -61q0 -27 15.5 -42.5t41.5 -15.5q38 0 67 32l15 -15
q-32 -76 -120 -76q-47 0 -76 23.5t-29 70.5zM240 402q-37 0 -63 -31.5t-35 -93.5h166q2 16 2 31q0 94 -70 94z" />
    <glyph glyph-name="Ecaron" unicode="&#x11a;" horiz-adv-x="524" 
d="M310 274h-94v-209l39 -17h128l87 140l26 -6l-20 -182h-433l-8 32l70 23v478l-70 23l8 32h424v-157l-21 -5l-78 113h-152v-217h93l41 86l22 -4v-214l-21 -4zM274 620h-20l-140 142h110l65 -73l75 73h53z" />
    <glyph glyph-name="ecaron" unicode="&#x11b;" horiz-adv-x="440" 
d="M140 233q0 -79 34.5 -124.5t96.5 -45.5t118 40l15 -23q-49 -90 -170 -90q-86 0 -141.5 58t-55.5 165q0 108 61.5 170.5t151.5 62.5q72 0 116 -41.5t44 -117.5q0 -30 -5 -54h-265zM240 402q-37 0 -63 -31.5t-35 -93.5h166q2 16 2 31q0 94 -70 94zM246 482h-21l-139 180
h101l72 -103l79 103h50z" />
    <glyph glyph-name="Gcircumflex" unicode="&#x11c;" horiz-adv-x="609" 
d="M162 293q0 -127 40.5 -191t112.5 -64q59 0 107 27v159l-69 23l7 32h219l8 -32l-58 -23v-234h-21l-48 43q-66 -43 -151 -43q-116 0 -193 78t-77 225t80 226t206 79q54 0 124 -19l59 19v-167l-21 -5l-41 57q-27 39 -54 55t-65 16q-77 0 -121 -65t-44 -196zM320 770h21
l139 -142h-107l-68 70l-76 -70h-51z" />
    <glyph glyph-name="gcircumflex" unicode="&#x11d;" horiz-adv-x="470" 
d="M241 664h20l140 -170h-101l-72 93l-80 -93h-50zM168 76h149q68 0 107 -34t39 -99q0 -83 -68.5 -123.5t-174.5 -40.5q-200 0 -200 110q0 77 107 101v4q-38 4 -59 26.5t-21 57.5q0 70 88 88q-88 33 -88 125q0 67 47 111t133 44q83 0 158 -36q-6 10 -6 24q0 23 14.5 36.5
t36.5 13.5q24 0 37.5 -15t13.5 -39q0 -26 -15.5 -40.5t-43.5 -14.5q-30 0 -79 20v-9q25 -13 41.5 -38.5t16.5 -57.5q0 -68 -52 -103.5t-122 -35.5q-33 0 -57 7q-42 -19 -42 -48q0 -34 40 -34zM162 -21q-45 -23 -45 -77q0 -81 109 -81q146 0 146 94q0 64 -80 64h-130z
M294 296q0 53 -14.5 78.5t-55.5 25.5q-40 0 -54.5 -25.5t-14.5 -78.5t14.5 -78.5t54.5 -25.5q41 0 55.5 25.5t14.5 78.5z" />
    <glyph glyph-name="Gbreve" unicode="&#x11e;" horiz-adv-x="609" 
d="M162 293q0 -127 40.5 -191t112.5 -64q59 0 107 27v159l-69 23l7 32h219l8 -32l-58 -23v-234h-21l-48 43q-66 -43 -151 -43q-116 0 -193 78t-77 225t80 226t206 79q54 0 124 -19l59 19v-167l-21 -5l-41 57q-27 39 -54 55t-65 16q-77 0 -121 -65t-44 -196zM327 692
q43 0 66.5 16t36.5 52h35q-3 -61 -38 -99t-100 -38t-100 38t-39 99h35q14 -36 37.5 -52t66.5 -16z" />
    <glyph glyph-name="gbreve" unicode="&#x11f;" horiz-adv-x="470" 
d="M168 76h149q68 0 107 -34t39 -99q0 -83 -68.5 -123.5t-174.5 -40.5q-200 0 -200 110q0 77 107 101v4q-38 4 -59 26.5t-21 57.5q0 70 88 88q-88 33 -88 125q0 67 47 111t133 44q83 0 158 -36q-6 10 -6 24q0 23 14.5 36.5t36.5 13.5q24 0 37.5 -15t13.5 -39
q0 -26 -15.5 -40.5t-43.5 -14.5q-30 0 -79 20v-9q25 -13 41.5 -38.5t16.5 -57.5q0 -68 -52 -103.5t-122 -35.5q-33 0 -57 7q-42 -19 -42 -48q0 -34 40 -34zM162 -21q-45 -23 -45 -77q0 -81 109 -81q146 0 146 94q0 64 -80 64h-130zM294 296q0 53 -14.5 78.5t-55.5 25.5
q-40 0 -54.5 -25.5t-14.5 -78.5t14.5 -78.5t54.5 -25.5q41 0 55.5 25.5t14.5 78.5zM244 564q89 0 106 91h30q3 -12 3 -24q0 -59 -38.5 -98.5t-100.5 -39.5t-100 39.5t-38 98.5q0 16 2 24h31q14 -91 105 -91z" />
    <glyph glyph-name="Gdotaccent" unicode="&#x120;" horiz-adv-x="609" 
d="M162 293q0 -127 40.5 -191t112.5 -64q59 0 107 27v159l-69 23l7 32h219l8 -32l-58 -23v-234h-21l-48 43q-66 -43 -151 -43q-116 0 -193 78t-77 225t80 226t206 79q54 0 124 -19l59 19v-167l-21 -5l-41 57q-27 39 -54 55t-65 16q-77 0 -121 -65t-44 -196zM253 697
q0 29 19 47t47 18q29 0 48.5 -18t19.5 -47q0 -28 -19.5 -46.5t-48.5 -18.5q-27 0 -46.5 18.5t-19.5 46.5z" />
    <glyph glyph-name="gdotaccent" unicode="&#x121;" horiz-adv-x="470" 
d="M168 76h149q68 0 107 -34t39 -99q0 -83 -68.5 -123.5t-174.5 -40.5q-200 0 -200 110q0 77 107 101v4q-38 4 -59 26.5t-21 57.5q0 70 88 88q-88 33 -88 125q0 67 47 111t133 44q83 0 158 -36q-6 10 -6 24q0 23 14.5 36.5t36.5 13.5q24 0 37.5 -15t13.5 -39
q0 -26 -15.5 -40.5t-43.5 -14.5q-30 0 -79 20v-9q25 -13 41.5 -38.5t16.5 -57.5q0 -68 -52 -103.5t-122 -35.5q-33 0 -57 7q-42 -19 -42 -48q0 -34 40 -34zM162 -21q-45 -23 -45 -77q0 -81 109 -81q146 0 146 94q0 64 -80 64h-130zM294 296q0 53 -14.5 78.5t-55.5 25.5
q-40 0 -54.5 -25.5t-14.5 -78.5t14.5 -78.5t54.5 -25.5q41 0 55.5 25.5t14.5 78.5zM182 569q0 29 19 47.5t47 18.5q29 0 48.5 -18.5t19.5 -47.5q0 -28 -19.5 -46.5t-48.5 -18.5q-27 0 -46.5 19t-19.5 46z" />
    <glyph glyph-name="Gcommaaccent" unicode="&#x122;" horiz-adv-x="609" 
d="M162 293q0 -127 40.5 -191t112.5 -64q59 0 107 27v159l-69 23l7 32h219l8 -32l-58 -23v-234h-21l-48 43q-66 -43 -151 -43q-116 0 -193 78t-77 225t80 226t206 79q54 0 124 -19l59 19v-167l-21 -5l-41 57q-27 39 -54 55t-65 16q-77 0 -121 -65t-44 -196zM346 -144h-7
q-7 -25 -34 -25q-26 0 -39.5 16t-13.5 39q0 28 18.5 45t46.5 17q36 0 57.5 -22.5t21.5 -58.5q0 -105 -133 -120l-8 20q91 30 91 89z" />
    <glyph glyph-name="gcommaaccent" unicode="&#x123;" horiz-adv-x="470" 
d="M168 76h149q68 0 107 -34t39 -99q0 -83 -68.5 -123.5t-174.5 -40.5q-200 0 -200 110q0 77 107 101v4q-38 4 -59 26.5t-21 57.5q0 70 88 88q-88 33 -88 125q0 67 47 111t133 44q83 0 158 -36q-6 10 -6 24q0 23 14.5 36.5t36.5 13.5q24 0 37.5 -15t13.5 -39
q0 -26 -15.5 -40.5t-43.5 -14.5q-30 0 -79 20v-9q25 -13 41.5 -38.5t16.5 -57.5q0 -68 -52 -103.5t-122 -35.5q-33 0 -57 7q-42 -19 -42 -48q0 -34 40 -34zM162 -21q-45 -23 -45 -77q0 -81 109 -81q146 0 146 94q0 64 -80 64h-130zM294 296q0 53 -14.5 78.5t-55.5 25.5
q-40 0 -54.5 -25.5t-14.5 -78.5t14.5 -78.5t54.5 -25.5q41 0 55.5 25.5t14.5 78.5zM220 583h7q7 25 34 25q26 0 39.5 -16t13.5 -40q0 -28 -18.5 -45t-46.5 -17q-36 0 -57.5 22.5t-21.5 58.5q0 105 133 120l8 -20q-91 -30 -91 -88z" />
    <glyph glyph-name="Hcircumflex" unicode="&#x124;" horiz-adv-x="701" 
d="M423 588h235l8 -32l-70 -23v-478l70 -23l-8 -32h-235l-7 32l69 23v219h-269v-219l70 -23l-8 -32h-235l-8 32l70 23v478l-70 23l8 32h235l8 -32l-70 -23v-211h269v211l-69 23zM348 770h20l140 -142h-107l-69 70l-75 -70h-52z" />
    <glyph glyph-name="hcircumflex" unicode="&#x125;" horiz-adv-x="531" 
d="M350 45v240q0 41 -20 61t-52 20q-54 0 -94 -37v-281l66 -19l-13 -29h-203v28l44 17v533l-53 50v11l141 42h18v-315h4q26 40 64.5 60.5t79.5 20.5q53 0 88.5 -32.5t35.5 -107.5v-259l65 -19l-13 -29h-203v28zM125 851h21l139 -142h-107l-68 71l-76 -71h-51z" />
    <glyph glyph-name="Hbar" unicode="&#x126;" horiz-adv-x="702" 
d="M423 588h235l8 -32l-70 -23v-54h66v-47h-66v-377l70 -23l-8 -32h-235l-7 32l69 23v219h-269v-219l70 -23l-8 -32h-235l-8 32l70 23v377h-68v47h68v54l-70 23l8 32h235l8 -32l-70 -23v-54h269v54l-69 23zM216 322h269v110h-269v-110z" />
    <glyph glyph-name="hbar" unicode="&#x127;" horiz-adv-x="531" 
d="M350 45v240q0 41 -20 61t-52 20q-54 0 -94 -37v-281l66 -19l-13 -29h-203v28l44 17v470h-64v38h64v25l-53 50v11l141 42h18v-128h164v-38h-164v-149h4q26 40 64.5 60.5t79.5 20.5q53 0 88.5 -32.5t35.5 -107.5v-259l65 -19l-13 -29h-203v28z" />
    <glyph glyph-name="Itilde" unicode="&#x128;" horiz-adv-x="321" 
d="M176 647l-55 35q-17 10 -31 10q-35 0 -41 -60l-20 3q-10 21 -10 47q0 34 21.5 57.5t54.5 23.5q28 0 54 -16l55 -33q19 -12 33 -12q34 0 39 59l22 -4q9 -25 9 -46q0 -35 -22 -58t-54 -23q-24 0 -55 17zM43 588h235l8 -32l-70 -23v-478l70 -23l-8 -32h-235l-8 32l70 23v478
l-70 23z" />
    <glyph glyph-name="itilde" unicode="&#x129;" horiz-adv-x="272" 
d="M148 518l-55 34q-14 10 -31 10q-34 0 -42 -60l-20 3q-9 19 -9 47q0 34 21.5 57.5t53.5 23.5q29 0 55 -16l55 -33q17 -11 33 -11q34 0 39 58l22 -4q9 -25 9 -46q0 -35 -21.5 -57.5t-54.5 -22.5q-28 0 -55 17zM190 48l65 -19l-13 -29h-202v28l44 20v284l-45 59v11l133 44
h18v-398z" />
    <glyph glyph-name="Imacron" unicode="&#x12a;" horiz-adv-x="321" 
d="M280 650h-237l-4 57h244zM43 588h235l8 -32l-70 -23v-478l70 -23l-8 -32h-235l-8 32l70 23v478l-70 23z" />
    <glyph glyph-name="imacron" unicode="&#x12b;" horiz-adv-x="272" 
d="M250 511h-229l-4 57h237zM190 48l65 -19l-13 -29h-202v28l44 20v284l-45 59v11l133 44h18v-398z" />
    <glyph glyph-name="Ibreve" unicode="&#x12c;" horiz-adv-x="321" 
d="M161 691q41 0 63 16t34 53h33q-2 -61 -35.5 -99t-94.5 -38t-94 38t-35 99h33q12 -37 34 -53t62 -16zM43 588h235l8 -32l-70 -23v-478l70 -23l-8 -32h-235l-8 32l70 23v478l-70 23z" />
    <glyph glyph-name="Iogonek" unicode="&#x12e;" horiz-adv-x="321" 
d="M58 -121q0 42 24 69t70 48v4h-109l-7 32l69 23v478l-69 23l7 32h236l8 -32l-71 -23v-478l71 -23l-8 -32h-52q-45 -21 -64 -41.5t-19 -56.5q0 -27 15 -42.5t42 -15.5q38 0 67 32l14 -15q-31 -76 -119 -76q-47 0 -76 23.5t-29 70.5z" />
    <glyph glyph-name="iogonek" unicode="&#x12f;" horiz-adv-x="272" 
d="M35 -121q0 78 96 121h-91v28l44 17v284l-45 59v11l133 47h18v-398l65 -19l-13 -29h-38q-45 -21 -64 -41.5t-19 -56.5q0 -27 15.5 -42.5t41.5 -15.5q38 0 67 32l15 -15q-32 -76 -120 -76q-47 0 -76 23.5t-29 70.5zM66 578q0 29 20.5 49.5t49.5 20.5q30 0 50 -20.5
t20 -49.5t-20 -49.5t-50 -20.5q-29 0 -49.5 20.5t-20.5 49.5z" />
    <glyph glyph-name="Idotaccent" unicode="&#x130;" horiz-adv-x="321" 
d="M43 588h235l8 -32l-70 -23v-478l70 -23l-8 -32h-235l-8 32l70 23v478l-70 23zM93 697q0 28 19.5 46.5t46.5 18.5q29 0 48.5 -18t19.5 -47q0 -28 -19.5 -46.5t-48.5 -18.5q-27 0 -46.5 18.5t-19.5 46.5z" />
    <glyph glyph-name="dotlessi" unicode="&#x131;" horiz-adv-x="272" 
d="M190 48l65 -19l-13 -29h-202v28l44 20v284l-45 59v11l133 44h18v-398z" />
    <glyph glyph-name="IJ" unicode="&#x132;" horiz-adv-x="603" 
d="M42 588h236l7 -32l-70 -23v-478l70 -23l-7 -32h-236l-8 32l71 23v478l-71 23zM397 -44v577l-70 23l8 32h235l8 -32l-70 -23v-532q0 -92 -52.5 -141.5t-146.5 -49.5q-43 0 -68 17t-25 50q0 30 17 46t42 16q28 0 43.5 -16.5t15.5 -42.5q0 -21 -11 -36q39 2 56.5 28.5
t17.5 83.5z" />
    <glyph glyph-name="ij" unicode="&#x133;" horiz-adv-x="506" 
d="M66 578q0 29 20.5 49.5t49.5 20.5q30 0 50 -20.5t20 -49.5t-20 -49.5t-50 -20.5q-29 0 -49.5 20.5t-20.5 49.5zM190 48l65 -19l-13 -29h-202v28l44 17v284l-45 59v11l133 47h18v-398zM319 578q0 29 20 49.5t49 20.5q30 0 50 -20.5t20 -49.5t-20 -49.5t-50 -20.5
q-29 0 -49 20.5t-20 49.5zM442 449v-498q0 -77 -45 -123.5t-136 -46.5q-36 0 -58.5 15.5t-22.5 45.5q0 25 16.5 39.5t40.5 14.5q25 0 37.5 -14.5t12.5 -38.5q0 -19 -9 -32q24 0 41 26.5t17 79.5v417l-48 59v11l136 45h18z" />
    <glyph glyph-name="Jcircumflex" unicode="&#x134;" horiz-adv-x="294" 
d="M141 761h20l127 -142h-107l-58 66l-61 -66h-51zM90 -44v577l-71 23l8 32h236l8 -32l-71 -23v-532q0 -92 -52 -141.5t-146 -49.5q-93 0 -93 67q0 30 17 46t42 16q28 0 43 -16.5t15 -42.5q0 -21 -11 -36q40 2 57.5 29t17.5 83z" />
    <glyph glyph-name="jcircumflex" unicode="&#x135;" horiz-adv-x="239" 
d="M176 449v-498q0 -74 -46 -122t-135 -48q-37 0 -59 15.5t-22 45.5q0 25 16 39.5t41 14.5q24 0 36.5 -14.5t12.5 -38.5q0 -21 -9 -32q25 0 42 26.5t17 79.5v417l-48 59v11l135 45h19zM111 662h21l139 -180h-101l-72 103l-79 -103h-50z" />
    <glyph glyph-name="Kcommaaccent" unicode="&#x136;" horiz-adv-x="616" 
d="M216 322l59 8l164 204l-62 22l5 32h186l7 -33l-64 -18l-162 -198l189 -285l81 -21l-7 -33h-172l-177 280h-47v-225l70 -23l-8 -32h-235l-8 32l70 23v478l-70 23l8 32h235l8 -32l-70 -23v-211zM345 -144h-7q-7 -25 -34 -25q-26 0 -39.5 16t-13.5 39q0 28 18.5 45t46.5 17
q36 0 57.5 -22.5t21.5 -58.5q0 -105 -133 -120l-8 20q91 30 91 89z" />
    <glyph glyph-name="kcommaaccent" unicode="&#x137;" horiz-adv-x="509" 
d="M184 48l66 -19l-13 -29h-203v28l44 17v533l-53 50v11l141 42h18v-435l38 8l137 130l-60 21l7 31h174l7 -30l-56 -21l-127 -120l143 -216l65 -21l-11 -28h-148l-131 208h-38v-160zM270 -144h-7q-7 -25 -34 -25q-25 0 -39 16t-14 39q0 28 18.5 45t46.5 17q37 0 58.5 -22.5
t21.5 -58.5q0 -105 -134 -120l-8 20q91 29 91 89z" />
    <glyph glyph-name="kgreenlandic" unicode="&#x138;" horiz-adv-x="514" 
d="M190 48l66 -19l-13 -29h-203v28l44 17v284l-45 59v11l133 47h18v-200l38 8l137 130l-60 21l6 31h175l7 -30l-56 -21l-127 -120l142 -216l66 -21l-11 -28h-148l-131 208h-38v-160z" />
    <glyph glyph-name="Lacute" unicode="&#x139;" horiz-adv-x="499" 
d="M286 556l-70 -23v-468l40 -17h112l90 159l26 -6l-23 -201h-418l-8 32l70 23v478l-70 23l8 32h235zM262 698l-132 -72l-14 19l91 119q15 20 35.5 22.5t38.5 -16.5q17 -22 10 -41.5t-29 -30.5z" />
    <glyph glyph-name="lacute" unicode="&#x13a;" horiz-adv-x="265" 
d="M184 48l66 -19l-13 -29h-203v28l44 17v533l-53 50v11l141 42h18v-633zM203 758l-133 -72l-13 19l90 120q15 19 35.5 21.5t38.5 -16.5q17 -22 10.5 -41.5t-28.5 -30.5z" />
    <glyph glyph-name="Lcommaaccent" unicode="&#x13b;" horiz-adv-x="499" 
d="M286 556l-70 -23v-468l40 -17h112l90 159l26 -6l-23 -201h-418l-8 32l70 23v478l-70 23l8 32h235zM290 -144h-7q-7 -25 -34 -25q-26 0 -39.5 16t-13.5 39q0 28 18.5 45t46.5 17q36 0 57.5 -22.5t21.5 -58.5q0 -105 -133 -120l-8 20q91 30 91 89z" />
    <glyph glyph-name="lcommaaccent" unicode="&#x13c;" horiz-adv-x="265" 
d="M184 48l66 -19l-13 -29h-203v28l44 17v533l-53 50v11l141 42h18v-633zM154 -144h-7q-7 -25 -34 -25q-26 0 -39.5 16t-13.5 39q0 28 18.5 45t46.5 17q36 0 57.5 -22.5t21.5 -58.5q0 -105 -133 -120l-8 20q91 30 91 89z" />
    <glyph glyph-name="Lcaron" unicode="&#x13d;" horiz-adv-x="499" 
d="M286 556l-70 -23v-468l40 -17h112l90 159l26 -6l-23 -201h-418l-8 32l70 23v478l-70 23l8 32h235zM349 452l10 149q1 20 11 32.5t29 11.5q22 0 37 -12t14 -32q0 -12 -7 -24l-67 -130z" />
    <glyph glyph-name="lcaron" unicode="&#x13e;" horiz-adv-x="265" 
d="M184 48l66 -19l-13 -29h-203v28l44 17v533l-53 50v11l141 42h18v-633zM246 480l10 148q1 20 11 32.5t29 11.5q22 0 37 -11.5t14 -32.5q0 -10 -7 -24l-67 -130z" />
    <glyph glyph-name="Ldot" unicode="&#x13f;" horiz-adv-x="499" 
d="M286 556l-70 -23v-468l40 -17h112l90 159l26 -6l-23 -201h-418l-8 32l70 23v478l-70 23l8 32h235zM350 330q0 31 21 52.5t51 21.5t52 -21.5t22 -52.5t-22 -52t-52 -21t-51 21t-21 52z" />
    <glyph glyph-name="ldot" unicode="&#x140;" horiz-adv-x="400" 
d="M184 48l66 -19l-13 -29h-203v28l44 17v533l-53 50v11l141 42h18v-633zM238 312q0 31 21.5 52.5t51.5 21.5t52 -21.5t22 -52.5t-22 -52t-52 -21t-51.5 21t-21.5 52z" />
    <glyph glyph-name="Lslash" unicode="&#x141;" horiz-adv-x="499" 
d="M290 556l-75 -23v-219l132 66v-52l-132 -65v-198l40 -17h113l90 159l26 -6l-23 -201h-419l-7 32l69 23v163l-69 -34v49l69 35v265l-69 23l7 32h240z" />
    <glyph glyph-name="lslash" unicode="&#x142;" horiz-adv-x="265" 
d="M17 270l61 51v257l-53 50v11l141 42h18v-292l66 55v-52l-66 -54v-290l66 -19l-13 -29h-203v28l44 17v227l-61 -51v49z" />
    <glyph glyph-name="Nacute" unicode="&#x143;" horiz-adv-x="657" 
d="M168 344v-289l75 -23l-8 -32h-192l-8 32l70 23v478l-70 23l8 32h175l223 -316q17 -24 33.5 -54.5t24.5 -48.5l8 -18h4q-5 71 -5 142v240l-75 23l7 32h191l8 -32l-70 -23v-533h-63l-268 369q-17 24 -34.5 54.5t-26.5 48.5l-9 18h-4q6 -72 6 -146zM418 698l-132 -72l-14 19
l91 119q15 20 35.5 22.5t38.5 -16.5q17 -22 10 -41.5t-29 -30.5z" />
    <glyph glyph-name="nacute" unicode="&#x144;" horiz-adv-x="537" 
d="M461 48l66 -19l-13 -29h-203v28l44 18v235q0 81 -73 81q-50 0 -92 -38v-276l66 -19l-13 -29h-203v28l44 17v284l-45 59v11l133 47h17l-3 -86h4q53 86 149 86q52 0 87 -36t35 -108v-254zM354 582l-116 -94l-17 14l55 133q10 24 32 31t44 -9q23 -17 22 -39t-20 -36z" />
    <glyph glyph-name="Ncommaaccent" unicode="&#x145;" horiz-adv-x="657" 
d="M168 344v-289l75 -23l-8 -32h-192l-8 32l70 23v478l-70 23l8 32h175l223 -316q17 -24 33.5 -54.5t24.5 -48.5l8 -18h4q-5 71 -5 142v240l-75 23l7 32h191l8 -32l-70 -23v-533h-63l-268 369q-17 24 -34.5 54.5t-26.5 48.5l-9 18h-4q6 -72 6 -146zM358 -144h-7
q-7 -25 -34 -25q-25 0 -39 16t-14 39q0 28 18.5 45t46.5 17q37 0 58.5 -22.5t21.5 -58.5q0 -105 -134 -120l-8 20q91 29 91 89z" />
    <glyph glyph-name="ncommaaccent" unicode="&#x146;" horiz-adv-x="537" 
d="M461 48l66 -19l-13 -29h-203v28l44 18v235q0 81 -73 81q-50 0 -92 -38v-276l66 -19l-13 -29h-203v28l44 17v284l-45 59v11l133 47h17l-3 -86h4q53 86 149 86q52 0 87 -36t35 -108v-254zM294 -144h-7q-7 -25 -34 -25q-26 0 -39.5 16t-13.5 39q0 28 18.5 45t46.5 17
q36 0 57.5 -22.5t21.5 -58.5q0 -105 -133 -120l-8 20q91 30 91 89z" />
    <glyph glyph-name="Ncaron" unicode="&#x147;" horiz-adv-x="657" 
d="M168 344v-289l75 -23l-8 -32h-192l-8 32l70 23v478l-70 23l8 32h175l223 -316q17 -24 33.5 -54.5t24.5 -48.5l8 -18h4q-5 71 -5 142v240l-75 23l7 32h191l8 -32l-70 -23v-533h-63l-268 369q-17 24 -34.5 54.5t-26.5 48.5l-9 18h-4q6 -72 6 -146zM340 620h-21l-139 142
h110l64 -73l76 73h52z" />
    <glyph glyph-name="ncaron" unicode="&#x148;" horiz-adv-x="537" 
d="M461 48l66 -19l-13 -29h-203v28l44 18v235q0 81 -73 81q-50 0 -92 -38v-276l66 -19l-13 -29h-203v28l44 17v284l-45 59v11l133 47h17l-3 -86h4q53 86 149 86q52 0 87 -36t35 -108v-254zM279 482h-21l-139 180h101l72 -103l79 103h50z" />
    <glyph glyph-name="Eng" unicode="&#x14a;" horiz-adv-x="661" 
d="M509 -6l-273 375q-17 24 -34.5 54.5t-26.5 48.5l-9 18h-4q6 -72 6 -146v-289l75 -23l-8 -32h-192l-8 32l70 23v478l-70 23l8 32h175l223 -316q17 -24 33.5 -54.5t24.5 -48.5l8 -18h4q-5 71 -5 142v240l-75 23l7 32h191l8 -32l-70 -23v-533q0 -93 -35.5 -141.5
t-116.5 -48.5q-41 0 -65.5 17.5t-24.5 49.5q0 28 16.5 44t39.5 16q25 0 39.5 -14.5t14.5 -38.5q0 -16 -10 -32q84 0 84 142z" />
    <glyph glyph-name="eng" unicode="&#x14b;" horiz-adv-x="509" 
d="M355 -83v364q0 81 -73 81q-50 0 -92 -38v-276l66 -19l-13 -29h-203v28l44 17v284l-45 59v11l133 47h17l-3 -86h4q53 86 149 86q52 0 87 -36t35 -108v-351q0 -74 -45.5 -122t-135.5 -48q-36 0 -58.5 15.5t-22.5 45.5q0 25 16.5 39.5t40.5 14.5q25 0 37.5 -14.5t12.5 -38.5
q0 -19 -9 -32q24 0 41 26.5t17 79.5z" />
    <glyph glyph-name="Omacron" unicode="&#x14c;" horiz-adv-x="629" 
d="M315 37q79 0 115 62.5t36 194.5t-36 194.5t-115 62.5t-115.5 -62.5t-36.5 -194.5t36.5 -194.5t115.5 -62.5zM315 -10q-129 0 -202.5 82.5t-73.5 221.5t73.5 221.5t202.5 82.5t202.5 -82.5t73.5 -221.5t-73.5 -221.5t-202.5 -82.5zM471 653h-312v56h312v-56z" />
    <glyph glyph-name="omacron" unicode="&#x14d;" horiz-adv-x="500" 
d="M463 218q0 -110 -57.5 -169t-155.5 -59t-155.5 59t-57.5 169t57.5 169t155.5 59t155.5 -59t57.5 -169zM151 218q0 -184 99 -184t99 184t-99 184t-99 -184zM390 511h-281v57h281v-57z" />
    <glyph glyph-name="Obreve" unicode="&#x14e;" horiz-adv-x="629" 
d="M315 37q79 0 115 62.5t36 194.5t-36 194.5t-115 62.5t-115.5 -62.5t-36.5 -194.5t36.5 -194.5t115.5 -62.5zM315 -10q-129 0 -202.5 82.5t-73.5 221.5t73.5 221.5t202.5 82.5t202.5 -82.5t73.5 -221.5t-73.5 -221.5t-202.5 -82.5zM315 692q43 0 66.5 16t36.5 52h35
q-3 -61 -38 -99t-100 -38t-100 38t-39 99h35q14 -36 37.5 -52t66.5 -16z" />
    <glyph glyph-name="obreve" unicode="&#x14f;" horiz-adv-x="500" 
d="M463 218q0 -110 -57.5 -169t-155.5 -59t-155.5 59t-57.5 169t57.5 169t155.5 59t155.5 -59t57.5 -169zM151 218q0 -184 99 -184t99 184t-99 184t-99 -184zM252 565q46 0 72 21.5t34 69.5h30q3 -12 3 -25q0 -58 -38.5 -97.5t-100.5 -39.5t-100 39t-38 98q0 9 2 25h31
q14 -91 105 -91z" />
    <glyph glyph-name="Ohungarumlaut" unicode="&#x150;" horiz-adv-x="629" 
d="M315 37q79 0 115 62.5t36 194.5t-36 194.5t-115 62.5t-115.5 -62.5t-36.5 -194.5t36.5 -194.5t115.5 -62.5zM315 -10q-129 0 -202.5 82.5t-73.5 221.5t73.5 221.5t202.5 82.5t202.5 -82.5t73.5 -221.5t-73.5 -221.5t-202.5 -82.5zM471 702l-129 -79l-18 22l93 118
q31 42 65 3q35 -36 -11 -64zM328 706l-127 -83l-18 22l88 120q30 42 65 6q36 -35 -8 -65z" />
    <glyph glyph-name="ohungarumlaut" unicode="&#x151;" horiz-adv-x="500" 
d="M463 218q0 -110 -57.5 -169t-155.5 -59t-155.5 59t-57.5 169t57.5 169t155.5 59t155.5 -59t57.5 -169zM151 218q0 -184 99 -184t99 184t-99 184t-99 -184zM412 590l-109 -105l-22 18l66 134q23 47 63 18q42 -30 2 -65zM270 590l-110 -105l-21 18l66 134q21 48 63 18
q41 -30 2 -65z" />
    <glyph glyph-name="OE" unicode="&#x152;" horiz-adv-x="852" 
d="M315 -10q-129 0 -202.5 82.5t-73.5 221.5t73.5 221.5t202.5 82.5q38 0 80 -10h401v-157l-21 -5l-78 113h-205q89 -73 98 -217h47l41 86l22 -4v-214l-21 -4l-41 88h-48q-6 -150 -99 -226h221l87 140l26 -6l-20 -182h-410q-42 -10 -80 -10zM315 37q79 0 115 62.5t36 194.5
t-36 194.5t-115 62.5t-115.5 -62.5t-36.5 -194.5t36.5 -194.5t115.5 -62.5z" />
    <glyph glyph-name="oe" unicode="&#x153;" horiz-adv-x="762" 
d="M461 233q1 -80 35 -125t97 -45q61 0 117 40l15 -23q-49 -90 -169 -90q-48 0 -88 19.5t-59 57.5q-45 -77 -159 -77q-98 0 -155.5 59t-57.5 169t57.5 169t155.5 59q115 0 165 -83q53 83 157 83q72 0 115.5 -42t43.5 -117q0 -30 -5 -54h-265zM151 218q0 -184 99 -184t99 184
t-99 184t-99 -184zM561 402q-36 0 -62.5 -32t-35.5 -93h166q2 16 2 31q0 94 -70 94z" />
    <glyph glyph-name="Racute" unicode="&#x154;" horiz-adv-x="595" 
d="M216 542v-235h55q57 0 87 26.5t30 93.5q0 115 -117 115h-55zM522 53l76 -24l-7 -29h-170l-114 215q-14 25 -34 37t-57 12v-209l70 -23l-8 -32h-235l-8 32l70 23v478l-70 23l8 32h253q93 0 150.5 -38.5t57.5 -122.5q0 -70 -48 -108.5t-115 -42.5v-4q63 -11 96 -70z
M341 698l-132 -72l-14 19l90 119q16 20 36 22.5t39 -16.5q16 -22 9.5 -41.5t-28.5 -30.5z" />
    <glyph glyph-name="racute" unicode="&#x155;" horiz-adv-x="395" 
d="M190 49l88 -19l-13 -30h-225v28l44 17v283l-45 59v11l133 48h17l-3 -103h4q19 45 51.5 74.5t74.5 29.5q37 0 58 -19.5t21 -52.5q0 -30 -18 -48t-45 -18q-29 0 -45.5 18t-16.5 47q-40 -16 -80 -73v-252zM271 582l-116 -94l-17 14l55 133q11 24 32.5 30.5t43.5 -8.5
q23 -17 22 -39t-20 -36z" />
    <glyph glyph-name="Rcommaaccent" unicode="&#x156;" horiz-adv-x="595" 
d="M216 542v-235h55q57 0 87 26.5t30 93.5q0 115 -117 115h-55zM522 53l76 -24l-7 -29h-170l-114 215q-14 25 -34 37t-57 12v-209l70 -23l-8 -32h-235l-8 32l70 23v478l-70 23l8 32h253q93 0 150.5 -38.5t57.5 -122.5q0 -70 -48 -108.5t-115 -42.5v-4q63 -11 96 -70z
M311 -144h-6q-7 -25 -35 -25q-25 0 -39 16t-14 39q0 28 18.5 45t46.5 17q37 0 58.5 -22.5t21.5 -58.5q0 -105 -134 -120l-8 20q91 29 91 89z" />
    <glyph glyph-name="rcommaaccent" unicode="&#x157;" horiz-adv-x="395" 
d="M190 49l88 -19l-13 -30h-225v28l44 17v283l-45 59v11l133 48h17l-3 -103h4q19 45 51.5 74.5t74.5 29.5q37 0 58 -19.5t21 -52.5q0 -30 -18 -48t-45 -18q-29 0 -45.5 18t-16.5 47q-40 -16 -80 -73v-252zM166 -144h-7q-7 -25 -34 -25q-26 0 -39.5 16t-13.5 39q0 28 18.5 45
t46.5 17q36 0 57.5 -22.5t21.5 -58.5q0 -105 -133 -120l-8 20q91 30 91 89z" />
    <glyph glyph-name="Rcaron" unicode="&#x158;" horiz-adv-x="595" 
d="M216 542v-235h55q57 0 87 26.5t30 93.5q0 115 -117 115h-55zM522 53l76 -24l-7 -29h-170l-114 215q-14 25 -34 37t-57 12v-209l70 -23l-8 -32h-235l-8 32l70 23v478l-70 23l8 32h253q93 0 150.5 -38.5t57.5 -122.5q0 -70 -48 -108.5t-115 -42.5v-4q63 -11 96 -70z
M280 620h-21l-139 142h110l64 -73l76 73h52z" />
    <glyph glyph-name="rcaron" unicode="&#x159;" horiz-adv-x="395" 
d="M190 49l88 -19l-13 -30h-225v28l44 17v283l-45 59v11l133 48h17l-3 -103h4q19 45 51.5 74.5t74.5 29.5q37 0 58 -19.5t21 -52.5q0 -30 -18 -48t-45 -18q-29 0 -45.5 18t-16.5 47q-40 -16 -80 -73v-252zM217 482h-21l-139 180h101l72 -103l79 103h50z" />
    <glyph glyph-name="Sacute" unicode="&#x15a;" horiz-adv-x="473" 
d="M243 34q42 0 66.5 23.5t24.5 67.5q0 43 -21.5 66.5t-71.5 44.5l-71 31q-58 26 -87 65.5t-29 102.5q0 81 52 122t127 41q43 0 123 -20l47 20l4 -165l-25 -6l-38 59q-40 70 -112 70q-40 0 -64.5 -23.5t-24.5 -61.5t18.5 -61.5t65.5 -43.5l78 -33q64 -27 94.5 -69t30.5 -107
q0 -82 -54 -124.5t-133 -42.5q-67 0 -134 30l-49 -30l-18 187l30 6l39 -63q27 -46 57.5 -66t74.5 -20zM308 698l-132 -72l-14 19l91 119q15 20 35.5 22.5t38.5 -16.5q17 -22 10 -41.5t-29 -30.5z" />
    <glyph glyph-name="sacute" unicode="&#x15b;" horiz-adv-x="401" 
d="M39 135l25 7q33 -65 64.5 -88.5t74.5 -23.5q73 0 73 59q0 26 -16.5 42.5t-52.5 28.5l-60 20q-102 33 -102 134q0 65 41 98.5t109 33.5q50 0 86 -19l51 18l6 -129l-22 -7q-31 51 -60 72.5t-64 21.5q-29 0 -46.5 -15t-17.5 -40q0 -47 60 -68l64 -21q57 -19 84.5 -51
t27.5 -87q0 -66 -44.5 -98.5t-120.5 -32.5q-53 0 -103 23l-47 -23zM284 582l-117 -94l-16 14l55 133q10 24 31.5 30.5t44.5 -8.5q23 -17 22 -39t-20 -36z" />
    <glyph glyph-name="Scircumflex" unicode="&#x15c;" horiz-adv-x="473" 
d="M243 34q42 0 66.5 23.5t24.5 67.5q0 43 -21.5 66.5t-71.5 44.5l-71 31q-58 26 -87 65.5t-29 102.5q0 81 52 122t127 41q43 0 123 -20l47 20l4 -165l-25 -6l-38 59q-40 70 -112 70q-40 0 -64.5 -23.5t-24.5 -61.5t18.5 -61.5t65.5 -43.5l78 -33q64 -27 94.5 -69t30.5 -107
q0 -82 -54 -124.5t-133 -42.5q-67 0 -134 30l-49 -30l-18 187l30 6l39 -63q27 -46 57.5 -66t74.5 -20zM230 770h20l140 -142h-107l-69 70l-76 -70h-51z" />
    <glyph glyph-name="scircumflex" unicode="&#x15d;" horiz-adv-x="401" 
d="M39 135l25 7q33 -65 64.5 -88.5t74.5 -23.5q73 0 73 59q0 26 -16.5 42.5t-52.5 28.5l-60 20q-102 33 -102 134q0 65 41 98.5t109 33.5q50 0 86 -19l51 18l6 -129l-22 -7q-31 51 -60 72.5t-64 21.5q-29 0 -46.5 -15t-17.5 -40q0 -47 60 -68l64 -21q57 -19 84.5 -51
t27.5 -87q0 -66 -44.5 -98.5t-120.5 -32.5q-53 0 -103 23l-47 -23zM197 662h20l140 -180h-101l-72 103l-79 -103h-51z" />
    <glyph glyph-name="Scedilla" unicode="&#x15e;" horiz-adv-x="473" 
d="M121 -182l17 22q26 -22 61 -22q45 0 45 37q0 19 -13.5 31.5t-25 16.5t-37.5 11l29 79q-42 6 -88 27l-49 -30l-18 187l30 6l39 -63q27 -46 57.5 -66t74.5 -20q42 0 66.5 23.5t24.5 67.5q0 43 -21.5 66.5t-71.5 44.5l-71 31q-58 26 -87 65.5t-29 102.5q0 81 52 122t127 41
q43 0 123 -20l47 20l4 -165l-25 -6l-38 59q-40 70 -112 70q-40 0 -64.5 -23.5t-24.5 -61.5t18.5 -61.5t65.5 -43.5l78 -33q64 -27 94.5 -69t30.5 -107q0 -82 -54 -124.5t-133 -42.5h-13l-12 -32q42 -7 74 -28t32 -61q0 -87 -114 -87q-61 0 -89 36z" />
    <glyph glyph-name="scedilla" unicode="&#x15f;" horiz-adv-x="401" 
d="M93 -182l17 22q26 -22 61 -22q45 0 45 37q0 19 -13.5 31.5t-25 16.5t-37.5 11l28 78q-40 6 -72 21l-47 -23l-10 145l25 7q33 -65 64.5 -88.5t74.5 -23.5q73 0 73 59q0 26 -16.5 42.5t-52.5 28.5l-60 20q-102 33 -102 134q0 65 41 98.5t109 33.5q50 0 86 -19l51 18l6 -129
l-22 -7q-31 51 -60 72.5t-64 21.5q-29 0 -46.5 -15t-17.5 -40q0 -47 60 -68l64 -21q57 -19 84.5 -51t27.5 -87q0 -66 -43.5 -98t-118.5 -33l-12 -32q42 -7 74 -28t32 -61q0 -87 -114 -87q-61 0 -89 36z" />
    <glyph glyph-name="Scaron" unicode="&#x160;" horiz-adv-x="473" 
d="M243 34q42 0 66.5 23.5t24.5 67.5q0 43 -21.5 66.5t-71.5 44.5l-71 31q-58 26 -87 65.5t-29 102.5q0 81 52 122t127 41q43 0 123 -20l47 20l4 -165l-25 -6l-38 59q-40 70 -112 70q-40 0 -64.5 -23.5t-24.5 -61.5t18.5 -61.5t65.5 -43.5l78 -33q64 -27 94.5 -69t30.5 -107
q0 -82 -54 -124.5t-133 -42.5q-67 0 -134 30l-49 -30l-18 187l30 6l39 -63q27 -46 57.5 -66t74.5 -20zM248 620h-20l-140 142h110l65 -73l75 73h53z" />
    <glyph glyph-name="scaron" unicode="&#x161;" horiz-adv-x="401" 
d="M39 135l25 7q33 -65 64.5 -88.5t74.5 -23.5q73 0 73 59q0 26 -16.5 42.5t-52.5 28.5l-60 20q-102 33 -102 134q0 65 41 98.5t109 33.5q50 0 86 -19l51 18l6 -129l-22 -7q-31 51 -60 72.5t-64 21.5q-29 0 -46.5 -15t-17.5 -40q0 -47 60 -68l64 -21q57 -19 84.5 -51
t27.5 -87q0 -66 -44.5 -98.5t-120.5 -32.5q-53 0 -103 23l-47 -23zM210 482h-21l-139 180h101l72 -103l79 103h50z" />
    <glyph glyph-name="Tcommaaccent" unicode="&#x162;" horiz-adv-x="549" 
d="M117 35l102 21v484h-103l-78 -114l-21 5v157h515v-157l-21 -5l-78 114h-103v-484l102 -21l-8 -35h-299zM295 -144h-7q-7 -25 -34 -25q-25 0 -39 16t-14 39q0 28 18.5 45t46.5 17q37 0 58.5 -22.5t21.5 -58.5q0 -105 -134 -120l-8 20q91 29 91 89z" />
    <glyph glyph-name="tcommaaccent" unicode="&#x163;" horiz-adv-x="328" 
d="M12 387v30l140 137h24v-118h140l-7 -49h-132v-250q0 -80 64 -80q37 0 78 21l10 -24q-50 -64 -140 -64q-118 0 -118 131v266h-59zM210 -144h-6q-7 -25 -35 -25q-25 0 -39 16t-14 39q0 28 18.5 45t46.5 17q37 0 58.5 -22.5t21.5 -58.5q0 -105 -134 -120l-8 20q91 29 91 89z
" />
    <glyph glyph-name="Tcaron" unicode="&#x164;" horiz-adv-x="549" 
d="M117 35l102 21v484h-103l-78 -114l-21 5v157h515v-157l-21 -5l-78 114h-103v-484l102 -21l-8 -35h-299zM285 620h-20l-140 142h110l64 -73l76 73h53z" />
    <glyph glyph-name="tcaron" unicode="&#x165;" horiz-adv-x="328" 
d="M12 387v30l140 137h24v-118h140l-7 -49h-132v-250q0 -80 64 -80q37 0 78 21l10 -24q-50 -64 -140 -64q-118 0 -118 131v266h-59zM234 485l10 149q1 20 11 32.5t29 11.5q22 0 37 -12t14 -32q0 -12 -7 -24l-67 -130z" />
    <glyph glyph-name="Tbar" unicode="&#x166;" horiz-adv-x="549" 
d="M126 274v48h93v217h-103l-78 -113l-21 5v157h515v-157l-21 -5l-78 113h-103v-217h92v-48h-92v-218l102 -21l-8 -35h-299l-8 35l102 21v218h-93z" />
    <glyph glyph-name="tbar" unicode="&#x167;" horiz-adv-x="328" 
d="M12 387v30l140 137h24v-118h140l-7 -49h-132v-103h129l-6 -46h-123v-101q0 -80 64 -80q37 0 78 21l10 -24q-50 -64 -140 -64q-118 0 -118 131v117h-59v46h59v103h-59z" />
    <glyph glyph-name="Utilde" unicode="&#x168;" horiz-adv-x="637" 
d="M547 533v-324q0 -105 -62 -162t-163 -57q-234 0 -234 211v332l-69 23l7 32h235l8 -32l-70 -23v-323q0 -160 137 -160q69 0 109 41t40 124v318l-75 23l8 32h192l8 -32zM342 655l-61 26q-17 7 -34 7q-43 -2 -50 -57l-20 3q-10 22 -10 43q0 35 24.5 58.5t64.5 23.5
q26 0 55 -12l62 -25q22 -8 38 -8q40 0 44 55l22 -4q10 -25 10 -46q0 -33 -22 -54.5t-59 -22.5q-31 0 -64 13z" />
    <glyph glyph-name="utilde" unicode="&#x169;" horiz-adv-x="502" 
d="M328 329l-45 59v11l133 47h18v-370l52 -41v-14l-144 -30l-10 71h-4q-44 -72 -136 -72q-56 0 -94 34.5t-38 109.5v195l-45 59v11l133 47h18v-295q0 -93 71 -93q49 0 91 41v230zM268 512l-60 25q-17 7 -33 7q-43 0 -49 -56l-20 2q-11 26 -11 43q0 35 24 59t64 24
q25 0 54 -12l61 -25q21 -9 37 -9q40 0 43 56l23 -4q9 -27 9 -46q0 -34 -22 -55.5t-58 -21.5q-32 0 -62 13z" />
    <glyph glyph-name="Umacron" unicode="&#x16a;" horiz-adv-x="637" 
d="M547 533v-324q0 -105 -62 -162t-163 -57q-234 0 -234 211v332l-69 23l7 32h235l8 -32l-70 -23v-323q0 -160 137 -160q69 0 109 41t40 124v318l-75 23l8 32h192l8 -32zM480 653h-312v56h312v-56z" />
    <glyph glyph-name="umacron" unicode="&#x16b;" horiz-adv-x="502" 
d="M328 329l-45 59v11l133 47h18v-370l52 -41v-14l-144 -30l-10 71h-4q-44 -72 -136 -72q-56 0 -94 34.5t-38 109.5v195l-45 59v11l133 47h18v-295q0 -93 71 -93q49 0 91 41v230zM381 511h-281v57h281v-57z" />
    <glyph glyph-name="Ubreve" unicode="&#x16c;" horiz-adv-x="637" 
d="M547 533v-324q0 -105 -62 -162t-163 -57q-234 0 -234 211v332l-69 23l7 32h235l8 -32l-70 -23v-323q0 -160 137 -160q69 0 109 41t40 124v318l-75 23l8 32h192l8 -32zM325 692q43 0 66.5 16t37.5 52h34q-3 -61 -38 -99t-100 -38t-100 38t-39 99h35q14 -36 37.5 -52
t66.5 -16z" />
    <glyph glyph-name="ubreve" unicode="&#x16d;" horiz-adv-x="502" 
d="M328 329l-45 59v11l133 47h18v-370l52 -41v-14l-144 -30l-10 71h-4q-44 -72 -136 -72q-56 0 -94 34.5t-38 109.5v195l-45 59v11l133 47h18v-295q0 -93 71 -93q49 0 91 41v230zM250 565q90 0 105 91h31q2 -16 2 -25q0 -59 -38 -98t-100 -39t-100.5 39.5t-38.5 97.5
q0 13 3 25h30q8 -48 34 -69.5t72 -21.5z" />
    <glyph glyph-name="Uring" unicode="&#x16e;" horiz-adv-x="637" 
d="M547 533v-324q0 -105 -62 -162t-163 -57q-234 0 -234 211v332l-69 23l7 32h235l8 -32l-70 -23v-323q0 -160 137 -160q69 0 109 41t40 124v318l-75 23l8 32h192l8 -32zM230 713q0 39 27.5 66t70.5 27t71 -27t28 -66q0 -41 -27.5 -68.5t-71.5 -27.5q-45 0 -71.5 27
t-26.5 69zM276 711q0 -23 13.5 -37.5t38.5 -14.5q23 0 37.5 15t14.5 37q0 24 -14 39t-38 15t-38 -15t-14 -39z" />
    <glyph glyph-name="uring" unicode="&#x16f;" horiz-adv-x="502" 
d="M328 329l-45 59v11l133 47h18v-370l52 -41v-14l-144 -30l-10 71h-4q-44 -72 -136 -72q-56 0 -94 34.5t-38 109.5v195l-45 59v11l133 47h18v-295q0 -93 71 -93q49 0 91 41v230zM144 589q0 39 28 66.5t71 27.5t71 -27.5t28 -66.5q0 -40 -28 -68t-71 -28q-46 0 -72.5 27.5
t-26.5 68.5zM190 588q0 -23 14 -37.5t39 -14.5q23 0 37 14.5t14 37.5t-14 38t-37 15q-24 0 -38.5 -15t-14.5 -38z" />
    <glyph glyph-name="Uhungarumlaut" unicode="&#x170;" horiz-adv-x="637" 
d="M547 533v-324q0 -105 -62 -162t-163 -57q-234 0 -234 211v332l-69 23l7 32h235l8 -32l-70 -23v-323q0 -160 137 -160q69 0 109 41t40 124v318l-75 23l8 32h192l8 -32zM491 702l-129 -79l-17 22l92 118q32 41 66 3q34 -37 -12 -64zM348 706l-126 -83l-19 22l89 120
q29 43 65 6q35 -34 -9 -65z" />
    <glyph glyph-name="uhungarumlaut" unicode="&#x171;" horiz-adv-x="502" 
d="M328 329l-45 59v11l133 47h18v-370l52 -41v-14l-144 -30l-10 71h-4q-44 -72 -136 -72q-56 0 -94 34.5t-38 109.5v195l-45 59v11l133 47h18v-295q0 -93 71 -93q49 0 91 41v230zM410 590l-110 -105l-21 18l65 134q23 47 64 18q41 -30 2 -65zM267 590l-109 -105l-22 18
l66 134q23 47 63 18q41 -30 2 -65z" />
    <glyph glyph-name="Uogonek" unicode="&#x172;" horiz-adv-x="637" 
d="M211 -121q0 72 79 112q-202 13 -202 210v332l-69 23l7 32h235l8 -32l-70 -23v-323q0 -160 137 -160q69 0 109 41t40 124v318l-75 23l8 32h192l8 -32l-71 -23v-324q0 -92 -49 -148t-132 -68q-36 -18 -52.5 -38.5t-16.5 -52.5q0 -27 15.5 -42.5t41.5 -15.5q38 0 67 32
l15 -15q-32 -76 -120 -76q-47 0 -76 23.5t-29 70.5z" />
    <glyph glyph-name="uogonek" unicode="&#x173;" horiz-adv-x="502" 
d="M225 -121q0 85 115 130l-8 53h-4q-44 -72 -136 -72q-56 0 -94 34.5t-38 109.5v195l-45 59v11l133 47h18v-295q0 -93 71 -93q49 0 91 41v230l-45 59v11l133 47h18v-370l52 -41v-14q-175 -28 -175 -119q0 -27 15 -42.5t42 -15.5q38 0 67 32l14 -15q-31 -76 -119 -76
q-47 0 -76 23.5t-29 70.5z" />
    <glyph glyph-name="Wcircumflex" unicode="&#x174;" horiz-adv-x="812" 
d="M518 0l-85 328q-8 30 -13.5 64t-7.5 53l-1 19h-4q-7 -71 -25 -137l-87 -327h-103l-133 531l-50 26l7 31h228l6 -35l-75 -16l69 -312q7 -29 12 -62t6 -52l2 -19h4q11 63 28 133l90 363h88l94 -363q8 -30 13 -63.5t7 -51.5l1 -18h4q5 63 22 134l74 306l-80 22l5 34h183
l7 -31l-50 -25l-134 -532h-102zM416 770h21l139 -142h-107l-69 70l-75 -70h-51z" />
    <glyph glyph-name="wcircumflex" unicode="&#x175;" horiz-adv-x="685" 
d="M6 436h206l6 -31l-63 -17l53 -181q7 -24 12 -49t7 -38l2 -13h4q5 47 23 100l75 229h71l71 -229q7 -23 13 -48t8 -39l3 -13h4q7 48 23 100l56 177l-65 21l6 31h160l5 -31l-45 -17l-127 -388h-78l-70 203q-7 20 -13 44.5t-9 39.5l-3 15h-4q-11 -57 -25 -99l-67 -203h-79
l-123 380l-44 28zM357 662h20l140 -180h-101l-72 103l-80 -103h-50z" />
    <glyph glyph-name="Ycircumflex" unicode="&#x176;" horiz-adv-x="565" 
d="M171 537l101 -186q13 -25 21 -46t9 -29l2 -9h4q6 27 37 83l101 182l-80 22l5 34h183l7 -31l-49 -25l-174 -312v-164l102 -21l-8 -35h-299l-8 35l102 21v164l-174 312l-49 25l7 31h228l6 -35zM287 770h20l140 -142h-107l-69 70l-75 -70h-52z" />
    <glyph glyph-name="ycircumflex" unicode="&#x177;" horiz-adv-x="471" 
d="M212 -25l-164 404l-44 29l7 28h204l7 -32l-64 -16l69 -178q12 -33 20 -64t10 -46l2 -14h4q14 59 36 125l57 173l-64 21l5 31h164l6 -31l-46 -18l-143 -385q-44 -119 -89.5 -169t-112.5 -50q-41 0 -63 21t-22 53q0 29 16.5 45.5t45.5 16.5q26 0 40.5 -16t14.5 -40
q0 -21 -12 -37q30 1 63.5 44.5t52.5 104.5zM235 662h21l139 -180h-101l-72 103l-79 -103h-50z" />
    <glyph glyph-name="Ydieresis" unicode="&#x178;" horiz-adv-x="565" 
d="M171 537l101 -186q13 -25 21 -46t9 -29l2 -9h4q6 27 37 83l101 182l-80 22l5 34h183l7 -31l-49 -25l-174 -312v-164l102 -21l-8 -35h-299l-8 35l102 21v164l-174 312l-49 25l7 31h228l6 -35zM141 682q0 27 18 44.5t43 17.5q28 0 46 -17t18 -45q0 -26 -18 -43t-46 -17
q-25 0 -43 17.5t-18 42.5zM332 681q0 27 18 44.5t44 17.5q27 0 45 -17.5t18 -44.5q0 -25 -18.5 -42.5t-44.5 -17.5t-44 17.5t-18 42.5z" />
    <glyph glyph-name="Zacute" unicode="&#x179;" horiz-adv-x="518" 
d="M24 12l266 456q13 23 25.5 41.5t18.5 24.5l6 7v4q-19 -3 -78 -3h-103l-89 -118l-22 4l14 160h411l5 -14l-268 -452q-15 -24 -28 -42.5t-19 -24.5l-6 -6v-4q21 3 81 3h137l94 128l24 -7l-29 -169h-434zM341 698l-132 -72l-14 19l90 119q16 20 36 22.5t39 -16.5
q16 -22 9.5 -41.5t-28.5 -30.5z" />
    <glyph glyph-name="zacute" unicode="&#x17a;" horiz-adv-x="442" 
d="M193 393h-54l-81 -104l-22 4l12 143h354l5 -14l-196 -306q-14 -22 -28 -40.5t-21 -25.5l-6 -7v-4q16 3 75 3h74l86 113l24 -7l-24 -148h-360l-6 12l196 307l50 73v4q-19 -3 -78 -3zM305 582l-116 -94l-17 14l55 133q11 24 32.5 30.5t43.5 -8.5q23 -17 22 -39t-20 -36z
" />
    <glyph glyph-name="Zdotaccent" unicode="&#x17b;" horiz-adv-x="518" 
d="M24 12l266 456q13 23 25.5 41.5t18.5 24.5l6 7v4q-19 -3 -78 -3h-103l-89 -118l-22 4l14 160h411l5 -14l-268 -452q-15 -24 -28 -42.5t-19 -24.5l-6 -6v-4q21 3 81 3h137l94 128l24 -7l-29 -169h-434zM199 697q0 29 19 47t47 18q29 0 48.5 -18t19.5 -47
q0 -28 -19.5 -46.5t-48.5 -18.5q-27 0 -46.5 18.5t-19.5 46.5z" />
    <glyph glyph-name="zdotaccent" unicode="&#x17c;" horiz-adv-x="442" 
d="M193 393h-54l-81 -104l-22 4l12 143h354l5 -14l-196 -306q-14 -22 -28 -40.5t-21 -25.5l-6 -7v-4q16 3 75 3h74l86 113l24 -7l-24 -148h-360l-6 12l196 307l50 73v4q-19 -3 -78 -3zM170 569q0 29 19 47.5t47 18.5q29 0 48.5 -18.5t19.5 -47.5q0 -28 -19.5 -46.5
t-48.5 -18.5q-27 0 -46.5 19t-19.5 46z" />
    <glyph glyph-name="Zcaron" unicode="&#x17d;" horiz-adv-x="518" 
d="M24 12l266 456q13 23 25.5 41.5t18.5 24.5l6 7v4q-19 -3 -78 -3h-103l-89 -118l-22 4l14 160h411l5 -14l-268 -452q-15 -24 -28 -42.5t-19 -24.5l-6 -6v-4q21 3 81 3h137l94 128l24 -7l-29 -169h-434zM277 620h-21l-139 142h110l64 -73l76 73h52z" />
    <glyph glyph-name="zcaron" unicode="&#x17e;" horiz-adv-x="442" 
d="M193 393h-54l-81 -104l-22 4l12 143h354l5 -14l-196 -306q-14 -22 -28 -40.5t-21 -25.5l-6 -7v-4q16 3 75 3h74l86 113l24 -7l-24 -148h-360l-6 12l196 307l50 73v4q-19 -3 -78 -3zM242 482h-20l-140 180h101l72 -103l79 103h51z" />
    <glyph glyph-name="Schwa" unicode="&#x18f;" horiz-adv-x="541" 
d="M389 274q0 118 -47.5 182.5t-145.5 64.5q-76 0 -138 -59l-22 27q73 109 211 109q114 0 185 -77t71 -220q0 -147 -70.5 -228.5t-195.5 -81.5q-95 0 -152 56t-57 151q0 44 13 76h348zM248 39q57 0 93 48t46 142l-247 -9q-3 -14 -3 -31q0 -65 27 -107.5t84 -42.5z" />
    <glyph glyph-name="florin" unicode="&#x192;" horiz-adv-x="557" 
d="M122 274v41h111l11 94q20 189 183 189q51 0 85.5 -20t34.5 -61q0 -27 -16 -44.5t-41 -17.5t-41.5 15.5t-16.5 39.5q0 35 24 50q-13 5 -24 5q-38 0 -55.5 -35t-26.5 -110l-12 -105h127v-41h-132l-21 -195q-10 -96 -57.5 -142.5t-124.5 -46.5q-51 0 -85.5 20t-34.5 61
q0 27 16 44t41 17t41.5 -15t16.5 -39q0 -33 -24 -51q14 -4 24 -4q37 0 54.5 35t26.5 109l23 207h-107z" />
    <glyph glyph-name="Khook" unicode="&#x198;" horiz-adv-x="615" 
d="M384 420l-39 -76l192 -290l81 -21l-7 -33h-171l-178 280h-47v-225l72 -23l-8 -32h-237l-7 32l70 23v478l-70 23l7 32h237l8 -32l-72 -23v-212l64 9l61 123q38 78 77.5 111.5t96.5 33.5q37 0 61 -20t24 -58q0 -28 -17 -46t-43 -18t-42 13t-16 36q0 25 17 38v4
q-28 -2 -53.5 -30t-60.5 -97z" />
    <glyph glyph-name="khook" unicode="&#x199;" horiz-adv-x="500" 
d="M176 246l38 8l137 130l-60 21l6 31h175l7 -30l-56 -21l-127 -120l142 -216l66 -21l-11 -28h-148l-131 208h-38v-160l65 -19l-13 -29h-202v28l44 17v425q0 107 58.5 162t143.5 55q52 0 84.5 -20.5t32.5 -61.5q0 -27 -16.5 -44t-41.5 -17t-41.5 15t-16.5 39q0 33 23 51
q-15 4 -28 4q-92 0 -92 -153v-254z" />
    <glyph glyph-name="Ezh" unicode="&#x1b7;" horiz-adv-x="488" 
d="M460 574l-213 -348v-4q91 -17 142 -67.5t51 -132.5q0 -103 -74 -157.5t-186 -54.5q-77 0 -121 26.5t-44 76.5q0 34 19 54t50 20q28 0 47 -20t19 -45q0 -40 -35 -54q20 -17 68 -17q63 0 102 39.5t39 108.5q0 81 -52.5 125.5t-136.5 56.5l-11 22l196 339h-171l-89 -118
l-22 4l14 160h403z" />
    <glyph glyph-name="Acaron" unicode="&#x1cd;" horiz-adv-x="596" 
d="M426 51l-48 131h-213l-47 -127l79 -21l-5 -34h-181l-7 31l49 25l200 532h91l199 -532l50 -25l-7 -31h-228l-6 35zM239 381l-56 -150h177l-54 151q-12 32 -19 62.5t-9 45.5l-1 14h-4q-8 -54 -34 -123zM303 620h-20l-140 142h110l64 -73l76 73h53z" />
    <glyph glyph-name="acaron" unicode="&#x1ce;" horiz-adv-x="451" 
d="M378 302v-208q0 -34 14.5 -44.5t54.5 -5.5l3 -22q-35 -32 -94 -32q-67 0 -79 62h-3q-15 -30 -46.5 -46t-70.5 -16q-56 0 -90.5 31t-34.5 90q0 65 47.5 98t132.5 33q30 0 60 -7v47q0 43 -25.5 65.5t-69.5 22.5q-61 0 -119 -37l-13 28q65 85 180 85q65 0 109 -36t44 -108z
M272 198h-25q-55 0 -82.5 -17t-27.5 -60q0 -31 17 -48.5t46 -17.5q44 0 72 29v114zM226 482h-20l-140 180h101l72 -103l80 103h50z" />
    <glyph glyph-name="Icaron" unicode="&#x1cf;" horiz-adv-x="321" 
d="M168 619h-21l-127 142h107l58 -66l62 66h51zM43 588h235l8 -32l-70 -23v-478l70 -23l-8 -32h-235l-8 32l70 23v478l-70 23z" />
    <glyph glyph-name="icaron" unicode="&#x1d0;" horiz-adv-x="272" 
d="M190 48l65 -19l-13 -29h-202v28l44 20v284l-45 59v11l133 44h18v-398zM146 482h-21l-139 180h101l72 -103l79 103h50z" />
    <glyph glyph-name="Ocaron" unicode="&#x1d1;" horiz-adv-x="629" 
d="M315 37q79 0 115 62.5t36 194.5t-36 194.5t-115 62.5t-115.5 -62.5t-36.5 -194.5t36.5 -194.5t115.5 -62.5zM315 -10q-129 0 -202.5 82.5t-73.5 221.5t73.5 221.5t202.5 82.5t202.5 -82.5t73.5 -221.5t-73.5 -221.5t-202.5 -82.5zM325 620h-21l-139 142h110l64 -73l76 73
h52z" />
    <glyph glyph-name="ocaron" unicode="&#x1d2;" horiz-adv-x="500" 
d="M463 218q0 -110 -57.5 -169t-155.5 -59t-155.5 59t-57.5 169t57.5 169t155.5 59t155.5 -59t57.5 -169zM151 218q0 -184 99 -184t99 184t-99 184t-99 -184zM255 482h-21l-139 180h101l72 -103l79 103h50z" />
    <glyph glyph-name="Ucaron" unicode="&#x1d3;" horiz-adv-x="637" 
d="M547 533v-324q0 -105 -62 -162t-163 -57q-234 0 -234 211v332l-69 23l7 32h235l8 -32l-70 -23v-323q0 -160 137 -160q69 0 109 41t40 124v318l-75 23l8 32h192l8 -32zM336 620h-21l-139 142h110l64 -73l76 73h52z" />
    <glyph glyph-name="ucaron" unicode="&#x1d4;" horiz-adv-x="502" 
d="M328 329l-45 59v11l133 47h18v-370l52 -41v-14l-144 -30l-10 71h-4q-44 -72 -136 -72q-56 0 -94 34.5t-38 109.5v195l-45 59v11l133 47h18v-295q0 -93 71 -93q49 0 91 41v230zM253 482h-20l-140 180h101l72 -103l79 103h51z" />
    <glyph glyph-name="uni004100A800AF" unicode="&#x1de;" horiz-adv-x="596" 
d="M426 51l-48 131h-213l-47 -127l79 -21l-5 -34h-181l-7 31l49 25l200 532h91l199 -532l50 -25l-7 -31h-228l-6 35zM239 381l-56 -150h177l-54 151q-12 32 -19 62.5t-9 45.5l-1 14h-4q-8 -54 -34 -123zM453 773h-312v56h312v-56zM139 670q0 27 18 44t43 17q28 0 46 -17
t18 -44q0 -26 -18 -43.5t-46 -17.5q-25 0 -43 17.5t-18 43.5zM330 669q0 27 18 44t44 17q27 0 45 -17t18 -44q0 -25 -18.5 -43t-44.5 -18t-44 18t-18 43z" />
    <glyph glyph-name="adieresismacron" unicode="&#x1df;" horiz-adv-x="451" 
d="M378 302v-208q0 -34 14.5 -44.5t54.5 -5.5l3 -22q-35 -32 -94 -32q-67 0 -79 62h-3q-15 -30 -46.5 -46t-70.5 -16q-56 0 -90.5 31t-34.5 90q0 65 47.5 98t132.5 33q30 0 60 -7v47q0 43 -25.5 65.5t-69.5 22.5q-61 0 -119 -37l-13 28q65 85 180 85q65 0 109 -36t44 -108z
M272 198h-25q-55 0 -82.5 -17t-27.5 -60q0 -31 17 -48.5t46 -17.5q44 0 72 29v114zM59 533q0 27 17.5 44.5t42.5 17.5q28 0 46 -17t18 -45q0 -26 -18 -43t-46 -17q-25 0 -42.5 17.5t-17.5 42.5zM249 532q0 27 18 44.5t44 17.5q27 0 45 -17.5t18 -44.5q0 -25 -18.5 -42.5
t-44.5 -17.5t-44 17.5t-18 42.5zM356 633h-281v57h281v-57z" />
    <glyph glyph-name="AEmacron" unicode="&#x1e2;" horiz-adv-x="824" 
d="M276 588h492v-157l-21 -5l-78 113h-153v-217h93l41 86l22 -4v-214l-21 -4l-41 88h-94v-209l40 -17h128l87 140l26 -6l-20 -182h-434l-7 32l70 23v137h-195l-80 -138l70 -20l-5 -34h-185l-7 30l60 26l275 477l-70 23zM358 443l-119 -203h167v299h-4q-8 -37 -44 -96z
M690 653h-311v56h311v-56z" />
    <glyph glyph-name="aemacron" unicode="&#x1e3;" horiz-adv-x="666" 
d="M365 220q1 -71 35.5 -114t96.5 -43t118 40l15 -22q-50 -91 -170 -91q-98 0 -152 69q-41 -69 -139 -69q-64 0 -100.5 32t-36.5 91q0 75 59.5 107.5t174.5 38.5q4 21 7 34q-3 37 -28.5 57.5t-65.5 20.5q-64 0 -120 -39l-13 29q64 85 178 85q74 0 114 -49q57 49 138 49
q72 0 116 -41.5t44 -117.5q0 -29 -5 -53zM206 59q52 0 84 29q-27 50 -27 125v4q-71 -5 -99 -24.5t-28 -65.5q0 -30 18 -49t52 -19zM466 402q-39 0 -66.5 -36.5t-31.5 -100.5l166 9q1 8 1 34q0 94 -69 94zM481 511h-282v57h282v-57z" />
    <glyph glyph-name="Gstroke" unicode="&#x1e4;" horiz-adv-x="609" 
d="M357 140v41h65v43l-69 23l7 32h219l8 -32l-58 -23v-43h62v-41h-62v-150h-21l-48 43q-66 -43 -151 -43q-116 0 -193 78t-77 225t80 226t206 79q54 0 124 -19l59 19v-167l-21 -5l-41 57q-27 39 -54 55t-65 16q-77 0 -121 -65t-44 -196q0 -127 40.5 -191t112.5 -64
q59 0 107 27v75h-65z" />
    <glyph glyph-name="gstroke" unicode="&#x1e5;" horiz-adv-x="470" 
d="M168 76h149q68 0 107 -34t39 -99q0 -6 -2 -20h48v-35h-56q-21 -55 -84.5 -82t-148.5 -27q-200 0 -200 109h-42v35h48q18 50 101 67v4q-38 4 -59 26.5t-21 57.5q0 70 88 88q-88 33 -88 125q0 67 47 111t133 44q83 0 158 -36q-6 10 -6 24q0 23 14.5 36.5t36.5 13.5
q24 0 37.5 -15t13.5 -39q0 -26 -15.5 -40.5t-43.5 -14.5q-30 0 -79 20v-9q25 -13 41.5 -38.5t16.5 -57.5q0 -68 -52 -103.5t-122 -35.5q-33 0 -57 7q-42 -19 -42 -48q0 -34 40 -34zM294 296q0 53 -14.5 78.5t-55.5 25.5q-40 0 -54.5 -25.5t-14.5 -78.5t14.5 -78.5
t54.5 -25.5q41 0 55.5 25.5t14.5 78.5zM226 -179q121 0 142 67h-251q9 -67 109 -67zM162 -21q-36 -19 -43 -56h253q-4 56 -80 56h-130z" />
    <glyph glyph-name="Gcaron" unicode="&#x1e6;" horiz-adv-x="609" 
d="M162 293q0 -127 40.5 -191t112.5 -64q59 0 107 27v159l-69 23l7 32h219l8 -32l-58 -23v-234h-21l-48 43q-66 -43 -151 -43q-116 0 -193 78t-77 225t80 226t206 79q54 0 124 -19l59 19v-167l-21 -5l-41 57q-27 39 -54 55t-65 16q-77 0 -121 -65t-44 -196zM326 620h-20
l-140 142h110l64 -73l76 73h53z" />
    <glyph glyph-name="gcaron" unicode="&#x1e7;" horiz-adv-x="470" 
d="M168 76h149q68 0 107 -34t39 -99q0 -83 -68.5 -123.5t-174.5 -40.5q-200 0 -200 110q0 77 107 101v4q-38 4 -59 26.5t-21 57.5q0 70 88 88q-88 33 -88 125q0 67 47 111t133 44q83 0 158 -36q-6 10 -6 24q0 23 14.5 36.5t36.5 13.5q24 0 37.5 -15t13.5 -39
q0 -26 -15.5 -40.5t-43.5 -14.5q-30 0 -79 20v-9q25 -13 41.5 -38.5t16.5 -57.5q0 -68 -52 -103.5t-122 -35.5q-33 0 -57 7q-42 -19 -42 -48q0 -34 40 -34zM162 -21q-45 -23 -45 -77q0 -81 109 -81q146 0 146 94q0 64 -80 64h-130zM294 296q0 53 -14.5 78.5t-55.5 25.5
q-40 0 -54.5 -25.5t-14.5 -78.5t14.5 -78.5t54.5 -25.5q41 0 55.5 25.5t14.5 78.5zM255 482h-20l-140 180h101l72 -103l79 103h51z" />
    <glyph glyph-name="Kcaron" unicode="&#x1e8;" horiz-adv-x="616" 
d="M216 322l59 8l164 204l-62 22l5 32h186l7 -33l-64 -18l-162 -198l189 -285l81 -21l-7 -33h-172l-177 280h-47v-225l70 -23l-8 -32h-235l-8 32l70 23v478l-70 23l8 32h235l8 -32l-70 -23v-211zM308 620h-20l-140 142h110l65 -73l75 73h53z" />
    <glyph glyph-name="kcaron" unicode="&#x1e9;" horiz-adv-x="509" 
d="M184 48l66 -19l-13 -29h-203v28l44 17v533l-53 50v11l141 42h18v-435l38 8l137 130l-60 21l7 31h174l7 -30l-56 -21l-127 -120l143 -216l65 -21l-11 -28h-148l-131 208h-38v-160zM140 708h-21l-139 142h110l64 -72l76 72h52z" />
    <glyph glyph-name="Oogonek" unicode="&#x1ea;" horiz-adv-x="629" 
d="M221 -121q0 68 74 112q-120 6 -188 88t-68 215q0 139 73.5 221.5t202.5 82.5t202.5 -82.5t73.5 -221.5q0 -121 -56.5 -200t-158.5 -98q-36 -19 -52.5 -40t-16.5 -54q0 -27 15 -42.5t42 -15.5q38 0 67 32l14 -15q-31 -76 -119 -76q-47 0 -76 23.5t-29 70.5zM315 37
q79 0 115 62.5t36 194.5t-36 194.5t-115 62.5t-115.5 -62.5t-36.5 -194.5t36.5 -194.5t115.5 -62.5z" />
    <glyph glyph-name="oogonek" unicode="&#x1eb;" horiz-adv-x="500" 
d="M160 -121q0 66 68 112q-90 6 -140.5 64t-50.5 163q0 110 57.5 169t155.5 59t155.5 -59t57.5 -169q0 -94 -42.5 -151t-117.5 -72q-57 -36 -57 -93q0 -27 15.5 -42.5t42.5 -15.5q38 0 66 32l15 -15q-31 -76 -119 -76q-48 0 -77 23.5t-29 70.5zM151 218q0 -184 99 -184
t99 184t-99 184t-99 -184z" />
    <glyph glyph-name="uni004F02DB00AF" unicode="&#x1ec;" horiz-adv-x="629" 
d="M221 -121q0 68 74 112q-120 6 -188 88t-68 215q0 139 73.5 221.5t202.5 82.5t202.5 -82.5t73.5 -221.5q0 -121 -56.5 -200t-158.5 -98q-36 -19 -52.5 -40t-16.5 -54q0 -27 15 -42.5t42 -15.5q38 0 67 32l14 -15q-31 -76 -119 -76q-47 0 -76 23.5t-29 70.5zM315 37
q79 0 115 62.5t36 194.5t-36 194.5t-115 62.5t-115.5 -62.5t-36.5 -194.5t36.5 -194.5t115.5 -62.5zM471 653h-311v56h311v-56z" />
    <glyph glyph-name="oogonekmacron" unicode="&#x1ed;" horiz-adv-x="500" 
d="M160 -121q0 66 68 112q-90 6 -140.5 64t-50.5 163q0 110 57.5 169t155.5 59t155.5 -59t57.5 -169q0 -94 -42.5 -151t-117.5 -72q-57 -36 -57 -93q0 -27 15.5 -42.5t42.5 -15.5q38 0 66 32l15 -15q-31 -76 -119 -76q-48 0 -77 23.5t-29 70.5zM151 218q0 -184 99 -184
t99 184t-99 184t-99 -184zM394 511h-282v57h282v-57z" />
    <glyph glyph-name="Ezhcaron" unicode="&#x1ee;" horiz-adv-x="488" 
d="M460 574l-213 -348v-4q91 -17 142 -67.5t51 -132.5q0 -103 -74 -157.5t-186 -54.5q-77 0 -121 26.5t-44 76.5q0 34 19 54t50 20q28 0 47 -20t19 -45q0 -40 -35 -54q20 -17 68 -17q63 0 102 39.5t39 108.5q0 81 -52.5 125.5t-136.5 56.5l-11 22l196 339h-171l-89 -118
l-22 4l14 160h403zM267 620h-21l-139 142h110l64 -73l76 73h52z" />
    <glyph glyph-name="ezhcaron" unicode="&#x1ef;" horiz-adv-x="435" 
d="M404 422l-180 -266v-4q76 -6 120 -49t44 -110q0 -90 -64.5 -136.5t-161.5 -46.5q-66 0 -106 23t-40 67q0 30 17.5 47.5t44.5 17.5q25 0 42 -17.5t17 -39.5q0 -36 -31 -48q16 -15 59 -15q52 0 84.5 31.5t32.5 88.5q0 136 -168 149l-10 21l166 258h-136l-79 -104l-22 4
l13 143h353zM230 482h-21l-139 180h101l72 -103l79 103h50z" />
    <glyph glyph-name="jcaron" unicode="&#x1f0;" horiz-adv-x="239" 
d="M176 449v-498q0 -74 -46 -122t-135 -48q-37 0 -59 15.5t-22 45.5q0 25 16 39.5t41 14.5q24 0 36.5 -14.5t12.5 -38.5q0 -21 -9 -32q25 0 42 26.5t17 79.5v417l-48 59v11l135 45h19zM129 482h-21l-139 180h101l72 -103l79 103h50z" />
    <glyph glyph-name="jcaron" unicode="&#xe10c;" horiz-adv-x="239" 
d="M176 449v-498q0 -74 -46 -122t-135 -48q-37 0 -59 15.5t-22 45.5q0 25 16 39.5t41 14.5q24 0 36.5 -14.5t12.5 -38.5q0 -21 -9 -32q25 0 42 26.5t17 79.5v417l-48 59v11l135 45h19zM129 482h-21l-139 180h101l72 -103l79 103h50z" />
    <glyph glyph-name="Gacute" unicode="&#x1f4;" horiz-adv-x="609" 
d="M162 293q0 -127 40.5 -191t112.5 -64q59 0 107 27v159l-69 23l7 32h219l8 -32l-58 -23v-234h-21l-48 43q-66 -43 -151 -43q-116 0 -193 78t-77 225t80 226t206 79q54 0 124 -19l59 19v-167l-21 -5l-41 57q-27 39 -54 55t-65 16q-77 0 -121 -65t-44 -196zM401 698
l-132 -72l-14 19l90 119q16 20 36 22.5t39 -16.5q16 -22 9.5 -41.5t-28.5 -30.5z" />
    <glyph glyph-name="gacute" unicode="&#x1f5;" horiz-adv-x="470" 
d="M168 76h149q68 0 107 -34t39 -99q0 -83 -68.5 -123.5t-174.5 -40.5q-200 0 -200 110q0 77 107 101v4q-38 4 -59 26.5t-21 57.5q0 70 88 88q-88 33 -88 125q0 67 47 111t133 44q83 0 158 -36q-6 10 -6 24q0 23 14.5 36.5t36.5 13.5q24 0 37.5 -15t13.5 -39
q0 -26 -15.5 -40.5t-43.5 -14.5q-30 0 -79 20v-9q25 -13 41.5 -38.5t16.5 -57.5q0 -68 -52 -103.5t-122 -35.5q-33 0 -57 7q-42 -19 -42 -48q0 -34 40 -34zM162 -21q-45 -23 -45 -77q0 -81 109 -81q146 0 146 94q0 64 -80 64h-130zM294 296q0 53 -14.5 78.5t-55.5 25.5
q-40 0 -54.5 -25.5t-14.5 -78.5t14.5 -78.5t54.5 -25.5q41 0 55.5 25.5t14.5 78.5zM335 582l-117 -94l-16 14l55 133q10 24 31.5 30.5t43.5 -8.5q23 -17 22.5 -39t-19.5 -36z" />
    <glyph glyph-name="Ngrave" unicode="&#x1f8;" horiz-adv-x="657" 
d="M168 344v-289l75 -23l-8 -32h-192l-8 32l70 23v478l-70 23l8 32h175l223 -316q17 -24 33.5 -54.5t24.5 -48.5l8 -18h4q-5 71 -5 142v240l-75 23l7 32h191l8 -32l-70 -23v-533h-63l-268 369q-17 24 -34.5 54.5t-26.5 48.5l-9 18h-4q6 -72 6 -146zM383 617l-132 72
q-22 11 -29 30.5t10 41.5q18 19 38.5 16.5t35.5 -22.5l91 -119z" />
    <glyph glyph-name="ngrave" unicode="&#x1f9;" horiz-adv-x="537" 
d="M461 48l66 -19l-13 -29h-203v28l44 18v235q0 81 -73 81q-50 0 -92 -38v-276l66 -19l-13 -29h-203v28l44 17v284l-45 59v11l133 47h17l-3 -86h4q53 86 149 86q52 0 87 -36t35 -108v-254zM302 488l-117 94q-19 14 -19.5 36t22.5 39q22 15 43.5 8.5t31.5 -30.5l55 -133z" />
    <glyph glyph-name="uni004102DA00B4" unicode="&#x1fa;" horiz-adv-x="596" 
d="M426 51l-48 131h-213l-47 -127l79 -21l-5 -34h-181l-7 31l49 25l200 532h91l199 -532l50 -25l-7 -31h-228l-6 35zM195 699q0 35 26.5 58t73.5 23q48 0 74.5 -23t26.5 -58q0 -37 -26.5 -60.5t-74.5 -23.5t-74 23.5t-26 60.5zM239 381l-56 -150h177l-54 151
q-12 32 -19 62.5t-9 45.5l-1 14h-4q-8 -54 -34 -123zM370 830l-147 -35l-9 22l119 92q18 15 39.5 11.5t33.5 -25.5q13 -24 1 -42t-37 -23zM242 698q0 -19 14 -30.5t39 -11.5q24 0 38.5 12t14.5 30q0 19 -14.5 31.5t-38.5 12.5t-38.5 -12.5t-14.5 -31.5z" />
    <glyph glyph-name="aringacute" unicode="&#x1fb;" horiz-adv-x="451" 
d="M117 562q0 35 26.5 58.5t73.5 23.5q48 0 75 -23.5t27 -58.5q0 -36 -27 -60t-75 -24q-47 0 -73.5 24t-26.5 60zM164 562q0 -19 14 -31t39 -12q24 0 39 12t15 31q0 18 -15 30.5t-39 12.5t-38.5 -12.5t-14.5 -30.5zM289 702l-146 -35l-9 22l118 92q19 15 40.5 11.5
t33.5 -26.5t-0.5 -41t-36.5 -23zM378 302v-208q0 -34 14.5 -44.5t54.5 -5.5l3 -22q-35 -32 -94 -32q-67 0 -79 62h-3q-15 -30 -46.5 -46t-70.5 -16q-56 0 -90.5 31t-34.5 90q0 65 47.5 98t132.5 33q30 0 60 -7v47q0 43 -25.5 65.5t-69.5 22.5q-61 0 -119 -37l-13 28
q65 85 180 85q65 0 109 -36t44 -108zM272 198h-25q-55 0 -82.5 -17t-27.5 -60q0 -31 17 -48.5t46 -17.5q44 0 72 29v114z" />
    <glyph glyph-name="AEacute" unicode="&#x1fc;" horiz-adv-x="824" 
d="M276 588h492v-157l-21 -5l-78 113h-153v-217h93l41 86l22 -4v-214l-21 -4l-41 88h-94v-209l40 -17h128l87 140l26 -6l-20 -182h-434l-7 32l70 23v137h-195l-80 -138l70 -20l-5 -34h-185l-7 30l60 26l275 477l-70 23zM358 443l-119 -203h167v299h-4q-8 -37 -44 -96z
M588 698l-133 -72l-13 19l90 119q15 20 35.5 22.5t38.5 -16.5q17 -22 10.5 -41.5t-28.5 -30.5z" />
    <glyph glyph-name="aeacute" unicode="&#x1fd;" horiz-adv-x="666" 
d="M365 220q1 -71 35.5 -114t96.5 -43t118 40l15 -22q-50 -91 -170 -91q-98 0 -152 69q-41 -69 -139 -69q-64 0 -100.5 32t-36.5 91q0 75 59.5 107.5t174.5 38.5q4 21 7 34q-3 37 -28.5 57.5t-65.5 20.5q-64 0 -120 -39l-13 29q64 85 178 85q74 0 114 -49q57 49 138 49
q72 0 116 -41.5t44 -117.5q0 -29 -5 -53zM206 59q52 0 84 29q-27 50 -27 125v4q-71 -5 -99 -24.5t-28 -65.5q0 -30 18 -49t52 -19zM466 402q-39 0 -66.5 -36.5t-31.5 -100.5l166 9q1 8 1 34q0 94 -69 94zM437 582l-117 -94l-16 14l55 133q10 24 31.5 30.5t43.5 -8.5
q23 -17 22.5 -39t-19.5 -36z" />
    <glyph glyph-name="Oslashacute" unicode="&#x1fe;" horiz-adv-x="628" 
d="M314 -10q-101 0 -165 44l-46 -63h-55l66 91q-75 80 -75 237q0 137 73 218t202 81q92 0 158 -44l47 64h57l-68 -93q81 -83 81 -226q0 -150 -69 -229.5t-206 -79.5zM466 298q0 91 -17 146l-249 -340q39 -67 114 -67q76 0 114 68.5t38 192.5zM314 552q-78 0 -115 -62.5
t-37 -191.5q0 -86 18 -146l247 340q-38 60 -113 60zM380 698l-132 -72l-14 19l90 119q16 20 36 22.5t39 -16.5q16 -22 9.5 -41.5t-28.5 -30.5z" />
    <glyph glyph-name="oslashacute" unicode="&#x1ff;" horiz-adv-x="512" 
d="M257 446q61 0 109 -23l30 43h49l-45 -65q74 -60 74 -184q0 -113 -60 -170t-159 -57q-68 0 -120 25l-30 -44h-49l46 67q-65 57 -65 179q0 110 60.5 169.5t159.5 59.5zM256 30q100 0 100 187q0 59 -11 103l-167 -243q24 -47 78 -47zM154 217q0 -54 7 -92l165 239
q-27 39 -70 39q-55 0 -78.5 -47.5t-23.5 -138.5zM324 582l-117 -94l-16 14l55 133q10 24 31.5 30.5t43.5 -8.5q23 -17 22.5 -39t-19.5 -36z" />
    <glyph glyph-name="Adoublegrave" unicode="&#x200;" horiz-adv-x="596" 
d="M426 51l-48 131h-213l-47 -127l79 -21l-5 -34h-181l-7 31l49 25l200 532h91l199 -532l50 -25l-7 -31h-228l-6 35zM239 381l-56 -150h177l-54 151q-12 32 -19 62.5t-9 45.5l-1 14h-4q-8 -54 -34 -123zM420 623l-127 83q-44 30 -8 65q35 36 65 -6l88 -120zM279 623l-129 79
q-46 28 -11 64q34 39 65 -3l93 -118z" />
    <glyph glyph-name="edoublegrave" unicode="&#x201;" horiz-adv-x="440" 
d="M140 233q0 -79 34.5 -124.5t96.5 -45.5t118 40l15 -23q-49 -90 -170 -90q-86 0 -141.5 58t-55.5 165q0 108 61.5 170.5t151.5 62.5q72 0 116 -41.5t44 -117.5q0 -30 -5 -54h-265zM240 402q-37 0 -63 -31.5t-35 -93.5h166q2 16 2 31q0 94 -70 94zM194 485l-110 105
q-39 35 2 65q42 30 63 -18l66 -134zM336 485l-109 105q-40 35 2 65q40 29 63 -18l66 -134z" />
    <glyph glyph-name="edoublegrave" unicode="&#x205;" horiz-adv-x="440" 
d="M140 233q0 -79 34.5 -124.5t96.5 -45.5t118 40l15 -23q-49 -90 -170 -90q-86 0 -141.5 58t-55.5 165q0 108 61.5 170.5t151.5 62.5q72 0 116 -41.5t44 -117.5q0 -30 -5 -54h-265zM240 402q-37 0 -63 -31.5t-35 -93.5h166q2 16 2 31q0 94 -70 94zM194 485l-110 105
q-39 35 2 65q42 30 63 -18l66 -134zM336 485l-109 105q-40 35 2 65q40 29 63 -18l66 -134z" />
    <glyph glyph-name="Ainvertedbreve" unicode="&#x202;" horiz-adv-x="596" 
d="M426 51l-48 131h-213l-47 -127l79 -21l-5 -34h-181l-7 31l49 25l200 532h91l199 -532l50 -25l-7 -31h-228l-6 35zM239 381l-56 -150h177l-54 151q-12 32 -19 62.5t-9 45.5l-1 14h-4q-8 -54 -34 -123zM297 672q-43 0 -66.5 -16t-36.5 -52h-35q3 61 38 99t100 38t100 -38
t39 -99h-35q-14 36 -37.5 52t-66.5 16z" />
    <glyph glyph-name="ainvertedbreve" unicode="&#x203;" horiz-adv-x="451" 
d="M378 302v-208q0 -34 14.5 -44.5t54.5 -5.5l3 -22q-35 -32 -94 -32q-67 0 -79 62h-3q-15 -30 -46.5 -46t-70.5 -16q-56 0 -90.5 31t-34.5 90q0 65 47.5 98t132.5 33q30 0 60 -7v47q0 43 -25.5 65.5t-69.5 22.5q-61 0 -119 -37l-13 28q65 85 180 85q65 0 109 -36t44 -108z
M272 198h-25q-55 0 -82.5 -17t-27.5 -60q0 -31 17 -48.5t46 -17.5q44 0 72 29v114zM214 583q-90 0 -105 -91h-31q-2 8 -2 24q0 59 38 98.5t100 39.5t100.5 -39.5t38.5 -98.5q0 -12 -3 -24h-30q-15 91 -106 91z" />
    <glyph glyph-name="Edoublegrave" unicode="&#x204;" horiz-adv-x="524" 
d="M310 274h-94v-209l39 -17h128l87 140l26 -6l-20 -182h-433l-8 32l70 23v478l-70 23l8 32h424v-157l-21 -5l-78 113h-152v-217h93l41 86l22 -4v-214l-21 -4zM248 623l-129 79q-46 28 -11 64q34 39 65 -3l93 -118zM389 623l-127 83q-44 30 -8 65q35 36 65 -6l88 -120z" />
    <glyph glyph-name="Einvertedbreve" unicode="&#x206;" horiz-adv-x="524" 
d="M310 274h-94v-209l39 -17h128l87 140l26 -6l-20 -182h-433l-8 32l70 23v478l-70 23l8 32h424v-157l-21 -5l-78 113h-152v-217h93l41 86l22 -4v-214l-21 -4zM270 690q-43 0 -66.5 -16t-37.5 -52h-35q4 62 39 99.5t100 37.5t100 -37.5t38 -99.5h-34q-14 36 -37.5 52
t-66.5 16z" />
    <glyph glyph-name="einvertedbreve" unicode="&#x207;" horiz-adv-x="440" 
d="M140 233q0 -79 34.5 -124.5t96.5 -45.5t118 40l15 -23q-49 -90 -170 -90q-86 0 -141.5 58t-55.5 165q0 108 61.5 170.5t151.5 62.5q72 0 116 -41.5t44 -117.5q0 -30 -5 -54h-265zM240 402q-37 0 -63 -31.5t-35 -93.5h166q2 16 2 31q0 94 -70 94zM237 583q-90 0 -105 -91
h-31q-2 8 -2 24q0 59 38 98.5t100 39.5t100.5 -39.5t38.5 -98.5q0 -12 -3 -24h-30q-15 91 -106 91z" />
    <glyph glyph-name="Idoublegrave" unicode="&#x208;" horiz-adv-x="321" 
d="M43 588h235l8 -32l-70 -23v-478l70 -23l-8 -32h-235l-8 32l70 23v478l-70 23zM144 623l-129 79q-46 27 -12 64q34 38 66 -3l92 -118zM284 623l-126 83q-44 31 -9 65q36 37 65 -6l89 -120z" />
    <glyph glyph-name="idoublegrave" unicode="&#x209;" horiz-adv-x="272" 
d="M190 48l65 -19l-13 -29h-202v28l44 20v284l-45 59v11l133 44h18v-398zM91 485l-110 105q-39 35 2 65q41 29 64 -18l65 -134zM233 485l-109 105q-39 35 2 65q40 29 63 -18l66 -134z" />
    <glyph glyph-name="Iinvertedbreve" unicode="&#x20a;" horiz-adv-x="321" 
d="M161 692q-40 0 -62 -16t-34 -53h-33q2 61 35 99t94 38t94.5 -38t35.5 -99h-33q-12 37 -34 53t-63 16zM43 588h235l8 -32l-70 -23v-478l70 -23l-8 -32h-235l-8 32l70 23v478l-70 23z" />
    <glyph glyph-name="iinvertedbreve" unicode="&#x20b;" horiz-adv-x="272" 
d="M133 585q-45 0 -66.5 -21t-29.5 -70h-30q-3 12 -3 24q0 60 34 99t95 39t94.5 -39t33.5 -99q0 -8 -2 -24h-31q-8 49 -29.5 70t-65.5 21zM190 48l65 -19l-13 -29h-202v28l44 20v284l-45 59v11l133 44h18v-398z" />
    <glyph glyph-name="Odoublegrave" unicode="&#x20c;" horiz-adv-x="629" 
d="M315 37q79 0 115 62.5t36 194.5t-36 194.5t-115 62.5t-115.5 -62.5t-36.5 -194.5t36.5 -194.5t115.5 -62.5zM315 -10q-129 0 -202.5 82.5t-73.5 221.5t73.5 221.5t202.5 82.5t202.5 -82.5t73.5 -221.5t-73.5 -221.5t-202.5 -82.5zM279 623l-129 79q-47 27 -11 64
q33 38 65 -3l92 -118zM420 623l-127 83q-44 31 -9 65q37 37 65 -6l89 -120z" />
    <glyph glyph-name="odoublegrave" unicode="&#x20d;" horiz-adv-x="500" 
d="M463 218q0 -110 -57.5 -169t-155.5 -59t-155.5 59t-57.5 169t57.5 169t155.5 59t155.5 -59t57.5 -169zM151 218q0 -184 99 -184t99 184t-99 184t-99 -184zM206 485l-110 105q-39 35 2 65q42 30 63 -18l66 -134zM348 485l-109 105q-40 35 2 65q40 29 63 -18l66 -134z" />
    <glyph glyph-name="Oinvertedbreve" unicode="&#x20e;" horiz-adv-x="629" 
d="M315 37q79 0 115 62.5t36 194.5t-36 194.5t-115 62.5t-115.5 -62.5t-36.5 -194.5t36.5 -194.5t115.5 -62.5zM315 -10q-129 0 -202.5 82.5t-73.5 221.5t73.5 221.5t202.5 82.5t202.5 -82.5t73.5 -221.5t-73.5 -221.5t-202.5 -82.5zM314 690q-43 0 -66.5 -16t-37.5 -52h-35
q4 62 39 99.5t100 37.5t100 -37.5t38 -99.5h-35q-13 36 -36.5 52t-66.5 16z" />
    <glyph glyph-name="oinvertedbreve" unicode="&#x20f;" horiz-adv-x="500" 
d="M463 218q0 -110 -57.5 -169t-155.5 -59t-155.5 59t-57.5 169t57.5 169t155.5 59t155.5 -59t57.5 -169zM151 218q0 -184 99 -184t99 184t-99 184t-99 -184zM254 583q-90 0 -105 -91h-31q-2 8 -2 24q0 59 38 98.5t100 39.5t100.5 -39.5t38.5 -98.5q0 -12 -3 -24h-30
q-15 91 -106 91z" />
    <glyph glyph-name="Rinvertedbreve" unicode="&#x212;" horiz-adv-x="595" 
d="M216 542v-235h55q57 0 87 26.5t30 93.5q0 115 -117 115h-55zM522 53l76 -24l-7 -29h-170l-114 215q-14 25 -34 37t-57 12v-209l70 -23l-8 -32h-235l-8 32l70 23v478l-70 23l8 32h253q93 0 150.5 -38.5t57.5 -122.5q0 -70 -48 -108.5t-115 -42.5v-4q63 -11 96 -70z
M271 690q-43 0 -66.5 -16t-37.5 -52h-35q4 62 39 99.5t100 37.5t100 -37.5t38 -99.5h-34q-14 36 -37.5 52t-66.5 16z" />
    <glyph glyph-name="rinvertedbreve" unicode="&#x213;" horiz-adv-x="395" 
d="M190 49l88 -19l-13 -30h-225v28l44 17v283l-45 59v11l133 48h17l-3 -103h4q19 45 51.5 74.5t74.5 29.5q37 0 58 -19.5t21 -52.5q0 -30 -18 -48t-45 -18q-29 0 -45.5 18t-16.5 47q-40 -16 -80 -73v-252zM206 583q-90 0 -105 -91h-31q-2 16 -2 24q0 59 38 98.5t100 39.5
t100.5 -39.5t38.5 -98.5q0 -12 -3 -24h-30q-15 91 -106 91z" />
    <glyph glyph-name="Udoublegrave" unicode="&#x214;" horiz-adv-x="637" 
d="M547 533v-324q0 -105 -62 -162t-163 -57q-234 0 -234 211v332l-69 23l7 32h235l8 -32l-70 -23v-323q0 -160 137 -160q69 0 109 41t40 124v318l-75 23l8 32h192l8 -32zM292 623l-129 79q-46 27 -12 64q34 38 66 -3l92 -118zM432 623l-126 83q-44 31 -9 65q36 37 65 -6
l89 -120z" />
    <glyph glyph-name="udoublegrave" unicode="&#x215;" horiz-adv-x="502" 
d="M328 329l-45 59v11l133 47h18v-370l52 -41v-14l-144 -30l-10 71h-4q-44 -72 -136 -72q-56 0 -94 34.5t-38 109.5v195l-45 59v11l133 47h18v-295q0 -93 71 -93q49 0 91 41v230zM200 485l-109 105q-39 35 2 65q40 29 63 -18l66 -134zM343 485l-110 105q-39 35 2 65
q41 29 64 -18l65 -134z" />
    <glyph glyph-name="Uinvertedbreve" unicode="&#x216;" horiz-adv-x="637" 
d="M547 533v-324q0 -105 -62 -162t-163 -57q-234 0 -234 211v332l-69 23l7 32h235l8 -32l-70 -23v-323q0 -160 137 -160q69 0 109 41t40 124v318l-75 23l8 32h192l8 -32zM328 690q-43 0 -66.5 -16t-37.5 -52h-35q4 62 39 99.5t100 37.5t100 -37.5t38 -99.5h-35
q-13 36 -36.5 52t-66.5 16z" />
    <glyph glyph-name="uinvertedbreve" unicode="&#x217;" horiz-adv-x="502" 
d="M328 329l-45 59v11l133 47h18v-370l52 -41v-14l-144 -30l-10 71h-4q-44 -72 -136 -72q-56 0 -94 34.5t-38 109.5v195l-45 59v11l133 47h18v-295q0 -93 71 -93q49 0 91 41v230zM246 583q-90 0 -105 -91h-31q-2 16 -2 24q0 59 38 98.5t100 39.5t100.5 -39.5t38.5 -98.5
q0 -12 -3 -24h-30q-15 91 -106 91z" />
    <glyph glyph-name="Scommaaccent" unicode="&#x218;" horiz-adv-x="473" 
d="M243 34q42 0 66.5 23.5t24.5 67.5q0 43 -21.5 66.5t-71.5 44.5l-71 31q-58 26 -87 65.5t-29 102.5q0 81 52 122t127 41q43 0 123 -20l47 20l4 -165l-25 -6l-38 59q-40 70 -112 70q-40 0 -64.5 -23.5t-24.5 -61.5t18.5 -61.5t65.5 -43.5l78 -33q64 -27 94.5 -69t30.5 -107
q0 -82 -54 -124.5t-133 -42.5q-67 0 -134 30l-49 -30l-18 187l30 6l39 -63q27 -46 57.5 -66t74.5 -20zM267 -144h-7q-7 -25 -34 -25q-25 0 -39 16t-14 39q0 28 18.5 45t46.5 17q37 0 58.5 -22.5t21.5 -58.5q0 -105 -134 -120l-8 20q91 29 91 89z" />
    <glyph glyph-name="scommaaccent" unicode="&#x219;" horiz-adv-x="401" 
d="M39 135l25 7q33 -65 64.5 -88.5t74.5 -23.5q73 0 73 59q0 26 -16.5 42.5t-52.5 28.5l-60 20q-102 33 -102 134q0 65 41 98.5t109 33.5q50 0 86 -19l51 18l6 -129l-22 -7q-31 51 -60 72.5t-64 21.5q-29 0 -46.5 -15t-17.5 -40q0 -47 60 -68l64 -21q57 -19 84.5 -51
t27.5 -87q0 -66 -44.5 -98.5t-120.5 -32.5q-53 0 -103 23l-47 -23zM227 -144h-6q-7 -25 -34 -25q-26 0 -39.5 16t-13.5 39q0 28 18.5 45t45.5 17q37 0 58.5 -22.5t21.5 -58.5q0 -105 -133 -120l-9 20q91 29 91 89z" />
    <glyph glyph-name="Hcaron" unicode="&#x21e;" horiz-adv-x="701" 
d="M423 588h235l8 -32l-70 -23v-478l70 -23l-8 -32h-235l-7 32l69 23v219h-269v-219l70 -23l-8 -32h-235l-8 32l70 23v478l-70 23l8 32h235l8 -32l-70 -23v-211h269v211l-69 23zM358 620h-21l-139 142h110l64 -73l76 73h52z" />
    <glyph glyph-name="hcaron" unicode="&#x21f;" horiz-adv-x="531" 
d="M350 45v240q0 41 -20 61t-52 20q-54 0 -94 -37v-281l66 -19l-13 -29h-203v28l44 17v533l-53 50v11l141 42h18v-315h4q26 40 64.5 60.5t79.5 20.5q53 0 88.5 -32.5t35.5 -107.5v-259l65 -19l-13 -29h-203v28zM143 708h-21l-139 142h110l64 -73l76 73h52z" />
    <glyph glyph-name="Adotabove" unicode="&#x226;" horiz-adv-x="596" 
d="M426 51l-48 131h-213l-47 -127l79 -21l-5 -34h-181l-7 31l49 25l200 532h91l199 -532l50 -25l-7 -31h-228l-6 35zM239 381l-56 -150h177l-54 151q-12 32 -19 62.5t-9 45.5l-1 14h-4q-8 -54 -34 -123zM228 697q0 28 19.5 46.5t46.5 18.5q29 0 48.5 -18t19.5 -47
q0 -28 -19.5 -46.5t-48.5 -18.5q-27 0 -46.5 18.5t-19.5 46.5z" />
    <glyph glyph-name="adotabove" unicode="&#x227;" horiz-adv-x="451" 
d="M378 302v-208q0 -34 14.5 -44.5t54.5 -5.5l3 -22q-35 -32 -94 -32q-67 0 -79 62h-3q-15 -30 -46.5 -46t-70.5 -16q-56 0 -90.5 31t-34.5 90q0 65 47.5 98t132.5 33q30 0 60 -7v47q0 43 -25.5 65.5t-69.5 22.5q-61 0 -119 -37l-13 28q65 85 180 85q65 0 109 -36t44 -108z
M272 198h-25q-55 0 -82.5 -17t-27.5 -60q0 -31 17 -48.5t46 -17.5q44 0 72 29v114zM149 569q0 29 19 47.5t47 18.5q29 0 48.5 -18.5t19.5 -47.5q0 -28 -19.5 -46.5t-48.5 -18.5q-27 0 -46.5 19t-19.5 46z" />
    <glyph glyph-name="Otildemacron" unicode="&#x22c;" horiz-adv-x="629" 
d="M315 37q79 0 115 62.5t36 194.5t-36 194.5t-115 62.5t-115.5 -62.5t-36.5 -194.5t36.5 -194.5t115.5 -62.5zM315 -10q-129 0 -202.5 82.5t-73.5 221.5t73.5 221.5t202.5 82.5t202.5 -82.5t73.5 -221.5t-73.5 -221.5t-202.5 -82.5zM331 637l-61 26q-21 7 -34 7
q-43 -2 -50 -57l-20 3q-10 22 -10 42q0 35 24.5 59t64.5 24q27 0 55 -12l62 -25q21 -9 38 -9q39 0 44 56l22 -4q10 -25 10 -46q0 -33 -22 -54.5t-59 -22.5q-34 0 -64 13zM470 777h-311v56h311v-56z" />
    <glyph glyph-name="otildemacron" unicode="&#x22d;" horiz-adv-x="500" 
d="M463 218q0 -110 -57.5 -169t-155.5 -59t-155.5 59t-57.5 169t57.5 169t155.5 59t155.5 -59t57.5 -169zM151 218q0 -184 99 -184t99 184t-99 184t-99 -184zM263 498l-60 26q-15 7 -33 7q-43 -2 -49 -57l-20 3q-10 22 -10 43q0 35 24 58.5t64 23.5q25 0 54 -12l61 -25
q22 -8 37 -8q38 0 43 55l22 -4q10 -23 10 -45q0 -33 -22 -55t-58 -23q-30 0 -63 13zM394 649h-282v56h282v-56z" />
    <glyph glyph-name="Odotabove" unicode="&#x22e;" horiz-adv-x="629" 
d="M315 37q79 0 115 62.5t36 194.5t-36 194.5t-115 62.5t-115.5 -62.5t-36.5 -194.5t36.5 -194.5t115.5 -62.5zM315 -10q-129 0 -202.5 82.5t-73.5 221.5t73.5 221.5t202.5 82.5t202.5 -82.5t73.5 -221.5t-73.5 -221.5t-202.5 -82.5zM247 697q0 29 19 47t47 18
q29 0 48.5 -18t19.5 -47q0 -28 -19.5 -46.5t-48.5 -18.5q-27 0 -46.5 18.5t-19.5 46.5z" />
    <glyph glyph-name="odotabove" unicode="&#x22f;" horiz-adv-x="500" 
d="M463 218q0 -110 -57.5 -169t-155.5 -59t-155.5 59t-57.5 169t57.5 169t155.5 59t155.5 -59t57.5 -169zM151 218q0 -184 99 -184t99 184t-99 184t-99 -184zM186 560q0 29 19 47.5t47 18.5q29 0 48.5 -18.5t19.5 -47.5q0 -28 -19.5 -46.5t-48.5 -18.5q-27 0 -46.5 19
t-19.5 46z" />
    <glyph glyph-name="odotabovemacron" unicode="&#x231;" horiz-adv-x="500" 
d="M463 218q0 -110 -57.5 -169t-155.5 -59t-155.5 59t-57.5 169t57.5 169t155.5 59t155.5 -59t57.5 -169zM151 218q0 -184 99 -184t99 184t-99 184t-99 -184zM186 536q0 29 19 47t47 18q29 0 48.5 -18t19.5 -47q0 -28 -19.5 -46.5t-48.5 -18.5q-27 0 -46.5 18.5t-19.5 46.5z
M394 630h-282v57h282v-57z" />
    <glyph glyph-name="odotabovemacron" unicode="&#xe11e;" horiz-adv-x="500" 
d="M463 218q0 -110 -57.5 -169t-155.5 -59t-155.5 59t-57.5 169t57.5 169t155.5 59t155.5 -59t57.5 -169zM151 218q0 -184 99 -184t99 184t-99 184t-99 -184zM186 536q0 29 19 47t47 18q29 0 48.5 -18t19.5 -47q0 -28 -19.5 -46.5t-48.5 -18.5q-27 0 -46.5 18.5t-19.5 46.5z
M394 630h-282v57h282v-57z" />
    <glyph glyph-name="Ymacron" unicode="&#x232;" horiz-adv-x="565" 
d="M171 537l101 -186q13 -25 21 -46t9 -29l2 -9h4q6 27 37 83l101 182l-80 22l5 34h183l7 -31l-49 -25l-174 -312v-164l102 -21l-8 -35h-299l-8 35l102 21v164l-174 312l-49 25l7 31h228l6 -35zM448 653h-311v56h311v-56z" />
    <glyph glyph-name="ymacron" unicode="&#x233;" horiz-adv-x="471" 
d="M212 -25l-164 404l-44 29l7 28h204l7 -32l-64 -16l69 -178q12 -33 20 -64t10 -46l2 -14h4q14 59 36 125l57 173l-64 21l5 31h164l6 -31l-46 -18l-143 -385q-44 -119 -89.5 -169t-112.5 -50q-41 0 -63 21t-22 53q0 29 16.5 45.5t45.5 16.5q26 0 40.5 -16t14.5 -40
q0 -21 -12 -37q30 1 63.5 44.5t52.5 104.5zM388 511h-282v57h282v-57z" />
    <glyph glyph-name="dotlessj" unicode="&#x237;" horiz-adv-x="239" 
d="M176 449v-498q0 -74 -46 -122t-135 -48q-37 0 -59 15.5t-22 45.5q0 25 16 39.5t41 14.5q24 0 36.5 -14.5t12.5 -38.5q0 -21 -9 -32q25 0 42 26.5t17 79.5v417l-48 59v11l135 45h19z" />
    <glyph glyph-name="schwa" unicode="&#x259;" horiz-adv-x="447" 
d="M309 201q0 164 -153 164q-49 0 -102 -31l-11 20q31 44 76 68t95 24q86 0 140.5 -57t54.5 -163q0 -110 -62.5 -173t-152.5 -63q-82 0 -126 57t-25 154h266zM206 33q38 0 65.5 31.5t35.5 93.5l-169 -7q-6 -47 11.5 -82.5t56.5 -35.5z" />
    <glyph glyph-name="ezh" unicode="&#x292;" horiz-adv-x="435" 
d="M404 422l-180 -266v-4q76 -6 120 -49t44 -110q0 -90 -64.5 -136.5t-161.5 -46.5q-66 0 -106 23t-40 67q0 30 17.5 47.5t44.5 17.5q25 0 42 -17.5t17 -39.5q0 -36 -31 -48q16 -15 59 -15q52 0 84.5 31.5t32.5 88.5q0 136 -168 149l-10 21l166 258h-136l-79 -104l-22 4
l13 143h353z" />
    <glyph glyph-name="circumflex" unicode="&#x2c6;" horiz-adv-x="462" 
d="M222 662h21l139 -180h-101l-72 103l-79 -103h-50z" />
    <glyph glyph-name="caron" unicode="&#x2c7;" horiz-adv-x="462" 
d="M240 482h-21l-139 180h101l72 -103l79 103h50z" />
    <glyph glyph-name="breve" unicode="&#x2d8;" horiz-adv-x="437" 
d="M218 565q46 0 72 21.5t34 69.5h30q3 -12 3 -25q0 -58 -38.5 -97.5t-100.5 -39.5t-100 39t-38 98q0 9 2 25h31q14 -91 105 -91z" />
    <glyph glyph-name="dotaccent" unicode="&#x2d9;" horiz-adv-x="294" 
d="M80 569q0 29 19 47.5t47 18.5q29 0 48.5 -18.5t19.5 -47.5q0 -28 -19.5 -46.5t-48.5 -18.5q-27 0 -46.5 19t-19.5 46z" />
    <glyph glyph-name="ring" unicode="&#x2da;" horiz-adv-x="358" 
d="M80 589q0 39 27.5 66.5t71.5 27.5q43 0 71 -27.5t28 -66.5q0 -40 -28 -68t-71 -28q-46 0 -72.5 27.5t-26.5 68.5zM126 588q0 -23 14 -37.5t39 -14.5q23 0 37 14.5t14 37.5t-14 38t-37 15q-24 0 -38.5 -15t-14.5 -38z" />
    <glyph glyph-name="ogonek" unicode="&#x2db;" horiz-adv-x="385" 
d="M80 -121q0 41 27 71.5t62.5 46.5t89.5 31l7 -21q-55 -24 -77.5 -45.5t-22.5 -59.5q0 -27 15.5 -42.5t41.5 -15.5q38 0 67 32l15 -15q-32 -76 -120 -76q-47 0 -76 23.5t-29 70.5z" />
    <glyph glyph-name="tilde" unicode="&#x2dc;" horiz-adv-x="475" 
d="M252 512l-60 25q-15 7 -33 7q-43 0 -49 -56l-20 2q-10 23 -10 43q0 36 24 59.5t64 23.5q26 0 54 -12l61 -25q21 -9 37 -9q38 0 43 56l22 -4q10 -25 10 -46q0 -34 -22 -55.5t-58 -21.5q-33 0 -63 13z" />
    <glyph glyph-name="hungarumlaut" unicode="&#x2dd;" horiz-adv-x="453" 
d="M353 590l-109 -105l-22 18l66 134q23 47 63 18q42 -30 2 -65zM211 590l-110 -105l-21 18l66 134q21 48 63 18q41 -30 2 -65z" />
    <glyph glyph-name="uni0312" unicode="&#x312;" horiz-adv-x="306" 
d="M131 583h6q3 12 14 18.5t20 6.5q26 0 39.5 -16t13.5 -40q0 -28 -18.5 -45t-45.5 -17q-37 0 -58.5 22.5t-21.5 58.5q0 105 133 120l9 -20q-91 -29 -91 -88z" />
    <glyph glyph-name="uni0331" unicode="&#x331;" horiz-adv-x="441" 
d="M361 -136h-281v56h281v-56z" />
    <glyph glyph-name="pi" unicode="&#x3c0;" horiz-adv-x="609" 
d="M581 88l11 -20q-45 -78 -141 -78q-49 0 -76.5 29t-27.5 88q0 19 4.5 49t10 53.5l15 65.5t13.5 62h-141l-33 -247q-14 -100 -92 -100q-36 0 -54.5 17.5t-18.5 47.5q0 26 16 43t38 17q47 2 60 -43l33 265h-25q-63 0 -89 -13t-43 -57l-22 9q0 78 39 119t117 41h398l7 -10
l-35 -89h-105v-192q0 -82 70 -82q39 0 71 25z" />
    <glyph glyph-name="uni0E3F" unicode="&#xe3f;" horiz-adv-x="621" 
d="M527 441q0 -58 -35 -90.5t-96 -37.5v-4q158 -20 158 -150q0 -56 -31 -93t-76.5 -51.5t-104.5 -14.5h-1v-110h-41v110h-244l-7 32l70 23v478l-70 23l7 32h244v109h41v-110q90 -3 138 -40t48 -106zM442 167q0 48 -27 78.5t-74 35.5v-235q53 5 77 34.5t24 86.5zM229 58
l39 -13h32v237h-71v-224zM229 542v-215h71v215h-71zM417 434q0 90 -76 104v-210q76 12 76 106z" />
    <glyph glyph-name="Ddotbelow" unicode="&#x1e0c;" horiz-adv-x="622" 
d="M43 588h220q147 0 233.5 -69.5t86.5 -215.5q0 -144 -87 -223.5t-219 -79.5h-234l-8 32l70 23v478l-70 23zM216 57l51 -15q194 1 194 255q0 244 -206 244h-39v-484zM219 -128q0 29 19 47.5t46 18.5q29 0 48.5 -18.5t19.5 -47.5q0 -28 -19.5 -46.5t-48.5 -18.5
q-27 0 -46 19t-19 46z" />
    <glyph glyph-name="ddotbelow" unicode="&#x1e0d;" horiz-adv-x="526" 
d="M147 225q0 -80 34 -122t97 -42q40 0 69 21v292q-25 28 -74 28q-57 0 -91.5 -47t-34.5 -130zM358 56l-3 1q-48 -67 -135 -67q-83 0 -133 57t-50 156q0 120 68 181.5t164 61.5q46 0 78 -16v148l-54 50v11l141 42h19v-601l57 -46v-13l-145 -30zM199 -128q0 29 19 47.5
t46 18.5q29 0 48.5 -18.5t19.5 -47.5q0 -28 -19.5 -46.5t-48.5 -18.5q-27 0 -46 19t-19 46z" />
    <glyph glyph-name="Dcedilla" unicode="&#x1e10;" horiz-adv-x="622" 
d="M191 -182l17 22q26 -22 61 -22q46 0 46 37q0 19 -13.5 31.5t-25 16.5t-38.5 11l32 86h-227l-8 32l70 23v478l-70 23l8 32h220q147 0 233.5 -69.5t86.5 -215.5q0 -136 -78 -214.5t-200 -87.5l-16 -43q41 -7 73 -28t32 -61q0 -87 -114 -87q-60 0 -89 36zM216 57l51 -15
q194 1 194 255q0 244 -206 244h-39v-484z" />
    <glyph glyph-name="dcedilla" unicode="&#x1e11;" horiz-adv-x="526" 
d="M155 -182l17 22q26 -22 60 -22q46 0 46 37q0 19 -13.5 31.5t-24.5 16.5t-38 11l28 76h-10q-83 0 -133 57t-50 156q0 120 68 181.5t164 61.5q46 0 78 -16v148l-54 50v11l141 42h19v-601l57 -46v-13l-145 -30l-7 65l-3 1q-34 -48 -89 -61l-14 -38q42 -7 74 -28t32 -61
q0 -87 -115 -87q-60 0 -88 36zM147 225q0 -80 34 -122t97 -42q40 0 69 21v292q-25 28 -74 28q-57 0 -91.5 -47t-34.5 -130z" />
    <glyph glyph-name="Hdotbelow" unicode="&#x1e24;" horiz-adv-x="701" 
d="M423 588h235l8 -32l-70 -23v-478l70 -23l-8 -32h-235l-7 32l69 23v219h-269v-219l70 -23l-8 -32h-235l-8 32l70 23v478l-70 23l8 32h235l8 -32l-70 -23v-211h269v211l-69 23zM284 -128q0 29 19 47.5t47 18.5q29 0 48 -18.5t19 -47.5q0 -28 -19 -46.5t-48 -18.5
q-27 0 -46.5 19t-19.5 46z" />
    <glyph glyph-name="hdotbelow" unicode="&#x1e25;" horiz-adv-x="531" 
d="M350 45v240q0 41 -20 61t-52 20q-54 0 -94 -37v-281l66 -19l-13 -29h-203v28l44 17v533l-53 50v11l141 42h18v-315h4q26 40 64.5 60.5t79.5 20.5q53 0 88.5 -32.5t35.5 -107.5v-259l65 -19l-13 -29h-203v28zM199 -128q0 29 19 47.5t47 18.5q29 0 48 -18.5t19 -47.5
q0 -28 -19 -46.5t-48 -18.5q-27 0 -46.5 19t-19.5 46z" />
    <glyph glyph-name="Ldotbelow" unicode="&#x1e36;" horiz-adv-x="499" 
d="M286 556l-70 -23v-468l40 -17h112l90 159l26 -6l-23 -201h-418l-8 32l70 23v478l-70 23l8 32h235zM182 -128q0 29 19 47.5t47 18.5q29 0 48.5 -18.5t19.5 -47.5q0 -28 -19.5 -46.5t-48.5 -18.5q-27 0 -46.5 19t-19.5 46z" />
    <glyph glyph-name="ldotbelow" unicode="&#x1e37;" horiz-adv-x="265" 
d="M184 48l66 -19l-13 -29h-203v28l44 17v533l-53 50v11l141 42h18v-633zM66 -128q0 29 19 47.5t46 18.5q29 0 48.5 -18.5t19.5 -47.5q0 -28 -19.5 -46.5t-48.5 -18.5q-27 0 -46 19t-19 46z" />
    <glyph glyph-name="uni004C032300AF" unicode="&#x1e38;" horiz-adv-x="499" 
d="M289 650h-252l-4 57h259zM286 556l-70 -23v-468l40 -17h112l90 159l26 -6l-23 -201h-418l-8 32l70 23v478l-70 23l8 32h235zM182 -128q0 29 19 47.5t47 18.5q29 0 48.5 -18.5t19.5 -47.5q0 -28 -19.5 -46.5t-48.5 -18.5q-27 0 -46.5 19t-19.5 46z" />
    <glyph glyph-name="ldotbelowmacron" unicode="&#x1e39;" horiz-adv-x="265" 
d="M184 48l66 -19l-13 -29h-203v28l44 17v533l-53 50v11l141 42h18v-633zM66 -128q0 29 19 47.5t46 18.5q29 0 48.5 -18.5t19.5 -47.5q0 -28 -19.5 -46.5t-48.5 -18.5q-27 0 -46 19t-19 46zM288 727h-311v57h311v-57z" />
    <glyph glyph-name="Mdotbelow" unicode="&#x1e42;" horiz-adv-x="812" 
d="M552 374l-140 -374h-58l-143 374q-11 28 -22.5 63t-16.5 56l-6 21h-4q6 -73 6 -143v-316l75 -23l-8 -32h-192l-8 32l70 23v478l-70 23l8 32h206l131 -364q10 -28 16.5 -53t7.5 -37l1 -11h4q3 34 26 101l131 364h204l7 -32l-70 -23v-478l70 -23l-7 -32h-236l-8 32l71 23
v316l5 143h-4q-22 -75 -46 -140zM324 -128q0 29 19 47.5t46 18.5q29 0 48.5 -18.5t19.5 -47.5q0 -28 -19.5 -46.5t-48.5 -18.5q-27 0 -46 19t-19 46z" />
    <glyph glyph-name="mdotbelow" unicode="&#x1e43;" horiz-adv-x="791" 
d="M453 325v-277l65 -19l-13 -29h-201v28l43 17v240q0 39 -18 59t-48 20q-49 0 -91 -39v-277l66 -19l-13 -29h-203v28l44 16v285l-45 59v11l133 47h17l-3 -85h4q55 86 142 86q42 0 73 -21.5t42 -65.5h4q55 87 143 87q52 0 87 -33.5t35 -107.5v-258l65 -19l-13 -29h-201v28
l43 17v240q0 39 -18 59t-48 20q-47 0 -91 -39zM336 -128q0 29 19 47.5t47 18.5q29 0 48.5 -18.5t19.5 -47.5q0 -28 -19.5 -46.5t-48.5 -18.5q-27 0 -46.5 19t-19.5 46z" />
    <glyph glyph-name="Ndotaccent" unicode="&#x1e44;" horiz-adv-x="657" 
d="M168 344v-289l75 -23l-8 -32h-192l-8 32l70 23v478l-70 23l8 32h175l223 -316q17 -24 33.5 -54.5t24.5 -48.5l8 -18h4q-5 71 -5 142v240l-75 23l7 32h191l8 -32l-70 -23v-533h-63l-268 369q-17 24 -34.5 54.5t-26.5 48.5l-9 18h-4q6 -72 6 -146zM269 697q0 29 19 47
t47 18q29 0 48.5 -18t19.5 -47q0 -28 -19.5 -46.5t-48.5 -18.5q-27 0 -46.5 18.5t-19.5 46.5z" />
    <glyph glyph-name="ndotaccent" unicode="&#x1e45;" horiz-adv-x="537" 
d="M461 48l66 -19l-13 -29h-203v28l44 18v235q0 81 -73 81q-50 0 -92 -38v-276l66 -19l-13 -29h-203v28l44 17v284l-45 59v11l133 47h17l-3 -86h4q53 86 149 86q52 0 87 -36t35 -108v-254zM201 569q0 29 19 47.5t47 18.5q29 0 48.5 -18.5t19.5 -47.5q0 -28 -19.5 -46.5
t-48.5 -18.5q-27 0 -46.5 19t-19.5 46z" />
    <glyph glyph-name="Ndotbelow" unicode="&#x1e46;" horiz-adv-x="657" 
d="M168 344v-289l75 -23l-8 -32h-192l-8 32l70 23v478l-70 23l8 32h175l223 -316q17 -24 33.5 -54.5t24.5 -48.5l8 -18h4q-5 71 -5 142v240l-75 23l7 32h191l8 -32l-70 -23v-533h-63l-268 369q-17 24 -34.5 54.5t-26.5 48.5l-9 18h-4q6 -72 6 -146zM262 -128q0 29 19 47.5
t46 18.5q29 0 48.5 -18.5t19.5 -47.5q0 -28 -19.5 -46.5t-48.5 -18.5q-27 0 -46 19t-19 46z" />
    <glyph glyph-name="ndotbelow" unicode="&#x1e47;" horiz-adv-x="537" 
d="M461 48l66 -19l-13 -29h-203v28l44 18v235q0 81 -73 81q-50 0 -92 -38v-276l66 -19l-13 -29h-203v28l44 17v284l-45 59v11l133 47h17l-3 -86h4q53 86 149 86q52 0 87 -36t35 -108v-254zM202 -128q0 29 19 47.5t46 18.5q29 0 48.5 -18.5t19.5 -47.5q0 -28 -19.5 -46.5
t-48.5 -18.5q-27 0 -46 19t-19 46z" />
    <glyph glyph-name="Rdotbelow" unicode="&#x1e5a;" horiz-adv-x="595" 
d="M216 542v-235h55q57 0 87 26.5t30 93.5q0 115 -117 115h-55zM522 53l76 -24l-7 -29h-170l-114 215q-14 25 -34 37t-57 12v-209l70 -23l-8 -32h-235l-8 32l70 23v478l-70 23l8 32h253q93 0 150.5 -38.5t57.5 -122.5q0 -70 -48 -108.5t-115 -42.5v-4q63 -11 96 -70z
M224 -128q0 29 19 47.5t47 18.5q29 0 48 -18.5t19 -47.5q0 -28 -19 -46.5t-48 -18.5q-27 0 -46.5 19t-19.5 46z" />
    <glyph glyph-name="rdotbelow" unicode="&#x1e5b;" horiz-adv-x="395" 
d="M190 49l88 -19l-13 -30h-225v28l44 17v283l-45 59v11l133 48h17l-3 -103h4q19 45 51.5 74.5t74.5 29.5q37 0 58 -19.5t21 -52.5q0 -30 -18 -48t-45 -18q-29 0 -45.5 18t-16.5 47q-40 -16 -80 -73v-252zM81 -128q0 29 19 47.5t47 18.5q29 0 48.5 -18.5t19.5 -47.5
q0 -28 -19.5 -46.5t-48.5 -18.5q-27 0 -46.5 19t-19.5 46z" />
    <glyph glyph-name="Rdotbelowmacron" unicode="&#x1e5c;" horiz-adv-x="595" 
d="M216 542v-235h55q57 0 87 26.5t30 93.5q0 115 -117 115h-55zM522 53l76 -24l-7 -29h-170l-114 215q-14 25 -34 37t-57 12v-209l70 -23l-8 -32h-235l-8 32l70 23v478l-70 23l8 32h253q93 0 150.5 -38.5t57.5 -122.5q0 -70 -48 -108.5t-115 -42.5v-4q63 -11 96 -70z
M224 -128q0 29 19 47.5t47 18.5q29 0 48 -18.5t19 -47.5q0 -28 -19 -46.5t-48 -18.5q-27 0 -46.5 19t-19.5 46zM431 653h-312v56h312v-56z" />
    <glyph glyph-name="rdotbelowmacron" unicode="&#x1e5d;" horiz-adv-x="395" 
d="M190 49l88 -19l-13 -30h-225v28l44 17v283l-45 59v11l133 48h17l-3 -103h4q19 45 51.5 74.5t74.5 29.5q37 0 58 -19.5t21 -52.5q0 -30 -18 -48t-45 -18q-29 0 -45.5 18t-16.5 47q-40 -16 -80 -73v-252zM88 -128q0 29 19 47.5t47 18.5q29 0 48.5 -18.5t19.5 -47.5
q0 -28 -19.5 -46.5t-48.5 -18.5q-27 0 -46.5 19t-19.5 46zM348 511h-281v57h281v-57z" />
    <glyph glyph-name="Sdotbelow" unicode="&#x1e62;" horiz-adv-x="473" 
d="M243 34q42 0 66.5 23.5t24.5 67.5q0 43 -21.5 66.5t-71.5 44.5l-71 31q-58 26 -87 65.5t-29 102.5q0 81 52 122t127 41q43 0 123 -20l47 20l4 -165l-25 -6l-38 59q-40 70 -112 70q-40 0 -64.5 -23.5t-24.5 -61.5t18.5 -61.5t65.5 -43.5l78 -33q64 -27 94.5 -69t30.5 -107
q0 -82 -54 -124.5t-133 -42.5q-67 0 -134 30l-49 -30l-18 187l30 6l39 -63q27 -46 57.5 -66t74.5 -20zM181 -128q0 29 19 47.5t47 18.5q29 0 48 -18.5t19 -47.5q0 -28 -19 -46.5t-48 -18.5q-27 0 -46.5 19t-19.5 46z" />
    <glyph glyph-name="sdotbelow" unicode="&#x1e63;" horiz-adv-x="401" 
d="M39 135l25 7q33 -65 64.5 -88.5t74.5 -23.5q73 0 73 59q0 26 -16.5 42.5t-52.5 28.5l-60 20q-102 33 -102 134q0 65 41 98.5t109 33.5q50 0 86 -19l51 18l6 -129l-22 -7q-31 51 -60 72.5t-64 21.5q-29 0 -46.5 -15t-17.5 -40q0 -47 60 -68l64 -21q57 -19 84.5 -51
t27.5 -87q0 -66 -44.5 -98.5t-120.5 -32.5q-53 0 -103 23l-47 -23zM136 -128q0 29 19 47.5t47 18.5q29 0 48.5 -18.5t19.5 -47.5q0 -28 -19.5 -46.5t-48.5 -18.5q-27 0 -46.5 19t-19.5 46z" />
    <glyph glyph-name="Tdotbelow" unicode="&#x1e6c;" horiz-adv-x="549" 
d="M117 35l102 21v484h-103l-78 -114l-21 5v157h515v-157l-21 -5l-78 114h-103v-484l102 -21l-8 -35h-299zM208 -128q0 29 19 47.5t46 18.5q29 0 48.5 -18.5t19.5 -47.5q0 -28 -19.5 -46.5t-48.5 -18.5q-27 0 -46 19t-19 46z" />
    <glyph glyph-name="tdotbelow" unicode="&#x1e6d;" horiz-adv-x="328" 
d="M12 387v30l140 137h24v-118h140l-7 -49h-132v-250q0 -80 64 -80q37 0 78 21l10 -24q-50 -64 -140 -64q-118 0 -118 131v266h-59zM115 -128q0 29 19 47.5t47 18.5q29 0 48.5 -18.5t19.5 -47.5q0 -28 -19.5 -46.5t-48.5 -18.5q-27 0 -46.5 19t-19.5 46z" />
    <glyph glyph-name="Wgrave" unicode="&#x1e80;" horiz-adv-x="812" 
d="M518 0l-85 328q-8 30 -13.5 64t-7.5 53l-1 19h-4q-7 -71 -25 -137l-87 -327h-103l-133 531l-50 26l7 31h228l6 -35l-75 -16l69 -312q7 -29 12 -62t6 -52l2 -19h4q11 63 28 133l90 363h88l94 -363q8 -30 13 -63.5t7 -51.5l1 -18h4q5 63 22 134l74 306l-80 22l5 34h183
l7 -31l-50 -25l-134 -532h-102zM482 617l-132 72q-22 11 -28.5 30.5t9.5 41.5q19 19 39 16.5t36 -22.5l90 -119z" />
    <glyph glyph-name="wgrave" unicode="&#x1e81;" horiz-adv-x="685" 
d="M6 436h206l6 -31l-63 -17l53 -181q7 -24 12 -49t7 -38l2 -13h4q5 47 23 100l75 229h71l71 -229q7 -23 13 -48t8 -39l3 -13h4q7 48 23 100l56 177l-65 21l6 31h160l5 -31l-45 -17l-127 -388h-78l-70 203q-7 20 -13 44.5t-9 39.5l-3 15h-4q-11 -57 -25 -99l-67 -203h-79
l-123 380l-44 28zM388 488l-117 94q-19 14 -19.5 36t22.5 39q22 15 43.5 8.5t31.5 -30.5l55 -133z" />
    <glyph glyph-name="Wacute" unicode="&#x1e82;" horiz-adv-x="812" 
d="M518 0l-85 328q-8 30 -13.5 64t-7.5 53l-1 19h-4q-7 -71 -25 -137l-87 -327h-103l-133 531l-50 26l7 31h228l6 -35l-75 -16l69 -312q7 -29 12 -62t6 -52l2 -19h4q11 63 28 133l90 363h88l94 -363q8 -30 13 -63.5t7 -51.5l1 -18h4q5 63 22 134l74 306l-80 22l5 34h183
l7 -31l-50 -25l-134 -532h-102zM504 698l-132 -72l-14 19l91 119q15 20 35.5 22.5t38.5 -16.5q17 -22 10 -41.5t-29 -30.5z" />
    <glyph glyph-name="wacute" unicode="&#x1e83;" horiz-adv-x="685" 
d="M6 436h206l6 -31l-63 -17l53 -181q7 -24 12 -49t7 -38l2 -13h4q5 47 23 100l75 229h71l71 -229q7 -23 13 -48t8 -39l3 -13h4q7 48 23 100l56 177l-65 21l6 31h160l5 -31l-45 -17l-127 -388h-78l-70 203q-7 20 -13 44.5t-9 39.5l-3 15h-4q-11 -57 -25 -99l-67 -203h-79
l-123 380l-44 28zM460 582l-117 -94l-16 14l55 133q10 24 31.5 30.5t44.5 -8.5q23 -17 22 -39t-20 -36z" />
    <glyph glyph-name="Wdieresis" unicode="&#x1e84;" horiz-adv-x="812" 
d="M518 0l-85 328q-8 30 -13.5 64t-7.5 53l-1 19h-4q-7 -71 -25 -137l-87 -327h-103l-133 531l-50 26l7 31h228l6 -35l-75 -16l69 -312q7 -29 12 -62t6 -52l2 -19h4q11 63 28 133l90 363h88l94 -363q8 -30 13 -63.5t7 -51.5l1 -18h4q5 63 22 134l74 306l-80 22l5 34h183
l7 -31l-50 -25l-134 -532h-102zM268 682q0 27 17.5 44.5t42.5 17.5q28 0 46 -17t18 -45q0 -26 -18 -43t-46 -17q-25 0 -42.5 17.5t-17.5 42.5zM458 681q0 27 18 44.5t44 17.5q27 0 45 -17.5t18 -44.5q0 -25 -18.5 -42.5t-44.5 -17.5t-44 17.5t-18 42.5z" />
    <glyph glyph-name="wdieresis" unicode="&#x1e85;" horiz-adv-x="685" 
d="M6 436h206l6 -31l-63 -17l53 -181q7 -24 12 -49t7 -38l2 -13h4q5 47 23 100l75 229h71l71 -229q7 -23 13 -48t8 -39l3 -13h4q7 48 23 100l56 177l-65 21l6 31h160l5 -31l-45 -17l-127 -388h-78l-70 203q-7 20 -13 44.5t-9 39.5l-3 15h-4q-11 -57 -25 -99l-67 -203h-79
l-123 380l-44 28zM203 564q0 27 18 44t43 17q28 0 46 -17t18 -44q0 -26 -18 -43.5t-46 -17.5q-25 0 -43 17.5t-18 43.5zM393 563q0 27 18 44t44 17q28 0 46 -17t18 -44q0 -26 -18.5 -43.5t-45.5 -17.5q-25 0 -43.5 18t-18.5 43z" />
    <glyph glyph-name="Idotbelow" unicode="&#x1eca;" horiz-adv-x="321" 
d="M43 588h235l8 -32l-70 -23v-478l70 -23l-8 -32h-235l-8 32l70 23v478l-70 23zM94 -128q0 29 19 47.5t47 18.5q29 0 48.5 -18.5t19.5 -47.5q0 -28 -19.5 -46.5t-48.5 -18.5q-27 0 -46.5 19t-19.5 46z" />
    <glyph glyph-name="idotbelow" unicode="&#x1ecb;" horiz-adv-x="272" 
d="M66 578q0 29 20.5 49.5t49.5 20.5q30 0 50 -20.5t20 -49.5t-20 -49.5t-50 -20.5q-29 0 -49.5 20.5t-20.5 49.5zM190 48l65 -19l-13 -29h-202v28l44 17v284l-45 59v11l133 47h18v-398zM67 -128q0 29 19 47.5t46 18.5q29 0 48.5 -18.5t19.5 -47.5q0 -28 -19.5 -46.5
t-48.5 -18.5q-27 0 -46 19t-19 46z" />
    <glyph glyph-name="Odotbelow" unicode="&#x1ecc;" horiz-adv-x="629" 
d="M315 37q79 0 115 62.5t36 194.5t-36 194.5t-115 62.5t-115.5 -62.5t-36.5 -194.5t36.5 -194.5t115.5 -62.5zM315 -10q-129 0 -202.5 82.5t-73.5 221.5t73.5 221.5t202.5 82.5t202.5 -82.5t73.5 -221.5t-73.5 -221.5t-202.5 -82.5zM246 -128q0 29 19 47.5t47 18.5
q29 0 48 -18.5t19 -47.5q0 -28 -19 -46.5t-48 -18.5q-27 0 -46.5 19t-19.5 46z" />
    <glyph glyph-name="odotbelow" unicode="&#x1ecd;" horiz-adv-x="500" 
d="M463 218q0 -110 -57.5 -169t-155.5 -59t-155.5 59t-57.5 169t57.5 169t155.5 59t155.5 -59t57.5 -169zM151 218q0 -184 99 -184t99 184t-99 184t-99 -184zM186 -128q0 29 19 47.5t47 18.5q29 0 48.5 -18.5t19.5 -47.5q0 -28 -19.5 -46.5t-48.5 -18.5q-27 0 -46.5 19
t-19.5 46z" />
    <glyph glyph-name="Udotbelow" unicode="&#x1ee4;" horiz-adv-x="637" 
d="M547 533v-324q0 -105 -62 -162t-163 -57q-234 0 -234 211v332l-69 23l7 32h235l8 -32l-70 -23v-323q0 -160 137 -160q69 0 109 41t40 124v318l-75 23l8 32h192l8 -32zM249 -128q0 29 19 47.5t46 18.5q29 0 48.5 -18.5t19.5 -47.5q0 -28 -19.5 -46.5t-48.5 -18.5
q-27 0 -46 19t-19 46z" />
    <glyph glyph-name="udotbelow" unicode="&#x1ee5;" horiz-adv-x="502" 
d="M328 329l-45 59v11l133 47h18v-370l52 -41v-14l-144 -30l-10 71h-4q-44 -72 -136 -72q-56 0 -94 34.5t-38 109.5v195l-45 59v11l133 47h18v-295q0 -93 71 -93q49 0 91 41v230zM191 -128q0 29 19 47.5t47 18.5q29 0 48.5 -18.5t19.5 -47.5q0 -28 -19.5 -46.5t-48.5 -18.5
q-27 0 -46.5 19t-19.5 46z" />
    <glyph glyph-name="Ygrave" unicode="&#x1ef2;" horiz-adv-x="565" 
d="M171 537l101 -186q13 -25 21 -46t9 -29l2 -9h4q6 27 37 83l101 182l-80 22l5 34h183l7 -31l-49 -25l-174 -312v-164l102 -21l-8 -35h-299l-8 35l102 21v164l-174 312l-49 25l7 31h228l6 -35zM343 617l-132 72q-22 11 -29 30.5t10 41.5q18 19 38.5 16.5t35.5 -22.5
l91 -119z" />
    <glyph glyph-name="ygrave" unicode="&#x1ef3;" horiz-adv-x="471" 
d="M212 -25l-164 404l-44 29l7 28h204l7 -32l-64 -16l69 -178q12 -33 20 -64t10 -46l2 -14h4q14 59 36 125l57 173l-64 21l5 31h164l6 -31l-46 -18l-143 -385q-44 -119 -89.5 -169t-112.5 -50q-41 0 -63 21t-22 53q0 29 16.5 45.5t45.5 16.5q26 0 40.5 -16t14.5 -40
q0 -21 -12 -37q30 1 63.5 44.5t52.5 104.5zM282 488l-116 94q-19 14 -20 36t22 39q22 16 44 9t32 -31l55 -133z" />
    <glyph glyph-name="Ytilde" unicode="&#x1ef8;" horiz-adv-x="565" 
d="M171 537l101 -186q13 -25 21 -46t9 -29l2 -9h4q6 27 37 83l101 182l-80 22l5 34h183l7 -31l-49 -25l-174 -312v-164l102 -21l-8 -35h-299l-8 35l102 21v164l-174 312l-49 25l7 31h228l6 -35zM309 655l-62 26q-15 7 -33 7q-44 -2 -50 -57l-20 3q-11 24 -11 43
q0 35 24.5 58.5t65.5 23.5q25 0 55 -12l61 -25q24 -8 39 -8q40 0 43 55l23 -4q10 -25 10 -46q0 -33 -22.5 -54.5t-59.5 -22.5q-30 0 -63 13z" />
    <glyph glyph-name="ytilde" unicode="&#x1ef9;" horiz-adv-x="471" 
d="M212 -25l-164 404l-44 29l7 28h204l7 -32l-64 -16l69 -178q12 -33 20 -64t10 -46l2 -14h4q14 59 36 125l57 173l-64 21l5 31h164l6 -31l-46 -18l-143 -385q-44 -119 -89.5 -169t-112.5 -50q-41 0 -63 21t-22 53q0 29 16.5 45.5t45.5 16.5q26 0 40.5 -16t14.5 -40
q0 -21 -12 -37q30 1 63.5 44.5t52.5 104.5zM258 512l-61 25q-15 7 -33 7q-43 0 -49 -56l-20 2q-10 28 -10 43q0 35 24 59t64 24q25 0 54 -12l61 -25q21 -9 37 -9q40 0 43 56l22 -4q10 -25 10 -46q0 -34 -22 -55.5t-58 -21.5q-33 0 -62 13z" />
    <glyph glyph-name="enspace" unicode="&#x2002;" horiz-adv-x="500" 
 />
    <glyph glyph-name="emspace" unicode="&#x2003;" horiz-adv-x="1000" 
 />
    <glyph glyph-name="threeperemspace" unicode="&#x2004;" horiz-adv-x="333" 
 />
    <glyph glyph-name="fourperemspace" unicode="&#x2005;" horiz-adv-x="250" 
 />
    <glyph glyph-name="sixperemspace" unicode="&#x2006;" horiz-adv-x="167" 
 />
    <glyph glyph-name="figurespace" unicode="&#x2007;" horiz-adv-x="570" 
 />
    <glyph glyph-name="punctuationspace" unicode="&#x2008;" horiz-adv-x="190" 
 />
    <glyph glyph-name="thinspace" unicode="&#x2009;" horiz-adv-x="100" 
 />
    <glyph glyph-name="hairspace" unicode="&#x200a;" horiz-adv-x="50" 
 />
    <glyph glyph-name="zerowidthspace" unicode="&#x200b;" horiz-adv-x="0" 
 />
    <glyph glyph-name="figuredash" unicode="&#x2012;" horiz-adv-x="590" 
d="M40 203v54h510v-54h-510z" />
    <glyph glyph-name="endash" unicode="&#x2013;" horiz-adv-x="500" 
d="M40 203v54h420v-54h-420z" />
    <glyph glyph-name="emdash" unicode="&#x2014;" horiz-adv-x="1000" 
d="M40 203v54h920v-54h-920z" />
    <glyph glyph-name="uni2015" unicode="&#x2015;" horiz-adv-x="1250" 
d="M40 203v54h1170v-54h-1170z" />
    <glyph glyph-name="doublebar" unicode="&#x2016;" horiz-adv-x="246" 
d="M45 -141v842h54v-842h-54zM147 -141v842h54v-842h-54z" />
    <glyph glyph-name="quoteleft" unicode="&#x2018;" horiz-adv-x="219" 
d="M85 476h7q7 31 40 31q28 0 42.5 -18.5t14.5 -46.5q0 -31 -20.5 -50t-52.5 -19q-40 0 -63 25t-23 69q0 64 47 115t118 69l9 -32q-58 -25 -88.5 -63.5t-30.5 -79.5z" />
    <glyph glyph-name="quoteright" unicode="&#x2019;" horiz-adv-x="219" 
d="M134 548h-7q-7 -31 -41 -31q-27 0 -42 18.5t-15 45.5q0 31 20.5 50.5t53.5 19.5q40 0 63 -25.5t23 -68.5q0 -64 -47 -115t-118 -69l-9 32q58 25 88.5 63.5t30.5 79.5z" />
    <glyph glyph-name="quotesinglbase" unicode="&#x201a;" horiz-adv-x="219" 
d="M134 31h-7q-7 -31 -41 -31q-27 0 -42 18t-15 46q0 31 21 50t53 19q40 0 63 -25.5t23 -68.5q0 -63 -47.5 -114t-117.5 -69l-9 32q58 25 88.5 63.5t30.5 79.5z" />
    <glyph glyph-name="quotedblleft" unicode="&#x201c;" horiz-adv-x="433" 
d="M85 476h7q7 31 40 31q28 0 42.5 -18.5t14.5 -46.5q0 -31 -20.5 -50t-52.5 -19q-40 0 -63 25t-23 69q0 64 47 115t118 69l9 -32q-58 -25 -88.5 -63.5t-30.5 -79.5zM299 476h7q7 31 40 31q28 0 42.5 -18.5t14.5 -46.5q0 -31 -20.5 -50t-52.5 -19q-40 0 -63 25t-23 69
q0 64 47 115t118 69l9 -32q-58 -25 -88.5 -63.5t-30.5 -79.5z" />
    <glyph glyph-name="quotedblright" unicode="&#x201d;" horiz-adv-x="433" 
d="M134 548h-7q-7 -31 -41 -31q-27 0 -42 18.5t-15 45.5q0 31 20.5 50.5t53.5 19.5q40 0 63 -25.5t23 -68.5q0 -64 -47 -115t-118 -69l-9 32q58 25 88.5 63.5t30.5 79.5zM348 548h-7q-7 -31 -41 -31q-27 0 -42 18.5t-15 45.5q0 31 20.5 50.5t53.5 19.5q40 0 63 -25.5
t23 -68.5q0 -64 -47 -115t-118 -69l-9 32q58 25 88.5 63.5t30.5 79.5z" />
    <glyph glyph-name="quotedblbase" unicode="&#x201e;" horiz-adv-x="433" 
d="M134 30h-7q-7 -31 -41 -31q-27 0 -42 18.5t-15 45.5q0 31 21 50t53 19q40 0 63 -25t23 -68q0 -64 -47 -115t-118 -69l-9 32q58 25 88.5 63.5t30.5 79.5zM348 30h-7q-7 -31 -41 -31q-27 0 -42 18.5t-15 45.5q0 31 21 50t53 19q40 0 63 -25t23 -68q0 -64 -47 -115t-118 -69
l-9 32q58 25 88.5 63.5t30.5 79.5z" />
    <glyph glyph-name="dagger" unicode="&#x2020;" horiz-adv-x="511" 
d="M234 341l-177 -29l-35 47l35 49l177 -28l-29 220l53 35l49 -35l-29 -220l176 28l35 -49l-35 -47l-176 29l29 -432l-51 -59l-51 59z" />
    <glyph glyph-name="daggerdbl" unicode="&#x2021;" horiz-adv-x="511" 
d="M234 142v199l-177 -29l-35 47l35 49l177 -28l-29 220l53 35l49 -35l-29 -220l176 28l35 -49l-35 -47l-176 29v-199l176 29l35 -47l-35 -49l-176 28l29 -220l-49 -35l-53 35l29 220l-177 -28l-35 49l35 47z" />
    <glyph glyph-name="bullet" unicode="&#x2022;" horiz-adv-x="287" 
d="M40 257q0 43 30 73.5t74 30.5q43 0 73 -30.5t30 -73.5t-30 -73t-73 -30t-73.5 30t-30.5 73z" />
    <glyph glyph-name="ellipsis" unicode="&#x2026;" horiz-adv-x="754" 
d="M52 65q0 31 21.5 52t51.5 21t52 -21t22 -52t-22 -52t-52 -21t-51.5 21t-21.5 52zM304 65q0 31 21.5 52t51.5 21t51.5 -21t21.5 -52t-21.5 -52t-51.5 -21t-51.5 21t-21.5 52zM555 65q0 31 21.5 52t51.5 21t52 -21t22 -52t-22 -52t-52 -21t-51.5 21t-21.5 52z" />
    <glyph glyph-name="perthousand" unicode="&#x2030;" horiz-adv-x="1296" 
d="M35 411q0 85 44.5 136t113.5 51q73 0 116 -48t43 -139q0 -84 -43.5 -134t-115.5 -50q-71 0 -114.5 48t-43.5 136zM133 411q0 -139 83 -139q38 0 61 38t23 101q0 58 -23.5 97t-63.5 39q-80 0 -80 -136zM208 -39l436 667h57l-437 -667h-56zM557 177q0 85 44.5 136t113.5 51
q73 0 116 -48t43 -139q0 -84 -43.5 -134t-115.5 -50q-71 0 -114.5 48t-43.5 136zM655 177q0 -139 83 -139q38 0 61 38t23 101q0 58 -23.5 97t-63.5 39q-80 0 -80 -136zM944 177q0 85 44.5 136t113.5 51q73 0 116 -48t43 -139q0 -84 -43.5 -134t-115.5 -50q-71 0 -114.5 48
t-43.5 136zM1042 177q0 -139 83 -139q38 0 61 38t23 101q0 58 -23.5 97t-63.5 39q-80 0 -80 -136z" />
    <glyph glyph-name="tripleprime" unicode="&#x2034;" horiz-adv-x="534" 
d="M115 379h-31l-45 218q0 24 17 40t43 16q27 0 44 -16t17 -40zM283 379h-31l-45 218q0 24 17 40t43 16q27 0 44 -16t17 -40zM451 379h-31l-45 218q0 24 17 40t43 16q27 0 44 -16t17 -40z" />
    <glyph glyph-name="guilsinglleft" unicode="&#x2039;" horiz-adv-x="270" 
d="M186 46l-156 173l156 174l54 -8l-111 -166l111 -166z" />
    <glyph glyph-name="guilsinglright" unicode="&#x203a;" horiz-adv-x="270" 
d="M240 219l-156 -173l-54 7l111 166l-111 166l54 8z" />
    <glyph glyph-name="fraction" unicode="&#x2044;" horiz-adv-x="135" 
d="M-179 -39l436 667h57l-437 -667h-56z" />
    <glyph glyph-name="uni2070" unicode="&#x2070;" horiz-adv-x="387" 
d="M35 411q0 85 44.5 136t113.5 51q73 0 116 -48t43 -139q0 -84 -43.5 -134t-115.5 -50q-71 0 -114.5 48t-43.5 136zM133 411q0 -139 83 -139q38 0 61 38t23 101q0 58 -23.5 97t-63.5 39q-80 0 -80 -136z" />
    <glyph glyph-name="uni2074" unicode="&#x2074;" horiz-adv-x="377" 
d="M283 355h71v-43h-71v-78h-89v78h-184v32l174 244h99v-233zM194 355v115l4 73h-4q-10 -27 -33 -61l-55 -81q-10 -15 -20.5 -26.5t-15.5 -15.5l-6 -4v-4q9 4 49 4h81z" />
    <glyph glyph-name="uni2075" unicode="&#x2075;" horiz-adv-x="319" 
d="M34 329l38 6q8 -66 70 -66q27 0 42 14t15 41q0 37 -30.5 55.5t-105.5 20.5l17 188h196v-71h-164l-5 -63q90 -3 136 -27.5t46 -89.5q0 -56 -39.5 -83.5t-100.5 -27.5q-58 0 -86.5 29t-28.5 74z" />
    <glyph glyph-name="uni2076" unicode="&#x2076;" horiz-adv-x="355" 
d="M130 431q-11 -33 -11 -74q0 -45 16.5 -70.5t43.5 -25.5q56 0 56 84q0 44 -20 66t-55 22q-14 0 -30 -2zM143 461q17 4 42 4q57 0 94 -31t37 -84q0 -57 -39.5 -90t-103.5 -33q-143 0 -143 138q0 92 75 158t209 75l6 -22q-76 -23 -116.5 -49t-60.5 -66z" />
    <glyph glyph-name="uni2077" unicode="&#x2077;" horiz-adv-x="343" 
d="M131 226l-50 18l155 263h-147l-48 -61l-17 5l16 137h295l4 -7z" />
    <glyph glyph-name="uni2078" unicode="&#x2078;" horiz-adv-x="374" 
d="M187 401q-27 0 -44 -17t-17 -54q0 -75 61 -75t61 75q0 37 -17.5 54t-43.5 17zM187 226q-73 0 -113 26.5t-40 72.5q0 34 22.5 56.5t62.5 29.5v5q-73 15 -73 86q0 44 36 70t105 26t105 -26t36 -70q0 -71 -73 -86v-5q40 -7 62.5 -29.5t22.5 -56.5q0 -46 -40 -72.5
t-113 -26.5zM187 566q-26 0 -42 -18t-16 -50t17.5 -49t40.5 -17t40 17t17 49t-15.5 50t-41.5 18z" />
    <glyph glyph-name="uni2079" unicode="&#x2079;" horiz-adv-x="348" 
d="M220 394q12 32 12 74q0 45 -16.5 70.5t-44.5 25.5q-55 0 -55 -84q0 -44 20 -66t54 -22q16 0 30 2zM208 364q-19 -4 -42 -4q-58 0 -95 29.5t-37 85.5t40 89.5t104 33.5q143 0 143 -143q0 -89 -75 -154.5t-210 -73.5l-5 22q75 23 115.5 49t61.5 66z" />
    <glyph glyph-name="uni207A" unicode="&#x207a;" horiz-adv-x="470" 
d="M48 447h160v155h51v-155h163v-49h-163v-169h-51v169h-160v49z" />
    <glyph glyph-name="uni207B" unicode="&#x207b;" horiz-adv-x="470" 
d="M423 397h-376v51h376v-51z" />
    <glyph glyph-name="uni207C" unicode="&#x207c;" horiz-adv-x="471" 
d="M424 337h-376v51h376v-51zM424 466h-376v51h376v-51z" />
    <glyph glyph-name="uni207D" unicode="&#x207d;" horiz-adv-x="237" 
d="M99 411q0 -71 23.5 -124t72.5 -115h-62q-90 108 -90 239t90 241h62q-48 -61 -72 -115t-24 -126z" />
    <glyph glyph-name="uni207E" unicode="&#x207e;" horiz-adv-x="237" 
d="M138 411q0 71 -23.5 125.5t-71.5 115.5h62q90 -112 90 -241q0 -128 -90 -239h-62q48 62 71.5 115t23.5 124z" />
    <glyph glyph-name="n.superior" unicode="&#x207f;" horiz-adv-x="440" 
d="M363 315l44 -14l-10 -20h-159v20l30 12v155q0 62 -52 62q-34 0 -59 -23v-192l44 -14l-10 -20h-159v20l30 12v195l-30 47v8l109 35h15l-3 -63h4q38 63 111 63q43 0 69 -26.5t26 -79.5v-177z" />
    <glyph glyph-name="uni2080" unicode="&#x2080;" horiz-adv-x="387" 
d="M35 177q0 85 44.5 136t113.5 51q73 0 116 -48t43 -139q0 -84 -43.5 -134t-115.5 -50q-71 0 -114.5 48t-43.5 136zM133 177q0 -139 83 -139q38 0 61 38t23 101q0 58 -23.5 97t-63.5 39q-80 0 -80 -136z" />
    <glyph glyph-name="uni2081" unicode="&#x2081;" horiz-adv-x="347" 
d="M233 354v-305l96 -17l-10 -32h-263l-10 32l99 17v222h-101l-8 25l178 68z" />
    <glyph glyph-name="uni2082" unicode="&#x2082;" horiz-adv-x="366" 
d="M126 67h189v-67h-276l-7 42q100 62 139 101.5t39 90.5q0 32 -17 50.5t-48 18.5q-59 0 -61 -62q0 -8 2 -28l-32 -9q-10 22 -10 47q-1 48 31 80.5t95 32.5q59 0 94.5 -31.5t35.5 -88.5q0 -27 -12 -52t-27.5 -41.5t-43 -34t-44.5 -26.5t-47 -23z" />
    <glyph glyph-name="uni2083" unicode="&#x2083;" horiz-adv-x="353" 
d="M34 95l39 6q6 -66 68 -66q31 0 50.5 14.5t19.5 43.5q0 70 -99 70l-5 26q51 11 69 24.5t18 43.5q0 52 -54 52q-52 0 -52 -50q0 -11 3 -18l-31 -6q-9 15 -9 38q0 37 29.5 64t89.5 27q56 0 87 -24t31 -69q0 -38 -26 -60t-66 -26v-4q107 -5 107 -86q0 -53 -42 -78t-105 -25
q-122 0 -122 103z" />
    <glyph glyph-name="uni2084" unicode="&#x2084;" horiz-adv-x="377" 
d="M283 121h71v-43h-71v-78h-89v78h-184v32l174 244h99v-233zM194 121v115l4 73h-4q-10 -27 -33 -61l-55 -81q-10 -15 -20.5 -26.5t-15.5 -15.5l-6 -4v-4q9 4 49 4h81z" />
    <glyph glyph-name="uni2085" unicode="&#x2085;" horiz-adv-x="319" 
d="M34 95l38 6q8 -66 70 -66q27 0 42 14t15 41q0 37 -30.5 55.5t-105.5 20.5l17 188h196v-71h-164l-5 -63q90 -3 136 -27.5t46 -89.5q0 -56 -39.5 -83.5t-100.5 -27.5q-58 0 -86.5 29t-28.5 74z" />
    <glyph glyph-name="uni2086" unicode="&#x2086;" horiz-adv-x="355" 
d="M130 197q-11 -33 -11 -74q0 -45 16.5 -70.5t43.5 -25.5q56 0 56 84q0 44 -20 66t-55 22q-14 0 -30 -2zM143 227q17 4 42 4q57 0 94 -31t37 -84q0 -57 -39.5 -90t-103.5 -33q-143 0 -143 138q0 92 75 158t209 75l6 -22q-76 -23 -116.5 -49t-60.5 -66z" />
    <glyph glyph-name="uni2087" unicode="&#x2087;" horiz-adv-x="343" 
d="M131 -8l-50 18l155 263h-147l-48 -61l-17 5l16 137h295l4 -7z" />
    <glyph glyph-name="uni2088" unicode="&#x2088;" horiz-adv-x="374" 
d="M187 167q-27 0 -44 -17t-17 -54q0 -75 61 -75t61 75q0 37 -17.5 54t-43.5 17zM187 -8q-73 0 -113 26.5t-40 72.5q0 34 22.5 56.5t62.5 29.5v5q-73 15 -73 86q0 44 36 70t105 26t105 -26t36 -70q0 -71 -73 -86v-5q40 -7 62.5 -29.5t22.5 -56.5q0 -46 -40 -72.5t-113 -26.5
zM187 332q-26 0 -42 -18t-16 -50t17.5 -49t40.5 -17t40 17t17 49t-15.5 50t-41.5 18z" />
    <glyph glyph-name="uni2089" unicode="&#x2089;" horiz-adv-x="348" 
d="M220 160q12 31 12 74q0 45 -16.5 70.5t-44.5 25.5q-55 0 -55 -84q0 -44 20 -66t54 -22q16 0 30 2zM208 130q-19 -4 -42 -4q-58 0 -95 29.5t-37 85.5t40 89.5t104 33.5q143 0 143 -143q0 -89 -75 -154.5t-210 -73.5l-5 22q75 23 115.5 49t61.5 66z" />
    <glyph glyph-name="uni208A" unicode="&#x208a;" horiz-adv-x="470" 
d="M48 213h160v155h51v-155h163v-49h-163v-169h-51v169h-160v49z" />
    <glyph glyph-name="uni208B" unicode="&#x208b;" horiz-adv-x="470" 
d="M423 163h-376v51h376v-51z" />
    <glyph glyph-name="uni208C" unicode="&#x208c;" horiz-adv-x="471" 
d="M424 103h-376v51h376v-51zM424 232h-376v51h376v-51z" />
    <glyph glyph-name="uni208D" unicode="&#x208d;" horiz-adv-x="237" 
d="M99 177q0 -71 23.5 -124t72.5 -115h-62q-90 108 -90 239t90 241h62q-48 -61 -72 -115t-24 -126z" />
    <glyph glyph-name="uni208E" unicode="&#x208e;" horiz-adv-x="237" 
d="M138 177q0 71 -23.5 125.5t-71.5 115.5h62q90 -112 90 -241q0 -128 -90 -239h-62q48 62 71.5 115t23.5 124z" />
    <glyph glyph-name="uni20A1" unicode="&#x20a1;" horiz-adv-x="551" 
d="M289 -110l19 100q-35 0 -69 8l-21 -108h-41l24 121q-72 31 -109.5 104.5t-37.5 178.5q0 128 72.5 210t189.5 92l20 101h41l-20 -99q39 -2 69 -12l22 111h41l-26 -131q30 -24 30 -62q0 -28 -15.5 -44.5t-39.5 -18.5l-75 -381q66 5 125 50l20 -25q-57 -82 -158 -93
l-20 -102h-41zM167 298q0 -124 54 -186l86 438q-65 -17 -102.5 -82t-37.5 -170zM256 81q30 -19 66 -22l77 390q-26 16 -26 49q0 36 28 48q-16 10 -49 10h-3z" />
    <glyph glyph-name="uni20A2" unicode="&#x20a2;" horiz-adv-x="567" 
d="M345 598q67 0 107.5 -24t40.5 -70q0 -29 -17 -46t-43 -17t-43 15.5t-17 41.5q0 36 28 48q-16 10 -49 10q-83 0 -134 -67t-51 -191q0 -180 105 -226v233l76 24h13l-2 -68h3q35 68 92 68q25 0 40.5 -16t15.5 -42q0 -22 -15 -36.5t-36 -14.5q-22 0 -35 14t-12 35
q-16 -8 -50 -51v-159q65 5 126 51l20 -25q-66 -95 -197 -95q-125 0 -191 81.5t-66 222.5q0 136 81.5 220t209.5 84z" />
    <glyph glyph-name="franc" unicode="&#x20a3;" horiz-adv-x="804" 
d="M554 49l88 -19l-13 -30h-225v28l44 17v250h-219v-238l105 -22l-8 -35h-270l-7 32l70 23v478l-70 23l7 32h433v-157l-21 -5l-74 113h-165v-195h184l123 50h17l-3 -97h4q54 98 132 98q33 0 53 -20t20 -54q0 -29 -19 -47.5t-43 -18.5q-29 0 -47 19t-16 48q-30 -12 -80 -73
v-200z" />
    <glyph glyph-name="lira" unicode="&#x20a4;" horiz-adv-x="619" 
d="M108 347v41h105q26 210 216 210q61 0 98.5 -25t37.5 -72q0 -29 -16 -45.5t-41 -16.5q-23 0 -39 14t-16 37q0 20 12.5 33.5t29.5 15.5q-15 22 -66 22q-46 0 -64.5 -30t-31.5 -101l-7 -42h157v-41h-164l-13 -77h150v-41h-157l-7 -41q-6 -33 -15 -63q110 -45 155 -45
q48 0 71 17.5t27 66.5l24 4q9 -22 9 -49q0 -66 -34.5 -97.5t-95.5 -31.5q-35 0 -71.5 13.5t-55.5 25.5l-56 37q-47 -76 -132 -76q-46 0 -69.5 23t-23.5 59q0 42 27 66.5t73 24.5q23 0 56 -7l10 73h-110v41h115l11 77h-99zM114 33q50 0 61 78q-29 12 -52 12q-24 0 -37 -13.5
t-13 -34.5q0 -42 41 -42z" />
    <glyph glyph-name="uni20A6" unicode="&#x20a6;" horiz-adv-x="772" 
d="M65 335v41h90v157l-70 23l8 32h175l149 -212h139v157l-75 23l7 32h191l8 -32l-70 -23v-157h90v-41h-90v-79h90v-41h-90v-215h-63l-156 215h-180v-160l75 -23l-8 -32h-192l-8 32l70 23v160h-90v41h90v79h-90zM218 344v-88h150l-82 113q-17 24 -34.5 54.5t-26.5 48.5l-9 18
h-4q6 -72 6 -146zM561 151q-5 71 -5 142v42h-110l45 -63q17 -24 33.5 -54.5t24.5 -48.5l8 -18h4z" />
    <glyph glyph-name="peseta" unicode="&#x20a7;" horiz-adv-x="1271" 
d="M589 387h-77q-8 -88 -73.5 -127.5t-155.5 -39.5h-54v-163l105 -22l-8 -35h-270l-7 32l70 23v478l-70 23l7 32h227q95 0 157 -36t71 -116h65l94 118h25v-118h126l-7 -49h-119v-238q0 -100 77 -100q30 0 54.5 20t31.5 69h38q8 -49 44 -73.5t79 -24.5q77 0 77 52
q0 26 -15 41t-51 27l-60 20q-103 34 -103 134q0 65 41.5 98.5t109.5 33.5q50 0 86 -19l51 18l6 -129l-22 -7q-33 50 -62 71.5t-64 21.5q-29 0 -45.5 -14.5t-16.5 -39.5q0 -47 60 -68l63 -21q57 -19 84.5 -51t27.5 -87q0 -66 -44 -98.5t-120 -32.5q-50 0 -89 17.5t-57 48.5
q-37 -66 -139 -66q-148 0 -148 146v251zM229 542v-276h35q71 0 103 32t32 110q0 70 -33.5 102t-101.5 32h-35z" />
    <glyph glyph-name="uni20A8" unicode="&#x20a8;" horiz-adv-x="975" 
d="M229 542v-235h56q57 0 87 26.5t30 93.5q0 115 -117 115h-56zM300 32l-8 -32h-236l-7 32l70 23v478l-70 23l7 32h254q93 0 150.5 -38.5t57.5 -122.5q0 -70 -48 -108.5t-115 -42.5v-4q66 -13 127 -84q70 -80 119 -115t112 -35q87 0 87 54q0 26 -16 41t-53 27l-60 20
q-102 33 -102 134q0 65 41 98.5t109 33.5q50 0 86 -19l51 18l6 -129l-22 -7q-33 50 -62 71.5t-63 21.5q-30 0 -46.5 -14.5t-16.5 -39.5q0 -47 60 -68l64 -21q57 -19 84.5 -51t27.5 -87q0 -131 -193 -131q-192 0 -288 119l-86 108q-19 24 -39 35.5t-53 11.5v-209z" />
    <glyph glyph-name="uni20A9" unicode="&#x20a9;" horiz-adv-x="890" 
d="M557 0l-85 328q-8 30 -13.5 64t-6.5 53l-2 19h-4q-7 -71 -25 -137l-87 -327h-103l-65 257h-109v41h99l-18 69h-81v41h71l-31 123l-50 26l7 31h228l6 -35l-74 -16l28 -129h138l45 180h87l46 -180h140l30 124l-81 22l5 34h183l7 -31l-49 -25l-31 -124h70v-41h-81l-17 -69
h98v-41h-109l-64 -257h-102zM251 367l16 -69h86l17 69h-119zM569 367l18 -69h84l17 69h-119zM307 92q11 63 28 133l8 32h-67l7 -32q6 -29 11 -62t7 -52l2 -19h4zM632 92q4 63 22 134l7 31h-64l9 -32q8 -30 13.5 -63.5t6.5 -51.5l2 -18h4z" />
    <glyph glyph-name="uni20AA" unicode="&#x20aa;" horiz-adv-x="740" 
d="M463 125h-61v321q0 50 -22 70t-76 20h-80v-536h-169l-6 31l69 24v478l-69 24l6 31h266q82 0 112 -36.5t30 -106.5v-320zM521 588h170l8 -31l-72 -24v-368q0 -82 -34 -123.5t-125 -41.5h-186v461h62v-412h100q42 0 59.5 22.5t17.5 69.5v447z" />
    <glyph glyph-name="Euro" unicode="&#x20ac;" horiz-adv-x="607" 
d="M385 598q77 0 121.5 -28t44.5 -75q0 -29 -16 -45.5t-43 -16.5q-25 0 -42 14.5t-17 38.5q0 39 33 50q-33 18 -78 18q-62 0 -101.5 -45.5t-52.5 -132.5h208v-41h-212q-1 -14 -1 -42q0 -26 1 -37h213v-41h-208q14 -82 55 -121.5t99 -39.5q89 0 158 58l22 -31
q-66 -91 -199 -91q-104 0 -170.5 58t-83.5 167h-73v41h68q-1 12 -1 37q0 14 2 42h-70v41h75q21 107 92 164.5t176 57.5z" />
    <glyph glyph-name="uni20AE" unicode="&#x20ae;" horiz-adv-x="609" 
d="M145 280v45l104 32v183h-103l-78 -114l-21 5v157h515v-157l-21 -5l-78 114h-103v-148l104 33v-45l-104 -33v-73l104 33v-44l-104 -33v-174l102 -21l-8 -35h-299l-8 35l102 21v139l-104 -32v44l104 32v73z" />
    <glyph glyph-name="uni20B1" unicode="&#x20b1;" horiz-adv-x="667" 
d="M55 368v41h91v124l-70 23l8 32h226q102 0 165.5 -42.5t64.5 -136.5h83v-41h-87q-14 -78 -77 -113t-149 -35h-53v-163l104 -22l-8 -35h-269l-8 32l70 23v313h-91zM257 542v-133h169q-1 69 -34 101t-101 32h-34zM291 266q61 0 93 23.5t39 78.5h-166v-102h34z" />
    <glyph glyph-name="afii61289" unicode="&#x2113;" horiz-adv-x="415" 
d="M10 329q51 15 88 28l32 177q28 151 159 151q116 0 116 -106q0 -137 -199 -223l-54 -301q60 0 102 15.5t91 54.5l17 -17q-33 -53 -94.5 -85.5t-133.5 -32.5q-103 0 -82 109l39 218q-40 -11 -74 -17zM243 563l-28 -155q129 70 129 167q0 60 -47 60q-41 0 -54 -72z" />
    <glyph glyph-name="afii61352" unicode="&#x2116;" horiz-adv-x="1086" 
d="M566 502v-502h-63l-267 369q-18 24 -35.5 54.5t-26.5 48.5l-8 18h-4q5 -72 5 -146v-289l76 -23l-8 -32h-193l-7 32l69 23v478l-69 23l7 32h175l223 -316q17 -24 34 -54.5t25 -48.5l8 -18h4q-6 71 -6 142v192q0 143 120 143q43 0 66.5 -21t23.5 -56q0 -31 -17 -47.5
t-45 -16.5q-26 0 -41.5 13.5t-15.5 37.5q0 25 16 37v4q-46 -1 -46 -77zM696 0l-10 46h318l-10 -46h-298zM846 454q72 0 116 -43t44 -126t-44.5 -125t-117.5 -42q-160 0 -160 167q0 81 44.5 125t117.5 44zM845 150q65 0 65 135t-65 135q-67 0 -67 -135t67 -135z" />
    <glyph glyph-name="published" unicode="&#x2117;" horiz-adv-x="685" 
d="M36 294q0 132 89 219.5t217 87.5t217.5 -87.5t89.5 -219.5t-89.5 -219t-217.5 -87t-217 87t-89 219zM67 294q0 -120 80 -199t196 -79t196 79t80 199t-80 199t-196 79t-196 -79t-80 -199zM340 251h-20v-80l49 -14l-5 -22h-160l-5 22l46 14v256l-46 15l5 21h149
q72 0 110.5 -22.5t38.5 -80.5q0 -63 -42 -86t-120 -23zM320 433v-153h19q43 0 62.5 17t19.5 61q0 41 -19.5 58t-58.5 17h-23z" />
    <glyph glyph-name="servicemark" unicode="&#x2120;" horiz-adv-x="685" 
d="M545 588h116l4 -22l-34 -11v-223l34 -11l-4 -22h-130l-3 22l34 11v200l-90 -233h-34l-93 233v-200l39 -11l-5 -22h-103l-4 22l35 11v223l-35 11l4 22h122l74 -198zM20 392l19 5q30 -44 50 -59t47 -15q47 0 47 38q0 33 -50 48l-41 13q-68 21 -68 84q0 42 28.5 64.5
t71.5 22.5q42 0 65 -12l36 11l4 -84l-17 -5q-30 36 -47.5 48.5t-40.5 12.5q-17 0 -27.5 -9t-10.5 -25q0 -29 35 -41l53 -17q73 -24 73 -87q0 -45 -31 -67t-84 -22q-37 0 -73 15l-32 -15z" />
    <glyph glyph-name="trademark" unicode="&#x2122;" horiz-adv-x="748" 
d="M69 322l50 11v221h-51l-27 -57l-21 2v89h269v-89l-20 -2l-28 57h-51v-221l50 -11l-4 -23h-163zM588 588h116l4 -22l-34 -11v-223l34 -11l-4 -22h-130l-3 22l34 11v200l-90 -233h-34l-93 233v-200l39 -11l-5 -22h-103l-4 22l35 11v223l-35 11l4 22h122l74 -198z" />
    <glyph glyph-name="ohm" unicode="&#x2126;" horiz-adv-x="726" 
d="M363 551q-87 0 -121 -56t-34 -160q0 -205 123 -311l-8 -24h-274l-20 152l23 7l50 -69h126v4q-141 80 -141 249q0 110 74.5 182.5t201.5 72.5t202 -72.5t75 -182.5q0 -169 -142 -249v-4h126l50 69l24 -7l-21 -152h-274l-8 24q124 105 124 311q0 104 -34.5 160t-121.5 56z
" />
    <glyph glyph-name="estimated" unicode="&#x212e;" horiz-adv-x="647" 
d="M323 599q71 0 126 -25.5t87.5 -69.5t49 -97t16.5 -113v-26h-431v-167q60 -58 152 -58q129 0 184 102h66q-30 -71 -93 -113t-157 -42q-136 0 -207 89t-71 215q0 60 16.5 113t49 97t87.5 69.5t125 25.5zM323 546q-94 0 -152 -58v-168h304v168q-58 58 -152 58z" />
    <glyph glyph-name="uni2153" unicode="&#x2153;" horiz-adv-x="885" 
d="M233 588v-305l96 -17l-10 -32h-263l-10 32l99 17v222h-101l-8 25l178 68zM218 -39l436 667h56l-436 -667h-56zM565 95l40 6q6 -66 68 -66q31 0 50.5 14.5t19.5 43.5q0 70 -99 70l-5 26q51 11 68.5 24.5t17.5 43.5q0 52 -53 52q-52 0 -52 -50q0 -8 2 -18l-30 -6
q-10 17 -10 38q0 37 30 64t90 27q56 0 87 -24t31 -69q0 -38 -26 -60t-66 -26v-4q106 -5 106 -86q0 -53 -41.5 -78t-104.5 -25q-123 0 -123 103z" />
    <glyph glyph-name="uni2154" unicode="&#x2154;" horiz-adv-x="854" 
d="M131 301h184v-67h-276l-7 42q100 62 139 101.5t39 90.5q0 32 -17 50.5t-48 18.5q-59 0 -61 -62q0 -8 2 -28l-32 -9q-10 22 -10 47q-1 48 31 80.5t95 32.5q59 0 94.5 -31.5t35.5 -88.5q0 -34 -14.5 -61.5t-44.5 -49.5t-50.5 -33t-59.5 -29v-4zM187 -39l436 667h57
l-437 -667h-56zM535 95l39 6q6 -66 68 -66q31 0 50.5 14.5t19.5 43.5q0 70 -99 70l-5 26q51 11 69 24.5t18 43.5q0 52 -54 52q-52 0 -52 -50q0 -11 3 -18l-31 -6q-9 15 -9 38q0 37 29.5 64t89.5 27q56 0 87 -24t31 -69q0 -38 -26 -60t-66 -26v-4q107 -5 107 -86
q0 -53 -42 -78t-105 -25q-122 0 -122 103z" />
    <glyph glyph-name="uni215B" unicode="&#x215b;" horiz-adv-x="906" 
d="M233 588v-305l96 -17l-10 -32h-263l-10 32l99 17v222h-101l-8 25l178 68zM218 -39l436 667h56l-436 -667h-56zM719 167q-27 0 -44.5 -17t-17.5 -54q0 -75 62 -75q61 0 61 75q0 37 -17.5 54t-43.5 17zM719 -8q-74 0 -114 26.5t-40 72.5q0 34 23 56.5t63 29.5v5
q-73 15 -73 86q0 44 36 70t105 26t104.5 -26t35.5 -70q0 -71 -72 -86v-5q40 -7 62.5 -29.5t22.5 -56.5q0 -46 -40 -72.5t-113 -26.5zM719 332q-27 0 -42.5 -18t-15.5 -50t17 -49t41 -17q23 0 40 17t17 49t-15.5 50t-41.5 18z" />
    <glyph glyph-name="uni215C" unicode="&#x215c;" horiz-adv-x="862" 
d="M34 329l39 7q6 -67 68 -67q31 0 50.5 14.5t19.5 43.5q0 70 -99 70l-5 26q51 11 69 24.5t18 43.5q0 52 -54 52q-52 0 -52 -50q0 -11 3 -18l-31 -6q-9 15 -9 38q0 37 29.5 64t89.5 27q56 0 87 -24t31 -69q0 -38 -26 -60t-66 -26v-4q107 -5 107 -86q0 -53 -42 -78t-105 -25
q-122 0 -122 103zM174 -39l437 667h56l-437 -667h-56zM675 167q-27 0 -44 -17t-17 -54q0 -75 61 -75t61 75q0 37 -17.5 54t-43.5 17zM675 -8q-73 0 -113 26.5t-40 72.5q0 34 22.5 56.5t62.5 29.5v5q-73 15 -73 86q0 44 36 70t105 26t105 -26t36 -70q0 -71 -73 -86v-5
q40 -7 62.5 -29.5t22.5 -56.5q0 -46 -40 -72.5t-113 -26.5zM675 332q-26 0 -41.5 -18t-15.5 -50t17 -49t40 -17t40.5 17t17.5 49t-16 50t-42 18z" />
    <glyph glyph-name="uni215D" unicode="&#x215d;" horiz-adv-x="828" 
d="M34 329l38 6q8 -66 70 -66q27 0 42 14t15 41q0 37 -30.5 55.5t-105.5 20.5l17 188h196v-71h-164l-5 -63q90 -3 136 -27.5t46 -89.5q0 -56 -39.5 -83.5t-100.5 -27.5q-58 0 -86.5 29t-28.5 74zM140 -39l437 667h56l-437 -667h-56zM641 167q-27 0 -44 -17t-17 -54
q0 -75 61 -75t61 75q0 37 -17.5 54t-43.5 17zM641 -8q-73 0 -113 26.5t-40 72.5q0 34 22.5 56.5t62.5 29.5v5q-73 15 -73 86q0 44 36 70t105 26t105 -26t36 -70q0 -71 -73 -86v-5q40 -7 62.5 -29.5t22.5 -56.5q0 -46 -40 -72.5t-113 -26.5zM641 332q-26 0 -41.5 -18
t-15.5 -50t17 -49t40 -17t40.5 17t17.5 49t-16 50t-42 18z" />
    <glyph glyph-name="uni215E" unicode="&#x215e;" horiz-adv-x="782" 
d="M131 226l-50 18l155 263h-147l-48 -61l-17 5l16 137h295l4 -7zM95 -39l436 667h56l-436 -667h-56zM595 167q-27 0 -44 -17t-17 -54q0 -75 61 -75q62 0 62 75q0 37 -17.5 54t-44.5 17zM595 -8q-73 0 -113 26.5t-40 72.5q0 34 22.5 56.5t62.5 29.5v5q-72 15 -72 86
q0 44 35.5 70t104.5 26t105 -26t36 -70q0 -71 -73 -86v-5q40 -7 63 -29.5t23 -56.5q0 -46 -40 -72.5t-114 -26.5zM595 332q-26 0 -41.5 -18t-15.5 -50t17 -49t40 -17q24 0 41 17t17 49t-15.5 50t-42.5 18z" />
    <glyph glyph-name="arrowleft" unicode="&#x2190;" horiz-adv-x="704" 
d="M265 197l170 -179v-16l-60 -15l-325 289v35l325 288l60 -14v-17l-170 -179q-19 -20 -38 -36.5t-28 -22.5l-9 -6v-4q20 3 79 3h380v-60h-380l-79 4v-4q32 -21 75 -66z" />
    <glyph glyph-name="arrowup" unicode="&#x2191;" horiz-adv-x="706" 
d="M257 384l-179 -171h-16l-15 60l289 326h35l288 -326l-14 -60h-17l-179 171q-20 19 -36.5 37.5t-22.5 27.5l-6 9h-4q3 -19 3 -79v-379h-60v379l4 79h-4q-21 -32 -66 -74z" />
    <glyph glyph-name="arrowright" unicode="&#x2192;" horiz-adv-x="704" 
d="M253 18l171 179q19 20 37.5 36.5t27.5 22.5l9 7v4q-19 -4 -79 -4h-379v60h379l79 -3v4q-32 20 -74 65l-171 179v17l60 14l326 -288v-35l-326 -289l-60 15v16z" />
    <glyph glyph-name="arrowdown" unicode="&#x2193;" horiz-adv-x="706" 
d="M78 376l179 -171q20 -19 36.5 -38t22.5 -28l7 -9h4q-4 20 -4 80v379h60v-379l-3 -80h4q20 32 65 75l179 171h17l14 -60l-288 -326h-35l-289 326l15 60h16z" />
    <glyph glyph-name="uni2196" unicode="&#x2196;" horiz-adv-x="704" 
d="M194 322l-6 -247l-12 -12l-52 32l-27 434l25 25l434 -26l33 -53l-12 -12l-247 -5q-28 -1 -53 0.5t-36 3.5l-11 2l-2 -3q16 -12 58 -53l321 -320l-43 -43l-320 320q-54 53 -54 57l-2 -2q1 -4 2 -11.5t2.5 -33t1.5 -53.5z" />
    <glyph glyph-name="uni2197" unicode="&#x2197;" horiz-adv-x="704" 
d="M516 75l-6 247q0 28 1.5 52.5t2.5 35.5l2 10l-2 3q-11 -16 -54 -58l-320 -320l-43 43l321 320l58 53l-2 3q-4 -1 -12 -2t-34 -3t-54 -1l-247 5l-12 12l33 53l434 26l25 -25l-27 -434l-52 -32z" />
    <glyph glyph-name="uni2198" unicode="&#x2198;" horiz-adv-x="704" 
d="M510 277l6 247l12 12l52 -33l27 -434l-25 -24l-434 26l-33 53l12 12l247 5q28 1 53 -0.5t36 -3.5l11 -2l2 3q-16 11 -58 53l-321 320l43 43l320 -320q19 -19 32.5 -34t17.5 -20l4 -5l2 3q-1 4 -2 11.5t-2.5 33.5t-1.5 54z" />
    <glyph glyph-name="uni2199" unicode="&#x2199;" horiz-adv-x="704" 
d="M188 524l6 -247q0 -28 -1.5 -52.5t-2.5 -35.5l-2 -11l2 -3q11 16 54 59l320 320l43 -43l-321 -320q-19 -19 -33.5 -32t-19.5 -17l-5 -4l2 -3q4 1 12 2t34 3t54 1l247 -5l12 -12l-33 -53l-434 -26l-25 24l27 434l52 33z" />
    <glyph glyph-name="partialdiff" unicode="&#x2202;" horiz-adv-x="505" 
d="M245 446q63 0 112 -39q-6 92 -45 150.5t-106 58.5q-44 0 -70.5 -11.5t-58.5 -40.5l-19 17q18 47 63.5 74.5t107.5 27.5q239 0 239 -411q0 -152 -55.5 -217t-157.5 -65q-105 0 -161.5 56t-56.5 171q0 109 59 169t149 60zM255 30q101 0 101 187q0 90 -26 138t-75 48
q-103 0 -103 -186q0 -187 103 -187z" />
    <glyph glyph-name="increment" unicode="&#x2206;" horiz-adv-x="571" 
d="M113 50h290l-118 340q-10 29 -17.5 59t-10.5 45l-3 15h-4q-10 -55 -30 -118zM523 0h-475l-11 16l192 572h96l209 -572z" />
    <glyph glyph-name="product" unicode="&#x220f;" horiz-adv-x="692" 
d="M475 540h-260v-585l72 -23l-8 -32h-237l-7 32l70 23v578l-70 23l7 32h607l8 -32l-72 -23v-578l72 -23l-8 -32h-237l-7 32l70 23v585z" />
    <glyph glyph-name="summation" unicode="&#x2211;" horiz-adv-x="504" 
d="M340 275v-10l-205 -279h243l72 114l26 -6l-20 -194h-436v19l222 314l-222 337v18h427v-157l-21 -5l-78 113h-177z" />
    <glyph glyph-name="minus" unicode="&#x2212;" horiz-adv-x="496" 
d="M441 219h-386v51h386v-51z" />
    <glyph glyph-name="radical" unicode="&#x221a;" horiz-adv-x="499" 
d="M173 498h12l119 -318h4l152 558h49l-203 -748h-17l-185 421l-67 -34l-17 35z" />
    <glyph glyph-name="infinity" unicode="&#x221e;" horiz-adv-x="878" 
d="M519 102l-93 72q-94 -127 -217 -127q-76 0 -128 41.5t-52 130.5q0 92 54.5 140.5t129.5 48.5q43 0 74 -13t67 -42l93 -73q95 128 218 128q75 0 127 -41.5t52 -130.5q0 -92 -54 -140.5t-129 -48.5q-43 0 -74 13t-68 42zM659 357q-87 0 -177 -104l112 -87q44 -35 88 -35
q43 0 70.5 30t27.5 79q0 57 -34 87t-87 30zM214 98q86 0 177 103l-112 88q-43 34 -87 34q-43 0 -70.5 -29.5t-27.5 -78.5q0 -57 33.5 -87t86.5 -30z" />
    <glyph glyph-name="integral" unicode="&#x222b;" horiz-adv-x="376" 
d="M158 -25v575q0 86 40.5 131.5t113.5 45.5q104 0 104 -75q0 -26 -16.5 -43.5t-41.5 -17.5t-41 15t-16 40q0 35 22 50q-37 0 -48 -20t-11 -73v-593q0 -170 -170 -170q-38 0 -61 16t-23 48q0 26 16.5 41.5t42.5 15.5q25 0 38.5 -15.5t13.5 -40.5q0 -21 -10 -34q47 0 47 104z
" />
    <glyph glyph-name="approxequal" unicode="&#x2248;" horiz-adv-x="496" 
d="M354 248q-34 0 -104.5 22.5t-102.5 22.5q-51 0 -92 -45v55q33 41 91 41q34 0 105 -22t104 -22q47 0 86 43v-62q-31 -33 -87 -33zM354 136q-34 0 -104.5 22.5t-102.5 22.5q-51 0 -92 -45v55q34 41 91 41q34 0 105 -22t104 -22q47 0 86 42v-61q-31 -33 -87 -33z" />
    <glyph glyph-name="notequal" unicode="&#x2260;" horiz-adv-x="496" 
d="M441 280h-120l-62 -74h182v-52h-223l-96 -117l-40 33l69 84h-96v52h138l60 74h-198v51h240l87 106l41 -32l-61 -74h79v-51z" />
    <glyph glyph-name="lessequal" unicode="&#x2264;" horiz-adv-x="410" 
d="M341 422l-189 -136l190 -137l-38 -45l-244 182l246 180zM355 29h-300v53h300v-53z" />
    <glyph glyph-name="greaterequal" unicode="&#x2265;" horiz-adv-x="410" 
d="M258 286l-189 136l36 44l245 -180l-244 -182l-37 45zM355 29h-300v53h300v-53z" />
    <glyph glyph-name="triagup" unicode="&#x25b2;" horiz-adv-x="668" 
d="M334 139l-277 -86l-27 19l304 506l304 -506l-27 -19z" />
    <glyph glyph-name="triagrt" unicode="&#x25ba;" horiz-adv-x="595" 
d="M40 17l86 277l-86 277l19 27l506 -304l-506 -304z" />
    <glyph glyph-name="triagdn" unicode="&#x25bc;" horiz-adv-x="668" 
d="M57 548l277 -86l277 86l27 -19l-304 -506l-304 506z" />
    <glyph glyph-name="triaglf" unicode="&#x25c4;" horiz-adv-x="595" 
d="M469 294l86 -277l-19 -27l-506 304l506 304l19 -27z" />
    <glyph glyph-name="lozenge" unicode="&#x25ca;" horiz-adv-x="496" 
d="M476 328l-191 -365h-75l-190 365l190 355h75zM392 327l-144 280l-144 -280l144 -290z" />
    <glyph glyph-name="uni25E2" unicode="&#x25e2;" horiz-adv-x="732" 
d="M342 316l135 257l32 6l143 -573l-572 143l5 32z" />
    <glyph glyph-name="uni25E3" unicode="&#x25e3;" horiz-adv-x="732" 
d="M255 573l135 -257l257 -135l5 -32l-572 -143l143 573z" />
    <glyph glyph-name="uni25E4" unicode="&#x25e4;" horiz-adv-x="732" 
d="M390 269l-135 -257l-32 -6l-143 573l572 -143l-5 -32z" />
    <glyph glyph-name="uni25E5" unicode="&#x25e5;" horiz-adv-x="732" 
d="M477 12l-135 257l-257 135l-5 32l572 143l-143 -573z" />
    <glyph glyph-name="anglebracketleft" unicode="&#x3008;" horiz-adv-x="343" 
d="M251 -141l-191 419l191 421h52l-150 -421l150 -419h-52z" />
    <glyph glyph-name="anglebracketright" unicode="&#x3009;" horiz-adv-x="343" 
d="M283 278l-191 -419h-52l150 419l-150 421h52z" />
    <glyph glyph-name="lcedilla" unicode="&#xe100;" horiz-adv-x="265" 
d="M31 -182l17 22q26 -22 60 -22q46 0 46 37q0 19 -13.5 31.5t-24.5 16.5t-38 11l31 86h-75v28l44 17v533l-53 50v11l141 42h18v-633l66 -19l-13 -29h-93l-16 -42q42 -7 74 -28t32 -61q0 -87 -115 -87q-60 0 -88 36z" />
    <glyph glyph-name="uni004500600323" unicode="&#xe101;" horiz-adv-x="524" 
d="M310 274h-94v-209l39 -17h128l87 140l26 -6l-20 -182h-433l-8 32l70 23v478l-70 23l8 32h424v-157l-21 -5l-78 113h-152v-217h93l41 86l22 -4v-214l-21 -4zM337 698l-132 -72l-14 19l91 119q15 20 35.5 22.5t38.5 -16.5q17 -22 10 -41.5t-29 -30.5zM199 -128
q0 29 19 47.5t47 18.5q29 0 48.5 -18.5t19.5 -47.5q0 -28 -19.5 -46.5t-48.5 -18.5q-27 0 -46.5 19t-19.5 46z" />
    <glyph glyph-name="uni006500600323" unicode="&#xe102;" horiz-adv-x="440" 
d="M173 -128q0 29 19 47.5t47 18.5q29 0 48 -18.5t19 -47.5q0 -28 -19 -46.5t-48 -18.5q-27 0 -46.5 19t-19.5 46zM140 233q0 -79 34.5 -124.5t96.5 -45.5t118 40l15 -23q-49 -90 -170 -90q-86 0 -141.5 58t-55.5 165q0 108 61.5 170.5t151.5 62.5q72 0 116 -41.5t44 -117.5
q0 -30 -5 -54h-265zM240 402q-37 0 -63 -31.5t-35 -93.5h166q2 16 2 31q0 94 -70 94zM319 582l-116 -94l-17 14l55 133q11 24 32.5 30.5t43.5 -8.5q23 -17 22 -39t-20 -36z" />
    <glyph glyph-name="uni004500B40323" unicode="&#xe103;" horiz-adv-x="524" 
d="M310 274h-94v-209l39 -17h128l87 140l26 -6l-20 -182h-433l-8 32l70 23v478l-70 23l8 32h424v-157l-21 -5l-78 113h-152v-217h93l41 86l22 -4v-214l-21 -4zM334 617l-132 72q-22 11 -28.5 30.5t9.5 41.5q19 19 39 16.5t36 -22.5l90 -119zM199 -128q0 29 19 47.5t47 18.5
q29 0 48.5 -18.5t19.5 -47.5q0 -28 -19.5 -46.5t-48.5 -18.5q-27 0 -46.5 19t-19.5 46z" />
    <glyph glyph-name="uni006500B40323" unicode="&#xe104;" horiz-adv-x="440" 
d="M173 -128q0 29 19 47.5t47 18.5q29 0 48 -18.5t19 -47.5q0 -28 -19 -46.5t-48 -18.5q-27 0 -46.5 19t-19.5 46zM140 233q0 -79 34.5 -124.5t96.5 -45.5t118 40l15 -23q-49 -90 -170 -90q-86 0 -141.5 58t-55.5 165q0 108 61.5 170.5t151.5 62.5q72 0 116 -41.5t44 -117.5
q0 -30 -5 -54h-265zM240 402q-37 0 -63 -31.5t-35 -93.5h166q2 16 2 31q0 94 -70 94zM278 488l-117 94q-19 14 -19.5 36t22.5 39q22 15 43.5 8.5t31.5 -30.5l55 -133z" />
    <glyph glyph-name="Gtilde" unicode="&#xe105;" horiz-adv-x="609" 
d="M162 293q0 -127 40.5 -191t112.5 -64q59 0 107 27v159l-69 23l7 32h219l8 -32l-58 -23v-234h-21l-48 43q-66 -43 -151 -43q-116 0 -193 78t-77 225t80 226t206 79q54 0 124 -19l59 19v-167l-21 -5l-41 57q-27 39 -54 55t-65 16q-77 0 -121 -65t-44 -196zM328 655l-61 26
q-17 7 -33 7q-44 -2 -50 -57l-21 3q-10 22 -10 43q0 35 24.5 58.5t65.5 23.5q25 0 55 -12l61 -25q24 -8 38 -8q40 0 44 55l23 -4q9 -23 9 -46q0 -33 -22 -54.5t-59 -22.5q-29 0 -64 13z" />
    <glyph glyph-name="gtilde" unicode="&#xe106;" horiz-adv-x="470" 
d="M168 76h149q68 0 107 -34t39 -99q0 -83 -68.5 -123.5t-174.5 -40.5q-200 0 -200 110q0 77 107 101v4q-38 4 -59 26.5t-21 57.5q0 70 88 88q-88 33 -88 125q0 67 47 111t133 44q83 0 158 -36q-6 10 -6 24q0 23 14.5 36.5t36.5 13.5q24 0 37.5 -15t13.5 -39
q0 -26 -15.5 -40.5t-43.5 -14.5q-30 0 -79 20v-9q25 -13 41.5 -38.5t16.5 -57.5q0 -68 -52 -103.5t-122 -35.5q-33 0 -57 7q-42 -19 -42 -48q0 -34 40 -34zM162 -21q-45 -23 -45 -77q0 -81 109 -81q146 0 146 94q0 64 -80 64h-130zM294 296q0 53 -14.5 78.5t-55.5 25.5
q-40 0 -54.5 -25.5t-14.5 -78.5t14.5 -78.5t54.5 -25.5q41 0 55.5 25.5t14.5 78.5zM268 512l-60 25q-17 7 -33 7q-43 0 -49 -56l-20 2q-11 26 -11 43q0 35 24 59t64 24q25 0 54 -12l61 -25q21 -9 37 -9q40 0 43 56l23 -4q9 -27 9 -46q0 -34 -22 -55.5t-58 -21.5
q-32 0 -62 13z" />
    <glyph glyph-name="Gcommaturnedabove" unicode="&#xe107;" horiz-adv-x="609" 
d="M162 293q0 -127 40.5 -191t112.5 -64q59 0 107 27v159l-69 23l7 32h219l8 -32l-58 -23v-234h-21l-48 43q-66 -43 -151 -43q-116 0 -193 78t-77 225t80 226t206 79q54 0 124 -19l59 19v-167l-21 -5l-41 57q-27 39 -54 55t-65 16q-77 0 -121 -65t-44 -196zM281 723h6
q7 25 34 25q26 0 39.5 -16t13.5 -40q0 -27 -18.5 -44.5t-45.5 -17.5q-37 0 -58.5 22.5t-21.5 59.5q0 50 29 76t77 26q15 0 27 -2l8 -22q-90 -8 -90 -67z" />
    <glyph glyph-name="gcommaturnedabove" unicode="&#xe108;" horiz-adv-x="470" 
d="M168 76h149q68 0 107 -34t39 -99q0 -83 -68.5 -123.5t-174.5 -40.5q-200 0 -200 110q0 77 107 101v4q-38 4 -59 26.5t-21 57.5q0 70 88 88q-88 33 -88 125q0 67 47 111t133 44q83 0 158 -36q-6 10 -6 24q0 23 14.5 36.5t36.5 13.5q24 0 37.5 -15t13.5 -39
q0 -26 -15.5 -40.5t-43.5 -14.5q-30 0 -79 20v-9q25 -13 41.5 -38.5t16.5 -57.5q0 -68 -52 -103.5t-122 -35.5q-33 0 -57 7q-42 -19 -42 -48q0 -34 40 -34zM162 -21q-45 -23 -45 -77q0 -81 109 -81q146 0 146 94q0 64 -80 64h-130zM294 296q0 53 -14.5 78.5t-55.5 25.5
q-40 0 -54.5 -25.5t-14.5 -78.5t14.5 -78.5t54.5 -25.5q41 0 55.5 25.5t14.5 78.5zM220 583h7q7 25 34 25q26 0 39.5 -16t13.5 -40q0 -28 -18.5 -45t-46.5 -17q-36 0 -57.5 22.5t-21.5 58.5q0 105 133 120l8 -20q-91 -30 -91 -88z" />
    <glyph glyph-name="Hmacronbelow" unicode="&#xe109;" horiz-adv-x="701" 
d="M423 588h235l8 -32l-70 -23v-478l70 -23l-8 -32h-235l-7 32l69 23v219h-269v-219l70 -23l-8 -32h-235l-8 32l70 23v478l-70 23l8 32h235l8 -32l-70 -23v-211h269v211l-69 23zM491 -136h-282v56h282v-56z" />
    <glyph glyph-name="hmacronbelow" unicode="&#xe10a;" horiz-adv-x="531" 
d="M350 45v240q0 41 -20 61t-52 20q-54 0 -94 -37v-281l66 -19l-13 -29h-203v28l44 17v533l-53 50v11l141 42h18v-315h4q26 40 64.5 60.5t79.5 20.5q53 0 88.5 -32.5t35.5 -107.5v-259l65 -19l-13 -29h-203v28zM414 -136h-281v56h281v-56z" />
    <glyph glyph-name="Jcaron" unicode="&#xe10b;" horiz-adv-x="294" 
d="M152 619h-20l-127 142h107l58 -66l61 66h51zM90 -44v577l-71 23l8 32h236l8 -32l-71 -23v-532q0 -92 -52 -141.5t-146 -49.5q-93 0 -93 67q0 30 17 46t42 16q28 0 43 -16.5t15 -42.5q0 -21 -11 -36q40 2 57.5 29t17.5 83z" />
    <glyph glyph-name="Kcedilla" unicode="&#xe10d;" horiz-adv-x="616" 
d="M169 -182l17 22q26 -22 61 -22q46 0 46 37q0 19 -13.5 31.5t-25 16.5t-38.5 11l32 86h-205l-8 32l70 23v478l-70 23l8 32h235l8 -32l-70 -23v-211l59 8l164 204l-62 22l5 32h186l7 -33l-64 -18l-162 -198l189 -285l81 -21l-7 -33h-172l-177 280h-47v-225l70 -23l-19 -74
q41 -7 73 -28t32 -61q0 -87 -114 -87q-60 0 -89 36z" />
    <glyph glyph-name="kcedilla" unicode="&#xe10e;" horiz-adv-x="509" 
d="M123 -182l17 22q26 -22 61 -22q46 0 46 37q0 19 -13.5 31.5t-25 16.5t-38.5 11l32 86h-168v28l44 17v533l-53 50v11l141 42h18v-435l38 8l137 130l-60 21l7 31h174l7 -30l-56 -21l-127 -120l143 -216l65 -21l-11 -28h-148l-131 208h-38v-160l66 -19l-29 -71q41 -7 73 -28
t32 -61q0 -87 -114 -87q-60 0 -89 36z" />
    <glyph glyph-name="Lcedilla" unicode="&#xe10f;" horiz-adv-x="499" 
d="M152 -182l18 22q24 -22 60 -22q46 0 46 37q0 19 -13.5 31.5t-24.5 16.5t-38 11l31 86h-188l-8 32l70 23v478l-70 23l8 32h235l8 -32l-70 -23v-468l40 -17h112l90 159l26 -6l-23 -201h-195l-16 -42q41 -7 73 -28t32 -61q0 -87 -114 -87q-60 0 -89 36z" />
    <glyph glyph-name="ocedilla" unicode="&#xe110;" horiz-adv-x="500" 
d="M148 -182l18 22q24 -22 60 -22q46 0 46 37q0 19 -13.5 31.5t-24.5 16.5t-38 11l28 77q-87 8 -137 66t-50 161q0 110 57.5 169t155.5 59t155.5 -59t57.5 -169q0 -108 -55 -166.5t-150 -61.5l-12 -32q41 -7 73 -28t32 -61q0 -87 -114 -87q-60 0 -89 36zM151 218
q0 -184 99 -184t99 184t-99 184t-99 -184z" />
    <glyph glyph-name="Mmacron" unicode="&#xe111;" horiz-adv-x="812" 
d="M552 374l-140 -374h-58l-143 374q-11 28 -22.5 63t-16.5 56l-6 21h-4q6 -73 6 -143v-316l75 -23l-8 -32h-192l-8 32l70 23v478l-70 23l8 32h206l131 -364q10 -28 16.5 -53t7.5 -37l1 -11h4q3 34 26 101l131 364h204l7 -32l-70 -23v-478l70 -23l-7 -32h-236l-8 32l71 23
v316l5 143h-4q-22 -75 -46 -140zM554 653h-312v56h312v-56z" />
    <glyph glyph-name="mmacron" unicode="&#xe112;" horiz-adv-x="791" 
d="M453 325v-277l65 -19l-13 -29h-201v28l43 17v240q0 39 -18 59t-48 20q-49 0 -91 -39v-277l66 -19l-13 -29h-203v28l44 16v285l-45 59v11l133 47h17l-3 -85h4q55 86 142 86q42 0 73 -21.5t42 -65.5h4q55 87 143 87q52 0 87 -33.5t35 -107.5v-258l65 -19l-13 -29h-201v28
l43 17v240q0 39 -18 59t-48 20q-47 0 -91 -39zM543 511h-281v57h281v-57z" />
    <glyph glyph-name="Mcedilla" unicode="&#xe113;" horiz-adv-x="812" 
d="M300 -182l18 22q24 -22 60 -22q46 0 46 37q0 19 -13.5 31.5t-24.5 16.5t-38 11l31 86h-25l-143 374q-11 28 -22.5 63t-16.5 56l-6 21h-4q6 -73 6 -143v-316l75 -23l-8 -32h-192l-8 32l70 23v478l-70 23l8 32h206l131 -364q10 -28 16.5 -53t7.5 -37l1 -11h4q3 34 26 101
l131 364h204l7 -32l-70 -23v-478l70 -23l-7 -32h-236l-8 32l71 23v316l5 143h-4q-22 -75 -46 -140l-134 -357h3l-23 -59q41 -7 73 -28t32 -61q0 -87 -114 -87q-60 0 -89 36z" />
    <glyph glyph-name="mcedilla" unicode="&#xe114;" horiz-adv-x="791" 
d="M301 -182l17 22q26 -22 61 -22q46 0 46 37q0 19 -13.5 31.5t-25 16.5t-38.5 11l32 86h-76v28l43 17v240q0 39 -18 59t-48 20q-49 0 -91 -39v-277l66 -19l-13 -29h-203v28l44 16v285l-45 59v11l133 47h17l-3 -85h4q55 86 142 86q42 0 73 -21.5t42 -65.5h4q55 87 143 87
q52 0 87 -33.5t35 -107.5v-258l65 -19l-13 -29h-201v28l43 17v240q0 39 -18 59t-48 20q-47 0 -91 -39v-277l65 -19l-13 -29h-91l-15 -42q41 -7 73 -28t32 -61q0 -87 -114 -87q-60 0 -89 36z" />
    <glyph glyph-name="Ndieresis" unicode="&#xe115;" horiz-adv-x="657" 
d="M168 344v-289l75 -23l-8 -32h-192l-8 32l70 23v478l-70 23l8 32h175l223 -316q17 -24 33.5 -54.5t24.5 -48.5l8 -18h4q-5 71 -5 142v240l-75 23l7 32h191l8 -32l-70 -23v-533h-63l-268 369q-17 24 -34.5 54.5t-26.5 48.5l-9 18h-4q6 -72 6 -146zM180 682q0 27 17.5 44.5
t42.5 17.5q28 0 46 -17t18 -45q0 -26 -18 -43t-46 -17q-25 0 -42.5 17.5t-17.5 42.5zM370 681q0 27 18 44.5t44 17.5q27 0 45.5 -17.5t18.5 -44.5q0 -25 -18.5 -42.5t-45.5 -17.5q-26 0 -44 17.5t-18 42.5z" />
    <glyph glyph-name="ndieresis" unicode="&#xe116;" horiz-adv-x="537" 
d="M461 48l66 -19l-13 -29h-203v28l44 18v235q0 81 -73 81q-50 0 -92 -38v-276l66 -19l-13 -29h-203v28l44 17v284l-45 59v11l133 47h17l-3 -86h4q53 86 149 86q52 0 87 -36t35 -108v-254zM114 564q0 27 18 44t43 17q28 0 46 -17t18 -44q0 -26 -18 -43.5t-46 -17.5
q-25 0 -43 17.5t-18 43.5zM304 563q0 27 18 44t44 17q28 0 46 -17t18 -44q0 -26 -18.5 -43.5t-45.5 -17.5q-25 0 -43.5 18t-18.5 43z" />
    <glyph glyph-name="Nmacron" unicode="&#xe117;" horiz-adv-x="657" 
d="M168 344v-289l75 -23l-8 -32h-192l-8 32l70 23v478l-70 23l8 32h175l223 -316q17 -24 33.5 -54.5t24.5 -48.5l8 -18h4q-5 71 -5 142v240l-75 23l7 32h191l8 -32l-70 -23v-533h-63l-268 369q-17 24 -34.5 54.5t-26.5 48.5l-9 18h-4q6 -72 6 -146zM486 653h-312v56h312v-56
z" />
    <glyph glyph-name="nmacron" unicode="&#xe118;" horiz-adv-x="537" 
d="M461 48l66 -19l-13 -29h-203v28l44 18v235q0 81 -73 81q-50 0 -92 -38v-276l66 -19l-13 -29h-203v28l44 17v284l-45 59v11l133 47h17l-3 -86h4q53 86 149 86q52 0 87 -36t35 -108v-254zM409 511h-282v57h282v-57z" />
    </font>
</defs>
</svg>
