<svg xmlns="http://www.w3.org/2000/svg" width="30" height="30">
    <path fill="currentColor" d="M14.295 5.927c5.83 0 10.657 3.762 10.795 8.523.703.927 1.11 2.025 1.11 3.214a5.682 5.682 0 01-2.587 4.603l-.167.1.008.01a1.82 1.82 0 00.175.409c.083.15.167.272.215.334a.75.75 0 01-.447 1.194c-.783.157-1.393-.084-2.013-.597-.043-.035-.205-.177-.305-.262-.77.158-1.556.245-2.356.26-.964 0-1.889-.15-2.739-.423l.17-.02a13.62 13.62 0 01-1.86.126 18.89 18.89 0 01-3.173-.334l-.441-.091c0 .004-.004.007-.009.01-.085.065-.505.437-.576.496-.841.706-1.646 1.028-2.681.821a.75.75 0 01-.448-1.192c.082-.107.218-.306.352-.55.129-.234.226-.458.279-.652.074-.272.055-.358.015-.383a8.145 8.145 0 01-4.101-6.858c.008-4.868 4.872-8.738 10.784-8.738zm0 1.5c-5.15 0-9.278 3.284-9.284 7.218a6.645 6.645 0 003.368 5.589c.731.453.894 1.222.665 2.065l-.039.134.127-.103c.032-.027.494-.436.632-.541.364-.277.702-.41 1.099-.31.82.184 1.652.308 2.483.372-1.284-1.087-2.079-2.567-2.079-4.216 0-3.394 3.389-6.067 7.477-6.067 1.702 0 3.28.465 4.542 1.254l-.024-.068c-1.078-3.044-4.672-5.327-8.967-5.327zm4.45 5.64c-3.329 0-5.978 2.09-5.978 4.568 0 2.484 2.637 4.58 5.942 4.58a11.325 11.325 0 002.25-.268c.367-.089.652.025.948.249l.04.03c.016-.435.212-.825.648-1.096a4.178 4.178 0 002.105-3.488c0-2.483-2.634-4.574-5.956-4.574z"/>
</svg>
