<svg xmlns="http://www.w3.org/2000/svg" width="32" height="32">
    <g fill="none" fill-rule="evenodd">
        <path fill="currentColor" fill-rule="nonzero" d="M24.083 13.557v.018a7.577 7.577 0 01-1.18 4.044l-5.036 7.483a2.252 2.252 0 01-3.734.001L9.086 17.6a7.58 7.58 0 01-1.17-4.043c.093-4.381 3.717-7.86 8.07-7.774a7.944 7.944 0 018.097 7.774zm-8.098-6.274c-3.554-.07-6.493 2.752-6.568 6.29a6.031 6.031 0 00.925 3.208l5.036 7.484a.749.749 0 001.244 0l5.024-7.466c.61-.963.934-2.079.937-3.218-.08-3.55-3.017-6.368-6.598-6.298zM16 9.797c1.857 0 3.377 1.446 3.377 3.25 0 1.803-1.52 3.25-3.377 3.25-1.857 0-3.377-1.447-3.377-3.25 0-1.804 1.52-3.25 3.377-3.25zm0 1.5c-1.045 0-1.877.792-1.877 1.75s.832 1.75 1.877 1.75 1.877-.792 1.877-1.75-.832-1.75-1.877-1.75z"/>
        <circle cx="16" cy="16" r="15.5" stroke="currentColor"/>
    </g>
</svg>
