<svg xmlns="http://www.w3.org/2000/svg" width="16" height="16">
    <path d="M9.277 2.88c.205 0 .388.023.55.07.162.046.296.104.4.173a.941.941 0 01.267.27c.073.111.126.211.16.3.033.089.06.2.08.333.02.133.03.233.033.3.002.067.003.153.003.26 0 .169-.02.338-.063.506-.042.17-.084.302-.126.4a5.846 5.846 0 01-.25.493 1.19 1.19 0 00-.127.307h1.846c.346 0 .646.126.9.38.252.253.379.553.379.9 0 .382-.122.712-.367.992.067.196.1.365.1.507.013.338-.082.642-.287.913.076.249.076.509 0 .78a1.29 1.29 0 01-.36.626c.04.497-.068.9-.326 1.206-.284.338-.722.51-1.313.52h-.86c-.293 0-.612-.035-.959-.104a8.575 8.575 0 01-.81-.193c-.193-.06-.46-.148-.802-.263-.547-.191-.898-.289-1.053-.293a.443.443 0 01-.3-.13.399.399 0 01-.127-.297V7.565c0-.111.04-.208.12-.29a.44.44 0 01.287-.137c.106-.009.275-.14.506-.393.231-.253.455-.522.673-.806.302-.387.527-.653.673-.8.08-.08.15-.187.207-.32.058-.133.097-.24.117-.323.02-.082.05-.217.09-.403a5.6 5.6 0 01.083-.407c.024-.098.068-.213.13-.346.062-.134.138-.245.226-.333a.41.41 0 01.3-.127zM5.012 7.145c.116 0 .216.042.3.127a.407.407 0 01.127.3v4.264a.407.407 0 01-.127.3.407.407 0 01-.3.127H3.093a.41.41 0 01-.3-.127.41.41 0 01-.126-.3V7.571c0-.115.042-.215.126-.3a.413.413 0 01.3-.126zm-1.066 3.412c-.12 0-.22.042-.303.126a.418.418 0 00-.123.3c0 .12.04.221.123.304a.412.412 0 00.303.123.415.415 0 00.3-.123.408.408 0 00.127-.304.414.414 0 00-.127-.3.41.41 0 00-.3-.126z" fill="currentColor"/>
</svg>
