<?xml version="1.0" encoding="UTF-8"?>
<svg width="26px" height="18px" viewBox="0 0 26 18" version="1.1" xmlns="http://www.w3.org/2000/svg" xmlns:xlink="http://www.w3.org/1999/xlink">
    <!-- Generator: Sketch 48.2 (47327) - http://www.bohemiancoding.com/sketch -->
    <title>Group 5</title>
    <desc>Created with Sketch.</desc>
    <defs></defs>
    <g id="Find-a-store---Mobile---no-promo---expanded" stroke="none" stroke-width="1" fill="none" fill-rule="evenodd" transform="translate(-76.000000, -1321.000000)">
        <g id="Group-23" transform="translate(20.000000, 1291.000000)" fill="#FFFFFF">
            <g id="Group-9">
                <g id="Group-5" transform="translate(56.000000, 30.000000)">
                    <path d="M1.88961039,0 C0.850649351,0 0,0.844772727 0,1.89204545 L0,16.0948636 C0,17.1421364 0.850649351,18 1.88961039,18 L24.0844156,18 C25.1229708,18 25.974026,17.1421364 25.974026,16.0948636 L25.974026,1.89204545 C25.974026,0.844772727 25.1229708,0 24.0844156,0 L1.88961039,0 Z M0.811688312,3.23427273 L12.7459416,11.7867273 C12.8892045,11.8935 13.0848214,11.8935 13.2280844,11.7867273 L25.1623377,3.23427273 L25.1623377,16.0948636 C25.1623377,16.7031818 24.6875,17.1818182 24.0844156,17.1818182 L1.88961039,17.1818182 C1.28612013,17.1818182 0.811688312,16.7031818 0.811688312,16.0948636 L0.811688312,3.23427273 Z M1.88961039,0.818181818 L24.0844156,0.818181818 C24.6875,0.818181818 25.1623377,1.28372727 25.1623377,1.89204545 L25.1623377,2.23690909 L12.987013,10.9431818 L0.811688312,2.23690909 L0.811688312,1.89204545 C0.811688312,1.28372727 1.28612013,0.818181818 1.88961039,0.818181818 L1.88961039,0.818181818 Z" id="Fill-1-Copy"></path>
                </g>
            </g>
        </g>
    </g>
</svg>