<svg width="82px" height="68px" viewBox="0 0 82 68" version="1.1" xmlns="http://www.w3.org/2000/svg" xmlns:xlink="http://www.w3.org/1999/xlink">
    <!-- Generator: Sketch 48.2 (47327) - http://www.bohemiancoding.com/sketch -->
    <desc>Created with Sketch.</desc>
    <defs>
        <filter x="-76.9%" y="-25.5%" width="253.9%" height="150.9%" filterUnits="objectBoundingBox" id="filter-1">
            <feGaussianBlur stdDeviation="5.18303571" in="SourceGraphic"></feGaussianBlur>
        </filter>
    </defs>
    <g id="Page-1" stroke="none" stroke-width="1" fill="none" fill-rule="evenodd">
        <g id="Find-a-store" transform="translate(-898.000000, -762.000000)">
            <g id="Group-4-Copy" transform="translate(898.000000, 762.000000)">
                <path d="M40.8137254,14.8310723 C35.2405891,14.8310723 30.7145269,24.7622514 30.7145269,37.0156465 C30.7145269,49.2443371 34.7451992,62.5847269 40.8137254,75.9004123 C46.5895212,63.227042 50.9241828,49.2443371 50.9241828,37.0156465 C50.9241828,24.7622514 46.3981206,14.8310723 40.8137254,14.8310723" id="Path" fill-opacity="0.4" fill="#777777" filter="url(#filter-1)" transform="translate(40.819355, 45.365742) rotate(-287.000000) translate(-40.819355, -45.365742) "></path>
                <path d="M18.9798849,26.8695569 C14.436284,26.8695569 10.7362208,23.2196099 10.7362208,18.6951964 C10.7362208,14.1897931 14.436284,10.520836 18.9798849,10.520836 C23.5426572,10.520836 27.2235491,14.1897931 27.2235491,18.6951964 C27.2235491,23.2196099 23.5426572,26.8695569 18.9798849,26.8695569 M18.7366668,0 C8.39703462,0 0,8.32644156 0,18.599862 C0,28.8525699 7.4779562,40.0373421 18.7366668,51.2014018 C29.4522856,40.5758682 37.4942217,28.8525699 37.4942217,18.599862 C37.4942217,8.32644156 29.0971871,0 18.7366668,0" id="Fill-1" fill="#472E8C"></path>
            </g>
        </g>
    </g>
</svg>
