<?xml version="1.0" encoding="UTF-8"?>
<svg width="82px" height="68px" viewBox="0 0 82 68" version="1.1" xmlns="http://www.w3.org/2000/svg" xmlns:xlink="http://www.w3.org/1999/xlink">
    <!-- Generator: Sketch 48.2 (47327) - http://www.bohemiancoding.com/sketch -->
    <title>Group 7 Copy</title>
    <desc>Created with Sketch.</desc>
    <defs>
        <filter x="-76.9%" y="-25.5%" width="253.9%" height="150.9%" filterUnits="objectBoundingBox" id="filter-1">
            <feGaussianBlur stdDeviation="5.18303571" in="SourceGraphic"></feGaussianBlur>
        </filter>
    </defs>
    <g id="Custom-Preset" stroke="none" stroke-width="1" fill="none" fill-rule="evenodd" transform="translate(-8.000000, -13.000000)">
        <g id="Group-7-Copy" transform="translate(8.000000, 13.000000)">
            <g id="Group-4">
                <path d="M41.1491865,15.0560985 C35.5760502,15.0560985 31.049988,24.9872776 31.049988,37.2406727 C31.049988,49.4693634 35.0806603,62.8097532 41.1491865,76.1254386 C46.9249823,63.4520682 51.2596439,49.4693634 51.2596439,37.2406727 C51.2596439,24.9872776 46.7335817,15.0560985 41.1491865,15.0560985" id="Path" fill-opacity="0.4" fill="#777777" filter="url(#filter-1)" transform="translate(41.154816, 45.590769) rotate(-287.000000) translate(-41.154816, -45.590769) "></path>
                <path d="M18.9798849,26.8695569 C14.436284,26.8695569 10.7362208,23.2196099 10.7362208,18.6951964 C10.7362208,14.1897931 14.436284,10.520836 18.9798849,10.520836 C23.5426572,10.520836 27.2235491,14.1897931 27.2235491,18.6951964 C27.2235491,23.2196099 23.5426572,26.8695569 18.9798849,26.8695569 M18.7366668,0 C8.39703462,0 0,8.32644156 0,18.599862 C0,28.8525699 7.4779562,40.0373421 18.7366668,51.2014018 C29.4522856,40.5758682 37.4942217,28.8525699 37.4942217,18.599862 C37.4942217,8.32644156 29.0971871,0 18.7366668,0" id="Fill-1" fill="#472E8C"></path>
            </g>
            <g id="Group-5" transform="translate(7.000000, 9.000000)">
                <polygon id="Star" fill="#FF6E6E" points="11.5 20.3559802 8.52358098 21.8984305 6.73199219 19.1025165 3.36827202 18.9782048 3.24156822 15.6779901 0.391852998 13.9202257 1.96398437 11 0.391852998 8.07977435 3.24156822 6.3220099 3.36827202 3.02179515 6.73199219 2.89748346 8.52358098 0.101569504 11.5 1.64401979 14.476419 0.101569504 16.2680078 2.89748346 19.631728 3.02179515 19.7584318 6.3220099 22.608147 8.07977435 21.0360156 11 22.608147 13.9202257 19.7584318 15.6779901 19.631728 18.9782048 16.2680078 19.1025165 14.476419 21.8984305"></polygon>
                <text id="$" font-family="Calibre-Medium, Calibre" font-size="17.8" font-weight="400" fill="#FFFFFF">
                    <tspan x="7" y="16">$</tspan>
                </text>
            </g>
        </g>
    </g>
</svg>