<svg xmlns="http://www.w3.org/2000/svg" width="42" height="33" viewBox="0 0 42 33">
    <g fill="#2D1947">
        <path d="M3.758 19.41c-1.12 0-2.07-.308-2.752-.954-2.29-2.173-.538-7.234 3.97-11.518 2.092-1.984 4.456-3.486 6.656-4.23 2.375-.803 4.323-.638 5.483.462 1.16 1.101 1.334 2.95.488 5.203-.784 2.088-2.367 4.33-4.458 6.316C9.972 17.698 6.4 19.41 3.758 19.41zM14.35 3.54c-.768.02-1.527.164-2.245.423-2.01.68-4.187 2.074-6.134 3.918-1.947 1.845-3.414 3.915-4.129 5.82-.644 1.717-.587 3.11.157 3.812.743.7 2.207.761 4.017.148 2.01-.677 4.189-2.068 6.134-3.92 1.946-1.852 3.413-3.914 4.13-5.82.643-1.717.587-3.11-.156-3.813-.403-.375-1.013-.567-1.774-.567z"/>
        <ellipse cx="9.294" cy="11.026" rx="3.152" ry="1.627" transform="rotate(-48.36 9.294 11.026)"/>
        <path d="M19.306 4.046s1.173 2.867-.99 6.108l3.647-3.57-2.657-2.538z"/>
        <path d="M16.878 32.975c-1.73-.003-3.412-.534-4.798-1.516l-.047-.04S9.56 29.107 7.09 26.778c-1.433-1.348-2.575-2.427-3.393-3.205-.468-.444-.848-.81-1.116-1.07-.515-.503-.78-.755-.531-1.195l.24-.444.513.089c4.791.844 9.507-3.504 9.553-3.547l14.7-13.942 12.298 11.892L23.167 30.48c-2.342 1.95-4.553 2.494-6.289 2.494zm-3.885-2.53c.358.266 4.372 3.082 9.231-.955L37.37 15.34 27.05 5.373l-13.7 12.992c-.19.178-4.167 3.852-8.9 4.039 1.937 1.856 5.77 5.447 8.544 8.043z"/>
        <path d="M33.698 -1.024L35.729 -0.97 36.183 16.343 34.152 16.29z" transform="rotate(-45 34.94 7.66)"/>
        <ellipse cx="35.401" cy="6.687" rx="1.476" ry="3.016" transform="rotate(-45 35.401 6.687)"/>
        <path d="M30.621 11.025c-.082 0-.16-.031-.219-.086l-2.947-2.767c-.08-.075-.11-.184-.082-.286.028-.103.112-.183.22-.21.108-.028.223 0 .302.075l2.946 2.768c.09.084.117.212.069.323-.048.11-.162.183-.289.183zM27.62 11.496c-.082 0-.162-.03-.22-.086l-1.53-1.437c-.113-.116-.11-.296.008-.408.117-.113.307-.118.43-.012l1.532 1.437c.09.084.117.212.069.323-.048.111-.162.183-.289.183zM23.996 14.935c-.082 0-.161-.031-.22-.086l-1.53-1.437c-.113-.117-.109-.296.008-.409.117-.112.307-.117.43-.012l1.532 1.437c.09.085.117.212.07.323-.05.111-.163.184-.29.184zM20.463 18.287c-.083 0-.162-.03-.22-.086l-1.53-1.437c-.123-.115-.125-.302-.003-.419.12-.116.318-.118.441-.003l1.532 1.439c.09.084.117.212.069.323-.048.111-.163.184-.29.183zM16.906 21.664c-.082 0-.161-.031-.22-.086l-1.532-1.439c-.079-.074-.11-.183-.082-.286.029-.102.113-.182.22-.21.108-.028.223 0 .303.076l1.53 1.437c.09.084.119.212.07.323-.047.112-.162.185-.289.185zM27.049 14.415c-.082 0-.16-.031-.219-.086l-2.942-2.768c-.079-.074-.11-.183-.081-.286.028-.102.112-.182.22-.21.107-.028.223.001.302.076l2.946 2.767c.059.056.092.131.092.21 0 .078-.033.154-.092.21-.06.057-.142.088-.226.087zM23.454 17.827c-.082 0-.161-.031-.22-.086l-2.946-2.768c-.086-.073-.122-.185-.095-.29.028-.107.114-.19.226-.217.112-.027.23.006.308.087l2.946 2.767c.09.084.117.212.07.323-.049.11-.162.183-.289.184zM19.893 21.206c-.082 0-.162-.03-.22-.086l-2.946-2.767c-.086-.073-.123-.185-.095-.291.027-.107.114-.19.226-.217.111-.027.23.006.307.087l2.947 2.772c.09.084.117.211.069.322-.048.111-.162.184-.288.184v-.004zM16.327 24.59c-.083 0-.162-.031-.22-.086L13.16 21.74c-.123-.116-.124-.304-.003-.42.122-.117.32-.118.443-.002l2.95 2.764c.12.116.12.302 0 .418-.06.057-.14.089-.224.089z"/>
    </g>
</svg>
