<svg xmlns="http://www.w3.org/2000/svg" width="34" height="36" viewBox="0 0 34 36">
    <g fill="none">
        <path fill="#2D1947" d="M3.203 23.363v-6.098H1.966C.88 17.265 0 16.392 0 15.314V1.952C0 .874.88 0 1.966 0h21.666c1.086 0 1.966.874 1.966 1.952v13.362c0 1.078-.88 1.951-1.966 1.951H7.673l-4.47 6.098zM1.966 1.148c-.447 0-.81.36-.81.804v13.362c0 .444.363.803.81.803H4.36v3.716l2.722-3.716h16.55c.447 0 .81-.36.81-.803V1.952c0-.444-.363-.804-.81-.804H1.966z"/>
        <path fill="#2D1947" d="M31.095 35.78l-4.884-6.428H10.293c-1.086 0-1.966-.874-1.966-1.951v-8.06c0-.317.258-.574.578-.574.32 0 .578.257.578.574v8.064c0 .444.362.804.81.804h16.494l3.015 3.966-.15-3.966h2.307c.447 0 .81-.36.81-.804V14.043c0-.444-.363-.804-.81-.804h-4.237c-.32 0-.579-.257-.579-.574 0-.317.26-.574.579-.574h4.237c1.086 0 1.966.874 1.966 1.952v13.362c0 1.078-.88 1.952-1.966 1.952h-1.106l.242 6.424z"/>
        <path fill="#2E1A47" d="M15.874 12.484c-.948-.248-1.874-.527-2.686-.804-.135-.057-.28-.092-.426-.103-1.66-.064-3.09-1.283-3.09-3.525s1.372-3.668 3.267-3.668c1.894 0 3.143 1.47 3.143 3.523 0 1.788-.833 2.934-1.999 3.337v.042c.694.175 1.458.344 2.05.444l-.26.754zm-.75-4.536c0-1.394-.728-2.83-2.217-2.83-1.53 0-2.278 1.405-2.268 2.918-.01 1.477.81 2.81 2.227 2.81 1.446-.005 2.258-1.306 2.258-2.898zM20.007 22.052l-.729 2.19h-.937l2.384-6.963h1.093l2.394 6.964h-.967l-.752-2.19h-2.486zm2.299-.7l-.687-2.004c-.156-.46-.26-.868-.364-1.271h-.021c-.104.413-.219.837-.354 1.263l-.687 2.012h2.113z"/>
    </g>
</svg>
