<svg xmlns="http://www.w3.org/2000/svg" width="32" height="33" viewBox="0 0 32 33">
    <g fill="none">
        <path fill="#EAEAEA" d="M.824 5.367C.85 4.912 14.68-5.055 30.76 5.75c0 0 4.465 17.148-14.973 26.34.01.002-16.36-4.948-14.963-26.723z"/>
        <path fill="#2E1A47" d="M15.854 32.888l-.27-.083c-.174-.053-4.317-1.337-8.32-5.385C3.58 23.7-.656 16.845.083 5.32c.052-.82 2.397-2.07 3.414-2.57 4.165-2.075 15.206-6 27.68 2.383l.249.154.07.276c.049.182 1.148 4.532-.194 10.087-1.24 5.12-4.874 12.25-15.181 17.115l-.268.123zM1.545 5.68C1.052 14.25 3.39 21.395 8.31 26.368c2.107 2.153 4.643 3.83 7.442 4.922 7.69-3.707 12.435-9.087 14.105-16 .727-2.977.815-6.076.26-9.09-7.824-5.145-14.985-5.16-19.624-4.253-4.941.966-8.246 3.158-8.948 3.733z"/>
        <path fill="#2E1A47" d="M16.33 23.145c-4.521 0-8.186-3.694-8.186-8.25s3.665-8.25 8.186-8.25 8.186 3.694 8.186 8.25c-.01 4.552-3.67 8.239-8.186 8.25zm0-15.335c-2.84-.001-5.4 1.722-6.488 4.366-1.087 2.643-.487 5.687 1.52 7.71 2.008 2.025 5.028 2.63 7.651 1.536 2.624-1.095 4.335-3.675 4.335-6.537-.006-3.904-3.144-7.068-7.018-7.075z"/>
        <circle cx="15.977" cy="14.645" r="7.5" fill="#2E1A47"/>
        <path fill="#EAEAEA" d="M15.315 17.5h-.037c-.16-.011-.31-.088-.414-.212L12.96 15c-.135-.163-.174-.385-.102-.585.072-.199.245-.344.452-.38.207-.038.418.04.553.203l1.516 1.81 3.525-3.298c.154-.144.373-.194.574-.13.201.063.354.229.4.436.046.207-.02.423-.175.567l-3.99 3.72c-.108.101-.25.157-.399.157z"/>
    </g>
</svg>
