<svg xmlns="http://www.w3.org/2000/svg" xmlns:xlink="http://www.w3.org/1999/xlink" width="52" height="52" viewBox="0 0 52 52"><defs><circle id="a" cx="25" cy="25" r="25"/><path id="c" d="M.492.074c.082 2.083 1.445 3.74 3.935 3.74 1.415 0 2.897-.537 3.944-1.382.507-.408 1.176-.503 1.727-.172 1.623.976 1.13 2.701 2.58 3.86 2.95 2.355 6.975-2.362 9.658-2.362 2.841 0 4.687 2.23 7.949 2.23 3.262 0 5.93-4.039 12.297-4.039V.074H.492z"/><path id="e" d="M52.953.109v.495H.153V.109h52.8z"/></defs><g fill="none" fill-rule="evenodd" transform="translate(1 1)"><mask id="b" fill="#fff"><use xlink:href="#a"/></mask><g mask="url(#b)"><g transform="translate(4 18)"><mask id="d" fill="#fff"><use xlink:href="#c"/></mask><path fill="#E1E1E1" mask="url(#d)" d="M-4.3 33.937h48.093V.074H-4.3z"/></g><path stroke="#020303" stroke-width=".983" d="M45.494 15.932c-6.314 0-8.96-3.83-12.196-3.83-3.234 0-5.065 2.115-7.882 2.115-2.662 0-6.654-4.475-9.579-2.24-1.383 1.056-.983 2.609-2.38 3.55-.49.33-1.117.256-1.554-.15-1.04-.964-2.685-1.595-4.249-1.595-2.548 0-3.906 1.674-3.906 3.738s1.358 3.737 3.906 3.737c1.404 0 2.874-.509 3.913-1.31.502-.388 1.165-.478 1.71-.164 1.612.926 1.122 2.563 2.56 3.661 2.925 2.234 6.917-2.24 9.579-2.24 2.817 0 4.648 2.115 7.882 2.115 3.236 0 5.882-3.83 12.196-3.83"/><path stroke="#020303" stroke-dasharray="0 2.036" stroke-linecap="round" stroke-width="1.475" d="M17.319 17.71h17.567"/><path stroke="#020303" stroke-width=".983" d="M51.725 22.43h-6.542c-3.089.066-5.186 1.1-7.042 2.02-1.582.783-3.075 1.523-4.843 1.523-2.02 0-3.545-.617-4.891-1.16-1.062-.43-1.978-.8-2.991-.8-.593 0-1.704.553-2.685 1.041-1.447.72-3.244 1.614-5.065 1.614-.962 0-1.93-.25-2.858-.906-1.093-.774-1.49-1.721-1.78-2.413l-.083-.197a.62.62 0 0 0-.885-.283 8.936 8.936 0 0 1-4.406 1.193c-1.669 0-3.082-.539-4.082-1.458a.64.64 0 0 0-.433-.175H-.847m0 4.753H3.088c.135 0 .332.055.431.146.834.766 2.703 1.215 4.093 1.215 1.268 0 3.321-.366 4.39-.995.27-.158.778-.048.901.237.022.05.073.103.099.164.241.576 1.047 1.366 1.958 2.011.772.547 2.054.754 2.856.754 1.517 0 3.853-.744 5.06-1.344.817-.407 2.197-.868 2.69-.868.844 0 2.095.309 2.98.666 1.121.453 3.19.967 4.873.967 1.473 0 3.519-.616 4.837-1.27 1.546-.765 4.453-1.627 7.027-1.683h6.48m-52.61 4.753h3.885c.108 0 .35.043.428.116.667.613 2.991.973 4.104.973 1.014 0 3.52-.293 4.377-.796.215-.126.816-.038.914.19.017.039.094.083.114.13.194.461 1.408 1.093 2.137 1.61.618.436 2.212.603 2.853.603 1.214 0 4.09-.596 5.055-1.076.653-.325 2.302-.694 2.697-.694.674 0 2.26.247 2.968.533.897.362 3.508.774 4.855.774 1.178 0 3.777-.494 4.831-1.016 1.237-.612 4.952-1.302 7.01-1.347h6.42M-.846 36.688H2.987c.08 0 .368.033.427.087.5.46 3.28.73 4.114.73.76 0 3.72-.22 4.363-.597.161-.095.855-.03.929.142.013.029.114.062.129.098.145.346 1.768.82 2.314 1.207.464.328 2.371.453 2.852.453.91 0 4.325-.447 5.049-.807.49-.244 2.407-.52 2.703-.52.506 0 2.426.184 2.957.399.673.272 3.826.58 4.837.58.883 0 4.035-.37 4.825-.762.928-.46 5.45-.976 6.995-1.01h6.358M-.847 41.441h3.783c.054 0 .386.022.425.058.334.307 3.57.486 4.125.486.507 0 3.921-.146 4.349-.398.108-.062.894-.018.943.095.008.02.134.042.145.066.097.23 2.128.546 2.492.805.31.218 2.53.301 2.85.301.607 0 4.56-.298 5.043-.538.327-.162 2.512-.347 2.71-.347.337 0 2.591.124 2.945.266.448.182 4.145.388 4.818.388.59 0 4.294-.247 4.82-.509.62-.306 5.95-.651 6.98-.673h6.296M-.847 46.194H2.886c.027 0 .404.012.423.03.167.152 3.857.242 4.135.242.254 0 4.122-.073 4.335-.199.054-.031.932-.01.957.047.005.01.155.021.16.033.049.116 2.489.274 2.67.402.155.11 2.688.151 2.849.151.303 0 4.796-.148 5.037-.268.164-.082 2.617-.174 2.716-.174.169 0 2.757.062 2.934.133.224.091 4.463.194 4.8.194.295 0 4.552-.124 4.815-.254.31-.153 6.449-.325 6.963-.337h6.235"/><g transform="translate(-1 50.838)"><mask id="f" fill="#fff"><use xlink:href="#e"/></mask><path stroke="#020303" stroke-width=".983" d="M.153.109h52.8" mask="url(#f)"/></g></g><circle cx="25" cy="25" r="25" stroke="#2F1945" stroke-width="2"/></g></svg>