<svg xmlns="http://www.w3.org/2000/svg" width="50" height="50" viewBox="0 0 50 50"><g fill="none" fill-rule="evenodd"><path stroke="#2F1945" stroke-linejoin="round" stroke-width="1.5" d="M1 49h48V1H1z"/><path stroke="#2F1945" stroke-linejoin="round" stroke-width="1.5" d="M40.36 28.84c0 7.953-6.447 14.4-14.4 14.4s-14.4-6.447-14.4-14.4 6.447-14.4 14.4-14.4 14.4 6.447 14.4 14.4z"/><path stroke="#2F1945" stroke-linejoin="round" stroke-width="1.5" d="M34.6 28.36a9.12 9.12 0 1 1-18.24 0 9.12 9.12 0 0 1 18.24 0zM37.48 5.8h7.68m-7.68 2.88h7.68"/><path fill="#2F1945" d="M9.64 7.72a1.92 1.92 0 1 1-3.84 0 1.92 1.92 0 0 1 3.84 0"/><path fill="#D9DBDE" d="M26 35c3.866 0 7-2.91 7-6.5S29.866 22 26 22"/></g></svg>