<svg xmlns="http://www.w3.org/2000/svg" width="41" height="61" viewBox="0 0 41 61"><g fill="none" fill-rule="evenodd" style="mix-blend-mode:multiply"><path fill="#FEFEFE" d="M39.66 38.45c0-14.84-19.531-37.143-19.531-37.143S.597 23.61.597 38.45c0 .217.01.43.016.646-.007.215-.016.43-.016.646 0 10.878 8.745 19.697 19.532 19.697S39.66 50.62 39.66 39.742c0-.216-.01-.43-.016-.646.006-.215.016-.43.016-.646"/><path stroke="#020303" stroke-width="1.2" d="M39.66 38.45c0-14.84-19.531-37.143-19.531-37.143S.597 23.61.597 38.45c0 .217.01.43.016.646-.007.215-.016.43-.016.646 0 10.878 8.745 19.697 19.532 19.697S39.66 50.62 39.66 39.742c0-.216-.01-.43-.016-.646.006-.215.016-.43.016-.646z"/><path fill="#E1E1E1" d="M36.888 38.507c0-12.733-16.759-31.869-16.76-31.87v49.88c9.256 0 16.76-7.567 16.76-16.901 0-.185-.008-.37-.014-.554.006-.185.014-.369.014-.555"/><path fill="#FEFEFE" d="M30.175 41.737H23.37V48.6h-6.482v-6.863h-6.806V35.2h6.806v-6.863h6.482V35.2h6.805z"/><path fill="#E1E1E1" d="M16.888 35.2v-6.863h3.241V48.6h-3.241v-6.864h-6.806V35.2z"/><path stroke="#020303" stroke-width="1.2" d="M30.175 41.737H23.37V48.6h-6.482v-6.863h-6.806V35.2h6.806v-6.863h6.482V35.2h6.805z"/></g></svg>