<svg xmlns="http://www.w3.org/2000/svg" xmlns:xlink="http://www.w3.org/1999/xlink" width="51" height="52" viewBox="0 0 51 52"><defs><path id="a" d="M.384 42.946c11.8 0 21.367-9.529 21.367-21.283C21.75 9.908 12.185.38.384.38v42.567z"/></defs><g fill="none" fill-rule="evenodd" style="mix-blend-mode:multiply"><path fill="#FEFEFE" d="M49.573 26.068c0 13.36-10.873 24.191-24.287 24.191C11.873 50.26 1 39.43 1 26.068 1 12.707 11.873 1.876 25.286 1.876c13.414 0 24.287 10.83 24.287 24.192"/><path stroke="#020303" stroke-width="2" d="M49.573 26.068c0 13.36-10.873 24.191-24.287 24.191C11.873 50.26 1 39.43 1 26.068 1 12.707 11.873 1.876 25.286 1.876c13.414 0 24.287 10.83 24.287 24.192z"/><path fill="#FEFEFE" d="M46.653 26.068c0 11.754-9.566 21.283-21.367 21.283-11.8 0-21.367-9.529-21.367-21.283 0-11.755 9.567-21.284 21.367-21.284s21.367 9.529 21.367 21.284"/><g transform="translate(24.902 4.405)"><mask id="b" fill="#fff"><use xlink:href="#a"/></mask><path fill="#E1E1E1" mask="url(#b)" d="M.384 50h26.727V-6.381H.384z"/></g><path stroke="#020303" stroke-width="1.2" d="M25.286 17.22v26.642m0-18.56l3.706-3.692m-3.706 8.944l3.706-3.692m-3.706 8.945l3.706-3.692m5.495-1.304c0-.043-.006-.085-.007-.127.003-.131.007-.257.007-.395 0-8.225-9.2-19.06-9.2-19.06s-9.201 10.835-9.201 19.06c0 .138.004.263.007.394-.001.043-.007.085-.007.128 0 .356.025.706.064 1.05.096 1.075.299 1.83.595 2.344a9.197 9.197 0 0 0 8.542 5.77 9.196 9.196 0 0 0 8.54-5.77c.297-.514.499-1.27.595-2.344.04-.345.065-.694.065-1.05z"/></g></svg>