<svg xmlns="http://www.w3.org/2000/svg" xmlns:xlink="http://www.w3.org/1999/xlink" width="47" height="47" viewBox="0 0 47 47"><defs><circle id="a" cx="22.5" cy="22.5" r="22.5"/></defs><g fill="none" fill-rule="evenodd" transform="translate(1 1)"><circle cx="22.5" cy="22.5" r="22.5" stroke="#472E8C"/><mask id="b" fill="#fff"><use xlink:href="#a"/></mask><g mask="url(#b)"><path fill="#472E8C" d="M30 21.597l1.134-1.128h-1.095V20H32v.403l-1.134 1.129H32V22h-2zM24 17.993l1.701-2.821h-1.642V14H27v1.007l-1.701 2.822H27V19h-3zM28.116 6v1.64h3.286L28 11.59V13h6v-1.64h-3.402L34 7.41V6zM-2.56 20.45a.657.657 0 0 0-.657.655v17.37a.656.656 0 0 0 1.314 0v-17.37a.656.656 0 0 0-.657-.654m0 19.717a1.7 1.7 0 0 1-1.702-1.693v-17.37a1.7 1.7 0 0 1 1.702-1.694 1.7 1.7 0 0 1 1.702 1.694v17.37a1.7 1.7 0 0 1-1.702 1.693"/><path fill="#472E8C" d="M3.157 28.274c-2.077 0-3.766 1.682-3.766 3.749v1.516c0 2.067 1.69 3.749 3.766 3.749h15.33c2.076 0 3.766-1.682 3.766-3.749v-1.516c0-2.067-1.69-3.749-3.767-3.749H3.157zm15.33 10.054H3.156c-2.653 0-4.811-2.148-4.811-4.789v-1.516c0-2.64 2.158-4.789 4.811-4.789h15.33c2.653 0 4.811 2.148 4.811 4.789v1.516c0 2.64-2.158 4.789-4.812 4.789z"/><path fill="#472E8C" d="M27.007 26.847c-2.046 0-3.71 1.656-3.71 3.692v1.496c0 2.035 1.664 3.691 3.71 3.691h15.124c2.045 0 3.709-1.656 3.709-3.691v-1.496c0-2.036-1.664-3.692-3.71-3.692H27.008zm15.124 9.92H27.007c-2.621 0-4.754-2.124-4.754-4.732v-1.496c0-2.61 2.133-4.732 4.754-4.732h15.124c2.621 0 4.754 2.123 4.754 4.732v1.496c0 2.608-2.133 4.731-4.754 4.731z"/><path fill="#472E8C" d="M10.573 25.619a2.849 2.849 0 0 0-2.852 2.839c0 1.566 1.28 2.84 2.852 2.84a2.85 2.85 0 0 0 2.853-2.84 2.85 2.85 0 0 0-2.853-2.84m0 6.72c-2.149 0-3.897-1.74-3.897-3.88 0-2.139 1.748-3.88 3.897-3.88 2.15 0 3.898 1.741 3.898 3.88 0 2.14-1.749 3.88-3.898 3.88m23.904-9.83a2.849 2.849 0 0 0-2.852 2.84c0 1.566 1.28 2.84 2.852 2.84a2.85 2.85 0 0 0 2.853-2.84 2.85 2.85 0 0 0-2.853-2.84m0 6.72c-2.149 0-3.897-1.741-3.897-3.88s1.748-3.88 3.897-3.88c2.15 0 3.898 1.741 3.898 3.88s-1.749 3.88-3.898 3.88"/><path fill="#FEFEFE" d="M-5.477 46.738v-9.436c0-2.192 1.784-3.968 3.986-3.968h24.267v13.6m28.252 0v-9.162c0-2.451-1.996-4.438-4.459-4.438H42.28"/><path fill="#020303" d="M51.55 46.933h-1.044v-9.16c0-2.161-1.766-3.919-3.937-3.919h-4.29v-1.04h4.29c2.747 0 4.982 2.224 4.982 4.958v9.161z"/><path fill="#472E8C" d="M51.028 48.013v-9.16c0-2.452-1.996-4.439-4.459-4.439a4.619 4.619 0 0 1-4.253-2.805c-1.225-2.883-4.285-4.925-7.865-4.925s-6.64 2.042-7.866 4.925a4.618 4.618 0 0 1-4.252 2.805h-1.731c-1.483 0-2.846-.73-3.743-1.905-1.372-1.794-3.674-2.971-6.286-2.971-2.61 0-4.914 1.177-6.285 2.971-.898 1.175-2.26 1.905-3.744 1.905h-1.562c-2.463 0-4.46 1.987-4.46 4.438v8.966"/><path fill="#FFF" d="M51.55 46.933h-1.044v-9.16c0-2.161-1.766-3.919-3.937-3.919a5.134 5.134 0 0 1-4.734-3.123c-1.172-2.756-4.14-4.607-7.384-4.607-3.244 0-6.212 1.851-7.385 4.607a5.132 5.132 0 0 1-4.733 3.123h-1.731c-1.619 0-3.135-.77-4.16-2.11-1.324-1.732-3.518-2.766-5.869-2.766-2.35 0-4.545 1.034-5.869 2.766-1.025 1.34-2.541 2.11-4.16 2.11h-1.562c-2.171 0-3.937 1.758-3.937 3.918v8.966H-6v-8.966c0-2.734 2.235-4.958 4.982-4.958H.544c1.29 0 2.503-.62 3.328-1.7 1.52-1.989 4.026-3.176 6.701-3.176s5.18 1.187 6.702 3.176c.825 1.08 2.038 1.7 3.327 1.7h1.73a4.088 4.088 0 0 0 3.772-2.488c1.354-3.185 4.631-5.242 8.347-5.242 3.716 0 6.992 2.057 8.347 5.242a4.09 4.09 0 0 0 3.771 2.488c2.747 0 4.982 2.224 4.982 4.958v9.161z"/><path fill="#2F1945" d="M45.459 34.414c-1.403 0-2.694-.866-3.123-2.195-1.032-3.2-4.265-5.535-8.094-5.535-3.828 0-7.06 2.335-8.093 5.535-.43 1.33-1.72 2.195-3.123 2.195h-.25v13.599h28.253V38.38c0-2.19-1.785-3.967-3.987-3.967H45.46z"/><path fill="#472E8C" d="M22.253 9.52a.523.523 0 0 1 1.045 0 .523.523 0 0 1-1.045 0m0 2.08a.523.523 0 0 1 1.045 0 .523.523 0 0 1-1.045 0m0 2.08a.523.523 0 0 1 1.045 0 .523.523 0 0 1-1.045 0m0 2.08a.523.523 0 0 1 1.045 0 .523.523 0 0 1-1.045 0m0 2.08a.523.523 0 0 1 1.045 0 .523.523 0 0 1-1.045 0m0 2.08a.523.523 0 0 1 1.045 0 .523.523 0 0 1-1.045 0m0 2.08a.523.523 0 0 1 1.045 0 .523.523 0 0 1-1.045 0m0 2.08a.523.523 0 0 1 1.045 0 .523.523 0 0 1-1.045 0m0 2.08a.523.523 0 0 1 1.045 0 .523.523 0 0 1-1.045 0m0 2.08a.523.523 0 0 1 1.045 0 .523.523 0 0 1-1.045 0m0 2.08a.523.523 0 0 1 1.045 0 .523.523 0 0 1-1.045 0m0 2.08a.523.523 0 0 1 1.045 0 .523.523 0 0 1-1.045 0m0 2.08a.523.523 0 0 1 1.045 0 .523.523 0 0 1-1.045 0m0 2.08a.523.523 0 0 1 1.045 0 .523.523 0 0 1-1.045 0m0 2.08a.523.523 0 0 1 1.045 0 .523.523 0 0 1-1.045 0m0 2.08a.523.523 0 0 1 1.045 0 .523.523 0 0 1-1.045 0m0 2.08a.523.523 0 0 1 1.045 0 .523.523 0 0 1-1.045 0m0 2.08a.523.523 0 0 1 1.045 0 .523.523 0 0 1-1.045 0m0 2.08a.523.523 0 0 1 1.045 0 .523.523 0 0 1-1.045 0m0 2.08a.523.523 0 0 1 1.045 0 .523.523 0 0 1-1.045 0m0 2.08a.523.523 0 0 1 1.045 0 .523.523 0 0 1-1.045 0m0 2.08a.523.523 0 0 1 1.045 0 .523.523 0 0 1-1.045 0m0 2.08a.523.523 0 0 1 1.045 0 .523.523 0 0 1-1.045 0m0 2.08a.523.523 0 0 1 1.045 0 .523.523 0 0 1-1.045 0m0 2.08a.523.523 0 0 1 1.045 0 .523.523 0 0 1-1.045 0m0 2.08a.523.523 0 0 1 1.045 0 .523.523 0 0 1-1.045 0"/></g></g></svg>