<?xml version="1.0" encoding="UTF-8"?>
<svg width="140px" height="98px" viewBox="0 0 140 98" version="1.1" xmlns="http://www.w3.org/2000/svg" xmlns:xlink="http://www.w3.org/1999/xlink">
    <!-- Generator: Sketch 48.2 (47327) - http://www.bohemiancoding.com/sketch -->
    <title>results_email_big</title>
    <desc>Created with Sketch.</desc>
    <defs></defs>
    <g id="Page-1" stroke="none" stroke-width="1" fill="none" fill-rule="evenodd">
        <g id="results_email_big" fill="#472E8C" fill-rule="nonzero">
            <path d="M4.375,17.43273 L68.700625,63.53046 C69.4728124,64.105965 70.5271874,64.105965 71.299375,63.53046 L135.625,17.43273 L135.625,86.751315 C135.625,90.03015 133.065624,92.61 129.815,92.61 L10.185,92.61 C6.93218736,92.61 4.375,90.03015 4.375,86.751315 L4.375,17.43273 Z M10.185,4.41 L129.815,4.41 C133.065624,4.41 135.625,6.91929 135.625,10.198125 L135.625,12.05694 L70,58.98375 L4.375,12.05694 L4.375,10.198125 C4.375,6.91929 6.93218736,4.41 10.185,4.41 Z M10.185,0 C4.585,0 0,4.553325 0,10.198125 L0,86.751315 C0,92.396115 4.585,97.02 10.185,97.02 L129.815,97.02 C135.412813,97.02 140,92.396115 140,86.751315 L140,10.198125 C140,4.553325 135.412813,0 129.815,0 L10.185,0 Z" id="Fill-1-Copy"></path>
        </g>
    </g>
</svg>