<?xml version="1.0" encoding="UTF-8"?>
<svg width="56px" height="39px" viewBox="0 0 56 39" version="1.1" xmlns="http://www.w3.org/2000/svg" xmlns:xlink="http://www.w3.org/1999/xlink">
    <!-- Generator: Sketch 48.2 (47327) - http://www.bohemiancoding.com/sketch -->
    <title>result_mail</title>
    <desc>Created with Sketch.</desc>
    <defs></defs>
    <g id="Page-1" stroke="none" stroke-width="1" fill="none" fill-rule="evenodd">
        <g id="result_mail" fill="#FFFFFF" fill-rule="nonzero">
            <path d="M1.74825172,7.00759085 L27.4527973,25.5379091 C27.7613635,25.76925 28.1826922,25.76925 28.4912587,25.5379091 L54.1958049,7.00759085 L54.1958049,34.8722045 C54.1958049,36.1902272 53.1730769,37.2272728 51.8741268,37.2272728 L4.06993009,37.2272728 C2.77010483,37.2272728 1.74825172,36.1902272 1.74825172,34.8722045 L1.74825172,7.00759085 Z M4.06993009,1.77272723 L51.8741268,1.77272723 C53.1730769,1.77272723 54.1958049,2.78140915 54.1958049,4.09943192 L54.1958049,4.84663638 L27.972028,23.7102272 L1.74825172,4.84663638 L1.74825172,4.09943192 C1.74825172,2.78140915 2.77010483,1.77272723 4.06993009,1.77272723 Z M4.06993009,0 C1.83216794,0 0,1.83034085 0,4.09943192 L0,34.8722045 C0,37.1412955 1.83216794,39 4.06993009,39 L51.8741268,39 C54.1110145,39 55.944056,37.1412955 55.944056,34.8722045 L55.944056,4.09943192 C55.944056,1.83034085 54.1110145,0 51.8741268,0 L4.06993009,0 Z" id="Fill-1-Copy"></path>
        </g>
    </g>
</svg>