<?xml version="1.0" encoding="UTF-8"?>
<svg width="99px" height="97px" viewBox="0 0 99 97" version="1.1" xmlns="http://www.w3.org/2000/svg" xmlns:xlink="http://www.w3.org/1999/xlink">
    <!-- Generator: Sketch 48.2 (47327) - http://www.bohemiancoding.com/sketch -->
    <title>results_phone</title>
    <desc>Created with Sketch.</desc>
    <defs>
        <polygon id="path-1" points="84.4668956 84.984375 0.00049112546 84.984375 0.00049112546 0.589977842 84.4668956 0.589977842"></polygon>
    </defs>
    <g id="Page-1" stroke="none" stroke-width="1" fill="none" fill-rule="evenodd">
        <g id="results_phone">
            <g id="Group-22" transform="translate(0.000000, 11.484376)">
                <g id="Fill-1-Clipped">
                    <mask id="mask-2" fill="white">
                        <use xlink:href="#path-1"></use>
                    </mask>
                    <g id="path-1"></g>
                    <path d="M20.6308046,4.27804454 C24.1055172,8.79255234 27.5629886,13.3208414 31.0445978,17.829607 C32.1147126,19.8290367 32.172184,20.9510602 31.8825288,21.8135368 C31.5917242,22.6817554 30.7595402,23.5109274 29.6216092,24.5295914 C25.2124138,28.476771 23.5997702,32.7880054 23.9836782,36.8121304 C24.3664368,40.8236226 26.6342528,44.4664664 29.5710344,47.3180368 C32.5411494,50.2844508 34.8135632,52.5549118 37.6997702,55.4374898 C40.5537932,58.372896 44.1986206,60.6387632 48.2147126,61.0223414 C52.24,61.4059196 56.556092,59.7935132 60.507816,55.3869586 C61.5262068,54.251154 62.356092,53.4208336 63.2250574,53.1291304 C64.0882758,52.8408726 65.2124138,52.897146 67.2124138,53.9663414 C71.7250574,57.4438102 76.2572414,60.8994586 80.7756322,64.3711852 C82.3193104,65.9135368 82.4342528,67.029818 82.0204598,68.3551148 C81.6066666,69.6804118 80.4422988,71.1676382 79.1503448,72.4917868 C70.7687356,80.866193 63.3629886,83.6970914 55.656092,82.3637554 C47.9491954,81.031568 39.7354022,75.3376148 30.3836782,65.9950758 C26.5744828,62.189154 22.385977,58.005396 19.0055172,54.6255446 C9.65494252,45.284154 3.95724138,37.076271 2.62275862,29.3759976 C1.28827586,21.6757242 4.1216092,14.2763414 12.5032184,5.90193516 C13.8296552,4.61223984 15.3170115,3.44772422 16.6434483,3.03428672 C17.9698851,2.62084922 19.0871264,2.73569296 20.6308046,4.27804454 M31.1963218,45.694146 C28.6124138,43.2674976 26.548046,39.7682086 26.269885,36.608857 C25.9549426,33.3208804 27.161839,29.818146 31.1710344,26.229279 C32.3377012,25.1853492 33.5089656,24.1368258 34.0411494,22.5496852 C34.5733334,20.961396 34.2813794,19.0458023 33.0262068,16.7133258 C29.3250574,11.931232 25.6009196,6.9504586 22.2572414,2.6541539 C20.256092,0.655872656 17.9101149,0.235544532 15.931954,0.852255468 C13.9354023,1.64352891 12.4710345,2.7276539 10.877931,4.27804454 C2.19172414,12.9567867 -1.13586207,21.2783648 0.33770115,29.7825446 C1.81011494,38.2867242 7.88942528,46.7679352 17.3802299,56.2505836 C21.1894252,60.0565054 25.377931,64.2402632 28.7583908,67.6201148 C38.2491954,77.1027632 46.7377012,83.1757008 55.2503448,84.6479976 C63.761839,86.119146 72.0894252,82.795568 80.7756322,74.1156774 C82.3273564,72.523943 83.4124138,71.0608336 84.2043678,69.0659976 C84.8216092,67.0895368 84.4009196,64.7455758 82.402069,62.7472946 C78.102069,59.404193 73.115862,55.6832554 68.3308046,51.9864352 C65.994023,50.7323414 64.0767816,50.4406382 62.4894252,50.9723648 C60.8997702,51.5040914 59.8503448,52.6743492 58.8055172,53.8400132 C55.2124138,57.8457632 51.7089656,59.0516226 48.4170114,58.7369508 C45.2549426,58.459029 41.7514942,56.3952868 39.3250574,53.8135992" id="Fill-1" fill="#472E8C" fill-rule="nonzero" mask="url(#mask-2)"></path>
                </g>
            </g>
            <path d="M45.9585058,15.0553266 C46.0251724,15.6571078 46.632069,16.1440453 47.2343678,16.0785844 C66.9274712,16.0785844 82.8665518,32.0039672 82.8665518,51.6801468 C82.8585058,52.2865218 83.4090804,52.8446624 84.015977,52.8446624 C84.6228736,52.8446624 85.1745978,52.2865218 85.1654022,51.6801468 C85.1654022,30.7625062 68.17,13.7817094 47.2343678,13.7817094 C46.3493104,13.8046781 45.9424138,14.4064594 45.9585058,15.0553266 M45.9582446,1.27407656 C46.0249116,1.87585781 46.6318112,2.36279532 47.234113,2.29733438 C74.5445924,2.29733438 96.6596438,24.3921234 96.6596438,51.6801468 C96.6515978,52.2865218 97.2021752,52.8446624 97.8090748,52.8446624 C98.4159744,52.8446624 98.9677012,52.2865218 98.9585058,51.6801468 C98.9585058,23.151811 75.7871272,0.000459375 47.234113,0.000459375 C46.343304,0.025725 45.9478998,0.605685938 45.9582446,1.27407656" id="Fill-4" fill="#472E8C" fill-rule="nonzero"></path>
        </g>
    </g>
</svg>