<?xml version="1.0" encoding="UTF-8"?>
<svg width="102px" height="98px" viewBox="0 0 102 98" version="1.1" xmlns="http://www.w3.org/2000/svg" xmlns:xlink="http://www.w3.org/1999/xlink">
    <!-- Generator: Sketch 48.2 (47327) - http://www.bohemiancoding.com/sketch -->
    <title>results_chat</title>
    <desc>Created with Sketch.</desc>
    <defs></defs>
    <g id="Page-1" stroke="none" stroke-width="1" fill="none" fill-rule="evenodd">
        <g id="results_chat" fill="#472E8C" fill-rule="nonzero">
            <path d="M28.4651155,53.7546129 C27.1557211,53.7546129 26.0930239,54.8249281 26.0930239,56.143708 C26.0930239,57.4624878 27.1557211,58.532801 28.4651155,58.532801 L66.4186056,58.532801 C67.728,58.532801 68.7906972,57.4624878 68.7906972,56.143708 C68.7906972,54.8249281 67.728,53.7546129 66.4186056,53.7546129 L28.4651155,53.7546129 Z M28.4651155,39.4200508 C27.1557211,39.4200508 26.0930239,40.490364 26.0930239,41.8091438 C26.0930239,43.1279237 27.1557211,44.1982389 28.4651155,44.1982389 L73.5348845,44.1982389 C74.8442789,44.1982389 75.9069761,43.1279237 75.9069761,41.8091438 C75.9069761,40.490364 74.8442789,39.4200508 73.5348845,39.4200508 L28.4651155,39.4200508 Z M28.4651155,25.0854867 C27.1557211,25.0854867 26.0930239,26.1557998 26.0930239,27.4745797 C26.0930239,28.7933596 27.1557211,29.8636747 28.4651155,29.8636747 L73.5348845,29.8636747 C74.8442789,29.8636747 75.9069761,28.7933596 75.9069761,27.4745797 C75.9069761,26.1557998 74.8442789,25.0854867 73.5348845,25.0854867 L28.4651155,25.0854867 Z M51,4.77818804 C76.8178606,4.77818804 97.2558148,21.8172051 97.2558148,42.2941295 C97.2558148,62.7710539 76.8178606,79.8482971 51,79.8482971 C47.3457908,79.8482971 41.6349761,79.4947131 38.398255,78.8771314 C37.8574183,78.7636494 37.2928606,78.8424904 36.8042092,79.1017065 L16.6781852,90.1512657 L23.5359064,73.763275 C23.965255,72.6941562 23.5750458,71.4697463 22.6096056,70.8521645 C11.6873028,63.8365895 4.74418524,54.1285074 4.74418524,42.2941295 C4.74418524,21.8172051 25.1821394,4.77818804 51,4.77818804 Z M51,0 C23.093512,0 0,18.651656 0,42.2941295 C0,55.3481399 7.55867532,66.0476962 18.457255,73.6139577 L9.6733944,94.6308172 C9.16102392,95.8444757 9.72202392,97.2480685 10.9270458,97.7653084 C11.6019064,98.0531936 12.3692789,98.0125787 13.009745,97.6542152 L38.4729761,83.6553194 C42.279,84.2848449 47.3410458,84.6264851 51,84.6264851 C78.906488,84.6264851 102,65.936605 102,42.2941295 C102,18.651656 78.906488,0 51,0 Z" id="Fill-1-Copy-2"></path>
        </g>
    </g>
</svg>