<svg xmlns="http://www.w3.org/2000/svg" width="56" height="56" viewBox="0 0 56 56">
  <g fill="none" fill-rule="evenodd" transform="translate(1 .03)">
    <circle cx="27" cy="27.969" r="27" stroke="#FFF" stroke-width="1.5"/>
    <path fill="#FFF" d="M16.5254865 15.5715174C16.7792112 15.3466158 17.1007312 15.2455318 17.4299643 15.284504 18.977888 15.4712453 20.5615362 15.2625821 21.3681778 15.1221202 21.9227185 15.0250958 22.3859183 14.6410581 22.5767193 14.1198061 22.6644065 13.8815078 22.7382912 13.6107328 22.7975613 13.3135704 22.8446526 13.0736484 23.0086602 12.9502367 23.1020309 12.8978679 23.2749697 12.8004376 23.4840388 12.7850111 23.673216 12.8556481 24.636152 13.2124865 25.7233116 13.3935445 26.9054658 13.3935445 28.0876199 13.3935445 29.1747795 13.2124865 30.1373096 12.8556481 30.3277046 12.7854171 30.5351499 12.8008436 30.7089006 12.8978679 30.8022713 12.9502367 30.965873 13.0736484 31.0133702 13.3139764 31.0722344 13.6107328 31.146525 13.8815078 31.2338063 14.1194001 31.4250132 14.6410581 31.8878071 15.0250958 32.4427538 15.1221202 33.2493953 15.2629881 34.8326375 15.4704334 36.3813731 15.284504 36.7118242 15.2459378 37.0321263 15.3466158 37.285039 15.5715174 37.5472889 15.8037262 37.6974939 16.1374249 37.6974939 16.4869561 37.6974939 16.8397349 37.5509425 17.1616608 37.285851 17.3938697 37.0231951 17.6244547 36.6728521 17.7300042 36.3241328 17.6837248 34.8915016 17.4933298 33.5696974 17.3837207 32.3956625 17.3585512 31.8439634 17.3447486 31.3677729 17.691844 31.2037653 18.2175616 31.1440892 18.4091745 31.0304205 18.6868508 30.8278467 18.9235252 30.3114662 19.5263751 29.6046907 20.3512849 26.9054658 20.3512849 24.2058349 20.3512849 23.4990593 19.5263751 22.9830848 18.9235252 22.780511 18.6868508 22.6664363 18.4091745 22.6067603 18.2175616 22.4427526 17.6922499 21.9689979 17.3577393 21.4152691 17.3585512 20.2412341 17.3837207 18.9194299 17.4933298 17.4867987 17.6837248 17.1388914 17.7304101 16.7881423 17.6244547 16.5246746 17.3938697 16.259583 17.1616608 16.1134376 16.8397349 16.1134376 16.4869561 16.1134376 16.1374249 16.2636426 15.8037262 16.5254865 15.5715174M15.7224986 18.3101203C16.24984 18.7721023 16.9513381 18.9832012 17.6471527 18.8910484 19.0355343 18.7063368 20.312277 18.6003814 21.4440922 18.5804894 21.5382748 18.8808994 21.7205506 19.3217715 22.057903 19.7155522 22.8263844 20.6123168 23.8977116 21.5691635 26.9054658 21.5691635 29.9132199 21.5691635 30.9849531 20.6123168 31.7526226 19.7155522 32.0899749 19.3217715 32.2726567 18.8808994 32.3692751 18.5760238 33.4986545 18.6003814 34.7753972 18.7063368 36.1637788 18.8910484 36.8591875 18.9823893 37.5610915 18.7716963 38.088433 18.3101203 38.6141505 17.8501682 38.9153725 17.1856124 38.9153725 16.4869561 38.9153725 15.7895176 38.6157744 15.123338 38.0933045 14.6601382 37.5834193 14.2078993 36.9083086 13.9943646 36.2352277 14.0751505 34.8431925 14.2428118 33.3926991 14.0511989 32.6522289 13.9225097 32.5247576 13.899776 32.4192081 13.8149305 32.3769883 13.7000439 32.3116288 13.5210158 32.2547945 13.3115406 32.2081091 13.077302 32.1041835 12.5515844 31.7745444 12.0985336 31.3036313 11.8350658 30.8185097 11.5634789 30.2387995 11.5188234 29.7138938 11.7136839 28.8873602 12.0201834 27.9426924 12.1756659 26.9054658 12.1756659 25.8682392 12.1756659 24.9235713 12.0201834 24.0966318 11.7136839 23.572538 11.5188234 22.9924218 11.5634789 22.5068942 11.8350658 22.0363871 12.0985336 21.706748 12.5515844 21.6028224 13.0764901 21.556137 13.3115406 21.4988967 13.5210158 21.4335372 13.7004499 21.3913174 13.8149305 21.2861739 13.899776 21.1591086 13.9225097 20.4182325 14.0511989 18.968145 14.2424058 17.5752979 14.0751505 16.9046527 13.9935527 16.2275122 14.2078993 15.7172211 14.6601382 15.1951571 15.123338 14.895559 15.7895176 14.895559 16.4869561 14.895559 17.1856124 15.1971869 17.8501682 15.7224986 18.3101203M37.2857698 28.4377265C37.023114 28.6683115 36.6723649 28.773861 36.3240516 28.7275816 34.8902026 28.5371865 33.5683983 28.4275775 32.3955813 28.402002 31.8609326 28.3983484 31.365256 28.7438199 31.2036841 29.2610124 31.144008 29.4526253 31.0303394 29.7307076 30.8277656 29.967382 30.311385 30.5698259 29.6050154 31.3951416 26.9053846 31.3951416 24.2057537 31.3951416 23.4989781 30.5698259 22.9830036 29.967382 22.7804298 29.7307076 22.6663551 29.4526253 22.6066791 29.2610124 22.4451072 28.7438199 21.9433412 28.402408 21.4151879 28.402002 20.2423708 28.4275775 18.9205666 28.5371865 17.4867175 28.7275816 17.1392161 28.7742669 16.7876552 28.6683115 16.5245934 28.4377265 16.2595018 28.2055176 16.1133564 27.8835917 16.1133564 27.5312188 16.1133564 27.1812817 16.2635614 26.847583 16.5254053 26.6153741 16.7783181 26.3904725 17.0982142 26.2885767 17.4294772 26.3283607 18.9786188 26.5146962 20.5622669 26.3064389 21.3676906 26.165571 21.9222313 26.0693586 22.3854311 25.6849149 22.5766381 25.1636628 22.6639194 24.9249586 22.73821 24.6541836 22.7974801 24.3574272 22.8445714 24.1175051 23.008579 23.9940934 23.1019497 23.9417247 23.2752944 23.8447003 23.4835517 23.8288679 23.6735407 23.8995049 24.6360708 24.2563433 25.7236364 24.4374012 26.9053846 24.4374012 28.0871328 24.4374012 29.1746983 24.2563433 30.1372284 23.8995049 30.3264055 23.8292739 30.5350687 23.8447003 30.7088194 23.9417247 30.8021901 23.9940934 30.9657918 24.1175051 31.0132891 24.3582391 31.0721532 24.6541836 31.1464438 24.9249586 31.2337251 25.1632569 31.4245261 25.6849149 31.8881318 26.0693586 32.4426726 26.165571 33.2485022 26.3064389 34.8317444 26.5146962 36.380886 26.3283607 36.7133668 26.2897946 37.0320451 26.3908785 37.2849578 26.6153741 37.5472077 26.847583 37.6974127 27.1812817 37.6974127 27.5312188 37.6974127 27.8835917 37.5512673 28.2055176 37.2857698 28.4377265M38.0932233 25.7044009C37.5829321 25.2517561 36.9066036 25.0382213 36.2351465 25.1190073 34.8414874 25.2870745 33.3918059 25.0950557 32.6517417 24.9659606 32.5242704 24.9440387 32.4191269 24.8587872 32.3769071 24.7439007 32.3111417 24.5648725 32.2543073 24.3549915 32.208028 24.1211588 32.1041023 23.5950352 31.7744632 23.1423903 31.3035501 22.8789226 30.8172106 22.6073357 30.2379064 22.5626801 29.7138126 22.7575407 28.886873 23.0640401 27.9417992 23.2195226 26.9053846 23.2195226 25.8685639 23.2195226 24.9234901 23.0640401 24.0969565 22.7575407 23.5716449 22.5626801 22.9927466 22.6073357 22.507219 22.8789226 22.036306 23.1423903 21.7066668 23.5950352 21.6027412 24.1207528 21.5560558 24.3549915 21.4992215 24.5648725 21.433456 24.7443066 21.3912363 24.8587872 21.2860927 24.9440387 21.1586214 24.9659606 20.4189632 25.0954616 18.9696877 25.2874805 17.5748107 25.1190073 16.9037596 25.0374094 16.2270251 25.2517561 15.7171399 25.7044009 15.1950759 26.1676008 14.8954778 26.8333744 14.8954778 27.5312188 14.8954778 28.2294692 15.1966998 28.893619 15.7220114 29.3539771 16.2493528 29.8155531 16.950039 30.0266521 17.6470715 29.9349052 19.036671 29.7501936 20.3130077 29.6442382 21.444011 29.6243462 21.5377876 29.9247562 21.7204694 30.3656283 22.0578218 30.759409 22.8258972 31.6561736 23.8972244 32.6130202 26.9053846 32.6130202 29.9135447 32.6130202 30.9848719 31.6561736 31.7525414 30.759409 32.0898937 30.3656283 32.2721696 29.9247562 32.3691939 29.6198806 33.4973554 29.6442382 34.7740982 29.7501936 36.1632917 29.9349052 36.8599182 30.0282759 37.5610103 29.8159591 38.0883518 29.3539771 38.6136634 28.893619 38.9152913 28.2294692 38.9152913 27.5312188 38.9152913 26.8333744 38.6152872 26.1676008 38.0932233 25.7044009"/>
    <path fill="#FFF" d="M37.2857698,38.4284208 C37.022708,38.6585999 36.671147,38.7641493 36.3240516,38.7182759 C34.8946681,38.5278809 33.5728639,38.4186778 32.3955813,38.3926964 C31.8609326,38.386201 31.365256,38.7345143 31.2036841,39.2517067 C31.144008,39.4433196 31.0303394,39.7214019 30.8277656,39.9580763 C30.311385,40.5605203 29.6050154,41.385836 26.9053846,41.385836 C24.2057537,41.385836 23.4989781,40.5605203 22.9830036,39.9580763 C22.7804298,39.7214019 22.6663551,39.4433196 22.6066791,39.2517067 C22.4451072,38.7345143 21.9433412,38.3939142 21.4151879,38.3926964 C20.2374993,38.4186778 18.915695,38.5278809 17.4867175,38.7182759 C17.1392161,38.7649613 16.7876552,38.6590058 16.5245934,38.4284208 C16.2595018,38.1962119 16.1133564,37.874286 16.1133564,37.5215072 C16.1133564,37.1715701 16.2635614,36.8382773 16.5254053,36.6060685 C16.77913,36.3811669 17.10065,36.280083 17.4298832,36.3190551 C18.9786188,36.5057965 20.5618609,36.2971333 21.3680966,36.1562653 C21.9226373,36.059241 22.3858371,35.6752033 22.5766381,35.1539512 C22.6643253,34.915653 22.7386159,34.644472 22.7974801,34.3477156 C22.8445714,34.1077935 23.008579,33.9847878 23.1019497,33.932419 C23.2752944,33.8353947 23.4835517,33.8195622 23.6735407,33.8897932 C24.6360708,34.2470376 25.7236364,34.4280956 26.9053846,34.4280956 C28.0871328,34.4280956 29.1746983,34.2470376 30.1372284,33.8897932 C30.3264055,33.8195622 30.5350687,33.8353947 30.7088194,33.932419 C30.8021901,33.9847878 30.9657918,34.1077935 31.0132891,34.3481216 C31.0717472,34.644472 31.1464438,34.915653 31.2337251,35.1535453 C31.4245261,35.6752033 31.8877259,36.059241 32.4426726,36.1562653 C33.2489082,36.2967273 34.8325563,36.5053905 36.380886,36.3190551 C36.711743,36.2804889 37.0320451,36.3811669 37.2849578,36.6060685 C37.5472077,36.8382773 37.6974127,37.1715701 37.6974127,37.5215072 C37.6974127,37.874286 37.5508613,38.1962119 37.2857698,38.4284208 M38.0932233,35.6950953 C37.5829321,35.2424504 36.9057916,35.0301336 36.2355525,35.1097016 C34.8418934,35.2777689 33.3918059,35.08575 32.6521477,34.9566549 C32.5242704,34.9347331 32.4191269,34.8494816 32.3769071,34.7341891 C32.3111417,34.554755 32.2543073,34.3452798 32.208028,34.1114471 C32.1036964,33.5853236 31.7744632,33.1326787 31.3035501,32.8696169 C30.8172106,32.59803 30.2379064,32.5529685 29.7138126,32.748235 C28.886873,33.0547345 27.9417992,33.210217 26.9053846,33.210217 C25.8685639,33.210217 24.9234901,33.0547345 24.0969565,32.748235 C23.5716449,32.5529685 22.9927466,32.59803 22.507219,32.8696169 C22.036306,33.1326787 21.7066668,33.5853236 21.6027412,34.1110412 C21.5560558,34.3452798 21.4992215,34.554755 21.4330501,34.734595 C21.3912363,34.8494816 21.2856868,34.9347331 21.1586214,34.9566549 C20.4185572,35.08575 18.9684698,35.2773629 17.5752167,35.1097016 C16.9049775,35.0301336 16.227431,35.2420444 15.7171399,35.6950953 C15.1950759,36.1578891 14.8954778,36.8236628 14.8954778,37.5215072 C14.8954778,38.2197576 15.1966998,38.8843134 15.7220114,39.3446715 C16.2493528,39.8062474 16.9504449,40.0189702 17.6474775,39.9255996 C19.0127194,39.7433237 20.3247806,39.6349325 21.444011,39.6150405 C21.5377876,39.9154506 21.7204694,40.3563226 22.0578218,40.7501034 C22.8258972,41.646868 23.8972244,42.6037146 26.9053846,42.6037146 C29.9135447,42.6037146 30.9848719,41.646868 31.7525414,40.7501034 C32.0898937,40.3563226 32.2721696,39.9154506 32.3691939,39.610575 C33.4859886,39.6349325 34.7976438,39.7433237 36.1632917,39.9255996 C36.8599182,40.0185643 37.5610103,39.8066534 38.0883518,39.3446715 C38.6136634,38.8843134 38.9152913,38.2197576 38.9152913,37.5215072 C38.9152913,36.8236628 38.6152872,36.1578891 38.0932233,35.6950953"/>
  </g>
</svg>
