<svg xmlns="http://www.w3.org/2000/svg" width="56" height="56" viewBox="0 0 56 56">
  <g fill="none" fill-rule="evenodd" transform="translate(1 1)">
    <circle cx="27" cy="27" r="27" stroke="#FFF" stroke-width="1.5"/>
    <path fill="#FFF" d="M26.5146229,38.2587574 C24.5385116,37.0986563 14.4209538,30.860467 14.4209538,24.7829804 C14.4209538,21.2701788 17.2967703,18.4121144 20.8313905,18.4121144 C22.849802,18.4121144 24.7098126,19.3289252 25.9347196,20.9279028 L26.4999229,21.6661218 L27.0654261,20.928201 C28.2900331,19.3292233 30.1500437,18.4124125 32.1690553,18.4124125 C35.7033754,18.4124125 38.5791919,21.270477 38.5791919,24.7832785 C38.5788919,31.4004164 28.5003343,37.1839272 26.5146229,38.2587574 M32.1690553,17.0000767 C29.9958428,17.0000767 27.9732313,17.8697798 26.4999229,19.4124071 C25.0263144,17.8697798 23.0043029,17.0000767 20.8310905,17.0000767 C16.5131658,17.0000767 12.9998457,20.4917096 12.9998457,24.7829804 C12.9998457,32.3112642 25.6170178,39.3857638 26.1540209,39.6833174 L26.4843228,39.8663814 L26.8215247,39.6961378 C27.3597278,39.4245233 40,32.95169 40,24.7829804 C40,20.4917096 36.4866799,17.0000767 32.1690553,17.0000767"/>
  </g>
</svg>
