<?xml version="1.0" encoding="utf-8"?>
<!-- Generator: Adobe Illustrator 21.1.0, SVG Export Plug-In . SVG Version: 6.00 Build 0)  -->
<svg version="1.1" id="Layer_1" xmlns="http://www.w3.org/2000/svg" xmlns:xlink="http://www.w3.org/1999/xlink" x="0px" y="0px"
	 viewBox="0 0 32.1 22.2" style="enable-background:new 0 0 32.1 22.2;" xml:space="preserve">
<style type="text/css">
	.st0{fill:#472e8c;stroke:#472e8c;stroke-width:0.5;}
</style>
<g transform="translate(1 1)">
	<polygon class="st0" points="0.4,19.9 1.3,20.9 7.5,14.7 6.6,13.8 	"/>
	<polygon class="st0" points="0.4,14.7 6.6,20.9 7.5,19.9 1.3,13.8 	"/>
	<polygon class="st0" points="7.1,-0.6 2.6,5.2 0.3,2.9 -0.6,3.8 2.2,6.6 3.1,6.6 8.1,0.2 	"/>
	<polygon class="st0" points="13.8,15.4 30.8,15.4 30.8,14 13.8,14 	"/>
	<polygon class="st0" points="13.8,2.2 30.8,2.2 30.8,0.9 13.8,0.9 	"/>
	<polygon class="st0" points="13.8,20.6 21.6,20.6 21.6,19.3 13.8,19.3 	"/>
	<polygon class="st0" points="13.8,7.5 22.9,7.5 22.9,6.2 13.8,6.2 	"/>
</g>
</svg>
