<svg xmlns="http://www.w3.org/2000/svg" width="40" height="28" viewBox="0 0 40 28">
    <path fill="red" d="M8.119 8.297s12.458 11.835 24.63 14.56c0 0-1.369-2.697-2.082-3.899.235.658.406 1.335.511 2.024l-3.214-3.615s.865 2.694 1.157 3.225c0 0-3.456-4.522-4.14-4.901-.686-.38-6.376-3.935-9.547-7.394l.93 3.46-4.472-7.504c-.385-.506-.866-.934-1.416-1.262C9.369 2.254 7.733.71 4.685.354c0 0-2.653-.248-4.036 3.084l3.499 4.253S.72 5.178.105 4.406c-.27 1.951-.014 3.939.742 5.763l8.458 2.782-6.516.38c.622 1.51 1.602 2.855 2.858 3.92l5.802-.674-4.916 1.64c2.902 2.65 6.285 4.738 9.972 6.157l7.567-2.024c-1.204 1.235-2.608 2.265-4.155 3.048 0 0 3.964 1.914 7.207 1.773l4.642-2.36-2.386 2.81.955.085 2.415-2.432 7.03.872-.958-.942s-6.03-.83-10.786-2.754c-4.757-1.925-7.568-3.346-12.029-6.55-4.461-3.204-7.888-7.603-7.888-7.603z"/>
</svg>
