<svg xmlns="http://www.w3.org/2000/svg" xmlns:xlink="http://www.w3.org/1999/xlink" viewBox="0 0 40 30"><defs><style>.cls-1{fill:none;}.cls-2{isolation:isolate;}.cls-3{clip-path:url(#clip-path);}.cls-4{mix-blend-mode:multiply;}.cls-5{fill:#300d45;}.cls-6{fill:#a997bf;}</style><clipPath id="clip-path"><path class="cls-1" d="M6.89,15A13.11,13.11,0,1,0,20,1.89,13.12,13.12,0,0,0,6.89,15"/></clipPath></defs><title>20-0769 NZ_SH Masterbrand Icons for Web_40x30px_purple</title><g class="cls-2"><g id="Layer_1" data-name="Layer 1"><path class="cls-5" d="M20,30A15,15,0,1,1,35,15,15,15,0,0,1,20,30ZM20,.6A14.4,14.4,0,1,0,34.4,15,14.42,14.42,0,0,0,20,.6Z"/><polygon class="cls-6" points="19.34 21.53 19.46 27.05 28.58 22.8 28.81 17.86 28.27 17.77 19.34 21.53"/><path class="cls-5" d="M20.4,15.3,28,17.8l-8.69,3.56L12,17.78,20.4,15.3m0-.37L11,17.7l8.28,4.05,9.72-4-8.59-2.83Z"/><polygon class="cls-5" points="11.96 22.53 11.39 17.71 11 17.7 11.59 22.44 11.96 22.53"/><path class="cls-5" d="M29,17.76l-.36.07c-.06.84-.12,2.81-.28,5.23l.37-.17C28.75,22.57,29,17.76,29,17.76Z"/><polygon class="cls-5" points="19.72 27.09 19.55 21.4 19.19 21.41 19.36 27.08 19.72 27.09"/><path class="cls-5" d="M11.92,18.2a.19.19,0,1,0,0,.38.19.19,0,1,0,0-.38"/><path class="cls-5" d="M12.78,18.2a.19.19,0,1,0,0,.38.19.19,0,1,0,0-.38"/><path class="cls-5" d="M11.48,18.85a.2.2,0,0,0-.19.2.2.2,0,0,0,.19.19.19.19,0,0,0,.19-.19.19.19,0,0,0-.19-.2"/><path class="cls-5" d="M12.35,18.85a.2.2,0,1,0,0,.39.2.2,0,0,0,.19-.19.2.2,0,0,0-.19-.2"/><path class="cls-5" d="M13.21,18.85a.2.2,0,0,0-.19.2.2.2,0,0,0,.19.19.19.19,0,0,0,.19-.19.19.19,0,0,0-.19-.2"/><path class="cls-5" d="M14.08,18.85a.2.2,0,1,0,0,.39.2.2,0,0,0,.19-.19.2.2,0,0,0-.19-.2"/><path class="cls-5" d="M11.92,19.51a.2.2,0,1,0,.19.19.2.2,0,0,0-.19-.19"/><path class="cls-5" d="M12.78,19.51a.2.2,0,0,0-.19.19.2.2,0,1,0,.19-.19"/><path class="cls-5" d="M13.65,19.51a.2.2,0,1,0,.19.19.2.2,0,0,0-.19-.19"/><path class="cls-5" d="M14.51,19.51a.2.2,0,0,0-.19.19.2.2,0,0,0,.19.2.19.19,0,0,0,.19-.2.19.19,0,0,0-.19-.19"/><path class="cls-5" d="M15.38,19.51a.2.2,0,1,0,.19.19.2.2,0,0,0-.19-.19"/><path class="cls-5" d="M12.35,20.17a.19.19,0,1,0,0,.38.19.19,0,0,0,0-.38"/><path class="cls-5" d="M13.21,20.17a.19.19,0,1,0,0,.38.19.19,0,1,0,0-.38"/><path class="cls-5" d="M14.08,20.17a.19.19,0,1,0,0,.38.19.19,0,1,0,0-.38"/><path class="cls-5" d="M14.94,20.17a.19.19,0,1,0,0,.38.19.19,0,0,0,0-.38"/><path class="cls-5" d="M15.81,20.17a.19.19,0,1,0,0,.38.19.19,0,1,0,0-.38"/><path class="cls-5" d="M16.67,20.17a.19.19,0,0,0,0,.38.19.19,0,0,0,0-.38"/><path class="cls-5" d="M11.92,20.82a.2.2,0,1,0,0,.39.2.2,0,0,0,.19-.19.2.2,0,0,0-.19-.2"/><path class="cls-5" d="M12.78,20.82a.2.2,0,0,0-.19.2.2.2,0,0,0,.19.19.2.2,0,1,0,0-.39"/><path class="cls-5" d="M13.65,20.82a.2.2,0,1,0,0,.39.2.2,0,0,0,.19-.19.2.2,0,0,0-.19-.2"/><path class="cls-5" d="M14.51,20.82a.2.2,0,0,0-.19.2.2.2,0,0,0,.19.19A.19.19,0,0,0,14.7,21a.19.19,0,0,0-.19-.2"/><path class="cls-5" d="M15.38,20.82a.2.2,0,1,0,0,.39.2.2,0,0,0,.19-.19.2.2,0,0,0-.19-.2"/><path class="cls-5" d="M16.24,20.82a.2.2,0,0,0-.19.2.2.2,0,0,0,.19.19.19.19,0,0,0,.19-.19.19.19,0,0,0-.19-.2"/><path class="cls-5" d="M17.11,20.82a.2.2,0,1,0,0,.39A.2.2,0,0,0,17.3,21a.2.2,0,0,0-.19-.2"/><path class="cls-5" d="M18,20.82a.2.2,0,0,0-.19.2.2.2,0,0,0,.19.19.19.19,0,0,0,.19-.19.19.19,0,0,0-.19-.2"/><path class="cls-5" d="M12.35,21.48a.2.2,0,1,0,.19.19.2.2,0,0,0-.19-.19"/><path class="cls-5" d="M13.21,21.48a.2.2,0,0,0-.19.19.2.2,0,0,0,.19.2.19.19,0,0,0,.19-.2.19.19,0,0,0-.19-.19"/><path class="cls-5" d="M14.08,21.48a.2.2,0,1,0,.19.19.2.2,0,0,0-.19-.19"/><path class="cls-5" d="M14.94,21.48a.2.2,0,0,0-.19.19.2.2,0,0,0,.19.2.19.19,0,0,0,.19-.2.19.19,0,0,0-.19-.19"/><path class="cls-5" d="M15.81,21.48a.2.2,0,1,0,.19.19.2.2,0,0,0-.19-.19"/><path class="cls-5" d="M16.67,21.48a.2.2,0,0,0-.19.19.2.2,0,0,0,.19.2.19.19,0,0,0,.19-.2.19.19,0,0,0-.19-.19"/><path class="cls-5" d="M17.54,21.48a.2.2,0,1,0,.19.19.2.2,0,0,0-.19-.19"/><path class="cls-5" d="M18.4,21.48a.2.2,0,0,0-.19.19.2.2,0,0,0,.19.2.19.19,0,0,0,.19-.2.19.19,0,0,0-.19-.19"/><path class="cls-5" d="M19.27,21.48a.2.2,0,1,0,.19.19.2.2,0,0,0-.19-.19"/><path class="cls-5" d="M11.92,22.14a.2.2,0,0,0-.2.19.19.19,0,0,0,.2.19.19.19,0,0,0,.19-.19.2.2,0,0,0-.19-.19"/><path class="cls-5" d="M12.78,22.14a.2.2,0,0,0-.19.19.19.19,0,0,0,.19.19.19.19,0,0,0,.2-.19.2.2,0,0,0-.2-.19"/><path class="cls-5" d="M13.65,22.14a.2.2,0,0,0-.2.19.19.19,0,0,0,.2.19.19.19,0,0,0,.19-.19.2.2,0,0,0-.19-.19"/><path class="cls-5" d="M14.51,22.14a.2.2,0,0,0-.19.19.19.19,0,0,0,.19.19.18.18,0,0,0,.19-.19.19.19,0,0,0-.19-.19"/><path class="cls-5" d="M15.38,22.14a.2.2,0,0,0-.2.19.19.19,0,0,0,.2.19.19.19,0,0,0,.19-.19.2.2,0,0,0-.19-.19"/><path class="cls-5" d="M16.24,22.14a.2.2,0,0,0-.19.19.19.19,0,0,0,.19.19.18.18,0,0,0,.19-.19.19.19,0,0,0-.19-.19"/><path class="cls-5" d="M17.11,22.14a.2.2,0,0,0-.2.19.19.19,0,0,0,.2.19.19.19,0,0,0,.19-.19.2.2,0,0,0-.19-.19"/><path class="cls-5" d="M18,22.14a.2.2,0,0,0-.19.19.19.19,0,0,0,.19.19.18.18,0,0,0,.19-.19.19.19,0,0,0-.19-.19"/><path class="cls-5" d="M18.84,22.14a.2.2,0,0,0-.2.19.19.19,0,0,0,.2.19.19.19,0,0,0,.19-.19.2.2,0,0,0-.19-.19"/><path class="cls-5" d="M13.21,22.8a.19.19,0,1,0,0,.38.19.19,0,1,0,0-.38"/><path class="cls-5" d="M14.08,22.8a.19.19,0,1,0,0,.38.19.19,0,1,0,0-.38"/><path class="cls-5" d="M14.94,22.8a.19.19,0,1,0,0,.38.19.19,0,0,0,0-.38"/><path class="cls-5" d="M15.81,22.8a.19.19,0,1,0,0,.38.19.19,0,1,0,0-.38"/><path class="cls-5" d="M16.67,22.8a.19.19,0,0,0,0,.38.19.19,0,0,0,0-.38"/><path class="cls-5" d="M17.54,22.8a.19.19,0,1,0,0,.38.19.19,0,0,0,0-.38"/><path class="cls-5" d="M18.4,22.8a.19.19,0,0,0,0,.38.19.19,0,0,0,0-.38"/><path class="cls-5" d="M19.27,22.8a.19.19,0,1,0,0,.38.19.19,0,0,0,0-.38"/><path class="cls-5" d="M14.51,23.45a.2.2,0,0,0-.19.2.2.2,0,0,0,.19.19.19.19,0,0,0,.19-.19.19.19,0,0,0-.19-.2"/><path class="cls-5" d="M15.38,23.45a.2.2,0,1,0,0,.39.2.2,0,0,0,.19-.19.2.2,0,0,0-.19-.2"/><path class="cls-5" d="M16.24,23.45a.2.2,0,0,0-.19.2.2.2,0,0,0,.19.19.19.19,0,0,0,.19-.19.19.19,0,0,0-.19-.2"/><path class="cls-5" d="M17.11,23.45a.2.2,0,1,0,0,.39.2.2,0,0,0,.19-.19.2.2,0,0,0-.19-.2"/><path class="cls-5" d="M18,23.45a.2.2,0,0,0-.19.2.2.2,0,0,0,.19.19.19.19,0,0,0,.19-.19.19.19,0,0,0-.19-.2"/><path class="cls-5" d="M18.84,23.45a.2.2,0,1,0,0,.39.2.2,0,0,0,.19-.19.2.2,0,0,0-.19-.2"/><path class="cls-5" d="M15.81,24.11a.2.2,0,1,0,.19.19.2.2,0,0,0-.19-.19"/><path class="cls-5" d="M16.67,24.11a.2.2,0,0,0-.19.19.2.2,0,0,0,.19.2.19.19,0,0,0,.19-.2.19.19,0,0,0-.19-.19"/><path class="cls-5" d="M17.54,24.11a.2.2,0,1,0,.19.19.2.2,0,0,0-.19-.19"/><path class="cls-5" d="M18.4,24.11a.2.2,0,0,0-.19.19.2.2,0,0,0,.19.2.19.19,0,0,0,.19-.2.19.19,0,0,0-.19-.19"/><path class="cls-5" d="M19.27,24.11a.2.2,0,1,0,.19.19.2.2,0,0,0-.19-.19"/><path class="cls-5" d="M16.24,24.77a.19.19,0,1,0,0,.38.19.19,0,1,0,0-.38"/><path class="cls-5" d="M17.11,24.77a.19.19,0,1,0,0,.38.19.19,0,1,0,0-.38"/><path class="cls-5" d="M18,24.77a.19.19,0,0,0,0,.38.19.19,0,1,0,0-.38"/><path class="cls-5" d="M18.84,24.77a.19.19,0,1,0,0,.38.19.19,0,1,0,0-.38"/><path class="cls-5" d="M17.54,25.42a.2.2,0,1,0,0,.39.2.2,0,0,0,.19-.19.2.2,0,0,0-.19-.2"/><path class="cls-5" d="M18.4,25.42a.2.2,0,0,0-.19.2.2.2,0,0,0,.19.19.19.19,0,0,0,.19-.19.19.19,0,0,0-.19-.2"/><path class="cls-5" d="M19.27,25.42a.2.2,0,1,0,0,.39.2.2,0,0,0,.19-.19.2.2,0,0,0-.19-.2"/><path class="cls-5" d="M18.84,26.08a.2.2,0,1,0,.19.19.2.2,0,0,0-.19-.19"/><polygon class="cls-5" points="11.59 22.44 19.54 27.28 19.54 26.77 11.64 22.05 11.59 22.44"/><polygon class="cls-5" points="19.54 27.28 28.52 22.99 28.52 22.52 19.54 26.77 19.54 27.28"/><path class="cls-5" d="M18,8.35a.83.83,0,0,1-.8.64.2.2,0,0,0-.19.19.19.19,0,0,0,.19.19,1.21,1.21,0,0,0,1.19-1,1.59,1.59,0,0,0,1-.47.19.19,0,0,0,0-.27.19.19,0,0,0-.26,0A1.22,1.22,0,0,1,17,6.75a.2.2,0,0,0-.19-.19.19.19,0,0,0-.19.19A1.62,1.62,0,0,0,18,8.35Zm0,0"/><path class="cls-5" d="M18.79,10a.2.2,0,0,0-.19-.19A1.61,1.61,0,0,0,17,11.41v0h-.21a.18.18,0,0,0-.19.19.19.19,0,0,0,.19.19A1.22,1.22,0,0,1,18,13a.19.19,0,0,0,.19.19.18.18,0,0,0,.19-.19,1.62,1.62,0,0,0-1-1.49.49.49,0,0,1,0-.12,1.23,1.23,0,0,1,1.23-1.23.2.2,0,0,0,.19-.19Zm0,0"/><path class="cls-5" d="M25.26,8.37a1.62,1.62,0,0,0-.48-1.14,1.51,1.51,0,0,0,.07-.48,1.6,1.6,0,0,0-1.3-1.57,1.13,1.13,0,0,0,.09-.45,1.2,1.2,0,0,0-.73-1.1,3.67,3.67,0,0,0-2.09-.91,1,1,0,0,0-.81.42,1,1,0,0,0-.81-.42,3.67,3.67,0,0,0-2.09.91,1.2,1.2,0,0,0-.73,1.1,1.13,1.13,0,0,0,.09.45,1.6,1.6,0,0,0-1.3,1.57,1.51,1.51,0,0,0,.07.48,1.61,1.61,0,0,0-.47,1.14,1.58,1.58,0,0,0,.28.91,1.55,1.55,0,0,0-.28.91,1.58,1.58,0,0,0,.82,1.4,1.62,1.62,0,0,0,0,.22,1.81,1.81,0,0,0,1.25,1.72,1.83,1.83,0,0,0,1.56.9,1.81,1.81,0,0,0,1.62-1,1.81,1.81,0,0,0,1.62,1,1.83,1.83,0,0,0,1.56-.9,1.82,1.82,0,0,0,1.26-1.72,1.64,1.64,0,0,0,0-.22,1.59,1.59,0,0,0,.83-1.4A1.56,1.56,0,0,0,25,9.28a1.59,1.59,0,0,0,.29-.91Zm-6.87,5.68a1.43,1.43,0,0,1-1.26-.77.22.22,0,0,0-.12-.09A1.44,1.44,0,0,1,16,11.81a1.43,1.43,0,0,1,0-.29.18.18,0,0,0-.11-.21,1.22,1.22,0,0,1-.72-1.12,1.16,1.16,0,0,1,.16-.61,1.6,1.6,0,0,0,1.06.4.19.19,0,0,0,.19-.19.18.18,0,0,0-.19-.19,1.23,1.23,0,0,1-.78-2.17.2.2,0,0,0,.05-.22,1.18,1.18,0,0,1-.09-.46,1.23,1.23,0,0,1,2.45,0,.19.19,0,0,0,.19.19.18.18,0,0,0,.19-.19,1.61,1.61,0,0,0-1.5-1.6.76.76,0,0,1-.12-.42.81.81,0,0,1,.5-.75l0,0a.93.93,0,0,1,.29,0,.81.81,0,0,1,.74.46.19.19,0,0,0,.26.09.2.2,0,0,0,.09-.25,1.23,1.23,0,0,0-.81-.65A2.82,2.82,0,0,1,19.2,3.1a.62.62,0,0,1,.62.62V6.17A1,1,0,0,0,19.2,6a.19.19,0,0,0-.19.19.2.2,0,0,0,.19.19.62.62,0,0,1,.62.62v4.55a1.84,1.84,0,0,0-1-.64.2.2,0,0,0-.23.14.19.19,0,0,0,.13.23,1.43,1.43,0,0,1-.37,2.81Zm5.76-2.74a.19.19,0,0,0-.11.21,1.43,1.43,0,0,1,0,.29A1.44,1.44,0,0,1,23,13.19a.22.22,0,0,0-.12.09,1.42,1.42,0,0,1-2.69-.66.86.86,0,0,0,0-.16.09.09,0,0,0,0-.05V6.15a.62.62,0,0,1,.62-.62A.2.2,0,0,0,21,5.34a.19.19,0,0,0-.19-.19,1,1,0,0,0-.62.22V3.72a.62.62,0,0,1,.62-.62,2.79,2.79,0,0,1,1.34.46,1.24,1.24,0,0,0-.8.65.18.18,0,0,0,.08.25.19.19,0,0,0,.26-.09.82.82,0,0,1,.74-.46.93.93,0,0,1,.29,0l0,0a.81.81,0,0,1,.5.75.76.76,0,0,1-.12.42,1.61,1.61,0,0,0-1.5,1.6.19.19,0,0,0,.19.19A.18.18,0,0,0,22,6.75a1.23,1.23,0,0,1,2.45,0,1.18,1.18,0,0,1-.09.46.19.19,0,0,0,.06.22,1.23,1.23,0,0,1-.79,2.17.19.19,0,0,0-.19.19.2.2,0,0,0,.19.19,1.58,1.58,0,0,0,1.06-.4,1.17,1.17,0,0,1,.17.61,1.23,1.23,0,0,1-.73,1.12Zm0,0"/><path class="cls-5" d="M23.25,8.79a.83.83,0,0,1-.81-.65,1.6,1.6,0,0,0,1.4-1.59.19.19,0,0,0-.19-.19.2.2,0,0,0-.19.19,1.23,1.23,0,0,1-1.22,1.23,1.2,1.2,0,0,1-.88-.37.19.19,0,0,0-.27,0,.2.2,0,0,0,0,.27,1.62,1.62,0,0,0,1,.47,1.21,1.21,0,0,0,1.19,1A.2.2,0,0,0,23.44,9a.19.19,0,0,0-.19-.19Zm0,0"/><path class="cls-5" d="M22.64,11l-.22,0v0a1.6,1.6,0,0,0-1.6-1.6.19.19,0,1,0,0,.37A1.23,1.23,0,0,1,22.05,11s0,.09,0,.13a1.62,1.62,0,0,0-1,1.49.2.2,0,0,0,.19.19.19.19,0,0,0,.19-.19,1.23,1.23,0,0,1,1.23-1.23.19.19,0,0,0,.19-.19.2.2,0,0,0-.19-.19Zm0,0"/></g></g></svg>