<svg xmlns="http://www.w3.org/2000/svg" xmlns:xlink="http://www.w3.org/1999/xlink" viewBox="0 0 40 30"><defs><clipPath id="clip-path"><path class="cls-1" d="M6.89,15A13.11,13.11,0,1,0,20,1.89,13.12,13.12,0,0,0,6.89,15"/></clipPath></defs><title>20-0769 NZ_SH Masterbrand Icons for Web_40x30px_purple</title><g class="cls-2"><g id="Layer_1" data-name="Layer 1"><path class="cls-3" d="M21.89,14.65h-.43V9a.21.21,0,0,1,.21-.22H23l-3-3.64-3,3.64h1.29a.22.22,0,0,1,.22.22V14.3H18v-5H16.42a.22.22,0,0,1-.17-.36l3.5-4.2a.23.23,0,0,1,.34,0l3.5,4.2a.2.2,0,0,1,0,.23.21.21,0,0,1-.19.13H21.89Z"/><rect class="cls-3" x="19.7" y="10.09" width="0.44" height="3.85"/><polygon class="cls-4" points="19.19 18.31 19.34 25.1 30.56 19.86 30.84 13.79 30.17 13.68 19.19 18.31"/><path class="cls-3" d="M21.82,10.62c0,.15,0,.3,0,.45l8,2.65L19.13,18.09l-9-4.4L18,11.39c0-.16,0-.31.05-.47L8.93,13.59l10.19,5,12-4.9Z"/><polygon class="cls-3" points="10.11 19.54 9.4 13.61 8.93 13.59 9.65 19.43 10.11 19.54"/><path class="cls-3" d="M31.07,13.67l-.44.08c-.07,1-.15,3.46-.34,6.44l.45-.21C30.77,19.59,31.07,13.67,31.07,13.67Z"/><polygon class="cls-3" points="19.65 25.15 19.44 18.14 19.01 18.16 19.21 25.14 19.65 25.15"/><path class="cls-3" d="M10.06,14.21a.23.23,0,0,0-.24.23.24.24,0,1,0,.47,0,.23.23,0,0,0-.23-.23"/><path class="cls-3" d="M11.12,14.21a.23.23,0,0,0-.24.23.24.24,0,0,0,.48,0,.23.23,0,0,0-.24-.23"/><path class="cls-3" d="M9.52,15a.24.24,0,1,0,.24.24A.24.24,0,0,0,9.52,15"/><path class="cls-3" d="M10.58,15a.24.24,0,0,0,0,.48.24.24,0,0,0,0-.48"/><path class="cls-3" d="M11.65,15a.24.24,0,1,0,.24.24.24.24,0,0,0-.24-.24"/><path class="cls-3" d="M12.71,15a.24.24,0,0,0,0,.48.24.24,0,0,0,0-.48"/><path class="cls-3" d="M10.06,15.82a.24.24,0,1,0,.23.24.24.24,0,0,0-.23-.24"/><path class="cls-3" d="M11.12,15.82a.24.24,0,1,0,.24.24.24.24,0,0,0-.24-.24"/><path class="cls-3" d="M12.18,15.82a.24.24,0,0,0,0,.48.24.24,0,0,0,0-.48"/><path class="cls-3" d="M13.25,15.82a.24.24,0,0,0,0,.48.24.24,0,0,0,0-.48"/><path class="cls-3" d="M14.31,15.82a.24.24,0,0,0,0,.48.24.24,0,1,0,0-.48"/><path class="cls-3" d="M10.58,16.63a.24.24,0,0,0,0,.48.24.24,0,0,0,0-.48"/><path class="cls-3" d="M11.65,16.63a.24.24,0,1,0,.24.24.24.24,0,0,0-.24-.24"/><path class="cls-3" d="M12.71,16.63a.24.24,0,0,0,0,.48.24.24,0,0,0,0-.48"/><path class="cls-3" d="M13.78,16.63a.24.24,0,0,0,0,.48.24.24,0,0,0,0-.48"/><path class="cls-3" d="M14.84,16.63a.24.24,0,1,0,.24.24.24.24,0,0,0-.24-.24"/><path class="cls-3" d="M15.91,16.63a.24.24,0,1,0,.23.24.24.24,0,0,0-.23-.24"/><path class="cls-3" d="M10.06,17.44a.24.24,0,0,0-.24.24.23.23,0,0,0,.24.23.23.23,0,0,0,.23-.23.23.23,0,0,0-.23-.24"/><path class="cls-3" d="M11.12,17.44a.24.24,0,0,0-.24.24.24.24,0,0,0,.48,0,.24.24,0,0,0-.24-.24"/><path class="cls-3" d="M12.18,17.44a.23.23,0,0,0-.23.24.23.23,0,0,0,.23.23.23.23,0,0,0,.24-.23.24.24,0,0,0-.24-.24"/><path class="cls-3" d="M13.25,17.44a.24.24,0,0,0-.24.24.23.23,0,0,0,.24.23.23.23,0,0,0,.23-.23.23.23,0,0,0-.23-.24"/><path class="cls-3" d="M14.31,17.44a.23.23,0,0,0-.23.24.23.23,0,0,0,.23.23.23.23,0,0,0,.24-.23.24.24,0,0,0-.24-.24"/><path class="cls-3" d="M15.38,17.44a.24.24,0,0,0-.24.24.23.23,0,0,0,.24.23.23.23,0,0,0,.23-.23.23.23,0,0,0-.23-.24"/><path class="cls-3" d="M16.44,17.44a.24.24,0,0,0-.24.24.24.24,0,0,0,.48,0,.24.24,0,0,0-.24-.24"/><path class="cls-3" d="M17.5,17.44a.23.23,0,0,0-.23.24.23.23,0,0,0,.23.23.23.23,0,0,0,.24-.23.24.24,0,0,0-.24-.24"/><path class="cls-3" d="M10.58,18.25a.23.23,0,0,0-.23.24.23.23,0,0,0,.23.23.24.24,0,1,0,0-.47"/><path class="cls-3" d="M11.65,18.25a.24.24,0,1,0,.24.24.24.24,0,0,0-.24-.24"/><path class="cls-3" d="M12.71,18.25a.23.23,0,0,0-.23.24.23.23,0,0,0,.23.23.24.24,0,1,0,0-.47"/><path class="cls-3" d="M13.78,18.25a.24.24,0,1,0,0,.47.23.23,0,0,0,.23-.23.23.23,0,0,0-.23-.24"/><path class="cls-3" d="M14.84,18.25a.24.24,0,1,0,.24.24.24.24,0,0,0-.24-.24"/><path class="cls-3" d="M15.91,18.25a.24.24,0,1,0,0,.47.23.23,0,0,0,.23-.23.23.23,0,0,0-.23-.24"/><path class="cls-3" d="M17,18.25a.24.24,0,1,0,.24.24.24.24,0,0,0-.24-.24"/><path class="cls-3" d="M18,18.25a.23.23,0,0,0-.23.24.23.23,0,0,0,.23.23.24.24,0,1,0,0-.47"/><path class="cls-3" d="M19.1,18.25a.24.24,0,1,0,0,.47.23.23,0,0,0,.23-.23.23.23,0,0,0-.23-.24"/><path class="cls-3" d="M10.06,19.06a.23.23,0,0,0-.24.23.24.24,0,1,0,.47,0,.23.23,0,0,0-.23-.23"/><path class="cls-3" d="M11.12,19.06a.23.23,0,0,0-.24.23.24.24,0,1,0,.48,0,.23.23,0,0,0-.24-.23"/><path class="cls-3" d="M12.18,19.06a.23.23,0,0,0-.23.23.23.23,0,0,0,.23.24.24.24,0,0,0,.24-.24.23.23,0,0,0-.24-.23"/><path class="cls-3" d="M13.25,19.06a.23.23,0,0,0-.24.23.24.24,0,0,0,.24.24.23.23,0,0,0,.23-.24.23.23,0,0,0-.23-.23"/><path class="cls-3" d="M14.31,19.06a.23.23,0,0,0-.23.23.23.23,0,0,0,.23.24.24.24,0,0,0,.24-.24.23.23,0,0,0-.24-.23"/><path class="cls-3" d="M15.38,19.06a.23.23,0,0,0-.24.23.24.24,0,0,0,.24.24.23.23,0,0,0,.23-.24.23.23,0,0,0-.23-.23"/><path class="cls-3" d="M16.44,19.06a.23.23,0,0,0-.24.23.24.24,0,1,0,.48,0,.23.23,0,0,0-.24-.23"/><path class="cls-3" d="M17.5,19.06a.23.23,0,0,0-.23.23.24.24,0,1,0,.47,0,.23.23,0,0,0-.24-.23"/><path class="cls-3" d="M18.57,19.06a.23.23,0,0,0-.24.23.24.24,0,1,0,.48,0,.23.23,0,0,0-.24-.23"/><path class="cls-3" d="M11.65,19.87a.23.23,0,0,0-.24.23.24.24,0,0,0,.48,0,.23.23,0,0,0-.24-.23"/><path class="cls-3" d="M12.71,19.87a.23.23,0,0,0-.23.23.23.23,0,0,0,.23.24A.24.24,0,0,0,13,20.1a.23.23,0,0,0-.24-.23"/><path class="cls-3" d="M13.78,19.87a.23.23,0,0,0-.24.23.24.24,0,0,0,.24.24A.23.23,0,0,0,14,20.1a.23.23,0,0,0-.23-.23"/><path class="cls-3" d="M14.84,19.87a.23.23,0,0,0-.24.23.24.24,0,0,0,.48,0,.23.23,0,0,0-.24-.23"/><path class="cls-3" d="M15.91,19.87a.23.23,0,0,0-.24.23.24.24,0,1,0,.47,0,.23.23,0,0,0-.23-.23"/><path class="cls-3" d="M17,19.87a.23.23,0,0,0-.24.23.24.24,0,0,0,.48,0,.23.23,0,0,0-.24-.23"/><path class="cls-3" d="M18,19.87a.23.23,0,0,0-.23.23.23.23,0,0,0,.23.24.24.24,0,0,0,.24-.24.23.23,0,0,0-.24-.23"/><path class="cls-3" d="M19.1,19.87a.23.23,0,0,0-.24.23.24.24,0,0,0,.24.24.23.23,0,0,0,.23-.24.23.23,0,0,0-.23-.23"/><path class="cls-3" d="M13.25,20.67a.24.24,0,0,0,0,.48.24.24,0,0,0,0-.48"/><path class="cls-3" d="M14.31,20.67a.24.24,0,0,0,0,.48.24.24,0,1,0,0-.48"/><path class="cls-3" d="M15.38,20.67a.24.24,0,0,0,0,.48.24.24,0,0,0,0-.48"/><path class="cls-3" d="M16.44,20.67a.24.24,0,1,0,.24.24.24.24,0,0,0-.24-.24"/><path class="cls-3" d="M17.5,20.67a.24.24,0,1,0,.24.24.23.23,0,0,0-.24-.24"/><path class="cls-3" d="M18.57,20.67a.24.24,0,1,0,.24.24.24.24,0,0,0-.24-.24"/><path class="cls-3" d="M14.84,21.48a.24.24,0,1,0,.24.24.24.24,0,0,0-.24-.24"/><path class="cls-3" d="M15.91,21.48a.24.24,0,1,0,.23.24.24.24,0,0,0-.23-.24"/><path class="cls-3" d="M17,21.48a.24.24,0,1,0,.24.24.24.24,0,0,0-.24-.24"/><path class="cls-3" d="M18,21.48A.24.24,0,0,0,18,22a.24.24,0,0,0,0-.48"/><path class="cls-3" d="M19.1,21.48a.24.24,0,1,0,0,.48.24.24,0,0,0,0-.48"/><path class="cls-3" d="M15.38,22.29a.24.24,0,0,0-.24.24.23.23,0,0,0,.24.23.23.23,0,0,0,.23-.23.23.23,0,0,0-.23-.24"/><path class="cls-3" d="M16.44,22.29a.24.24,0,0,0-.24.24.24.24,0,0,0,.48,0,.24.24,0,0,0-.24-.24"/><path class="cls-3" d="M17.5,22.29a.23.23,0,0,0-.23.24.23.23,0,0,0,.23.23.23.23,0,0,0,.24-.23.24.24,0,0,0-.24-.24"/><path class="cls-3" d="M18.57,22.29a.24.24,0,0,0-.24.24.24.24,0,0,0,.48,0,.24.24,0,0,0-.24-.24"/><path class="cls-3" d="M17,23.1a.24.24,0,0,0-.24.24.24.24,0,0,0,.48,0A.24.24,0,0,0,17,23.1"/><path class="cls-3" d="M18,23.1a.23.23,0,0,0-.23.24.23.23,0,0,0,.23.23.23.23,0,0,0,.24-.23A.24.24,0,0,0,18,23.1"/><path class="cls-3" d="M19.1,23.1a.24.24,0,0,0-.24.24.23.23,0,0,0,.24.23.23.23,0,0,0,.23-.23.23.23,0,0,0-.23-.24"/><path class="cls-3" d="M18.57,23.91a.24.24,0,1,0,.24.23.23.23,0,0,0-.24-.23"/><polygon class="cls-3" points="9.65 19.43 19.43 25.38 19.43 24.76 9.72 18.95 9.65 19.43"/><polygon class="cls-3" points="19.43 25.38 30.48 20.1 30.48 19.53 19.43 24.76 19.43 25.38"/><path class="cls-3" d="M20,30A15,15,0,1,1,35,15,15,15,0,0,1,20,30ZM20,.6A14.4,14.4,0,1,0,34.4,15,14.42,14.42,0,0,0,20,.6Z"/></g></g></svg>