<svg xmlns="http://www.w3.org/2000/svg" width="36" height="29" viewBox="0 0 36 29">
    <path d="M6.427 28.894c-1.837 0-3.51-1.577-4.704-4.44C.612 21.796 0 18.277 0 14.546s.612-7.25 1.723-9.91C2.918 1.774 4.59.197 6.427.197c1.838 0 3.51 1.577 4.707 4.44 1.11 2.66 1.722 6.179 1.722 9.91 0 3.73-.611 7.25-1.722 9.908-1.197 2.863-2.867 4.44-4.707 4.44zm0-27.232c-1.182 0-2.4 1.289-3.338 3.535-1.037 2.485-1.61 5.805-1.61 9.349 0 3.543.573 6.862 1.61 9.346.938 2.247 2.156 3.536 3.338 3.536s2.4-1.289 3.339-3.536c1.039-2.484 1.611-5.804 1.611-9.346s-.572-6.864-1.611-9.349c-.939-2.246-2.155-3.535-3.339-3.535z"/>
    <path d="M8.147 25.031c-.297 0-.565-.175-.68-.446-1.151-2.674-1.78-6.24-1.78-10.04 0-3.628.584-7.075 1.645-9.708.082-.263.306-.458.58-.506.274-.047.551.063.718.283.167.22.195.515.072.762-.986 2.464-1.535 5.719-1.535 9.166 0 3.607.59 6.969 1.66 9.466.16.373-.016.802-.39.961-.092.04-.19.06-.29.062zM12.117 28.894c-.715-.009-1.409-.236-1.988-.652-.336-.23-.42-.687-.188-1.02.233-.334.694-.417 1.03-.187.333.246.735.383 1.15.393 1.183 0 2.4-1.289 3.34-3.536 1.037-2.484 1.609-5.804 1.609-9.346s-.577-6.864-1.618-9.349c-.935-2.246-2.153-3.535-3.335-3.535-.22 0-.437.042-.641.122-.248.102-.533.063-.743-.102-.21-.166-.314-.43-.27-.693.042-.263.226-.482.478-.572.375-.145.773-.22 1.176-.221 1.838 0 3.508 1.577 4.704 4.44 1.112 2.66 1.723 6.179 1.723 9.91 0 3.73-.611 7.25-1.723 9.908-1.196 2.863-2.866 4.44-4.704 4.44z"/>
    <path d="M17.753 28.699c-.714-.01-1.408-.237-1.987-.652-.336-.23-.42-.687-.188-1.02.232-.334.693-.418 1.03-.187.333.245.735.382 1.15.392 1.182 0 2.4-1.288 3.339-3.535 1.037-2.485 1.61-5.805 1.61-9.347s-.576-6.856-1.613-9.348c-.939-2.247-2.157-3.536-3.34-3.536-.22.001-.437.043-.642.122-.378.135-.795-.053-.94-.424-.145-.372.035-.79.406-.942.375-.145.773-.22 1.175-.222 1.838 0 3.508 1.577 4.705 4.441 1.111 2.66 1.723 6.178 1.723 9.91 0 3.73-.612 7.25-1.723 9.908-1.195 2.863-2.865 4.44-4.705 4.44z"/>
    <path d="M23.607 28.699c-.714-.009-1.408-.237-1.986-.652-.217-.149-.338-.401-.317-.662.021-.262.181-.492.42-.604.239-.112.52-.09.737.059.334.245.736.382 1.151.392 1.184 0 2.4-1.288 3.339-3.535 1.037-2.485 1.609-5.805 1.609-9.347s-.577-6.856-1.614-9.348c-.939-2.247-2.155-3.536-3.339-3.536-.219.001-.436.043-.64.122-.247.102-.532.063-.742-.102-.21-.165-.314-.43-.27-.693.042-.262.226-.481.478-.571.374-.146.772-.22 1.174-.222 1.838 0 3.516 1.577 4.705 4.441 1.111 2.66 1.723 6.178 1.723 9.91 0 3.73-.612 7.25-1.723 9.908-1.189 2.863-2.867 4.44-4.705 4.44zM35.178 15.77h-.016c-.409-.01-.733-.344-.725-.749v-.67c0-3.544-.572-6.865-1.611-9.35-.926-2.246-2.142-3.535-3.326-3.535-.219.001-.436.043-.64.122-.247.102-.531.063-.742-.102-.21-.165-.314-.43-.27-.693.043-.262.226-.481.479-.571C28.7.077 29.099.002 29.5 0c1.84 0 3.51 1.577 4.707 4.441 1.11 2.66 1.722 6.178 1.722 9.91v.7c-.008.403-.344.725-.75.718zM12.658 6.76c-.077-.27-.058-.557.052-.815.183-.489.852-2.222 1.069-2.481 0 0 .894 1.223.86 1.396 0 0-1.164 2.933-1.339 4.917l-.642-3.017zM12.658 21.972c-.077.27-.058.556.052.814.183.489.852 2.222 1.069 2.481 0 0 .894-1.223.86-1.394 0 0-1.164-2.933-1.339-4.919l-.642 3.018zM18.372 21.972c-.077.27-.058.556.052.814.183.489.852 2.222 1.069 2.481 0 0 .894-1.223.86-1.394 0 0-1.165-2.933-1.339-4.919l-.642 3.018zM18.372 6.76c-.077-.27-.058-.557.052-.815.183-.489.852-2.222 1.069-2.481 0 0 .894 1.223.86 1.396 0 0-1.165 2.933-1.339 4.917l-.642-3.017z"/>
    <path d="M24.054 6.76c-.076-.27-.057-.557.053-.815.182-.489.851-2.222 1.068-2.481 0 0 .896 1.223.86 1.396 0 0-1.164 2.933-1.338 4.917l-.643-3.017z"/>
</svg>
