<svg xmlns="http://www.w3.org/2000/svg" width="36" height="26" viewBox="0 0 36 26">
    <g fill="currentColor">
        <path d="M1.441 25.71c-.274 0-.496-.228-.496-.509V8.266c0-.28.222-.508.496-.508s.496.227.496.508v16.928c.002.136-.049.267-.142.364-.094.097-.22.151-.354.151zM3.72 25.71c-.275 0-.497-.228-.497-.509V8.266c0-.28.222-.508.496-.508s.496.227.496.508v16.928c.002.136-.05.267-.143.364-.093.097-.22.151-.353.151zM6.177 25.71c-.274 0-.496-.228-.496-.509V8.266c0-.28.222-.508.496-.508s.496.227.496.508v16.928c.002.136-.05.267-.143.364-.093.097-.22.151-.353.151zM8.605 25.71c-.274 0-.496-.228-.496-.509V8.266c0-.28.222-.508.496-.508s.496.227.496.508v16.928c.002.136-.05.267-.143.364-.093.097-.22.151-.353.151zM11.062 25.866c-.274 0-.496-.227-.496-.508V9.032c0-.281.222-.509.496-.509s.496.228.496.509v16.326c0 .28-.222.508-.496.508zM13.43 25.71c-.275 0-.497-.228-.497-.509V8.97c0-.28.222-.508.496-.508s.496.228.496.508v16.225c.002.136-.05.267-.143.364-.093.097-.22.151-.353.151zM15.887 25.71c-.274 0-.496-.228-.496-.509V8.97c0-.28.222-.508.496-.508s.496.228.496.508v16.225c.002.136-.05.267-.143.364-.093.097-.22.151-.353.151zM18.448 25.71c-.274 0-.496-.228-.496-.509V8.266c0-.28.222-.508.496-.508s.496.227.496.508v16.928c.002.136-.05.267-.143.364-.093.097-.22.151-.353.151zM20.772 25.71c-.274 0-.496-.228-.496-.509V8.266c0-.28.222-.508.496-.508s.496.227.496.508v16.928c.002.136-.05.267-.142.364-.094.097-.22.151-.354.151zM23.14 25.71c-.275 0-.497-.228-.497-.509V8.266c0-.28.222-.508.496-.508s.496.227.496.508v16.928c.002.136-.05.267-.142.364-.094.097-.221.151-.354.151zM25.567 25.71c-.274 0-.496-.228-.496-.509V8.266c0-.28.222-.508.496-.508s.496.227.496.508v16.928c.002.136-.05.267-.143.364-.093.097-.22.151-.353.151zM27.965 25.71c-.274 0-.496-.228-.496-.509V8.266c0-.28.222-.508.496-.508s.496.227.496.508v16.928c.002.136-.05.267-.143.364-.093.097-.22.151-.353.151zM30.453 25.71c-.274 0-.496-.228-.496-.509V8.266c0-.28.222-.508.496-.508s.496.227.496.508v16.928c.002.136-.05.267-.143.364-.093.097-.22.151-.353.151zM32.961 25.71c-.274 0-.496-.228-.496-.509V8.266c0-.28.222-.508.496-.508s.496.227.496.508v16.928c.002.136-.05.267-.142.364-.094.097-.22.151-.354.151zM35.433 25.71c-.274 0-.496-.228-.496-.509V8.266c0-.28.222-.508.496-.508s.496.227.496.508v16.928c.002.136-.05.267-.143.364-.093.097-.22.151-.353.151z"/>
        <path fill="#2E1A47" d="M12.23 11.847c-1.049 0-2.167-.385-2.904-1.472-.193-.29-.34-.611-.435-.95-.06-.226-.16-.438-.296-.626-.06.026-.117.057-.17.093l-.083.054c-1.579 1.07-3.26 1.453-4.979 1.162C2.227 9.898.073 8.843 0 6.302c-.021-.722.533-1.324 1.237-1.346.705-.022 1.293.546 1.314 1.268.03 1.072 1.196 1.296 1.246 1.307 1.6.278 2.758-.505 3.138-.764l.129-.084c1.027-.665 1.87-.566 2.398-.365 1.15.436 1.665 1.66 1.87 2.352.02.077.05.15.09.218.345.507 1.157.32 1.317.279.126-.032.254-.056.383-.07.598-.071 1.842-.548 3.31-1.272.911-.45 1.927-.63 2.933-.52 1.779.197 3.621.986 4.331 1.307.103.05.21.091.32.122 1.701.436 3.666-.82 4.043-1.075.178-.123.364-.235.555-.335 2.855-1.463 6.095-1.162 6.227-1.152.697.072 1.206.708 1.14 1.423-.065.715-.682 1.242-1.38 1.18-.037 0-2.664-.231-4.846.887-.098.053-.192.113-.283.177-2.889 1.955-5.207 1.652-6.07 1.431-.258-.068-.51-.16-.753-.276-.466-.216-2.102-.935-3.555-1.098-.535-.06-1.075.037-1.559.279-1.818.895-3.204 1.403-4.12 1.512h-.047c-.371.102-.753.156-1.138.16z"/>
        <path d="M1.725 5.23H1.71c-.274-.01-.49-.243-.482-.524.057-1.997 1.747-2.835 2.626-2.998 1.481-.263 2.921.083 4.283 1.027.031.02.054.038.07.047l.021.014c.313.208.577.275.782.196.35-.132.621-.683.757-1.162.07-.255.178-.497.32-.717.763-1.146 2.117-1.258 3.127-.988.044.01.088.018.133.023.992.122 2.587.84 3.743 1.422.585.297 1.24.416 1.888.344 1.508-.171 3.174-.92 3.649-1.146.193-.094.395-.17.602-.226 2.282-.599 4.615.848 5.277 1.307.114.081.232.155.355.22 2.312 1.214 5.035.957 5.062.954.274-.028.518.177.545.458.027.28-.174.53-.448.558-.123.012-3.043.29-5.61-1.06-.16-.084-.313-.179-.46-.283-.574-.398-2.594-1.657-4.474-1.162-.147.04-.29.096-.426.164-.652.31-2.342 1.052-3.955 1.235-.837.093-1.682-.06-2.435-.443-1.521-.769-2.771-1.251-3.43-1.328-.092-.01-.182-.027-.271-.05-.33-.095-1.457-.319-2.047.579-.084.134-.148.281-.188.435-.163.547-.55 1.505-1.37 1.82-.514.195-1.072.096-1.659-.29l-.113-.076C6.44 2.787 5.244 2.495 4.028 2.71c-.067.013-1.76.36-1.807 2.033-.011.273-.23.487-.496.487z"/>
        <path d="M12.291 9.308c-.81 0-1.657-.29-2.202-1.12-.143-.22-.25-.462-.32-.716C9.625 7 9.36 6.455 9.01 6.31c-.207-.079-.469-.012-.782.197l-.024.015-.067.046c-1.362.944-2.802 1.29-4.28 1.027-.882-.158-2.572-.996-2.63-3-.007-.28.209-.514.483-.522.274-.008.502.213.51.494.047 1.679 1.748 2.019 1.813 2.033 1.21.215 2.41-.077 3.543-.871l.113-.077c.587-.388 1.146-.487 1.659-.29.82.309 1.207 1.273 1.366 1.82.04.155.104.302.188.436.594.898 1.72.674 2.051.581.09-.023.18-.04.271-.05.665-.079 1.915-.563 3.429-1.322.754-.382 1.598-.536 2.435-.443 1.611.183 3.303.925 3.955 1.234.137.069.279.124.425.165 1.881.493 3.9-.766 4.475-1.162.147-.108.3-.205.46-.29 2.567-1.347 5.487-1.073 5.61-1.061.274.027.475.277.448.557-.026.281-.27.487-.544.46-.028 0-2.761-.255-5.063.952-.123.066-.242.14-.355.223-.662.457-2.995 1.904-5.277 1.307-.207-.057-.41-.133-.603-.228-.474-.225-2.14-.975-3.648-1.146-.648-.072-1.303.048-1.888.345-1.156.581-2.744 1.3-3.743 1.421-.042 0-.092.013-.133.023-.3.081-.607.123-.917.124z"/>
    </g>
</svg>
