<svg xmlns="http://www.w3.org/2000/svg" width="329" height="72"><defs><clipPath id="promotion-a"><path d="M0 .07h50.848v70.686H0z"/></clipPath><clipPath id="promotion-b"><path d="M285.55 7.64h43.383v48.055H285.55z"/></clipPath></defs><g clip-path="url(#promotion-a)"><path fill="#3c1951" d="M23.206 70.756c-7.292-.034-12.9-1.334-17.992-4.248C3.32 65.425 1.751 63.658.31 61.97c-.514-.602-.214-1.893-.286-2.87.841-.026 1.733-.246 2.515-.045 5.491 1.412 11.007 2.507 16.696 1.472 1.253-.228 2.539-.676 3.627-1.327 2.277-1.36 2.277-3.192.111-4.684-.788-.543-1.658-.968-2.497-1.437-3.655-2.04-7.309-4.085-10.97-6.115C.354 41.891-1.066 34.03 2.793 24.78c2.75-6.592 7.866-11.326 13.53-15.46C22.84 4.56 29.874 1.01 38.09.196c4.876-.484 6.835.272 8.547 4.776 1.645 4.328 2.955 8.822 3.945 13.345.92 4.196-.525 5.708-4.65 6.866-2.743.77-5.511 1.794-7.945 3.242-4.434 2.638-4.97 6.907-1.513 10.724 2.532 2.793 5.342 5.333 7.957 8.054 4.68 4.868 4.81 8.96.283 14.042-6.077 6.82-14.12 9.1-21.508 9.51m-8.815-42.92c1.231-2.377-.924-5.85 3.236-6.613-2.31-.445-2.612-1.882-2.43-3.836l-1.969 1.878-2.49-.903c2.003 2.807-.367 4.371-1.943 6.564l3.699-1.262 1.897 4.172m14.744-13.47l-2.19-3.694c-.812 1.813-2.486 1.09-4.287.626 2.513 2.896-.294 4.315-1.6 6.447l3.718-1.254 1.918 4.113c1.032-2.41-.723-5.587 2.441-6.237M16.803 45.04c.65-2.774-.555-5.68 2.388-6.46l-2.255-3.347c-.827 1.748-2.397.837-4.599.212 3.19 3.401-.437 4.59-1.36 6.881l3.846-1.534 1.98 4.248M31.04 23.989l-2.026 1.8-2.403-.677c2.198 2.856-.814 4.105-1.923 6.238l3.648-1.284 2.077 3.95c.618-2.543-.847-5.492 3.015-6.292-2.342-.328-2.593-1.737-2.388-3.735"/></g><path fill="#3c1951" d="M205.6 42.443c-.513.888-1.215 1.719-1.503 2.676-.83 2.76-1.55 5.558-2.211 8.365-.699 2.97-1.306 3.486-4.368 3.333-5.065-.252-8.712-3.783-9.078-8.89-.118-1.641-.019-3.298-.383-5.108-.296.672-.623 1.331-.884 2.017-2.473 6.512-5.22 12.875-9.752 18.27-1.978 2.356-4.207 4.36-7.32 4.988-3.651.737-6.777-.335-9.217-3.15-.651-.754-.934-1.83-1.274-3.05 4.172 1.37 6.587-.798 8.302-3.846 2.098-3.729 3.875-7.641 5.79-11.475l-.738-.51c-.721.717-1.403 1.48-2.171 2.14-1.134.973-2.217 2.102-3.521 2.76-3.302 1.665-7.195.48-8.38-3.01-2.052-6.037-3.588-12.255-5.277-18.414-.34-1.24.368-1.903 1.617-2.095 3.887-.597 7.528.195 10.771 2.314.932.608 1.57 2.031 1.862 3.202.627 2.525.736 5.188 1.441 7.684.745 2.636 1.83 2.735 3.61.666 2.358-2.743 3.487-6.011 4.147-9.52.527-2.806 1.407-3.435 3.927-2.24 2.718 1.289 5.204 3.076 7.86 4.688.084-1.154.262-2.686.295-4.22.179-8.261.325-16.523.476-24.785.046-2.507.523-3.223 2.885-2.559 3.574 1.004 7.054 2.434 10.452 3.96 2 .897 2.705 2.816 2.317 5.038-1.042 5.962-2.101 11.92-3.123 17.885-.39 2.273-.698 4.56-1.043 6.842.165.078.331.157.497.234.974-1.364 1.919-2.75 2.927-4.088 3.926-5.217 8.45-6.232 13.752-3.117 2.978 1.75 4.096 4.37 3.16 7.706-1.523 5.426-3.238 10.794-3.226 16.547 0 .739-1.195 1.996-1.99 2.137-5.043.897-9.03-1.195-9.464-6.385-.187-2.227-.287-4.46-.427-6.691l-.738-.299"/><g clip-path="url(#promotion-b)"><path fill="#3c1951" d="M311.058 46.126c-2.376 2.065-4.451 4.154-6.81 5.857-4.492 3.245-9.278 3.458-14.076.581-3.724-2.233-5.527-6.574-4.174-10.722 2.136-6.55 6.451-11.184 13.087-13.427 3.565-1.205 6.82-.291 9.595 2.104 1.49 1.288 2.391.883 2.698-.766.933-5.02 1.718-10.069 2.528-15.112.1-.624-.007-1.28-.007-1.921-.002-5.24.425-5.652 5.726-4.637a36.2 36.2 0 0 1 6.556 1.938c2.603 1.038 3.094 2.144 2.56 4.861-1.224 6.217-2.697 12.393-3.67 18.647-.919 5.891-.821 11.771 1.986 17.34 1.31 2.596.356 4.167-2.572 4.66-4.833.816-8.294-1.467-11-5.137-.956-1.297-1.612-2.812-2.427-4.266m-2.231-10.175c-.965.05-1.445-.065-1.747.114-3.089 1.835-5.348 4.43-6.74 7.718-.18.428.13 1.502.434 1.599.552.177 1.537.074 1.87-.313 1.525-1.77 2.94-3.64 4.283-5.553.692-.986 1.15-2.136 1.9-3.565"/></g><path fill="#3c1951" d="M137.865 55.124c-.108 1.169-.25 2.153-.28 3.14-.107 3.376-.224 6.752-.236 10.13-.005 1.608-.635 2.527-2.239 2.343-2.108-.243-4.308-.373-6.265-1.104-4.03-1.506-4.99-3.31-4.393-7.597 1.414-10.165 1.608-20.323-.028-30.474-.282-1.749.34-2.253 2.008-2.28 3.266-.05 6.259.672 8.86 2.694.87.676 1.512.697 2.482.088 5.165-3.243 8.45-3.21 12.567-.028 4.728 3.654 6.606 8.793 5.147 14.085-2.205 8-8.502 11.32-17.623 9.003m7.359-12.512c-.262-.358-.68-1.399-1.425-1.77-.439-.219-1.747.434-2.062 1.022-1.16 2.165-2.2 4.419-3.018 6.735-.445 1.26.47 1.915 1.697 1.458 2.125-.793 4.75-4.525 4.808-7.445M64.01 63.433c-2.792-.305-5.672-1.377-7.699-4.066-.936-1.242-1.437-3.109-1.682-4.777-1.372-9.364-1.13-18.798-.596-28.219.275-4.87.83-9.718 1.18-14.584.13-1.805.714-2.35 2.314-1.85 4.672 1.46 8.696 4.138 12.219 7.868 1.16 1.228 1.065 2.52.593 4.067-3.238 10.602-5.096 21.467-4.607 32.74.091 2.096.3 4.19.555 6.27.277 2.27.057 2.615-2.277 2.551M272.696 50.998c-2.336 1.238-4.44 2.72-6.77 3.501-3.514 1.177-7.02.833-9.74-2.112-3.047-3.298-3.225-7.314-2.102-11.4 1.933-7.033 6.865-11.227 13.302-13.7 2.907-1.116 5.522-.078 7.424 2.393 1.295 1.681 2.673 2.637 4.932 2.783 3.711.24 6.083 3.962 5.207 7.597-1.05 4.358-1.918 8.707-.551 13.176.383 1.258-.19 1.977-1.427 2.401-4.153 1.426-8.127-.36-10.275-4.639m.927-13.059c-.277-1.716-1.29-1.352-2.196-.88-3.142 1.637-5.606 4.047-7.157 7.276-.344.715-.236 2.347.205 2.61.709.422 2.255.461 2.768-.05 1.866-1.854 3.515-3.954 5.107-6.07.62-.826.871-1.942 1.273-2.886"/><path fill="#3c1951" d="M108.686 49.243c.454 2.2 1.59 3.912 3.75 4.414 1.877.437 4.056.54 5.91.11 1.936-.45 3.644-1.715 5.57-2.682.897 1.228-.032 1.972-.785 2.722-4.638 4.617-11.198 5.961-17.655 3.633-6.584-2.374-10.55-7.572-10.433-13.932.102-5.577 2.573-10.235 7.193-13.876 3.661-2.885 7.902-3.578 12.361-1.874 2.026.774 4.01 1.892 5.636 3.233 5.013 4.136 5.234 8.186.998 13-2.82 3.206-5.624 4.39-12.545 5.252m7.156-10.958c-.184-.235-.503-1.065-1.082-1.263-.596-.204-1.656-.008-2.151.388-2.146 1.719-3.285 3.979-3.62 6.553-.155 1.195.514 1.54 1.726 1.214 2.323-.624 5.142-4.14 5.127-6.892"/><g><path fill="#3c1951" d="M238.115 49.172c.438 5.752 6.946 6.552 14.686 1.864 1.26.907.424 1.683-.223 2.425-4.185 4.8-11.694 6.434-18.057 3.943-10.254-4.015-13.428-14.909-6.935-23.813.24-.33.493-.653.752-.97 6.623-8.116 17.909-7.615 23.753 1.054 1.293 1.92 1.516 3.96.758 6.094-1.817 5.114-6.97 8.785-12.886 9.198-.623.044-1.242.136-1.848.205m6.903-10.847c-.184-.247-.503-1.118-1.13-1.383-.538-.229-1.629.026-2.124.43-2.132 1.735-3.233 4.03-3.558 6.594-.183 1.445.806 1.465 1.957 1.07 2.268-.776 4.771-3.967 4.855-6.71"/></g><g><path fill="#3c1951" d="M81.923 49.15c.73 3.38 2.986 5.407 6.53 5.002 2.927-.334 5.716-1.679 8.824-2.656.622.806-.285 1.563-1.022 2.312-4.52 4.593-11.152 5.962-17.552 3.644-6.564-2.377-10.739-7.841-10.449-14.074.256-5.506 2.601-10.202 7.325-13.771 4.014-3.031 8.545-3.674 13.074-1.42 2.643 1.315 5.047 3.259 7.078 5.316 2.41 2.442 1.904 5.39.26 8.114-3.01 4.985-7.698 7.481-14.068 7.533m-.344-5.372l.56.293c-.094 1.488.922 1.528 1.944 1.064 2.74-1.245 4.431-3.31 4.83-6.086.09-.626-.42-1.666-.985-1.934-.554-.263-1.921-.031-2.25.41-1.498 2.001-2.755 4.154-4.099 6.253"/></g></svg>