<svg xmlns="http://www.w3.org/2000/svg" width="129" height="23" viewBox="0 0 129 23">
    <g fill="#2E1A46">
        <path d="M10.802 9.49c-.966-.64-2.314-.914-3.607-1.189-1.13-.237-2.313-.475-3.188-.969-.856-.457-1.147-.969-1.147-2.011 0-2.103 1.73-2.834 3.206-2.834 2.167 0 3.333.969 3.661 3.09l.018.164h1.95V.933h-1.422l-.054.091c-.018.018-.255.457-.437 1.243C8.926 1.17 7.687.658 5.92.658 3.224.658.51 2.194.51 5.632c0 2.011.71 3.218 2.368 4.077.838.44 2.095.713 3.315.988 1.257.292 2.46.567 3.042.95.747.476 1.038 1.061 1.038 2.085 0 2.816-3.005 3.035-3.916 3.035-2.532 0-3.934-1.188-4.299-3.638l-.018-.165H0v5.43h1.439l.055-.09c.018-.019.291-.568.528-1.61.747.988 2.113 2.012 4.554 2.012 3.843 0 6.138-1.957 6.138-5.248 0-1.829-.619-3.109-1.912-3.968M18.507 16.987c-1.093 0-1.202-.092-1.202-1.08V0h-4.372v1.664h.364c1.148 0 1.385.11 1.385 1.335v13.019c0 .84-.11.969-.93.969h-.82v1.408h6.285v-1.408h-.71zM25.447 6.637c1.967 0 2.95 1.299 2.95 3.877v.183h-6.375c.128-2.615 1.33-4.06 3.425-4.06m0-1.755c-3.625 0-6.157 2.816-6.157 6.875 0 4.334 2.46 6.93 6.594 6.93 2.386 0 3.97-.823 4.627-1.536l.054-.055v-1.499l-.291.201c-.71.494-2.259.988-3.807.988-2.987 0-4.28-1.28-4.39-4.425h8.634l.036-.147c.128-.603.2-1.188.2-1.865-.054-3.419-2.094-5.467-5.5-5.467M38.143 6.637c1.967 0 2.969 1.299 2.969 3.877v.183h-6.375c.109-2.615 1.311-4.06 3.406-4.06m0-1.755c-3.625 0-6.157 2.816-6.157 6.875 0 4.334 2.46 6.93 6.594 6.93 2.386 0 3.971-.823 4.627-1.536l.054-.055v-1.499l-.291.201c-.729.494-2.259.988-3.825.988-2.988 0-4.28-1.28-4.39-4.425h8.634l.036-.147c.128-.603.183-1.188.183-1.865-.019-3.419-2.059-5.467-5.465-5.467M55.666 10.99v.968c0 3.347-1.075 4.974-3.315 4.974-2.769 0-4.007-2.615-4.007-5.193v-.53c0-2.176 1.493-4.425 4.007-4.425 2.204 0 3.315 1.408 3.315 4.205m-2.605-6.107c-2.167 0-3.88 1.042-4.717 2.816-.092-1.262-.328-2.304-.347-2.359l-.036-.146h-3.953v1.664h.383c1.147 0 1.384.11 1.384 1.335v11.72c0 .841-.11.97-.929.97h-.82v1.407h6.485v-1.408h-.91c-1.166 0-1.203-.146-1.203-.786V16.11c.838 1.646 2.423 2.56 4.518 2.56 3.388 0 5.573-2.78 5.573-7.113-.054-4.114-2.113-6.674-5.428-6.674" transform="translate(.109 .364)"/>
        <path d="M78.453 2.633h.966V.914h-6.03l-4.444 14.354L64.573.914h-6.12v1.719h.965c.893 0 1.203.183 1.203 1.225v11.72c0 1.043-.31 1.226-1.203 1.226h-.965v1.572h6.612v-1.572h-.983c-1.203 0-1.476-.183-1.476-1.042V3.419l4.7 14.957h2.532l4.717-14.993v12.379c0 .877-.236 1.042-1.475 1.042h-.984v1.572h7.323v-1.572h-.966c-.892 0-1.202-.183-1.202-1.225V3.859c0-1.043.328-1.226 1.202-1.226M109.693 6.637c1.967 0 2.95 1.299 2.95 3.877v.183h-6.375c.11-2.615 1.312-4.06 3.425-4.06m0-1.755c-3.625 0-6.157 2.816-6.157 6.875 0 4.334 2.46 6.93 6.594 6.93 2.386 0 3.97-.823 4.608-1.536l.055-.055v-1.499l-.291.201c-.729.494-2.26.988-3.826.988-2.987 0-4.28-1.28-4.39-4.425h8.635l.036-.147c.128-.603.2-1.188.2-1.865-.018-3.419-2.058-5.467-5.464-5.467M123.828 5.01c-1.384 0-2.915.896-3.68 2.834-.072-1.335-.346-2.45-.364-2.505l-.036-.146h-3.953v1.664h.364c1.148 0 1.385.11 1.385 1.335v7.826c0 .84-.11.969-.93.969h-.82v1.408h6.85v-1.408h-1.166c-1.147 0-1.311-.128-1.311-1.08v-3.18c0-2.762 1.22-5.395 2.604-5.724.164.841.674 1.317 1.403 1.317.91 0 1.512-.622 1.512-1.555.018-1.078-.71-1.755-1.858-1.755" transform="translate(.109 .364)"/>
        <path d="M125.904 18.212c-1.22 0-2.149-.933-2.149-2.176s.929-2.194 2.15-2.194c1.238 0 2.13.932 2.13 2.194s-.892 2.176-2.13 2.176m0-4.9c-1.512 0-2.751 1.225-2.751 2.706 0 1.517 1.202 2.706 2.75 2.706 1.53 0 2.715-1.189 2.715-2.706 0-1.518-1.184-2.707-2.715-2.707" transform="translate(.109 .364)"/>
        <path d="M125.595 14.92h.364c.328 0 .474.129.474.458 0 .292-.091.475-.51.475h-.328v-.932zm1.475 2.03c-.073 0-.127-.036-.127-.11l-.164-.438c-.037-.147-.128-.256-.255-.33.328-.127.528-.402.528-.73 0-.513-.383-.824-1.02-.824h-1.384v.384h.273c.054 0 .073.019.073.092v1.901c0 .11-.037.11-.073.11h-.273v.366h1.384v-.366h-.273c-.128 0-.146-.018-.146-.128v-.676h.273c.219 0 .273.073.328.274l.128.439c.072.329.273.493.546.493.219 0 .364-.073.455-.22v-.365l-.054.037c-.091.055-.146.091-.219.091M87.142 13.494c-.073 2.396-1.694 3.493-3.17 3.493-1.31 0-1.967-.677-1.967-2.012v-.128c0-1.261.638-1.664 2.113-2.322.237-.11.474-.2.71-.292.784-.311 1.586-.64 2.35-1.28v2.541h-.036zm17.104 3.493c-.6 0-.71-.073-1.84-1.17l-4.881-4.736 3.37-3.109c1.074-.969 1.42-1.097 2.222-1.097h.692V5.211h-5.993v1.664h1.093c.31 0 .456.092.474.165.036.091-.037.274-.31.53l-3.77 3.566V.018H90.93v1.664h.364c1.148 0 1.385.11 1.385 1.335v11.684c0 1.39-.219 1.902-1.02 2.158-.237.073-.565.146-.857.146-.692 0-1.074-.238-1.074-1.518v-5.65c0-3.291-1.676-4.955-4.991-4.955-3.151 0-4.79 1.536-4.79 3.054 0 .86.6 1.462 1.438 1.462.528 0 1.44-.219 1.44-1.718v-.841c.382-.165.873-.256 1.475-.256 2.532 0 2.823 1.371 2.823 2.413 0 1.152-1.967 1.7-3.534 2.158-.6.164-1.166.329-1.585.512-1.876.786-2.695 1.828-2.695 3.42 0 2.266 1.548 3.656 4.025 3.656 1.84 0 3.17-.768 3.844-2.176.236 1.408 1.165 2.121 2.787 2.121.51 0 .983-.11 1.402-.292h5.938v-1.408h-.82c-1.165 0-1.202-.128-1.202-.768v-4.114l4.008 4.004c.382.384.492.64.437.731-.036.074-.182.147-.528.147h-.692v1.408h5.938v-1.408h-.2z" transform="translate(.109 .364)"/>
    </g>
</svg>
