<svg width="47" height="47" viewBox="0 0 47 47" xmlns="http://www.w3.org/2000/svg" xmlns:xlink="http://www.w3.org/1999/xlink"><title>bad-icon-couple</title><defs><path d="M.361.874c10.275 0 18.605 8.328 18.605 18.603 0 10.275-8.33 18.604-18.605 18.604V.874z" id="a"/></defs><g transform="translate(-2 -2)" fill="none" fill-rule="evenodd"><g opacity=".275" transform="translate(25.5 5.935)"><mask id="b" fill="#fff"><use xlink:href="#a"/></mask><path fill="#E0E0DB" mask="url(#b)" d="M.361 44.247h23.272V-5.035H.36z"/></g><circle stroke="#FFF" stroke-width="1.5" cx="16.486" cy="23.486" r="4.736"/><circle stroke="#FFF" stroke-width="1.5" cx="35.486" cy="23.486" r="4.736"/><path d="M24.33 46.284c-.355-9.29-4.433-16.534-9.153-16.534-2.802 0-5.492 2.588-7.248 6.972l16.401 9.562zM43.18 36.73c-1.756-4.39-4.448-6.98-7.251-6.98-4.721 0-8.798 7.244-9.154 16.535L43.18 36.73z" stroke="#FFF" stroke-width="1.5"/><path d="M47.955 25.412c0 12.202-9.891 22.094-22.094 22.094-12.202 0-22.094-9.892-22.094-22.094 0-12.202 9.892-22.094 22.094-22.094 12.203 0 22.094 9.892 22.094 22.094z" stroke="#FFF" stroke-width="1.957"/></g></svg>