<svg width="47" height="47" viewBox="0 0 47 47" xmlns="http://www.w3.org/2000/svg" xmlns:xlink="http://www.w3.org/1999/xlink"><title>bad-icon-springs</title><defs><path d="M.361.874c10.275 0 18.605 8.328 18.605 18.603 0 10.275-8.33 18.604-18.605 18.604V.874z" id="a"/></defs><g fill="none" fill-rule="evenodd"><g opacity=".275" transform="translate(23.5 3.935)"><mask id="b" fill="#fff"><use xlink:href="#a"/></mask><path fill="#E0E0DB" mask="url(#b)" d="M.361 44.247h23.272V-5.035H.36z"/></g><g stroke="#FFF" stroke-linecap="round"><path d="M40.452 30.887c-1.55 2.373-4.662 3.794-7.615 3.615-1.043-.063-2.208-.431-2.263-1.574-.08-1.688 2.64-3.192 4.07-3.679.509-.172 2.487-.905 2.857-.346.283.429-1.021 1.115-1.342 1.268-1.618.769-3.712.885-5.493.734-.701-.06-1.517-.273-1.75-.891-.185-.486.078-1.014.377-1.447.777-1.122 1.86-2.055 3.107-2.708.75-.393 3.167-1.573 3.899-.682.16.195.13.483-.006.693-.135.21-.357.358-.58.49-1.71 1.013-3.828 1.411-5.827 1.095-.72-.114-1.483-.358-1.878-.93-.504-.732-.217-1.715.258-2.464.664-1.048 1.683-1.888 2.859-2.415.765-.344 3.202-1.224 3.75-.168.236.457-.203.962-.64 1.263-1.828 1.254-4.312 1.563-6.449.872-.444-.143-.88-.333-1.218-.638-.336-.305-.561-.74-.508-1.175.047-.386.3-.722.567-1.022 1.203-1.354 2.843-2.366 4.65-2.869 1.498-.417 2.446.75.88 1.535-1.724.863-3.816 1.066-5.695.552-.856-.234-1.753-.703-1.982-1.507-.203-.714.19-1.455.658-2.052 1.02-1.296 2.464-2.299 4.089-2.837.807-.267 1.893-.335 2.336.348.453.7-.168 1.59-.875 2.075-1.292.885-2.99 1.236-4.562.943-.616-.115-1.249-.35-1.608-.83-.433-.578-.354-1.394.035-1.998.388-.605 1.034-1.028 1.704-1.354.745-.362 1.553-.595 2.368-.784M27.226 30.887c-1.55 2.373-4.662 3.794-7.615 3.615-1.043-.063-2.209-.431-2.263-1.574-.08-1.688 2.64-3.192 4.07-3.679.509-.172 2.487-.905 2.857-.346.283.429-1.021 1.115-1.342 1.268-1.618.769-3.712.885-5.493.734-.701-.06-1.517-.273-1.75-.891-.185-.486.078-1.014.377-1.447.777-1.122 1.86-2.055 3.107-2.708.75-.393 3.166-1.573 3.898-.682.16.195.131.483-.005.693-.135.21-.357.358-.58.49-1.71 1.013-3.828 1.411-5.827 1.095-.72-.114-1.483-.358-1.878-.93-.504-.732-.217-1.715.258-2.464.664-1.048 1.683-1.888 2.858-2.415.766-.344 3.203-1.224 3.75-.168.237.457-.202.962-.64 1.263-1.827 1.254-4.312 1.563-6.448.872-.444-.143-.88-.333-1.218-.638-.336-.305-.562-.74-.508-1.175.047-.386.3-.722.567-1.022 1.203-1.354 2.843-2.366 4.65-2.869 1.498-.417 2.446.75.88 1.535-1.724.863-3.817 1.066-5.695.552-.856-.234-1.753-.703-1.982-1.507-.203-.714.19-1.455.658-2.052 1.02-1.296 2.464-2.299 4.089-2.837.807-.267 1.893-.335 2.336.348.453.7-.168 1.59-.875 2.075-1.292.885-2.99 1.236-4.562.943-.616-.115-1.249-.35-1.608-.83-.433-.578-.354-1.394.035-1.998.388-.605 1.034-1.028 1.704-1.354.745-.362 1.553-.595 2.368-.784"/></g><path d="M45.955 23.412c0 12.202-9.891 22.094-22.094 22.094-12.202 0-22.094-9.892-22.094-22.094 0-12.202 9.892-22.094 22.094-22.094 12.203 0 22.094 9.892 22.094 22.094z" stroke="#FFF" stroke-width="1.957"/></g></svg>