<svg width="47" height="45" viewBox="0 0 47 45" xmlns="http://www.w3.org/2000/svg" xmlns:xlink="http://www.w3.org/1999/xlink"><title>Icon/Price</title><defs><path d="M.361.839c10.275 0 18.605 7.994 18.605 17.86 0 9.863-8.33 17.859-18.605 17.859V.838z" id="a"/></defs><g fill="none" fill-rule="evenodd"><g transform="translate(1 .88)"><ellipse cx="22.5" cy="20.661" rx="21.522" ry="20.661"/><g opacity=".275" transform="translate(22.5 2.817)"><mask id="b" fill="#fff"><use xlink:href="#a"/></mask><path fill="#E0E0DB" mask="url(#b)" d="M.361 42.477h23.272v-47.31H.36z"/></g><path d="M44.955 21.516c0 11.713-9.891 21.21-22.094 21.21-12.202 0-22.094-9.497-22.094-21.21C.767 9.802 10.659.306 22.86.306c12.203 0 22.094 9.496 22.094 21.21z" stroke="#FFF" stroke-width="1.957"/></g><text font-family=".AppleSystemUIFont" font-size="19.565" letter-spacing=".699" fill="#FFF" transform="translate(1 .88)"><tspan x="3.181" y="33.525">$$$</tspan></text></g></svg>