<svg width="192" height="34" viewBox="0 0 192 34" xmlns="http://www.w3.org/2000/svg" xmlns:xlink="http://www.w3.org/1999/xlink"><title>Page 1</title><defs><path id="a" d="M186.556.16H0v33.084h186.556z"/><path id="c" d="M8.708.21v8.033H.598V.21h8.11z"/></defs><g fill="none" fill-rule="evenodd"><g><mask id="b" fill="#fff"><use xlink:href="#a"/></mask><path d="M18.877 20.098c0 4.874-3.403 7.783-9.102 7.783-3.625 0-5.648-1.515-6.757-2.977-.37 1.555-.779 2.355-.798 2.393l-.077.148H0v-8.06h3.005l.034.237c.53 3.637 2.616 5.405 6.379 5.405 1.367 0 5.823-.324 5.823-4.492 0-1.522-.432-2.392-1.538-3.104-.89-.584-2.656-.986-4.524-1.412-1.81-.412-3.683-.838-4.913-1.476C1.802 13.286.752 11.477.752 8.498c0-5.102 4.034-7.385 8.033-7.385 2.614 0 4.45.76 5.717 2.383.28-1.18.637-1.817.655-1.848l.08-.139h2.096v7.146H14.45l-.037-.233c-.486-3.12-2.211-4.574-5.43-4.574-2.192 0-4.752 1.103-4.752 4.214 0 1.542.432 2.293 1.714 2.974 1.298.715 3.037 1.076 4.72 1.427 1.925.4 3.916.815 5.357 1.764 1.921 1.27 2.856 3.19 2.856 5.871zm6.815 3.655V.159h-6.487v2.457h.55c1.698 0 2.062.172 2.062 1.99v19.306c0 1.258-.168 1.433-1.388 1.433h-1.224v2.1h9.337v-2.1h-1.066c-1.635 0-1.784-.134-1.784-1.592zm20.16-8.223c0 .99-.09 1.868-.284 2.76l-.047.216H32.717c.177 4.655 2.084 6.56 6.526 6.56 2.31 0 4.6-.735 5.666-1.461l.428-.292v2.216l-.072.078c-.955 1.05-3.322 2.274-6.853 2.274-6.12 0-9.775-3.845-9.775-10.286 0-6.025 3.76-10.206 9.142-10.206 5.054 0 8.073 3.044 8.073 8.14zm-3.677.238c0-3.824-1.479-5.763-4.396-5.763-3.122 0-4.913 2.143-5.062 6.044h9.458v-.28zm22.519-.238c0 .99-.09 1.868-.283 2.76l-.047.216H51.56c.176 4.655 2.083 6.56 6.526 6.56 2.31 0 4.598-.735 5.666-1.461l.427-.292v2.216l-.071.078c-.956 1.05-3.323 2.274-6.852 2.274-6.122 0-9.777-3.845-9.777-10.286 0-6.025 3.76-10.206 9.142-10.206 5.054 0 8.073 3.044 8.073 8.14zm-3.676.238c0-3.824-1.479-5.763-4.397-5.763-3.122 0-4.912 2.143-5.062 6.044h9.459v-.28zm25.725 1.55c0 6.433-3.246 10.563-8.27 10.563-3.086 0-5.457-1.368-6.693-3.805v5.913c0 .954.06 1.156 1.784 1.156h1.343v2.1h-9.613v-2.1h1.223c1.22 0 1.388-.175 1.388-1.434v-17.4c0-1.816-.364-1.988-2.06-1.988h-.551V7.866h5.872l.052.21c.018.077.391 1.615.519 3.497 1.25-2.646 3.783-4.184 7.012-4.184 4.93 0 7.994 3.804 7.994 9.929zm-4.112-.874c0-4.14-1.653-6.24-4.91-6.24-3.72 0-5.941 3.334-5.941 6.557v.795c0 3.837 1.837 7.71 5.94 7.71 3.305 0 4.911-2.419 4.911-7.392v-1.43zm32.03 6.832v-17.4c0-1.553.469-1.83 1.785-1.83h1.43V1.51h-8.955l-6.605 21.31-6.488-21.31h-9.075v2.538h1.429c1.317 0 1.784.276 1.784 1.83v17.4c0 1.553-.467 1.83-1.784 1.83h-1.43v2.338h9.82v-2.338H95.11c-1.793 0-2.18-.276-2.18-1.553V5.244l6.967 22.2h3.766l7.006-22.246v18.356c0 1.292-.366 1.553-2.18 1.553h-1.461v2.338h10.847v-2.338h-1.429c-1.316 0-1.785-.277-1.785-1.83zm56.213-7.746c0 .99-.09 1.868-.283 2.76l-.047.216H157.74c.177 4.655 2.083 6.56 6.526 6.56 2.31 0 4.598-.735 5.665-1.461l.43-.292v2.216l-.073.078c-.954 1.05-3.323 2.274-6.853 2.274-6.12 0-9.775-3.845-9.775-10.286 0-6.025 3.76-10.206 9.142-10.206 5.055 0 8.072 3.044 8.072 8.14zm-3.676.238c0-3.824-1.479-5.763-4.396-5.763-3.122 0-4.912 2.143-5.062 6.044h9.458v-.28zm16.59-8.18c-2.046 0-4.334 1.318-5.455 4.212-.113-1.983-.514-3.644-.533-3.725l-.052-.21h-5.872v2.458h.55c1.698 0 2.062.172 2.062 1.989v11.6c0 1.258-.168 1.433-1.389 1.433h-1.223v2.1h10.168v-2.1h-1.74c-1.706 0-1.943-.193-1.943-1.592v-4.728c0-4.089 1.807-8.01 3.855-8.502.252 1.24 1 1.945 2.087 1.945 1.348 0 2.253-.925 2.253-2.301 0-1.59-1.06-2.58-2.769-2.58zm-29.074 17.757h.354v2.1h-8.822v-2.1h1.026c.512 0 .743-.119.788-.231.059-.146-.078-.519-.662-1.084l-5.947-5.932v6.092c0 .953.059 1.155 1.783 1.155h1.225v2.1h-8.82a4.944 4.944 0 0 1-2.075.436c-2.401 0-3.791-1.054-4.144-3.14-1.004 2.088-2.99 3.22-5.713 3.22-3.685 0-5.975-2.084-5.975-5.44 0-2.356 1.237-3.905 4.01-5.06.625-.266 1.462-.506 2.346-.759 2.337-.669 5.244-1.5 5.244-3.198 0-1.535-.436-3.578-4.199-3.578-.877 0-1.609.127-2.18.377v1.255c0 2.209-1.338 2.539-2.134 2.539-1.238 0-2.136-.918-2.136-2.182 0-2.25 2.447-4.526 7.123-4.526 4.91 0 7.4 2.472 7.4 7.346v8.383c0 1.905.557 2.266 1.585 2.266.416 0 .905-.105 1.258-.214 1.206-.39 1.525-1.16 1.525-3.213h.002V4.606c0-1.818-.363-1.99-2.06-1.99h-.552V.16h6.487v16.482l5.594-5.284c.423-.389.516-.67.467-.796-.043-.109-.255-.238-.714-.238h-1.62V7.866h8.9v2.457h-1.026c-1.188 0-1.7.193-3.3 1.637l-5.01 4.608 7.234 7.026c1.686 1.653 1.84 1.751 2.738 1.751zm-25.382-8.948c-1.121.957-2.316 1.432-3.477 1.893-.353.14-.703.28-1.048.431-2.17.963-3.121 1.58-3.121 3.443v.198c0 1.979.986 2.983 2.932 2.983 2.188 0 4.597-1.62 4.714-5.176v-3.772z" fill="#221048" mask="url(#b)"/></g><g transform="translate(183 19)"><mask id="d" fill="#fff"><use xlink:href="#c"/></mask><path d="M4.666.21C2.423.21.599 2.018.599 4.24c0 2.245 1.786 4.003 4.067 4.003 2.267 0 4.042-1.758 4.042-4.003 0-2.26-1.775-4.03-4.042-4.03m0 7.267c-1.81 0-3.173-1.391-3.173-3.237 0-1.86 1.364-3.263 3.173-3.263 1.84 0 3.174 1.372 3.174 3.263 0 1.876-1.335 3.237-3.174 3.237" fill="#221048" mask="url(#d)"/></g><path d="M189.62 24.317c-.12 0-.181-.044-.203-.155l-.234-.58a.668.668 0 0 0-.39-.441c.49-.17.786-.542.786-1.007 0-.71-.565-1.134-1.512-1.134H186v.536h.408c.087 0 .12.012.12.134v2.61c0 .147-.055.16-.12.16H186v.511h2.053v-.512h-.407c-.186 0-.225-.03-.225-.183v-.915h.408c.326 0 .415.114.49.37l.184.608c.122.452.4.681.826.681.336 0 .533-.09.662-.3l.009-.013v-.505l-.094.044c-.102.047-.198.091-.287.091zm-2.2-2.781h.54c.49 0 .7.186.7.623 0 .398-.127.646-.752.646h-.487v-1.27z" fill="#221048"/></g></svg>