<svg xmlns="http://www.w3.org/2000/svg" xmlns:xlink="http://www.w3.org/1999/xlink" width="47" height="47" viewBox="0 0 47 47"><defs><circle id="a" cx="22.5" cy="22.5" r="22.5"/><path id="c" d="M.435.016c.096 2.3 1.685 4.132 4.59 4.132 1.65 0 3.38-.593 4.6-1.527.592-.452 1.371-.557 2.013-.191 1.896 1.08 1.319 2.985 3.011 4.266 3.44 2.603 8.136-2.61 11.265-2.61 3.315 0 5.467 2.464 9.273 2.464 3.805 0 6.918-4.463 14.344-4.463V.016H.435z"/></defs><g fill="none" fill-rule="evenodd" transform="translate(1 1)"><mask id="b" fill="#fff"><use xlink:href="#a"/></mask><g mask="url(#b)"><g transform="translate(-4 23.47)"><mask id="d" fill="#fff"><use xlink:href="#c"/></mask><path fill="#E1E1E1" mask="url(#d)" d="M-5.155 37.435h56.098V.016H-5.155z"/></g><path stroke="#FFF" stroke-width="1.024" d="M45.53 21.415c-7.425 0-10.538-4.462-14.343-4.462-3.806 0-5.958 2.464-9.272 2.464-3.13 0-7.826-5.213-11.266-2.61-1.626 1.23-1.157 3.039-2.8 4.136-.577.385-1.313.298-1.828-.174-1.223-1.123-3.157-1.858-4.997-1.858-2.996 0-4.594 1.95-4.594 4.354s1.598 4.354 4.594 4.354c1.651 0 3.38-.593 4.601-1.526.592-.453 1.371-.557 2.014-.192 1.894 1.08 1.318 2.986 3.01 4.266 3.44 2.603 8.135-2.61 11.266-2.61 3.314 0 5.466 2.464 9.272 2.464 3.805 0 6.918-4.463 14.344-4.463"/><path stroke="#FFF" stroke-dasharray="0 2.012" stroke-linecap="round" stroke-width="1.536" d="M11.987 23.487h21.27"/><path stroke="#FFF" stroke-width="1.024" d="M.03 5.993v11.272"/><path d="M.03 2.506c-1.14 0-2.072.916-2.072 2.035 0 1.119.933 2.034 2.073 2.034S2.104 5.66 2.104 4.54c0-1.119-.933-2.035-2.073-2.035"/><path stroke="#FFF" stroke-width="1.024" d="M.03 2.506c-1.14 0-2.072.916-2.072 2.035 0 1.119.933 2.034 2.073 2.034S2.104 5.66 2.104 4.54c0-1.119-.933-2.035-2.073-2.035zm10.403 37.93V32.3"/><path d="M10.506 44.548c1.14 0 2.072-.916 2.072-2.035 0-1.119-.932-2.034-2.072-2.034-1.14 0-2.073.915-2.073 2.034 0 1.119.933 2.035 2.073 2.035"/><path stroke="#FFF" stroke-width="1.024" d="M10.506 44.548c1.14 0 2.072-.916 2.072-2.035 0-1.119-.932-2.034-2.072-2.034-1.14 0-2.073.915-2.073 2.034 0 1.119.933 2.035 2.073 2.035zm31.37-38.49v12.724"/><path d="M41.93 2.506c1.14 0 2.073.916 2.073 2.035 0 1.119-.932 2.034-2.073 2.034-1.14 0-2.072-.915-2.072-2.034 0-1.119.932-2.035 2.072-2.035"/><path stroke="#FFF" stroke-width="1.024" d="M41.93 2.506c1.14 0 2.073.916 2.073 2.035 0 1.119-.932 2.034-2.073 2.034-1.14 0-2.072-.915-2.072-2.034 0-1.119.932-2.035 2.072-2.035zM31.052 40.022v-8.567"/><path d="M31.456 44.038c-1.14 0-2.073-.915-2.073-2.034 0-1.119.932-2.034 2.073-2.034 1.14 0 2.072.915 2.072 2.034 0 1.119-.932 2.034-2.072 2.034"/><path stroke="#FFF" stroke-width="1.024" d="M31.456 44.038c-1.14 0-2.073-.915-2.073-2.034 0-1.119.932-2.034 2.073-2.034 1.14 0 2.072.915 2.072 2.034 0 1.119-.932 2.034-2.072 2.034zM20.742 6.058v11.368"/><path d="M20.98 2.506c-1.14 0-2.072.916-2.072 2.035 0 1.119.932 2.034 2.073 2.034 1.14 0 2.072-.915 2.072-2.034 0-1.119-.932-2.035-2.072-2.035"/><path stroke="#FFF" stroke-width="1.024" d="M20.98 2.506c-1.14 0-2.072.916-2.072 2.035 0 1.119.932 2.034 2.073 2.034 1.14 0 2.072-.915 2.072-2.034 0-1.119-.932-2.035-2.072-2.035z"/></g><circle cx="22.5" cy="22.5" r="22.5" stroke="#FFF" stroke-width="2"/></g></svg>