<svg xmlns="http://www.w3.org/2000/svg" width="58" height="39" viewBox="0 0 58 39"><g fill="none" fill-rule="evenodd"><path stroke="rgba(0,0,0,0.4)" stroke-linejoin="round" stroke-width="1.08" d="M13.922 21.154s-4.288-.49-5.938-.601c-8.906-.602-9.5 13.236-.593 15.04C16.869 37.516 22.83 38 22.83 38c1.187 0 31.472-15.642 31.472-15.642s7.125-10.83-1.782-18.05C47.373.995 37.972 1 37.972 1L8.988 15.395a2.357 2.357 0 0 0-1.3 2.113v.764c0 1.145.812 2.123 1.924 2.32l9.061 1.164c7.126.602 5.344 10.228 1.169 9.49L8.456 29.595A2.345 2.345 0 0 1 6.5 27.269c0-1.463 1.304-2.572 2.727-2.318l7.665 1.016"/><path stroke="rgba(0,0,0,0.4)" stroke-linejoin="round" stroke-width="1.08" d="M11.578 13s-4.258 2.4 1.216 3C17.667 16.534 28 16.6 28 26.2c0 7.8-2.433 9.6-5.475 10.8M16 16L45 1"/><path fill="rgba(228, 236, 242, 0.5)" d="M21 16.429L45.245 4S54 4.69 54 12.286c0 5.524-1.347 8.285-1.347 8.285L28.408 33S33.122 17.81 21 16.429"/></g></svg>