<svg xmlns="http://www.w3.org/2000/svg" xmlns:xlink="http://www.w3.org/1999/xlink" width="46" height="36" viewBox="0 0 46 36"><defs><path id="a" d="M45.66.271V36H0V.271z"/></defs><g fill="none" fill-rule="evenodd"><path fill="rgba(228, 236, 242, 0.5)" d="M38.906 6.981c.887.946.616 2.7-.827 5.363l-1.067-.571c1.607-2.966 1.177-3.788 1.007-3.97-.549-.586-2.566-.073-3.758.459l-.498-1.098c.625-.28 3.808-1.605 5.143-.183M28.788 32.41L43 34l-1.09-8.848a54.713 54.713 0 0 1 0-13.503L42.981 3l-11.57 1.807A57.052 57.052 0 0 1 23 5.48V32.067c.127 0 .255 0 .382.006h.006a22.491 22.491 0 0 0 4.825-3.197.608.608 0 0 1 .83.03.603.603 0 0 1-.027.881 23.234 23.234 0 0 1-3.24 2.37c1.006.054 2.012.139 3.012.253"/><path fill="#5B459B" d="M34.528 8.925c1.266-.531 3.408-1.044 3.99-.459.18.181.637 1.003-1.07 3.964l1.134.57c1.532-2.659 1.82-4.41.878-5.354-1.418-1.42-4.796-.098-5.46.182l.528 1.097z"/><mask id="b" fill="#fff"><use xlink:href="#a"/></mask><path fill="rgba(0,0,0,0.4)" d="M43.034 34.808l-14.66-1.611a50.23 50.23 0 0 0-4.987-.295c.98-.413 1.87-.885 2.65-1.352a23.124 23.124 0 0 0 3.237-2.323.583.583 0 0 0 .027-.863.616.616 0 0 0-.829-.028 22.484 22.484 0 0 1-4.819 3.132h-.006c-1.64.79-3.57 1.451-5.677 1.646v.024c-.194.012-.388.03-.581.053l-14.763 1.6c-.405.04-.805-.101-1.084-.402a1.214 1.214 0 0 1-.302-1.092l1.144-5.294c.394-1.823.678-3.659.848-5.494.17-.378.871-1.874 1.913-3.726-.008-.042-.026-.081-.026-.125 0-.28.186-.512.443-.6.326-.558.677-1.135 1.052-1.717a.62.62 0 0 1 .248-.381c.39-.59.8-1.176 1.227-1.745a.636.636 0 0 1 .412-.534c.108-.137.214-.274.323-.407a.577.577 0 0 0-.074-.818.616.616 0 0 0-.864.072 30.727 30.727 0 0 0-1.5 1.987.627.627 0 0 1-.152.222 49.143 49.143 0 0 0-2.809 4.668 46.496 46.496 0 0 0-1.04-11.249L1.264 2.97c-.091-.408.03-.809.32-1.11.29-.3.696-.437 1.113-.378l12.984 1.907c4.987.737 10.041.72 15.029-.042l12.25-1.882c.4-.06.798.065 1.09.336.284.272.423.655.375 1.045l-1.18 9.366a47.073 47.073 0 0 0 0 11.744l1.192 9.466c.048.384-.08.756-.357 1.027-.279.271-.66.401-1.047.36m2.608-1.529l-1.192-9.472a45.917 45.917 0 0 1 0-11.455l1.18-9.36A2.388 2.388 0 0 0 44.892.95a2.525 2.525 0 0 0-2.119-.649l-12.25 1.877c-4.86.743-9.8.761-14.666.047L2.881.319A2.504 2.504 0 0 0 .7 1.05a2.384 2.384 0 0 0-.623 2.16l1.12 5.193a45.577 45.577 0 0 1 0 19.357L.054 33.055a2.35 2.35 0 0 0 .593 2.125 2.498 2.498 0 0 0 2.113.785l14.762-1.6c3.553-.39 7.16-.383 10.713.006l14.66 1.611a2.496 2.496 0 0 0 2.046-.702 2.387 2.387 0 0 0 .701-2" mask="url(#b)"/><path fill="#5B459B" d="M4.538 4.591c.188 0 .35-.157.462-.392L4 4c.103.347.302.591.538.591M5.5 5a.5.5 0 1 0 0 1 .5.5 0 0 0 0-1m3 1a.5.5 0 1 0 0-1 .5.5 0 0 0 0 1m3-1a.5.5 0 1 0 0 1 .5.5 0 0 0 0-1m3 0a.5.5 0 1 0 0 1 .5.5 0 0 0 0-1m2.631 0a.665.665 0 0 0-.131.398c0 .332.224.602.5.602s.5-.27.5-.602c0-.11-.032-.21-.075-.299-.172-.02-.345-.038-.516-.061L17.13 5zM20 6.212c0 .435.224.788.5.788s.5-.353.5-.788c0-.045-.012-.085-.017-.129-.318-.021-.637-.05-.955-.083-.013.069-.028.137-.028.212M23.02 6c-.003.03-.02.056-.02.087 0 .411.277.764.669.913v-.988c-.216-.001-.433-.01-.649-.012M4.443 7A.567.567 0 0 0 4 7.211l.091.669c.097.071.217.12.352.12C4.75 8 5 7.776 5 7.5S4.751 7 4.443 7M7.5 7a.5.5 0 1 0 0 1 .5.5 0 0 0 0-1m3 0a.5.5 0 1 0 0 1 .5.5 0 0 0 0-1m3 0a.5.5 0 1 0 0 1 .5.5 0 0 0 0-1m2 0a.5.5 0 1 0 0 1 .5.5 0 0 0 0-1m3 1a.5.5 0 1 0 0-1 .5.5 0 0 0 0 1m3 0a.5.5 0 1 0 0-1 .5.5 0 0 0 0 1m-16 2a.5.5 0 1 0 0 1 .5.5 0 0 0 0-1m3 0a.5.5 0 1 0 0 1 .5.5 0 0 0 0-1m3 0a.5.5 0 1 0 0 1 .5.5 0 0 0 0-1m3 0a.5.5 0 1 0 0 1 .5.5 0 0 0 0-1m3 0a.5.5 0 1 0 0 1 .5.5 0 0 0 0-1m3 0a.5.5 0 1 0 0 1 .5.5 0 0 0 0-1m2.5.5c0 .225.276.418.669.5v-1c-.393.082-.669.274-.669.5M4.01 12H4l.151.632c.028.123.05.246.077.368.439-.052.772-.246.772-.488 0-.283-.443-.512-.99-.512m3.49 0a.5.5 0 1 0 0 1 .5.5 0 0 0 0-1m3 0a.5.5 0 1 0 0 1 .5.5 0 0 0 0-1m3 0a.5.5 0 1 0 0 1 .5.5 0 0 0 0-1m2 0a.5.5 0 1 0 0 1 .5.5 0 0 0 0-1m3 1a.5.5 0 1 0 0-1 .5.5 0 0 0 0 1m3 0a.5.5 0 1 0 0-1 .5.5 0 0 0 0 1m-16 1a.5.5 0 1 0 0 1 .5.5 0 0 0 0-1m3 1a.5.5 0 1 0-.177-.964.493.493 0 0 0-.313.416c-.002.016-.01.031-.01.048a.5.5 0 0 0 .5.5m3-1a.5.5 0 1 0 0 1 .5.5 0 0 0 0-1m3 0a.5.5 0 1 0 0 1 .5.5 0 0 0 0-1m3 0a.5.5 0 1 0 0 1 .5.5 0 0 0 0-1m3 0a.5.5 0 1 0 0 1 .5.5 0 0 0 0-1m2.5.5c0 .225.276.418.669.5v-1c-.393.082-.669.275-.669.5M5 16c.027.333.053.667.071 1 .193-.125.312-.295.312-.483 0-.21-.153-.39-.383-.517m2.5 1a.5.5 0 1 0 0-1 .49.49 0 0 0-.292.105.487.487 0 0 0-.188.296c-.007.033-.02.064-.02.099a.5.5 0 0 0 .5.5m3-1a.5.5 0 1 0 0 1 .5.5 0 0 0 0-1m3 0a.5.5 0 1 0 0 1 .5.5 0 0 0 0-1m2 0a.5.5 0 1 0 0 1 .5.5 0 0 0 0-1m3 1a.5.5 0 1 0 0-1 .5.5 0 0 0 0 1m3 0a.5.5 0 1 0 0-1 .5.5 0 0 0 0 1m-16 3a.5.5 0 1 0 0-1 .488.488 0 0 0-.164.033A.495.495 0 0 0 5 19.5c0 .034.013.065.02.097A.493.493 0 0 0 5.5 20m3 0a.5.5 0 1 0 0-1 .5.5 0 0 0 0 1m3-1a.5.5 0 1 0 0 1 .5.5 0 0 0 0-1m3 0a.5.5 0 1 0 0 1 .5.5 0 0 0 0-1m3 0a.5.5 0 1 0 0 1 .5.5 0 0 0 0-1m3 0a.5.5 0 1 0 0 1 .5.5 0 0 0 0-1m2.5.5c0 .225.276.418.669.5v-1c-.393.082-.669.275-.669.5M5.353 21.478c0-.186-.113-.35-.287-.478-.016.334-.043.667-.066 1 .214-.13.353-.315.353-.522M7.5 22a.5.5 0 1 0 0-1 .5.5 0 0 0 0 1m3-1a.5.5 0 1 0 0 1 .5.5 0 0 0 0-1m3 0a.5.5 0 1 0 0 1 .5.5 0 0 0 0-1m2 0a.5.5 0 1 0 0 1 .5.5 0 0 0 0-1m3 1a.5.5 0 1 0 0-1 .5.5 0 0 0 0 1m3 0a.5.5 0 1 0 0-1 .5.5 0 0 0 0 1m-16 2a.5.5 0 1 0 0-1 .5.5 0 0 0 0 1m3 0a.5.5 0 1 0 0-1 .5.5 0 0 0 0 1m3-1a.5.5 0 1 0 0 1 .5.5 0 0 0 0-1m3 0a.5.5 0 1 0 0 1 .5.5 0 0 0 0-1m3 0a.5.5 0 1 0 0 1 .5.5 0 0 0 0-1m3 0a.5.5 0 1 0 0 1 .5.5 0 0 0 0-1m2.5.5c0 .226.276.418.669.5v-1c-.393.082-.669.275-.669.5M5 25.489c0-.234-.326-.425-.767-.489-.052.227-.094.456-.152.683L4 26c.557-.019 1-.237 1-.511M7.5 26a.5.5 0 1 0 0-1 .5.5 0 0 0 0 1m3-1a.5.5 0 1 0 0 1 .5.5 0 0 0 0-1m3 0a.5.5 0 1 0 0 1 .5.5 0 0 0 0-1m2 0a.5.5 0 1 0 0 1 .5.5 0 0 0 0-1m3 1a.5.5 0 1 0 0-1 .5.5 0 0 0 0 1m3 0a.5.5 0 1 0 0-1 .5.5 0 0 0 0 1m-16 2a.5.5 0 1 0 0-1 .5.5 0 0 0 0 1m3 0a.5.5 0 1 0 0-1 .5.5 0 0 0 0 1m3-1a.5.5 0 1 0 0 1 .5.5 0 0 0 0-1m3 0a.5.5 0 1 0 0 1 .5.5 0 0 0 0-1m3 0a.5.5 0 1 0 0 1 .5.5 0 0 0 0-1m3 0a.5.5 0 1 0 0 1 .5.5 0 0 0 0-1m2.5.5c0 .225.276.418.669.5v-1c-.393.082-.669.275-.669.5M4.423 31c.32 0 .577-.224.577-.5s-.258-.5-.577-.5c-.12 0-.225.04-.319.094l-.104.74a.61.61 0 0 0 .423.166M7.5 31a.5.5 0 1 0 0-1 .5.5 0 0 0 0 1m3-1a.5.5 0 1 0 0 1 .5.5 0 0 0 0-1m3 0a.5.5 0 1 0 0 1 .5.5 0 0 0 0-1m2 0a.5.5 0 1 0 0 1 .5.5 0 0 0 0-1m3 1a.5.5 0 1 0 0-1 .5.5 0 0 0 0 1m3 0a.5.5 0 1 0 0-1 .5.5 0 0 0 0 1m-16 2a.5.5 0 1 0 0-1 .5.5 0 0 0 0 1m3 0a.5.5 0 1 0 0-1 .5.5 0 0 0 0 1m3-1a.5.5 0 1 0 0 1 .5.5 0 0 0 0-1m3.418.87a.615.615 0 0 0 .082-.296c0-.317-.224-.574-.5-.574-.277 0-.5.257-.5.574 0 .171.068.32.171.426l.493-.09c.085-.014.17-.025.254-.04m2.584-.87c-.277 0-.502.39-.502.871 0 .046.011.085.015.129.328-.067.656-.116.985-.17-.013-.462-.229-.83-.498-.83m3.004 0c-.247 0-.445.35-.506.815.333-.044.666-.095 1-.125-.078-.403-.268-.69-.494-.69m2.494.538c.185-.002.37-.013.555-.013V32c-.246.103-.44.298-.555.538M4.518 34c-.255 0-.459.358-.518.832h.282L5 34.606C4.911 34.25 4.731 34 4.518 34" mask="url(#b)"/></g></svg>