<svg xmlns="http://www.w3.org/2000/svg" xmlns:xlink="http://www.w3.org/1999/xlink" width="47" height="47" viewBox="0 0 47 47"><defs><circle id="a" cx="22.5" cy="22.5" r="22.5"/><path id="c" d="M.043.016C.138 2.319 1.71 4.15 4.581 4.15c1.633 0 3.341-.593 4.55-1.527.584-.453 1.354-.558 1.99-.192 1.872 1.08 1.302 2.988 2.975 4.27C17.497 9.306 22.14 4.09 25.234 4.09c3.276 0 5.405 2.466 9.167 2.466 3.763 0 6.84-4.467 14.182-4.467V.016H.043z"/></defs><g fill="none" fill-rule="evenodd" transform="translate(1 1)"><mask id="b" fill="#fff"><use xlink:href="#a"/></mask><g mask="url(#b)"><g transform="translate(-1.923 18.906)"><mask id="d" fill="#fff"><use xlink:href="#c"/></mask><path fill="#E1E1E1" mask="url(#d)" d="M-5.483 37.468h55.461V.016H-5.483z"/></g><g stroke="#FFF"><path stroke-width="1.024" d="M46.66 16.847c-7.342 0-10.42-4.466-14.181-4.466-3.763 0-5.891 2.465-9.168 2.465-3.094 0-7.737-5.217-11.137-2.612-1.608 1.232-1.144 3.042-2.769 4.14-.57.386-1.298.299-1.807-.174-1.209-1.124-3.122-1.86-4.94-1.86-2.963 0-4.542 1.952-4.542 4.358 0 2.407 1.58 4.358 4.542 4.358 1.633 0 3.342-.593 4.55-1.528.583-.452 1.354-.557 1.99-.19 1.872 1.08 1.302 2.987 2.976 4.268 3.4 2.606 8.043-2.612 11.137-2.612 3.277 0 5.405 2.466 9.168 2.466 3.762 0 6.839-4.466 14.18-4.466"/><path stroke-dasharray="0 2.012" stroke-linecap="round" stroke-width="1.536" d="M13.496 18.92h21.029"/></g></g><circle cx="22.5" cy="22.5" r="22.5" stroke="#FFF" stroke-width="2"/></g></svg>