<svg xmlns="http://www.w3.org/2000/svg" width="38" height="46" viewBox="0 0 38 46"><g fill="none" fill-rule="evenodd" stroke="rgba(0,0,0,0.4)"><path stroke-linejoin="round" stroke-width="1.012" d="M37.349 44.832H.509V.504h26.902l9.938 8.059z"/><path stroke-linecap="round" stroke-linejoin="round" stroke-width="1.012" d="M8.032 14.84l-.299.372-.3-.372"/><path stroke-dasharray=".949 1.898" stroke-linecap="round" stroke-linejoin="round" stroke-width="1.012" d="M6.243 13.364l-2.976-3.69"/><path stroke-linecap="round" stroke-linejoin="round" stroke-width="1.012" d="M2.672 8.935l-.3-.372.3-.371"/><path stroke-dasharray=".949 1.898" stroke-linecap="round" stroke-linejoin="round" stroke-width="1.012" d="M3.862 6.715l2.976-3.69"/><path stroke-linecap="round" stroke-linejoin="round" stroke-width="1.012" d="M7.433 2.286l.299-.372.3.372"/><path stroke-dasharray=".949 1.898" stroke-linecap="round" stroke-linejoin="round" stroke-width="1.012" d="M9.222 3.763l2.976 3.69"/><path stroke-linecap="round" stroke-linejoin="round" stroke-width="1.012" d="M12.793 8.192l.299.372-.299.371"/><path stroke-dasharray=".949 1.898" stroke-linecap="round" stroke-linejoin="round" stroke-width="1.012" d="M11.602 10.412l-2.975 3.69"/><path stroke-linecap="round" stroke-linejoin="round" stroke-width="1.012" d="M19.568 14.84l-.3.372-.299-.372"/><path stroke-dasharray=".949 1.898" stroke-linecap="round" stroke-linejoin="round" stroke-width="1.012" d="M17.778 13.364l-2.975-3.69"/><path stroke-linecap="round" stroke-linejoin="round" stroke-width="1.012" d="M14.208 8.935l-.3-.372.3-.371"/><path stroke-dasharray=".949 1.898" stroke-linecap="round" stroke-linejoin="round" stroke-width="1.012" d="M15.398 6.715l2.976-3.69"/><path stroke-linecap="round" stroke-linejoin="round" stroke-width="1.012" d="M18.969 2.286l.299-.372.3.372"/><path stroke-dasharray=".949 1.898" stroke-linecap="round" stroke-linejoin="round" stroke-width="1.012" d="M20.758 3.763l2.975 3.69"/><path stroke-linecap="round" stroke-linejoin="round" stroke-width="1.012" d="M24.328 8.192l.3.372-.3.371"/><path stroke-dasharray=".949 1.898" stroke-linecap="round" stroke-linejoin="round" stroke-width="1.012" d="M23.138 10.412l-2.975 3.69"/><path stroke-linecap="round" stroke-linejoin="round" stroke-width="1.012" d="M36.164 8.563l-.3.373"/><path stroke-dasharray=".949 1.898" stroke-linecap="round" stroke-linejoin="round" stroke-width="1.012" d="M34.674 10.412l-2.976 3.69"/><path stroke-linecap="round" stroke-linejoin="round" stroke-width="1.012" d="M31.103 14.84l-.299.372-.3-.372"/><path stroke-dasharray=".949 1.898" stroke-linecap="round" stroke-linejoin="round" stroke-width="1.012" d="M29.314 13.364l-2.975-3.69"/><path stroke-linecap="round" stroke-linejoin="round" stroke-width="1.012" d="M25.744 8.935l-.3-.372.304-.369"/><path stroke-dasharray=".855 1.709" stroke-linecap="round" stroke-linejoin="round" stroke-width="1.012" d="M26.834 6.878l1.087-1.317"/><path stroke-linecap="round" stroke-linejoin="round" stroke-width="1.012" d="M28.464 4.902l.304-.369M8.032 28.945l-.299.372-.3-.372"/><path stroke-dasharray=".949 1.898" stroke-linecap="round" stroke-linejoin="round" stroke-width="1.012" d="M6.243 27.468l-2.976-3.69"/><path stroke-linecap="round" stroke-linejoin="round" stroke-width="1.012" d="M2.672 23.04l-.3-.372.3-.372"/><path stroke-dasharray=".949 1.898" stroke-linecap="round" stroke-linejoin="round" stroke-width="1.012" d="M3.862 20.82l2.976-3.691"/><path stroke-linecap="round" stroke-linejoin="round" stroke-width="1.012" d="M7.433 16.391l.299-.372.3.372"/><path stroke-dasharray=".949 1.898" stroke-linecap="round" stroke-linejoin="round" stroke-width="1.012" d="M9.222 17.867l2.976 3.691"/><path stroke-linecap="round" stroke-linejoin="round" stroke-width="1.012" d="M12.793 22.296l.299.372-.299.372"/><path stroke-dasharray=".949 1.898" stroke-linecap="round" stroke-linejoin="round" stroke-width="1.012" d="M11.602 24.516l-2.975 3.69"/><path stroke-linecap="round" stroke-linejoin="round" stroke-width="1.012" d="M19.568 28.945l-.3.372-.299-.372"/><path stroke-dasharray=".949 1.898" stroke-linecap="round" stroke-linejoin="round" stroke-width="1.012" d="M17.778 27.468l-2.975-3.69"/><path stroke-linecap="round" stroke-linejoin="round" stroke-width="1.012" d="M14.208 23.04l-.3-.372.3-.372"/><path stroke-dasharray=".949 1.898" stroke-linecap="round" stroke-linejoin="round" stroke-width="1.012" d="M15.398 20.82l2.976-3.691"/><path stroke-linecap="round" stroke-linejoin="round" stroke-width="1.012" d="M18.969 16.391l.299-.372.3.372"/><path stroke-dasharray=".949 1.898" stroke-linecap="round" stroke-linejoin="round" stroke-width="1.012" d="M20.758 17.867l2.975 3.691"/><path stroke-linecap="round" stroke-linejoin="round" stroke-width="1.012" d="M24.328 22.296l.3.372-.3.372"/><path stroke-dasharray=".949 1.898" stroke-linecap="round" stroke-linejoin="round" stroke-width="1.012" d="M23.138 24.516l-2.975 3.69"/><path stroke-linecap="round" stroke-linejoin="round" stroke-width="1.012" d="M31.103 28.945l-.299.372-.3-.372"/><path stroke-dasharray=".949 1.898" stroke-linecap="round" stroke-linejoin="round" stroke-width="1.012" d="M29.314 27.468l-2.975-3.69"/><path stroke-linecap="round" stroke-linejoin="round" stroke-width="1.012" d="M25.744 23.04l-.3-.372.3-.372"/><path stroke-dasharray=".949 1.898" stroke-linecap="round" stroke-linejoin="round" stroke-width="1.012" d="M26.934 20.82l2.975-3.691"/><path stroke-linecap="round" stroke-linejoin="round" stroke-width="1.012" d="M30.504 16.391l.3-.372.3.372"/><path stroke-dasharray=".949 1.898" stroke-linecap="round" stroke-linejoin="round" stroke-width="1.012" d="M32.294 17.867l2.975 3.691"/><path stroke-linecap="round" stroke-linejoin="round" stroke-width="1.012" d="M35.864 22.296l.3.372-.3.372"/><path stroke-dasharray=".949 1.898" stroke-linecap="round" stroke-linejoin="round" stroke-width="1.012" d="M34.674 24.516l-2.976 3.69"/><path stroke-linecap="round" stroke-linejoin="round" stroke-width="1.012" d="M8.032 43.049l-.299.372-.3-.372"/><path stroke-dasharray=".949 1.898" stroke-linecap="round" stroke-linejoin="round" stroke-width="1.012" d="M6.243 41.573l-2.976-3.69"/><path stroke-linecap="round" stroke-linejoin="round" stroke-width="1.012" d="M2.672 37.144l-.3-.372.3-.371"/><path stroke-dasharray=".949 1.898" stroke-linecap="round" stroke-linejoin="round" stroke-width="1.012" d="M3.862 34.924l2.976-3.69"/><path stroke-linecap="round" stroke-linejoin="round" stroke-width="1.012" d="M7.433 30.495l.299-.372.3.372"/><path stroke-dasharray=".949 1.898" stroke-linecap="round" stroke-linejoin="round" stroke-width="1.012" d="M9.222 31.972l2.976 3.69"/><path stroke-linecap="round" stroke-linejoin="round" stroke-width="1.012" d="M12.793 36.401l.299.372-.299.371"/><path stroke-dasharray=".949 1.898" stroke-linecap="round" stroke-linejoin="round" stroke-width="1.012" d="M11.602 38.62l-2.975 3.691"/><path stroke-linecap="round" stroke-linejoin="round" stroke-width="1.012" d="M19.568 43.049l-.3.372-.299-.372"/><path stroke-dasharray=".949 1.898" stroke-linecap="round" stroke-linejoin="round" stroke-width="1.012" d="M17.778 41.573l-2.975-3.69"/><path stroke-linecap="round" stroke-linejoin="round" stroke-width="1.012" d="M14.208 37.144l-.3-.372.3-.371"/><path stroke-dasharray=".949 1.898" stroke-linecap="round" stroke-linejoin="round" stroke-width="1.012" d="M15.398 34.924l2.976-3.69"/><path stroke-linecap="round" stroke-linejoin="round" stroke-width="1.012" d="M18.969 30.495l.299-.372.3.372"/><path stroke-dasharray=".949 1.898" stroke-linecap="round" stroke-linejoin="round" stroke-width="1.012" d="M20.758 31.972l2.975 3.69"/><path stroke-linecap="round" stroke-linejoin="round" stroke-width="1.012" d="M24.328 36.401l.3.372-.3.371"/><path stroke-dasharray=".949 1.898" stroke-linecap="round" stroke-linejoin="round" stroke-width="1.012" d="M23.138 38.62l-2.975 3.691"/><path stroke-linecap="round" stroke-linejoin="round" stroke-width="1.012" d="M31.103 43.049l-.299.372-.3-.372"/><path stroke-dasharray=".949 1.898" stroke-linecap="round" stroke-linejoin="round" stroke-width="1.012" d="M29.314 41.573l-2.975-3.69"/><path stroke-linecap="round" stroke-linejoin="round" stroke-width="1.012" d="M25.744 37.144l-.3-.372.3-.371"/><path stroke-dasharray=".949 1.898" stroke-linecap="round" stroke-linejoin="round" stroke-width="1.012" d="M26.934 34.924l2.975-3.69"/><path stroke-linecap="round" stroke-linejoin="round" stroke-width="1.012" d="M30.504 30.495l.3-.372.3.372"/><path stroke-dasharray=".949 1.898" stroke-linecap="round" stroke-linejoin="round" stroke-width="1.012" d="M32.294 31.972l2.975 3.69"/><path stroke-linecap="round" stroke-linejoin="round" stroke-width="1.012" d="M35.864 36.401l.3.372-.3.371"/><path stroke-dasharray=".949 1.898" stroke-linecap="round" stroke-linejoin="round" stroke-width="1.012" d="M34.674 38.62l-2.976 3.691"/><path stroke-width=".675" d="M27.411.504l2.036 8.731 8.143-.672"/></g></svg>