<svg xmlns="http://www.w3.org/2000/svg" xmlns:xlink="http://www.w3.org/1999/xlink" width="38" height="39" viewBox="0 0 38 39"><defs><ellipse id="a" cx="17.881" cy="17.867" rx="17.881" ry="17.867"/></defs><g fill="none" fill-rule="evenodd" transform="translate(1.166 1.51)"><ellipse cx="17.881" cy="17.867" stroke="#FFF" stroke-width="1.589" rx="17.881" ry="17.867"/><mask id="b" fill="#fff"><use xlink:href="#a"/></mask><g mask="url(#b)"><path fill="#FFF" d="M23.841 17.149l.902-.896h-.871v-.372h1.559v.32l-.902.896h.902v.372h-1.59zM19.073 14.287l1.352-2.24H19.12v-.93h2.337v.799l-1.351 2.241h1.351v.93h-2.384zM22.344 4.764v1.302h2.611l-2.703 3.137v1.12h4.768V9.02h-2.703l2.703-3.136v-1.12z"/><path d="M-2.034 15.826a.935.935 0 0 0-.938.932v13.793c0 .515.42.932.938.932a.935.935 0 0 0 .937-.932V16.758a.935.935 0 0 0-.937-.932"/><path fill="#FFF" d="M-2.034 16.239a.522.522 0 0 0-.523.52V30.55a.522.522 0 0 0 1.045 0V16.758a.521.521 0 0 0-.522-.52m0 15.658a1.35 1.35 0 0 1-1.353-1.345V16.758a1.35 1.35 0 0 1 1.353-1.345 1.35 1.35 0 0 1 1.353 1.345v13.793a1.35 1.35 0 0 1-1.353 1.345"/><path fill="#FFF" d="M2.51 22.451a2.989 2.989 0 0 0-2.994 2.977v1.204a2.989 2.989 0 0 0 2.993 2.977h12.182a2.989 2.989 0 0 0 2.994-2.977v-1.204a2.989 2.989 0 0 0-2.994-2.977H2.51zm12.181 7.984H2.51c-2.108 0-3.824-1.706-3.824-3.803v-1.204c0-2.097 1.716-3.803 3.824-3.803h12.182c2.109 0 3.824 1.706 3.824 3.803v1.204c0 2.097-1.715 3.803-3.824 3.803z"/><path fill="#FFF" d="M21.463 21.318a2.943 2.943 0 0 0-2.948 2.931v1.188a2.943 2.943 0 0 0 2.948 2.932H33.48a2.943 2.943 0 0 0 2.948-2.932V24.25a2.943 2.943 0 0 0-2.948-2.931H21.463zm12.018 7.876H21.463c-2.083 0-3.778-1.685-3.778-3.757V24.25c0-2.071 1.695-3.757 3.778-3.757H33.48c2.084 0 3.779 1.686 3.779 3.757v1.188c0 2.072-1.695 3.757-3.779 3.757z"/><path fill="#FFF" d="M8.403 20.343a2.263 2.263 0 0 0-2.267 2.254 2.263 2.263 0 0 0 2.267 2.255 2.263 2.263 0 0 0 2.267-2.255 2.263 2.263 0 0 0-2.267-2.254m0 5.335a3.092 3.092 0 0 1-3.098-3.08c0-1.7 1.39-3.081 3.098-3.081s3.098 1.382 3.098 3.08c0 1.699-1.39 3.08-3.098 3.08m18.996-7.804a2.263 2.263 0 0 0-2.266 2.255 2.263 2.263 0 0 0 2.266 2.254 2.263 2.263 0 0 0 2.268-2.254 2.263 2.263 0 0 0-2.268-2.255m0 5.335a3.093 3.093 0 0 1-3.097-3.08c0-1.699 1.39-3.08 3.097-3.08 1.708 0 3.098 1.381 3.098 3.08 0 1.698-1.39 3.08-3.098 3.08"/><path fill="#FEFEFE" d="M-4.353 37.113V29.62a3.16 3.16 0 0 1 3.169-3.15H18.1v10.798m22.453 0v-7.275c0-1.946-1.587-3.524-3.544-3.524H33.6"/><path fill="#020302" d="M40.968 37.268h-.83v-7.275a3.123 3.123 0 0 0-3.13-3.11H33.6v-.827h3.409c2.183 0 3.959 1.766 3.959 3.937v7.275z"/><path fill="#E0E0DB" d="M40.553 38.125v-7.274c0-1.946-1.587-3.524-3.544-3.524a3.67 3.67 0 0 1-3.38-2.228c-.974-2.289-3.406-3.91-6.25-3.91-2.846 0-5.277 1.621-6.252 3.91a3.67 3.67 0 0 1-3.38 2.228h-1.374c-1.179 0-2.262-.58-2.975-1.513-1.09-1.424-2.92-2.36-4.995-2.36s-3.905.936-4.995 2.36c-.714.933-1.797 1.513-2.975 1.513H-.81c-1.957 0-3.544 1.578-3.544 3.524v7.12"/><path fill="#FFF" d="M40.968 37.268h-.83v-7.274a3.123 3.123 0 0 0-3.13-3.112 4.08 4.08 0 0 1-3.761-2.48c-.932-2.188-3.29-3.658-5.869-3.658-2.578 0-4.937 1.47-5.868 3.659a4.079 4.079 0 0 1-3.762 2.48h-1.375c-1.287 0-2.491-.611-3.306-1.676-1.052-1.376-2.796-2.197-4.664-2.197-1.868 0-3.612.821-4.664 2.197-.815 1.065-2.02 1.675-3.306 1.675H-.81c-1.725 0-3.129 1.396-3.129 3.112v7.12h-.83v-7.12c0-2.171 1.776-3.937 3.959-3.937H.433c1.024 0 1.988-.493 2.645-1.35 1.208-1.58 3.199-2.522 5.325-2.522 2.126 0 4.117.942 5.325 2.522.656.857 1.62 1.35 2.645 1.35h1.375c1.31 0 2.486-.776 2.997-1.976 1.077-2.529 3.68-4.162 6.633-4.162 2.954 0 5.557 1.633 6.634 4.162a3.25 3.25 0 0 0 2.997 1.976c2.183 0 3.959 1.766 3.959 3.937v7.274z"/><path fill="#E0E0DB" d="M37.385 27.326h-1.258c-1.115 0-2.141-.687-2.482-1.742-.82-2.542-3.39-4.396-6.432-4.396-3.043 0-5.612 1.854-6.432 4.396-.341 1.055-1.367 1.742-2.482 1.742H18.1v10.8h22.453v-7.649a3.16 3.16 0 0 0-3.168-3.15"/><path fill="#FFF" d="M17.685 7.559a.415.415 0 0 1 .83 0 .415.415 0 0 1-.83 0m0 1.652a.415.415 0 0 1 .83 0 .415.415 0 0 1-.83 0m0 1.651a.415.415 0 0 1 .83 0 .415.415 0 0 1-.83 0m0 1.652a.415.415 0 0 1 .83 0 .415.415 0 0 1-.83 0m0 1.652a.415.415 0 0 1 .83 0 .415.415 0 0 1-.83 0m0 1.651a.415.415 0 0 1 .83 0 .415.415 0 0 1-.83 0m0 1.652a.415.415 0 0 1 .83 0 .415.415 0 0 1-.83 0m0 1.652a.415.415 0 0 1 .83 0 .415.415 0 0 1-.83 0m0 1.651a.415.415 0 0 1 .83 0 .415.415 0 0 1-.83 0m0 1.652a.415.415 0 0 1 .83 0 .415.415 0 0 1-.83 0m0 1.652a.415.415 0 0 1 .83 0 .415.415 0 0 1-.83 0m0 1.651a.415.415 0 0 1 .83 0 .415.415 0 0 1-.83 0m0 1.652a.415.415 0 0 1 .83 0 .415.415 0 0 1-.83 0m0 1.652a.415.415 0 0 1 .83 0 .415.415 0 0 1-.83 0m0 1.652a.415.415 0 0 1 .83 0 .415.415 0 0 1-.83 0m0 1.651a.415.415 0 0 1 .83 0 .415.415 0 0 1-.83 0m0 1.652a.415.415 0 0 1 .83 0 .415.415 0 0 1-.83 0m0 1.652a.415.415 0 0 1 .83 0 .415.415 0 0 1-.83 0m0 1.651a.415.415 0 0 1 .83 0 .415.415 0 0 1-.83 0m0 1.652a.415.415 0 0 1 .83 0 .415.415 0 0 1-.83 0m0 1.652a.415.415 0 0 1 .83 0 .415.415 0 0 1-.83 0m0 1.651a.415.415 0 0 1 .83 0 .415.415 0 0 1-.83 0m0 1.652a.415.415 0 0 1 .83 0 .415.415 0 0 1-.83 0m0 1.652a.415.415 0 0 1 .83 0 .415.415 0 0 1-.83 0m0 1.651a.415.415 0 0 1 .83 0 .415.415 0 0 1-.83 0m0 1.652a.415.415 0 0 1 .83 0 .415.415 0 0 1-.83 0"/></g></g></svg>