<svg xmlns="http://www.w3.org/2000/svg" width="40" height="40" viewBox="0 0 44 44"><g fill="#2F1945" fill-rule="evenodd"><path d="M0 0h20v4H0zM0 8h20v4H0zM0 16h20v4H0z"/></g><g fill="#FFF" fill-rule="evenodd"><path d="M20 0h20v3H20zM20 8h20v3H20zM20 17h20v3H20z"/></g><g fill="#2F1945" fill-rule="evenodd"><path d="M.718 32.008l11.704-11.704 1.756 1.756L2.474 33.764z"/><path d="M2.474 30.236L14.178 41.94l-1.756 1.756L.718 31.992z"/></g><g fill="#FFF" fill-rule="evenodd"><path d="M20.718 32.008l11.704-11.704 1.756 1.756-11.704 11.704z"/><path d="M22.474 30.236L34.178 41.94l-1.756 1.756-11.704-11.704z"/></g></svg>