<svg width="27" height="27" viewBox="0 0 27 27" xmlns="http://www.w3.org/2000/svg"><title>Group 15</title><g transform="translate(1 1)" fill="none" fill-rule="evenodd"><g fill="#FFF"><path d="M19.515 13.044a.731.731 0 0 1-.99.333l-2.254-.894a.264.264 0 0 0-.362.248v1.46a1.906 1.906 0 0 0-.474-.06c-.207 0-.408.036-.599.098-.304-1.05-1.14-1.764-2.105-1.764-.973 0-1.808.724-2.108 1.772a1.909 1.909 0 0 0-.86-.091v-1.414a.267.267 0 0 0-.116-.22.262.262 0 0 0-.246-.028l-2.273.901a.725.725 0 0 1-.971-.34.739.739 0 0 1 .346-.984l3.412-1.81a3.469 3.469 0 0 0 2.574 1.423 2.204 2.204 0 0 0 .455 0 3.476 3.476 0 0 0 2.64-1.513l3.592 1.903a.736.736 0 0 1 .34.98zm-2.382 3.702c0 1.148-.762 2.083-1.698 2.083-.653 0-1.22-.455-1.504-1.12l-.001-.004a2.446 2.446 0 0 1-.193-.959c0-1.148.762-2.082 1.698-2.082.936 0 1.698.934 1.698 2.082zm-5.014.798c.069-.252.107-.52.107-.798 0-.968-.452-1.814-1.12-2.265.213-.873.865-1.483 1.625-1.483.75 0 1.402.597 1.62 1.465-.68.448-1.142 1.303-1.142 2.283 0 .278.038.546.106.798H12.12zm-2.12 1.285c-.936 0-1.698-.935-1.698-2.083 0-1.148.762-2.082 1.698-2.082.936 0 1.698.934 1.698 2.082 0 .346-.07.672-.193.96l-.001.003c-.284.665-.851 1.12-1.504 1.12zM9.167 6.335a.865.865 0 0 1-.25-.614c0-.232.089-.45.25-.613l.348-.35a.857.857 0 0 1 1.217 0l.325.327A3.52 3.52 0 0 0 9.55 6.72l-.383-.385zm1.852 3.104c0-.943.762-1.712 1.698-1.712.936 0 1.698.768 1.698 1.712 0 .945-.762 1.713-1.698 1.713a1.707 1.707 0 0 1-1.698-1.713zm4.652-1.267c0 .839-.347 1.596-.902 2.139a2.25 2.25 0 0 0-.86-2.765.555.555 0 0 0 .33-.507.553.553 0 0 0-.552-.556.554.554 0 0 0-.512.76 2.202 2.202 0 0 0-.917 0 .556.556 0 0 0-.511-.76.555.555 0 1 0-.222 1.063 2.248 2.248 0 0 0-.86 2.765 2.98 2.98 0 0 1-.902-2.139c0-1.642 1.325-2.979 2.954-2.979 1.629 0 2.954 1.337 2.954 2.98zm-.969-3.414a.856.856 0 0 1 1.217 0l.348.35c.161.163.25.38.25.613 0 .233-.089.45-.25.614l-.382.385a3.522 3.522 0 0 0-1.507-1.635l.324-.327zm4.713 6.83l-3.565-1.89c.222-.462.35-.978.35-1.526 0-.31-.044-.61-.12-.896l.56-.564c.262-.264.406-.616.406-.99 0-.376-.144-.728-.406-.992l-.347-.35a1.383 1.383 0 0 0-1.965 0l-.472.477a3.436 3.436 0 0 0-1.14-.197c-.399 0-.781.071-1.139.197l-.472-.477a1.383 1.383 0 0 0-1.965 0l-.347.35a1.398 1.398 0 0 0-.406.991c0 .375.144.727.406.991l.56.564c-.076.287-.12.586-.12.896 0 .587.145 1.14.399 1.627l-3.367 1.785a1.274 1.274 0 0 0-.584 1.693c.302.628 1.054.892 1.66.596l1.893-.75v1.17c-.852.368-1.462 1.327-1.462 2.453 0 1.442.999 2.616 2.227 2.616.814 0 1.525-.517 1.913-1.285h1.61c.388.768 1.1 1.285 1.913 1.285 1.228 0 2.227-1.173 2.227-2.616 0-1.02-.5-1.902-1.227-2.334l.003-.015v-1.274l1.875.742c.624.304 1.376.04 1.678-.589a1.272 1.272 0 0 0-.576-1.688z"/><path d="M12.717 8.172c.414 0 .75.339.75.756a.753.753 0 0 1-.75.756.753.753 0 0 1-.75-.756c0-.417.336-.756.75-.756"/></g><circle stroke="#FFF" stroke-width=".5" cx="12.5" cy="12.5" r="12.5"/></g></svg>