<svg width="27" height="27" viewBox="0 0 27 27" xmlns="http://www.w3.org/2000/svg"><g fill="none" fill-rule="evenodd"><path d="M13.5 26c2.838 0 5.455-.946 7.553-2.54A12.48 12.48 0 0 0 26 13.5C26 6.596 20.404 1 13.5 1S1 6.596 1 13.5 6.596 26 13.5 26z" stroke="#FFF" stroke-width=".5"/><path d="M8.65 7.76a.53.53 0 0 1 .42-.132c.716.086 1.45-.01 1.823-.076a.73.73 0 0 0 .56-.464c.04-.11.074-.235.101-.373a.281.281 0 0 1 .141-.192.315.315 0 0 1 .265-.02c.446.165.949.25 1.496.25.548 0 1.05-.085 1.496-.25a.316.316 0 0 1 .265.02.282.282 0 0 1 .141.192c.027.138.062.263.102.373a.73.73 0 0 0 .56.464c.373.066 1.106.162 1.823.076a.53.53 0 0 1 .419.132.566.566 0 0 1 .19.424.562.562 0 0 1-.636.554 16.698 16.698 0 0 0-1.818-.15.56.56 0 0 0-.552.397.94.94 0 0 1-.174.327c-.239.28-.566.661-1.816.661s-1.577-.382-1.816-.66a.941.941 0 0 1-.174-.328.565.565 0 0 0-.552-.397c-.543.011-1.155.062-1.818.15a.563.563 0 0 1-.636-.554c0-.162.07-.316.19-.424M8.28 9.028c.244.214.569.312.891.27a15.592 15.592 0 0 1 1.758-.145c.043.14.128.344.284.526.356.415.852.858 2.244.858 1.393 0 1.889-.443 2.244-.858.156-.182.241-.387.286-.528.523.012 1.114.06 1.756.146a1.121 1.121 0 0 0 1.274-1.113c0-.323-.138-.631-.38-.846a1.099 1.099 0 0 0-.86-.27c-.645.077-1.316-.011-1.66-.071a.165.165 0 0 1-.127-.103 1.975 1.975 0 0 1-.078-.288.847.847 0 0 0-.419-.575.879.879 0 0 0-.736-.057c-.382.142-.82.214-1.3.214-.48 0-.917-.072-1.3-.214a.879.879 0 0 0-.736.057.847.847 0 0 0-.419.574 1.976 1.976 0 0 1-.078.29.165.165 0 0 1-.127.102c-.343.06-1.014.148-1.66.07a1.099 1.099 0 0 0-.86.271c-.241.215-.38.523-.38.846 0 .324.14.631.383.844M18.262 13.717a.562.562 0 0 1-.445.134 16.772 16.772 0 0 0-1.819-.15.576.576 0 0 0-.552.397.941.941 0 0 1-.174.327c-.239.279-.566.661-1.816.661s-1.577-.382-1.816-.66a.942.942 0 0 1-.174-.328.58.58 0 0 0-.552-.398c-.543.012-1.154.063-1.818.151a.563.563 0 0 1-.636-.554c0-.162.07-.316.19-.424a.527.527 0 0 1 .42-.133c.716.087 1.45-.01 1.822-.075a.729.729 0 0 0 .56-.464c.04-.11.075-.236.102-.373a.281.281 0 0 1 .141-.193.316.316 0 0 1 .265-.02c.446.166.95.25 1.496.25.547 0 1.05-.084 1.496-.25a.316.316 0 0 1 .265.02.282.282 0 0 1 .141.193c.027.137.062.263.102.373.088.242.303.42.56.464.373.065 1.106.162 1.823.075a.53.53 0 0 1 .419.133.567.567 0 0 1 .19.424.55.55 0 0 1-.19.42m.374-1.265a1.1 1.1 0 0 0-.86-.271c-.646.077-1.317-.012-1.66-.071a.164.164 0 0 1-.127-.103 1.935 1.935 0 0 1-.078-.288.847.847 0 0 0-.419-.576.879.879 0 0 0-.736-.056c-.382.142-.82.214-1.3.214-.48 0-.917-.072-1.3-.214a.879.879 0 0 0-.736.056.847.847 0 0 0-.419.575 1.963 1.963 0 0 1-.078.289.164.164 0 0 1-.127.103c-.343.06-1.014.149-1.66.07a1.098 1.098 0 0 0-.86.272 1.122 1.122 0 0 0 .893 1.959 15.61 15.61 0 0 1 1.759-.145c.043.14.128.344.284.526.356.415.852.858 2.244.858 1.393 0 1.889-.443 2.244-.858.156-.182.24-.387.286-.528.522.012 1.113.06 1.756.146a1.125 1.125 0 0 0 .894-1.958" fill="#FFF"/><path d="M18.262 18.342a.565.565 0 0 1-.445.134 16.735 16.735 0 0 0-1.819-.15.574.574 0 0 0-.552.397.941.941 0 0 1-.174.327c-.239.28-.566.661-1.816.661s-1.577-.382-1.816-.66a.942.942 0 0 1-.174-.328.581.581 0 0 0-.552-.397c-.545.012-1.157.062-1.818.15a.563.563 0 0 1-.636-.554c0-.162.07-.316.19-.423a.53.53 0 0 1 .42-.133c.716.086 1.45-.01 1.823-.076a.73.73 0 0 0 .56-.464c.04-.11.074-.236.101-.373a.28.28 0 0 1 .141-.192.316.316 0 0 1 .265-.02c.446.165.95.25 1.496.25.547 0 1.05-.085 1.496-.25a.316.316 0 0 1 .265.02.281.281 0 0 1 .141.192c.027.137.062.263.102.373a.73.73 0 0 0 .56.464c.373.065 1.106.162 1.823.076a.53.53 0 0 1 .419.133.566.566 0 0 1 .19.423.55.55 0 0 1-.19.42m.374-1.265a1.102 1.102 0 0 0-.86-.271c-.645.078-1.317-.011-1.66-.071a.164.164 0 0 1-.127-.103 1.941 1.941 0 0 1-.078-.288.846.846 0 0 0-.419-.575.878.878 0 0 0-.736-.056c-.382.141-.82.213-1.3.213-.48 0-.917-.072-1.3-.213a.878.878 0 0 0-.736.056.846.846 0 0 0-.419.574 1.945 1.945 0 0 1-.078.29.164.164 0 0 1-.127.102c-.343.06-1.014.148-1.66.07a1.101 1.101 0 0 0-.86.272 1.13 1.13 0 0 0-.38.845 1.122 1.122 0 0 0 1.274 1.113c.632-.084 1.24-.134 1.758-.143.043.139.128.343.284.525.356.415.852.858 2.244.858 1.393 0 1.889-.443 2.244-.858.156-.182.24-.386.286-.527.517.01 1.124.061 1.756.145a1.126 1.126 0 0 0 .894-1.958" fill="#FFF"/></g></svg>