<svg width="27" height="27" viewBox="0 0 27 27" xmlns="http://www.w3.org/2000/svg"><g transform="translate(1 1)" fill="none" fill-rule="evenodd"><circle stroke="#FFF" stroke-width=".5" cx="12.5" cy="12.5" r="12.5"/><path d="M12.786 18.615a5.528 5.528 0 0 1-4.584-2.42c.357.064.72.096 1.082.096 3.38 0 6.13-2.736 6.13-6.1a5.98 5.98 0 0 0-.395-2.145c1.98.871 3.313 2.861 3.313 5.05 0 3.043-2.488 5.52-5.546 5.52m1.769-11.36a.29.29 0 1 0-.344.411c.41.791.618 1.64.618 2.524 0 3.044-2.487 5.52-5.545 5.52-.541 0-1.08-.08-1.601-.237a.295.295 0 0 0-.308.093.289.289 0 0 0-.036.319 6.113 6.113 0 0 0 5.447 3.31c3.38 0 6.13-2.737 6.13-6.1 0-2.669-1.794-5.07-4.361-5.84M7.89 8.696c0-.16-.13-.29-.291-.29H6.43l1.401-1.86a.289.289 0 0 0-.233-.464H5.847a.291.291 0 0 0-.291.29c0 .16.13.291.291.291h1.168l-1.401 1.86a.289.289 0 0 0 .233.464H7.6c.161 0 .292-.13.292-.29" fill="#FFF"/><path d="M8.182 10.482h2.296l-2.52 3.009a.29.29 0 0 0 .224.476h2.92a.291.291 0 1 0 0-.58H8.805l2.52-3.01a.29.29 0 0 0-.225-.476H8.182a.291.291 0 0 0-.291.29c0 .16.13.29.291.29M9.35 5.501h.622l-.865 1.291a.289.289 0 0 0-.015.298c.051.095.15.154.258.154h1.167c.161 0 .292-.13.292-.29 0-.161-.13-.291-.292-.291h-.622l.865-1.292a.289.289 0 0 0 .015-.298.292.292 0 0 0-.258-.153H9.35a.291.291 0 0 0-.292.29c0 .16.13.291.292.291" fill="#FFF"/></g></svg>