<svg width="30" height="21" viewBox="0 0 30 21" xmlns="http://www.w3.org/2000/svg"><title>Fill 1 Copy</title><path d="M.938 3.736l13.784 9.878a.465.465 0 0 0 .556 0l13.784-9.878V18.59c0 .702-.548 1.255-1.245 1.255H2.183A1.238 1.238 0 0 1 .938 18.59V3.736zM2.183.945h25.634c.697 0 1.245.538 1.245 1.24v.399L15 12.639.937 2.584v-.399c0-.702.548-1.24 1.246-1.24zm0-.945C.983 0 0 .976 0 2.185V18.59c0 1.21.983 2.2 2.183 2.2h25.634c1.2 0 2.183-.99 2.183-2.2V2.185C30 .975 29.017 0 27.817 0H2.183z" fill="#FFF" fill-rule="evenodd"/></svg>