<svg width="27" height="27" viewBox="0 0 27 27" xmlns="http://www.w3.org/2000/svg"><title>Group 12</title><g transform="translate(1 1)" fill="none" fill-rule="evenodd"><path d="M5.644 12.744c0-.25.205-.452.459-.452h12.793c.253 0 .459.202.459.452v2.05c0 .25-.206.452-.46.452H6.104a.456.456 0 0 1-.46-.452v-2.05zm6.014-1.42v.426H8.125v-.427c0-.35.287-.633.642-.633h2.248c.355 0 .643.284.643.633zm5.188 0v.426h-3.531v-.427c0-.35.287-.633.642-.633h2.246c.355 0 .643.284.643.633zM7.021 9.494c0-.848.7-1.535 1.56-1.536h7.835a1.55 1.55 0 0 1 1.561 1.536v2.255h-.58v-.427a1.186 1.186 0 0 0-1.194-1.175h-2.246a1.186 1.186 0 0 0-1.193 1.175v.427h-.551v-.427c-.001-.649-.535-1.174-1.194-1.175H8.767a1.186 1.186 0 0 0-1.193 1.175v.427h-.551L7.02 9.495zm10.958 6.87c0 .11-.09.2-.203.2a.201.201 0 0 1-.203-.2v-.577h.406v.577zm-10.552 0c0 .11-.091.2-.203.2a.201.201 0 0 1-.203-.2v-.577h.406v.577zm-2.334-1.571c0 .549.452.993 1.01.994h.367v.577c0 .41.337.742.754.742a.748.748 0 0 0 .754-.742v-.577h9.044v.577c0 .41.338.742.754.742a.748.748 0 0 0 .754-.742v-.577h.367a1.004 1.004 0 0 0 1.01-.994v-2.05c0-.549-.452-.993-1.01-.994h-.367V9.486c0-1.147-.946-2.078-2.112-2.079H8.582c-1.166.001-2.111.932-2.112 2.08v2.263h-.367c-.558 0-1.01.445-1.01.994v2.05z" fill="#FFF"/><circle stroke="#FFF" stroke-width=".5" cx="12.5" cy="12.5" r="12.5"/></g></svg>