<svg width="27" height="27" viewBox="0 0 27 27" xmlns="http://www.w3.org/2000/svg"><title>Group 14</title><g transform="translate(1 1)" fill="none" fill-rule="evenodd"><path d="M12.275 17.712c-.915-.537-5.599-3.425-5.599-6.238 0-1.627 1.332-2.95 2.968-2.95.935 0 1.796.425 2.363 1.165l.261.342.262-.342a2.953 2.953 0 0 1 2.363-1.165c1.636 0 2.968 1.323 2.968 2.95 0 3.063-4.666 5.74-5.586 6.238m2.618-9.842a3.606 3.606 0 0 0-2.625 1.117A3.606 3.606 0 0 0 9.644 7.87c-1.999 0-3.626 1.617-3.626 3.604 0 3.485 5.842 6.76 6.09 6.898l.153.085.156-.08c.25-.125 6.102-3.122 6.102-6.903 0-1.987-1.627-3.604-3.626-3.604" fill="#FFF"/><circle stroke="#FFF" stroke-width=".5" cx="12.5" cy="12.5" r="12.5"/></g></svg>