<!-- Generated by IcoMoon.io -->
<svg version="1.1" xmlns="http://www.w3.org/2000/svg" width="842" height="1024" viewBox="0 0 842 1024">
<title></title>
<g id="icomoon-ignore">
</g>
<path fill="#472E8C" d="M832.723 533.621v0c0.112-0.112 0.112-0.112 0.337-0.337l0.337-0.337c2.583-2.92 4.38-6.065 5.841-9.435 0 0 0 0 0.112-0.112 0 0 0 0 0.112-0.112 0 0 0.112-0.112 0-0.337v0c1.46-3.37 2.022-6.851 2.471-10.446v0-1.011c0 0 0 0 0.112-0.112 0-1.235 0.112-2.359 0-3.482 0 0 0 0-0.112-0.112v-0.337c0 0-0.112-0.112 0-0.337 0 0 0 0-0.112-0.112v-0.337c-0.225-3.706-1.123-7.188-2.583-10.446v0l-0.112-0.112c0 0 0 0-0.112-0.112 0 0 0 0-0.112-0.112-1.46-3.37-3.37-6.514-5.953-9.322v0l-0.449-0.449c0 0 0 0-0.112-0.112-0.337-0.337-0.674-0.674-1.011-0.899l-153.201-152.527c-14.040-13.927-36.953-13.815-50.88 0.225s-13.815 36.953 0.225 50.88l91.539 90.865-269.113 1.011c-19.656 0.112-35.829 16.286-35.717 36.054 0 9.884 4.043 18.869 10.558 25.384s15.612 10.446 25.496 10.333l269.338-1.685-90.865 91.539c-13.927 14.040-13.815 36.953 0.225 50.88s36.953 13.815 50.88-0.225l151.966-153.201c0.225-0.337 0.562-0.674 0.899-1.011v0z"></path>
<path fill="#472E8C" d="M412.43 771.285l-0.112-0.112c-19.656-25.496-36.054-52.902-47.96-79.521-5.504-12.018-12.917-23.025-22.351-32.347-20.105-19.88-46.612-31.112-74.916-31.337l-37.963-1.572c-16.623-75.365-16.623-154.437-0.225-231.262l36.503-0.112c28.416-0.225 55.373-11.456 75.59-31.898 8.985-9.098 16.735-20.105 20.666-29.427 13.253-29.876 29.764-57.731 50.655-85.137 0.112-0.112 0.112-0.112 0.337-0.337 31.561-42.681 26.956-102.995-10.895-140.509l-77.050-76.376c-42.119-41.782-110.745-41.445-152.527 0.562-2.696 2.696-4.942 5.279-8.648 9.772-0.112 0.112-0.337 0.337-0.449 0.449-72.67 91.427-123.549 200.15-147.024 314.602-21.79 102.658-21.453 211.045 1.348 313.703 24.485 115.35 75.028 221.266 150.281 314.602 0.112 0.112 0.337 0.337 0.449 0.449 2.246 2.583 4.493 5.054 6.851 7.413 42.231 41.894 110.521 41.67 152.527-0.562l75.927-76.488c0.449-0.449 0.899-1.011 1.46-1.46 37.739-38.637 40.996-98.727 7.525-143.093v0zM294.834 306.178c0.112-0.112 0.112-0.112 0.112-0.449 0.112 0.225 0 0.337-0.112 0.449zM352.677 864.284c-0.337 0.337-0.674 0.674-1.123 1.123l-75.59 76.264c-13.927 14.040-36.84 14.152-50.88 0.225-0.786-0.786-1.46-1.46-2.022-2.359-67.84-84.351-113.441-180.045-135.68-284.276v-0.337c-20.554-92.55-20.891-190.715-1.123-283.377 0 0 0.112-0.112 0-0.337 21.003-103.445 67.054-201.835 132.647-284.164 2.696-3.37 3.482-4.156 3.931-4.605 13.927-14.040 36.84-14.152 50.88-0.225l76.488 75.927c0.112 0.112 0.112 0.112 0.337 0.337l0.112 0.112c12.58 12.467 14.264 32.46 3.706 46.724-24.148 32.011-43.579 64.695-58.967 99.626-0.112 0.112-0.112 0.449-0.112 0.449-0.674 1.235-2.808 4.156-5.504 6.851-6.627 6.739-15.5 10.558-25.047 10.558l-64.47 0.225c-16.174 0.112-30.438 10.895-34.706 26.619-28.192 105.916-28.079 216.773 0.337 320.555 4.043 15.051 17.409 25.833 33.134 26.507l65.594 2.808c0.449 0.112 0.899 0 1.46 0.112 9.547 0 18.42 3.706 25.159 10.333 3.145 3.145 5.616 6.851 7.525 10.558 14.152 31.449 33.583 64.021 56.383 93.673 11.793 15.837 11.232 35.829-1.685 48.97-0.225 0.674-0.449 0.899-0.786 1.123v0z"></path>
<path fill="#472E8C" d="M141.857 408.724l-57.956-42.568c-28.304-20.891-34.482-60.764-13.59-89.18l138.6-188.469c20.891-28.304 60.764-34.482 89.18-13.59l57.956 42.568c28.304 20.891 34.482 60.764 13.59 89.18l-138.712 188.469c-20.891 28.304-60.764 34.369-89.068 13.59z"></path>
<path fill="#472E8C" d="M133.546 457.694h5.841v5.841h-5.841v-5.841z"></path>
<path fill="#472E8C" d="M54.362 349.869h124.673v375.703h-124.673v-375.703z"></path>
<path fill="#472E8C" d="M198.669 594.088l209.642 254.818-161.321 132.721-209.642-254.818 161.321-132.721z"></path>
</svg>
