<svg xmlns="http://www.w3.org/2000/svg" xmlns:xlink="http://www.w3.org/1999/xlink" width="54" height="54" viewBox="0 0 54 54"><defs><ellipse id="a" cx="25.714" cy="25.808" rx="25.714" ry="25.808"/><path id="c" d="M.497.018c.11 2.64 1.926 4.74 5.245 4.74 1.887 0 3.863-.68 5.258-1.751.677-.519 1.567-.64 2.3-.22 2.167 1.239 1.508 3.425 3.442 4.893 3.931 2.986 9.297-2.994 12.874-2.994 3.788 0 6.248 2.826 10.598 2.826 4.348 0 7.905-5.118 16.393-5.118V.018H.497z"/></defs><g fill="none" fill-rule="evenodd" transform="translate(1 1)"><mask id="b" fill="#fff"><use xlink:href="#a"/></mask><g mask="url(#b)"><g transform="translate(-4.571 26.921)"><mask id="d" fill="#fff"><use xlink:href="#c"/></mask><path fill="#EAE4FE" mask="url(#d)" d="M-5.891 42.938H58.22V.018H-5.891z"/></g><path stroke="#472E8C" stroke-width="1.172" d="M52.035 24.562c-8.486 0-12.043-5.118-16.392-5.118-4.35 0-6.81 2.826-10.597 2.826-3.578 0-8.944-5.979-12.876-2.994-1.858 1.412-1.322 3.487-3.2 4.745-.658.442-1.5.342-2.088-.2-1.398-1.288-3.609-2.13-5.71-2.13-3.426 0-5.251 2.235-5.251 4.993 0 2.758 1.825 4.994 5.25 4.994 1.887 0 3.863-.68 5.258-1.75.676-.52 1.567-.64 2.302-.22 2.164 1.238 1.506 3.424 3.44 4.893 3.93 2.985 9.297-2.994 12.875-2.994 3.787 0 6.247 2.826 10.597 2.826 4.349 0 7.906-5.118 16.392-5.118"/><path stroke="#472E8C" stroke-dasharray="0 2.303" stroke-linecap="round" stroke-width="1.758" d="M14.429 26.55h24.308"/><path stroke="#FFF" stroke-width="1.172" d="M.036 6.873v12.929"/><path d="M.036 2.874c-1.303 0-2.37 1.05-2.37 2.333 0 1.284 1.067 2.333 2.37 2.333 1.303 0 2.368-1.05 2.368-2.333 0-1.283-1.065-2.333-2.368-2.333"/><path stroke="#FFF" stroke-width="1.172" d="M.036 2.874c-1.303 0-2.37 1.05-2.37 2.333 0 1.284 1.067 2.333 2.37 2.333 1.303 0 2.368-1.05 2.368-2.333 0-1.283-1.065-2.333-2.368-2.333z"/><path stroke="#472E8C" stroke-width="1.172" d="M11.924 46.38v-9.333"/><path d="M12.007 51.095c1.303 0 2.369-1.05 2.369-2.333 0-1.283-1.066-2.333-2.37-2.333-1.302 0-2.368 1.05-2.368 2.333 0 1.283 1.066 2.333 2.369 2.333"/><path stroke="#472E8C" stroke-width="1.172" d="M12.007 51.095c1.303 0 2.369-1.05 2.369-2.333 0-1.283-1.066-2.333-2.37-2.333-1.302 0-2.368 1.05-2.368 2.333 0 1.283 1.066 2.333 2.369 2.333zM47.859 6.948v14.594"/><path d="M47.92 2.874c1.304 0 2.37 1.05 2.37 2.333 0 1.284-1.066 2.333-2.37 2.333-1.303 0-2.368-1.05-2.368-2.333 0-1.283 1.065-2.333 2.369-2.333"/><path stroke="#FFF" stroke-width="1.172" d="M47.92 2.874c1.304 0 2.37 1.05 2.37 2.333 0 1.284-1.066 2.333-2.37 2.333-1.303 0-2.368-1.05-2.368-2.333 0-1.283 1.065-2.333 2.369-2.333z"/><path stroke="#472E8C" stroke-width="1.172" d="M35.488 45.905v-9.827"/><path d="M35.95 50.511c-1.304 0-2.37-1.05-2.37-2.333 0-1.283 1.066-2.333 2.37-2.333 1.303 0 2.368 1.05 2.368 2.333 0 1.283-1.065 2.333-2.369 2.333"/><path stroke="#472E8C" stroke-width="1.172" d="M35.95 50.511c-1.304 0-2.37-1.05-2.37-2.333 0-1.283 1.066-2.333 2.37-2.333 1.303 0 2.368 1.05 2.368 2.333 0 1.283-1.065 2.333-2.369 2.333zM23.705 6.948v13.04"/><path d="M23.978 2.874c-1.303 0-2.369 1.05-2.369 2.333 0 1.284 1.066 2.333 2.37 2.333 1.302 0 2.368-1.05 2.368-2.333 0-1.283-1.066-2.333-2.369-2.333"/><path stroke="#472E8C" stroke-width="1.172" d="M23.978 2.874c-1.303 0-2.369 1.05-2.369 2.333 0 1.284 1.066 2.333 2.37 2.333 1.302 0 2.368-1.05 2.368-2.333 0-1.283-1.066-2.333-2.369-2.333z"/></g><ellipse cx="25.943" cy="25.808" stroke="#472E8C" stroke-width="1.2" rx="25.714" ry="25.808"/></g></svg>