<svg xmlns="http://www.w3.org/2000/svg" xmlns:xlink="http://www.w3.org/1999/xlink" width="54" height="54" viewBox="0 0 54 54"><defs><ellipse id="a" cx="25.828" cy="25.808" rx="25.828" ry="25.808"/><path id="c" d="M.302 5.433h10.222V.238H.302z"/><path id="e" d="M10.486.352v5.125H.402V.352h10.084z"/></defs><g fill="none" fill-rule="evenodd" transform="translate(1 1)"><mask id="b" fill="#fff"><use xlink:href="#a"/></mask><g mask="url(#b)"><path fill="#472E8C" d="M30.384 24.612l.995-.994h-.96v-.413h1.719v.355l-.994.994h.994v.413h-1.754zM26 20.734l1.989-1.988h-1.921v-.825h3.439v.709l-1.988 1.989h1.988v.825H26zM29.507 15.095l2.487-2.982h-2.401v-1.238h4.299v1.065l-2.486 2.981h2.486v1.238h-4.385z"/><path fill="#FFF" d="M4.3 22.637c-.547 0-.99.45-.99 1.004v14.853a.997.997 0 0 0 .99 1.004c.547 0 .99-.45.99-1.004V23.641a.997.997 0 0 0-.99-1.004"/><path stroke="#472E8C" stroke-width=".864" d="M4.3 22.637c-.547 0-.99.45-.99 1.004v14.853a.997.997 0 0 0 .99 1.004c.547 0 .99-.45.99-1.004V23.641a.997.997 0 0 0-.99-1.004z"/><path fill="#FFF" d="M21.961 37.924H9.098c-1.988 0-3.6-1.634-3.6-3.65v-1.297c0-2.016 1.612-3.65 3.6-3.65H21.96c1.989 0 3.6 1.634 3.6 3.65v1.297c0 2.016-1.611 3.65-3.6 3.65"/><path stroke="#472E8C" stroke-width=".864" d="M21.961 37.924H9.098c-1.988 0-3.6-1.634-3.6-3.65v-1.297c0-2.016 1.612-3.65 3.6-3.65H21.96c1.989 0 3.6 1.634 3.6 3.65v1.297c0 2.016-1.611 3.65-3.6 3.65z"/><path fill="#FFF" d="M41.803 36.589h-12.69c-1.962 0-3.552-1.613-3.552-3.602v-1.279c0-1.989 1.59-3.601 3.551-3.601h12.691c1.962 0 3.552 1.612 3.552 3.601v1.28c0 1.988-1.59 3.6-3.552 3.6"/><path stroke="#472E8C" stroke-width=".864" d="M41.803 36.589h-12.69c-1.962 0-3.552-1.613-3.552-3.602v-1.279c0-1.989 1.59-3.601 3.551-3.601h12.691c1.962 0 3.552 1.612 3.552 3.601v1.28c0 1.988-1.59 3.6-3.552 3.6z"/><g transform="translate(15.037 29.089)"><mask id="d" fill="#fff"><use xlink:href="#c"/></mask><path fill="#EAE3FD" d="M10.524 5.433H.302V.238H6.87c2.018 0 3.654 1.658 3.654 3.705v1.49z" mask="url(#d)"/></g><g transform="translate(35.208 28.2)"><mask id="f" fill="#fff"><use xlink:href="#e"/></mask><path fill="#EAE3FD" d="M10.486 5.477H.402V.352h6.48c1.99 0 3.604 1.636 3.604 3.655v1.47z" mask="url(#f)"/></g><path fill="#FFF" d="M18.154 29.929c0 1.586-1.268 2.872-2.833 2.872-1.564 0-2.832-1.286-2.832-2.872 0-1.587 1.268-2.873 2.832-2.873 1.565 0 2.833 1.286 2.833 2.873"/><path stroke="#472E8C" stroke-width=".864" d="M18.154 29.929c0 1.586-1.268 2.872-2.833 2.872-1.564 0-2.832-1.286-2.832-2.872 0-1.587 1.268-2.873 2.832-2.873 1.565 0 2.833 1.286 2.833 2.873z"/><path fill="#FFF" d="M38.214 27.27c0 1.586-1.268 2.872-2.833 2.872-1.564 0-2.832-1.286-2.832-2.873 0-1.586 1.268-2.872 2.832-2.872 1.565 0 2.833 1.286 2.833 2.872"/><path stroke="#472E8C" stroke-width=".864" d="M38.214 27.27c0 1.586-1.268 2.872-2.833 2.872-1.564 0-2.832-1.286-2.832-2.873 0-1.586 1.268-2.872 2.832-2.872 1.565 0 2.833 1.286 2.833 2.872z"/><path fill="#FFF" d="M1.852 45.56v-8.069c0-1.874 1.498-3.393 3.345-3.393h20.364v11.629m21.261-23.09c.547 0 .99.45.99 1.004v14.853a.997.997 0 0 1-.99 1.004.997.997 0 0 1-.99-1.004V23.641a.997.997 0 0 1 .99-1.004"/><path stroke="#472E8C" stroke-width=".864" d="M46.822 22.637c.547 0 .99.45.99 1.004v14.853a.997.997 0 0 1-.99 1.004.997.997 0 0 1-.99-1.004V23.641a.997.997 0 0 1 .99-1.004z"/><path fill="#FFF" d="M49.27 45.727v-7.834c0-2.096-1.675-3.795-3.742-3.795H41.93"/><path stroke="#0A0B09" stroke-width=".864" d="M49.27 45.727v-7.834c0-2.096-1.675-3.795-3.742-3.795H41.93"/><g><path fill="#FFF" d="M49.27 45.727v-7.834c0-2.096-1.675-3.795-3.742-3.795A3.875 3.875 0 0 1 41.96 31.7c-1.028-2.465-3.596-4.21-6.6-4.21-3.005 0-5.572 1.745-6.601 4.21a3.874 3.874 0 0 1-3.569 2.4h-1.452c-1.244 0-2.388-.625-3.141-1.63-1.151-1.534-3.083-2.54-5.275-2.54-2.191 0-4.123 1.006-5.274 2.54-.754 1.005-1.897 1.63-3.142 1.63H5.594c-2.067 0-3.743 1.698-3.743 3.794v7.667"/><path stroke="#472E8C" stroke-width=".864" d="M49.27 45.727v-7.834c0-2.096-1.675-3.795-3.742-3.795A3.875 3.875 0 0 1 41.96 31.7c-1.028-2.465-3.596-4.21-6.6-4.21-3.005 0-5.572 1.745-6.601 4.21a3.874 3.874 0 0 1-3.569 2.4h-1.452c-1.244 0-2.388-.625-3.141-1.63-1.151-1.534-3.083-2.54-5.275-2.54-2.191 0-4.123 1.006-5.274 2.54-.754 1.005-1.897 1.63-3.142 1.63H5.594c-2.067 0-3.743 1.698-3.743 3.794v7.667"/></g><path fill="#EAE3FD" d="M48.851 45.742l.061-7.452c0-2.101-1.36-3.734-3.426-3.734-1.557 0-3.218-1.07-3.825-2.527-1.03-2.47-3.298-4.111-6.302-4.111-3.005 0-5.304 1.737-6.333 4.208-.607 1.457-2.578 2.35-3.311 2.35v11.266h23.136z"/><path stroke="#472E8C" stroke-dasharray="0 2.88" stroke-linecap="round" stroke-linejoin="round" stroke-width="1.44" d="M26 51.242V5.778"/></g><ellipse cx="25.828" cy="25.808" stroke="#472E8C" stroke-width="1.2" rx="25.828" ry="25.808"/></g></svg>