<svg xmlns="http://www.w3.org/2000/svg" xmlns:xlink="http://www.w3.org/1999/xlink" width="52" height="52" viewBox="0 0 52 52"><defs><circle id="a" cx="25" cy="25" r="25"/><path id="c" d="M0 41h42V0H0z"/></defs><g fill="none" fill-rule="evenodd" transform="translate(1 1)"><mask id="b" fill="#fff"><use xlink:href="#a"/></mask><g mask="url(#b)"><g transform="translate(4 9)"><path fill="#FEFEFE" d="M3.566 21.976v-7.922c0-.932-.793-1.688-1.772-1.688-.978 0-1.771.756-1.771 1.688v7.922"/><path stroke="#020303" stroke-width="1.08" d="M3.566 21.976v-7.922c0-.932-.793-1.688-1.772-1.688-.978 0-1.771.756-1.771 1.688v7.922"/><path fill="#FEFEFE" d="M9.027 29.094l-5.444-5.26a1.546 1.546 0 0 1 0-2.24 1.68 1.68 0 0 1 2.319 0l1.71 1.654c.915.881 2.073 1.462 3.318 1.793 2.685.714 4.657 3.09 4.657 5.91V40.7"/><path stroke="#020303" stroke-width="1.08" d="M9.027 29.094l-5.444-5.26a1.546 1.546 0 0 1 0-2.24 1.68 1.68 0 0 1 2.319 0l1.71 1.654c.915.881 2.073 1.462 3.318 1.793 2.685.714 4.657 3.09 4.657 5.91V40.7"/><path stroke="#020303" stroke-width="1.08" d="M0 16l.026 7.998c.01 3.142 1.804 6.015 4.651 7.445l1.99.987A2.381 2.381 0 0 1 8 34.56V36"/><path fill="#FEFEFE" d="M16.871 41v-6.811H8.054V41"/><path stroke="#020303" stroke-width="1.08" d="M16.871 41v-6.811H8.054V41"/><path fill="#FEFEFE" d="M38.38 21.976v-7.922c0-.932.793-1.688 1.772-1.688.978 0 1.771.756 1.771 1.688v7.922"/><path stroke="#020303" stroke-width="1.08" d="M38.38 21.976v-7.922c0-.932.793-1.688 1.772-1.688.978 0 1.771.756 1.771 1.688v7.922"/><path fill="#FEFEFE" d="M32.92 29.094l5.445-5.26c.64-.618.64-1.62 0-2.24a1.681 1.681 0 0 0-2.319 0l-1.71 1.654c-.915.881-2.073 1.462-3.318 1.793-2.684.714-4.658 3.09-4.658 5.91V40.7"/><path stroke="#020303" stroke-width="1.08" d="M32.92 29.094l5.445-5.26c.64-.618.64-1.62 0-2.24a1.681 1.681 0 0 0-2.319 0l-1.71 1.654c-.915.881-2.073 1.462-3.318 1.793-2.684.714-4.658 3.09-4.658 5.91V40.7"/><path stroke="#020303" stroke-width="1.08" d="M42 16l-.026 7.998c-.01 3.142-1.804 6.015-4.651 7.445l-1.99.987A2.381 2.381 0 0 0 34 34.56V36"/><path fill="#FEFEFE" d="M26.075 41v-6.811h8.817V41"/><path stroke="#020303" stroke-width="1.08" d="M26.075 41v-6.811h8.817V41"/><path fill="#E1E1E1" d="M24.226 7.774V1H21v20h3.226v-6.774H31V7.774z"/><path stroke="#FEFEFE" stroke-width="2.7" d="M11 14.226h6.774V21h6.451v-6.774H31V7.774h-6.775V1h-6.451v6.774H11z"/><path stroke="#020303" stroke-width="1.08" d="M11 14.226h6.774V21h6.451v-6.774H31V7.774h-6.775V1h-6.451v6.774H11z"/><mask id="d" fill="#fff"><use xlink:href="#c"/></mask><path fill="#E1E1E1" mask="url(#d)" d="M12 41h3v-6h-3zM30 41h3v-6h-3z"/></g></g><circle cx="25" cy="25" r="25" stroke="#2F1945" stroke-width="2"/></g></svg>