<svg xmlns="http://www.w3.org/2000/svg" width="100" height="100" viewBox="0 0 100 100"><g fill="#1B1A19" fill-rule="evenodd"><path d="M50 98.593C23.175 98.593 1.373 76.824 1.373 50 1.373 23.175 23.175 1.373 50 1.373c26.825 0 48.627 21.768 48.627 48.594 0 26.825-21.802 48.626-48.627 48.626M50 0C22.438 0 0 22.438 0 50s22.438 50 50 50 50-22.438 50-50S77.562 0 50 0"/><path d="M34.36 73.543c1.139-.134 2.545 0 3.718 0h3.617c.569 0 1.172-.034 1.708.034a2.54 2.54 0 0 1 1.004.335c1.173.67 1.307 2.679.636 4.019-.736 0-1.406-.302-2.042-.436-2.68-.57-5.325-1.876-7.402-3.114-.368-.235-.736-.502-1.105-.704-.066-.1-.2-.134-.134-.134m31.581-.1c.401-.034.837 0 1.272 0 0 0 .034.067.034.1-.134.067-.101.1-.134.134-.1.101-.268.067-.402.135v.1c-.301.067-.502.267-.703.435-1.473.971-3.148 1.674-4.923 2.31-1.005.37-2.076.737-3.215.972-.168.033-.838.301-1.038.234v-.066c-.335-.202-.469-.536-.637-.938h-.066c0-.235-.067-.369-.1-.604-.034-.568.066-1.004.233-1.372.235-.57.77-1.038 1.373-1.24.671-.234 1.675-.167 2.579-.167 1.876-.034 3.886.1 5.727-.034m-7.736-6.463c.469-.067 1.038 0 1.507 0H74.146c-.1.067-.033.133-.1.234l-.234.135c-.067.1-.067.234-.135.3-.335.37-.67.805-1.005 1.173-.837.97-1.774 1.775-2.746 2.612-.167.134-.57.57-.77.603-.2.067-.536 0-.77 0H58.072c-.168 0-.437.067-.604 0v-.034c-1.306-.334-1.875-2.51-1.038-3.85.302-.57 1.005-1.072 1.775-1.173m-30.81-.1H41.66c.435 0 .938-.068 1.407 0 .368.033.77.2 1.105.334 1.172.537 1.842 2.345.97 3.718-.3.469-.937 1.005-1.606 1.072h-.268c-.77.133-1.81.033-2.646.033H33.188c-.234 0-.536.067-.737 0-.167-.033-.502-.402-.636-.535-.268-.235-.569-.403-.837-.637-.837-.703-1.574-1.54-2.311-2.378-.402-.435-.804-.904-1.105-1.407a1.037 1.037 0 0 0-.134-.2c-.067.033-.067 0-.033 0m-3.55-6.23H41.76c.537 0 1.206-.067 1.675.034.201.034.335.034.502.1.034 0 .1.1.134.134.804.402 1.34 1.072 1.274 2.277 0 .168.032.369-.035.536h-.067a1.43 1.43 0 0 1-.134.403c-.234.603-.67 1.105-1.272 1.306-.201.067-.502.134-.703.167-.369.067-.837 0-1.207 0H27.26c-.234 0-.669.067-.87 0-.1-.033-.235-.368-.302-.469-.837-1.306-1.674-2.713-2.176-4.32-.067-.134-.067-.168-.067-.168m34.963-.033c.435-.034.97 0 1.373.034 1.44.1 2.947 0 4.387 0h11.721c.47 0 1.039-.034 1.407.033-.268 1.34-1.206 2.813-1.842 3.885-.201.335-.502.636-.67 1.038H59.846c-.536 0-1.172.034-1.64-.034-.135-.032-.202 0-.302-.032-1.206-.37-1.976-1.14-1.843-2.713a2.317 2.317 0 0 1 .536-1.407c.202-.268.87-.67 1.24-.77.302-.034.703 0 .97-.034m-36.77-6.296h19.322c.57 0 1.24-.067 1.81 0 .368.067.803.2 1.07.368 1.04.603 1.508 2.077.871 3.45-.301.636-.803.971-1.573 1.172-.034 0-.067.1-.067.1-.302.101-.804 0-1.139 0H24.28c-.267 0-.703.101-.937 0-.035 0 0-.033-.035-.066-.268-.436-.401-1.005-.535-1.541-.235-.87-.503-1.875-.67-2.813-.033-.234-.067-.369-.1-.603.033-.034.033-.067.033-.067m36.504-.034c.77-.067 1.54 0 2.31 0h18.554c0 1.408-.302 2.78-.67 3.885-.134.436-.402.771-.469 1.24H59.243c-.334 0-1.038.1-1.34 0l-.032-.101c-.504-.034-1.006-.368-1.24-.67-.804-.938-.837-2.645 0-3.583.368-.436 1.105-.737 1.91-.77m.1-6.531c.4-.1.937 0 1.339 0h18.018c.502 0 1.238-.1 1.673.034.235 1.675.135 3.75-.1 5.392H60.348c-.602 0-1.273.066-1.808-.034-.3-.033-.602-.033-.87-.134-1.44-.469-2.345-2.378-1.34-4.052.401-.67 1.238-1.105 2.31-1.206 0 0-.033 0 0 0m-36.805 0H40.79c.67 0 1.474-.067 2.077.034.469.067.803.067 1.172.2 1.105.435 1.91 2.077 1.373 3.618-.235.636-.804 1.104-1.474 1.306-.536.167-1.171 0-1.808.066-1.641.135-3.383.034-5.023.034H23.477c-.537 0-1.273.067-1.742-.034 0-1.708-.033-3.549.1-5.224m31.95-6.664c.4-.067.904 0 1.306 0h16.678c.3 0 .937-.101 1.204 0l.034.067c.335.2 1.407 4.488 1.24 5.258h-21.5v-.068c-.101-.033-.201 0-.302-.033v-.067c-1.507-.3-2.21-2.78-1.173-4.12.302-.4.939-.77 1.508-.937.234-.033.67-.033 1.004-.1m-35.7 0c.302-.101 1.206 0 1.574 0h16.946c.436 0 .87-.034 1.306 0 .201.033.469.067.67.133.067.034.201.134.267.202 1.173.669 1.675 2.042 1.039 3.616-.2.537-.703 1.005-1.273 1.206-.703.235-1.841.201-2.78.168-.937-.034-2.008 0-3.013 0-.603 0-1.273.067-1.842 0-.033 0-.1.033-.1.033h-9.713c-1.44 0-3.047-.1-4.42 0 0-1.44.435-2.713.77-3.885.101-.234.469-1.44.57-1.473m8.371-6.296s.436 0 .604.033c.67.034 1.373 0 2.042 0h10.785c.903 0 1.84.067 2.745 0 .268-.033.837-.067 1.072 0l.033.1c.202 0 .268.1.402.134.636.268 1.273.804 1.273 1.71h.067c.068.3 0 .702 0 1.003h-.067c-.033.1.034.201 0 .302-.133.57-.737 1.406-1.34 1.473v.101c-.067.034-.167 0-.234 0v.067h-19.96c.134-.704.536-1.34.837-1.91.57-1.07 1.072-2.11 1.741-3.013m31.816-.067c.167-.034.402 0 .536.033 1.306.1 2.646 0 3.951 0h11.454c.268 0 .67-.067.938 0 .133.034.234.335.301.469.636.871 1.273 1.842 1.708 2.913.234.536.402 1.039.603 1.575H57.635v-.067c-.066-.033-.167.033-.234 0l-.1-.1c-1.373-.537-1.809-2.446-.904-3.785.402-.57 1.07-.905 1.875-1.038m-.234-6.564c.234-.034.536 0 .803 0h9.712c.134 0 .368-.034.47 0l.033.1c.1.1.267.168.401.268 1.508 1.072 2.747 2.345 3.885 3.751.302.368.704.704.871 1.172H59.645c-.435 0-.938.067-1.34 0-.166-.033-.603-.133-.77-.234v-.067c-.837-.368-1.139-1.039-1.34-2.01-.033-.134-.1-.435-.033-.602.034-.201.2-.502.234-.67 0-.067-.033-.134 0-.201 0 0 .101-.134.135-.134.2-.704.703-1.206 1.507-1.373m-25.687 0c.268-.067.67 0 .938 0H41.226c.736 0 1.675-.1 2.378 0 .167.033.401.1.569.167 1.24.536 1.775 2.445 1.038 3.851-.235.435-.837 1.072-1.407 1.173-.167.033-.268.033-.468.033-1.775.134-3.684.034-5.493.034H27.294c.034-.402 1.272-1.708 1.607-2.077.805-.904 1.742-1.842 2.713-2.578.235-.168.435-.47.703-.536 0 0-.033-.067.034-.067m12.458-5.694c.234 0 .435.435.503.637.468 1.206.268 2.411-.604 3.047-.1.067-.234.234-.3.268-.034 0-.101-.034-.135 0 0 0-.033.068-.033.101-.034.034-.1 0-.134 0s-.201.134-.268.134c-.234.067-.536.1-.77.134-.301.034-.636 0-.938 0h-1.976c-1.876 0-3.817.067-5.66-.033.067-.034.134-.168.201-.201.034-.034.067 0 .1 0 .202-.067.402-.302.57-.437.57-.334 1.172-.702 1.742-1.004 1.774-.97 3.784-1.607 5.894-2.21.435-.134.904-.235 1.406-.335.1-.033.301-.1.402-.1m11.99-.068c.133-.033.4.101.501.134.403.1.838.201 1.24.301 2.043.57 3.918 1.173 5.66 2.01.469.235.938.536 1.406.804.402.234.737.536 1.105.77.067.034.2.034.234.101v.1c0 .034.135.101.168.135h-8.506c0-.034 0-.067-.034-.067-.1-.034-.2.033-.301 0a3.38 3.38 0 0 1-.77-.235c-.603-.268-1.105-.838-1.34-1.44-.2-.503-.167-1.239.033-1.742 0 0 .068 0 .101-.033.067-.168.1-.268.134-.436h.1c.034-.033-.033-.1 0-.134 0 0 .101-.033.135-.033 0-.101 0-.235.133-.235M11.755 68.687c.301.603.1 1.306-.469 1.574-.536.268-1.206-.034-1.507-.637-.301-.602-.1-1.305.435-1.573.57-.3 1.24 0 1.541.636M14.401 70.764l2.243 3.55-.469.301-.937-1.474-3.382 2.177-.369-.603 3.382-2.177-.938-1.473zM19.189 77.428l.435.536-3.549 2.88-.436-.536 1.642-1.34-1.708-2.076-1.641 1.34-.436-.536 3.55-2.88.436.536-1.474 1.205 1.708 2.076zM19.926 84.762l-2.746-2.646 3.182-3.282 2.712 2.612-.368.403-2.21-2.144-.971 1.005 2.042 1.976-.368.402-2.043-1.976-1.071 1.105 2.243 2.177zM28.232 85.264l.569.369-2.579 3.784-.636-.436-.067-4.52-2.076 3.048-.57-.369 2.579-3.784.67.468.033 4.488zM28.198 90.522l-.636-.368.335-.602.636.368zM32.921 92.833l-3.685-1.708.201-.469 4.354-1.842-2.645-1.238.234-.503 3.483 1.608-.234.468-4.354 1.809 2.88 1.339zM34.695 93.503l-.703-.268.235-.636.702.268zM42.197 92.331c0-.838-.703-1.14-1.205-1.24-.905-.2-1.775.202-2.044 1.374-.234 1.038 0 1.942 1.24 2.243.435.101 1.239.101 1.707-.87l.67.168c-.67 1.607-2.243 1.339-2.612 1.238-1.139-.268-2.11-1.171-1.708-2.88.335-1.373 1.44-2.11 2.88-1.774 1.307.3 1.809 1.171 1.742 1.942l-.67-.2zM47.388 91.627l.703.068-.469 4.554-.703-.067.234-2.11-2.679-.267-.234 2.11-.704-.068.47-4.555.702.067-.2 1.876 2.679.268zM49.9 96.283h-.703l.1-4.555H50zM52.144 94.307l1.674-.101c.837-.067.938.368.971.737 0 .167.067.87.201 1.139l.837-.067v-.1c-.234-.101-.268-.201-.301-.436l-.1-.837c-.067-.637-.369-.737-.67-.804.335-.2.703-.468.636-1.138-.067-.972-.938-1.173-1.775-1.106l-2.378.168.301 4.554.704-.033-.1-1.976zm-.134-2.11l1.74-.101c.336-.034.939 0 .972.704.034.67-.47.837-1.005.87l-1.607.067-.1-1.54zm9.276.469c-.2-.971-1.038-2.244-2.913-1.876-1.876.369-2.211 1.876-2.01 2.847.201.971 1.038 2.244 2.914 1.875 1.876-.335 2.176-1.842 2.01-2.846m-.704.167c.2 1.072-.302 1.942-1.407 2.177-1.105.201-1.909-.435-2.11-1.473-.2-1.072.302-1.943 1.407-2.177 1.105-.235 1.908.435 2.11 1.473m2.545-.334l1.54-.503c1.072-.335 1.24-1.172 1.038-1.775-.234-.703-.937-1.039-1.842-.737l-2.21.737 1.44 4.353.67-.234-.636-1.841zm-.67-2.01l1.34-.435c.535-.168 1.038-.134 1.206.402.2.602-.135.903-.737 1.105l-1.306.435-.502-1.507zm5.426.2l1.54-.702c.77-.369 1.005 0 1.172.334.068.168.402.77.603.972l.77-.369-.033-.1c-.235 0-.302-.067-.436-.301l-.401-.737c-.302-.57-.603-.536-.938-.503.235-.302.47-.67.2-1.306-.402-.87-1.305-.736-2.042-.401l-2.177 1.004 1.942 4.153.637-.302-.837-1.741zm-.872-1.875l1.575-.736c.3-.135.87-.335 1.172.301.301.602-.168.938-.603 1.172l-1.473.67-.67-1.407zm7.837-1.172l1.139.871.636-.402-4.019-2.88-.67.435.77 4.89.604-.369-.235-1.406 1.775-1.139zm-1.842.502l-.368-2.143 1.708 1.306-1.34.837zm5.225-5.358c-.637-.502-1.34-.134-1.709.168-.736.57-.937 1.54-.2 2.478.67.838 1.507 1.206 2.512.435.367-.268.837-.904.367-1.908l.536-.436c.838 1.54-.334 2.58-.636 2.814-.904.736-2.243.903-3.315-.47-.871-1.105-.77-2.411.402-3.349 1.038-.837 2.043-.67 2.578-.167l-.535.435zM78.198 81.045l2.947-2.981.402.402-1.239 1.239 2.847 2.846-.503.503-2.846-2.846-1.239 1.238zM86.136 75.519c-.771-.603-2.245-1.038-3.45.469-1.206 1.507-.469 2.847.302 3.482.77.604 2.243 1.039 3.449-.468 1.239-1.574.469-2.914-.301-3.483m-.436.57c.837.67 1.038 1.674.334 2.578-.703.87-1.74.904-2.578.268-.838-.67-1.038-1.675-.335-2.579.704-.938 1.742-.938 2.579-.268m1.708-2.009l.87-1.44c.436-.703.838-.57 1.173-.368.134.1.737.435 1.038.502l.435-.737-.1-.067c-.201.134-.302.1-.536 0l-.736-.402c-.57-.3-.805-.1-1.073.1.034-.368 0-.836-.569-1.171-.837-.503-1.473.1-1.943.803l-1.238 2.043 3.918 2.344.368-.603-1.607-1.004zm-1.775-1.038l.904-1.474c.168-.3.536-.77 1.139-.401.57.335.401.87.133 1.305l-.836 1.374-1.34-.804zm4.22-6.33c-.67-.268-1.14.268-1.374.77-.167.403-.401 1.106.234 1.407.37.167.604-.067.771-.335l.87-1.205c.403-.536.939-.871 1.608-.57.971.435.804 1.608.436 2.412-.402.87-.77 1.105-1.039 1.239-.502.268-.87.167-1.272 0l.268-.604c.77.335 1.272-.267 1.573-.87.202-.469.436-1.272-.133-1.54-.436-.202-.67-.034-1.172.67l-.67.903c-.2.268-.703.904-1.44.57-.637-.302-1.072-1.072-.57-2.21.737-1.641 1.675-1.407 2.144-1.24l-.234.603zM89.217 64.669l.167-.503 1.54.536-.167.502zM94.14 59.176l1.406-.2.167-.737-4.856.837-.167.77 4.019 2.88.167-.703-1.172-.804.435-2.043zm-.972 1.674l-1.775-1.239 2.143-.301-.368 1.54zm-.2-7.2c-.704-.033-1.006.603-1.073 1.173-.033.435-.033 1.172.67 1.272.402.034.536-.268.637-.535l.468-1.441c.202-.636.603-1.105 1.34-1.038 1.072.1 1.24 1.272 1.172 2.144-.1.937-.402 1.305-.603 1.506-.402.402-.77.436-1.205.402l.067-.636c.836.1 1.138-.636 1.206-1.306.067-.503.033-1.34-.638-1.44-.468-.067-.635.167-.903 1.005l-.335 1.038c-.1.335-.402 1.071-1.172.97-.704-.066-1.34-.669-1.206-1.908.2-1.809 1.173-1.875 1.675-1.842l-.1.636zm.1-4.889c-.703.034-.938.703-.905 1.272 0 .436.134 1.172.804 1.172.402 0 .502-.301.57-.602l.3-1.473c.135-.67.503-1.173 1.206-1.173 1.073 0 1.373 1.14 1.407 2.01 0 .97-.234 1.34-.435 1.573-.335.436-.737.537-1.14.537v-.67c.838 0 1.073-.77 1.073-1.44 0-.503-.134-1.34-.77-1.34-.47 0-.637.268-.804 1.105l-.201 1.071c-.067.335-.268 1.106-1.072 1.106-.703 0-1.407-.503-1.44-1.775 0-1.809.938-1.976 1.44-2.01l-.033.637zM91.226 43.737l-.101-.669 4.521-.569.101.77-3.316 3.081 3.651-.469.1.669-4.521.57-.1-.804 3.348-3.014zM95.177 40.221l.167.737-.669.134-.167-.737zM91.092 37.107c-.201-.637.067-1.307.636-1.508.57-.201 1.206.201 1.407.838.2.636-.067 1.306-.636 1.507-.57.2-1.207-.168-1.407-.837M10.248 62.19l-.502-2.009c-.403-1.64-1.808-1.809-2.814-1.574-1.272.301-1.975 1.339-1.64 2.646l.502 2.042 4.454-1.105zm-4.086.302L5.86 61.22c-.235-.939.2-1.642 1.306-1.91 1.105-.268 1.876.167 2.076 1.038l.335 1.307-3.416.837zM8.64 53.315l.469 3.785-4.521.535-.435-3.717.536-.067.368 3.048 1.406-.168-.335-2.813.536-.067.335 2.813 1.508-.167-.369-3.081zM4.019 49.13v-.771l4.588 1.842v.736l-4.555 1.91v-.77l3.885-1.508zM9.042 43.737l-.401 3.785-4.555-.502.401-3.751.537.067-.335 3.047 1.406.134.302-2.813.535.067-.301 2.813 1.507.168.335-3.082zM8.841 42.063l.536-2.545.536.1-.67 3.249-4.454-.972.134-.67zM9.478 33.69c-.938-.3-2.479-.2-3.081 1.608-.637 1.808.536 2.846 1.473 3.148.938.301 2.478.2 3.081-1.607.603-1.809-.536-2.813-1.473-3.148m-.235.669c1.005.335 1.541 1.24 1.172 2.311-.368 1.072-1.306 1.44-2.344 1.105-1.005-.335-1.54-1.239-1.172-2.311.368-1.071 1.306-1.44 2.344-1.105m1.34-2.177l.703-1.473c.502-1.005.034-1.708-.536-1.976-.67-.335-1.406-.034-1.842.804l-1.004 2.076 4.12 2.01.3-.636-1.742-.805zm-1.91-.97l.604-1.273c.268-.503.603-.837 1.138-.57.57.268.57.738.268 1.307l-.603 1.238-1.406-.702zM16.209 26.155l-2.042 3.215-3.852-2.444 2.01-3.182.468.302-1.641 2.545 1.173.737 1.506-2.378.469.301-1.507 2.378 1.273.837 1.674-2.612zM16.778 25.385l1.306-1.607c1.072-1.306.37-2.545-.434-3.181-1.005-.838-2.245-.771-3.082.267l-1.34 1.607 3.55 2.914zM14.1 22.237l.837-1.004c.603-.737 1.44-.837 2.31-.1.905.736 1.005 1.573.436 2.276l-.871 1.039-2.713-2.21zM22.204 19.39l-.503.469-3.114-3.349.502-.468zM22.974 12.826l.536-.401 2.812 3.583-.602.468-4.354-1.305 2.278 2.913-.537.402-2.812-3.583.636-.502 4.32 1.305zM30.911 11.755l1.071.937.67-.368-3.817-3.148-.704.368.47 4.991.635-.335-.167-1.44 1.842-1.005zm-1.91.401l-.234-2.176 1.642 1.406-1.407.77zm5.929-4.252c-.302-.637-1.005-.604-1.54-.402-.403.168-1.073.535-.805 1.172.134.368.47.368.771.301l1.473-.268c.67-.134 1.273.034 1.541.703.402 1.005-.536 1.709-1.373 2.044-.905.368-1.34.268-1.607.167-.536-.167-.771-.469-.905-.871l.603-.235c.302.771 1.105.705 1.708.47.469-.202 1.206-.603.97-1.206-.167-.435-.468-.502-1.305-.335l-1.071.201c-.335.067-1.14.134-1.408-.603-.267-.67-.033-1.507 1.14-1.976 1.674-.67 2.209.168 2.41.604l-.602.234zm4.956-1.474c-.234-.67-.905-.703-1.473-.57-.436.101-1.105.403-.938 1.072.1.369.435.402.736.402l1.508-.1c.67-.034 1.272.167 1.44.871.267 1.038-.737 1.64-1.574 1.875-.938.234-1.34.1-1.608 0-.502-.234-.703-.57-.804-.971l.637-.168c.2.804 1.004.838 1.641.67.502-.134 1.272-.469 1.105-1.105-.134-.469-.402-.535-1.273-.502l-1.072.067c-.334.033-1.138.033-1.339-.737-.2-.703.134-1.507 1.34-1.842 1.741-.468 2.176.402 2.31.87l-.636.168zm6.865-.2c-.133-.972-.904-2.312-2.812-2.044-1.91.268-2.312 1.742-2.144 2.746.134.972.904 2.311 2.813 2.043 1.91-.3 2.277-1.742 2.144-2.746m-.703.067c.133 1.072-.402 1.942-1.508 2.077-1.105.167-1.875-.536-2.042-1.575-.135-1.071.401-1.942 1.506-2.075 1.105-.168 1.876.535 2.044 1.573m5.424-1.105c-.2-.804-.97-.938-1.473-.938-.938 0-1.675.637-1.675 1.842 0 1.072.47 1.909 1.742 1.876.47 0 1.24-.201 1.473-1.273h.67c-.267 1.742-1.842 1.809-2.243 1.842-1.172 0-2.345-.636-2.345-2.412-.033-1.405.871-2.378 2.378-2.41 1.34 0 2.043.702 2.143 1.473h-.67zM53.918 8.573l-.703-.067.335-4.555.703.068zM58.205 7.803l.302 1.407.736.133-1.139-4.788-.77-.134-2.612 4.22.703.1.737-1.24 2.043.302zm-1.741-.837l1.138-1.875.436 2.075-1.574-.2zM59.745 4.722l4.053 1.005-.135.535-1.707-.435-.971 3.885-.67-.168.971-3.884-1.708-.436zM64.1 10.683l-.671-.234 1.441-4.32.67.234zM70.563 10.918c.401-.905.435-2.445-1.34-3.215-1.774-.77-2.88.268-3.282 1.172-.402.904-.435 2.444 1.34 3.215 1.775.737 2.88-.268 3.282-1.172m-.637-.336c-.435.972-1.372 1.441-2.377.972-1.039-.469-1.34-1.44-.905-2.411.435-.971 1.374-1.44 2.378-.971s1.34 1.473.904 2.41M75.653 11.253l.569.335-2.377 3.918-.671-.402-.334-4.521-1.909 3.148-.569-.335 2.377-3.918.703.435.302 4.488zM77.462 18.218l-.536-.502 2.042-4.32.569.502-1.74 3.416 3.348-2.009.57.502-1.608 3.55 3.182-2.143.569.502-4.052 2.545-.537-.502 1.642-3.617zM81.715 22.371l-.469-.502 3.382-3.082.469.503zM85.867 20.127l2.579 3.316-.435.335-1.072-1.374-3.181 2.479-.436-.536 3.182-2.479-1.072-1.372zM90.891 27.328l.368.603-3.918 2.377-.368-.602 1.808-1.106-1.407-2.311-1.808 1.106-.369-.603 3.919-2.378.368.603-1.608.971 1.408 2.31z"/></g></svg>