<svg xmlns="http://www.w3.org/2000/svg" width="100" height="100" viewBox="0 0 100 100"><path fill="#1B1A19" fill-rule="evenodd" d="M97.566 49.464c-3.165 1.285-7.402 1.566-9.187.786-.802-.348-.802-.728-.802-.85 0-.29.259-.547.769-.76.668-.282 1.681-.438 2.854-.438 1.981 0 4.381.451 6.366 1.262zm-.088 7.953c-3.15 1.269-7.353 1.551-9.117.78-.784-.344-.784-.718-.784-.84 0-.285.253-.538.753-.75.658-.277 1.659-.43 2.821-.43 1.965 0 4.345.443 6.327 1.24zm-9.814-2.387c-1.566.662-1.8 1.741-1.8 2.326 0 .605.236 1.719 1.812 2.41 2.092.916 6.221.742 9.694-.466a47.466 47.466 0 0 1-.93 3.888c-.273-.08-.543-.164-.82-.23a20.14 20.14 0 0 0-2.472-.427 18.483 18.483 0 0 0-1.59-.105c-1.543-.033-2.92.15-3.876.553-1.581.666-1.818 1.75-1.818 2.339 0 .606.238 1.728 1.83 2.421.955.416 2.328.61 3.869.584a18.849 18.849 0 0 0 3.231-.348 48.334 48.334 0 0 1-5.968 10.677c-2.782-.714-5.312-1.938-7.455-3.648-1.493-7.692-2.27-16.652-2.27-25.943 0-3.873.144-7.73.416-11.462v-.021c1.695-.98 3.075-2.231 4.425-3.468 2.576-2.356 5.02-4.586 9.658-4.823a47.941 47.941 0 0 1 3.771 11.392c-1.703-.415-3.585-.618-5.37-.61-2.011.01-3.895.28-5.244.798a.856.856 0 1 0 .612 1.597c1.182-.454 2.865-.69 4.667-.698 1.903-.009 3.936.24 5.657.754.275 1.757.455 3.544.533 5.36-2.097-.864-4.537-1.327-6.667-1.373-1.543-.031-2.92.152-3.877.554-.592.25-.997.558-1.27.876a2.226 2.226 0 0 0-.548 1.462c0 .608.238 1.727 1.83 2.42 2.278.993 6.934.717 10.562-.779a48.32 48.32 0 0 1-.322 4.71c-3.58-1.393-8.06-1.652-10.27-.72zm7.862 11.01c-2.75.696-5.725.749-7.147.13-.802-.35-.802-.728-.802-.852 0-.29.259-.546.769-.762.668-.28 1.681-.434 2.854-.434 1.464 0 3.15.262 4.735.717-.131.403-.268.803-.409 1.2zM83.87 78.744c.559.282 1.132.257 1.72.832H84.04c.011 0 .038-.216.038-.284 0-.225-.087-.377-.209-.548zm-1.272 5.895l-5.07 4.982a48.441 48.441 0 0 1-7.816 4.43l7.7-7.658 5.116-5.082h3.46l-3.39 3.328zm-25.94 13.168a48.582 48.582 0 0 1-3.842.388l16.998-16.884h3.457L58.269 96.207l.01-.007-1.62 1.608zm-7.593-5.451v-.002l-5.38 5.519c-1.003-.126-1.905-.309-2.886-.497l1.135-1.112h.022l1.989-1.938.02.006 13.128-13.02h3.46L49.065 92.356zm-15.401 2.99a44.242 44.242 0 0 1-2.435-.953l1.949-1.815v.01l.788-.874-.02-.02 10.433-10.383h3.458l-12.376 12.15h.003l-1.8 1.885zm-8.584-4.054a49.572 49.572 0 0 1-2.128-1.35l1.786-1.785 6.922-6.846h3.459l-6.614 6.686v-.006l-3.425 3.301zm-3.199-13.09c-.572 0-1.038.468-1.042 1.04.002.076.024.2.037.2h-2.071c.013 0 .032-.125.035-.202-.004-.572-.47-1.07-1.043-1.07-.57 0-1.035.483-1.04 1.057.002.076.021.215.034.215h-2.068c.014 0 .032-.141.032-.206 1.534-.647 2.971-1.515 4.282-2.483.191.24.472.416.803.416.572 0 .96-.455.964-1.026-.002-.428.224-.895-.71-1.053v-.32h.078c.45-1.87.87-4.581 1.189-7.119.146.08.322.243.5.243.576 0 1.052-.416 1.052-.99 0-.574-.347-1.015-.922-1.015-.085 0-.13.027-.131.047 0-1.344.164-2.71.277-4.096.504-.07.842-.486.842-1.01 0-.118-.047-.23-.084-.333a1.046 1.046 0 0 0-.17-.284 1.097 1.097 0 0 0-.54-.364c.095-1.403.166-2.826.224-4.26.303-.183.515-.5.515-.88 0-.357-.191-.654-.462-.843.044-1.505.074-3.021.076-4.546.23-.193.385-.47.385-.792 0-.33-.166-.614-.407-.805a156.387 156.387 0 0 0-.08-4.46c.286-.185.487-.493.487-.858 0-.406-.24-.75-.58-.923-.049-1.03-.1-2.058-.166-3.073.294.119.606.225.924.325a1.01 1.01 0 0 0-.22.609 1.041 1.041 0 0 0 2.084 0c0-.062-.024-.116-.036-.176.615.107 1.262.18 1.953.214a1.036 1.036 0 0 0 2.071-.012 15.46 15.46 0 0 0 2.053-.27c-.02.08-.049.158-.049.244 0 .573.468 1.04 1.041 1.04.574 0 1.041-.467 1.041-1.04 0-.28-.114-.53-.291-.72.129-.045.26-.091.388-.14-.14 2.11-.231 4.253-.286 6.418a1.021 1.021 0 0 0-.852-.477 1.043 1.043 0 0 0 0 2.084c.348 0 .642-.181.831-.446-.017.999-.053 1.994-.053 2.998 0 .632.013 1.258.02 1.887a1.02 1.02 0 0 0-.798-.4 1.044 1.044 0 0 0 0 2.086c.337 0 .622-.17.811-.42.037 1.826.106 3.629.202 5.413a1.03 1.03 0 0 0-1.013-.897 1.042 1.042 0 0 0 0 2.085c.544 0 .98-.427 1.024-.96.045.817.094 1.632.15 2.44a.971.971 0 0 0-.175.539c0 .264.105.5.27.682.119 1.513.256 3.01.418 4.472a1.05 1.05 0 0 0-.636.648c-.033.1-.052.209-.052.321 0 .536.412.96.933 1.019.182 1.43.377 2.836.602 4.203a1 1 0 0 0-.492-.14c-.576 0-1.042.468-1.043 1.042.001.576.467 1.043 1.043 1.043.309 0 .577-.14.768-.354.113.623.22 1.254.339 1.862.003.015.013.027.017.042l-.001.005v.006c-.071.14-.12.304-.122.472a1.04 1.04 0 0 0 1.04 1.028c.138 0 .267.01.385-.015.053-.017.108-.029.156-.059a29.42 29.42 0 0 0 1.642 1.09 1.052 1.052 0 0 0-1.183 1.035c.003.076.03.207.041.207h-2.078c.011 0 .034-.126.036-.203-.004-.572-.468-1.07-1.04-1.07-.573 0-1.037.483-1.042 1.056.003.077.024.217.038.217H30.96c.014 0 .036-.126.038-.203-.004-.572-.47-1.07-1.042-1.07-.573 0-1.036.483-1.041 1.056.002.077.025.217.038.217h-1.985c.015 0 .036-.126.038-.202-.005-.572-.47-1.07-1.042-1.07-.572 0-1.038.483-1.042 1.056.002.076.023.216.036.216h-2.071c.013 0 .034-.126.035-.202a1.044 1.044 0 0 0-1.04-1.037zm-4.147 7.678a49.767 49.767 0 0 1-1.77-1.669l2.979-2.9h3.46l-4.67 4.57zm-6.577-7.252a48.325 48.325 0 0 1-5.922-10.586c1.769-.306 3.558-.859 5.058-1.662 1.208.805 2 1.801 2 2.947a.855.855 0 0 0 1.71 0c0-1.577-.85-2.896-2.171-3.945 1.326-1.05 2.178-2.376 2.178-3.958 0-1.607-.63-2.947-1.99-4.012 1.351-1.059 2.466-2.4 2.466-4.003v-.007c0-1.575-1.093-2.89-2.41-3.939 1.326-1.05 1.957-2.373 1.957-3.957 0-.86-.35-2.117-1.977-3.236-2.186-1.506-5.9-2.216-9.252-2.202l-.045.001A47.958 47.958 0 0 1 6.4 29.294c4.511.279 6.945 2.468 9.498 4.776 1.377 1.245 2.787 2.509 4.518 3.494 0 .012-.004.023-.003.035.273 3.711.415 7.566.415 11.462 0 9.29-.793 18.247-2.286 25.94a18.808 18.808 0 0 1-3.647 2.276 21.056 21.056 0 0 1-3.738 1.352zM3.884 64.258c1.508.182 3.092.559 4.479 1.123-1.17.476-2.482.805-3.765 1.002-.254-.7-.491-1.41-.714-2.125zm-1.04-3.936c2.438-.115 5.212-.755 7.384-1.909 1.251.818 2.076 1.837 2.076 3.012 0 1.15-.797 2.15-2.01 2.96a14.547 14.547 0 0 0-2.255-.963 18.206 18.206 0 0 0-1.621-.464 20.18 20.18 0 0 0-2.471-.427c-.195-.02-.385-.037-.577-.05a48.408 48.408 0 0 1-.526-2.159zm-.722-4.14c1.931.025 4.228.461 6.154 1.235-1.8.725-3.939 1.122-5.774 1.19-.145-.801-.275-1.609-.38-2.426zm-.333-3.784c2.68.054 5.995-.593 8.504-1.934 1.207.804 1.997 1.799 2 2.943-.003 1.173-.823 2.192-2.068 3.01-2.443-1.29-5.652-1.94-8.288-1.935a49.325 49.325 0 0 1-.148-2.084zM1.723 50c0-.6.015-1.195.037-1.79.081 0 .156-.008.238-.008 1.98 0 4.38.451 6.365 1.262-2.084.845-4.62 1.248-6.627 1.207-.002-.223-.013-.447-.013-.671zm.703-8.22c.137-.002.268-.013.408-.014 3.003-.015 6.34.605 8.245 1.915.812.56 1.225 1.173 1.225 1.826 0 1.15-.797 2.15-2.01 2.957-2.327-1.245-5.364-1.901-7.938-1.957-.172-.003-.335.002-.503.004.115-1.599.305-3.178.573-4.73zm34.349 33.282c-.033-.167-.249-.328-.28-.496a139.17 139.17 0 0 1-2.383-25.462v-.043c0-3.668.315-7.312.56-10.853.013-.182.116-.37.13-.553 1.755-.988 3.215-2.277 4.602-3.545 2.727-2.491 5.324-4.846 10.506-4.846 5.153 0 7.747 2.335 10.483 4.806 1.392 1.264 3.067 2.541 4.83 3.534.274 3.703.665 7.559.665 11.457v.043c0 9.285-1.038 18.226-2.531 25.924-3.51 2.805-8.371 4.415-13.288 4.415h-.262c-.614 0-1.225.033-1.828-.018-4.221-.358-8.134-1.911-11.204-4.363zm2.104 3.474c-.18-.102-.36-.198-.539-.303.218.043.411.113.555.283.673.381 1.368.927 2.083.927h-1.86c.014 0 .04-.127.044-.204a1.07 1.07 0 0 0-.283-.703zm40.074-4.412c.19 0 .362-.067.515-.157.101.556.197 1.12.302 1.665a.81.81 0 0 0 .203.38c-.006.045-.02.086-.02.133 0 .574.467 1.04 1.043 1.04a.982.982 0 0 0 .356-.075c.539.375 1.097.772 1.674 1.097-.569.006-1.032.45-1.032 1.021 0 .066.027.215.039.215h-2.076c.011 0 .036-.127.037-.203-.004-.572-.469-1.07-1.04-1.07-.57 0-1.037.483-1.042 1.056.003.076.027.217.038.217h-2.079c.011 0 .036-.127.037-.203-.004-.572-.47-1.07-1.04-1.07-.574 0-1.037.483-1.042 1.056.002.076.026.217.038.217h-2.076c.011 0 .035-.127.038-.203-.004-.572-.47-1.07-1.041-1.07-.572 0-1.038.483-1.042 1.056.002.076.027.217.038.217h-2.074c.01 0 .034-.127.036-.203-.005-.572-.47-1.07-1.042-1.07-.572 0-1.036.483-1.04 1.056a.798.798 0 0 0 .036.217h-2.074c.01 0 .035-.127.037-.203-.004-.572-.47-1.07-1.04-1.07-.575 0-1.04.483-1.044 1.056a.798.798 0 0 0 .036.217h-2.068c.012 0 .035-.149.035-.215 0-.027-.009-.063-.01-.086l.003.014-.003-.034a21.104 21.104 0 0 0 4.195-2.479c.178.316.506.54.895.54.575 0 1.105-.463 1.107-1.036-.002-.515.122-.927-.813-1.01v-.367h-.091c.291-.934.537-2.913.774-4.525.055-.124.074-.102.074-.247 0-.021-.016.1-.017.1h-.003c.107-.935.2-1.563.297-2.32.186.177.436.257.714.257a1.06 1.06 0 0 0 .864-1.652 1.045 1.045 0 0 0-.864-.465c-.19 0-.359.064-.514.154.155-1.382.284-2.794.402-4.219.038.005.072.024.112.024.576 0 1.043-.47 1.043-1.043 0-.56-.444-1.008-.998-1.033.092-1.352.165-2.723.221-4.104.441-.12.777-.507.777-.988 0-.458-.301-.836-.713-.976.041-1.406.065-2.818.07-4.242a1.042 1.042 0 0 0 .594-1.274 1.051 1.051 0 0 0-.602-.65 158.306 158.306 0 0 0-.087-4.181c.424-.133.738-.514.738-.98 0-.498-.357-1-.823-1.102-.043-.907-.069-1.763-.13-2.77.47.138.936.284.961.291-.005.006-.02.01-.05.01-.079.145-.066.32-.066.498 0 .572.503 1.044 1.077 1.045.572-.001 1.056-.465 1.056-1.037 0-.042.379-.08.372-.12l.42.004v-.003c0 .094.953.152 1.673.171.027.55.444.991 1 .991.574 0 1.065-.467 1.065-1.04v-.012c0-.05.68-.125 1.29-.224a1.015 1.015 0 0 0-.067.334c0 .575.467 1.117 1.042 1.117.346 0 .64-.368.83-.368h.009c-.08.934.014 2.944-.014 4.406-.127-.057-.319-.134-.461-.134-.574.001-1.049.45-1.049 1.023 0 .574.463 1.229 1.037 1.229.07 0 .123-.004.187 0v-.419c0 .14.015.28.02.42.113.007.232.017.33.017h-.33c.028.766.105 1.54.105 2.307 0 .548.098 1.101.105 1.647-.153-.085-.277-.144-.464-.144-.575 0-1.02.47-1.02 1.046a1.056 1.056 0 0 0 1.058 1.044c.195 0 .371-.069.529-.162.03 1.525.091 3.033.164 4.53a1.035 1.035 0 0 0-.689-.271 1.042 1.042 0 0 0 .001 2.085c.308 0 .578-.141.768-.353.156 2.622.365 5.194.646 7.686a1.02 1.02 0 0 0-.415.809c0 .43.262.8.635.958.18 1.416.375 2.807.593 4.162-.062-.012-.12-.039-.186-.039-.573 0-1.042.469-1.042 1.043 0 .576.47 1.043 1.042 1.043zM50 1.724c18.555 0 34.689 10.527 42.767 25.917-4.762.459-7.417 2.863-9.98 5.208-2.726 2.492-5.301 4.847-10.482 4.847-5.342 0-7.972-2.599-10.754-5.117-2.853-2.58-5.803-5.472-11.615-5.472h-.003c-5.847 0-8.79 2.914-11.637 5.52-2.726 2.492-5.3 4.958-10.483 4.958-5.343 0-7.972-2.32-10.753-4.84-2.535-2.29-5.16-4.692-9.782-5.202C15.37 12.199 31.48 1.723 50 1.723zM50 0C22.43 0 0 22.43 0 50s22.43 50 50 50 50-22.43 50-50S77.57 0 50 0z"/></svg>