<svg xmlns="http://www.w3.org/2000/svg" width="149" height="138" viewBox="0 0 149 138"><g fill="#000" fill-rule="nonzero"><path d="M5.108 119.54l21.198-37.146s7.092 5.058 15.765 5.032c.583 0 1.165-.026 1.756-.078 3.807-.322 10.638-2.138 15.062-6.336 6.632-6.283 12.697-12.924 19.702-12.958 5.884-.026 9.309 7.779 9.882 8.769.574.991 2.095 3.198 4.571 1.912 2.677-1.407 1.452-4.041 1.452-4.041s-5.188-13.08-16.122-13.08c-10.525 0-20.346 11.741-22.571 13.566-2.373 1.947-3.545 3.668-10.151 5.458-7.5 2.043-16.078-3.858-16.078-3.858-.13-.339 43.455-75.708 43.455-75.708l68.511 118.45s-58.352-.009-58.473.018c0 0-1.651-2.39-3.668-5.467-3.372-5.145-5.406-7.761-6.371-9.873-.617-1.355 1.313-3.989 1.755-4.649.435-.669 6.171-9.5 6.84-10.525.766-1.164 2.364-3.459-.226-5.145-2.816-1.843-4.589.93-5.484 2.242-.729 1.069-3.919 6.109-5.197 8.108-1.295 2.034-4.189 5.493-4.172 9.256.035 3.989 2.651 6.753 5.728 11.568a398.296 398.296 0 0 1 2.816 4.467l-69.98.018zm82.357-20.91c1.599-.062 2.521-1.53 2.721-1.791.269-.339 2.372-4.988 4.953-8.534 2.529-3.451 4.771-4.885 7.022-5.458 2.251-.565 4.076.078 5.449.417 1.373.348 4.042 1.564 5.606-.722 1.477-2.164-.531-4.493-1.069-5.371-.53-.878-2.747-4.275-3.885-6.031-1.147-1.747-2.973-5.675-6.405-3.616-1.947 1.165-1.408 3.616-.8 4.572.608.956 2.746 4.119 2.746 4.119s-4.545-.035-7.856 2.286c-3.459 2.425-5.145 4.389-6.866 7.283-2.173 3.659-7.396 10.099-3.424 12.35.678.39 1.278.521 1.808.496zm-83.13 36.006l3.719-9.785h3.199l3.772 9.785h-2.868l-.721-2.085H7.759l-.773 2.085H4.335zm6.484-3.937l-1.182-3.833-1.278 3.833h2.46zm8.43 4.215c-2.555 0-4.293-1.208-4.293-3.885v-6.075h2.607v5.641c0 1.286.356 2.381 1.686 2.381s1.686-1.095 1.686-2.381v-5.641h2.607v6.075c0 2.677-1.738 3.885-4.293 3.885zm8.526-.104c-.913 0-2.051-.139-2.92-.426l.226-2.155c.678.365 1.617.644 2.694.644.826 0 1.617-.165 1.617-.956 0-1.825-4.632-.67-4.632-4.232 0-2.355 2.294-3.008 4.258-3.008.947 0 1.869.14 2.529.365l-.165 2.025c-.678-.313-1.434-.452-2.182-.452-.652 0-1.747.061-1.747.913 0 1.581 4.633.513 4.633 4.05 0 2.545-2.138 3.232-4.311 3.232zM35.232 134.636v-7.857h-2.417v-1.928h7.44v1.928h-2.416v7.857zM41.116 134.602v-9.786h4.659c1.738 0 3.154.782 3.154 2.468 0 1.304-.617 2.173-1.877 2.469.843.252.896.999 1.391 2.19l.947 2.659h-2.721l-.556-1.765c-.539-1.677-.869-2.103-1.842-2.103h-.547v3.867h-2.608v.001zm3.294-5.719c.843 0 1.912-.026 1.912-1.139 0-.903-.912-1.077-1.912-1.077h-.687v2.216h.687zm5.292 5.753l3.72-9.785h3.198l3.772 9.785h-2.868l-.73-2.085h-3.668l-.773 2.085h-2.651zm6.475-3.937l-1.173-3.833-1.277 3.833h2.45zM61.409 134.636v-9.785h2.616v7.856h4.033v1.929zM69.222 134.636v-9.785h2.608v9.785zM72.821 134.636l3.71-9.785h3.198l3.781 9.785h-2.868l-.73-2.085h-3.668l-.773 2.085h-2.65zm6.483-3.937l-1.182-3.833-1.277 3.833h2.459zM84.432 134.636v-9.785h3.328l3.32 6.648-.025-6.648h2.381v9.785h-3.243l-3.432-6.692.069 6.692zM99.389 134.636v-9.785h4.111l2.086 6.508 2.189-6.508h3.955v9.785h-2.555l.026-7.518-2.512 7.518h-2.398l-2.399-7.518.052 7.518zM112.408 134.636l3.72-9.785h3.189l3.78 9.785h-2.868l-.729-2.085h-3.668l-.773 2.085h-2.651zm6.484-3.937l-1.182-3.833-1.278 3.833h2.46zm5.222 3.937v-9.785h3.563c3.416 0 5.797 1.06 5.797 4.849 0 3.659-2.459 4.937-5.797 4.937h-3.563v-.001zm3.624-1.929c1.947 0 3.042-1.018 3.042-2.964s-1.13-2.964-3.042-2.964h-1.008v5.928h1.008zM134.544 134.636v-9.785h6.9v1.85h-4.293v2.017h4.05v1.85h-4.05v2.217h4.451v1.851zM145.173 134.845a2.541 2.541 0 0 1-2.538-2.538 2.539 2.539 0 0 1 2.538-2.528 2.537 2.537 0 0 1 2.529 2.528 2.54 2.54 0 0 1-2.529 2.538zm0-.382c1.165 0 2.043-.939 2.043-2.156 0-1.208-.878-2.155-2.043-2.155-1.173 0-2.051.947-2.051 2.155 0 1.216.878 2.156 2.051 2.156zm-.974-.679v-2.964h1.139c.678 0 1.018.278 1.018.835 0 .478-.296.816-.766.816l.844 1.313h-.513l-.826-1.313h-.408v1.313h-.488zm1.061-1.685c.374 0 .617-.078.617-.461 0-.339-.313-.435-.617-.435h-.573v.896h.573z"/></g></svg>