<svg xmlns="http://www.w3.org/2000/svg" width="81" height="18" viewBox="0 0 81 18">
    <g fill="#2E1A47">
        <path d="M5.503 14.188c-.085 0-.17-.026-.242-.079-.144-.104-.205-.29-.15-.46l1.192-3.672L3.17 7.699c-.145-.105-.205-.29-.15-.46.055-.17.213-.284.391-.284h3.873l1.192-3.67c.055-.17.213-.285.39-.285.18 0 .337.115.392.284l1.191 3.671h3.873c.178 0 .336.115.391.284.055.17-.005.355-.15.46L11.43 9.977l1.192 3.673c.055.17-.005.355-.15.46-.144.105-.338.104-.483 0l-3.122-2.27-3.123 2.27c-.072.052-.156.078-.241.078M21.128 14.188c-.085 0-.17-.026-.242-.079-.144-.104-.205-.29-.15-.46l1.192-3.672-3.133-2.278c-.145-.105-.205-.29-.15-.46.055-.17.213-.284.391-.284h3.873l1.192-3.67c.055-.17.213-.285.39-.285.18 0 .337.115.392.284l1.191 3.671h3.873c.178 0 .336.115.391.284.055.17-.005.355-.15.46l-3.133 2.278 1.192 3.673c.055.17-.005.355-.15.46-.144.105-.338.104-.483 0l-3.122-2.27-3.123 2.27c-.072.052-.156.078-.241.078M36.753 14.188c-.085 0-.17-.026-.242-.079-.144-.104-.205-.29-.15-.46l1.192-3.672-3.133-2.278c-.145-.105-.205-.29-.15-.46.055-.17.213-.284.391-.284h3.873l1.192-3.67c.055-.17.213-.285.39-.285.18 0 .337.115.392.284L41.7 6.955h3.873c.178 0 .336.115.391.284.055.17-.005.355-.15.46L42.68 9.977l1.192 3.673c.055.17-.005.355-.15.46-.144.105-.338.104-.483 0l-3.122-2.27-3.123 2.27c-.072.052-.156.078-.241.078M52.378 14.188c-.085 0-.17-.026-.242-.079-.144-.104-.205-.29-.15-.46l1.192-3.672-3.133-2.278c-.145-.105-.205-.29-.15-.46.055-.17.213-.284.391-.284h3.873l1.192-3.67c.055-.17.213-.285.39-.285.18 0 .337.115.392.284l1.191 3.671h3.873c.178 0 .336.115.391.284.055.17-.005.355-.15.46l-3.133 2.278 1.192 3.673c.055.17-.005.355-.15.46-.144.105-.338.104-.483 0l-3.122-2.27-3.123 2.27c-.072.052-.156.078-.241.078M68.003 14.188c-.085 0-.17-.026-.242-.079-.144-.104-.205-.29-.15-.46l1.192-3.672-3.133-2.278c-.145-.105-.205-.29-.15-.46.055-.17.213-.284.391-.284h3.873l1.192-3.67c.055-.17.213-.285.39-.285.18 0 .337.115.392.284l1.191 3.671h3.873c.178 0 .336.115.391.284.055.17-.005.355-.15.46L73.93 9.977l1.192 3.673c.055.17-.005.355-.15.46-.144.105-.338.104-.483 0l-3.122-2.27-3.123 2.27c-.072.052-.156.078-.241.078"/>
    </g>
</svg>
