<svg xmlns="http://www.w3.org/2000/svg" width="26" height="31" viewBox="0 0 26 31">
    <g fill="currentColor">
        <path d="M4.665 31l-.126-.11C.51 27.366-.914 21.73.96 16.728c1.875-5.003 6.658-8.334 12.021-8.371 5.364-.038 10.194 3.226 12.138 8.202 1.945 4.976.6 10.631-3.379 14.211l-.125.112L4.665 31zm8.408-21.775C8.09 9.223 3.62 12.277 1.828 16.908c-1.791 4.63-.532 9.88 3.166 13.206l16.27-.107c3.632-3.354 4.831-8.58 3.022-13.17-1.81-4.591-6.258-7.611-11.213-7.612z"/>
        <path d="M7.797 26.857l-.123-.105c-1.771-1.467-2.8-3.639-2.809-5.932 0-4.352 3.699-7.897 8.245-7.897 4.546 0 8.247 3.54 8.247 7.897-.012 2.256-1.007 4.395-2.728 5.863l-.122.107-10.71.067zm5.313-13.05c-4.06 0-7.364 3.145-7.364 7.019.009 1.979.874 3.858 2.374 5.157l10.052-.063c1.456-1.298 2.293-3.149 2.303-5.094 0-3.874-3.303-7.02-7.365-7.02z"/>
        <path d="M8.558 16.95h.764v2.837h.026c.157-.226.316-.438.464-.628l1.807-2.21h.948l-2.138 2.5 2.308 3.387h-.906l-1.948-2.89-.561.646v2.243h-.764v-5.886zM17.664 22.573c-.583.209-1.197.318-1.816.323-.896 0-1.632-.227-2.203-.776-.51-.49-.826-1.275-.826-2.194.01-1.754 1.22-3.038 3.203-3.038.503-.012 1.003.08 1.469.27l-.184.62c-.412-.179-.858-.265-1.307-.253-1.439 0-2.377.89-2.377 2.366s.903 2.375 2.28 2.375c.346.018.693-.035 1.018-.157v-1.754h-1.203v-.614h1.947l-.001 2.832zM18.627 4.897H7.464c-1.217 0-2.204-.982-2.204-2.193v-.51C5.26.981 6.247 0 7.464 0h11.163c1.217 0 2.204.982 2.204 2.193v.51c0 1.212-.987 2.194-2.204 2.194zM7.461.877c-.73 0-1.322.59-1.322 1.316v.51c0 .728.592 1.317 1.322 1.317h11.164c.73 0 1.322-.59 1.322-1.316v-.51c0-.727-.592-1.317-1.322-1.317H7.46z"/>
        <path d="M22 12.314l-.803-.36 2.33-5.16c.266-.582.375-1.222.32-1.859-.044-.528-.18-1.044-.406-1.524-.507-1.052-2.435-1.656-3.139-1.803l.176-.858c.12.024 2.957.619 3.758 2.28.27.574.436 1.192.488 1.825.07.786-.066 1.578-.393 2.297l-2.33 5.162z"/>
        <path d="M20.574 10.916l-.802-.363c.016-.036 1.682-3.69 2.35-5.305.098-.196.098-.426 0-.621-.307-.585-1.425-.95-1.83-1.039l.19-.856c.19.04 1.87.438 2.422 1.49.219.425.231.927.033 1.362-.675 1.628-2.346 5.295-2.363 5.332zM4.311 12.314l-2.33-5.16c-.327-.72-.462-1.511-.393-2.298.052-.632.218-1.25.49-1.825.798-1.66 3.635-2.256 3.755-2.28l.176.857-.088-.428.09.428c-.702.147-2.632.75-3.14 1.803-.225.48-.362.996-.405 1.524-.054.637.058 1.277.325 1.859l2.325 5.16-.805.36z"/>
        <path d="M5.738 10.916c-.01-.037-1.688-3.704-2.36-5.332-.198-.435-.185-.937.036-1.362.543-1.055 2.224-1.444 2.413-1.49l.196.856c-.404.09-1.522.45-1.83 1.039-.099.195-.099.425 0 .621.672 1.609 2.338 5.264 2.35 5.305l-.805.363z"/>
    </g>
</svg>
