<svg xmlns="http://www.w3.org/2000/svg" width="30" height="30" viewBox="0 0 30 30"><path fill="currentColor" d="M13.078 4.03c.78-.742 1.89-.993 2.937-1.024 1.107-.01 2.214-.004 3.322-.004.004 1.168.004 2.337 0 3.505-.716-.001-1.433.002-2.148-.001-.454-.029-.92.315-1.002.765-.011.782-.004 1.564-.004 2.346 1.05.004 2.1-.002 3.149.002a43.512 43.512 0 0 1-.382 3.378c-.927.008-1.855-.001-2.782.005-.008 3.335.005 6.67-.006 10.005-1.377.005-2.755-.003-4.132.003-.026-3.335.002-6.672-.014-10.008-.672-.007-1.344.005-2.016-.006.003-1.12 0-2.242.001-3.363.672-.008 1.343.002 2.015-.005.02-1.09-.02-2.18.021-3.27.067-.862.396-1.731 1.04-2.327"/></svg>