<svg xmlns="http://www.w3.org/2000/svg" width="30" height="30" viewBox="0 0 30 30"><path fill="currentColor" d="M16.035 5.04c1.768.004 2.15.018 3.056.06 1.062.048 1.787.217 2.421.463a4.89 4.89 0 0 1 1.768 1.151 4.9 4.9 0 0 1 1.15 1.767c.247.635.416 1.36.464 2.422.045.985.058 1.35.06 3.55v1.128c-.002 2.2-.015 2.564-.06 3.55-.048 1.061-.217 1.786-.464 2.421a5.1 5.1 0 0 1-2.917 2.918c-.635.247-1.36.415-2.422.464-1.064.048-1.404.06-4.114.06h-.291c-2.445-.001-2.798-.014-3.822-.06-1.062-.049-1.787-.217-2.422-.464a4.883 4.883 0 0 1-1.767-1.15c-.508-.5-.9-1.102-1.151-1.768-.247-.635-.415-1.36-.464-2.422-.041-.906-.056-1.287-.06-3.055v-2.117c.004-1.768.019-2.148.06-3.055.049-1.062.217-1.787.464-2.422a4.891 4.891 0 0 1 1.15-1.767 4.895 4.895 0 0 1 1.768-1.15c.634-.247 1.36-.416 2.422-.464.906-.042 1.287-.056 3.055-.06zm-.503 1.797h-1.11c-2.16.002-2.502.014-3.477.058-.972.045-1.5.207-1.852.344a3.1 3.1 0 0 0-1.147.746 3.085 3.085 0 0 0-.747 1.148c-.136.351-.299.88-.343 1.852-.043.935-.056 1.289-.058 3.227v1.61c.002 1.938.015 2.291.058 3.226.044.973.207 1.502.343 1.853.16.433.415.825.747 1.147.321.332.713.587 1.147.747.351.136.88.299 1.852.343.935.043 1.289.056 3.227.058h1.61c1.939-.002 2.292-.015 3.227-.058.973-.044 1.5-.207 1.852-.343a3.308 3.308 0 0 0 1.894-1.894c.136-.352.299-.88.343-1.853.043-.935.056-1.288.058-3.226v-1.61c-.002-1.938-.015-2.292-.058-3.227-.044-.973-.207-1.5-.343-1.852a3.095 3.095 0 0 0-.746-1.148 3.095 3.095 0 0 0-1.148-.746c-.351-.137-.88-.3-1.852-.344-.974-.044-1.317-.056-3.477-.058zm-.555 3.056a5.123 5.123 0 1 1 0 10.246 5.123 5.123 0 0 1 0-10.246zm0 1.798a3.326 3.326 0 1 0 0 6.652 3.326 3.326 0 0 0 0-6.652zm5.326-3.197a1.197 1.197 0 1 1 0 2.394 1.197 1.197 0 0 1 0-2.394z"/></svg>