<svg xmlns="http://www.w3.org/2000/svg" width="30" height="30" viewBox="0 0 30 30">
    <path fill="currentColor" d="M14.295 5.927c5.83 0 10.657 3.762 10.795 8.523.703.927 1.11 2.025 1.11 3.214-.056 1.88-1.036 3.604-2.587 4.603l-.167.1.008.01c.004.006.007.016.01.029.03.108.087.24.165.38.083.15.167.272.215.334.34.44.099 1.085-.447 1.194-.783.157-1.393-.084-2.013-.597-.043-.035-.205-.177-.305-.262-.77.158-1.556.245-2.356.26-.964 0-1.889-.15-2.739-.423l.17-.02c-.612.084-1.228.126-1.86.126-1.062-.022-2.12-.132-3.173-.334l-.441-.091c0 .004-.004.007-.009.01-.085.065-.505.437-.576.496-.841.706-1.646 1.028-2.681.821-.545-.109-.786-.751-.448-1.192.082-.107.218-.306.352-.55.129-.234.226-.458.279-.652.074-.272.055-.358.015-.383-2.466-1.407-4.02-3.998-4.101-6.858.008-4.868 4.872-8.738 10.784-8.738zm0 1.5c-5.15 0-9.278 3.284-9.284 7.218.065 2.315 1.333 4.428 3.368 5.589.731.453.894 1.222.665 2.065l-.039.134.127-.103c.032-.027.494-.436.632-.541.364-.277.702-.41 1.099-.31.82.184 1.652.308 2.483.372-1.284-1.087-2.079-2.567-2.079-4.216 0-3.394 3.389-6.067 7.477-6.067 1.702 0 3.28.465 4.542 1.254l-.024-.068c-1.078-3.044-4.672-5.327-8.967-5.327zm4.45 5.64c-3.329 0-5.978 2.09-5.978 4.568 0 2.484 2.637 4.58 5.942 4.58.761-.014 1.519-.105 2.25-.268.367-.089.652.025.948.249l.04.03c.016-.435.212-.825.648-1.096 1.265-.724 2.063-2.054 2.105-3.488 0-2.483-2.634-4.574-5.956-4.574z"/>
</svg>
