<svg xmlns="http://www.w3.org/2000/svg" width="32" height="32" viewBox="0 0 32 32">
    <g fill="none" fill-rule="evenodd">
        <path fill="currentColor" fill-rule="nonzero" d="M24.083 13.557v.018c-.002 1.425-.407 2.82-1.18 4.044l-5.036 7.483c-.162.242-.37.449-.61.611-1.032.694-2.43.42-3.124-.61L9.086 17.6C8.324 16.396 7.92 15 7.916 13.557c.093-4.381 3.717-7.86 8.07-7.774 4.38-.086 8.005 3.393 8.097 7.774zm-8.098-6.274c-3.554-.07-6.493 2.752-6.568 6.29.001 1.142.326 2.26.925 3.208l5.036 7.484c.231.344.697.435 1.04.204.081-.054.15-.124.204-.204l5.024-7.466c.61-.963.934-2.079.937-3.218-.08-3.55-3.017-6.368-6.598-6.298zM16 9.797c1.857 0 3.377 1.446 3.377 3.25 0 1.803-1.52 3.25-3.377 3.25-1.857 0-3.377-1.447-3.377-3.25 0-1.804 1.52-3.25 3.377-3.25zm0 1.5c-1.045 0-1.877.792-1.877 1.75s.832 1.75 1.877 1.75 1.877-.792 1.877-1.75-.832-1.75-1.877-1.75z"/>
        <circle cx="16" cy="16" r="15.5" stroke="currentColor"/>
    </g>
</svg>
