<svg xmlns="http://www.w3.org/2000/svg" width="16" height="16" viewBox="0 0 16 16">
    <path d="M9.277 2.88c.205 0 .388.023.55.07.162.046.296.104.4.173.105.069.193.159.267.27.073.111.126.211.16.3.033.089.06.2.08.333.02.133.03.233.033.3.002.067.003.153.003.26 0 .169-.02.338-.063.506-.042.17-.084.302-.126.4-.043.098-.104.222-.184.373-.013.027-.035.067-.066.12-.031.054-.056.102-.074.147-.017.044-.035.098-.053.16h1.846c.346 0 .646.126.9.38.252.253.379.553.379.9 0 .382-.122.712-.367.992.067.196.1.365.1.507.013.338-.082.642-.287.913.076.249.076.509 0 .78-.066.253-.186.461-.36.626.04.497-.068.9-.326 1.206-.284.338-.722.51-1.313.52h-.86c-.293 0-.612-.035-.959-.104-.346-.069-.616-.133-.81-.193-.193-.06-.46-.148-.802-.263-.547-.191-.898-.289-1.053-.293-.116-.005-.216-.048-.3-.13-.085-.083-.127-.181-.127-.297V7.565c0-.111.04-.208.12-.29.08-.082.176-.128.287-.137.106-.009.275-.14.506-.393.231-.253.455-.522.673-.806.302-.387.527-.653.673-.8.08-.08.15-.187.207-.32.058-.133.097-.24.117-.323.02-.082.05-.217.09-.403.03-.173.058-.309.083-.407.024-.098.068-.213.13-.346.062-.134.138-.245.226-.333.085-.085.185-.127.3-.127zM5.012 7.145c.116 0 .216.042.3.127.085.084.127.184.127.3v4.264c0 .116-.042.216-.127.3-.084.085-.184.127-.3.127H3.093c-.115 0-.215-.042-.3-.127-.084-.084-.126-.184-.126-.3V7.571c0-.115.042-.215.126-.3.085-.084.185-.126.3-.126zm-1.066 3.412c-.12 0-.22.042-.303.126-.082.085-.123.185-.123.3 0 .12.04.221.123.304.082.082.183.123.303.123.116 0 .216-.041.3-.123.085-.083.127-.184.127-.304 0-.115-.043-.215-.127-.3-.084-.084-.184-.126-.3-.126z" fill="currentColor"/>
</svg>
