<svg xmlns="http://www.w3.org/2000/svg" width="38" height="38" viewBox="0 0 38 38"><path fill="currentColor" d="M19.355 8.868c1.316.005 6.07.04 9.4.28.545.066 1.733.071 2.792 1.18.836.847 1.108 2.767 1.108 2.767s.26 2.102.277 4.277l.001.233v2.114c0 2.255-.278 4.51-.278 4.51s-.272 1.92-1.108 2.766c-1.06 1.11-2.247 1.116-2.792 1.18-3.493.253-8.556.287-9.573.29l-.22.001c-.57-.006-7.302-.075-9.437-.28-.62-.116-2.012-.08-3.072-1.19-.836-.846-1.108-2.767-1.108-2.767s-.26-2.102-.277-4.277v-2.58c.018-2.175.277-4.277.277-4.277s.272-1.92 1.108-2.766c1.06-1.11 2.247-1.115 2.792-1.18 3.33-.241 8.084-.276 9.4-.281h.71zm-3.233 5.583l.001 7.83 6.6-3.421-6.601-4.409z"/></svg>