<?xml version="1.0" encoding="utf-8"?>
<!-- Generator: Adobe Illustrator 21.1.0, SVG Export Plug-In . SVG Version: 6.00 Build 0)  -->
<svg version="1.1" id="Layer_1" xmlns="http://www.w3.org/2000/svg" xmlns:xlink="http://www.w3.org/1999/xlink" x="0px" y="0px"
	 viewBox="0 0 689.3 399.7" style="enable-background:new 0 0 689.3 399.7;" xml:space="preserve">
<style type="text/css">
	.st0{fill:#FFFFFF;}
	.st1{fill:#472E8C;}
	.st2{fill:#E4E5E3;}
	.st3{fill:none;stroke:#472E8C;stroke-width:4;stroke-miterlimit:10;stroke-dasharray:5.0325,10.065;}
	.st4{fill:none;stroke:#E4E5E3;stroke-width:3;stroke-linecap:round;stroke-miterlimit:10;}
	.st5{fill:none;stroke:#472E8C;stroke-width:2;stroke-miterlimit:10;stroke-dasharray:4.9257,4.9257;}
	.st6{fill:none;stroke:#472E8C;stroke-width:2;stroke-miterlimit:10;stroke-dasharray:4.8284,4.8284;}
	.st7{fill:none;stroke:#472E8C;stroke-width:2;stroke-miterlimit:10;stroke-dasharray:3.8897,3.8897;}
	.st8{fill:none;stroke:#472E8C;stroke-width:2;stroke-miterlimit:10;stroke-dasharray:4.1063,4.1063;}
	.st9{fill:#FFFFFF;stroke:#E4E5E3;stroke-width:3;stroke-linecap:round;stroke-miterlimit:10;}
	.st10{fill:none;stroke:#E4E5E3;stroke-width:2;stroke-linecap:round;stroke-miterlimit:10;}
	.st11{fill:#FFFFFF;stroke:#E4E5E3;stroke-width:2;stroke-linecap:round;stroke-miterlimit:10;}
	.st12{fill:none;stroke:#E4E5E3;stroke-linecap:round;stroke-miterlimit:10;}
</style>
<g>
	<g>
		<path class="st0" d="M449,297.2c-64.4-2.1-116.4-54.9-117.5-119.3c-0.8-48.9,27.2-91.3,68.2-111.4c1.9-0.9,1.5-3.8-0.7-4.1
			c-5.9-0.8-11.9-1.2-18.1-1.2c-75.8,0-137.5,61-138.5,136.6c-1,76.8,61.4,140.3,138.2,140.4c37.8,0.1,72.1-15,97.1-39.5
			c1.5-1.5,0.2-4.1-1.9-3.7C467.2,296.7,458.2,297.5,449,297.2z"/>
	</g>
	<g>
		<path class="st1" d="M384.8,340.2l-0.1-4c1.7,0,3.3-0.1,5-0.2l0.2,4C388.2,340.1,386.5,340.1,384.8,340.2z M374.6,340.1
			c-1.7-0.1-3.4-0.2-5.1-0.3l0.3-4c1.7,0.1,3.3,0.2,4.9,0.3L374.6,340.1z M400,339l-0.5-4c1.6-0.2,3.3-0.5,4.9-0.8l0.7,3.9
			C403.4,338.5,401.7,338.7,400,339z M359.3,338.6c-1.7-0.3-3.4-0.6-5-0.9l0.8-3.9c1.6,0.3,3.3,0.6,4.9,0.9L359.3,338.6z
			 M415.1,336.1l-1-3.9c1.6-0.4,3.2-0.8,4.8-1.3l1.1,3.8C418.4,335.2,416.7,335.7,415.1,336.1z M344.4,335.4
			c-1.6-0.4-3.3-0.9-4.9-1.4l1.2-3.8c1.6,0.5,3.2,1,4.8,1.4L344.4,335.4z M429.7,331.6l-1.4-3.8c1.5-0.6,3.1-1.2,4.6-1.8l1.5,3.7
			C432.9,330.3,431.3,331,429.7,331.6z M329.9,330.5c-1.6-0.6-3.2-1.3-4.7-2l1.6-3.7c1.5,0.7,3,1.3,4.6,1.9L329.9,330.5z
			 M443.8,325.5l-1.8-3.6c1.5-0.7,2.9-1.5,4.4-2.3l1.9,3.5C446.8,323.9,445.3,324.7,443.8,325.5z M316,324.2c-1.5-0.8-3-1.6-4.5-2.5
			l2-3.5c1.4,0.8,2.9,1.6,4.3,2.4L316,324.2z M457.1,317.9l-2.2-3.4c1.4-0.9,2.8-1.8,4.1-2.8l2.3,3.3
			C459.9,316,458.5,317,457.1,317.9z M302.9,316.3c-1.4-0.9-2.8-1.9-4.2-2.9l2.4-3.2c1.3,1,2.7,1.9,4.1,2.8L302.9,316.3z
			 M469.5,308.9l-2.5-3.1c1.3-1,2.5-2.1,3.8-3.2l2.6,3C472.1,306.7,470.8,307.8,469.5,308.9z M290.6,307.1c-1.3-1.1-2.6-2.2-3.8-3.4
			l2.7-3c1.2,1.1,2.5,2.2,3.7,3.3L290.6,307.1z M449.2,299.2l-0.3,0c-1.7-0.1-3.4-0.1-5.1-0.3l0.3-4c1.6,0.1,3.3,0.2,4.9,0.3l0.2,0
			L449.2,299.2z M459.4,299.1l-0.2-4c1.6-0.1,3.3-0.2,4.9-0.4l0.4,4C462.8,298.9,461.1,299,459.4,299.1z M433.7,297.7
			c-1.7-0.3-3.4-0.6-5-0.9l0.8-3.9c1.6,0.3,3.2,0.6,4.9,0.9L433.7,297.7z M474.6,297.3l-0.7-3.9c0.5-0.1,1.1-0.2,1.6-0.3
			c0.3-0.1,0.5-0.1,0.8-0.1c1.9,0,3.6,1.3,4,3.3l-3.9,0.9c0,0,0-0.2-0.1-0.2C475.7,297.1,475.2,297.2,474.6,297.3z M279.5,296.6
			c-1.2-1.2-2.3-2.5-3.5-3.8l3-2.7c1.1,1.2,2.2,2.5,3.4,3.6L279.5,296.6z M418.7,294.4c-1.6-0.5-3.3-1-4.9-1.5l1.3-3.8
			c1.6,0.5,3.2,1,4.7,1.5L418.7,294.4z M404.2,289.2c-1.6-0.7-3.1-1.4-4.7-2.1l1.7-3.6c1.5,0.7,3,1.4,4.5,2.1L404.2,289.2z
			 M269.5,285c-1-1.3-2.1-2.7-3-4.1l3.3-2.3c1,1.3,2,2.7,3,4L269.5,285z M390.6,282.2c-1.5-0.9-2.9-1.8-4.4-2.7l2.2-3.4
			c1.4,0.9,2.8,1.8,4.2,2.6L390.6,282.2z M377.9,273.6c-1.3-1-2.7-2.1-4-3.2l2.6-3.1c1.3,1.1,2.6,2.1,3.9,3.1L377.9,273.6z
			 M260.9,272.4c-0.9-1.4-1.7-2.9-2.6-4.4l3.5-2c0.8,1.4,1.6,2.9,2.5,4.3L260.9,272.4z M366.3,263.5c-1.2-1.2-2.4-2.4-3.6-3.7
			l2.9-2.7c1.1,1.2,2.3,2.4,3.4,3.5L366.3,263.5z M253.7,258.9c-0.7-1.5-1.4-3.1-2.1-4.7l3.7-1.6c0.6,1.5,1.3,3.1,2,4.5L253.7,258.9
			z M356.1,252.1c-1.1-1.3-2.1-2.7-3.1-4.1l3.2-2.3c1,1.3,2,2.6,3,3.9L356.1,252.1z M247.9,244.7c-0.5-1.6-1.1-3.2-1.6-4.9l3.8-1.1
			c0.5,1.6,1,3.2,1.5,4.7L247.9,244.7z M347.3,239.5c-0.9-1.5-1.7-2.9-2.6-4.4l3.5-1.9c0.8,1.4,1.6,2.9,2.5,4.3L347.3,239.5z
			 M243.8,229.9c-0.4-1.7-0.7-3.3-1-5l3.9-0.7c0.3,1.6,0.6,3.3,1,4.9L243.8,229.9z M340.2,226c-0.7-1.5-1.4-3.1-2-4.7l3.7-1.5
			c0.6,1.5,1.3,3.1,1.9,4.5L340.2,226z M241.3,214.8c-0.2-1.7-0.3-3.4-0.5-5.1l4-0.3c0.1,1.6,0.3,3.3,0.4,4.9L241.3,214.8z
			 M334.8,211.6c-0.5-1.6-1-3.3-1.4-4.9l3.9-1c0.4,1.6,0.9,3.2,1.3,4.8L334.8,211.6z M244.5,199.5l-4,0c0-0.6,0-1.2,0-1.7
			c0-1.1,0-2.2,0.1-3.4l4,0.1c0,1.1-0.1,2.2-0.1,3.3C244.5,198.4,244.5,199,244.5,199.5z M331.3,196.7c-0.3-1.7-0.5-3.4-0.8-5.1
			l4-0.5c0.2,1.6,0.5,3.3,0.7,4.9L331.3,196.7z M245.3,184.7l-4-0.4c0.2-1.7,0.4-3.4,0.6-5.1l4,0.6
			C245.7,181.4,245.5,183,245.3,184.7z M329.6,181.5c-0.1-1.2-0.1-2.4-0.1-3.6c0-0.5,0-1,0-1.6l4,0c0,0.5,0,1,0,1.5
			c0,1.1,0.1,2.3,0.1,3.4L329.6,181.5z M247.7,170l-3.9-0.9c0.4-1.7,0.8-3.3,1.2-5l3.9,1C248.5,166.8,248.1,168.4,247.7,170z
			 M333.9,166.4l-4-0.3c0.1-1.7,0.3-3.4,0.5-5.1l4,0.5C334.1,163.1,334,164.8,333.9,166.4z M251.8,155.7l-3.8-1.3
			c0.5-1.6,1.1-3.2,1.7-4.8l3.7,1.4C252.9,152.6,252.3,154.1,251.8,155.7z M335.9,151.7l-3.9-0.8c0.3-1.7,0.7-3.3,1.1-5l3.9,1
			C336.6,148.5,336.2,150.1,335.9,151.7z M257.3,141.9l-3.6-1.7c0.7-1.5,1.5-3.1,2.2-4.6l3.6,1.8C258.7,138.9,258,140.4,257.3,141.9
			z M339.8,137.4l-3.8-1.3c0.5-1.6,1.1-3.2,1.7-4.8l3.7,1.4C340.9,134.3,340.3,135.8,339.8,137.4z M264.3,128.8l-3.4-2.1
			c0.9-1.4,1.8-2.9,2.7-4.3l3.3,2.2C266.1,126,265.2,127.4,264.3,128.8z M345.4,123.7l-3.6-1.7c0.7-1.5,1.5-3.1,2.3-4.6l3.5,1.9
			C346.9,120.7,346.1,122.2,345.4,123.7z M272.7,116.6l-3.2-2.4c1-1.3,2.1-2.7,3.2-4l3.1,2.6C274.8,114,273.7,115.3,272.7,116.6z
			 M352.7,110.7l-3.4-2.2c0.9-1.4,1.9-2.8,2.9-4.2l3.3,2.3C354.5,108,353.6,109.4,352.7,110.7z M282.4,105.3l-2.9-2.8
			c1.2-1.2,2.4-2.4,3.6-3.6l2.8,2.9C284.7,102.9,283.6,104.1,282.4,105.3z M361.6,98.8l-3.1-2.6c1.1-1.3,2.2-2.6,3.4-3.8l3,2.7
			C363.7,96.3,362.6,97.6,361.6,98.8z M293.3,95.1l-2.6-3.1c1.3-1.1,2.6-2.2,4-3.2l2.5,3.2C295.8,93,294.5,94.1,293.3,95.1z
			 M371.8,88.1l-2.7-2.9c1.2-1.1,2.5-2.3,3.8-3.4l2.6,3C374.2,85.9,373,87,371.8,88.1z M305.2,86.2l-2.2-3.3
			c1.4-0.9,2.9-1.9,4.3-2.8l2.1,3.4C308,84.4,306.6,85.3,305.2,86.2z M383.3,78.7l-2.3-3.2c1.4-1,2.8-2,4.2-2.9l2.2,3.3
			C386,76.8,384.6,77.7,383.3,78.7z M318,78.6l-1.8-3.5c1.5-0.8,3-1.6,4.6-2.3l1.7,3.6C320.9,77.1,319.4,77.9,318,78.6z M331.5,72.5
			l-1.4-3.7c1.6-0.6,3.2-1.2,4.8-1.8l1.3,3.8C334.6,71.3,333.1,71.9,331.5,72.5z M395.8,70.8l-1.9-3.5c1.5-0.8,3-1.6,4.5-2.4
			l1.8,3.6C398.8,69.2,397.3,70,395.8,70.8z M345.7,67.9l-1-3.9c1.6-0.4,3.3-0.9,5-1.2l0.9,3.9C348.9,67,347.3,67.4,345.7,67.9z
			 M360.2,64.8l-0.6-4c1.7-0.3,3.4-0.5,5.1-0.7l0.5,4C363.5,64.3,361.9,64.6,360.2,64.8z M394.8,63.9c-1.6-0.2-3.3-0.3-4.9-0.4
			l0.3-4c1.7,0.1,3.4,0.3,5.1,0.4L394.8,63.9z M375,63.4l-0.2-4c1.7-0.1,3.4-0.1,5.1-0.1l0,4C378.3,63.3,376.7,63.3,375,63.4z"/>
	</g>
</g>
<g>
	<path class="st2" d="M258,205.7H103.5C81.7,205.7,64,188,64,166.3c0-0.5,0-1,0.1-1.5l0-0.5c0-0.2,0-0.4,0-0.6
		c0-0.5-0.1-0.9-0.1-1.4c0-20.2,14.1-37.8,33.6-42.4c-0.7-3.9-1.1-7.9-1.1-11.9c0-36,29.3-65.2,65.2-65.2
		c27.8,0,52.5,17.5,61.6,43.7c23.7,2.5,42.9,19.6,48.3,42.8c15.5,5.7,25.9,20.5,25.9,37C297.5,188,279.8,205.7,258,205.7z
		 M161.8,45.7c-34.3,0-62.2,27.9-62.2,62.2c0,4.3,0.4,8.5,1.3,12.7l0.3,1.5l-1.5,0.3C80.7,126.2,67,142.9,67,162.2
		c0,0.4,0,0.8,0.1,1.2c0,0.2,0,0.5,0,0.7l0,0.1l0,0.7c0,0.4-0.1,0.9-0.1,1.3c0,20.1,16.4,36.5,36.5,36.5H258
		c20.1,0,36.5-16.4,36.5-36.5c0-15.5-9.9-29.3-24.6-34.4l-0.8-0.3l-0.2-0.8c-4.8-22.3-24-39.3-46.8-41.4l-1-0.1l-0.3-0.9
		C212.4,62.9,188.6,45.7,161.8,45.7z"/>
</g>
<g>
	<g>
		<path class="st0" d="M452.1,13.2l-9.3,3.9c-1.3,0.6-1.4,2.4-0.2,3.1l8.8,5c0.5,0.3,0.8,0.8,0.9,1.3l0.9,10
			c0.1,1.4,1.8,2.1,2.9,1.1l7.5-6.8c0.4-0.4,1-0.5,1.5-0.4l9.8,2.3c1.4,0.3,2.5-1.1,1.9-2.4l-4.2-9.2c-0.2-0.5-0.2-1.1,0.1-1.6
			l5.2-8.6c0.7-1.2-0.2-2.7-1.7-2.6l-10,1.1c-0.6,0.1-1.1-0.2-1.5-0.6l-6.6-7.6c-0.9-1.1-2.7-0.6-3,0.8l-2,9.9
			C453,12.5,452.6,13,452.1,13.2z"/>
	</g>
	<g>
		<path class="st1" d="M456.5,38.5l-1.3-1.6l0,0l3.6-3.2l1.3,1.5l-3.6,3.2C456.6,38.4,456.5,38.5,456.5,38.5z M452,35.4l-0.4-4.9
			l2-0.2l0.4,4.9L452,35.4z M475.2,33.8c-0.2,0-0.4,0-0.6-0.1l-2.2-0.5l0.5-1.9l2.2,0.5c0.4,0.1,0.8-0.2,0.9-0.5l1.9,0.5
			C477.5,32.9,476.4,33.8,475.2,33.8z M467.6,32.1l-2.8-0.7c-0.2-0.1-0.5,0-0.6,0.2l-0.3,0.2l-1.3-1.5l0.3-0.2
			c0.7-0.6,1.6-0.8,2.4-0.6l2.8,0.7L467.6,32.1z M474.2,27.3l-2-4.5L474,22l2,4.5L474.2,27.3z M451.1,26.2c-0.1-0.1-0.1-0.1-0.2-0.2
			l-3.7-2.1l1-1.7l3.7,2.1c0.3,0.2,0.6,0.4,0.8,0.7L451.1,26.2z M442.9,21.5l-0.8-0.4c-0.9-0.5-1.4-1.4-1.4-2.4
			c0-1.1,0.7-2.1,1.7-2.5l0.2-0.1l0.8,1.8l-0.2,0.1c-0.4,0.2-0.4,0.5-0.4,0.7c0,0.1,0,0.4,0.4,0.6l0.8,0.4L442.9,21.5z M474.5,18.5
			l-1.7-1l2.5-4.2l1.7,1L474.5,18.5z M448,16l-0.8-1.8l4.5-1.9l0.9,1.8l-0.1,0.1L448,16z M466,10.5c-0.8,0-1.5-0.3-2-0.9l-0.6-0.7
			l1.5-1.3l0.6,0.7c0.1,0.2,0.3,0.2,0.5,0.2l2.4-0.3l0.2,2l-2.3,0.3C466.2,10.5,466.1,10.5,466,10.5z M477.1,9.8
			c-0.1-0.2-0.3-0.4-0.6-0.4l0,0l-2.9,0.3l-0.2-2l2.8-0.3c0.1,0,0.2,0,0.3,0c0,0,0,0,0,0c1,0,2,0.6,2.4,1.6L477.1,9.8z M454.8,8.9
			l-2-0.4l1-4.8l2,0.4L454.8,8.9z M460.2,5.2L457.4,2c-0.1-0.1-0.1-0.1-0.2-0.2L458,0c0.3,0.2,0.6,0.4,0.8,0.7l2.8,3.2L460.2,5.2z"
			/>
	</g>
</g>
<g>
	<g>
		<path class="st0" d="M513.2,69.3l-9.7-2.8c-1.4-0.4-2.6,1-2.1,2.3l3.7,9.4c0.2,0.5,0.1,1.1-0.2,1.6l-5.6,8.4
			c-0.8,1.2,0.1,2.7,1.5,2.7l10.1-0.6c0.6,0,1.1,0.2,1.5,0.7l6.2,7.9c0.9,1.1,2.7,0.7,3-0.6l2.5-9.8c0.1-0.5,0.5-1,1.1-1.2l9.5-3.5
			c1.3-0.5,1.5-2.3,0.3-3.1l-8.5-5.4c-0.5-0.3-0.8-0.8-0.8-1.4l-0.4-10.1c-0.1-1.4-1.7-2.2-2.8-1.3l-7.8,6.4
			C514.3,69.3,513.7,69.4,513.2,69.3z"/>
	</g>
	<g>
		<path class="st1" d="M520,100.4c-0.8,0-1.6-0.4-2.1-1l-1.4-1.8l1.6-1.2l1.4,1.8c0.2,0.2,0.4,0.3,0.6,0.3c0.2,0,0.3-0.1,0.5-0.2
			l1.2,1.6C521.2,100.2,520.6,100.4,520,100.4z M523.6,94.7l-1.9-0.5l1.2-4.8l1.9,0.5L523.6,94.7z M513.4,93.7l-1.8-2.3
			c-0.1-0.2-0.3-0.3-0.6-0.3l-0.4,0l-0.1-2l0.3,0c0.1,0,0.1,0,0.2,0c0.8,0,1.6,0.4,2.1,1l1.8,2.3L513.4,93.7z M500.8,91.8l0-2l0.1,0
			l4.8-0.3l0.1,2l-4.8,0.3C500.9,91.8,500.8,91.8,500.8,91.8z M500.9,87.7l-1.7-1.1l2.7-4.1l1.7,1.1L500.9,87.7z M527.4,87.4
			l-0.7-1.9l4.6-1.7l0.7,1.9L527.4,87.4z M536.7,82.7l-1.9-0.5c0-0.1,0-0.1,0-0.2c0-0.1,0-0.4-0.3-0.6l-2.4-1.5l1.1-1.7l2.4,1.5
			c0.8,0.5,1.3,1.4,1.3,2.3C536.8,82.3,536.8,82.5,536.7,82.7z M504.3,78.8c0-0.1,0-0.2,0-0.3l-1.6-4l1.9-0.7l1.6,4
			c0.1,0.3,0.2,0.7,0.2,1L504.3,78.8z M528,77.3l-2-1.3c-0.8-0.5-1.2-1.3-1.3-2.2l0-0.9l2-0.1l0,0.9c0,0.2,0.1,0.4,0.3,0.6l2,1.3
			L528,77.3z M513.1,70.3l-0.1,0l-4.7-1.3l0.5-1.9l4.7,1.3L513.1,70.3z M500.8,70l-0.3-0.8c-0.1-0.3-0.2-0.7-0.2-1
			c0-1.5,1.2-2.7,2.7-2.7c0.3,0,0.5,0,0.8,0.1l0.2,0.1l-0.5,1.9l-0.2-0.1c-0.5-0.1-0.9,0.2-0.9,0.7c0,0.1,0,0.2,0.1,0.3l0.3,0.8
			L500.8,70z M524.5,68l-0.2-4.2c0-0.1,0-0.2-0.1-0.3l1.8-0.8c0.2,0.3,0.2,0.7,0.3,1.1l0.2,4.2L524.5,68z M518,67.6l-1.3-1.5
			l3.8-3.1l1.3,1.5L518,67.6z"/>
	</g>
</g>
<g>
	<g>
		<path class="st0" d="M447.7,137.2l-5.7,5c-0.8,0.7-0.5,2,0.6,2.2l7.4,1.5c0.4,0.1,0.8,0.4,0.9,0.8l3,7c0.4,1,1.8,1.1,2.3,0.1
			l3.8-6.6c0.2-0.4,0.6-0.6,1-0.6l7.6-0.7c1.1-0.1,1.6-1.4,0.8-2.2l-5.1-5.6c-0.3-0.3-0.4-0.7-0.3-1.2l1.7-7.4
			c0.2-1-0.8-1.9-1.8-1.5l-6.9,3.1c-0.4,0.2-0.8,0.1-1.2-0.1l-6.5-3.9c-0.9-0.6-2.1,0.2-1.9,1.2l0.8,7.6
			C448.2,136.5,448,136.9,447.7,137.2z"/>
	</g>
	<g>
		<path class="st1" d="M456,155.3l-0.8-1.8c0.1,0,0.1-0.1,0.1-0.1l2-3.5l1.7,1l-2,3.5C456.8,154.8,456.5,155.1,456,155.3z
			 M451.9,151.5l-1.9-4.4l1.8-0.8l1.9,4.5L451.9,151.5z M461.1,147.6l-0.2-2l4.8-0.4l0.2,2L461.1,147.6z M446.3,146.2l-3.9-0.8
			c-0.5-0.1-0.9-0.3-1.2-0.7l1.5-1.3c0,0,0.1,0.1,0.2,0.1l3.9,0.8L446.3,146.2z M468.7,144.6c0-0.1,0-0.1-0.1-0.2l-2.7-2.9l1.5-1.3
			l2.7,2.9c0.3,0.4,0.6,0.8,0.6,1.4L468.7,144.6z M444.7,141.1l-1.3-1.5l3.6-3.2l1.4,1.4l-0.1,0.1L444.7,141.1z M464.9,137.2l-2-0.4
			l1.1-4.7l1.9,0.5L464.9,137.2z M446.8,132.5l-0.4-3.9c0-0.1,0-0.2,0-0.3c0-0.4,0.1-0.9,0.4-1.2l1.7,1.1c0,0,0,0.1,0,0.1l0.4,4
			L446.8,132.5z M455.3,132.1L455.3,132.1l-4.2-2.5l1-1.7l4.1,2.5L455.3,132.1z M460.7,130.7l-0.8-1.8l3.6-1.6
			c0.5-0.2,1-0.3,1.5-0.1l-0.5,1.9c-0.1,0-0.1,0-0.2,0L460.7,130.7z"/>
	</g>
</g>
<g>
	<g>
		<path class="st0" d="M98.5,320.8l-0.2,8.8c0,1.2,1.3,2,2.3,1.2l6.7-5.2c0.4-0.3,0.9-0.4,1.3-0.2l7.9,2.9c1.1,0.4,2.2-0.7,1.8-1.9
			l-2.6-8.4c-0.1-0.5-0.1-1,0.2-1.4l5-7c0.7-1,0-2.4-1.1-2.4l-8.3,0.1c-0.5,0-0.9-0.2-1.2-0.6l-4.8-7.2c-0.7-1-2.2-0.8-2.5,0.4
			l-2.5,8.4c-0.1,0.5-0.5,0.8-0.9,1l-8,2.6c-1.1,0.4-1.4,1.9-0.4,2.6l6.8,5.1C98.3,319.8,98.5,320.3,98.5,320.8z"/>
	</g>
	<g>
		<path class="st1" d="M99.7,332.1c-1.3,0-2.4-1.1-2.4-2.5l0-1l2,0l0,1c0,0.4,0.3,0.6,0.5,0.5l0.8,1.8
			C100.4,332,100.1,332.1,99.7,332.1z M104,329.4l-1.2-1.6l3.1-2.4l1.2,1.6L104,329.4z M117.5,329.3l-0.5-1.9c0.2,0,0.3-0.2,0.3-0.5
			c0-0.1,0-0.1,0-0.2l-0.4-1.4l1.9-0.6l0.4,1.4c0.1,0.3,0.1,0.5,0.1,0.8C119.4,328,118.6,329,117.5,329.3z M113.2,328.1l-3.7-1.3
			l0.7-1.9l3.7,1.3L113.2,328.1z M99.4,324.7l-2,0l0.1-3.9l2-0.1l0,0.1L99.4,324.7z M115.7,321.6l-1-3.2c-0.1-0.3-0.1-0.5-0.1-0.8
			l2,0c0,0.1,0,0.1,0,0.2l1,3.2L115.7,321.6z M95.3,318.8l-3.1-2.3l1.2-1.6l3.1,2.3L95.3,318.8z M118.4,314.8l-1.6-1.2l2.3-3.2
			l1.6,1.2L118.4,314.8z M91.5,313.1l-1.9-0.5c0.2-0.8,0.8-1.5,1.6-1.7l2.3-0.7l0.6,1.9l-2.3,0.7C91.6,312.8,91.5,313,91.5,313.1z
			 M97.8,310.8l-0.6-1.9l2-0.6c0.1,0,0.2-0.2,0.3-0.3l0.1-0.4l1.9,0.6l-0.1,0.4c-0.2,0.8-0.8,1.4-1.6,1.6L97.8,310.8z M120,308.4
			c-0.1-0.1-0.2-0.1-0.3-0.1l-2.7,0l0-2l2.7,0c0.7,0,1.3,0.3,1.8,0.8L120,308.4z M111.4,308.3c-0.8,0-1.6-0.4-2-1.1l-0.4-0.6
			l1.7-1.1l0.4,0.6c0.1,0.1,0.2,0.2,0.3,0.2l1.7,0l0,2L111.4,308.3z M102.6,304.4l-1.9-0.6l1.1-3.7l1.9,0.6L102.6,304.4z
			 M106.8,303.3l-2.1-3.2l1.7-1.1l2.1,3.2L106.8,303.3z"/>
	</g>
</g>
<g>
	<g>
		<path class="st0" d="M191,274.5l8.5,1.1c1.2,0.2,2.1-1.1,1.6-2.1l-4-7.3c-0.2-0.4-0.2-0.9,0-1.3l4.1-7.7c0.6-1.1-0.3-2.3-1.5-2
			l-8.6,1.8c-0.5,0.1-1,0-1.3-0.4l-6-5.8c-0.8-0.8-2.3-0.3-2.5,0.9L180,260c-0.1,0.5-0.4,0.9-0.8,1.1l-7.8,4.1
			c-1.1,0.6-1.1,2.1,0,2.6l7.8,3.4c0.4,0.2,0.7,0.6,0.8,1l1.2,8.3c0.2,1.2,1.7,1.6,2.5,0.7l6.1-6.3C190,274.6,190.5,274.4,191,274.5
			z"/>
	</g>
	<g>
		<path class="st1" d="M182,282.7c-1-0.2-1.8-1-1.9-2l-0.3-2.2l2-0.3l0.3,2.2c0,0.2,0.2,0.3,0.3,0.3L182,282.7z M186,280.3l-1.4-1.4
			l2.7-2.8l1.4,1.4L186,280.3z M199.8,276.6c-0.1,0-0.2,0-0.3,0l-0.8-0.1l0.2-2l0.8,0.1c0,0,0,0,0,0c0.4,0,0.6-0.3,0.6-0.5
			c0,0,0-0.1,0-0.1l1.9-0.7c0.1,0.3,0.1,0.5,0.1,0.8C202.3,275.4,201.1,276.6,199.8,276.6z M194.7,276l-3.9-0.5l0.1-2l0.1,0l3.9,0.5
			L194.7,276z M179.2,274.7l-0.3-2.3c0-0.1-0.1-0.2-0.2-0.3l-0.2-0.1l0.8-1.8l0.2,0.1c0.8,0.3,1.3,1,1.4,1.8l0.3,2.3L179.2,274.7z
			 M198.5,270.7l-1.9-3.4l1.8-1l1.9,3.4L198.5,270.7z M175,270.5l-3.6-1.6l0.8-1.8l3.6,1.6L175,270.5z M171.9,266l-0.9-1.8l3.4-1.8
			l0.9,1.8L171.9,266z M198.8,263.7l-1.8-0.9l1.8-3.4l1.8,0.9L198.8,263.7z M178.8,262.4l-0.9-1.8l0.8-0.4c0.2-0.1,0.3-0.2,0.3-0.4
			l0.2-1.6l2,0.3l-0.2,1.6c-0.1,0.8-0.6,1.5-1.3,1.9L178.8,262.4z M190.8,257.9c-0.1,0-0.2,0-0.4,0l0.3-2c0.1,0,0.2,0,0.2,0l3.3-0.7
			l0.4,2l-3.3,0.7C191.1,257.9,191,257.9,190.8,257.9z M200.4,256.4c0-0.2-0.2-0.4-0.5-0.3l-1.5,0.3l-0.4-2l1.5-0.3
			c0.2,0,0.3-0.1,0.5-0.1c1.3,0,2.3,0.9,2.4,2.2L200.4,256.4z M186.9,255.1l-2.8-2.7l1.4-1.4l2.8,2.7L186.9,255.1z M181.8,254.8
			l-2-0.3l0.5-3c0.1-0.5,0.3-0.9,0.6-1.3l1.5,1.3c-0.1,0.1-0.1,0.2-0.1,0.2L181.8,254.8z"/>
	</g>
</g>
<g>
	<g>
		<path class="st0" d="M205.8,368.1l1.8,6.3c0.3,0.9,1.4,1.1,1.9,0.3l3.7-5.4c0.2-0.3,0.5-0.5,0.9-0.5l6.3,0.1c0.9,0,1.4-1,0.9-1.8
			l-3.7-5.3c-0.2-0.3-0.3-0.7-0.2-1l2-6.3c0.3-0.9-0.5-1.7-1.3-1.4l-6,2.1c-0.3,0.1-0.7,0.1-1-0.2l-5-4c-0.7-0.6-1.7,0-1.7,0.9
			l0.1,6.6c0,0.4-0.2,0.7-0.5,0.9l-5.2,3.8c-0.7,0.5-0.6,1.7,0.3,2l6,2C205.4,367.5,205.7,367.7,205.8,368.1z"/>
	</g>
	<g>
		<path class="st1" d="M209.1,376.2l-0.4-2c0,0,0,0,0,0l1.8-2.7l1.7,1.1l-1.8,2.7C210.1,375.8,209.6,376.1,209.1,376.2z M206,372.3
			l-1.1-3.9l1.9-0.6l0,0.1l1.2,4L206,372.3z M218,370l-3.9-0.1l-0.3-2c0.1,0,0.2,0,0.3,0l4,0.1L218,370z M220.5,367.9
			C220.5,367.8,220.5,367.8,220.5,367.9l-2-2.9l1.6-1.1l2,2.8c0.3,0.4,0.4,0.8,0.4,1.2L220.5,367.9z M201.9,367.3l-3.1-1
			c-0.5-0.2-1-0.6-1.2-1.1l1.8-0.8c0,0,0,0,0,0l3.1,1L201.9,367.3z M201.4,362.7l-1.2-1.6l3.1-2.3l1.5,1.3c-0.1,0.1-0.2,0.2-0.3,0.3
			L201.4,362.7z M218.3,361.1l-2-0.4l0.1-0.2l1.2-3.8l1.9,0.6L218.3,361.1z M210.6,355.9l-0.1-0.1l-3.2-2.5l1.2-1.6l3.2,2.5
			L210.6,355.9z M203.4,355.4l0-3.4c0-0.5,0.1-0.9,0.4-1.3l1.6,1.1c0,0,0,0.1,0,0.1l0,3.4L203.4,355.4z M215.4,355.1l-0.7-1.9l3-1.1
			c0.6-0.2,1.2-0.1,1.8,0.2l-1.1,1.7c0,0,0,0,0,0L215.4,355.1z"/>
	</g>
</g>
<g>
	<path class="st2" d="M202.6,88.8c-0.6,0-1.2-0.4-1.4-1c-4.7-14.1-17.8-23.6-32.7-23.6c-0.8,0-1.5-0.7-1.5-1.5s0.7-1.5,1.5-1.5
		c16.1,0,30.4,10.3,35.5,25.6c0.3,0.8-0.2,1.6-1,1.9C202.9,88.8,202.8,88.8,202.6,88.8z"/>
</g>
<g>
	<path class="st2" d="M257.5,191.2H171c-0.8,0-1.5-0.7-1.5-1.5s0.7-1.5,1.5-1.5h86.5c10.9,0,19.9-8.3,20.5-18.8
		c0.5-8.8-5-17-13.4-19.9c-0.8-0.3-1.2-1.1-0.9-1.9s1.1-1.2,1.9-0.9c9.6,3.3,16,12.8,15.4,22.9C280.3,181.7,270,191.2,257.5,191.2z"
		/>
</g>
<g>
	<path class="st2" d="M164.1,191.2h-0.4c-0.8,0-1.5-0.7-1.5-1.5s0.7-1.5,1.5-1.5h0.4c0.8,0,1.5,0.7,1.5,1.5S164.9,191.2,164.1,191.2
		z"/>
</g>
<g>
	<path class="st2" d="M162.1,64.2h-0.4c-0.8,0-1.5-0.7-1.5-1.5s0.7-1.5,1.5-1.5h0.4c0.8,0,1.5,0.7,1.5,1.5S162.9,64.2,162.1,64.2z"
		/>
</g>
<g>
	<path class="st0" d="M584.4,324.4c-4.9-22.9-24.3-40.4-48.1-42.5c-8.4-25.3-32.3-43.6-60.5-43.6c-35.2,0-63.7,28.5-63.7,63.7
		c0,4.5,0.5,8.8,1.3,13c-19.3,3.8-33.9,20.8-33.9,41.2c0,0.7,0.1,1.4,0.1,2c0,0.7-0.1,1.3-0.1,2c0,20.9,17.1,38,38,38H572
		c20.9,0,38-17.1,38-38C610,343.7,599.2,329.6,584.4,324.4z"/>
	<path class="st2" d="M572,399.7H417.5c-21.8,0-39.5-17.7-39.5-39.5c0-0.5,0-1,0.1-1.5l0-0.5c0-0.2,0-0.4,0-0.6c0-0.5-0.1-1-0.1-1.4
		c0-20.2,14-37.8,33.6-42.4c-0.7-3.9-1.1-7.9-1.1-11.9c0-36,29.3-65.2,65.2-65.2c27.8,0,52.5,17.5,61.6,43.7
		c23.7,2.5,42.9,19.6,48.3,42.8c15.5,5.7,25.9,20.5,25.9,37C611.5,382,593.8,399.7,572,399.7z M475.8,239.7
		c-34.3,0-62.2,27.9-62.2,62.2c0,4.3,0.4,8.5,1.3,12.7l0.3,1.5l-1.5,0.3c-18.9,3.7-32.7,20.4-32.7,39.8c0,0.4,0,0.8,0.1,1.2
		c0,0.2,0,0.5,0,0.7l0,0.1l0,0.7c0,0.4-0.1,0.9-0.1,1.3c0,20.1,16.4,36.5,36.5,36.5H572c20.1,0,36.5-16.4,36.5-36.5
		c0-15.5-9.9-29.3-24.6-34.4l-0.8-0.3l-0.2-0.8c-4.8-22.3-24-39.3-46.8-41.4l-1-0.1l-0.3-0.9C526.4,256.9,502.6,239.7,475.8,239.7z"
		/>
</g>
<g>
	<path class="st2" d="M516.6,282.8c-0.6,0-1.2-0.4-1.4-1c-4.7-14.1-17.8-23.6-32.7-23.6c-0.8,0-1.5-0.7-1.5-1.5s0.7-1.5,1.5-1.5
		c16.1,0,30.4,10.3,35.5,25.6c0.3,0.8-0.2,1.6-1,1.9C516.9,282.8,516.8,282.8,516.6,282.8z"/>
</g>
<g>
	<path class="st2" d="M571.5,385.2H485c-0.8,0-1.5-0.7-1.5-1.5s0.7-1.5,1.5-1.5h86.5c10.9,0,19.9-8.3,20.5-18.8
		c0.5-8.8-5-17-13.4-19.9c-0.8-0.3-1.2-1.1-0.9-1.9c0.3-0.8,1.1-1.2,1.9-0.9c9.6,3.3,16,12.8,15.4,22.9
		C594.3,375.7,584,385.2,571.5,385.2z"/>
</g>
<g>
	<path class="st2" d="M476.1,385.2h-0.4c-0.8,0-1.5-0.7-1.5-1.5s0.7-1.5,1.5-1.5h0.4c0.8,0,1.5,0.7,1.5,1.5S476.9,385.2,476.1,385.2
		z"/>
</g>
<g>
	<path class="st2" d="M474.1,258.2h-0.4c-0.8,0-1.5-0.7-1.5-1.5s0.7-1.5,1.5-1.5h0.4c0.8,0,1.5,0.7,1.5,1.5S474.9,258.2,474.1,258.2
		z"/>
</g>
<g>
	<path class="st0" d="M114.4,186.6c-2.7-12.6-13.4-22.3-26.5-23.4c-4.6-14-17.8-24-33.3-24c-19.4,0-35.1,15.7-35.1,35.1
		c0,2.5,0.3,4.9,0.7,7.2c-10.6,2.1-18.7,11.5-18.7,22.7c0,0.4,0,0.7,0.1,1.1c0,0.4-0.1,0.7-0.1,1.1c0,11.5,9.4,20.9,20.9,20.9h85.2
		c11.5,0,20.9-9.4,20.9-20.9C128.5,197.2,122.6,189.4,114.4,186.6z"/>
	<path class="st2" d="M107.6,228.7H22.4C10.1,228.7,0,218.7,0,206.3c0-0.3,0-0.6,0-0.9l0-0.3l0-0.3c0-0.3,0-0.6,0-0.8
		c0-11.2,7.7-21.1,18.4-23.9c-0.3-2-0.5-4-0.5-6c0-20.2,16.4-36.6,36.6-36.6c15.5,0,29.2,9.7,34.4,24.1c13,1.6,23.6,10.9,26.7,23.7
		c8.6,3.3,14.3,11.6,14.3,20.9C130,218.7,119.9,228.7,107.6,228.7z M54.5,140.6c-18.5,0-33.6,15.1-33.6,33.6c0,2.3,0.2,4.6,0.7,6.9
		l0.3,1.5l-1.5,0.3C10.3,184.8,3,193.8,3,204.1c0,0.2,0,0.4,0,0.6l0,0.5l0,0.5c0,0.2,0,0.4,0,0.7c0,10.7,8.7,19.4,19.4,19.4h85.2
		c10.7,0,19.4-8.7,19.4-19.4c0-8.3-5.3-15.6-13.1-18.3l-0.8-0.3l-0.2-0.8c-2.6-12-12.9-21.2-25.2-22.3l-1-0.1l-0.3-0.9
		C81.9,149.8,69,140.6,54.5,140.6z"/>
</g>
<g>
	<path class="st2" d="M77.1,163.8c-0.4,0-0.8-0.3-0.9-0.7c-2.6-7.7-9.7-12.9-17.8-12.9c-0.6,0-1-0.4-1-1s0.4-1,1-1
		c9,0,16.9,5.7,19.7,14.2c0.2,0.5-0.1,1.1-0.6,1.3C77.3,163.8,77.2,163.8,77.1,163.8z"/>
</g>
<g>
	<path class="st2" d="M107.3,220.2H59.6c-0.6,0-1-0.4-1-1s0.4-1,1-1h47.7c5.9,0,10.8-4.5,11.1-10.2c0.3-4.8-2.7-9.2-7.3-10.8
		c-0.5-0.2-0.8-0.8-0.6-1.3c0.2-0.5,0.7-0.8,1.3-0.6c5.4,1.9,8.9,7.1,8.6,12.8C120,214.9,114.3,220.2,107.3,220.2z"/>
</g>
<g>
	<path class="st2" d="M55.8,220.2h-0.2c-0.6,0-1-0.4-1-1s0.4-1,1-1h0.2c0.6,0,1,0.4,1,1S56.4,220.2,55.8,220.2z"/>
</g>
<g>
	<path class="st2" d="M54.7,150.3h-0.2c-0.6,0-1-0.4-1-1s0.4-1,1-1h0.2c0.6,0,1,0.4,1,1S55.2,150.3,54.7,150.3z"/>
</g>
<g>
	<path class="st0" d="M679.6,254.3c-1.7-7.7-8.2-13.6-16.2-14.4c-2.8-8.6-10.9-14.7-20.4-14.7c-11.9,0-21.5,9.6-21.5,21.5
		c0,1.5,0.2,3,0.4,4.4c-6.5,1.3-11.4,7-11.4,13.9c0,0.2,0,0.5,0,0.7c0,0.2,0,0.5,0,0.7c0,7,5.8,12.8,12.8,12.8h52.2
		c7,0,12.8-5.8,12.8-12.8C688.3,260.8,684.7,256.1,679.6,254.3z"/>
	<path class="st2" d="M675.5,280.2h-52.2c-7.6,0-13.8-6.2-13.8-13.8c0-0.2,0-0.4,0-0.5l0-0.1l0-0.2c0-0.2,0-0.4,0-0.5
		c0-6.9,4.7-12.9,11.3-14.7c-0.2-1.2-0.3-2.4-0.3-3.6c0-12.4,10.1-22.5,22.5-22.5c9.5,0,17.9,5.9,21.1,14.8c8,1,14.4,6.7,16.4,14.5
		c5.3,2.1,8.8,7.2,8.8,12.9C689.3,274,683.1,280.2,675.5,280.2z M643,226.2c-11.3,0-20.5,9.2-20.5,20.5c0,1.4,0.1,2.8,0.4,4.2l0.2,1
		l-1,0.2c-6.2,1.2-10.6,6.7-10.6,12.9c0,0.1,0,0.3,0,0.4l0,0.3l0,0.3c0,0.1,0,0.3,0,0.4c0,6.5,5.3,11.8,11.8,11.8h52.2
		c6.5,0,11.8-5.3,11.8-11.8c0-5-3.2-9.5-8-11.2l-0.5-0.2l-0.1-0.6c-1.6-7.3-7.9-12.9-15.4-13.6l-0.7-0.1l-0.2-0.6
		C659.7,231.9,651.8,226.2,643,226.2z"/>
</g>
<g>
	<path class="st2" d="M656.8,240.3c-0.2,0-0.4-0.1-0.5-0.3c-1.6-4.8-6-8-11-8c-0.3,0-0.5-0.2-0.5-0.5s0.2-0.5,0.5-0.5
		c5.4,0,10.3,3.5,12,8.6c0.1,0.3-0.1,0.5-0.3,0.6C656.9,240.3,656.8,240.3,656.8,240.3z"/>
</g>
<g>
	<path class="st2" d="M675.3,274.8h-29.2c-0.3,0-0.5-0.2-0.5-0.5s0.2-0.5,0.5-0.5h29.2c3.7,0,6.7-2.8,6.9-6.3c0.2-3-1.7-5.7-4.5-6.7
		c-0.3-0.1-0.4-0.4-0.3-0.6c0.1-0.3,0.4-0.4,0.6-0.3c3.3,1.1,5.4,4.3,5.2,7.7C683,271.6,679.5,274.8,675.3,274.8z"/>
</g>
<g>
	<path class="st2" d="M642.8,274.8h-0.2c-0.3,0-0.5-0.2-0.5-0.5s0.2-0.5,0.5-0.5h0.2c0.3,0,0.5,0.2,0.5,0.5S643,274.8,642.8,274.8z"
		/>
</g>
<g>
	<path class="st2" d="M643.1,232h-0.2c-0.3,0-0.5-0.2-0.5-0.5s0.2-0.5,0.5-0.5h0.2c0.3,0,0.5,0.2,0.5,0.5S643.4,232,643.1,232z"/>
</g>
<g>
	<path class="st0" d="M1844,359.2c-64.4-2.1-116.4-54.9-117.5-119.3c-0.8-48.9,27.2-91.3,68.2-111.4c1.9-0.9,1.5-3.8-0.7-4.1
		c-5.9-0.8-11.9-1.2-18.1-1.2c-75.8,0-137.5,61-138.5,136.6c-1,76.8,61.4,140.3,138.2,140.4c37.8,0.1,72.1-15,97.1-39.5
		c1.5-1.5,0.2-4.1-1.9-3.7C1862.3,358.7,1853.3,359.5,1844,359.2z"/>
	<path class="st3" d="M1844,359.2c-64.4-2.1-116.4-54.9-117.5-119.3c-0.8-48.9,27.2-91.3,68.2-111.4c1.9-0.9,1.5-3.8-0.7-4.1
		c-5.9-0.8-11.9-1.2-18.1-1.2c-75.8,0-137.5,61-138.5,136.6c-1,76.8,61.4,140.3,138.2,140.4c37.8,0.1,72.1-15,97.1-39.5
		c1.5-1.5,0.2-4.1-1.9-3.7C1862.3,358.7,1853.3,359.5,1844,359.2z"/>
</g>
<path class="st4" d="M1665.4,192.4c-4.9-22.9-24.3-40.4-48.1-42.5c-8.4-25.3-32.3-43.6-60.5-43.6c-35.2,0-63.7,28.5-63.7,63.7
	c0,4.5,0.5,8.8,1.3,13c-19.3,3.8-33.9,20.8-33.9,41.2c0,0.7,0.1,1.4,0.1,2c0,0.7-0.1,1.3-0.1,2c0,20.9,17.1,38,38,38h154.6
	c20.9,0,38-17.1,38-38C1691,211.7,1680.3,197.6,1665.4,192.4z"/>
<g>
	<path class="st0" d="M1847.1,75.2l-9.3,3.9c-1.3,0.6-1.4,2.4-0.2,3.1l8.8,5c0.5,0.3,0.8,0.8,0.9,1.3l0.9,10
		c0.1,1.4,1.8,2.1,2.9,1.1l7.5-6.8c0.4-0.4,1-0.5,1.5-0.4l9.8,2.3c1.4,0.3,2.5-1.1,1.9-2.4l-4.2-9.2c-0.2-0.5-0.2-1.1,0.1-1.6
		l5.2-8.6c0.7-1.2-0.2-2.7-1.7-2.6l-10,1.1c-0.6,0.1-1.1-0.2-1.5-0.6l-6.6-7.6c-0.9-1.1-2.7-0.6-3,0.8l-2,9.9
		C1848,74.5,1847.7,75,1847.1,75.2z"/>
	<path class="st5" d="M1847.1,75.2l-9.3,3.9c-1.3,0.6-1.4,2.4-0.2,3.1l8.8,5c0.5,0.3,0.8,0.8,0.9,1.3l0.9,10
		c0.1,1.4,1.8,2.1,2.9,1.1l7.5-6.8c0.4-0.4,1-0.5,1.5-0.4l9.8,2.3c1.4,0.3,2.5-1.1,1.9-2.4l-4.2-9.2c-0.2-0.5-0.2-1.1,0.1-1.6
		l5.2-8.6c0.7-1.2-0.2-2.7-1.7-2.6l-10,1.1c-0.6,0.1-1.1-0.2-1.5-0.6l-6.6-7.6c-0.9-1.1-2.7-0.6-3,0.8l-2,9.9
		C1848,74.5,1847.7,75,1847.1,75.2z"/>
</g>
<g>
	<path class="st0" d="M1908.2,131.3l-9.7-2.8c-1.4-0.4-2.6,1-2.1,2.3l3.7,9.4c0.2,0.5,0.1,1.1-0.2,1.6l-5.6,8.4
		c-0.8,1.2,0.1,2.7,1.5,2.7l10.1-0.6c0.6,0,1.1,0.2,1.5,0.7l6.2,7.9c0.9,1.1,2.7,0.7,3-0.6l2.5-9.8c0.1-0.5,0.5-1,1.1-1.2l9.5-3.5
		c1.3-0.5,1.5-2.3,0.3-3.1l-8.5-5.4c-0.5-0.3-0.8-0.8-0.8-1.4l-0.4-10.1c-0.1-1.4-1.7-2.2-2.8-1.3l-7.8,6.4
		C1909.4,131.3,1908.8,131.4,1908.2,131.3z"/>
	<path class="st5" d="M1908.2,131.3l-9.7-2.8c-1.4-0.4-2.6,1-2.1,2.3l3.7,9.4c0.2,0.5,0.1,1.1-0.2,1.6l-5.6,8.4
		c-0.8,1.2,0.1,2.7,1.5,2.7l10.1-0.6c0.6,0,1.1,0.2,1.5,0.7l6.2,7.9c0.9,1.1,2.7,0.7,3-0.6l2.5-9.8c0.1-0.5,0.5-1,1.1-1.2l9.5-3.5
		c1.3-0.5,1.5-2.3,0.3-3.1l-8.5-5.4c-0.5-0.3-0.8-0.8-0.8-1.4l-0.4-10.1c-0.1-1.4-1.7-2.2-2.8-1.3l-7.8,6.4
		C1909.4,131.3,1908.8,131.4,1908.2,131.3z"/>
</g>
<g>
	<path class="st0" d="M1842.8,199.2l-5.7,5c-0.8,0.7-0.5,2,0.6,2.2l7.4,1.5c0.4,0.1,0.8,0.4,0.9,0.8l3,7c0.4,1,1.8,1.1,2.3,0.1
		l3.8-6.6c0.2-0.4,0.6-0.6,1-0.6l7.6-0.7c1.1-0.1,1.6-1.4,0.8-2.2l-5.1-5.6c-0.3-0.3-0.4-0.7-0.3-1.2l1.7-7.4c0.2-1-0.8-1.9-1.8-1.5
		l-6.9,3.1c-0.4,0.2-0.8,0.1-1.2-0.1l-6.5-3.9c-0.9-0.6-2.1,0.2-1.9,1.2l0.8,7.6C1843.2,198.5,1843.1,198.9,1842.8,199.2z"/>
	<path class="st6" d="M1842.8,199.2l-5.7,5c-0.8,0.7-0.5,2,0.6,2.2l7.4,1.5c0.4,0.1,0.8,0.4,0.9,0.8l3,7c0.4,1,1.8,1.1,2.3,0.1
		l3.8-6.6c0.2-0.4,0.6-0.6,1-0.6l7.6-0.7c1.1-0.1,1.6-1.4,0.8-2.2l-5.1-5.6c-0.3-0.3-0.4-0.7-0.3-1.2l1.7-7.4c0.2-1-0.8-1.9-1.8-1.5
		l-6.9,3.1c-0.4,0.2-0.8,0.1-1.2-0.1l-6.5-3.9c-0.9-0.6-2.1,0.2-1.9,1.2l0.8,7.6C1843.2,198.5,1843.1,198.9,1842.8,199.2z"/>
</g>
<g>
	<path class="st0" d="M1493.5,382.8l-0.2,8.8c0,1.2,1.3,2,2.3,1.2l6.7-5.2c0.4-0.3,0.9-0.4,1.3-0.2l7.9,2.9c1.1,0.4,2.2-0.7,1.8-1.9
		l-2.6-8.4c-0.1-0.5-0.1-1,0.2-1.4l5-7c0.7-1,0-2.4-1.1-2.4l-8.3,0.1c-0.5,0-0.9-0.2-1.2-0.6l-4.8-7.2c-0.7-1-2.2-0.8-2.5,0.4
		l-2.5,8.4c-0.1,0.5-0.5,0.8-0.9,1l-8,2.6c-1.1,0.4-1.4,1.9-0.4,2.6l6.8,5.1C1493.3,381.8,1493.5,382.3,1493.5,382.8z"/>
	<path class="st7" d="M1493.5,382.8l-0.2,8.8c0,1.2,1.3,2,2.3,1.2l6.7-5.2c0.4-0.3,0.9-0.4,1.3-0.2l7.9,2.9c1.1,0.4,2.2-0.7,1.8-1.9
		l-2.6-8.4c-0.1-0.5-0.1-1,0.2-1.4l5-7c0.7-1,0-2.4-1.1-2.4l-8.3,0.1c-0.5,0-0.9-0.2-1.2-0.6l-4.8-7.2c-0.7-1-2.2-0.8-2.5,0.4
		l-2.5,8.4c-0.1,0.5-0.5,0.8-0.9,1l-8,2.6c-1.1,0.4-1.4,1.9-0.4,2.6l6.8,5.1C1493.3,381.8,1493.5,382.3,1493.5,382.8z"/>
</g>
<g>
	<path class="st0" d="M1586,336.5l8.5,1.1c1.2,0.2,2.1-1.1,1.6-2.1l-4-7.3c-0.2-0.4-0.2-0.9,0-1.3l4.1-7.7c0.6-1.1-0.3-2.3-1.5-2
		l-8.6,1.8c-0.5,0.1-1,0-1.3-0.4l-6-5.8c-0.8-0.8-2.3-0.3-2.5,0.9l-1.3,8.4c-0.1,0.5-0.4,0.9-0.8,1.1l-7.8,4.1
		c-1.1,0.6-1.1,2.1,0,2.6l7.8,3.4c0.4,0.2,0.7,0.6,0.8,1l1.2,8.3c0.2,1.2,1.7,1.6,2.5,0.7l6.1-6.3
		C1585.1,336.6,1585.6,336.4,1586,336.5z"/>
	<path class="st7" d="M1586,336.5l8.5,1.1c1.2,0.2,2.1-1.1,1.6-2.1l-4-7.3c-0.2-0.4-0.2-0.9,0-1.3l4.1-7.7c0.6-1.1-0.3-2.3-1.5-2
		l-8.6,1.8c-0.5,0.1-1,0-1.3-0.4l-6-5.8c-0.8-0.8-2.3-0.3-2.5,0.9l-1.3,8.4c-0.1,0.5-0.4,0.9-0.8,1.1l-7.8,4.1
		c-1.1,0.6-1.1,2.1,0,2.6l7.8,3.4c0.4,0.2,0.7,0.6,0.8,1l1.2,8.3c0.2,1.2,1.7,1.6,2.5,0.7l6.1-6.3
		C1585.1,336.6,1585.6,336.4,1586,336.5z"/>
</g>
<g>
	<path class="st0" d="M1600.8,430.1l1.8,6.3c0.3,0.9,1.4,1.1,1.9,0.3l3.7-5.4c0.2-0.3,0.5-0.5,0.9-0.5l6.3,0.1c0.9,0,1.4-1,0.9-1.8
		l-3.7-5.3c-0.2-0.3-0.3-0.7-0.2-1l2-6.3c0.3-0.9-0.5-1.7-1.3-1.4l-6,2.1c-0.3,0.1-0.7,0.1-1-0.2l-5-4c-0.7-0.6-1.7,0-1.7,0.9
		l0.1,6.6c0,0.4-0.2,0.7-0.5,0.9l-5.2,3.8c-0.7,0.5-0.6,1.7,0.3,2l6,2C1600.5,429.5,1600.7,429.7,1600.8,430.1z"/>
	<path class="st8" d="M1600.8,430.1l1.8,6.3c0.3,0.9,1.4,1.1,1.9,0.3l3.7-5.4c0.2-0.3,0.5-0.5,0.9-0.5l6.3,0.1c0.9,0,1.4-1,0.9-1.8
		l-3.7-5.3c-0.2-0.3-0.3-0.7-0.2-1l2-6.3c0.3-0.9-0.5-1.7-1.3-1.4l-6,2.1c-0.3,0.1-0.7,0.1-1-0.2l-5-4c-0.7-0.6-1.7,0-1.7,0.9
		l0.1,6.6c0,0.4-0.2,0.7-0.5,0.9l-5.2,3.8c-0.7,0.5-0.6,1.7,0.3,2l6,2C1600.5,429.5,1600.7,429.7,1600.8,430.1z"/>
</g>
<path class="st4" d="M1597.7,149.3c-4.7-14.3-18.2-24.6-34.1-24.6"/>
<path class="st4" d="M1566,251.7h86.5c11.5,0,21.3-8.8,22-20.2c0.5-9.8-5.7-18.4-14.4-21.4"/>
<line class="st4" x1="1558.7" y1="251.7" x2="1559.1" y2="251.7"/>
<line class="st4" x1="1556.7" y1="124.7" x2="1557.1" y2="124.7"/>
<path class="st9" d="M1979.4,386.4c-4.9-22.9-24.3-40.4-48.1-42.5c-8.4-25.3-32.3-43.6-60.5-43.6c-35.2,0-63.7,28.5-63.7,63.7
	c0,4.5,0.5,8.8,1.3,13c-19.3,3.8-33.9,20.8-33.9,41.2c0,0.7,0.1,1.4,0.1,2c0,0.7-0.1,1.3-0.1,2c0,20.9,17.1,38,38,38h154.6
	c20.9,0,38-17.1,38-38C2005,405.7,1994.3,391.6,1979.4,386.4z"/>
<path class="st4" d="M1911.7,343.3c-4.7-14.3-18.2-24.6-34.1-24.6"/>
<path class="st4" d="M1880,445.7h86.5c11.5,0,21.3-8.8,22-20.2c0.5-9.8-5.7-18.4-14.4-21.4"/>
<line class="st4" x1="1870.7" y1="445.7" x2="1871.1" y2="445.7"/>
<line class="st4" x1="1868.7" y1="318.7" x2="1869.1" y2="318.7"/>
<path class="st9" d="M1509.4,248.6c-2.7-12.6-13.4-22.3-26.5-23.4c-4.6-14-17.8-24-33.3-24c-19.4,0-35.1,15.7-35.1,35.1
	c0,2.5,0.3,4.9,0.7,7.2c-10.6,2.1-18.7,11.5-18.7,22.7c0,0.4,0,0.7,0.1,1.1c0,0.4-0.1,0.7-0.1,1.1c0,11.5,9.4,20.9,20.9,20.9h85.2
	c11.5,0,20.9-9.4,20.9-20.9C1523.5,259.2,1517.6,251.4,1509.4,248.6z"/>
<path class="st10" d="M1472.1,224.8c-2.6-7.9-10-13.5-18.8-13.5"/>
<path class="st10" d="M1454.7,281.2h47.7c6.3,0,11.8-4.8,12.1-11.1c0.3-5.4-3.1-10.1-7.9-11.8"/>
<line class="st10" x1="1450.6" y1="281.2" x2="1450.8" y2="281.2"/>
<line class="st10" x1="1449.5" y1="211.3" x2="1449.7" y2="211.3"/>
<path class="st11" d="M2074.7,316.3c-1.7-7.7-8.2-13.6-16.2-14.4c-2.8-8.6-10.9-14.7-20.4-14.7c-11.9,0-21.5,9.6-21.5,21.5
	c0,1.5,0.2,3,0.4,4.4c-6.5,1.3-11.4,7-11.4,13.9c0,0.2,0,0.5,0,0.7c0,0.2,0,0.5,0,0.7c0,7,5.8,12.8,12.8,12.8h52.2
	c7,0,12.8-5.8,12.8-12.8C2083.3,322.8,2079.7,318.1,2074.7,316.3z"/>
<path class="st12" d="M2051.8,301.8c-1.6-4.8-6.1-8.3-11.5-8.3"/>
<path class="st12" d="M2041.1,336.3h29.2c3.9,0,7.2-3,7.4-6.8c0.2-3.3-1.9-6.2-4.9-7.2"/>
<line class="st12" x1="2037.7" y1="336.3" x2="2037.8" y2="336.3"/>
<line class="st12" x1="2038" y1="293.5" x2="2038.1" y2="293.5"/>
</svg>
