<svg xmlns="http://www.w3.org/2000/svg" xmlns:xlink="http://www.w3.org/1999/xlink" width="128" height="12" viewBox="0 0 128 12">
  <defs>
    <polygon id="david_jones-a" points="0 .375 0 11.299 11.526 11.299 11.526 .375"/>
    <polygon id="david_jones-c" points="8.075 .14 8.075 11.436 .187 11.436 .187 .14 8.075 .14"/>
    <polygon id="david_jones-e" points="8.069 11.586 .282 11.586 .282 .411 8.069 .411"/>
  </defs>
  <g fill="none" fill-rule="evenodd">
    <g transform="translate(0 .274)">
      <mask id="david_jones-b" fill="#fff">
        <use xlink:href="#david_jones-a"/>
      </mask>
      <path fill="#2F1945" d="M3.46487811,5.83870345 C3.46487811,7.19470345 3.46315421,8.55111724 3.46574007,9.90670345 C3.46660202,10.6060138 3.54891852,10.6842207 4.25658182,10.6867034 C4.63584108,10.6879448 5.01466936,10.6871172 5.39349764,10.6871172 C7.0911138,10.6867034 8.20906667,9.98615172 8.80338316,8.46215172 C9.51320135,6.64104828 9.50587475,4.79346207 8.74778721,2.99304828 C8.18579394,1.65773793 7.11223165,0.948082759 5.57105993,0.969186207 C5.1237064,0.975393103 4.67549091,0.969186207 4.2277064,0.970427586 C3.54590168,0.972082759 3.46746397,1.04573793 3.46574007,1.72063448 C3.46272323,3.09318621 3.46487811,4.46615172 3.46487811,5.83870345 L3.46487811,5.83870345 Z M-0.000172390572,0.37497931 C1.84095892,0.380358621 3.68209024,0.37622069 5.52322155,0.394427586 C7.15619125,0.41097931 8.66460875,0.808634483 9.867033,1.92835862 C11.5344808,3.48173793 11.8258209,5.4096 11.2672754,7.46325517 C10.7121778,9.50242759 9.18005657,10.6225655 7.10145724,11.083531 C6.55411717,11.2047724 5.97703973,11.2349793 5.41289158,11.2420138 C3.79543704,11.2618759 2.17755152,11.2473931 0.559665993,11.2511172 C0.373053199,11.251531 0.186440404,11.2821517 -0.000172390572,11.2987034 L-0.000172390572,10.8021517 C0.136016162,10.8038069 0.273066667,10.8133241 0.408824242,10.8058759 C1.34318114,10.7508414 1.39662222,10.6966345 1.39662222,9.81525517 L1.39662222,2.37732414 C1.39662222,1.02753103 1.39662222,1.02753103 0.0502518519,0.78422069 C0.0330127946,0.780910345 0.0166356902,0.776358621 -0.000172390572,0.77222069 L-0.000172390572,0.37497931 Z" mask="url(#david_jones-b)"/>
    </g>
    <path fill="#2F1945" d="M51.0101549 6.09893793C51.0101549 7.48804138 51.0058451 8.87755862 51.0123098 10.2670759 51.0148956 10.8439034 51.1416027 10.9560414 51.7466936 10.9601793 52.2117172 10.9634897 52.6767407 10.9614207 53.1417643 10.9605931 54.4911515 10.9589379 55.524633 10.3920414 56.1111919 9.23962759 57.1369158 7.22445517 57.115367 5.1468 56.2245387 3.09769655 55.7702896 2.05493793 54.8979933 1.41066207 53.7076364 1.27328276 53.129697 1.20666207 52.5379663 1.2468 51.9527003 1.24514483 51.0605791 1.24224828 51.0105859 1.29066207 51.0101549 2.1290069 51.0092929 3.45231724 51.0097239 4.77562759 51.0101549 6.09893793M47.6455219.584317241C49.9934815.668317241 52.3573872.563213793 54.6575084.883075862 57.6019394 1.29190345 59.2590438 3.65507586 59.0526061 6.62611034 58.8685791 9.27976552 56.6994747 11.3412828 53.8339125 11.4691448 51.8742626 11.5564552 49.9077172 11.5134207 47.9446195 11.5138345 47.8196364 11.5138345 47.6942222 11.3839034 47.5688081 11.3148 47.6946532 11.2378345 47.8136027 11.1083172 47.9480673 11.0917655 48.9612929 10.9680414 48.9759461 10.9610069 48.9759461 10.0076276 48.9763771 7.3610069 48.9772391 4.71438621 48.9755152 2.06817931 48.9750842 1.27286897 48.9181953 1.22404138 48.0799461 1.12473103 47.844202 1.0965931 47.4563232 1.17811034 47.6455219.584317241M86.080431 6.14904828C85.8343434 5.06077241 85.7059125 4.01718621 85.3533737 3.04891034 84.8676633 1.71318621 83.775569 1.06435862 82.4335084 1.09704828 81.069468 1.12973793 80.0303838 1.80711724 79.5670842 3.1358069 79.2921212 3.92449655 79.1369697 4.77153103 79.0688754 5.60284138 78.966303 6.86242759 79.0960269 8.11911724 79.6528485 9.29097931 80.192431 10.4264276 81.0957576 11.0764966 82.4330774 11.0926345 83.7876364 11.1091862 84.8086195 10.5232552 85.2684714 9.32822069 85.6615219 8.30615172 85.8214141 7.20091034 86.080431 6.14904828M82.5153939.533462069C85.6373872.547531034 88.1948013 3.08035862 88.1775623 6.14035862 88.1603232 9.16270345 85.5710168 11.6760828 82.4800539 11.6719448 79.3852121 11.6669793 76.7381549 9.07663448 76.7674613 6.08118621 76.7963367 3.03856552 79.40633.519806897 82.5153939.533462069M99.3409293.666289655C100.385616.666289655 101.433751.662151724 102.482316.673324138 102.572391.674151724 102.661172.773462069 102.750384.827255172 102.674963.915393103 102.599973 1.00394483 102.522828 1.09042759 102.514209 1.09994483 102.489643 1.09415172 102.472835 1.09787586 101.347987 1.35153103 101.347987 1.35153103 101.347987 2.46422069L101.347987 10.8993931 101.347987 11.4340138C100.940714 11.6425655 100.736431 11.4393931 100.518788 11.1658759 98.3139125 8.39304828 96.0995556 5.62684138 93.8877845 2.8598069 93.7942626 2.74311724 93.6942761 2.6313931 93.5421414 2.4513931 93.5257643 2.65787586 93.5059394 2.79442759 93.5055084 2.93056552 93.5037845 5.37856552 93.5037845 7.82656552 93.5046465 10.2745655 93.5046465 10.8969103 93.6141145 10.9908414 94.2713535 11.0764966 94.5032189 11.1067034 94.8885118 10.9296 94.8962694 11.3537379 94.8971313 11.4067034 94.4760673 11.5105655 94.2489428 11.515531 93.3227744 11.5341517 92.3961751 11.5229793 91.4695758 11.5229793 91.4398384 11.4712552 91.410101 11.4199448 91.3795017 11.3682207 91.4984512 11.275531 91.6053333 11.1220138 91.7363502 11.0992552 92.8314613 10.9113931 92.8323232 10.9184276 92.8323232 9.84546207 92.8323232 7.2153931 92.8331852 4.58573793 92.8318923 1.95525517 92.8314613 1.27787586 92.7543165 1.21746207 92.0444983 1.12684138 91.8018586 1.09622069 91.3471785 1.25511724 91.4605253.667117241 92.5099529.667117241 93.5576566.649737931 94.6036364.684082759 94.7734411.689875862 94.9699663.8976 95.0962424 1.05442759 96.8434209 3.22642759 98.5798249 5.40670345 100.319677 7.58449655 100.392512 7.67553103 100.469226 7.76408276 100.632135 7.9593931 100.643771 7.69291034 100.657993 7.52987586 100.658424 7.36642759 100.659717 5.59663448 100.659286 3.82725517 100.659286 2.05704828 100.659286 1.2278069 100.64765 1.21622069 99.7809562 1.12891034 99.31033 1.08173793 99.31033 1.08173793 99.3409293.666289655M115.189872 11.5231034L113.305643 11.5231034 106.427259 11.5231034C106.306586 11.5231034 106.178155 11.5475172 106.067394 11.5148276 105.958788 11.4837931 105.868283 11.3948276 105.77002 11.3315172 105.857508 11.252069 105.932498 11.1233793 106.033347 11.1010345 107.174141 10.8515172 107.175434 10.8556552 107.175434 9.73055172 107.175434 7.13193103 107.176296 4.53289655 107.174572 1.93468966 107.174141 1.30241379 107.072431 1.21924138 106.409589 1.13027586 106.188067 1.10089655 105.795448.954 105.800189.878689655 105.825185.469862069 106.196687.678 106.403125.676344828 109.126896.659793103 111.850667.67262069 114.574438.657724138 115.000673.655241379 115.216162.718965517 115.261414 1.19648276 115.336404 1.98351724 115.513104 2.76144828 115.648862 3.55510345 115.370451 3.7677931 115.219178 3.73510345 115.089455 3.40282759 114.920512 2.97165517 114.711057 2.55206897 114.482209 2.14696552 114.139582 1.53951724 113.573279 1.25606897 112.866047 1.2482069 111.849374 1.23662069 110.832269 1.25193103 109.814734 1.24075862 109.423407 1.23662069 109.231192 1.4042069 109.23033 1.76917241 109.22602 3.00806897 109.228606 4.24696552 109.228606 5.502 110.303892 5.502 111.346855 5.53262069 112.383785 5.47468966 112.579448 5.46351724 112.817778 5.12586207 112.921212 4.89206897 113.05266 4.59496552 113.054815 4.24696552 113.139717 3.92751724 113.160404 3.84931034 113.287542 3.79758621 113.36598 3.73427586 113.415973 3.80544828 113.509926 3.87662069 113.510357 3.9477931 113.518976 5.20572414 113.520269 6.46365517 113.509495 7.72158621 113.508633 7.806 113.398734 7.88917241 113.339259 7.97317241 113.268148 7.89910345 113.156956 7.8357931 113.133684 7.75013793 113.05697 7.46255172 113.013872 7.16751724 112.952673 6.8762069 112.85829 6.42682759 112.576431 6.17524138 112.092875 6.17193103 111.163259 6.16531034 110.233643 6.16986207 109.226451 6.16986207L109.226451 7.35993103C109.226451 8.33689655 109.22171 9.31344828 109.228175 10.29 109.232054 10.8407586 109.357899 10.9628276 109.931529 10.9586897 111.068444 10.9504138 112.205791 10.952069 113.340983 10.9065517 114.137428 10.8746897 114.686492 10.436069 115.015758 9.75537931 115.225643 9.32213793 115.38769 8.86737931 115.597576 8.43413793 115.644983 8.33772414 115.804013 8.29096552 115.911327 8.22144828 115.955286 8.3277931 116.059152 8.4482069 116.035017 8.53758621 115.76738 9.52655172 115.479919 10.5105517 115.189872 11.5231034M16.8093737 7.88991724L20.4912054 7.88991724C19.858101 6.44081379 19.2439596 5.03433103 18.5862896 3.52688276 17.9730101 5.03226207 17.4062761 6.42426207 16.8093737 7.88991724M20.4278519 11.3715724C20.535165 11.2780552 20.6299798 11.1655034 20.7523771 11.098469 20.8342626 11.0537793 20.954936 11.0777793 21.0570774 11.0653655 21.7186263 10.9842621 21.7944781 10.8609517 21.5393401 10.2746069 21.3333333 9.80246897 21.1122424 9.33612414 20.9208889 8.85943448 20.8230572 8.61571034 20.7010909 8.4981931 20.4011313 8.50274483 19.2301684 8.52136552 18.0583434 8.50026207 16.8878114 8.52343448 16.7348148 8.52633103 16.512 8.67157241 16.4473535 8.80646897 16.182303 9.36053793 15.9793131 9.94191724 15.725468 10.5017793 15.5681616 10.8485379 15.6952997 10.9979172 16.0452525 11.0405379 16.2667744 11.0678483 16.4951919 11.0612276 16.7106801 11.1112966 16.7895488 11.1299172 16.8671246 11.2615034 16.8882424 11.3533655 16.896862 11.3935034 16.7619663 11.5118483 16.6912862 11.5126759 15.7612391 11.5234345 14.8311919 11.5242621 13.9011448 11.5106069 13.8252929 11.5093655 13.7171178 11.3918483 13.6899663 11.3086759 13.6748822 11.2619172 13.7834882 11.1485379 13.859771 11.1129517 13.9472593 11.0719862 14.061899 11.0736414 14.1640404 11.0752966 14.6639731 11.0835724 14.9255758 10.8377793 15.1052929 10.3962621 16.3615892 7.30564138 17.6364175 4.22246897 18.9164175 1.14053793 18.9896835.964675862 19.1590572.825227586 19.2836094.6684 19.4292795.824813793 19.6305455.958055172 19.711569 1.14053793 21.0618182 4.17695172 22.4038788 7.21667586 23.7287003 10.2630207 23.9579798 10.7914345 24.2592323 11.1311586 24.9061279 11.098469 25.0268013 11.0926759 25.1565253 11.2453655 25.2819394 11.3256414 25.1509226 11.3914345 25.0211987 11.5130897 24.8897508 11.514331 23.4442559 11.5279862 21.99833 11.5226069 20.552835 11.5226069 20.5110303 11.4725379 20.4696566 11.4220552 20.4278519 11.3715724"/>
    <g transform="translate(119.811 .274)">
      <mask id="david_jones-d" fill="#fff">
        <use xlink:href="#david_jones-c"/>
      </mask>
      <path fill="#2F1945" d="M7.37211044,3.66670345 C7.28376027,3.55704828 7.16567273,3.4593931 7.11266263,3.33566897 C6.99586801,3.06091034 6.91312054,2.77291034 6.81399596,2.49111724 C6.18477037,0.70022069 3.4743596,0.0882206897 2.07497912,1.42022069 C1.37162559,2.08973793 1.42291178,3.14904828 2.28314074,3.63442759 C3.01752458,4.0478069 3.84629226,4.30684138 4.63756498,4.62463448 C5.19223165,4.84766897 5.75724175,5.04711724 6.31147744,5.27097931 C8.77235286,6.26491034 8.39912727,9.50573793 6.77132929,10.6333241 C5.30299259,11.6500138 2.9110734,11.7240828 1.41429226,10.7247724 C1.26043367,10.6221517 1.10614411,10.5207724 0.922117172,10.399531 C0.726884848,10.7160828 0.547167677,11.0065655 0.367450505,11.2970483 C0.307544781,11.2718069 0.247639057,11.2461517 0.187302357,11.2204966 L0.187302357,7.86132414 C0.235571717,7.84311724 0.283841077,7.82449655 0.332110438,7.80628966 C0.417012795,7.9896 0.521309091,8.16753103 0.58423165,8.35787586 C1.14665589,10.0552552 1.99654141,10.7322207 3.85017104,10.8638069 C4.67505993,10.9217379 5.46116094,10.7409103 6.13219125,10.2331862 C7.24411044,9.39111724 7.13852121,7.9536 5.88007003,7.3478069 C5.19180067,7.01594483 4.44319461,6.80077241 3.72648081,6.52228966 C3.16922828,6.30628966 2.60163232,6.1056 2.06937643,5.84035862 C0.887639057,5.25194483 0.372191246,4.29318621 0.483814141,3.0216 C0.589403367,1.81953103 1.23500606,0.951806897 2.37795556,0.510289655 C3.79328215,-0.0363310345 5.20257508,-0.0297103448 6.50067609,0.881462069 C6.60755825,0.956358621 6.72952458,1.01222069 6.8480431,1.07925517 C7.07258182,0.817737931 7.27686465,0.57897931 7.55182761,0.258703448 L7.55182761,3.5856 C7.49192189,3.61249655 7.43244714,3.6398069 7.37211044,3.66670345" mask="url(#david_jones-d)"/>
    </g>
    <g transform="translate(65.508 .274)">
      <mask id="david_jones-f" fill="#fff">
        <use xlink:href="#david_jones-e"/>
      </mask>
      <path fill="#2F1945" d="M3.18435556,0.410896552 L7.96474613,0.410896552 C7.99965522,0.451448276 8.03456431,0.492 8.0694734,0.532965517 C7.95009293,0.631862069 7.84364175,0.793655172 7.70831515,0.819310345 C6.60372256,1.03365517 6.60199865,1.0257931 6.60199865,2.13517241 C6.60199865,4.38496552 6.60329158,6.63475862 6.60199865,8.88496552 C6.60070572,10.5107586 5.48361481,11.6052414 3.78298182,11.5862069 C3.0684229,11.577931 2.33834882,11.5245517 1.64835556,11.3627586 C1.0368,11.2191724 0.551951515,10.8182069 0.355857239,10.1863448 C0.149419529,9.52096552 0.386025589,8.88165517 0.948880808,8.59944828 C1.54923098,8.29862069 2.2930963,8.44344828 2.67106263,8.93544828 C3.06411313,9.44689655 3.0080862,10.1561379 2.52582357,10.6609655 C2.46936566,10.7201379 2.37498182,10.7453793 2.27671919,10.797931 C3.27011987,11.3925517 4.18508283,11.0697931 4.43461818,10.0928276 C4.53201886,9.71255172 4.56089428,9.30827586 4.56261818,8.91475862 C4.57425455,6.516 4.56994478,4.11724138 4.56735892,1.71848276 C4.56649697,1.01131034 4.48374949,0.944689655 3.75108956,0.853241379 C3.51663838,0.824275862 3.10290101,0.955448276 3.18435556,0.410896552" mask="url(#david_jones-f)"/>
    </g>
    <path fill="#2F1945" d="M31.9945697 8.65121379C32.9797818 6.24583448 33.9141387 3.95590345 34.8571152 1.66969655 34.9976135 1.32831724 34.8894384 1.17314483 34.5209535 1.14376552 34.2640916 1.12390345 34.0046438 1.10445517 33.7533845 1.05314483 33.6702061 1.03617931 33.6085764.920317241 33.5370343.849972414 33.6197818.789144828 33.7012364.676593103 33.7839838.675351724 34.7834182.662937931 35.7824215.662937931 36.7809939.674524138 36.8676202.675351724 36.9525226.780041379 37.0382869.836317241 36.9572633.913696552 36.8689131 1.06390345 36.7960781 1.05728276 35.7824215.967903448 35.5303003 1.64031724 35.2363744 2.37107586 34.0675663 5.28086897 32.8582465 8.1770069 31.6519434 11.0735586 31.586004 11.2316276 31.4166303 11.3499724 31.2950949 11.4873517 31.1563205 11.3495586 30.9606572 11.2345241 30.8869603 11.0698345 29.5548121 8.07976552 28.222233 5.09011034 26.9293037 2.08431724 26.6560646 1.44914483 26.3164552 1.04114483 25.5514721 1.07052414 25.4230411 1.07507586 25.2890074.942248276 25.1579906.872731034 25.3015057.803627586 25.4445899.676593103 25.588967.674937931 27.0012768.660041379 28.4135865.660455172 29.8263273.674524138 29.9560512.675765517 30.0840512.796593103 30.2129131.861972414 30.0887919.938110345 29.9698424 1.07093793 29.8392566 1.08169655 28.4872835 1.19714483 28.8342195 1.42969655 29.1923609 2.25935172 30.0284552 4.19507586 30.8835125 6.1245931 31.7308121 8.05617931 31.8027852 8.22004138 31.8760512 8.38390345 31.9945697 8.65121379M41.0639946 6.06256552C41.0639946 4.67222069 41.0648566 3.28187586 41.0631327 1.89153103 41.0627017 1.32008276 40.9441832 1.22242759 40.3602101 1.13387586 40.1106747 1.0958069 39.8788094.949737931 39.6391865.852496552 39.8757926.790427586 40.1119677.677462069 40.3494357.674151724 41.5906478.655944828 42.8318599.658013793 44.0726411.674565517 44.2351192.676634483 44.3958734.802841379 44.5574896.871531034 44.3963044.956358621 44.2433077 1.06104828 44.0722101 1.1198069 43.9472269 1.16284138 43.7981091 1.13553103 43.6627825 1.15787586 43.3188633 1.2158069 43.123631 1.37097931 43.1253549 1.75497931 43.1374222 4.65153103 43.1382842 7.54808276 43.1257859 10.4442207 43.123631 10.9697379 43.4878061 10.9945655 43.8696512 11.0727724 44.1071192 11.1220138 44.3286411 11.239531 44.5574896 11.3260138 44.3230384 11.3918069 44.0890182 11.5105655 43.8528431 11.5142897 42.5948229 11.5333241 41.3359407 11.5296 40.0779205 11.5138759 39.9300956 11.5122207 39.7844256 11.3872552 39.6378936 11.3198069 39.7827017 11.2399448 39.9214761 11.1067034 40.0740418 11.0889103 41.0510653 10.975531 41.0639946 10.9709793 41.0639946 10.0349793L41.0639946 6.06256552z"/>
  </g>
</svg>
