<svg xmlns="http://www.w3.org/2000/svg" width="137" height="19" viewBox="0 0 137 19">
  <g fill="#2F1945" fill-rule="evenodd">
    <path d="M3.27578378.509158537L3.27578378 17.4857927C5.332 17.7092561 5.40140541 17.6491098 5.40140541 15.7110366 5.40183784 11.2520854 5.40183784 6.79291463 5.40162162 2.33396341 5.40140541.38754878 5.31102703.306329268 3.27578378.509158537L3.27578378.509158537zM.000108108108.000109756098C1.69113514.0137195122 3.38259459.0185487805 5.07362162.0435731707 7.06691892.0729878049 7.90713514.906914634 7.91513514 2.91896341 7.93113514 7.01286585 7.92962162 11.1069878 7.91513514 15.2011098 7.90864865 17.0649878 7.12054054 17.8712561 5.28443243 17.9184512 3.52356757 17.9636707 1.76162162 17.9742073.000108108108 18.0001098L.000108108108 17.5610854C.524 17.6506463.687675676 17.410939.686378378 16.8935488.674702703 11.6331585.674918919 6.37276829.685945946 1.11237805.687027027.598060976.522702703.3555.000108108108.439134146L.000108108108.000109756098zM50.9981222 14.948191L48.6961035 14.948191C49.0948307 14.1807765 49.2390068 5.07384735 48.8411142 3.36678873 48.2109958 7.34122938 47.6142611 11.1034998 47.0206562 14.8466079 46.0276981 15.1836792 45.5377915 15.026918 45.3836002 13.7502025 44.9978092 10.5533347 44.4526107 7.38001567 43.967503 4.19792357 43.9468468 4.06124807 43.8890512 3.93172955 43.8141464 3.68700652 43.4364926 5.74060219 43.6048719 14.2124058 44.0357311 14.9403414L43 14.9403414C43.2637317 9.99508911 43.0555005 5.04591199 43.1354129.0247031745L45.3462522.0247031745C45.8557717 3.64544977 46.3615357 7.24033884 46.8860779 10.9677477 47.5326796 9.43384222 48.6848365.736708691 48.35392 0L51 0C50.9943665 4.96302937 50.9970789 9.90458776 50.9981222 14.948191M26.8559048 7.60260689C26.8559048 5.60260078 26.8604788 3.60236796 26.8531604 1.60258856 26.8511021.990253881 26.8712277.262978932 26.0076561.279301811 25.2037753.294491157 25.1221293.965542855 25.122358 1.60848293 25.1244163 5.57086184 25.1219006 9.53324076 25.1289903 13.495393 25.1299051 14.070321 25.1283042 14.7005655 25.9411044 14.7370653 26.8419541 14.7774191 26.8499586 14.1118084 26.8522456 13.4892719 26.859564 11.5271258 26.85499 9.56475298 26.8559048 7.60260689M28.9899054 7.73432345C28.9912776 9.32058992 29.0047709 10.9070831 28.9876184 12.4933496 28.9706945 14.08347 28.251204 14.8476982 26.6471016 14.9737471 26.1185757 15.0152344 25.5790721 15.0068462 25.0512323 14.9535702 23.7817181 14.8257076 23.0876133 14.2813849 23.062685 13.0437933 22.9899584 9.4597878 22.96503 5.87124816 23.0732052 2.28905631 23.122147.673544684 24.3889168-.100431836 26.2656298.0104277182 27.9102122.107458167 28.9405061 1.06642732 28.978699 2.63523737 29.0200938 4.33417704 28.9880758 6.03447695 28.9899054 7.73432345M133.930607 17.1167268L136.527572 17.1167268C136.563779 16.292678 136.599572 15.482678 136.635159 14.6728976 136.688745 14.6744341 136.742331 14.6759707 136.795917 14.6777268L136.795917 17.8501171 131.057021 17.8501171C131.193366 17.4312878 131.417641 17.0603122 131.419297 16.688239 131.442883 11.567678 131.443503 6.44689756 131.420124 1.32611707 131.418262.950531707 131.189021.57582439 131.041297.127360976L136.802745.127360976 136.802745 3.31950732C136.735503 3.31994634 136.668262 3.32060488 136.601021 3.3210439L136.601021.911019512 133.908883.911019512 133.908883 8.3970439 136.5224 8.3970439C136.562952 7.93123902 136.600193 7.50494634 136.637228 7.07865366 136.686262 7.07733659 136.735503 7.07601951 136.784331 7.07470244L136.784331 10.5739463C136.743779 10.5842634 136.703228 10.594361 136.662676 10.6044585 136.614883 10.1753122 136.566883 9.74616585 136.513503 9.26719024L133.930607 9.26719024 133.930607 17.1167268zM122 18.4165L15 18.4165 15 18 121.987799 18C121.991866 18.1385 121.995933 18.2775 122 18.4165M109.030874.0678712725C111.308253-.109009739 111.296341-.106700587 111.793485 2.22484977 112.451805 5.31241635 113.129573 8.39605738 113.806126 11.4801602 113.844779 11.6570412 113.947368 11.820991 114.100766 12.1800641L114.100766.11474705 115 .11474705 115 14.9819886 112.486326 14.9819886C111.625744 11.1603427 110.759815 7.31421986 109.836757 3.21455214L109.836757 15 109 15C109.08071 10.0616484 109.015072 5.10967284 109.030874.0678712725M68.9674312 2.39787392L68.7020642 2.38487606C68.315367 4.84936403 67.9288991 7.3133878 67.5323394 9.84054405L70.0066514 9.84054405C69.6495413 7.28298208 69.3084862 4.84031195 68.9674312 2.39787392M73 15L70.6577982 15C70.4821101 13.4945687 70.3105505 12.0251137 70.1254587 10.43891 69.3582569 10.43891 68.6784404 10.4094327 68.0038991 10.4560858 67.7908257 10.4707084 67.4428899 10.6577848 67.4094037 10.8193297 67.1605505 12.0241853 66.9639908 13.2408783 66.7869266 14.459196 66.7683486 14.5863894 66.9823394 14.7483985 67.1493119 14.9779501L66 14.9779501C66.8555046 10.055473 67.7197248 5.08170086 68.6027523 0L70.775 0C71.3412844 5.0587225 72.146789 10.0259957 73 15M87 .0452669828L89.0010556.0452669828C89.5506175 2.62525405 90.0915233 5.16505512 90.632429 7.70508715 90.7301805 7.70716573 90.8281431 7.70947527 90.9261058 7.71178481 91.3996622 5.20270062 91.8732186 2.69361643 92.346775.184763195 92.2483902.13880335 92.1500053.0930744596 92.0516204.0471146148 92.4257363.0284073413 92.7996411.00993102174 93 0 92.2331891 4.96943709 90.410113 9.76727536 91.2877652 15L88.9223055 15C89.8829304 9.7404847 87.9065766 4.9929944 87 .0452669828"/>
  </g>
</svg>
