<svg xmlns="http://www.w3.org/2000/svg" width="42" height="43" viewBox="0 0 42 43">
  <g fill="none" fill-rule="evenodd" transform="rotate(-180 21 21.662)">
    <path fill="#472E8C" d="M11.5438537,42.3948337 C10.9420244,42.3948337 10.2556829,41.9432275 9.44590244,41.0133018 C9.24460976,40.7814504 8.99721951,40.5974814 8.70885366,40.4634108 C8.47887805,41.4003928 7.61326829,42.0944349 6.60782927,42.0944349 L2.41909756,42.0944349 C1.22619512,42.0944349 0.256097561,41.139812 0.256097561,39.9659383 L0.256097561,20.5594727 C0.256097561,19.385599 1.22619512,18.4304721 2.41909756,18.4304721 L6.60782927,18.4304721 C7.78741463,18.4304721 8.74931707,19.36443 8.77031707,20.5206628 C9.85360976,20.464212 11.5663902,20.0937538 12.5682439,18.4511371 C14.2057317,15.7646851 17.514,12.8065637 19.490561,11.0394529 L19.6462683,10.899838 C19.9115854,10.6619383 20.1466829,10.451256 20.3413171,10.2718232 C21.8415366,8.89129932 23.6009268,6.26936248 23.9174634,3.7749439 C24.1146585,2.22103554 25.1887317,1.08798786 26.7196829,0.817326563 C26.9506829,0.777004582 27.1873171,0.756339567 27.423439,0.756339567 C29.0056098,0.756339567 30.5145366,1.67568074 31.2659268,3.09904669 C32.8055854,6.01331789 32.8854878,10.777864 29.4220244,14.3503916 C28.439122,15.3639854 28.2962195,15.8423049 28.2757317,15.9778876 C28.3750976,16.0424027 28.788439,16.2389724 30.1431951,16.2389724 L37.2867805,16.2389724 C39.708439,16.2389724 41.6778293,18.1774516 41.6778293,20.5594727 C41.6778293,21.8149984 41.139,22.9787916 40.1873415,23.800856 C41.1261951,24.534716 41.6778293,25.6465947 41.6778293,26.8360931 C41.6778293,28.0880907 41.0800976,29.2362591 40.062878,29.967095 C40.779439,30.6903705 41.1845854,31.6601142 41.1845854,32.673204 C41.1845854,34.1424362 40.3548293,35.462477 39.0436098,36.1247656 C39.585,36.804695 39.8795122,37.639864 39.8795122,38.5113228 C39.8795122,40.650908 38.1109024,42.3918095 35.9366341,42.3918095 L11.6135122,42.3918095 C11.6048049,42.3933216 11.5750976,42.3948337 11.5438537,42.3948337"/>
    <path fill="#472E8C" d="M27.4231317,0.503923963 C27.1721561,0.503923963 26.9201561,0.526101053 26.6743024,0.569447183 C25.0286195,0.860269474 23.8746439,2.07648124 23.6631073,3.74379517 C23.3547659,6.17521065 21.6337902,8.73666452 20.1668634,10.0879549 C19.9753024,10.2638596 19.7453268,10.4700057 19.4866683,10.7018571 L19.3176439,10.8535685 C17.3313512,12.6292478 14.0066927,15.6019859 12.3482049,18.3217035 C11.4800341,19.7460775 10.0325707,20.1533295 9.0066439,20.2506063 C8.85247317,19.083285 7.83525366,18.1785605 6.60752195,18.1785605 L2.41930244,18.1785605 C1.08503415,18.1785605 -0.000307317073,19.246589 -0.000307317073,20.5595735 L-0.000307317073,39.9655351 C-0.000307317073,41.2785196 1.08503415,42.3465481 2.41930244,42.3465481 L6.60752195,42.3465481 C7.61808293,42.3465481 8.50110732,41.7210534 8.85759512,40.8344738 C9.00510732,40.9307425 9.13674146,41.0451562 9.25147317,41.1772107 C10.1129854,42.1661072 10.862839,42.6469469 11.5440585,42.6469469 C11.574278,42.6469469 11.6039854,42.6459388 11.6331805,42.6439227 L35.9363268,42.6439227 C38.251961,42.6439227 40.1353024,40.7901196 40.1353024,38.5114237 C40.1353024,37.6823029 39.884839,36.8834237 39.420278,36.2060144 C40.6654244,35.4645939 41.4403756,34.1385048 41.4403756,32.6733048 C41.4403756,31.6879363 41.0813268,30.7418819 40.4380098,29.9979413 C41.3840341,29.218215 41.9336195,28.0750868 41.9336195,26.8361939 C41.9336195,25.6673605 41.4337171,24.5690905 40.5716927,23.7923884 C41.4444732,22.9385704 41.9341317,21.790906 41.9341317,20.5595735 C41.9341317,18.0384416 39.8494976,15.9870608 37.2869854,15.9870608 L30.1434,15.9870608 C29.2547415,15.9870608 28.8050341,15.9028887 28.5904244,15.8383735 C28.6897902,15.624163 28.9464,15.2058224 29.6071317,14.5243809 C33.1571561,10.862137 33.0736683,5.97410477 31.4935463,2.98271777 C30.6981073,1.47719579 29.1000585,0.503923963 27.4231317,0.503923963 M27.4231317,1.00794873 C28.8941561,1.00794873 30.3195951,1.85370229 31.0392293,3.21507319 C32.5374,6.05222861 32.6137171,10.6927846 29.2368146,14.1766038 C27.8441561,15.6120664 28.0229122,16.0752651 28.0254732,16.0798014 C28.0434,16.1221394 28.258522,16.4910856 30.1434,16.4910856 L37.2869854,16.4910856 C39.567278,16.4910856 41.4219366,18.3161593 41.4219366,20.5595735 C41.4219366,21.8871747 40.7714488,23.0686088 39.7680585,23.8120453 C40.7637659,24.4617333 41.4214244,25.5746199 41.4214244,26.8361939 C41.4214244,28.1461543 40.7125463,29.2958348 39.6543512,29.9329221 C40.4328878,30.5992428 40.9281805,31.580075 40.9281805,32.6733048 C40.9281805,34.1919314 39.9760098,35.4943314 38.6284244,36.03515 C39.2456195,36.6838298 39.6231073,37.5547846 39.6231073,38.5114237 C39.6231073,40.511898 37.9697415,42.139898 35.9363268,42.139898 L11.6137171,42.139898 C11.5901561,42.1419141 11.5671073,42.1429221 11.5440585,42.1429221 C11.028278,42.1429221 10.3895707,41.7089568 9.64074146,40.8490905 C9.28783902,40.4438546 8.86118049,40.228636 8.50674146,40.1132144 C8.4299122,41.0789258 7.60886341,41.8425233 6.60752195,41.8425233 L2.41930244,41.8425233 C1.36776585,41.8425233 0.511887805,41.000802 0.511887805,39.9655351 L0.511887805,20.5595735 C0.511887805,19.5243066 1.36776585,18.6825853 2.41930244,18.6825853 L6.60752195,18.6825853 C7.65957073,18.6825853 8.51442439,19.5248107 8.51442439,20.5595735 L8.51442439,20.7808404 C9.55366829,20.7692478 11.6244732,20.48901 12.7876683,18.5807723 C14.4056927,15.9265778 17.6965463,12.9840812 19.6628634,11.2260428 C19.9932293,10.9296763 20.2836439,10.6706076 20.5166927,10.455893 C22.0491805,9.04512768 23.8469854,6.36220384 24.1712049,3.80629424 C24.3545707,2.36579146 25.3472049,1.31590786 26.764961,1.06540755 C26.9841805,1.02710167 27.2039122,1.00794873 27.4231317,1.00794873"/>
    <path fill="#FFF" d="M2.41812439,40.1700684 C2.30339268,40.1700684 2.21068537,40.0783359 2.21068537,39.9664424 L2.21068537,20.5594727 C2.21068537,20.4470752 2.30339268,20.3553427 2.41812439,20.3553427 L6.6068561,20.3553427 C6.72107561,20.3553427 6.81429512,20.4470752 6.81429512,20.5594727 L6.81429512,39.9664424 C6.81429512,40.0783359 6.72107561,40.1700684 6.6068561,40.1700684 L2.41812439,40.1700684 Z"/>
    <path fill="#472E8C" d="M6.60670244,20.1035823 L2.41797073,20.1035823 C2.16238537,20.1035823 1.95443415,20.3082163 1.95443415,20.5597247 L1.95443415,39.9661903 C1.95443415,40.2176987 2.16238537,40.4223328 2.41797073,40.4223328 L6.60670244,40.4223328 C6.8622878,40.4223328 7.07023902,40.2176987 7.07023902,39.9661903 L7.07023902,20.5597247 C7.07023902,20.3082163 6.8628,20.1035823 6.60670244,20.1035823 L6.60670244,20.1035823 Z M2.46662927,39.918308 L6.5580439,39.918308 L6.5580439,20.6076071 L2.46662927,20.6076071 L2.46662927,39.918308 Z"/>
    <path fill="#FFF" d="M11.6818902,40.4678462 C11.5794512,40.4043391 11.3325732,40.2233942 10.9299878,39.7617075 C10.2462073,38.9764369 9.41081707,38.6145471 8.76954878,38.4482189 L8.76954878,22.4449285 C10.2733537,22.3834375 12.7569878,21.8809248 14.243378,19.441445 C15.7313049,17.000957 18.9023049,14.1648097 20.7964024,12.4707824 C21.1421341,12.1613112 21.4381829,11.8961942 21.6763537,11.6774474 C23.4844024,10.0136617 25.4778659,6.99858551 25.8568902,4.01324681 C25.9741829,3.09340161 26.578061,2.79753907 27.0651585,2.71135084 C27.1747683,2.69169387 27.2905244,2.6821174 27.4098659,2.6821174 C28.1018415,2.6821174 29.0227683,3.02485424 29.5308659,3.9865335 C30.7995732,6.38669944 30.6833049,10.2611378 28.0075976,13.0216815 C27.0702805,13.9873929 25.8912073,15.4238635 26.4628171,16.7378561 C27.0118902,18.0014462 28.7175,18.1637422 30.1424268,18.1637422 L37.2870366,18.1637422 C38.6300122,18.1637422 39.7225244,19.238323 39.7225244,20.5588679 C39.7225244,21.8804208 38.6300122,22.9550016 37.2870366,22.9550016 L34.7977683,22.9550016 L34.7977683,24.8793682 L37.2870366,24.8793682 C37.3945976,24.8793682 37.5016463,24.875336 37.6071585,24.8677756 L37.7336707,24.8793682 C38.8297683,24.8793682 39.7225244,25.7573793 39.7225244,26.8364963 C39.7225244,27.9151093 38.8302805,28.7931205 37.7341829,28.7931205 L37.4780854,28.7931205 L37.4780854,28.8006809 C37.3976707,28.7956406 37.3177683,28.7931205 37.2399146,28.7931205 L33.9654512,28.7931205 L33.9654512,30.716983 L37.2399146,30.716983 C38.3365244,30.716983 39.2287683,31.5949942 39.2287683,32.6736072 C39.2287683,33.7527242 38.3365244,34.6307354 37.2399146,34.6307354 L33.2243049,34.6307354 L33.2243049,36.5551019 L35.9353537,36.5551019 C37.0319634,36.5551019 37.9242073,37.4331131 37.9242073,38.511222 C37.9242073,39.5903391 37.0319634,40.4678462 35.9353537,40.4678462 L11.6818902,40.4678462 Z"/>
    <path fill="#472E8C" d="M27.4096098,2.42995381 C27.273878,2.42995381 27.1427561,2.44104235 27.0193171,2.46321944 C26.5521951,2.5458795 25.7465122,2.85283059 25.6030976,3.98235009 C25.2317561,6.9046857 23.2761951,9.86028693 21.5019512,11.4933272 C21.2642927,11.7115699 20.9692683,11.9756789 20.6322439,12.2770857 C18.7253415,13.9827055 15.5333415,16.8364937 14.0239024,19.3117594 C12.4980732,21.8152504 9.85053659,22.1852046 8.51370732,22.1998213 L8.51370732,38.6471575 C9.12936585,38.778204 10.0205854,39.104308 10.7356098,39.9253643 C11.2416585,40.5054968 11.5274634,40.6768653 11.6140244,40.7202114 L35.9356098,40.7202114 C37.172561,40.7202114 38.1800488,39.7287947 38.1800488,38.5110708 C38.1800488,37.293347 37.172561,36.3034424 35.9356098,36.3034424 L33.4806585,36.3034424 L33.4806585,34.8825965 L37.2396585,34.8825965 C38.477122,34.8825965 39.4846098,33.8916838 39.4846098,32.673456 C39.4846098,31.4557321 38.477122,30.4653235 37.2396585,30.4653235 L34.2218049,30.4653235 L34.2218049,29.0449817 L37.2396585,29.0449817 C37.4071463,29.0449817 37.5720732,29.0570783 37.7339268,29.0782473 L37.7339268,29.0449817 C38.9713902,29.0449817 39.9783659,28.054069 39.9783659,26.8363451 C39.9783659,25.6186213 38.970878,24.6277086 37.7334146,24.6277086 L37.7334146,24.6035154 C37.5869268,24.6186362 37.437878,24.6277086 37.2867805,24.6277086 L35.054122,24.6277086 L35.054122,23.2073668 L37.2867805,23.2073668 C38.7716341,23.2073668 39.9783659,22.0193804 39.9783659,20.5592207 C39.9783659,19.0990609 38.7706098,17.9115786 37.2867805,17.9115786 L30.1426829,17.9115786 C28.7971463,17.9115786 27.1883415,17.7669235 26.6981707,16.638916 C26.1864878,15.4625222 27.3056341,14.1102238 28.1922439,13.1959228 C30.951439,10.349695 31.0687317,6.35025845 29.7580244,3.87045659 C29.2186829,2.84980644 28.2332195,2.42995381 27.4096098,2.42995381 M27.4096098,2.93397858 C28.0262927,2.93397858 28.8483659,3.24092966 29.3037073,4.10281201 C30.5304146,6.42334204 30.4151707,10.1727823 27.8219268,12.8476417 C26.8349268,13.8652677 25.5959268,15.3859105 26.2269512,16.8369978 C26.835439,18.2361705 28.638878,18.4156033 30.1426829,18.4156033 L37.2867805,18.4156033 C38.4883902,18.4156033 39.4661707,19.3772826 39.4661707,20.5592207 C39.4661707,21.7411588 38.4883902,22.703342 37.2867805,22.703342 L35.054122,22.703342 L34.5419268,22.703342 L34.5419268,23.2073668 L34.5419268,24.6277086 L34.5419268,25.1317334 L35.054122,25.1317334 L37.2212195,25.1317334 L37.7334146,25.1317334 C38.6886585,25.1317334 39.4661707,25.8963389 39.4661707,26.8363451 C39.4661707,27.7763513 38.6886585,28.5409569 37.7339268,28.5409569 L37.2217317,28.5409569 L34.2218049,28.5409569 L33.7096098,28.5409569 L33.7096098,29.0449817 L33.7096098,30.4653235 L33.7096098,30.9693482 L34.2218049,30.9693482 L37.2396585,30.9693482 C38.1954146,30.9693482 38.9724146,31.7339538 38.9724146,32.673456 C38.9724146,33.6139662 38.1954146,34.3785718 37.2396585,34.3785718 L33.4806585,34.3785718 L32.9684634,34.3785718 L32.9684634,34.8825965 L32.9684634,36.3034424 L32.9684634,36.8074671 L33.4806585,36.8074671 L35.9356098,36.8074671 C36.8908537,36.8074671 37.6678537,37.5715687 37.6678537,38.5110708 C37.6678537,39.4515811 36.8908537,40.2161866 35.9356098,40.2161866 L11.7615366,40.2161866 C11.6544878,40.1385668 11.442439,39.9621581 11.1243659,39.5972442 C10.4651707,38.840199 9.67434146,38.4546201 9.02590244,38.2580504 L9.02590244,22.6836851 C10.5983415,22.5748157 12.993878,21.9815786 14.4633659,19.5708281 C15.9318293,17.1620937 19.0859268,14.3410671 20.976439,12.650064 C21.3160244,12.3466411 21.6125854,12.0810201 21.8517805,11.8612653 C23.693122,10.166734 25.7239756,7.09268693 26.1111951,4.04484916 C26.189561,3.42792285 26.525561,3.06250489 27.1094634,2.95917981 C27.2047317,2.942547 27.3056341,2.93397858 27.4096098,2.93397858"/>
  </g>
</svg>
