<svg xmlns="http://www.w3.org/2000/svg" width="122" height="21" viewBox="0 0 122 21">
  <g fill="#2F1945" fill-rule="evenodd">
    <path d="M-.0000239999999.274062651C3.030456.274062651 6.020616.363628916 9.002376.234845783 10.412616.17386988 11.116296.638906024 11.648376 2.01883373 12.635976 4.58032771 13.829976 7.05301446 15.040056 9.79364096 16.163736 7.14612289 17.324856 4.76452048 18.182376 2.26678554 18.759336.586279518 19.622136.118713253 21.242376.204484337 24.063816.353508434 26.897496.245978313 29.800296.245978313L29.800296 20.8601349 20.350296 20.8601349 20.350296 8.3223759C20.270856 8.30238795 20.191176 8.2824 20.111736 8.26266506 19.964376 8.56956867 19.801176 8.86938795 19.672056 9.18464096 18.217656 12.7384482 16.735896 16.2806169 15.340536 19.8599783 14.992536 20.7528578 14.551896 21.0541952 13.660536 20.9922072 12.426936 20.9061831 11.181336 20.9223759 9.945576 20.9891711 9.227016 21.0278819 8.892696 20.7257855 8.598936 20.0732675 6.870216 16.2348217 5.102616 12.4158578 3.345096 8.59208675 3.229176 8.34008675 3.089256 8.10048434 2.788776 7.52766506L2.788776 20.8775928-.0000239999999 20.8775928-.0000239999999.274062651zM103.282453 7.9553469C105.260581 7.9553469 107.146082 7.99046021 109.029601 7.94048141 109.970989 7.91562016 110.563907 7.35201314 110.608735 6.33423984 110.656535 5.23906348 110.140146 4.43632715 109.089289 4.37942822 107.177783 4.2753698 105.257114 4.34995354 103.282453 4.34995354L103.282453 7.9553469zM103.575693 13.9299914L103.575693 20.8875522 93 20.8875522 93 .0753569385C93.3883442.0497267874 93.7464729.00589922895 94.1043538.00564292744 101.281787.00179840477 108.459468.006924435 115.636901.00000429419571 117.451073-.00178981638 119.053488.558485287 120.345822 1.89509767 122.738547 4.36994506 122.390821 8.40284934 119.546596 10.3263922 118.290174 11.176288 116.871528 11.7701386 115.43728 12.5272533 117.59051 15.2696794 119.737301 18.0036476 122 20.8855018 121.487326 20.9226656 121.141581 20.9687998 120.795836 20.9695687 117.330953 20.9752074 113.86508 20.9331739 110.401436 20.9992997 109.460296 21.0172408 108.901556 20.6912253 108.361639 19.9320602 106.89767 17.8734465 105.353952 15.8758325 103.841689 13.8541262 103.753023 13.8792437 103.664358 13.9046176 103.575693 13.9299914L103.575693 13.9299914z"/>
    <polygon points="64 0 89.997 0 89.997 4.575 74.487 4.575 74.487 8.321 88.355 8.321 88.355 12.691 74.513 12.691 74.513 16.394 90 16.394 90 21 64 21"/>
    <path d="M52.8877783,21 L41.4308756,21 C41.4308756,19.1703375 41.3644094,17.3496666 41.4534309,15.5374735 C41.5165378,14.2578401 41.1714894,13.2885455 40.387812,12.3064057 C37.4304257,8.59903983 34.5563021,4.81537383 31.6536244,1.05765502 C31.4571052,0.803321145 31.2836211,0.528691939 31,0.120473221 C31.5194922,0.0917000958 31.896214,0.0536784657 32.2729359,0.0531646599 C35.8693096,0.0482835047 39.4656834,0.0716616691 43.0618172,0.0315848158 C43.7802281,0.0236208257 44.2296548,0.266137169 44.6538868,0.875767765 C46.3668914,3.33741141 48.1254865,5.76283174 49.9577463,8.32877797 C51.713222,5.8116433 53.4257467,3.41448228 55.0689257,0.964142364 C55.5401879,0.260999111 56.0320858,-0.023649309 56.841198,0.00152717577 C58.8183877,0.0629269703 60.7986968,0.0215656024 63,0.0215656024 C62.3463756,1.00678825 61.8300028,1.7983061 61.3011525,2.58057545 C58.7480823,6.35602055 56.1626188,10.1070599 53.6642572,13.9230956 C53.2222689,14.5982365 52.985438,15.528225 52.9208914,16.3639302 C52.8040357,17.8794004 52.8877783,19.41234 52.8877783,21"/>
  </g>
</svg>
