<svg xmlns="http://www.w3.org/2000/svg" xmlns:xlink="http://www.w3.org/1999/xlink" width="56" height="56" viewBox="0 0 56 56">
  <defs>
    <polygon id="nav-offers-a" points="44.974 40.966 12 40.966 12 8 44.974 8 44.974 40.966"/>
  </defs>
  <g fill="none" fill-rule="evenodd" transform="translate(1 1)">
    <circle cx="27" cy="27" r="27" stroke="#FFF" stroke-width="1.5"/>
    <mask id="nav-offers-b" fill="#fff">
      <use xlink:href="#nav-offers-a"/>
    </mask>
    <path fill="#FFF" d="M34.3779875,20.9594438 C34.0689562,21.2688188 33.6561125,21.4406938 33.1748625,21.4406938 C32.7279875,21.4406938 32.3154875,21.2688188 32.0064562,20.9594438 C31.6967375,20.6500688 31.5248625,20.2375688 31.5248625,19.7563188 C31.5248625,19.2750688 31.6967375,18.8969438 32.0064562,18.5531938 C32.3154875,18.2438188 32.7279875,18.0375688 33.1748625,18.0375688 C33.6220812,18.0375688 34.0342375,18.2094438 34.3436125,18.5531938 C34.6533312,18.8625688 34.8252062,19.2750688 34.8252062,19.7563188 C34.8936125,20.2375688 34.7217375,20.6500688 34.3779875,20.9594438 L34.3779875,20.9594438 Z M37.8842375,14.1875688 L34.8252062,17.2469438 C34.3436125,16.9375688 33.7939562,16.7656938 33.2095812,16.7656938 C32.4189562,16.7656938 31.6279875,17.0750688 31.1123625,17.6250688 C30.5283312,18.2094438 30.2529875,18.9313188 30.2529875,19.7563188 C30.2529875,20.5469438 30.5623625,21.3375688 31.1123625,21.8875688 C31.6967375,22.4719438 32.4529875,22.7469438 33.2095812,22.7469438 C33.9998625,22.7469438 34.7904875,22.4375688 35.3408312,21.8875688 C35.9248625,21.3031938 36.2002062,20.5813188 36.2002062,19.7563188 C36.2002062,19.1719438 36.0283312,18.6563188 35.7529875,18.1750688 L38.7783312,15.1500688 L38.5377062,25.0500688 C38.5377062,25.6688188 38.2627062,26.3563188 37.7811125,26.8719438 L26.0248625,38.6625688 C24.7186125,39.9344438 22.6904875,40.00285 21.4873625,38.7656938 L14.2342375,31.5469438 C13.6498625,30.9281938 13.3404875,30.1719438 13.3404875,29.3813188 C13.3404875,28.5219438 13.7186125,27.6281938 14.3373625,27.0094438 L26.1627062,15.1844438 C26.6783312,14.7031938 27.2967375,14.4281938 27.9842375,14.4281938 L37.8842375,14.1875688 Z M44.7939562,8.20631875 C44.5186125,7.93131875 44.1404875,7.93131875 43.8658312,8.20631875 L39.2592375,12.8125688 L39.1220812,12.8125688 L27.9498625,13.0875688 C26.9529875,13.1219438 26.0248625,13.5344438 25.2342375,14.2563188 L13.3748625,26.0469438 C12.5154875,26.9063188 11.9998625,28.1438188 11.9998625,29.3813188 C11.9998625,30.5156938 12.4467375,31.6156938 13.2720812,32.4750688 L20.4908312,39.6938188 C21.2811125,40.4844438 22.3814562,40.9656938 23.5845812,40.9656938 C24.8217375,40.9656938 26.0248625,40.4500688 26.9186125,39.5906938 L38.7095812,27.7656938 C39.4311125,27.0438188 39.8779875,26.0125688 39.8779875,25.0500688 L40.1873625,13.8438188 L40.1873625,13.7750688 L44.7939562,9.16881875 C45.0342375,8.89381875 45.0342375,8.44694375 44.7939562,8.20631875 L44.7939562,8.20631875 Z" mask="url(#nav-offers-b)"/>
  </g>
</svg>
