<svg xmlns="http://www.w3.org/2000/svg" width="56" height="56" viewBox="0 0 56 56">
  <g fill="none" fill-rule="evenodd" transform="translate(1 1)">
    <circle cx="27" cy="27" r="27" stroke="#FFF" stroke-width="1.5"/>
    <path fill="#FFF" d="M27.6184543,40.2088157 C23.6082587,40.2088157 19.9303022,38.2367373 17.7155848,34.9808941 C18.487237,35.1195608 19.2696065,35.1892078 20.053237,35.1892078 C27.3530413,35.1892078 33.2923674,29.2786196 33.2923674,22.0127373 C33.2923674,20.4114824 33.0067804,18.8585412 32.4419109,17.3790118 C36.71815,19.2613647 39.5967152,23.5594039 39.5967152,28.2872471 C39.5967152,34.861051 34.2235196,40.2088157 27.6184543,40.2088157 M31.4388891,15.6742275 C31.1993239,15.6020706 30.9332804,15.6798745 30.7712587,15.8737569 C30.6098674,16.0676392 30.580237,16.338698 30.696237,16.562698 C31.5819978,18.2699922 32.0308674,20.1040314 32.0308674,22.0133647 C32.0308674,28.5865412 26.6576717,33.9349333 20.053237,33.9349333 C18.8844109,33.9349333 17.7212587,33.7642667 16.5946717,33.4248157 C16.3532152,33.3539137 16.0903239,33.4323451 15.9289326,33.6249725 C15.7669109,33.8182275 15.73665,34.0899137 15.85265,34.3132863 C18.1386065,38.7242667 22.6462152,41.4637176 27.6184543,41.4637176 C34.9182587,41.4637176 40.8575848,35.552502 40.8575848,28.2872471 C40.8575848,22.5228549 36.9841935,17.3357176 31.4388891,15.6742275"/>
    <path fill="#FFF" d="M17.6740391 22.6407529L22.6324087 22.6407529 17.1898652 29.1405176C17.032887 29.3281255 16.9994739 29.5885176 17.1028652 29.8081255 17.206887 30.0289882 17.4294304 30.1695373 17.6740391 30.1695373L23.978387 30.1695373C24.326387 30.1695373 24.6088217 29.8890667 24.6088217 29.5420863 24.6088217 29.1951059 24.326387 28.9146353 23.978387 28.9146353L19.0200174 28.9146353 24.4625609 22.4148706C24.6195391 22.2278902 24.6529522 21.967498 24.5495609 21.7472627 24.4455391 21.5270275 24.2229957 21.385851 23.978387 21.385851L17.6740391 21.385851C17.3260391 21.385851 17.0436043 21.666949 17.0436043 22.013302 17.0436043 22.3596549 17.3260391 22.6407529 17.6740391 22.6407529M20.1957783 11.8822275L21.5392348 11.8822275 19.6712565 14.6712471C19.5420174 14.8638745 19.5300391 15.1110902 19.6397348 15.3150118 19.7494304 15.5189333 19.9631478 15.6463059 20.1957783 15.6463059L22.7175174 15.6463059C23.0655174 15.6463059 23.3479522 15.3652078 23.3479522 15.0188549 23.3479522 14.672502 23.0655174 14.3914039 22.7175174 14.3914039L21.3740609 14.3914039 23.2420391 11.6023843C23.3712783 11.4097569 23.3832565 11.1625412 23.2735609 10.9586196 23.1638652 10.754698 22.9501478 10.6273255 22.7175174 10.6273255L20.1957783 10.6273255C19.8477783 10.6273255 19.5653435 10.9084235 19.5653435 11.2547765 19.5653435 11.6011294 19.8477783 11.8822275 20.1957783 11.8822275M17.0436043 18.7841882C17.0436043 18.4378353 16.7611696 18.1567373 16.4131696 18.1567373L13.8914304 18.1567373 16.9175174 14.141051C17.0612565 13.9509333 17.0839522 13.6968157 16.9774087 13.4841098 16.8708652 13.2714039 16.6521043 13.1371294 16.4131696 13.1371294L12.6305609 13.1371294C12.2825609 13.1371294 12.0001261 13.4182275 12.0001261 13.7645804 12.0001261 14.1109333 12.2825609 14.3920314 12.6305609 14.3920314L15.1523 14.3920314 12.126213 18.4077176C11.9824739 18.5978353 11.9597783 18.8519529 12.0663217 19.0646588 12.1728652 19.2773647 12.3916261 19.4116392 12.6305609 19.4116392L16.4131696 19.4116392C16.7618 19.4116392 17.0436043 19.1305412 17.0436043 18.7841882"/>
  </g>
</svg>
