<svg xmlns="http://www.w3.org/2000/svg" width="56" height="56" viewBox="0 0 56 56">
  <g fill="none" fill-rule="evenodd" transform="translate(1 1)">
    <circle cx="27" cy="27" r="27" stroke="#FFF" stroke-width="1.5"/>
    <path fill="#FFF" d="M12.1899601,27.5270641 C12.1899601,26.9878103 12.6338437,26.5508625 13.181657,26.5508625 L40.8143,26.5508625 C41.3621134,26.5508625 41.8059969,26.9878103 41.8059969,27.5270641 L41.8059969,31.9551148 C41.8059969,32.4943686 41.3621134,32.9313165 40.8143,32.9313165 L13.181657,32.9313165 C12.6338437,32.9313165 12.1899601,32.4943686 12.1899601,31.9551148 L12.1899601,27.5270641 Z M25.1811898,24.4578861 L25.1811898,25.3794205 L17.5490903,25.3794205 L17.5490903,24.4578861 C17.5490903,23.703087 18.1706859,23.0912038 18.937466,23.0912038 L23.7928141,23.0912038 C24.5595941,23.0912038 25.1811898,23.703087 25.1811898,24.4578861 L25.1811898,24.4578861 Z M36.3873649,24.4578861 L36.3873649,25.3794205 L28.7596289,25.3794205 L28.7596289,24.4578861 C28.7596289,23.703087 29.3808279,23.0912038 30.1480046,23.0912038 L34.9989893,23.0912038 C35.7657693,23.0912038 36.3873649,23.703087 36.3873649,24.4578861 L36.3873649,24.4578861 Z M15.1650509,20.5101266 C15.1670343,18.6779914 16.6756036,17.1933839 18.5368204,17.191041 L35.4591366,17.191041 C37.3207501,17.1933839 38.8285261,18.6779914 38.8309062,20.5101266 L38.8309062,25.3794205 L37.5774012,25.3794205 L37.5774012,24.4578861 C37.5750212,23.0568415 36.4222727,21.9221047 34.9989893,21.9197618 L30.1480046,21.9197618 C28.7247212,21.9221047 27.5711793,23.0568415 27.5695926,24.4578861 L27.5695926,25.3794205 L26.3791596,25.3794205 L26.3791596,24.4578861 C26.3771762,23.0568415 25.2236344,21.9221047 23.8007476,21.9197618 L18.937466,21.9197618 C17.5141825,21.9221047 16.361434,23.0568415 16.359054,24.4578861 L16.359054,25.3794205 L15.1690177,25.3794205 L15.1650509,20.5101266 Z M38.8348729,35.3483918 C38.8348729,35.5869755 38.6389136,35.7798729 38.3965429,35.7798729 C38.1545689,35.7798729 37.9582129,35.5869755 37.9582129,35.3483918 L37.9582129,34.1027585 L38.8348729,34.1027585 L38.8348729,35.3483918 Z M16.0417109,35.3483918 C16.0417109,35.5869755 15.845355,35.7798729 15.6033809,35.7798729 C15.3614069,35.7798729 15.1650509,35.5869755 15.1650509,35.3483918 L15.1650509,34.1027585 L16.0417109,34.1027585 L16.0417109,35.3483918 Z M10.9999238,31.9551148 C11.0019072,33.1402237 11.977737,34.1004156 13.181657,34.1027585 L13.9750146,34.1027585 L13.9750146,35.3483918 C13.9750146,36.2336115 14.7041101,36.9513149 15.6033809,36.9513149 C16.5026517,36.9513149 17.2317473,36.2336115 17.2317473,35.3483918 L17.2317473,34.1027585 L36.7681766,34.1027585 L36.7681766,35.3483918 C36.7681766,36.2336115 37.4972721,36.9513149 38.3965429,36.9513149 C39.2958137,36.9513149 40.0249092,36.2336115 40.0249092,35.3483918 L40.0249092,34.1027585 L40.8182668,34.1027585 C42.0221868,34.1004156 42.9980166,33.1402237 43,31.9551148 L43,27.5270641 C42.9980166,26.3419553 42.0221868,25.3813729 40.8182668,25.3794205 L40.0249092,25.3794205 L40.0249092,20.4906026 C40.0229258,18.0114409 37.9820136,16.0020274 35.4631034,16.000075 L18.5368204,16.000075 C16.0183069,16.0020274 13.976998,18.0114409 13.9750146,20.4906026 L13.9750146,25.3794205 L13.181657,25.3794205 C11.977737,25.3813729 11.0019072,26.3419553 10.9999238,27.5270641 L10.9999238,31.9551148 Z"/>
  </g>
</svg>
