<svg xmlns="http://www.w3.org/2000/svg" width="56" height="56" viewBox="0 0 56 56">
  <g fill="none" fill-rule="evenodd" stroke="#FFF" transform="translate(1 1)">
    <circle cx="27" cy="27" r="27" stroke-width="1.5"/>
    <polygon fill="#FFF" stroke-width=".5" points="13.289 37.037 14.215 37.964 20.389 31.79 19.462 30.863"/>
    <polygon fill="#FFF" stroke-width=".5" points="13.289 31.792 19.462 37.965 20.389 37.038 14.215 30.865"/>
    <polygon fill="#FFF" stroke-width=".5" points="20.002 16.444 15.465 22.279 13.192 20.003 12.265 20.932 15.062 23.732 16.044 23.67 21.037 17.251"/>
    <polygon fill="#FFF" stroke-width=".5" points="26.675 32.446 43.724 32.446 43.724 31.135 26.675 31.135"/>
    <polygon fill="#FFF" stroke-width=".5" points="26.675 19.333 43.724 19.333 43.724 18.021 26.675 18.021"/>
    <polygon fill="#FFF" stroke-width=".5" points="26.675 37.693 34.543 37.693 34.543 36.381 26.675 36.381"/>
    <polygon fill="#FFF" stroke-width=".5" points="26.675 24.577 35.855 24.577 35.855 23.266 26.675 23.266"/>
  </g>
</svg>
