<svg xmlns="http://www.w3.org/2000/svg" width="56" height="56" viewBox="0 0 56 56">
  <g fill="none" fill-rule="evenodd" transform="translate(1 1)">
    <path fill="#FFF" d="M42.1525143,28.1753119 C41.7759429,28.9613458 40.8336571,29.2915492 40.0148,28.893922 L35.1456571,26.9634136 C34.9702286,26.894261 34.7713714,26.9161593 34.6142286,27.0233458 C34.4582286,27.1311085 34.3645143,27.3086 34.3645143,27.4993458 L34.3645143,30.6538542 C34.0342286,30.5691424 33.6913714,30.5218881 33.3399429,30.5218881 C32.8919429,30.5218881 32.4593714,30.5996847 32.0468,30.7351085 C31.3885143,28.4657525 29.5816571,26.9236508 27.4993714,26.9236508 C25.3982286,26.9236508 23.5942286,28.4876508 22.9456571,30.7523966 C22.5176571,30.6048712 22.0662286,30.5224644 21.5976571,30.5224644 C21.4250857,30.5224644 21.2548,30.5345661 21.0873714,30.5553119 L21.0873714,27.5004983 C21.0873714,27.3097525 20.9942286,27.1316847 20.8376571,27.0244983 C20.6805143,26.9167356 20.4816571,26.894261 20.3062286,26.9645661 L15.3970857,28.9123627 C14.6159429,29.2944305 13.6753714,28.961922 13.2988,28.1764644 C12.9210857,27.3898542 13.2485143,26.4395831 14.0456571,26.0511763 L21.4170857,22.1440576 C22.6959429,23.8930407 24.6976571,25.0663288 26.9765143,25.2161593 C27.1376571,25.2328712 27.3016571,25.240939 27.4673714,25.240939 C27.6330857,25.240939 27.7970857,25.2322949 27.9582286,25.2161593 C30.3228,25.0605661 32.3930857,23.8066 33.6633714,21.9487017 L41.4205143,26.0592441 C42.2022286,26.4384305 42.5302286,27.3887017 42.1525143,28.1753119 L42.1525143,28.1753119 Z M37.0068,36.1716508 C37.0068,38.651922 35.3616571,40.6700237 33.3399429,40.6700237 C31.9296571,40.6700237 30.7050857,39.6869051 30.0913714,38.2519898 C30.0902286,38.2485322 30.0896571,38.2462271 30.0885143,38.2433458 C29.8239429,37.6227017 29.6725143,36.9190746 29.6725143,36.1716508 C29.6725143,33.6919559 31.3176571,31.6744305 33.3393714,31.6744305 C35.3610857,31.6744305 37.0068,33.6919559 37.0068,36.1716508 L37.0068,36.1716508 Z M26.1770857,37.8947017 C26.3256571,37.351278 26.4073714,36.7727017 26.4073714,36.1716508 C26.4073714,34.0797864 25.4325143,32.2541593 23.9908,31.2779559 C24.4496571,29.3941254 25.8582286,28.0761932 27.4999429,28.0761932 C29.1170857,28.0761932 30.5262286,29.3653119 30.9993714,31.239922 C29.5285143,32.2074814 28.5308,34.0538542 28.5308,36.1716508 C28.5308,36.7727017 28.6130857,37.351278 28.7605143,37.8947017 L26.1770857,37.8947017 Z M21.5976571,40.6700237 C19.5759429,40.6700237 17.9308,38.651922 17.9308,36.1716508 C17.9308,33.6919559 19.5759429,31.6744305 21.5976571,31.6744305 C23.6193714,31.6744305 25.2645143,33.6919559 25.2645143,36.1716508 C25.2645143,36.9190746 25.1130857,37.6227017 24.8485143,38.2433458 C24.8473714,38.2462271 24.8468,38.2485322 24.8456571,38.2519898 C24.2325143,39.6869051 23.0079429,40.6700237 21.5976571,40.6700237 L21.5976571,40.6700237 Z M19.8016571,13.6832441 C19.4525143,13.3311424 19.2599429,12.8603288 19.2599429,12.3578203 C19.2599429,11.8553119 19.4525143,11.3850746 19.8016571,11.0323966 L20.5519429,10.2763288 C21.2765143,9.54561695 22.4559429,9.54561695 23.1805143,10.2757525 L23.8822286,10.9839898 C22.4519429,11.7694475 21.3068,13.0130407 20.6273714,14.5142271 L19.8016571,13.6832441 Z M23.8016571,20.3893119 C23.8016571,18.3504644 25.4468,16.6913797 27.4685143,16.6913797 C29.4902286,16.6913797 31.1353714,18.3498881 31.1353714,20.3893119 C31.1353714,22.4287356 29.4902286,24.0872441 27.4685143,24.0872441 C25.4468,24.0872441 23.8016571,22.4281593 23.8016571,20.3893119 L23.8016571,20.3893119 Z M33.8496571,17.6520237 C33.8496571,19.4638203 33.1005143,21.0998542 31.9016571,22.2708373 C32.1439429,21.692261 32.2782286,21.0566339 32.2782286,20.3893119 C32.2782286,18.6708712 31.3850857,17.1616169 30.0445143,16.3000915 C30.4622286,16.1139559 30.7542286,15.6938542 30.7542286,15.2034475 C30.7542286,14.5401593 30.2216571,14.0030746 29.5639429,14.0030746 C28.9068,14.0030746 28.3736571,14.5407356 28.3736571,15.2034475 C28.3736571,15.3596169 28.4056571,15.5071424 28.4588,15.6437186 C28.1388,15.5757186 27.8079429,15.5394136 27.4685143,15.5394136 C27.1290857,15.5394136 26.7976571,15.5757186 26.4782286,15.6437186 C26.5319429,15.5071424 26.5633714,15.3590407 26.5633714,15.2034475 C26.5633714,14.5401593 26.0308,14.0030746 25.3730857,14.0030746 C24.7159429,14.0030746 24.1828,14.5407356 24.1828,15.2034475 C24.1828,15.6938542 24.4753714,16.1139559 24.8930857,16.3000915 C23.5519429,17.1616169 22.6588,18.6708712 22.6588,20.3893119 C22.6588,21.0560576 22.7930857,21.6916847 23.0353714,22.2708373 C21.8359429,21.1004305 21.0873714,19.4638203 21.0873714,17.6520237 C21.0873714,14.103922 23.9502286,11.2168034 27.4685143,11.2168034 C30.9868,11.2168034 33.8496571,14.103922 33.8496571,17.6520237 L33.8496571,17.6520237 Z M31.7570857,10.2763288 C32.4816571,9.54561695 33.6610857,9.54561695 34.3856571,10.2763288 L35.1359429,11.0323966 C35.4850857,11.3844983 35.6776571,11.8553119 35.6776571,12.3578203 C35.6776571,12.8603288 35.4850857,13.3305661 35.1359429,13.6832441 L34.3113714,14.5142271 C33.6319429,13.0136169 32.4868,11.7694475 31.0565143,10.9839898 L31.7570857,10.2763288 Z M41.9370857,25.0294475 L34.2353714,20.9477186 C34.7159429,19.9496169 34.9925143,18.8345322 34.9925143,17.6526 C34.9925143,16.9823966 34.8976571,16.3358203 34.7348,15.7163288 L35.9433714,14.4980915 C36.5085143,13.9281593 36.8199429,13.1680576 36.8199429,12.3578203 C36.8199429,11.5475831 36.5085143,10.7874814 35.9433714,10.2175492 L35.1930857,9.46148136 C34.0216571,8.28127797 32.1176571,8.28127797 30.9485143,9.46148136 L29.9296571,10.4901254 C29.1570857,10.219278 28.3308,10.0648373 27.4679429,10.0648373 C26.6050857,10.0648373 25.7793714,10.219278 25.0062286,10.4901254 L23.9873714,9.46090508 C22.8165143,8.28185424 20.9125143,8.28127797 19.7428,9.46148136 L18.9925143,10.2175492 C18.4273714,10.7874814 18.1159429,11.5475831 18.1159429,12.3578203 C18.1159429,13.1680576 18.4273714,13.9281593 18.9925143,14.4980915 L20.2010857,15.7163288 C20.0382286,16.3358203 19.9433714,16.9823966 19.9433714,17.6526 C19.9433714,18.9203966 20.2570857,20.1138542 20.8045143,21.1655492 L13.5319429,25.0208034 C12.1850857,25.6783288 11.6188,27.3189729 12.2708,28.6772441 C12.9233714,30.034939 14.5479429,30.6048712 15.8559429,29.9663627 L19.9445143,28.3453119 L19.9445143,30.8728373 C18.1050857,31.666939 16.7879429,33.7392102 16.7879429,36.1710746 C16.7879429,39.2869729 18.9450857,41.8219898 21.5976571,41.8219898 C23.3553714,41.8219898 24.8919429,40.7051763 25.7302286,39.0472441 L29.2068,39.0472441 C30.0456571,40.7051763 31.5816571,41.8219898 33.3393714,41.8219898 C35.9919429,41.8219898 38.1490857,39.2875492 38.1490857,36.1710746 C38.1490857,33.9691424 37.0685143,32.062261 35.4993714,31.1304305 C35.5010857,31.1189051 35.5068,31.1096847 35.5068,31.0975831 L35.5068,28.3447356 L39.5559429,29.9484983 C40.9039429,30.6054475 42.5290857,30.0343627 43.1810857,28.6766678 C43.8325143,27.3189729 43.2673714,25.6783288 41.9370857,25.0294475 L41.9370857,25.0294475 Z"/>
    <path fill="#FFF" d="M27.4684,17.6524271 C28.3621143,17.6524271 29.0872571,18.3837153 29.0872571,19.2850034 C29.0872571,20.1868678 28.3621143,20.9175797 27.4684,20.9175797 C26.5746857,20.9175797 25.8495429,20.1868678 25.8495429,19.2850034 C25.8495429,18.3837153 26.5746857,17.6524271 27.4684,17.6524271"/>
    <circle cx="27" cy="27" r="27" stroke="#FFF" stroke-width="1.5"/>
  </g>
</svg>
