<svg xmlns="http://www.w3.org/2000/svg" width="98" height="111" viewBox="0 0 98 111">
  <g fill="none" fill-rule="evenodd" transform="translate(1 1)">
    <path fill="#DAE6F0" fill-rule="nonzero" d="M19.9 51.7L9.57 51.7C8.63 51.7 7.86 50.93 7.86 49.99L7.86 39.66C7.86 38.72 8.63 37.95 9.57 37.95L19.9 37.95C20.84 37.95 21.61 38.72 21.61 39.66L21.61 49.99C21.61 50.93 20.84 51.7 19.9 51.7zM36.4 51.7L26.07 51.7C25.13 51.7 24.36 50.93 24.36 49.99L24.36 39.66C24.36 38.72 25.13 37.95 26.07 37.95L36.4 37.95C37.34 37.95 38.11 38.72 38.11 39.66L38.11 49.99C38.11 50.93 37.34 51.7 36.4 51.7zM69.41 51.7L59.08 51.7C58.14 51.7 57.37 50.93 57.37 49.99L57.37 39.66C57.37 38.72 58.14 37.95 59.08 37.95L69.41 37.95C70.35 37.95 71.12 38.72 71.12 39.66L71.12 49.99C71.12 50.93 70.35 51.7 69.41 51.7zM52.91 51.7L42.58 51.7C41.64 51.7 40.87 50.93 40.87 49.99L40.87 39.66C40.87 38.72 41.64 37.95 42.58 37.95L52.91 37.95C53.85 37.95 54.62 38.72 54.62 39.66L54.62 49.99C54.62 50.93 53.85 51.7 52.91 51.7zM19.9 68.49L9.57 68.49C8.63 68.49 7.86 67.72 7.86 66.78L7.86 56.45C7.86 55.51 8.63 54.74 9.57 54.74L19.9 54.74C20.84 54.74 21.61 55.51 21.61 56.45L21.61 66.78C21.61 67.72 20.84 68.49 19.9 68.49zM36.4 68.49L26.07 68.49C25.13 68.49 24.36 67.72 24.36 66.78L24.36 56.45C24.36 55.51 25.13 54.74 26.07 54.74L36.4 54.74C37.34 54.74 38.11 55.51 38.11 56.45L38.11 66.78C38.11 67.72 37.34 68.49 36.4 68.49zM69.41 68.49L59.08 68.49C58.14 68.49 57.37 67.72 57.37 66.78L57.37 56.45C57.37 55.51 58.14 54.74 59.08 54.74L69.41 54.74C70.35 54.74 71.12 55.51 71.12 56.45L71.12 66.78C71.12 67.72 70.35 68.49 69.41 68.49zM52.91 68.49L42.58 68.49C41.64 68.49 40.87 67.72 40.87 66.78L40.87 56.45C40.87 55.51 41.64 54.74 42.58 54.74L52.91 54.74C53.85 54.74 54.62 55.51 54.62 56.45L54.62 66.78C54.62 67.72 53.85 68.49 52.91 68.49zM19.9 85.28L9.57 85.28C8.63 85.28 7.86 84.51 7.86 83.57L7.86 73.24C7.86 72.3 8.63 71.53 9.57 71.53L19.9 71.53C20.84 71.53 21.61 72.3 21.61 73.24L21.61 83.57C21.61 84.52 20.84 85.28 19.9 85.28zM36.4 85.28L26.07 85.28C25.13 85.28 24.36 84.51 24.36 83.57L24.36 73.24C24.36 72.3 25.13 71.53 26.07 71.53L36.4 71.53C37.34 71.53 38.11 72.3 38.11 73.24L38.11 83.57C38.11 84.52 37.34 85.28 36.4 85.28zM69.41 85.28L59.08 85.28C58.14 85.28 57.37 84.51 57.37 83.57L57.37 73.24C57.37 72.3 58.14 71.53 59.08 71.53L69.41 71.53C70.35 71.53 71.12 72.3 71.12 73.24L71.12 83.57C71.12 84.52 70.35 85.28 69.41 85.28zM52.91 85.28L42.58 85.28C41.64 85.28 40.87 84.51 40.87 83.57L40.87 73.24C40.87 72.3 41.64 71.53 42.58 71.53L52.91 71.53C53.85 71.53 54.62 72.3 54.62 73.24L54.62 83.57C54.62 84.52 53.85 85.28 52.91 85.28zM19.9 102.08L9.57 102.08C8.63 102.08 7.86 101.31 7.86 100.37L7.86 90.04C7.86 89.1 8.63 88.33 9.57 88.33L19.9 88.33C20.84 88.33 21.61 89.1 21.61 90.04L21.61 100.37C21.61 101.31 20.84 102.08 19.9 102.08zM36.4 102.08L26.07 102.08C25.13 102.08 24.36 101.31 24.36 100.37L24.36 90.04C24.36 89.1 25.13 88.33 26.07 88.33L36.4 88.33C37.34 88.33 38.11 89.1 38.11 90.04L38.11 100.37C38.11 101.31 37.34 102.08 36.4 102.08zM69.41 102.08L59.08 102.08C58.14 102.08 57.37 101.31 57.37 100.37L57.37 90.04C57.37 89.1 58.14 88.33 59.08 88.33L69.41 88.33C70.35 88.33 71.12 89.1 71.12 90.04L71.12 100.37C71.12 101.31 70.35 102.08 69.41 102.08zM86.43 51.7L76.1 51.7C75.16 51.7 74.39 50.93 74.39 49.99L74.39 39.66C74.39 38.72 75.16 37.95 76.1 37.95L86.43 37.95C87.37 37.95 88.14 38.72 88.14 39.66L88.14 49.99C88.13 50.93 87.36 51.7 86.43 51.7zM93.82 31.44L49.46 31.44C48.52 31.44 47.75 30.67 47.75 29.73L47.75 8.6C47.75 7.66 48.52 6.89 49.46 6.89L93.82 6.89C94.76 6.89 95.53 7.66 95.53 8.6L95.53 29.73C95.52 30.67 94.76 31.44 93.82 31.44zM86.43 68.49L76.1 68.49C75.16 68.49 74.39 67.72 74.39 66.78L74.39 56.45C74.39 55.51 75.16 54.74 76.1 54.74L86.43 54.74C87.37 54.74 88.14 55.51 88.14 56.45L88.14 66.78C88.13 67.72 87.36 68.49 86.43 68.49zM86.43 85.28L76.1 85.28C75.16 85.28 74.39 84.51 74.39 83.57L74.39 73.24C74.39 72.3 75.16 71.53 76.1 71.53L86.43 71.53C87.37 71.53 88.14 72.3 88.14 73.24L88.14 83.57C88.13 84.52 87.36 85.28 86.43 85.28zM86.43 102.08L76.1 102.08C75.16 102.08 74.39 101.31 74.39 100.37L74.39 90.04C74.39 89.1 75.16 88.33 76.1 88.33L86.43 88.33C87.37 88.33 88.14 89.1 88.14 90.04L88.14 100.37C88.13 101.31 87.36 102.08 86.43 102.08zM52.91 102.08L42.58 102.08C41.64 102.08 40.87 101.31 40.87 100.37L40.87 90.04C40.87 89.1 41.64 88.33 42.58 88.33L52.91 88.33C53.85 88.33 54.62 89.1 54.62 90.04L54.62 100.37C54.62 101.31 53.85 102.08 52.91 102.08z"/>
    <path stroke="#A4C7E2" stroke-linecap="round" stroke-linejoin="round" stroke-width="2" d="M71.88 7.02L24.12 7.02M17.05 7.02L3.43 7.02C1.8 7.02.47 8.35.47 9.98L.47 105.12C.47 106.75 1.8 108.08 3.43 108.08L65.32 108.08 75.96 108.08 92.56 108.08C94.19 108.08 95.52 106.75 95.52 105.12L95.52 9.98C95.52 8.35 94.19 7.02 92.56 7.02L78.94 7.02"/>
    <path fill="#A4C7E2" fill-rule="nonzero" d="M20.58 15.3C22.71 15.3 24.45 17.04 24.45 19.17 24.45 21.3 22.71 23.04 20.58 23.04L20.58 23.04C18.45 23.04 16.71 21.3 16.71 19.17 16.71 17.04 18.46 15.3 20.58 15.3L20.58 15.3 20.58 15.3zM20.58 13.3C17.35 13.3 14.71 15.93 14.71 19.17 14.71 22.41 17.34 25.04 20.58 25.04 23.81 25.04 26.45 22.41 26.45 19.17 26.45 15.93 23.82 13.3 20.58 13.3L20.58 13.3zM75.42 15.3C77.55 15.3 79.29 17.04 79.29 19.17 79.29 21.3 77.55 23.04 75.42 23.04L75.42 23.04C73.29 23.04 71.55 21.3 71.55 19.17 71.55 17.04 73.29 15.3 75.42 15.3L75.42 15.3 75.42 15.3zM75.42 13.3C72.19 13.3 69.55 15.93 69.55 19.17 69.55 22.41 72.18 25.04 75.42 25.04 78.65 25.04 81.29 22.41 81.29 19.17 81.29 15.93 78.65 13.3 75.42 13.3L75.42 13.3z"/>
    <path stroke="#A4C7E2" stroke-linecap="round" stroke-linejoin="round" stroke-width="2" d="M0.48,31.44 L95.52,31.44"/>
    <path stroke="#A4C7E2" stroke-linecap="round" stroke-width="2" d="M20.58 13.72L20.58.07M75.42 13.72L75.42.07"/>
  </g>
</svg>
