<svg xmlns="http://www.w3.org/2000/svg" width="61" height="49" viewBox="0 0 61 49">
  <path fill="#472E8C" fill-rule="evenodd" d="M670.414565,151.386668 C669.639162,151.386668 669.00985,151.911104 669.00985,152.557284 C669.00985,153.203464 669.639162,153.7279 670.414565,153.7279 L692.890015,153.7279 C693.665418,153.7279 694.294731,153.203464 694.294731,152.557284 C694.294731,151.911104 693.665418,151.386668 692.890015,151.386668 L670.414565,151.386668 Z M670.414565,144.362972 C669.639162,144.362972 669.00985,144.887408 669.00985,145.533588 C669.00985,146.179768 669.639162,146.704204 670.414565,146.704204 L697.104162,146.704204 C697.879565,146.704204 698.508877,146.179768 698.508877,145.533588 C698.508877,144.887408 697.879565,144.362972 697.104162,144.362972 L670.414565,144.362972 Z M670.414565,137.339276 C669.639162,137.339276 669.00985,137.863712 669.00985,138.509892 C669.00985,139.156072 669.639162,139.680508 670.414565,139.680508 L697.104162,139.680508 C697.879565,139.680508 698.508877,139.156072 698.508877,138.509892 C698.508877,137.863712 697.879565,137.339276 697.104162,137.339276 L670.414565,137.339276 Z M683.759364,127.38904 C699.048288,127.38904 711.151318,135.737873 711.151318,145.771223 C711.151318,155.804573 699.048288,164.172136 683.759364,164.172136 C681.595399,164.172136 678.213546,163.998885 676.296812,163.69628 C675.976537,163.640676 675.642215,163.679306 675.352843,163.806318 L663.434534,169.220417 L667.495566,161.190577 C667.74982,160.666726 667.518744,160.066785 666.947025,159.764181 C660.479012,156.326667 656.36741,151.569869 656.36741,145.771223 C656.36741,135.737873 668.470439,127.38904 683.759364,127.38904 L683.759364,127.38904 Z M683.759364,125.047808 C667.233587,125.047808 653.557978,134.186807 653.557978,145.771223 C653.557978,152.167469 658.034105,157.410072 664.48807,161.117413 L659.286409,171.415322 C658.98299,172.009995 659.315205,172.697732 660.028801,172.951171 C660.428442,173.09223 660.882868,173.072329 661.262141,172.896737 L676.341061,166.037512 C678.594927,166.34597 681.59259,166.513368 683.759364,166.513368 C700.28514,166.513368 713.960749,157.355639 713.960749,145.771223 C713.960749,134.186807 700.28514,125.047808 683.759364,125.047808 L683.759364,125.047808 Z" transform="translate(-653 -124.795)"/>
</svg>
