<svg xmlns="http://www.w3.org/2000/svg" width="62" height="35" viewBox="0 0 62 35">
  <path fill="#472E8C" fill-rule="evenodd" d="M98.5320196,6.22835619 L126.285205,22.6981278 C126.618364,22.9037439 127.073273,22.9037439 127.406432,22.6981278 L155.159617,6.22835619 L155.159617,30.9944621 C155.159617,32.1659225 154.055379,33.0876499 152.652902,33.0876499 L101.038735,33.0876499 C99.635314,33.0876499 98.5320196,32.1659225 98.5320196,30.9944621 L98.5320196,6.22835619 Z M101.038735,1.57560237 L152.652902,1.57560237 C154.055379,1.57560237 155.159617,2.47212013 155.159617,3.64358049 L155.159617,4.30769689 L126.845818,21.0736818 L98.5320196,4.30769689 L98.5320196,3.64358049 C98.5320196,2.47212013 99.635314,1.57560237 101.038735,1.57560237 L101.038735,1.57560237 Z M101.038735,0 C98.6226238,0 96.644433,1.62680945 96.644433,3.64358049 L96.644433,30.9944621 C96.644433,33.0112332 98.6226238,34.6632522 101.038735,34.6632522 L152.652902,34.6632522 C155.068069,34.6632522 157.047204,33.0112332 157.047204,30.9944621 L157.047204,3.64358049 C157.047204,1.62680945 155.068069,0 152.652902,0 L101.038735,0 Z" transform="translate(-95.973 .256)"/>
</svg>
