<svg xmlns="http://www.w3.org/2000/svg" width="46" height="87" viewBox="0 0 46 87">
  <g fill="none" fill-rule="evenodd" transform="translate(0 1)">
    <path fill="#DAE6F0" fill-rule="nonzero" d="M30.8838889,4.15348148 L23,4.15348148 L23,19.2703704 L30.8838889,19.2703704 C33.7077778,19.2703704 35.995,16.9897778 35.995,14.1740741 L35.995,9.24977778 C35.995,6.44044444 33.7077778,4.15348148 30.8838889,4.15348148 Z"/>
    <path stroke="#A4C7E2" stroke-width="1.28" d="M15.1161111,4.15348148 L30.8838889,4.15348148 C33.7077778,4.15348148 35.995,6.43407407 35.995,9.24977778 L35.995,14.1740741 C35.995,16.9897778 33.7077778,19.2703704 30.8838889,19.2703704 L15.1161111,19.2703704 C12.2922222,19.2703704 10.005,16.9897778 10.005,14.1740741 L10.005,9.24977778 C10.005,6.44044444 12.2922222,4.15348148 15.1161111,4.15348148 Z"/>
    <path stroke="#A4C7E2" stroke-width="1.28" d="M2.84944444,80.2475556 L2.84944444,3.58651852 C2.84944444,1.8282963 4.28055556,0.401333333 6.04388889,0.401333333 L39.9625,0.401333333 C41.7258333,0.401333333 43.1569444,1.8282963 43.1569444,3.58651852 L43.1569444,80.2411852 C43.1569444,81.9994074 41.7258333,83.4263704 39.9625,83.4263704 L6.04388889,83.4263704 C4.27416667,83.4327407 2.84944444,82.0057778 2.84944444,80.2475556 Z"/>
    <path fill="#FFF" fill-rule="nonzero" d="M5.405,85.3438519 C2.93888889,85.3438519 0.932777778,83.3435556 0.932777778,80.8845926 L0.932777778,22.066963 C0.932777778,19.608 2.93888889,17.6077037 5.405,17.6077037 L40.6013889,17.6077037 C43.0675,17.6077037 45.0736111,19.608 45.0736111,22.066963 L45.0736111,80.8845926 C45.0736111,83.3435556 43.0675,85.3438519 40.6013889,85.3438519 L5.405,85.3438519 Z"/>
    <path fill="#A4C7E2" fill-rule="nonzero" d="M40.595,18.2383704 C42.7097222,18.2383704 44.4283333,19.952 44.4283333,22.0605926 L44.4283333,80.8782222 C44.4283333,82.9868148 42.7097222,84.7004444 40.595,84.7004444 L5.39861111,84.7004444 C3.28388889,84.7004444 1.56527778,82.9868148 1.56527778,80.8782222 L1.56527778,22.0605926 C1.56527778,19.952 3.28388889,18.2383704 5.39861111,18.2383704 L40.595,18.2383704 L40.595,18.2383704 Z M40.595,16.9642963 L5.39861111,16.9642963 C2.58111111,16.9642963 0.2875,19.2512593 0.2875,22.0605926 L0.2875,80.8782222 C0.2875,83.6875556 2.58111111,85.9745185 5.39861111,85.9745185 L40.595,85.9745185 C43.4125,85.9745185 45.7061111,83.6875556 45.7061111,80.8782222 L45.7061111,22.0605926 C45.7061111,19.2512593 43.4188889,16.9642963 40.595,16.9642963 L40.595,16.9642963 Z"/>
    <path fill="#DAE6F0" fill-rule="nonzero" d="M40.595,19.5124444 L23,19.5124444 L23,83.4263704 L40.595,83.4263704 C42.0069444,83.4263704 43.1505556,82.2860741 43.1505556,80.8782222 L43.1505556,22.0605926 C43.1505556,20.6591111 42.0069444,19.5124444 40.595,19.5124444 Z"/>
  </g>
</svg>
