<?xml version="1.0" encoding="utf-8"?>
<!-- Generator: Adobe Illustrator 22.0.1, SVG Export Plug-In . SVG Version: 6.00 Build 0)  -->
<svg version="1.1" id="Layer_1" xmlns="http://www.w3.org/2000/svg" xmlns:xlink="http://www.w3.org/1999/xlink" x="0px" y="0px"
	 viewBox="0 0 137.8 28.3" style="enable-background:new 0 0 137.8 28.3;" xml:space="preserve">
<style type="text/css">
	.st0{fill:#2E1A46;}
</style>
<g>
	<g>
		<path class="st0" d="M23.2,5.4c-0.2-0.6-0.4-1.3-0.6-1.9c-0.2-0.6-0.4-1.1-0.7-1.7c-0.2-0.3-0.3-0.6-0.6-0.9
			c-0.2-0.2-0.4-0.4-0.6-0.6C20.6,0.1,20.3,0.1,20,0c-0.3,0-0.6,0-1,0l-0.9,0.1c-0.4,0-0.7,0.1-1.1,0.2c-0.5,0.1-1,0.2-1.5,0.4
			c-0.6,0.2-1.2,0.4-1.7,0.7C13.4,1.5,13,1.7,12.6,2c-0.3,0.2-0.7,0.4-1,0.6c-0.5,0.3-1,0.6-1.4,1c-0.5,0.4-1,0.7-1.5,1.1
			C8.2,5,7.8,5.5,7.3,5.9C6.9,6.4,6.5,6.8,6.1,7.2C5.8,7.7,5.5,8.1,5.2,8.6C4.9,9,4.7,9.5,4.5,10C4.3,10.5,4.1,11,4,11.5
			c-0.1,0.4-0.2,0.9-0.2,1.3c0,0.5,0,1,0,1.4c0.1,0.4,0.2,0.8,0.3,1.3c0.1,0.3,0.3,0.6,0.5,0.8c0.2,0.3,0.4,0.5,0.6,0.8
			c0.2,0.3,0.5,0.5,0.8,0.8c0.3,0.3,0.7,0.5,1.1,0.7l1.4,0.8l1.5,0.8l1.7,0.9c0.4,0.2,0.7,0.4,1.1,0.6c0.2,0.1,0.3,0.3,0.4,0.4
			c0.1,0.1,0.1,0.3,0.1,0.4c0,0.3-0.1,0.5-0.3,0.7c-0.5,0.4-1,0.7-1.7,0.8c-0.7,0.1-1.3,0.2-1.9,0.2c-0.4,0-0.8,0-1.2-0.1
			c-1.3-0.1-2.6-0.4-3.9-0.7c-0.2,0-0.3-0.1-0.5-0.1c-0.1,0-0.2,0-0.3,0.1c-0.1,0.1-0.1,0.2-0.1,0.4c0,0.2,0,0.3,0.1,0.5
			c0.1,0.3,0.2,0.5,0.4,0.7c0.5,0.7,1.2,1.2,2,1.6c0.5,0.3,1.1,0.5,1.7,0.7c3.8,1.4,7.9,1,11.4-1c0.4-0.2,0.7-0.4,1-0.7
			c0.3-0.2,0.6-0.5,0.9-0.8c0.2-0.3,0.5-0.6,0.7-0.8c0.2-0.3,0.4-0.5,0.5-0.8c0.1-0.3,0.2-0.6,0.3-0.9c0.1-0.2,0.1-0.4,0.1-0.7
			c0-0.1,0-0.2,0-0.2c0-0.1,0-0.3,0-0.4c-0.1-0.3-0.2-0.5-0.3-0.8c-0.2-0.3-0.4-0.7-0.6-0.9c-0.4-0.4-0.8-0.8-1.2-1.2l-1.3-1.2
			l-0.9-0.9c-0.2-0.2-0.4-0.4-0.6-0.7c-0.1-0.2-0.3-0.4-0.3-0.6v0c-0.1-0.2-0.2-0.4-0.2-0.7c0-0.1,0-0.3,0-0.4c0-0.1,0-0.3,0-0.4
			c0-0.3,0.1-0.5,0.2-0.7c0.1-0.3,0.3-0.5,0.5-0.7c0.2-0.2,0.5-0.4,0.8-0.6c0.4-0.2,0.7-0.4,1.1-0.6c0.4-0.2,0.7-0.3,1.1-0.4
			l0.8-0.2l0.7-0.2c0.2-0.1,0.4-0.2,0.6-0.3c0.2-0.1,0.3-0.3,0.3-0.5c0.1-0.3,0.2-0.6,0.2-0.9c0-0.1,0-0.3,0-0.4c0-0.2,0-0.4,0-0.6
			C23.5,6.6,23.3,6,23.2,5.4 M6.8,10l1.3-1.5L7.6,7.2l1.2,0.5l0.8-0.9L9.5,8l1.1,0.4L9.4,8.9l-0.1,2.4l-0.8-2L6.8,10z M10.3,15.7
			l-0.1,2.4l-0.8-1.9l-1.8,0.8L9,15.3l-0.5-1.2l1.2,0.5l0.8-0.9l-0.1,1.2l1,0.4L10.3,15.7z M11.7,7.1L13,5.6l-0.5-1.3l1.2,0.5
			l0.8-0.9l-0.1,1.2l1,0.4l-1.1,0.5l-0.1,2.4l-0.9-2L11.7,7.1z M15.7,11.5l-0.1,2.2l-0.8-1.8l-1.6,0.7l1.3-1.5l-0.5-1.2l1.2,0.5
			l0.8-0.9l-0.1,1.2l1.1,0.4L15.7,11.5z"/>
		<path class="st0" d="M29.6,24.5C29.6,24.5,29.6,24.5,29.6,24.5c0,0.2-0.1,0.3-0.2,0.3c-0.3,0.1-0.5,0.1-0.8,0.1
			c-1.4-0.1-2.7-0.7-3.7-1.6c-0.3-0.3-0.5-0.6-0.6-1c-0.2-0.8-0.3-1.6-0.4-2.3c-0.2-1.6-0.2-3.3-0.2-4.9l0-1c0.1-3.5,0.4-7,0.8-10.5
			c0-0.2,0.2-0.4,0.4-0.4l0.1,0c0.4,0.1,0.7,0.2,1.1,0.3c0.7,0.3,1.5,0.6,2.2,1c1.1,0.6,2.1,1.4,3,2.3c0.2,0.2,0.3,0.5,0.3,0.8
			c0,0.1,0,0.3-0.1,0.3c-1.1,2.9-1.8,6-2.1,9.1C29.1,19.4,29.2,22,29.6,24.5 M35.7,17.6L35.7,17.6c0-0.3,0.1-0.6,0.2-0.8
			c0.1-0.3,0.2-0.7,0.4-1c0.2-0.3,0.4-0.6,0.6-0.8c0.1-0.2,0.3-0.3,0.5-0.4c0.1-0.1,0.2-0.1,0.3-0.1c0,0,0.1,0,0.1,0
			c0.2,0,0.3,0.1,0.3,0.3c0.1,0.1,0.1,0.3,0.1,0.4v0c0,0.2,0,0.5-0.1,0.7c-0.1,0.3-0.2,0.5-0.4,0.8c-0.1,0.2-0.3,0.4-0.5,0.6
			c-0.2,0.2-0.3,0.3-0.5,0.4c-0.2,0.1-0.3,0.2-0.5,0.2c0,0-0.1,0-0.1,0c-0.1,0-0.2,0-0.3-0.1C35.7,17.9,35.7,17.8,35.7,17.6
			L35.7,17.6z M41.2,20.4L41.2,20.4c-0.6,0.4-1.2,0.8-1.8,1.1c-0.3,0.1-0.6,0.2-0.9,0.2c-0.3,0-0.7,0-1.1-0.1
			c-0.6-0.1-1.2-0.5-1.5-1c-0.2-0.3-0.3-0.7-0.3-1l0.3,0c1.7,0,3.3-0.8,4.4-2.1c0.3-0.3,0.5-0.6,0.7-1c0.1-0.3,0.3-0.6,0.4-1
			c0.1-0.2,0.1-0.5,0.1-0.7v0c0-0.2,0-0.4-0.1-0.7c-0.1-0.3-0.1-0.5-0.3-0.7c-0.2-0.3-0.4-0.6-0.6-0.8c-0.2-0.3-0.5-0.6-0.8-0.9
			c-0.2-0.2-0.5-0.4-0.8-0.6c-0.3-0.2-0.6-0.4-1-0.5c-0.3-0.1-0.6-0.2-0.9-0.3c-0.2,0-0.5-0.1-0.7-0.1h-0.3c-0.1,0-0.3,0-0.4,0
			c-0.3,0-0.5,0.1-0.8,0.2c-0.3,0.1-0.6,0.2-0.9,0.4c-0.3,0.2-0.5,0.3-0.8,0.6c-0.2,0.2-0.4,0.3-0.6,0.5c-0.3,0.3-0.5,0.6-0.7,0.9
			c-0.3,0.4-0.5,0.8-0.7,1.2c-0.3,0.6-0.5,1.3-0.7,1.9c-0.1,0.4-0.1,0.8-0.1,1.3c0,0.9,0.2,1.7,0.5,2.5c0.1,0.4,0.3,0.7,0.6,1
			c0.2,0.3,0.4,0.6,0.7,0.9c0.3,0.3,0.6,0.5,0.9,0.7c0.4,0.3,0.8,0.5,1.3,0.7c0.7,0.3,1.5,0.5,2.3,0.5c0.7,0,1.4-0.1,2.1-0.4
			c0.4-0.1,0.7-0.3,1.1-0.5c0.6-0.4,1.1-0.9,1.6-1.5c0.1-0.1,0.1-0.3,0.1-0.4c0-0.1,0-0.2-0.1-0.3C41.4,20.5,41.3,20.4,41.2,20.4
			 M47,17.6c0-0.3,0.1-0.5,0.2-0.8c0.1-0.3,0.2-0.6,0.4-0.9c0.2-0.3,0.4-0.6,0.6-0.8c0.2-0.2,0.3-0.3,0.5-0.4
			c0.1-0.1,0.2-0.1,0.3-0.1c0,0,0.1,0,0.2,0c0.1,0,0.2,0.1,0.3,0.3c0.1,0.1,0.1,0.3,0.1,0.5v0c0,0.2-0.1,0.5-0.1,0.7
			c-0.1,0.3-0.2,0.6-0.4,0.8c-0.2,0.3-0.3,0.4-0.5,0.6c-0.2,0.2-0.3,0.3-0.5,0.4c-0.2,0.1-0.3,0.2-0.5,0.2h-0.1
			c-0.1,0-0.2,0-0.2-0.1C47,17.9,47,17.8,47,17.6L47,17.6z M52.5,20.4L52.5,20.4c-0.6,0.5-1.1,0.8-1.8,1.1c-0.3,0.1-0.6,0.2-0.9,0.2
			c-0.4,0-0.7,0-1.1-0.1c-0.6-0.1-1.2-0.5-1.5-1.1c-0.2-0.3-0.3-0.6-0.4-1c0.1,0,0.2,0,0.4,0c1.7,0,3.3-0.8,4.4-2.1
			c0.3-0.3,0.5-0.6,0.7-1c0.2-0.3,0.3-0.6,0.4-1c0.1-0.2,0.1-0.5,0.1-0.7c0-0.2,0-0.4-0.1-0.7c0-0.3-0.1-0.5-0.3-0.7
			c-0.2-0.3-0.4-0.6-0.6-0.8c-0.3-0.3-0.5-0.6-0.8-0.8c-0.2-0.2-0.5-0.4-0.8-0.6c-0.3-0.2-0.7-0.4-1-0.5c-0.3-0.1-0.6-0.2-0.9-0.3
			c-0.2,0-0.4-0.1-0.7-0.1c-0.1,0-0.2,0-0.3,0c-0.1,0-0.3,0-0.4,0c-0.3,0-0.6,0.1-0.8,0.2c-0.3,0.1-0.6,0.2-0.9,0.4
			c-0.3,0.2-0.6,0.4-0.8,0.6c-0.2,0.2-0.4,0.3-0.6,0.5c-0.3,0.3-0.5,0.6-0.7,0.9c-0.3,0.4-0.5,0.8-0.7,1.2c-0.3,0.6-0.5,1.3-0.6,1.9
			c-0.1,0.4-0.1,0.8-0.1,1.2c0,0.9,0.2,1.7,0.5,2.6c0.2,0.3,0.3,0.7,0.6,1c0.2,0.3,0.4,0.6,0.7,0.8c0.3,0.3,0.6,0.5,0.9,0.7
			c0.4,0.3,0.8,0.5,1.3,0.7c0.7,0.3,1.5,0.5,2.3,0.5c0.7,0,1.4-0.1,2.1-0.4c0.4-0.1,0.8-0.3,1.1-0.6c0.6-0.4,1.1-0.9,1.5-1.4
			c0.1-0.1,0.1-0.3,0.2-0.4c0-0.1-0.1-0.2-0.1-0.3C52.7,20.5,52.6,20.4,52.5,20.4 M61.7,17.1c0,0.2,0,0.4-0.1,0.6
			c-0.1,0.2-0.2,0.5-0.3,0.7c-0.2,0.3-0.3,0.5-0.5,0.7c-0.1,0.1-0.2,0.3-0.4,0.4L60,19.8c-0.1,0.1-0.2,0.2-0.3,0.2c0,0-0.1,0-0.2,0
			c-0.1,0-0.1,0-0.1,0c-0.2-0.1-0.3-0.2-0.3-0.4v-0.1c0-0.1,0-0.2,0.1-0.3l0.1-0.4l0.3-0.7c0.2-0.3,0.3-0.7,0.5-1
			c0.2-0.2,0.3-0.5,0.5-0.7c0.1-0.1,0.2-0.2,0.4-0.3c0.1,0,0.1,0,0.2,0c0.1,0,0.1,0,0.2,0c0.2,0.1,0.3,0.2,0.3,0.3
			C61.7,16.6,61.7,16.8,61.7,17.1L61.7,17.1z M65.4,14.2c-0.6-0.9-1.5-1.7-2.4-2.2c-0.7-0.3-1.4-0.5-2.1-0.3
			c-0.5,0.1-0.9,0.2-1.3,0.4c-0.4,0.2-0.9,0.5-1.3,0.8c-0.3-0.3-0.7-0.5-1.1-0.8c-0.6-0.4-1.2-0.6-1.9-0.7c-0.4,0-0.9-0.1-1.3-0.1
			c-0.2,0-0.4,0.1-0.6,0.2c-0.1,0.1-0.1,0.2-0.1,0.3c0.3,2,0.5,4.1,0.5,6.2v0.3c0,2.1-0.2,4.3-0.5,6.4c-0.1,0.4-0.1,0.9-0.1,1.3
			c0,0.2,0.1,0.3,0.2,0.4c0.4,0.5,0.9,0.9,1.4,1.2c0.6,0.3,1.2,0.5,1.8,0.6c0.5,0.1,1,0.1,1.5,0c0.3,0,0.6-0.3,0.6-0.7l0-1.2
			c0-0.8,0-1.7,0.1-2.4c0-0.7,0.1-1.4,0.2-2.1c2.2,1.1,5,0.4,6.3-1.7c0.6-0.9,1-1.9,1.1-3v-0.3c0-0.4-0.1-0.9-0.2-1.3
			C65.8,15.1,65.6,14.6,65.4,14.2 M93,14.2c0,0.1,0,0.3,0,0.4v0.1v0.1c0,0.2,0,0.3-0.1,0.5l-0.4,1.3L92.2,18
			c-0.1,0.4-0.2,0.9-0.3,1.3c-0.1,0.4-0.1,0.9-0.2,1.4c0,0.3,0,0.6,0,0.9c0,0.1,0,0.2,0,0.3c0,0.1,0,0.3,0,0.4
			c0,0.1-0.1,0.2-0.2,0.3l-0.2,0.2C91,23,90.8,23,90.6,23c-0.2,0-0.4,0-0.5,0c-0.1,0-0.3,0-0.4,0c-0.2,0-0.4,0-0.7-0.1
			c-0.3-0.1-0.5-0.2-0.8-0.4c-0.2-0.1-0.4-0.3-0.6-0.5c-0.2-0.2-0.3-0.4-0.4-0.6c-0.1-0.3-0.2-0.5-0.2-0.8c-0.1-0.4-0.1-0.8-0.1-1.2
			l0-1c0-0.1,0-0.2,0-0.3c0-0.1,0-0.2,0-0.3c0-0.1-0.1-0.2-0.2-0.2c-0.1,0-0.2,0.1-0.3,0.2c-0.2,0.2-0.3,0.5-0.4,0.8
			c-0.2,0.5-0.4,1.1-0.5,1.6l-0.3,1.3l-0.2,1c0,0.2-0.1,0.4-0.3,0.5c-0.2,0.2-0.3,0.3-0.6,0.3c-0.2,0-0.4,0-0.5,0
			c-0.2,0-0.3,0-0.4,0c-0.3,0-0.5-0.1-0.7-0.1c-0.3-0.1-0.5-0.2-0.8-0.3c-0.3-0.1-0.5-0.3-0.8-0.5c-0.2-0.2-0.4-0.4-0.6-0.7
			c-0.2-0.3-0.3-0.6-0.4-0.9c-0.1-0.3-0.2-0.7-0.2-1c0-0.2,0-0.4,0-0.7c0-0.1,0-0.2,0-0.3l0-0.6l0.1-1l-1.3,3.3
			c-0.8,1.8-1.8,3.6-3.1,5.2c-0.4,0.6-1,1-1.6,1.4c-0.3,0.2-0.6,0.3-0.8,0.4c-0.4,0.1-0.8,0.2-1.3,0.2c-0.7,0-1.4-0.2-2-0.6
			c-0.4-0.2-0.7-0.5-1-0.9c-0.3-0.3-0.4-0.7-0.4-1.1c0-0.1,0-0.1,0-0.2c0.3,0.2,0.7,0.3,1.1,0.3c0.6,0,1.1-0.2,1.4-0.7
			c1-1.1,1.8-2.4,2.3-3.7l0.8-2.3l-1.5,1.6c-0.3,0.3-0.7,0.6-1.2,0.8c-0.3,0.1-0.6,0.2-1,0.2c-0.2,0-0.5,0-0.7-0.1
			c-0.4-0.1-0.8-0.4-1.1-0.6c-0.2-0.3-0.4-0.5-0.6-0.9c-0.2-0.4-0.3-0.8-0.4-1.3l-1.5-5.9c0-0.1,0-0.2,0-0.3v-0.1
			c0-0.2,0.2-0.4,0.4-0.5c0.1,0,0.2,0,0.4-0.1c0.3-0.1,0.6-0.1,0.9-0.1h0c0.6,0,1.2,0.1,1.8,0.3c0.5,0.2,0.9,0.4,1.4,0.6
			c0.2,0.1,0.3,0.2,0.5,0.3c0.3,0.3,0.5,0.6,0.5,1l0.2,2c0.1,0.4,0.1,0.7,0.2,1.1c0.1,0.3,0.2,0.5,0.4,0.8c0.2,0.2,0.5,0.3,0.7,0.1
			c0.4-0.4,0.8-0.9,1.1-1.4c0.4-0.6,0.6-1.2,0.8-1.9c0.1-0.5,0.2-0.9,0.3-1.4c0.1-0.4,0.4-0.6,0.7-0.6c0.1,0,0.1,0,0.1,0
			c0.3,0,0.5,0.1,0.8,0.2c1.2,0.4,2.3,1.2,3,2.3l0.1-1.4l0.3-10.5V2.2c0-0.1,0.1-0.2,0.1-0.2c0-0.1,0.1-0.1,0.2-0.2
			c0.1,0,0.2-0.1,0.4-0.1c0.1,0,0.1,0,0.2,0c0.1,0,0.2,0,0.4,0c0.3,0,0.7,0.1,1,0.2l1.1,0.4l1.1,0.4C84.7,2.8,85,3,85.2,3.1
			c0.3,0.2,0.5,0.4,0.7,0.6l0.2,0.2l0.1,0.2l0.1,0.3c0.1,0.2,0.1,0.3,0.1,0.5V5c0,0.5-0.1,0.9-0.2,1.4L85.8,9l-0.6,3.1l-0.3,1.6
			l-0.1,1.1c0,0.2,0,0.4,0,0.5l0.4-0.6l0.8-1.1c0.2-0.3,0.5-0.6,0.7-0.8c0.2-0.2,0.4-0.4,0.7-0.6c0.2-0.2,0.5-0.3,0.8-0.4
			c0.2-0.1,0.5-0.2,0.7-0.2c0.1,0,0.2,0,0.3,0c0.1,0,0.3,0,0.3,0c0.3,0,0.5,0.1,0.8,0.2c0.3,0.1,0.6,0.2,0.8,0.3
			c0.3,0.1,0.5,0.3,0.8,0.4c0.2,0.1,0.3,0.2,0.4,0.4c0.1,0.1,0.2,0.3,0.4,0.5C92.8,13.7,92.9,13.9,93,14.2 M98.6,17.6
			c0-0.3,0.1-0.6,0.1-0.8c0.1-0.3,0.3-0.7,0.4-0.9c0.2-0.3,0.4-0.6,0.6-0.8c0.2-0.2,0.3-0.3,0.5-0.4c0.1,0,0.2-0.1,0.3-0.1h0.2
			c0.1,0,0.3,0.1,0.3,0.3c0.1,0.1,0.1,0.3,0.1,0.4v0c0,0.2,0,0.5-0.1,0.7c-0.1,0.3-0.2,0.5-0.4,0.8c-0.2,0.2-0.3,0.4-0.5,0.6
			c-0.2,0.2-0.3,0.3-0.5,0.4c-0.2,0.1-0.4,0.2-0.5,0.2c0,0-0.1,0-0.1,0c-0.1,0-0.2,0-0.2-0.1C98.7,17.9,98.6,17.8,98.6,17.6
			C98.6,17.7,98.6,17.6,98.6,17.6 M104.1,20.4L104.1,20.4c-0.6,0.4-1.1,0.8-1.8,1.1c-0.3,0.1-0.6,0.2-0.9,0.2c-0.3,0-0.7,0-1.1-0.1
			c-0.6-0.1-1.2-0.5-1.5-1c-0.2-0.3-0.3-0.7-0.3-1l0.3,0c1.7,0,3.3-0.8,4.4-2.1c0.3-0.3,0.5-0.6,0.6-1c0.2-0.3,0.3-0.6,0.4-1
			c0.1-0.2,0.1-0.5,0.1-0.7c0-0.2,0-0.4-0.1-0.7c-0.1-0.3-0.1-0.5-0.3-0.7c-0.1-0.3-0.4-0.5-0.6-0.8c-0.3-0.3-0.6-0.6-0.8-0.8
			c-0.3-0.2-0.5-0.4-0.8-0.6c-0.3-0.2-0.6-0.4-1-0.5c-0.3-0.1-0.6-0.2-0.9-0.3c-0.2-0.1-0.4-0.1-0.7-0.1l-0.3,0c-0.1,0-0.3,0-0.4,0
			c-0.3,0-0.6,0.1-0.8,0.2c-0.3,0.1-0.6,0.2-0.9,0.4c-0.3,0.2-0.5,0.4-0.8,0.6c-0.2,0.2-0.4,0.3-0.6,0.5c-0.3,0.3-0.5,0.6-0.7,0.9
			c-0.3,0.4-0.5,0.7-0.7,1.2c-0.3,0.6-0.5,1.3-0.6,1.9c-0.1,0.4-0.1,0.8-0.1,1.3c0,0.9,0.2,1.7,0.5,2.5c0.2,0.4,0.3,0.7,0.6,1
			c0.2,0.3,0.4,0.6,0.7,0.9h0c0.3,0.3,0.6,0.5,0.9,0.7c0.4,0.3,0.8,0.5,1.3,0.7c0.7,0.3,1.5,0.5,2.3,0.5c0.7,0,1.4-0.1,2.1-0.4
			c0.4-0.1,0.8-0.3,1.1-0.6c0.6-0.4,1.1-0.9,1.6-1.5c0.1-0.1,0.1-0.2,0.1-0.4c0-0.1,0-0.2-0.1-0.3C104.3,20.5,104.2,20.4,104.1,20.4
			 M112.7,15.9c-0.1,0.3-0.3,0.7-0.5,1c-0.2,0.3-0.4,0.6-0.6,0.9c-0.2,0.3-0.5,0.6-0.8,0.9c-0.2,0.2-0.5,0.4-0.7,0.6
			c-0.1,0.1-0.3,0.2-0.5,0.2h-0.1c-0.1,0-0.2,0-0.4-0.1c-0.2-0.1-0.3-0.2-0.3-0.3c-0.1-0.1-0.1-0.3-0.1-0.4v-0.1
			c0-0.2,0.1-0.3,0.2-0.5c0.1-0.3,0.3-0.5,0.5-0.8c0.2-0.3,0.4-0.6,0.7-0.8c0.2-0.2,0.5-0.5,0.8-0.7c0.2-0.2,0.5-0.3,0.7-0.5
			c0.2-0.1,0.4-0.2,0.6-0.3c0.1,0,0.1,0,0.2,0c0.1,0,0.1,0,0.2,0c0.1,0.1,0.1,0.2,0.2,0.3C112.8,15.5,112.7,15.7,112.7,15.9
			 M117.4,14.6c-0.2-0.2-0.4-0.5-0.6-0.7c-0.2-0.2-0.4-0.3-0.7-0.4c-0.2-0.1-0.4-0.2-0.7-0.2c-0.1,0-0.3,0-0.4,0l-0.5,0
			c-0.2,0-0.4-0.1-0.5-0.2c-0.2-0.2-0.4-0.4-0.5-0.6c-0.2-0.2-0.4-0.5-0.7-0.7c-0.2-0.2-0.4-0.3-0.7-0.4c-0.3-0.1-0.5-0.2-0.8-0.2
			c-0.1,0-0.1,0-0.2,0c-0.2,0-0.4,0-0.5,0.1c-0.3,0.1-0.5,0.1-0.7,0.2c-0.3,0.1-0.6,0.3-0.9,0.4c-0.3,0.1-0.6,0.3-0.8,0.5
			c-0.4,0.2-0.7,0.5-1.1,0.8c-0.3,0.3-0.6,0.6-0.9,0.9c-0.3,0.3-0.5,0.6-0.7,1c-0.2,0.4-0.4,0.7-0.5,1.2c-0.1,0.3-0.2,0.6-0.3,0.9
			c-0.1,0.3-0.1,0.6-0.1,0.8c0,0.1,0,0.3,0,0.4c0,0.1,0,0.3,0,0.4c0,0.3,0,0.6,0.1,0.8c0.1,0.3,0.2,0.5,0.3,0.8
			c0.1,0.3,0.3,0.5,0.5,0.8c0.2,0.2,0.4,0.4,0.6,0.6c0.2,0.2,0.5,0.3,0.7,0.4c0.3,0.1,0.6,0.2,0.8,0.3c0.2,0,0.4,0,0.5,0l0.4,0
			c0.3,0,0.6-0.1,0.9-0.1c0.3-0.1,0.6-0.1,0.9-0.3c0.3-0.1,0.7-0.3,1-0.5c0.4-0.3,0.8-0.6,1.2-1v0c0.1,0.3,0.2,0.6,0.3,0.8
			c0.2,0.4,0.6,0.8,1,1c0.5,0.3,1.1,0.5,1.8,0.5c0.5,0,1.1-0.1,1.5-0.3c0.2-0.1,0.3-0.2,0.3-0.4v0c0-0.2,0-0.4-0.1-0.7l-0.1-0.6
			c0-0.3-0.1-0.6-0.1-0.9c0-0.4,0-0.8,0-1.2c0.1-0.5,0.2-1,0.3-1.5l0.3-1.3c0.1-0.2,0.1-0.4,0.1-0.6v0c0-0.1,0-0.2-0.1-0.3
			L117.4,14.6z M126.6,16.3c-0.1,0.2-0.2,0.4-0.3,0.5l-0.5,0.8l-0.5,0.7l-0.6,0.8l-0.3,0.3c-0.1,0.1-0.1,0.1-0.2,0.2
			c-0.1,0-0.2,0.1-0.2,0.1h-0.1c-0.1,0-0.2-0.1-0.3-0.1c-0.1-0.1-0.2-0.2-0.2-0.4c0-0.2,0.1-0.4,0.2-0.6c0.2-0.3,0.4-0.7,0.6-1
			c0.2-0.3,0.5-0.6,0.8-0.8c0.2-0.2,0.5-0.4,0.8-0.6c0.1-0.1,0.3-0.2,0.5-0.2h0.1c0.1,0,0.1,0,0.2,0.1c0,0,0.1,0.1,0.1,0.2
			C126.6,16.2,126.6,16.2,126.6,16.3 M134.4,7.9c0-0.1,0.1-0.4,0.1-0.6V7.2c0-0.2,0-0.3-0.1-0.4c-0.1-0.2-0.2-0.4-0.4-0.5
			c-0.3-0.2-0.7-0.4-1.1-0.5c-0.6-0.2-1.2-0.4-1.9-0.5c-0.4-0.1-0.8-0.1-1.1-0.1c-0.3,0-0.6,0-0.8,0.1c-0.1,0-0.2,0.1-0.2,0.2
			l-0.1,0.3l-0.1,0.8l0,1.3l0,0.3c0,0.6,0,1.1-0.1,1.7c-0.1,0.8-0.2,1.5-0.4,2.3c-0.1,0.5-0.3,1-0.4,1.5c-0.1,0.2-0.2,0.5-0.3,0.7
			c-0.1,0.1-0.2,0.1-0.3,0.1c-0.1-0.1-0.2-0.2-0.3-0.3c-0.1-0.1-0.3-0.3-0.4-0.4c-0.2-0.2-0.5-0.3-0.8-0.4c-0.3-0.1-0.6-0.2-0.9-0.3
			c-0.2,0-0.3,0-0.5,0c-0.1,0-0.2,0-0.3,0c-0.2,0-0.5,0-0.7,0.1c-0.4,0.1-0.7,0.2-1,0.4c-0.4,0.2-0.7,0.3-1,0.6
			c-0.3,0.2-0.6,0.4-0.9,0.7c-0.9,0.8-1.6,1.8-2.1,2.9c-0.2,0.5-0.4,1.1-0.4,1.7c0,0.4,0.1,0.8,0.2,1.2c0.2,0.6,0.6,1.1,1,1.6
			c0.7,0.6,1.5,1,2.4,1.1c0.2,0,0.4,0,0.6,0c0.7,0,1.4-0.1,2-0.5c0.7-0.4,1.4-0.8,2-1.4c0.5-0.5,1-0.9,1.4-1.5l0.6,1.2
			c0.2,0.4,0.4,0.7,0.6,1c0.3,0.3,0.6,0.6,0.9,0.8c0.3,0.2,0.6,0.4,0.9,0.5c0.3,0.1,0.6,0.2,0.8,0.3c0.2,0,0.4,0,0.5,0
			c0.1,0,0.2,0,0.3,0c0.3,0,0.5,0,0.8-0.1c0.2-0.1,0.4-0.2,0.6-0.3c0.2-0.1,0.3-0.2,0.3-0.4c0.1-0.1,0.1-0.2,0.1-0.3
			c0-0.1,0-0.1,0-0.2c0-0.2-0.1-0.4-0.2-0.6l-0.5-1.1c-0.2-0.5-0.3-1.1-0.4-1.6c-0.2-1.6-0.1-3.3,0.2-4.9
			C133.5,11.9,133.9,9.9,134.4,7.9"/>
	</g>
</g>
</svg>
