<svg xmlns="http://www.w3.org/2000/svg" width="67" height="67" viewBox="0 0 67 67">
  <g fill="none">
    <path fill="#FFF" d="M65.9152381,33.6036905 C65.9152381,51.5102381 51.3985714,66.0189286 33.5,66.0189286 C15.5934524,66.0189286 1.0847619,51.5022619 1.0847619,33.6036905 C1.0847619,15.705119 15.6014286,1.18845238 33.5,1.18845238 C51.4065476,1.18845238 65.9152381,15.705119 65.9152381,33.6036905"/>
    <path fill="#A4C7E2" d="M33.5,66.8245238 C15.1866667,66.8245238 0.287142857,51.925 0.287142857,33.6116667 C0.287142857,15.2983333 15.1866667,0.398809524 33.5,0.398809524 C51.8133333,0.398809524 66.7128571,15.2983333 66.7128571,33.6116667 C66.7128571,51.925 51.8133333,66.8245238 33.5,66.8245238 Z M33.5,1.98607143 C16.0640476,1.98607143 1.88238095,16.1677381 1.88238095,33.6036905 C1.88238095,51.0396429 16.0640476,65.2213095 33.5,65.2213095 C50.9359524,65.2213095 65.117619,51.0396429 65.117619,33.6036905 C65.117619,16.1677381 50.9359524,1.98607143 33.5,1.98607143 Z"/>
    <path fill="#DAE6F0" d="M33.5,62.1265476 L33.5,5.08083333 C49.2529762,5.08083333 62.0228571,17.8586905 62.0228571,33.6036905 C62.0228571,49.3566667 49.2529762,62.1265476 33.5,62.1265476 Z"/>
    <g transform="translate(20.738 14.357)">
      <path fill="#FFF" d="M12.9453571,37.7034524 C10.010119,37.7034524 7.71297619,35.382381 7.71297619,32.4232143 C7.71297619,29.4640476 10.010119,27.1429762 12.9453571,27.1429762 C15.8805952,27.1429762 18.1777381,29.4640476 18.1777381,32.4232143 C18.1777381,35.382381 15.8805952,37.7034524 12.9453571,37.7034524 Z M8.86154762,27.0153571 L8.9572619,25.332381 C9.14869048,21.8069048 10.2494048,20.0521429 12.6342857,17.4519048 C13.0091667,17.0291667 13.4239286,16.6064286 13.8386905,16.1916667 C15.2345238,14.779881 16.4389286,13.5595238 16.4389286,11.9563095 C16.4389286,10.0420238 15.1786905,8.90142857 13.065,8.90142857 C10.2813095,8.90142857 9.5475,11.055 9.41988095,12.8655952 L9.31619048,14.3491667 L0.287142857,14.3491667 L0.470595238,12.5864286 C1.21238095,5.53547619 6.2772619,0.789642857 13.065,0.789642857 C20.474881,0.789642857 25.0771429,5.04095238 25.0771429,11.8925 C25.0771429,16.3113095 22.1817857,19.2545238 19.6294048,21.8467857 L19.1747619,22.3094048 C17.5236905,24.0083333 17.3880952,24.8059524 17.3880952,25.4121429 L17.3880952,27.007381 L8.86154762,27.007381 L8.86154762,27.0153571 Z"/>
      <path fill="#A4C7E2" d="M18.0261905,21.2007143 C16.1597619,23.1229762 15.784881,24.3034524 15.784881,25.420119 L10.5445238,25.420119 C10.7040476,22.484881 11.4538095,21.0890476 13.8067857,18.5286905 C15.6253571,16.4947619 18.0261905,14.7878571 18.0261905,11.9563095 C18.0261905,9.22845238 16.1597619,7.30619048 13.0570238,7.30619048 C9.74690476,7.30619048 8.03202381,9.65916667 7.82464286,12.7539286 L2.05785714,12.7539286 C2.69595238,6.66011905 6.97119048,2.39285714 13.065,2.39285714 C19.637381,2.39285714 23.4819048,6.07785714 23.4819048,11.9004762 C23.4739286,15.9125 20.5386905,18.632381 18.0261905,21.2007143 Z M12.9453571,28.7302381 C14.9792857,28.7302381 16.5825,30.3334524 16.5825,32.4152381 C16.5825,34.4970238 14.9792857,36.1002381 12.9453571,36.1002381 C10.9114286,36.1002381 9.30821429,34.4970238 9.30821429,32.4152381 C9.31619048,30.3334524 10.9194048,28.7302381 12.9453571,28.7302381 Z"/>
    </g>
  </g>
</svg>
