<svg xmlns="http://www.w3.org/2000/svg" width="79" height="106" viewBox="0 0 79 106">
  <g fill="none" fill-rule="evenodd" transform="translate(0 1)">
    <path fill="#FFF" fill-rule="nonzero" d="M43.55,45.17 C43.55,55.67 35.04,64.19 24.53,64.19 C14.03,64.19 5.51,55.68 5.51,45.17 C5.51,34.67 14.02,26.15 24.53,26.15 C35.04,26.15 43.55,34.67 43.55,45.17"/>
    <path fill="#DAE6F0" fill-rule="nonzero" d="M24.54,64.1899974 L24.54,26.1500026 C35.0453975,26.1554049 43.55,34.6733304 43.55,45.17 C43.55,55.6666696 35.0453975,64.1845951 24.54,64.1899974 Z"/>
    <path fill="#FFF" fill-rule="nonzero" d="M26.94,30.5 L26.94,34.19 C30.6,34.99 32.26,37.61 32.72,39.87 L28.1,41.1 C27.9,40.07 27.33,38.34 24.71,38.34 C22.85,38.34 21.92,39.44 21.92,40.5 C21.92,41.4 22.58,42.09 23.88,42.39 L26.77,43.02 C31.22,44.02 32.98,46.61 32.98,49.6 C32.98,52.66 30.79,55.51 26.93,56.21 L26.93,59.83 L23.11,59.83 L23.11,56.28 C18.43,55.52 16.3,52.06 16.07,49.34 L20.66,48.31 C20.83,50.24 22.15,51.96 25.01,51.96 C26.67,51.96 27.87,51.16 27.87,49.87 C27.87,48.91 27.14,48.28 25.81,47.98 L22.85,47.28 C19.13,46.38 16.84,44.12 16.84,40.97 C16.84,37.25 19.63,34.69 23.12,34.09 L23.12,30.5 L26.94,30.5 L26.94,30.5 Z M27.94,29.5 L26.94,29.5 L23.12,29.5 L22.12,29.5 L22.12,30.5 L22.12,33.28 C18.33,34.26 15.84,37.26 15.84,40.96 C15.84,43.76 17.42,46.04 20.18,47.38 L15.85,48.35 L15,48.54 L15.07,49.41 C15.34,52.53 17.62,56.01 22.11,57.09 L22.11,59.83 L22.11,60.83 L23.11,60.83 L26.93,60.83 L27.93,60.83 L27.93,59.83 L27.93,57.01 C31.58,56.03 33.98,53.14 33.98,49.6 C33.98,47.46 33.15,43.74 27.72,42.23 L28.35,42.06 L32.97,40.83 L33.88,40.59 L33.69,39.66 C33.06,36.62 30.94,34.33 27.93,33.41 L27.93,30.49 L27.93,29.5 L27.94,29.5 Z M27.29,42.12 C27.2,42.1 27.1,42.07 27,42.05 L24.1,41.42 C23.57,41.3 22.93,41.04 22.93,40.5 C22.93,39.94 23.49,39.34 24.72,39.34 C26.5,39.34 26.93,40.28 27.13,41.29 L27.29,42.12 L27.29,42.12 Z M25.02,50.96 C22.21,50.96 21.74,49.04 21.67,48.22 L21.65,47.97 C21.97,48.07 22.29,48.17 22.63,48.25 L25.59,48.95 C26.88,49.24 26.88,49.71 26.88,49.87 C26.87,50.68 25.87,50.96 25.02,50.96 L25.02,50.96 Z"/>
    <path fill="#A4C7E2" fill-rule="nonzero" d="M23.12,59.84 L23.12,56.29 C18.44,55.53 16.31,52.07 16.08,49.35 L20.67,48.32 C20.84,50.25 22.16,51.97 25.02,51.97 C26.68,51.97 27.88,51.17 27.88,49.88 C27.88,48.92 27.15,48.29 25.82,47.99 L22.86,47.29 C19.14,46.39 16.85,44.14 16.85,40.98 C16.85,37.26 19.64,34.7 23.13,34.1 L23.13,30.51 L26.95,30.51 L26.95,34.2 C30.61,35 32.27,37.62 32.73,39.88 L28.11,41.11 C27.91,40.08 27.35,38.35 24.72,38.35 C22.86,38.35 21.93,39.45 21.93,40.51 C21.93,41.41 22.59,42.1 23.89,42.4 L26.78,43.03 C31.23,44.03 32.99,46.62 32.99,49.61 C32.99,52.67 30.8,55.52 26.94,56.22 L26.94,59.84 L23.12,59.84 L23.12,59.84 Z"/>
    <circle cx="24.54" cy="45.17" r="22.59" stroke="#A4C7E2" stroke-width="2"/>
    <path fill="#DAE6F0" fill-rule="nonzero" d="M60.77,31.15 C68.48,31.15 74.73,24.9 74.73,17.19 C74.73,9.48 68.48,3.23 60.77,3.23 L60.77,31.15 Z"/>
    <path fill="#FFF" fill-rule="nonzero" d="M62.54,6.42 L62.54,9.13 C65.22,9.72 66.44,11.64 66.78,13.3 L63.39,14.2 C63.24,13.44 62.83,12.18 60.9,12.18 C59.53,12.18 58.85,12.98 58.85,13.76 C58.85,14.42 59.34,14.93 60.29,15.15 L62.41,15.61 C65.68,16.34 66.97,18.24 66.97,20.44 C66.97,22.68 65.36,24.78 62.53,25.29 L62.53,27.95 L59.73,27.95 L59.73,25.34 C56.29,24.78 54.73,22.24 54.56,20.24 L57.93,19.48 C58.05,20.89 59.03,22.16 61.12,22.16 C62.34,22.16 63.22,21.58 63.22,20.62 C63.22,19.91 62.68,19.45 61.71,19.23 L59.54,18.72 C56.81,18.06 55.13,16.4 55.13,14.09 C55.13,11.36 57.18,9.48 59.74,9.04 L59.74,6.41 L62.54,6.41 L62.54,6.42 Z M63.54,5.42 L62.54,5.42 L59.74,5.42 L58.74,5.42 L58.74,6.42 L58.74,8.26 C55.95,9.06 54.13,11.32 54.13,14.1 C54.13,16.04 55.11,17.66 56.83,18.71 L54.35,19.27 L53.5,19.46 L53.57,20.33 C53.77,22.67 55.44,25.27 58.74,26.15 L58.74,27.95 L58.74,28.95 L59.74,28.95 L62.54,28.95 L63.54,28.95 L63.54,27.95 L63.54,26.08 C66.23,25.28 67.98,23.1 67.98,20.44 C67.98,17.94 66.57,16.04 64.05,15.06 L67.05,14.26 L67.96,14.02 L67.77,13.09 C67.3,10.83 65.75,9.1 63.55,8.36 L63.55,6.41 L63.55,5.42 L63.54,5.42 Z M62.45,14.6 L60.51,14.18 C60.41,14.16 59.86,14.02 59.86,13.77 C59.86,13.48 60.22,13.19 60.91,13.19 C61.97,13.19 62.27,13.64 62.42,14.4 L62.45,14.6 L62.45,14.6 Z M61.13,21.17 C59.53,21.17 59.08,20.27 58.96,19.61 C59.08,19.64 59.19,19.67 59.31,19.7 L61.48,20.21 C61.66,20.25 62.22,20.39 62.22,20.63 C62.22,21.06 61.53,21.17 61.13,21.17 L61.13,21.17 Z"/>
    <circle cx="60.77" cy="17.19" r="16.58" stroke="#A4C7E2" stroke-width="2"/>
    <path fill="#A4C7E2" fill-rule="nonzero" d="M59.74,27.95 L59.74,25.34 C56.3,24.78 54.74,22.24 54.57,20.24 L57.94,19.48 C58.06,20.89 59.04,22.16 61.13,22.16 C62.35,22.16 63.23,21.58 63.23,20.62 C63.23,19.91 62.69,19.45 61.72,19.23 L59.55,18.72 C56.82,18.06 55.14,16.4 55.14,14.09 C55.14,11.36 57.19,9.48 59.75,9.04 L59.75,6.41 L62.55,6.41 L62.55,9.12 C65.23,9.7 66.45,11.63 66.79,13.29 L63.4,14.19 C63.25,13.43 62.84,12.17 60.91,12.17 C59.54,12.17 58.86,12.97 58.86,13.75 C58.86,14.41 59.35,14.92 60.3,15.14 L62.42,15.6 C65.69,16.33 66.98,18.23 66.98,20.43 C66.98,22.67 65.37,24.77 62.54,25.28 L62.54,27.94 L59.74,27.94 L59.74,27.95 Z"/>
    <path fill="#FFF" fill-rule="nonzero" d="M44.19,85.37 L24.03,73.03 C22.36,72.01 20.18,72.53 19.16,74.2 C18.14,75.87 18.66,78.05 20.33,79.07"/>
    <path stroke="#A4C7E2" stroke-width="2" d="M44.19,85.37 L24.03,73.03 C22.36,72.01 20.18,72.53 19.16,74.2 C18.14,75.87 18.66,78.05 20.33,79.07"/>
    <path fill="#FFF" fill-rule="nonzero" d="M38.62,87 L18.46,74.66 C16.79,73.64 14.61,74.16 13.59,75.83 C12.57,77.5 13.09,79.68 14.76,80.7"/>
    <path stroke="#A4C7E2" stroke-width="2" d="M38.62,87 L18.46,74.66 C16.79,73.64 14.61,74.16 13.59,75.83 C12.57,77.5 13.09,79.68 14.76,80.7"/>
    <path fill="#FFF" fill-rule="nonzero" d="M32.74,88.45 L12.58,76.11 C10.91,75.09 8.73,75.61 7.71,77.28 L7.71,77.28 C6.69,78.95 7.21,81.13 8.88,82.15"/>
    <path stroke="#A4C7E2" stroke-width="2" d="M32.74,88.45 L12.58,76.11 C10.91,75.09 8.73,75.61 7.71,77.28 L7.71,77.28 C6.69,78.95 7.21,81.13 8.88,82.15"/>
    <path fill="#FFF" fill-rule="nonzero" d="M26.54,89.69 L6.38,77.35 C4.71,76.33 2.53,76.85 1.51,78.52 L1.51,78.52 C0.49,80.19 1.01,82.37 2.68,83.39 L22.84,95.73"/>
    <path stroke="#A4C7E2" stroke-width="2" d="M26.54,89.69 L6.38,77.35 C4.71,76.33 2.53,76.85 1.51,78.52 L1.51,78.52 C0.49,80.19 1.01,82.37 2.68,83.39 L22.84,95.73"/>
    <path fill="#FFF" fill-rule="nonzero" d="M44.28,88.38 L28.73,92.12 C26.9,92.56 25.06,91.44 24.62,89.61 C24.18,87.78 25.3,85.94 27.13,85.5 L32.31,84.25 C34.72,83.67 36.91,82.41 38.68,80.67 C42.89,76.53 49.52,75.62 54.79,78.84 L72.67,89.78"/>
    <path stroke="#A4C7E2" stroke-width="2" d="M44.28,88.38 L28.73,92.12 C26.9,92.56 25.06,91.44 24.62,89.61 C24.18,87.78 25.3,85.94 27.13,85.5 L32.31,84.25 C34.72,83.67 36.91,82.41 38.68,80.67 C42.89,76.53 49.52,75.62 54.79,78.84 L72.67,89.78"/>
    <path stroke="#A4C7E2" stroke-width="2" d="M6.07,85.53 L6.07,85.53 L26.38,97.89 C32.01,101.31 39.08,101.3 44.7,97.86 L48.61,95.44 C50.21,94.45 52.24,94.44 53.85,95.43 L56.43,97.01"/>
    <polyline fill="#FFF" fill-rule="nonzero" points="74.07 88.75 61.62 81.13 52.41 96.18 64.86 103.79"/>
    <polyline stroke="#A4C7E2" stroke-width="2" points="74.07 88.75 61.62 81.13 52.41 96.18 64.86 103.79"/>
    <path fill="#FFF" stroke="#A4C7E2" stroke-width="1.23" d="M31.09 17.3C31.22 17.8 31.46 17.8 31.61 17.31L32.2 15.39C32.35 14.9 32.88 14.39 33.38 14.25L35.32 13.73C35.82 13.6 35.82 13.36 35.33 13.21L33.41 12.62C32.92 12.47 32.41 11.94 32.27 11.44L31.75 9.5C31.62 9 31.38 9 31.23 9.49L30.64 11.41C30.49 11.9 29.96 12.41 29.46 12.55L27.52 13.07C27.02 13.2 27.02 13.44 27.51 13.59L29.43 14.18C29.92 14.33 30.43 14.86 30.57 15.36L31.09 17.3zM54.9 46.3C54.98 46.61 55.13 46.62 55.23 46.31L55.6 45.1C55.7 44.79 56.03 44.47 56.34 44.38L57.56 44.05C57.88 43.96 57.88 43.82 57.57 43.72L56.36 43.35C56.05 43.25 55.73 42.92 55.64 42.61L55.31 41.39C55.23 41.08 55.08 41.07 54.98 41.38L54.61 42.59C54.51 42.9 54.18 43.22 53.87 43.31L52.65 43.64C52.33 43.72 52.33 43.87 52.64 43.97L53.85 44.34C54.16 44.44 54.48 44.77 54.57 45.08L54.9 46.3z"/>
  </g>
</svg>
