<svg xmlns="http://www.w3.org/2000/svg" width="123" height="85" viewBox="0 0 123 85">
  <g fill="none" fill-rule="evenodd" transform="translate(1 1)">
    <rect width="114" height="38" x="3" y="5" fill="#FFF" fill-rule="nonzero"/>
    <rect width="114" height="38" x="3" y="5" stroke="#A4C7E2" stroke-width="2"/>
    <path fill="#FFF" fill-rule="nonzero" d="M6.7804878,0 L4.2195122,0 C3.54323725,0 3,0.54286468 3,1.21867581 L3,40.7813242 C3,41.4571353 3.54323725,42 4.2195122,42 L6.7804878,42 C7.45676275,42 8,41.4571353 8,40.7813242 L8,1.21867581 C8,0.54286468 7.45676275,0 6.7804878,0"/>
    <path stroke="#A4C7E2" stroke-width="2" d="M6.7804878,0 L4.2195122,0 C3.54323725,0 3,0.54286468 3,1.21867581 L3,40.7813242 C3,41.4571353 3.54323725,42 4.2195122,42 L6.7804878,42 C7.45676275,42 8,41.4571353 8,40.7813242 L8,1.21867581 C8,0.54286468 7.45676275,0 6.7804878,0 Z"/>
    <path fill="#FFF" fill-rule="nonzero" d="M115.780488,0 L113.219512,0 C112.543237,0 112,0.54286468 112,1.21867581 L112,40.7813242 C112,41.4571353 112.543237,42 113.219512,42 L115.780488,42 C116.456763,42 117,41.4571353 117,40.7813242 L117,1.21867581 C117,0.54286468 116.456763,0 115.780488,0"/>
    <path stroke="#A4C7E2" stroke-width="2" d="M115.780488,0 L113.219512,0 C112.543237,0 112,0.54286468 112,1.21867581 L112,40.7813242 C112,41.4571353 112.543237,42 113.219512,42 L115.780488,42 C116.456763,42 117,41.4571353 117,40.7813242 L117,1.21867581 C117,0.54286468 116.456763,0 115.780488,0 Z"/>
    <path fill="#FFF" fill-rule="nonzero" d="M49.2897875,34 L21.7213921,34 C17.4628594,34 14,30.5819975 14,26.3649815 L14,23.6461159 C14,19.4290999 17.4516528,16 21.7213921,16 L49.2897875,16 C53.5483201,16 56.9999729,19.4180025 56.9999729,23.6461159 L56.9999729,26.3649815 C57.0111795,30.5819975 53.5483201,34 49.2897875,34"/>
    <path fill="#DAE6F0" fill-rule="nonzero" d="M57,31 L35,31 L35,16 L47.8849105,16 C52.9263427,16 57,20.1312595 57,25.2185129 L57,31 Z"/>
    <path stroke="#A4C7E2" stroke-width="2" d="M49.2897875,34 L21.7213921,34 C17.4628594,34 14,30.5819975 14,26.3649815 L14,23.6461159 C14,19.4290999 17.4516528,16 21.7213921,16 L49.2897875,16 C53.5483201,16 56.9999729,19.4180025 56.9999729,23.6461159 L56.9999729,26.3649815 C57.0111795,30.5819975 53.5483201,34 49.2897875,34 Z"/>
    <path fill="#FFF" fill-rule="nonzero" d="M99.2897875,34 L71.7213921,34 C67.4628594,34 64,30.5819975 64,26.3649815 L64,23.6461159 C64,19.4290999 67.4516528,16 71.7213921,16 L99.2897875,16 C103.54832,16 106.999973,19.4180025 106.999973,23.6461159 L106.999973,26.3649815 C107.01118,30.5819975 103.54832,34 99.2897875,34"/>
    <path fill="#DAE6F0" fill-rule="nonzero" d="M107,31 L85,31 L85,16 L97.8849105,16 C102.926343,16 107,20.1312595 107,25.2185129 L107,31 L107,31 Z"/>
    <path stroke="#A4C7E2" stroke-width="2" d="M99.2897875,34 L71.7213921,34 C67.4628594,34 64,30.5819975 64,26.3649815 L64,23.6461159 C64,19.4290999 67.4516528,16 71.7213921,16 L99.2897875,16 C103.54832,16 106.999973,19.4180025 106.999973,23.6461159 L106.999973,26.3649815 C107.01118,30.5819975 103.54832,34 99.2897875,34 Z"/>
    <path fill="#FFF" fill-rule="nonzero" d="M121,82 L121,40.466203 C121,35.2453814 116.725726,31 111.455613,31 L9.54438691,31 C4.27427409,31 0,35.2342969 0,40.466203 L0,82"/>
    <path stroke="#A4C7E2" stroke-width="2" d="M121,83.9887759 L121,40.5741211 C121,35.28759 116.725331,31 111.45473,31 L9.54526958,31 C4.27466938,31 0,35.28759 0,40.5853452 L0,84"/>
    <path fill="#DAE6F0" fill-rule="nonzero" d="M109.880624,35.0110636 C113.817088,35.0110636 117,38.1531305 117,42.0143324 L117,79 L60,79 L60,35 L66.4782952,35 L109.880624,35 L109.880624,35.0110636 Z"/>
  </g>
</svg>
