<svg xmlns="http://www.w3.org/2000/svg" width="75" height="84" viewBox="0 0 75 84">
  <g fill="none" fill-rule="evenodd" transform="translate(0 1)">
    <path fill="#DAE6F0" fill-rule="nonzero" d="M36.5,42.19 C47.01,42.19 55.52,33.67 55.52,23.17 C55.52,12.67 47.01,4.15 36.5,4.15 L36.5,42.19 Z"/>
    <path fill="#FFF" fill-rule="nonzero" d="M38.91,8.5 L38.91,12.19 C42.57,12.99 44.23,15.61 44.69,17.87 L40.07,19.1 C39.87,18.07 39.3,16.34 36.68,16.34 C34.82,16.34 33.89,17.44 33.89,18.5 C33.89,19.4 34.55,20.09 35.85,20.39 L38.74,21.02 C43.19,22.02 44.95,24.61 44.95,27.6 C44.95,30.66 42.76,33.51 38.9,34.21 L38.9,37.83 L35.08,37.83 L35.08,34.28 C30.4,33.52 28.27,30.06 28.04,27.34 L32.62,26.31 C32.79,28.24 34.11,29.96 36.97,29.96 C38.63,29.96 39.83,29.16 39.83,27.87 C39.83,26.91 39.1,26.28 37.77,25.98 L34.81,25.28 C31.09,24.38 28.8,22.12 28.8,18.97 C28.8,15.25 31.59,12.69 35.08,12.09 L35.08,8.5 L38.91,8.5 L38.91,8.5 Z M39.91,7.5 L38.91,7.5 L35.09,7.5 L34.09,7.5 L34.09,8.5 L34.09,11.28 C30.3,12.26 27.81,15.26 27.81,18.96 C27.81,21.76 29.39,24.04 32.15,25.38 L27.82,26.35 L26.97,26.54 L27.04,27.41 C27.31,30.53 29.59,34.01 34.08,35.09 L34.08,37.83 L34.08,38.83 L35.08,38.83 L38.9,38.83 L39.9,38.83 L39.9,37.83 L39.9,35.01 C43.55,34.03 45.95,31.14 45.95,27.6 C45.95,25.46 45.12,21.74 39.69,20.23 L40.32,20.06 L44.94,18.83 L45.85,18.59 L45.66,17.67 C45.03,14.63 42.91,12.34 39.9,11.42 L39.9,8.5 L39.9,7.5 L39.91,7.5 Z M39.25,20.12 C39.16,20.1 39.06,20.07 38.96,20.05 L36.06,19.42 C35.53,19.3 34.89,19.04 34.89,18.5 C34.89,17.94 35.45,17.34 36.68,17.34 C38.46,17.34 38.89,18.28 39.09,19.29 L39.25,20.12 L39.25,20.12 Z M36.98,28.96 C34.17,28.96 33.7,27.04 33.63,26.22 L33.61,25.97 C33.93,26.07 34.25,26.17 34.59,26.25 L37.55,26.95 C38.84,27.24 38.84,27.71 38.84,27.87 C38.84,28.68 37.84,28.96 36.98,28.96 L36.98,28.96 Z"/>
    <circle cx="36.5" cy="23.17" r="22.59" stroke="#A4C7E2" stroke-width="2"/>
    <path fill="#FFF" fill-rule="nonzero" d="M44.18,63.37 L24.02,51.03 C22.35,50.01 20.17,50.53 19.15,52.2 C18.13,53.87 18.65,56.05 20.32,57.07"/>
    <path fill="#A4C7E2" fill-rule="nonzero" d="M35.09,37.84 L35.09,34.29 C30.41,33.53 28.28,30.07 28.05,27.35 L32.64,26.32 C32.81,28.25 34.13,29.97 36.99,29.97 C38.65,29.97 39.85,29.17 39.85,27.88 C39.85,26.92 39.12,26.29 37.79,25.99 L34.83,25.29 C31.11,24.39 28.82,22.14 28.82,18.98 C28.82,15.26 31.61,12.7 35.1,12.1 L35.1,8.51 L38.92,8.51 L38.92,12.2 C42.58,13 44.24,15.62 44.7,17.88 L40.08,19.11 C39.88,18.08 39.32,16.35 36.69,16.35 C34.83,16.35 33.9,17.45 33.9,18.51 C33.9,19.41 34.56,20.1 35.86,20.4 L38.75,21.03 C43.2,22.03 44.96,24.62 44.96,27.61 C44.96,30.67 42.77,33.52 38.91,34.22 L38.91,37.84 L35.09,37.84 L35.09,37.84 Z"/>
    <path stroke="#A4C7E2" stroke-width="2" d="M44.18,63.37 L24.02,51.03 C22.35,50.01 20.17,50.53 19.15,52.2 C18.13,53.87 18.65,56.05 20.32,57.07"/>
    <path fill="#FFF" fill-rule="nonzero" d="M38.61,65 L18.45,52.66 C16.78,51.64 14.6,52.16 13.58,53.83 C12.56,55.5 13.08,57.68 14.75,58.7"/>
    <path stroke="#A4C7E2" stroke-width="2" d="M38.61,65 L18.45,52.66 C16.78,51.64 14.6,52.16 13.58,53.83 C12.56,55.5 13.08,57.68 14.75,58.7"/>
    <path fill="#FFF" fill-rule="nonzero" d="M32.72,66.45 L12.56,54.11 C10.89,53.09 8.71,53.61 7.69,55.28 L7.69,55.28 C6.67,56.95 7.19,59.13 8.86,60.15"/>
    <path stroke="#A4C7E2" stroke-width="2" d="M32.72,66.45 L12.56,54.11 C10.89,53.09 8.71,53.61 7.69,55.28 L7.69,55.28 C6.67,56.95 7.19,59.13 8.86,60.15"/>
    <path fill="#FFF" fill-rule="nonzero" d="M26.52,67.69 L6.36,55.35 C4.69,54.33 2.51,54.85 1.49,56.52 L1.49,56.52 C0.47,58.19 0.99,60.37 2.66,61.39 L22.82,73.73"/>
    <path stroke="#A4C7E2" stroke-width="2" d="M26.52,67.69 L6.36,55.35 C4.69,54.33 2.51,54.85 1.49,56.52 L1.49,56.52 C0.47,58.19 0.99,60.37 2.66,61.39 L22.82,73.73"/>
    <path fill="#FFF" fill-rule="nonzero" d="M44.27,66.38 L28.72,70.12 C26.89,70.56 25.05,69.44 24.61,67.61 C24.17,65.78 25.29,63.94 27.12,63.5 L32.3,62.25 C34.71,61.67 36.9,60.41 38.67,58.67 C42.88,54.53 49.51,53.62 54.78,56.84 L72.66,67.78"/>
    <path stroke="#A4C7E2" stroke-width="2" d="M44.27,66.38 L28.72,70.12 C26.89,70.56 25.05,69.44 24.61,67.61 C24.17,65.78 25.29,63.94 27.12,63.5 L32.3,62.25 C34.71,61.67 36.9,60.41 38.67,58.67 C42.88,54.53 49.51,53.62 54.78,56.84 L72.66,67.78"/>
    <path stroke="#A4C7E2" stroke-width="2" d="M6.05,63.53 L6.05,63.53 L26.36,75.89 C31.99,79.31 39.06,79.3 44.68,75.86 L48.59,73.44 C50.19,72.45 52.22,72.44 53.83,73.43 L56.41,75.01"/>
    <polyline fill="#FFF" fill-rule="nonzero" points="74.05 66.75 61.6 59.13 52.4 74.18 64.85 81.79"/>
    <polyline stroke="#A4C7E2" stroke-width="2" points="74.05 66.75 61.6 59.13 52.4 74.18 64.85 81.79"/>
  </g>
</svg>
