<svg xmlns="http://www.w3.org/2000/svg" width="81" height="129" viewBox="0 0 81 129">
  <g fill="none" fill-rule="evenodd">
    <path fill="#DAE6F0" fill-rule="nonzero" d="M26.6,88.19 C37.11,88.19 45.62,79.67 45.62,69.17 C45.62,58.67 37.11,50.15 26.6,50.15 L26.6,88.19 Z"/>
    <path fill="#FFF" fill-rule="nonzero" d="M29.01,54.5 L29.01,58.19 C32.67,58.99 34.33,61.61 34.79,63.87 L30.17,65.1 C29.97,64.07 29.4,62.34 26.78,62.34 C24.92,62.34 23.99,63.44 23.99,64.5 C23.99,65.4 24.65,66.09 25.95,66.39 L28.84,67.02 C33.29,68.02 35.05,70.61 35.05,73.6 C35.05,76.66 32.86,79.51 29,80.21 L29,83.83 L25.18,83.83 L25.18,80.28 C20.5,79.52 18.37,76.06 18.14,73.34 L22.73,72.31 C22.9,74.24 24.22,75.96 27.08,75.96 C28.74,75.96 29.94,75.16 29.94,73.87 C29.94,72.91 29.21,72.28 27.88,71.98 L24.92,71.28 C21.2,70.38 18.91,68.12 18.91,64.97 C18.91,61.25 21.7,58.69 25.19,58.09 L25.19,54.5 L29.01,54.5 L29.01,54.5 Z M30.01,53.5 L29.01,53.5 L25.19,53.5 L24.19,53.5 L24.19,54.5 L24.19,57.28 C20.4,58.26 17.91,61.26 17.91,64.96 C17.91,67.76 19.49,70.04 22.25,71.38 L17.92,72.35 L17.07,72.54 L17.14,73.41 C17.41,76.53 19.69,80.01 24.18,81.09 L24.18,83.83 L24.18,84.83 L25.18,84.83 L29,84.83 L30,84.83 L30,83.83 L30,81.01 C33.65,80.03 36.05,77.14 36.05,73.6 C36.05,71.46 35.22,67.74 29.79,66.23 L30.42,66.06 L35.04,64.83 L35.95,64.59 L35.76,63.66 C35.13,60.62 33.01,58.33 30,57.41 L30,54.49 L30,53.5 L30.01,53.5 Z M29.35,66.12 C29.26,66.1 29.16,66.07 29.06,66.05 L26.16,65.42 C25.63,65.3 24.99,65.04 24.99,64.5 C24.99,63.94 25.55,63.34 26.78,63.34 C28.56,63.34 28.99,64.28 29.19,65.29 L29.35,66.12 L29.35,66.12 Z M27.08,74.96 C24.27,74.96 23.8,73.04 23.73,72.22 L23.71,71.97 C24.03,72.07 24.35,72.17 24.69,72.25 L27.65,72.95 C28.94,73.24 28.94,73.71 28.94,73.87 C28.94,74.68 27.94,74.96 27.08,74.96 L27.08,74.96 Z"/>
    <path fill="#A4C7E2" fill-rule="nonzero" d="M25.19,83.84 L25.19,80.29 C20.51,79.53 18.38,76.07 18.15,73.35 L22.74,72.32 C22.91,74.25 24.23,75.97 27.09,75.97 C28.75,75.97 29.95,75.17 29.95,73.88 C29.95,72.92 29.22,72.29 27.89,71.99 L24.93,71.29 C21.21,70.39 18.92,68.14 18.92,64.98 C18.92,61.26 21.71,58.7 25.2,58.1 L25.2,54.51 L29.02,54.51 L29.02,58.2 C32.68,59 34.34,61.62 34.8,63.88 L30.18,65.11 C29.98,64.08 29.42,62.35 26.79,62.35 C24.93,62.35 24,63.45 24,64.51 C24,65.41 24.66,66.1 25.96,66.4 L28.85,67.03 C33.3,68.03 35.06,70.62 35.06,73.61 C35.06,76.67 32.87,79.52 29.01,80.22 L29.01,83.84 L25.19,83.84 L25.19,83.84 Z"/>
    <circle cx="26.6" cy="69.17" r="22.59" stroke="#A4C7E2" stroke-width="2"/>
    <path fill="#DAE6F0" fill-rule="nonzero" d="M62.84,55.15 C70.55,55.15 76.8,48.9 76.8,41.19 C76.8,33.48 70.55,27.23 62.84,27.23 L62.84,55.15 Z"/>
    <circle cx="62.84" cy="41.19" r="16.58" stroke="#A4C7E2" stroke-width="2"/>
    <path fill="#A4C7E2" fill-rule="nonzero" d="M61.8,51.95 L61.8,49.34 C58.36,48.78 56.8,46.24 56.63,44.24 L60,43.48 C60.12,44.89 61.1,46.16 63.19,46.16 C64.41,46.16 65.29,45.58 65.29,44.62 C65.29,43.91 64.75,43.45 63.78,43.23 L61.61,42.72 C58.88,42.06 57.2,40.4 57.2,38.09 C57.2,35.36 59.25,33.48 61.81,33.04 L61.81,30.41 L64.61,30.41 L64.61,33.12 C67.29,33.7 68.51,35.63 68.85,37.29 L65.46,38.19 C65.31,37.43 64.9,36.17 62.97,36.17 C61.6,36.17 60.92,36.97 60.92,37.75 C60.92,38.41 61.41,38.92 62.36,39.14 L64.48,39.6 C67.75,40.33 69.04,42.23 69.04,44.43 C69.04,46.67 67.43,48.77 64.6,49.28 L64.6,51.94 L61.8,51.94 L61.8,51.95 Z"/>
    <path fill="#DAE6F0" fill-rule="nonzero" d="M27.91,37.09 C33.95,37.09 38.85,32.19 38.85,26.15 C38.85,20.11 33.96,15.21 27.91,15.21 L27.91,37.09 Z"/>
    <path fill="#FFF" fill-rule="nonzero" d="M29.3,17.71 L29.3,19.83 C31.4,20.29 32.36,21.8 32.62,23.1 L29.96,23.81 C29.85,23.22 29.52,22.22 28.01,22.22 C26.94,22.22 26.41,22.85 26.41,23.46 C26.41,23.98 26.79,24.38 27.54,24.55 L29.2,24.91 C31.76,25.48 32.77,26.97 32.77,28.69 C32.77,30.45 31.51,32.09 29.29,32.49 L29.29,34.57 L27.09,34.57 L27.09,32.53 C24.4,32.09 23.17,30.1 23.04,28.54 L25.68,27.95 C25.78,29.06 26.54,30.05 28.18,30.05 C29.14,30.05 29.82,29.59 29.82,28.85 C29.82,28.3 29.4,27.93 28.64,27.76 L26.94,27.36 C24.8,26.84 23.48,25.55 23.48,23.73 C23.48,21.59 25.08,20.12 27.09,19.78 L27.09,17.72 L29.3,17.72 L29.3,17.71 Z M30.3,16.71 L29.3,16.71 L27.1,16.71 L26.1,16.71 L26.1,17.71 L26.1,18.99 C23.91,19.68 22.49,21.5 22.49,23.73 C22.49,25.16 23.13,26.38 24.29,27.24 L22.83,27.57 L21.98,27.76 L22.05,28.63 C22.21,30.5 23.52,32.58 26.1,33.34 L26.1,34.59 L26.1,35.59 L27.1,35.59 L29.3,35.59 L30.3,35.59 L30.3,34.59 L30.3,33.28 C32.38,32.58 33.78,30.8 33.78,28.7 C33.78,26.84 32.84,25.39 31.13,24.53 L32.88,24.06 L33.79,23.82 L33.6,22.89 C33.23,21.09 32.02,19.71 30.3,19.08 L30.3,17.71 L30.3,16.71 L30.3,16.71 Z M28.95,23.84 L27.75,23.58 C27.47,23.52 27.39,23.43 27.39,23.43 C27.41,23.39 27.58,23.23 28.01,23.23 C28.64,23.22 28.84,23.42 28.95,23.84 L28.95,23.84 Z M28.19,29.05 C27.37,29.05 26.98,28.73 26.81,28.35 L28.42,28.73 C28.64,28.78 28.77,28.84 28.82,28.87 C28.77,28.96 28.54,29.05 28.19,29.05 L28.19,29.05 Z"/>
    <circle cx="27.91" cy="26.15" r="12.99" stroke="#A4C7E2" stroke-width="2"/>
    <path fill="#A4C7E2" fill-rule="nonzero" d="M27.1,34.58 L27.1,32.54 C24.41,32.1 23.18,30.11 23.05,28.55 L25.69,27.96 C25.79,29.07 26.55,30.06 28.19,30.06 C29.15,30.06 29.83,29.6 29.83,28.86 C29.83,28.31 29.41,27.94 28.65,27.77 L26.95,27.37 C24.81,26.85 23.49,25.56 23.49,23.74 C23.49,21.6 25.09,20.13 27.1,19.79 L27.1,17.73 L29.3,17.73 L29.3,19.85 C31.4,20.31 32.36,21.82 32.62,23.12 L29.96,23.83 C29.84,23.24 29.52,22.24 28.01,22.24 C26.94,22.24 26.41,22.87 26.41,23.48 C26.41,24 26.79,24.4 27.54,24.57 L29.2,24.93 C31.76,25.5 32.77,26.99 32.77,28.71 C32.77,30.47 31.51,32.11 29.29,32.51 L29.29,34.59 L27.1,34.59 L27.1,34.58 Z"/>
    <path fill="#FFF" fill-rule="nonzero" d="M46.26,109.37 L26.1,97.03 C24.43,96.01 22.25,96.53 21.23,98.2 C20.21,99.87 20.73,102.05 22.4,103.07"/>
    <path stroke="#A4C7E2" stroke-width="2" d="M46.26,109.37 L26.1,97.03 C24.43,96.01 22.25,96.53 21.23,98.2 C20.21,99.87 20.73,102.05 22.4,103.07"/>
    <path fill="#FFF" fill-rule="nonzero" d="M40.69,111 L20.53,98.66 C18.86,97.64 16.68,98.16 15.66,99.83 C14.64,101.5 15.16,103.68 16.83,104.7"/>
    <path stroke="#A4C7E2" stroke-width="2" d="M40.69,111 L20.53,98.66 C18.86,97.64 16.68,98.16 15.66,99.83 C14.64,101.5 15.16,103.68 16.83,104.7"/>
    <path fill="#FFF" fill-rule="nonzero" d="M34.81,112.45 L14.65,100.11 C12.98,99.09 10.8,99.61 9.78,101.28 L9.78,101.28 C8.76,102.95 9.28,105.13 10.95,106.15"/>
    <path stroke="#A4C7E2" stroke-width="2" d="M34.81,112.45 L14.65,100.11 C12.98,99.09 10.8,99.61 9.78,101.28 L9.78,101.28 C8.76,102.95 9.28,105.13 10.95,106.15"/>
    <path fill="#FFF" fill-rule="nonzero" d="M28.6,113.69 L8.44,101.35 C6.77,100.33 4.59,100.85 3.57,102.52 L3.57,102.52 C2.55,104.19 3.07,106.37 4.74,107.39 L24.9,119.73"/>
    <path stroke="#A4C7E2" stroke-width="2" d="M28.6,113.69 L8.44,101.35 C6.77,100.33 4.59,100.85 3.57,102.52 L3.57,102.52 C2.55,104.19 3.07,106.37 4.74,107.39 L24.9,119.73"/>
    <path fill="#FFF" fill-rule="nonzero" d="M46.35,112.38 L30.8,116.12 C28.97,116.56 27.13,115.44 26.69,113.61 C26.25,111.78 27.37,109.94 29.2,109.5 L34.38,108.25 C36.79,107.67 38.98,106.41 40.75,104.67 C44.96,100.53 51.59,99.62 56.86,102.84 L74.74,113.78"/>
    <path stroke="#A4C7E2" stroke-width="2" d="M46.35,112.38 L30.8,116.12 C28.97,116.56 27.13,115.44 26.69,113.61 C26.25,111.78 27.37,109.94 29.2,109.5 L34.38,108.25 C36.79,107.67 38.98,106.41 40.75,104.67 C44.96,100.53 51.59,99.62 56.86,102.84 L74.74,113.78"/>
    <path stroke="#A4C7E2" stroke-width="2" d="M8.13,109.53 L8.13,109.53 L28.44,121.89 C34.07,125.31 41.14,125.3 46.76,121.86 L50.67,119.44 C52.27,118.45 54.3,118.44 55.91,119.43 L58.49,121.01"/>
    <polyline fill="#FFF" fill-rule="nonzero" points="76.13 112.75 63.69 105.13 54.48 120.18 66.93 127.79"/>
    <polyline stroke="#A4C7E2" stroke-width="2" points="76.13 112.75 63.69 105.13 54.48 120.18 66.93 127.79"/>
    <path fill="#FFF" stroke="#A4C7E2" stroke-width="1.23" d="M42.8 17.34C42.93 17.84 43.17 17.84 43.32 17.35L43.91 15.43C44.06 14.94 44.59 14.43 45.09 14.29L47.03 13.77C47.53 13.64 47.53 13.4 47.04 13.25L45.12 12.66C44.63 12.51 44.12 11.98 43.98 11.48L43.46 9.54C43.33 9.04 43.09 9.04 42.94 9.53L42.35 11.45C42.2 11.94 41.67 12.45 41.17 12.59L39.23 13.11C38.73 13.24 38.73 13.48 39.22 13.63L41.14 14.22C41.63 14.37 42.14 14.9 42.28 15.4L42.8 17.34zM3.78 46.31C3.88 46.68 4.05 46.68 4.16 46.32L4.6 44.9C4.71 44.54 5.1 44.16 5.47 44.06L6.9 43.67C7.27 43.57 7.27 43.4 6.91 43.29L5.49 42.85C5.13 42.74 4.75 42.35 4.65 41.98L4.26 40.55C4.16 40.18 3.99 40.18 3.88 40.54L3.44 41.96C3.33 42.32 2.94 42.7 2.57 42.8L1.14 43.19C.77 43.29.77 43.46 1.13 43.57L2.55 44.01C2.91 44.12 3.29 44.51 3.39 44.88L3.78 46.31zM51.59 5.85C51.67 6.15 51.81 6.16 51.91 5.86L52.27 4.69C52.36 4.39 52.68 4.08 52.99 4L54.17 3.68C54.47 3.6 54.48 3.46 54.18 3.36L53 3C52.7 2.91 52.39 2.59 52.31 2.28L51.99 1.1C51.91.8 51.77.79 51.67 1.09L51.31 2.26C51.22 2.56 50.9 2.87 50.59 2.95L49.41 3.27C49.11 3.35 49.1 3.49 49.4 3.59L50.57 3.95C50.87 4.04 51.18 4.36 51.26 4.67L51.59 5.85z"/>
  </g>
</svg>
