<svg xmlns="http://www.w3.org/2000/svg" width="121" height="84" viewBox="0 0 121 84">
  <g fill="none" fill-rule="evenodd" transform="translate(1 1)">
    <rect width="112" height="37" x="4" y="4" fill="#FFF" fill-rule="nonzero"/>
    <rect width="112" height="37" x="4" y="4" stroke="#A4C7E2" stroke-width="2"/>
    <path fill="#FFF" fill-rule="nonzero" d="M7.7804878,0 L5.2195122,0 C4.54323725,0 4,0.52993933 4,1.18965972 L4,39.8103403 C4,40.4700607 4.54323725,41 5.2195122,41 L7.7804878,41 C8.45676275,41 9,40.4700607 9,39.8103403 L9,1.18965972 C9,0.52993933 8.44567627,0 7.7804878,0"/>
    <path stroke="#A4C7E2" stroke-width="2" d="M7.7804878,0 L5.2195122,0 C4.54323725,0 4,0.52993933 4,1.18965972 L4,39.8103403 C4,40.4700607 4.54323725,41 5.2195122,41 L7.7804878,41 C8.45676275,41 9,40.4700607 9,39.8103403 L9,1.18965972 C9,0.52993933 8.44567627,0 7.7804878,0 Z"/>
    <path fill="#FFF" fill-rule="nonzero" d="M113.780488,0 L111.219512,0 C110.543237,0 110,0.52993933 110,1.18965972 L110,39.8103403 C110,40.4700607 110.543237,41 111.219512,41 L113.780488,41 C114.456763,41 115,40.4700607 115,39.8103403 L115,1.18965972 C115,0.52993933 114.456763,0 113.780488,0"/>
    <path stroke="#A4C7E2" stroke-width="2" d="M113.780488,0 L111.219512,0 C110.543237,0 110,0.52993933 110,1.18965972 L110,39.8103403 C110,40.4700607 110.543237,41 111.219512,41 L113.780488,41 C114.456763,41 115,40.4700607 115,39.8103403 L115,1.18965972 C115,0.52993933 114.456763,0 113.780488,0 Z"/>
    <path fill="#FFF" fill-rule="nonzero" d="M47.4691165,34 L20.5418296,34 C16.3823299,34 13,30.5819975 13,26.3649815 L13,23.6461159 C13,19.4290999 16.3713839,16 20.5418296,16 L47.4691165,16 C51.6286161,16 55,19.4180025 55,23.6461159 L55,26.3649815 C55,30.5819975 51.6286161,34 47.4691165,34"/>
    <path fill="#DAE6F0" fill-rule="nonzero" d="M55,30 L34,30 L34,16 L46.2992327,16 C51.111509,16 55,19.8558422 55,24.6039454 L55,30 Z"/>
    <path stroke="#A4C7E2" stroke-width="2" d="M47.4691165,34 L20.5418296,34 C16.3823299,34 13,30.5819975 13,26.3649815 L13,23.6461159 C13,19.4290999 16.3713839,16 20.5418296,16 L47.4691165,16 C51.6286161,16 55,19.4180025 55,23.6461159 L55,26.3649815 C55,30.5819975 51.6286161,34 47.4691165,34 Z"/>
    <path fill="#FFF" fill-rule="nonzero" d="M97.4691165,34 L70.5418296,34 C66.3823299,34 63,30.5819975 63,26.3649815 L63,23.6461159 C63,19.4290999 66.3713839,16 70.5418296,16 L97.4691165,16 C101.628616,16 105,19.4180025 105,23.6461159 L105,26.3649815 C105,30.5819975 101.628616,34 97.4691165,34"/>
    <path fill="#DAE6F0" fill-rule="nonzero" d="M105,30 L84,30 L84,16 L96.2992327,16 C101.111509,16 105,19.8558422 105,24.6039454 L105,30 L105,30 Z"/>
    <path stroke="#A4C7E2" stroke-width="2" d="M97.4691165,34 L70.5418296,34 C66.3823299,34 63,30.5819975 63,26.3649815 L63,23.6461159 C63,19.4290999 66.3713839,16 70.5418296,16 L97.4691165,16 C101.628616,16 105,19.4180025 105,23.6461159 L105,26.3649815 C105,30.5819975 101.628616,34 97.4691165,34 Z"/>
    <path fill="#FFF" fill-rule="nonzero" d="M119,83 L119,40.6518148 C119,35.3286242 114.796375,31 109.613372,31 L9.38662844,31 C4.20362493,31 0,35.3173223 0,40.6518148 L0,83"/>
    <path stroke="#A4C7E2" stroke-width="2" d="M109 31C114.521688 31 119 35.2075831 119 40.3954671L119 83M0 83L0 40.4044896C0 35.2177044 4.47831184 31 10 31"/>
    <path fill="#FFF" fill-rule="nonzero" d="M40,22 C40,25.8684211 36.8684211,29 33,29 C29.1315789,29 26,25.8684211 26,22 C26,18.1315789 29.1315789,15 33,15 C36.8684211,15 40,18.1315789 40,22"/>
    <circle cx="33" cy="22" r="7" stroke="#A4C7E2" stroke-width="2"/>
    <path fill="#FFF" fill-rule="nonzero" d="M91,22 C91,25.8684211 87.8684211,29 84,29 C80.1315789,29 77,25.8684211 77,22 C77,18.1315789 80.1315789,15 84,15 C87.8684211,15 91,18.1315789 91,22"/>
    <circle cx="84" cy="22" r="7" stroke="#A4C7E2" stroke-width="2"/>
    <path fill="#FFF" fill-rule="nonzero" d="M109,31 L101.159877,31 C99.875151,31 98.8319974,29.9483395 98.8319974,28.6531365 C98.8319974,24.9778598 95.8782255,22 92.2326782,22 L73.9500384,22 C70.3044911,22 67.3507192,24.9778598 67.3507192,28.6531365 C67.3507192,29.9483395 66.3075656,31 65.0228396,31 L50.8688921,31 C49.584166,31 48.5410124,29.9483395 48.5410124,28.6531365 C48.5410124,24.9778598 45.5872406,22 41.9416932,22 L23.6590535,22 C20.0135061,22 17.0597343,24.9778598 17.0597343,28.6531365 C17.0597343,29.9483395 16.0165807,31 14.7318546,31 L9,31"/>
    <path stroke="#A4C7E2" stroke-width="2" d="M109,31 L101.159877,31 C99.875151,31 98.8319974,29.9483395 98.8319974,28.6531365 C98.8319974,24.9778598 95.8782255,22 92.2326782,22 L73.9500384,22 C70.3044911,22 67.3507192,24.9778598 67.3507192,28.6531365 C67.3507192,29.9483395 66.3075656,31 65.0228396,31 L50.8688921,31 C49.584166,31 48.5410124,29.9483395 48.5410124,28.6531365 C48.5410124,24.9778598 45.5872406,22 41.9416932,22 L23.6590535,22 C20.0135061,22 17.0597343,24.9778598 17.0597343,28.6531365 C17.0597343,29.9483395 16.0165807,31 14.7318546,31 L9,31"/>
    <path fill="#DAE6F0" fill-rule="nonzero" d="M107.994475,34.7017327 L101.563536,34.7017327 C98.4475138,34.7017327 95.9171271,32.1509901 95.9171271,29.009901 C95.9171271,26.7933168 94.1381215,25 91.9392265,25 L74.9889503,25 C72.7900552,25 71.0110497,26.7933168 71.0110497,29.009901 C71.0110497,32.1509901 68.480663,34.7017327 65.3646409,34.7017327 L59,34.7017327 L59,79 L115,79 L115,41.7636139 C114.98895,37.865099 111.850829,34.7017327 107.994475,34.7017327"/>
  </g>
</svg>
