<svg xmlns="http://www.w3.org/2000/svg" width="120" height="95" viewBox="0 0 120 95">
  <g fill="none" transform="translate(1)">
    <path fill="#231F20" stroke="#A4C7E2" stroke-width=".5" d="M18.268303 39.660687C18.9173939 39.660687 19.458303 39.348855 19.458303 38.9862595 19.458303 38.6164122 18.9101818 38.3118321 18.268303 38.3118321 17.6264242 38.3118321 17.078303 38.6236641 17.078303 38.9862595 17.078303 39.348855 17.6264242 39.660687 18.268303 39.660687zM50.989697 39.1603053C51.6387879 39.1603053 52.179697 38.8484733 52.179697 38.4858779 52.179697 38.1160305 51.6315758 37.8114504 50.989697 37.8114504 50.3478182 37.8114504 49.799697 38.1232824 49.799697 38.4858779 49.799697 38.8557252 50.3478182 39.1603053 50.989697 39.1603053zM67.1448485 38.8847328C67.7939394 38.8847328 68.3348485 38.5729008 68.3348485 38.2103053 68.3348485 37.8477099 67.7867273 37.5358779 67.1448485 37.5358779 66.4957576 37.5358779 65.9548485 37.8477099 65.9548485 38.2103053 65.9548485 38.5729008 66.5029697 38.8847328 67.1448485 38.8847328zM83.8769697 38.6599237C84.5260606 38.6599237 85.0669697 38.3480916 85.0669697 37.9854962 85.0669697 37.6156489 84.5188485 37.3110687 83.8769697 37.3110687 83.2278788 37.3110687 82.6869697 37.6229008 82.6869697 37.9854962 82.6869697 38.3480916 83.2278788 38.6599237 83.8769697 38.6599237zM51.2998182 29.8778626C51.9489091 29.8778626 52.4898182 29.5660305 52.4898182 29.2034351 52.4898182 28.8335878 51.941697 28.5290076 51.2998182 28.5290076 50.6507273 28.5290076 50.1098182 28.8408397 50.1098182 29.2034351 50.1098182 29.5660305 50.6507273 29.8778626 51.2998182 29.8778626zM69.0632727 28.978626C69.0632727 28.6087786 68.5151515 28.3041985 67.8732727 28.3041985 67.2241818 28.3041985 66.6832727 28.6160305 66.6832727 28.978626 66.6832727 29.3484733 67.2313939 29.6530534 67.8732727 29.6530534 68.5151515 29.6603053 69.0632727 29.3484733 69.0632727 28.978626zM84.0212121 29.3774809C84.670303 29.3774809 85.2112121 29.0656489 85.2112121 28.7030534 85.2112121 28.3332061 84.6630909 28.028626 84.0212121 28.028626 83.3793333 28.028626 82.8312121 28.340458 82.8312121 28.7030534 82.8312121 29.0656489 83.3721212 29.3774809 84.0212121 29.3774809zM100.753333 29.1526718C101.402424 29.1526718 101.943333 28.8408397 101.943333 28.4782443 101.943333 28.1083969 101.395212 27.8038168 100.753333 27.8038168 100.104242 27.8038168 99.5633333 28.1156489 99.5633333 28.4782443 99.5561212 28.8408397 100.104242 29.1526718 100.753333 29.1526718zM51.6676364 20.2763359C52.3167273 20.2763359 52.8576364 19.9645038 52.8576364 19.6019084 52.8576364 19.2320611 52.3095152 18.9274809 51.6676364 18.9274809 51.0185455 18.9274809 50.4776364 19.239313 50.4776364 19.6019084 50.4776364 19.9645038 51.0257576 20.2763359 51.6676364 20.2763359zM67.8227879 19.9935115C68.4718788 19.9935115 69.0127879 19.6816794 69.0127879 19.319084 69.0127879 18.9564885 68.4646667 18.6446565 67.8227879 18.6446565 67.1809091 18.6446565 66.6327879 18.9564885 66.6327879 19.319084 66.6327879 19.6816794 67.173697 19.9935115 67.8227879 19.9935115zM84.3890303 19.7759542C85.0381212 19.7759542 85.5790303 19.4641221 85.5790303 19.1015267 85.5790303 18.7389313 85.0309091 18.4270992 84.3890303 18.4270992 83.7399394 18.4270992 83.1990303 18.7389313 83.1990303 19.1015267 83.1990303 19.4641221 83.7471515 19.7759542 84.3890303 19.7759542zM68.486303 10.4790076C69.1353939 10.4790076 69.676303 10.1671756 69.676303 9.80458015 69.676303 9.43473282 69.1281818 9.13015267 68.486303 9.13015267 67.8372121 9.13015267 67.296303 9.44198473 67.296303 9.80458015 67.296303 10.1671756 67.8372121 10.4790076 68.486303 10.4790076zM34.4234545 39.3778626C35.0725455 39.3778626 35.6134545 39.0660305 35.6134545 38.7034351 35.6134545 38.3335878 35.0653333 38.0290076 34.4234545 38.0290076 33.7743636 38.0290076 33.2334545 38.3408397 33.2334545 38.7034351 33.2334545 39.0660305 33.7815758 39.3778626 34.4234545 39.3778626zM35.1446667 30.1534351C35.7937576 30.1534351 36.3346667 29.8416031 36.3346667 29.4790076 36.3346667 29.1091603 35.7865455 28.8045802 35.1446667 28.8045802 34.4955758 28.8045802 33.9546667 29.1164122 33.9546667 29.4790076 33.9546667 29.8416031 34.5027879 30.1534351 35.1446667 30.1534351zM34.4595152 47.5942748C33.8104242 47.5942748 33.2695152 47.9061069 33.2695152 48.2687023 33.2695152 48.6385496 33.8176364 48.9431298 34.4595152 48.9431298 35.1013939 48.9431298 35.6495152 48.6312977 35.6495152 48.2687023 35.6495152 47.9061069 35.1013939 47.5942748 34.4595152 47.5942748zM50.6074545 48.6748092C51.2565455 48.6748092 51.7974545 48.3629771 51.7974545 48.0003817 51.7974545 47.6305344 51.2493333 47.3259542 50.6074545 47.3259542 49.9583636 47.3259542 49.4174545 47.6377863 49.4174545 48.0003817 49.4174545 48.3629771 49.9655758 48.6748092 50.6074545 48.6748092zM67.173697 47.101145C66.5246061 47.101145 65.983697 47.4129771 65.983697 47.7755725 65.983697 48.1454198 66.5318182 48.45 67.173697 48.45 67.8155758 48.45 68.363697 48.1381679 68.363697 47.7755725 68.3709091 47.4129771 67.8227879 47.101145 67.173697 47.101145zM50.4199394 60.4721374C51.0690303 60.4721374 51.6099394 60.1603053 51.6099394 59.7977099 51.6099394 59.4278626 51.0618182 59.1232824 50.4199394 59.1232824 49.7708485 59.1232824 49.2299394 59.4351145 49.2299394 59.7977099 49.2299394 60.1603053 49.7708485 60.4721374 50.4199394 60.4721374zM49.6626667 71.2790076C49.5112121 71.2790076 49.3813939 71.4022901 49.3813939 71.5618321L49.3813939 78.3061069C49.3813939 78.4583969 49.504 78.5889313 49.6626667 78.5889313 49.8213333 78.5889313 49.9439394 78.4656489 49.9439394 78.3061069L49.9439394 71.5618321C49.9367273 71.4022901 49.8141212 71.2790076 49.6626667 71.2790076zM49.6915152 83.679771C49.5400606 83.679771 49.4102424 83.8030534 49.4102424 83.9625954L49.4102424 91.8164122C49.4102424 91.9687023 49.5328485 92.0992366 49.6915152 92.0992366 49.8501818 92.0992366 49.9727879 91.9759542 49.9727879 91.8164122L49.9727879 83.9625954C49.9655758 83.8103053 49.8429697 83.679771 49.6915152 83.679771z"/>
    <path fill="#231F20" stroke="#A4C7E2" stroke-width=".5" d="M118.574485,29.3267176 C118.430242,27.7965649 116.684909,26.3461832 114.81697,25.0045802 C114.795333,24.9900763 114.773697,24.9828244 114.744848,24.9755725 C112.249455,22.3503817 107.597636,19.2755725 100.630727,18.8114504 C99.5633333,16.0339695 94.2984848,10.1744275 84.6919394,9.54351145 C83.6245455,6.76603053 78.3164242,0.90648855 68.5800606,0.333587786 L68.5584242,0.333587786 L68.5367879,0.333587786 C68.5367879,0.333587786 68.5367879,0.333587786 68.5295758,0.333587786 L68.5295758,0.333587786 C58.4686667,1.28358779 52.8143636,7.30992366 51.6387879,10.0801527 C41.4264242,11.1099237 35.8370303,17.4335878 34.7840606,19.8629771 C24.9539394,20.8564885 19.4006061,26.7885496 18.2394545,29.5370229 C9.51278788,30.4145038 4.15418182,35.2007634 2.12757576,38.0870229 C2.12757576,38.0870229 2.12036364,38.0870229 2.12036364,38.0942748 C1.29818182,38.8122137 0.302909091,40.2625954 0.115393939,41.3503817 C0.100969697,41.4229008 0.122606061,41.4954198 0.158666667,41.560687 C0.468787879,42.0030534 0.800545455,42.4671756 1.16836364,42.9458015 C1.15393939,42.9748092 1.14672727,43.0110687 1.14672727,43.0473282 L1.14672727,50.9229008 C1.14672727,52.4167939 1.37030303,53.3958015 2.01218182,54.1717557 C1.44242424,54.3820611 1.17557576,55.0347328 1.17557576,55.6293893 L1.17557576,64.4332061 C1.17557576,66.9206107 1.78860606,67.9648855 3.9089697,69.0816794 C5.96442424,70.1694656 45.753697,93.4335878 46.1575758,93.6729008 C47.2610303,94.3038168 48.2851515,94.6156489 49.3309091,94.6156489 C50.5281212,94.6156489 51.7613939,94.2022901 53.1966061,93.3683206 C55.396303,92.0919847 113.66303,58.2183206 114.24,57.8774809 C115.732909,57.0652672 116.973394,56.1660305 116.973394,53.3305344 L116.973394,44.2729008 C116.973394,43.9973282 116.908485,43.1270992 116.129576,42.8587786 C116.627212,42.1770992 116.944545,41.2416031 116.944545,39.820229 L116.944545,31.9736641 C116.944545,31.9519084 116.937333,31.9229008 116.930121,31.901145 C117.701818,30.9729008 118.242727,30.1316794 118.545636,29.4717557 C118.574485,29.4282443 118.581697,29.3774809 118.574485,29.3267176 Z M17.9726061,30.1244275 C17.9798182,30.1316794 17.9798182,30.1389313 17.9870303,30.1461832 C19.4438788,31.3137405 19.9847879,33.9824427 19.2347273,36.3610687 C19.1914545,36.5061069 19.2707879,36.6656489 19.4150303,36.7091603 C19.4438788,36.7164122 19.4727273,36.7236641 19.5015758,36.7236641 C19.6169697,36.7236641 19.7323636,36.651145 19.7684242,36.5278626 C20.5401212,34.0694656 20.0641212,31.4007634 18.6433333,29.9793893 L18.6433333,29.9793893 C18.6433333,29.9721374 18.6505455,29.9721374 18.6505455,29.9721374 L18.6505455,29.9721374 C21.2036364,28.2461832 27.4060606,27.7458015 31.9208485,28.9351145 C32.072303,28.971374 32.2237576,28.8843511 32.2598182,28.7320611 C32.2958788,28.579771 32.2093333,28.4274809 32.0578788,28.3912214 C27.7306061,27.2526718 22.0907273,27.6007634 19.0904848,29.0801527 C20.7348485,26.2446565 26.0213333,21.298855 34.8778182,20.421374 C36.2409091,21.6034351 36.709697,24.4099237 35.938,26.8900763 C35.8947273,27.0351145 35.9740606,27.1946565 36.118303,27.2381679 C36.1471515,27.2454198 36.176,27.2526718 36.2048485,27.2526718 C36.3202424,27.2526718 36.4356364,27.1729008 36.471697,27.0568702 C37.2866667,24.4389313 36.832303,21.5599237 35.4259394,20.1530534 C37.9934545,18.4778626 43.9146061,17.9847328 48.4221818,19.1305344 C48.5736364,19.1667939 48.7250909,19.079771 48.7611515,18.9274809 C48.7972121,18.7751908 48.7106667,18.6229008 48.5592121,18.5866412 C44.2247273,17.4916031 38.5920606,17.8759542 35.6783636,19.3698473 C37.3227273,16.6938931 42.6452727,11.5450382 51.7397576,10.6385496 C53.1028485,11.8351145 53.4850909,14.6923664 52.5907879,17.2305344 C52.540303,17.3755725 52.6124242,17.5351145 52.7638788,17.5858779 C52.7927273,17.6003817 52.8287879,17.6003817 52.8576364,17.6003817 C52.9730303,17.6003817 53.0812121,17.5278626 53.1172727,17.4118321 C54.0620606,14.728626 53.6942424,11.7916031 52.2806667,10.370229 C54.8626061,8.67328244 60.8198182,8.15839695 65.3418182,9.27519084 C65.4932727,9.31145038 65.6447273,9.21717557 65.6807879,9.0721374 C65.7168485,8.91984733 65.6230909,8.76755725 65.4788485,8.73129771 C61.1299394,7.65801527 55.4828485,8.07137405 52.5547273,9.57251908 C54.0692727,7.14312977 58.9807273,1.84198473 68.4790909,0.90648855 C69.8710303,2.11755725 70.3253939,4.93129771 69.5104242,7.38969466 C69.4599394,7.53473282 69.5392727,7.69427481 69.6835152,7.74503817 C69.7123636,7.75229008 69.7412121,7.75954198 69.7700606,7.75954198 C69.8854545,7.75954198 69.9936364,7.6870229 70.0369091,7.57099237 C70.8374545,5.14160305 70.505697,2.46564885 69.2868485,0.95 C77.7178182,1.70419847 82.4922424,6.61374046 83.8913939,9.1519084 C80.4079394,7.38969466 74.8978788,7.44770992 71.1908485,8.4629771 C71.0393939,8.50648855 70.9528485,8.65877863 70.9961212,8.80381679 C71.0393939,8.95610687 71.1908485,9.04312977 71.3350909,8.99961832 C75.2584848,7.92633588 81.1868485,8.02061069 84.3313333,10.0366412 C85.7160606,11.1534351 86.1415758,14.0034351 85.2905455,16.5343511 C85.2400606,16.6793893 85.3193939,16.8389313 85.4636364,16.8896947 C85.4924848,16.8969466 85.5213333,16.9041985 85.5501818,16.9041985 C85.6655758,16.9041985 85.7737576,16.8316794 85.8170303,16.7156489 C86.6392121,14.2717557 86.3651515,11.6175573 85.2112121,10.1454198 C93.6493939,10.8996183 98.4382424,15.8671756 99.8373939,18.4198473 C96.4188485,16.7156489 90.7789697,16.6866412 86.9493333,17.7236641 C86.7978788,17.7671756 86.7113333,17.9194656 86.7546061,18.0645038 C86.7978788,18.2167939 86.9493333,18.3038168 87.0935758,18.2603053 C91.096303,17.179771 97.1184242,17.2740458 100.277333,19.2973282 C101.712545,20.4648855 102.231818,23.4744275 101.424061,26.0270992 C101.380788,26.1721374 101.460121,26.3316794 101.604364,26.3751908 C101.633212,26.3824427 101.662061,26.3896947 101.690909,26.3896947 C101.806303,26.3896947 101.921697,26.3099237 101.957758,26.1938931 C102.736667,23.7209924 102.368848,20.9290076 101.157212,19.398855 C110.684424,20.2328244 115.574242,26.0416031 116.317091,28.180916 C112.999515,26.2229008 107.280303,26.1431298 103.450667,27.0931298 C103.299212,27.1293893 103.212667,27.2816794 103.248727,27.4339695 C103.284788,27.5862595 103.436242,27.6732824 103.587697,27.6370229 C107.352424,26.7015267 112.985091,26.7812977 116.151212,28.7248092 C114.780909,31.2557252 109.602606,36.6656489 100.580242,37.7824427 C102.253455,35.7881679 102.448182,32.9091603 101.871212,30.9076336 C101.827939,30.7625954 101.676485,30.6755725 101.52503,30.719084 C101.380788,30.7625954 101.294242,30.9148855 101.337515,31.0671756 C101.914485,33.0469466 101.669273,35.9622137 99.8085455,37.7969466 C96.4404848,35.7446565 90.5481818,35.6358779 86.6247879,36.6003817 C86.4733333,36.6366412 86.3867879,36.7889313 86.4228485,36.9412214 C86.4589091,37.0935115 86.6103636,37.1805344 86.7618182,37.1442748 C90.5698182,36.2087786 96.2673939,36.3030534 99.5056364,38.2683206 C98.4454545,40.5744275 93.2310909,46.310687 83.7255152,47.4419847 C85.3770909,45.4984733 85.6944242,42.5251908 85.1102424,40.4003817 C85.0669697,40.2480916 84.9155152,40.1610687 84.7712727,40.2045802 C84.6198182,40.2480916 84.5332727,40.4003817 84.5765455,40.5454198 C85.1535152,42.6412214 84.7929091,45.6217557 83.0115152,47.3912214 C79.6218182,45.360687 73.78,45.360687 69.8998788,46.4194656 C69.7484242,46.4629771 69.6618788,46.6152672 69.7051515,46.7603053 C69.7484242,46.9125954 69.8998788,46.9996183 70.0441212,46.9561069 C73.8232727,45.9263359 79.5064242,45.919084 82.7518788,47.8843511 C81.7205455,50.1832061 76.5350303,55.9557252 67.0727273,57.1232824 C68.7747879,55.1290076 68.9839394,52.170229 68.4069697,50.0889313 C68.363697,49.9366412 68.2122424,49.8568702 68.0607879,49.8931298 C67.9093333,49.9366412 67.83,50.0889313 67.8660606,50.2412214 C68.4718788,52.4240458 68.0824242,55.5278626 66.1712121,57.2465649 C66.164,57.2538168 66.164,57.2538168 66.164,57.2610687 C62.9473939,55.2740458 57.3652121,55.1725191 53.4634545,56.1080153 C53.312,56.1442748 53.2254545,56.2965649 53.254303,56.4416031 C53.2903636,56.5938931 53.4418182,56.680916 53.5860606,56.6519084 C57.3940606,55.7381679 62.8247879,55.8251908 65.9043636,57.7541985 C64.8369697,59.7992366 60.1346667,65.55 50.3550303,66.7465649 C51.7686061,65.1003817 52.2662424,62.7725191 51.6748485,60.3793893 C51.6387879,60.2270992 51.4873333,60.1400763 51.3358788,60.1763359 C51.1844242,60.2125954 51.0978788,60.3648855 51.1339394,60.5171756 C51.7325455,62.939313 51.1411515,65.2816794 49.5544848,66.7900763 C49.5400606,66.7973282 49.5400606,66.8118321 49.5328485,66.8263359 C39.8830303,66.2171756 34.8417576,60.4954198 33.9041818,58.2038168 C36.4644848,56.4270992 42.7678788,55.9194656 47.3475758,57.1522901 C47.4990303,57.1885496 47.6504848,57.1015267 47.6865455,56.9564885 C47.7298182,56.8041985 47.6360606,56.6519084 47.4918182,56.6156489 C43.2943636,55.4843511 37.8780606,55.7599237 34.7696364,57.1087786 C36.0029091,55.179771 36.176,52.6270992 35.6278788,50.7561069 C35.5846061,50.6110687 35.4259394,50.5240458 35.281697,50.5675573 C35.1374545,50.6110687 35.0509091,50.7706107 35.0941818,50.9156489 C35.7144242,53.0114504 35.3466061,56.0354962 33.4642424,57.8194656 C23.3312121,57.1740458 18.802,50.8358779 18.0230909,48.9431298 C20.5401212,47.2316794 26.5550303,46.7458015 31.1347273,47.9278626 C31.2861818,47.9641221 31.4376364,47.8770992 31.473697,47.7248092 C31.5097576,47.5725191 31.4232121,47.420229 31.2717576,47.3839695 C27.1247879,46.3179389 21.8238788,46.5935115 18.8092121,47.8916031 C19.992,45.9770992 20.1578788,43.4316794 19.7251515,41.560687 C19.6890909,41.4083969 19.5376364,41.3141221 19.3933939,41.3503817 C19.2419394,41.3866412 19.1481818,41.5389313 19.1842424,41.6839695 C19.6674545,43.779771 19.3501212,46.789313 17.5687273,48.5660305 C7.91169697,47.9423664 2.82715152,41.9740458 1.91842424,39.6461832 L1.92563636,39.6461832 C4.23351515,37.8912214 10.1474545,37.2748092 14.8425455,38.3045802 C14.994,38.3408397 15.1382424,38.239313 15.174303,38.0942748 C15.2103636,37.9419847 15.1093939,37.7969466 14.9651515,37.760687 C10.5946061,36.8034351 5.15666667,37.2530534 2.37278788,38.7179389 C4.06763636,36.0419847 9.25315152,31.110687 17.9726061,30.1244275 Z M116.432485,44.2656489 L116.432485,53.3232824 C116.432485,56.0572519 115.134303,56.760687 113.987576,57.3770992 C113.396182,57.7179389 55.1366667,91.5916031 52.9369697,92.8679389 C50.4055152,94.3328244 48.6529697,94.4125954 46.4532727,93.1652672 C44.8161212,92.2080153 6.25290909,69.6545802 4.1830303,68.5667939 C2.25018182,67.5515267 1.74533333,66.6958015 1.74533333,64.4187023 L1.74533333,55.6148855 C1.74533333,55.1942748 1.91121212,54.7374046 2.2790303,54.6576336 C2.33672727,54.6431298 2.38,54.6141221 2.41606061,54.5706107 C2.79830303,54.9187023 3.28151515,55.2305344 3.88733333,55.5568702 C5.94278788,56.6374046 45.7320606,79.9087786 46.1359394,80.1480916 C47.2393939,80.7790076 48.2635152,81.0908397 49.3092727,81.0908397 C50.5064848,81.0908397 51.7397576,80.6774809 53.1749697,79.8435115 C55.3746667,78.5671756 113.641394,44.6935115 114.218364,44.3526718 C114.788121,44.0408397 115.321818,43.7217557 115.761758,43.2866412 C115.797818,43.3156489 115.833879,43.3446565 115.884364,43.3591603 C116.374788,43.4751908 116.432485,44.0335878 116.432485,44.2656489 Z M116.396424,39.8129771 C116.396424,42.5469466 115.098242,43.2431298 113.951515,43.8667939 C113.360121,44.2076336 55.1006061,78.0885496 52.9009091,79.3576336 C50.3694545,80.8225191 48.6169091,80.9022901 46.4172121,79.6549618 C44.7800606,78.6977099 6.21684848,56.1442748 4.1469697,55.0564885 C2.21412121,54.0339695 1.70927273,53.1854962 1.70927273,50.9083969 L1.70927273,43.5912214 C4.42824242,46.8545802 8.79157576,50.3137405 16.4147879,50.8576336 C17.4749697,53.4755725 23.3528485,59.6251908 32.1227879,60.0240458 C33.0675758,61.7717557 37.5967879,68.7553435 49.6410303,69.4515267 L49.6554545,69.4515267 L49.6554545,69.4515267 L49.6554545,69.4515267 L49.6554545,69.4515267 L49.6554545,69.4515267 L49.684303,69.4515267 C59.8678182,68.4870229 66.5246061,62.1706107 67.6641212,59.610687 C77.6168485,58.6099237 83.2639394,52.5038168 84.4539394,49.6828244 C94.4643636,48.6748092 100.053758,42.8225191 101.200485,40.1175573 C108.326061,39.3923664 113.562061,35.6358779 116.396424,32.5175573 L116.396424,39.8129771 Z M100.984121,39.580916 C100.969697,39.580916 100.948061,39.5881679 100.933636,39.5954198 C100.919212,39.6026718 100.904788,39.6026718 100.890364,39.6099237 C100.868727,39.6171756 100.854303,39.6316794 100.839879,39.6461832 C100.825455,39.6534351 100.818242,39.660687 100.803818,39.6751908 C100.789394,39.6896947 100.782182,39.7114504 100.767758,39.7259542 C100.760545,39.740458 100.753333,39.7477099 100.746121,39.7549618 C99.9239394,41.9232824 94.4932121,48.1671756 84.2303636,49.1389313 C84.2159394,49.1389313 84.2015152,49.1461832 84.1798788,49.1534351 C84.1654545,49.160687 84.1510303,49.160687 84.1366061,49.1679389 C84.1149697,49.1751908 84.1005455,49.1896947 84.0861212,49.2041985 C84.071697,49.2114504 84.0644848,49.2187023 84.0500606,49.2332061 C84.0356364,49.2477099 84.0284242,49.2694656 84.014,49.2839695 C84.0067879,49.2984733 83.9995758,49.3057252 83.9923636,49.3129771 C83.1341212,51.5755725 77.6240606,58.1022901 67.4405455,59.059542 C67.4261212,59.059542 67.411697,59.0667939 67.3900606,59.0740458 C67.3756364,59.0812977 67.3612121,59.0812977 67.3395758,59.0885496 C67.3179394,59.0958015 67.3035152,59.1103053 67.2890909,59.1248092 C67.2746667,59.1320611 67.2602424,59.139313 67.2530303,59.1538168 C67.2386061,59.1683206 67.2313939,59.1900763 67.2169697,59.2045802 C67.2097576,59.219084 67.2025455,59.2263359 67.1953333,59.2408397 C66.3082424,61.5977099 59.7812727,67.9141221 49.6338182,68.8858779 C37.5535152,68.1824427 33.262303,61.039313 32.5194545,59.6179389 C32.5122424,59.6034351 32.5050303,59.6034351 32.4978182,59.5889313 C32.4833939,59.5744275 32.4761818,59.5599237 32.4617576,59.5454198 C32.4473333,59.530916 32.4329091,59.5236641 32.4184848,59.5091603 C32.4040606,59.5019084 32.3896364,59.4946565 32.3752121,59.4874046 C32.3535758,59.4801527 32.3391515,59.4729008 32.3175152,59.4729008 C32.3030909,59.4729008 32.2958788,59.4656489 32.2886667,59.4656489 C23.4970909,59.139313 17.6913333,52.9171756 16.8619394,50.4877863 L16.8619394,50.4877863 C16.8475152,50.4515267 16.8330909,50.4225191 16.8042424,50.3935115 C16.7898182,50.3790076 16.7753939,50.3645038 16.7537576,50.3572519 C16.7393333,50.35 16.7321212,50.3354962 16.717697,50.3282443 C16.6888485,50.3137405 16.6527879,50.2992366 16.6167273,50.2992366 L16.6167273,50.2992366 C7.55109091,49.7045802 3.18054545,44.9110687 0.677939394,41.3068702 C0.778909091,40.8717557 1.03854545,40.3278626 1.37030303,39.8057252 C2.30066667,42.2133588 7.5150303,48.4137405 17.3956364,49.1026718 C17.4244848,49.1316794 17.4605455,49.1534351 17.5038182,49.1679389 C18.621697,51.9671756 23.857697,57.7251908 33.3560606,58.3561069 C34.3080606,60.7347328 39.5584848,66.7900763 49.5905455,67.3847328 L49.6049697,67.3847328 L49.6049697,67.3847328 L49.6049697,67.3847328 L49.6049697,67.3847328 L49.6049697,67.3847328 L49.6338182,67.3847328 C59.7163636,66.4347328 65.3562424,60.480916 66.5173939,57.7396947 C76.4917576,56.7316794 82.0955758,50.7923664 83.2567273,48.0438931 C93.2527273,47.0358779 98.8565455,41.1328244 100.010485,38.398855 C110.186788,37.369084 115.855515,31.0961832 116.886848,28.3694656 C116.922909,28.2679389 116.901273,28.1664122 116.836364,28.0866412 C116.836364,28.0648855 116.836364,28.0431298 116.829152,28.028626 C116.713758,27.6877863 116.497394,27.2599237 116.180061,26.7667939 C117.132061,27.5935115 117.874909,28.4564885 117.990303,29.2832061 C117.081576,31.2339695 111.463333,38.5874046 100.984121,39.580916 Z"/>
    <path fill="#DAE6F0" d="M0.930363636,55.6366412 L0.930363636,65.6950382 L1.78139394,67.7183206 L47.0446667,93.8251908 L49.3020606,94.3763359 L51.4945455,94.0572519 L76.6720606,79.4519084 C76.6720606,79.4519084 115.653576,56.8259542 115.437212,56.7099237 C115.220848,56.5938931 116.425273,54.548855 116.425273,54.548855 L116.692121,43.9828244 L115.718485,42.9240458 L100.133091,52.1412214 L53.131697,79.480916 C53.131697,79.480916 50.6074545,80.9530534 50.4848485,80.9748092 C50.3622424,81.0038168 48.256303,80.5469466 48.256303,80.5469466 L46.3811515,80.0030534 L9.76521212,58.4866412 L2.42327273,54.1572519 L1.57224242,54.7083969 L0.930363636,55.6366412 Z"/>
    <path fill="#231F20" stroke="#A4C7E2" stroke-width=".5" d="M21.2469091 38.1958015C21.2685455 38.1958015 21.2973939 38.1958015 21.3190303 38.1885496 24.2832121 37.369084 28.0912121 37.2675573 31.0193333 37.9347328 31.1707879 37.9709924 31.3150303 37.8767176 31.3510909 37.7244275 31.3871515 37.5721374 31.2933939 37.4270992 31.1419394 37.3908397 28.1344848 36.7091603 24.218303 36.810687 21.1675758 37.6519084 21.0161212 37.6954198 20.9295758 37.8477099 20.9728485 37.9927481 21.0161212 38.1087786 21.124303 38.1958015 21.2469091 38.1958015zM37.4453333 37.9637405C37.4669697 37.9637405 37.4958182 37.9637405 37.5174545 37.9564885 40.5970303 37.1442748 44.6358182 37.129771 47.8163636 37.920229 47.9678182 37.9564885 48.1192727 37.8622137 48.1553333 37.7171756 48.1913939 37.5648855 48.0976364 37.4125954 47.9533939 37.3763359 44.686303 36.5641221 40.5393333 36.578626 37.3732121 37.4125954 37.2217576 37.448855 37.1352121 37.6083969 37.1712727 37.7534351 37.2145455 37.8839695 37.3227273 37.9637405 37.4453333 37.9637405zM53.9106061 37.6301527C53.9322424 37.6301527 53.9610909 37.6301527 53.9827273 37.6229008 57.1560606 36.7816794 61.1155152 36.730916 64.0724848 37.4851145 64.2239394 37.521374 64.3753939 37.4343511 64.4114545 37.2820611 64.4475152 37.129771 64.3609697 36.9774809 64.2095152 36.9412214 61.166 36.1652672 57.0983636 36.2160305 53.8384848 37.0790076 53.6870303 37.1152672 53.6004848 37.2748092 53.6365455 37.4198473 53.6726061 37.5431298 53.7807879 37.6301527 53.9106061 37.6301527zM69.914303 37.1877863C69.9503636 37.3400763 70.1018182 37.4270992 70.2532727 37.3908397 73.3905455 36.6003817 77.4798182 36.6366412 80.6747879 37.4633588 80.6964242 37.4706107 80.7252727 37.4706107 80.7469091 37.4706107 80.8695152 37.4706107 80.9849091 37.3835878 81.0137576 37.2603053 81.0498182 37.1080153 80.9632727 36.9557252 80.8118182 36.9194656 77.5375152 36.0637405 73.3400606 36.0347328 70.1162424 36.8469466 69.9647879 36.8832061 69.8782424 37.0354962 69.914303 37.1877863zM38.375697 28.4564885C41.5634545 27.709542 45.2849091 27.7167939 48.1048485 28.4854962 48.1264848 28.4927481 48.1553333 28.4927481 48.1769697 28.4927481 48.2995758 28.4927481 48.4149697 28.4129771 48.4438182 28.2824427 48.4870909 28.1301527 48.3933333 27.9778626 48.2490909 27.9416031 45.3498182 27.1583969 41.5201818 27.1438931 38.2530909 27.9125954 38.1016364 27.948855 38.0078788 28.101145 38.0439394 28.2461832 38.08 28.3984733 38.2242424 28.4927481 38.375697 28.4564885zM54.2495758 28.3259542C57.415697 27.5862595 61.5193939 27.6442748 64.7143636 28.4782443 64.736 28.4854962 64.7576364 28.4854962 64.7864848 28.4854962 64.9090909 28.4854962 65.0244848 28.3984733 65.0533333 28.2751908 65.0893939 28.1229008 65.0028485 27.9706107 64.8513939 27.9343511 61.5770909 27.078626 57.3652121 27.0206107 54.1197576 27.7820611 53.968303 27.8183206 53.8745455 27.9706107 53.9106061 28.1156489 53.9538788 28.2679389 54.1053333 28.3622137 54.2495758 28.3259542zM81.1507879 27.6007634C78.1505455 26.7377863 74.0612727 26.7305344 70.7292727 27.5790076 70.5778182 27.6152672 70.4912727 27.7675573 70.5273333 27.9198473 70.5633939 28.0721374 70.7148485 28.1591603 70.866303 28.1229008 74.1045455 27.2961832 78.0784242 27.3034351 80.9921212 28.1374046 81.0209697 28.1446565 81.0426061 28.1446565 81.0714545 28.1446565 81.1940606 28.1446565 81.3022424 28.0648855 81.338303 27.9416031 81.3887879 27.7965649 81.3022424 27.6370229 81.1507879 27.6007634zM86.9926061 27.948855C90.1803636 27.1656489 94.2984848 27.1946565 97.4862424 28.028626 97.5078788 28.0358779 97.5367273 28.0358779 97.5583636 28.0358779 97.6809697 28.0358779 97.7963636 27.9561069 97.8252121 27.8255725 97.8612727 27.6732824 97.7747273 27.5209924 97.6232727 27.4847328 94.3561818 26.6290076 90.1298788 26.5927481 86.8555758 27.3977099 86.7041212 27.4339695 86.6175758 27.5862595 86.6536364 27.7385496 86.689697 27.8908397 86.8411515 27.9851145 86.9926061 27.948855zM54.4659394 18.8259542C54.4875758 18.8259542 54.5092121 18.8259542 54.5380606 18.8187023 57.6681212 17.9992366 61.6059394 17.9557252 64.5701212 18.7171756 64.7215758 18.7534351 64.8730303 18.6664122 64.9090909 18.5141221 64.9451515 18.3618321 64.8586061 18.209542 64.7071515 18.1732824 61.6636364 17.3973282 57.6176364 17.4335878 54.4010303 18.2820611 54.2495758 18.3183206 54.1630303 18.4706107 54.1990909 18.6229008 54.2279394 18.7389313 54.3433333 18.8259542 54.4659394 18.8259542zM70.5850303 18.6446565C70.6066667 18.6446565 70.6355152 18.6446565 70.6571515 18.6374046 73.8304848 17.7816794 77.9702424 17.7599237 81.215697 18.5793893 81.3671515 18.6156489 81.5186061 18.528626 81.5546667 18.3763359 81.5907273 18.2240458 81.5041818 18.0717557 81.3527273 18.0354962 78.0207273 17.1870229 73.7655758 17.2087786 70.5129091 18.0935115 70.3614545 18.1370229 70.2749091 18.289313 70.3181818 18.4343511 70.3542424 18.5648855 70.4624242 18.6446565 70.5850303 18.6446565zM37.4453333 47.5362595C37.4669697 47.5362595 37.4886061 47.5362595 37.5102424 47.5290076 40.6186667 46.7385496 44.4555152 46.6805344 47.2826667 47.3839695 47.4341212 47.420229 47.5855758 47.3259542 47.6216364 47.180916 47.657697 47.028626 47.5711515 46.8763359 47.419697 46.8400763 44.5132121 46.1148855 40.5681818 46.1729008 37.3804242 46.9851145 37.2289697 47.021374 37.1424242 47.1736641 37.1784848 47.3259542 37.2073333 47.4492366 37.3227273 47.5362595 37.4453333 47.5362595zM53.1461212 47.0648855C53.1749697 47.1954198 53.2903636 47.2751908 53.4129697 47.2751908 53.4346061 47.2751908 53.4562424 47.2751908 53.4778788 47.2679389 56.6151515 46.4774809 60.7260606 46.4774809 63.9498788 47.2679389 64.1013333 47.3041985 64.2527879 47.2099237 64.2888485 47.0648855 64.3249091 46.9125954 64.2311515 46.7603053 64.0869091 46.7240458 60.7837576 45.9118321 56.5646667 45.9118321 53.3480606 46.7240458 53.1966061 46.7675573 53.1028485 46.9198473 53.1461212 47.0648855zM52.6268485 21.8790076C52.4826061 21.9225191 52.3960606 22.0748092 52.4393333 22.2270992 52.8432121 23.6267176 52.7999394 25.3019084 52.3383636 26.7087786 52.2878788 26.8538168 52.3672121 27.0133588 52.5114545 27.0641221 52.540303 27.071374 52.5691515 27.078626 52.598 27.078626 52.7133939 27.078626 52.8215758 27.0061069 52.8648485 26.8900763 53.3769091 25.3599237 53.4129697 23.6049618 52.9730303 22.0748092 52.9297576 21.9225191 52.7710909 21.8354962 52.6268485 21.8790076zM52.302303 31.5240458C52.1508485 31.5675573 52.064303 31.7198473 52.1075758 31.8648855 52.4465455 33.1339695 52.417697 34.6206107 52.0138182 35.9477099 51.9705455 36.0927481 52.0498788 36.2522901 52.2013333 36.2958015 52.2301818 36.3030534 52.2590303 36.3103053 52.2806667 36.3103053 52.3960606 36.3103053 52.5114545 36.2305344 52.5475152 36.1145038 52.9874545 34.671374 53.0235152 33.1122137 52.6484848 31.7198473 52.598 31.5675573 52.4465455 31.4805344 52.302303 31.5240458zM52.0138182 40.6251908C51.8695758 40.6687023 51.7830303 40.8209924 51.826303 40.9732824 52.2518182 42.4236641 52.2013333 44.171374 51.703697 45.6435115 51.6532121 45.7885496 51.7325455 45.9480916 51.8767879 45.998855 51.9056364 46.0061069 51.9344848 46.0133588 51.9633333 46.0133588 52.0787273 46.0133588 52.1869091 45.9408397 52.2301818 45.8248092 52.7638788 44.251145 52.8143636 42.3801527 52.36 40.8209924 52.3167273 40.6687023 52.1652727 40.5816794 52.0138182 40.6251908zM51.5161818 50.1469466C51.3719394 50.190458 51.2853939 50.3427481 51.3286667 50.4950382 51.7325455 51.8729008 51.6892727 53.5335878 51.2060606 55.0564885 51.1627879 55.2015267 51.2421212 55.3610687 51.3863636 55.4045802 51.4152121 55.4118321 51.4440606 55.419084 51.4729091 55.419084 51.588303 55.419084 51.703697 55.3465649 51.7397576 55.2232824 52.2518182 53.598855 52.302303 51.8148855 51.8623636 50.3354962 51.8190909 50.190458 51.6676364 50.1034351 51.5161818 50.1469466zM69.4887879 12.0164122C69.3373333 12.0526718 69.2435758 12.2049618 69.2796364 12.35 69.6258182 13.8003817 69.5104242 15.598855 68.9695152 17.1507634 68.9190303 17.2958015 68.9983636 17.4553435 69.1426061 17.5061069 69.1714545 17.5133588 69.200303 17.5206107 69.2363636 17.5206107 69.3517576 17.5206107 69.4599394 17.4480916 69.496 17.3320611 70.0657576 15.6858779 70.1883636 13.771374 69.8205455 12.2194656 69.791697 12.0744275 69.6402424 11.9874046 69.4887879 12.0164122zM68.8252727 21.4729008C68.6810303 21.5236641 68.601697 21.6832061 68.6521818 21.8282443 69.1065455 23.2061069 69.0921212 24.8667939 68.6233333 26.3896947 68.5800606 26.5347328 68.6593939 26.6942748 68.8036364 26.7377863 68.8324848 26.7450382 68.8613333 26.7522901 68.8901818 26.7522901 69.0055758 26.7522901 69.1209697 26.6725191 69.1570303 26.5564885 69.6690909 24.9248092 69.676303 23.1335878 69.1858788 21.6469466 69.1281818 21.5019084 68.9695152 21.4221374 68.8252727 21.4729008zM68.6954545 31.2049618C68.5512121 31.2484733 68.4646667 31.4080153 68.5079394 31.5530534 68.9046061 32.8801527 68.8973939 34.3958015 68.486303 35.7156489 68.4430303 35.860687 68.5223636 36.020229 68.6666061 36.0637405 68.6954545 36.0709924 68.724303 36.0782443 68.7531515 36.0782443 68.8685455 36.0782443 68.9839394 35.9984733 69.02 35.8824427 69.4671515 34.4610687 69.4743636 32.8221374 69.0488485 31.3935115 68.9983636 31.2484733 68.839697 31.1614504 68.6954545 31.2049618zM68.306 40.2335878C68.1617576 40.2770992 68.0752121 40.4366412 68.125697 40.5816794 68.5584242 41.9740458 68.5079394 43.7145038 67.9958788 45.2301527 67.9453939 45.3751908 68.0247273 45.5347328 68.1689697 45.5854962 68.1978182 45.5927481 68.2266667 45.6 68.2555152 45.6 68.3709091 45.6 68.4790909 45.5274809 68.5223636 45.4114504 69.077697 43.7652672 69.1281818 41.9450382 68.6593939 40.4148855 68.6089091 40.2698473 68.4502424 40.1900763 68.306 40.2335878zM85.2400606 21.139313C85.0958182 21.1828244 85.0092727 21.3423664 85.0597576 21.4874046 85.5357576 23.0030534 85.499697 24.8160305 84.9587879 26.3461832 84.908303 26.4912214 84.9804242 26.6507634 85.1246667 26.7015267 85.1535152 26.7160305 85.1895758 26.7160305 85.2184242 26.7160305 85.3338182 26.7160305 85.442 26.6435115 85.4780606 26.5274809 86.0550303 24.8885496 86.0910909 22.9377863 85.5790303 21.3133588 85.5429697 21.1755725 85.3915152 21.0958015 85.2400606 21.139313zM84.9227273 30.8206107C84.7784848 30.8641221 84.6919394 31.0236641 84.7424242 31.1687023 85.146303 32.4740458 85.1390909 34.0259542 84.7207879 35.4255725 84.6775152 35.5706107 84.7568485 35.7301527 84.908303 35.7736641 84.9371515 35.780916 84.9587879 35.7881679 84.9876364 35.7881679 85.1102424 35.7881679 85.2184242 35.7083969 85.2544848 35.5923664 85.7088485 34.0839695 85.7160606 32.4087786 85.2761212 31.0019084 85.2256364 30.8568702 85.0669697 30.7770992 84.9227273 30.8206107zM36.0750303 32.0534351C35.9235758 32.0824427 35.8226061 32.2274809 35.8514545 32.379771 36.0822424 33.6270992 35.9668485 34.9832061 35.519697 36.2015267 35.4692121 36.3465649 35.5413333 36.5061069 35.6855758 36.5641221 35.7144242 36.578626 35.7504848 36.578626 35.7793333 36.578626 35.8947273 36.578626 35.995697 36.5061069 36.0389697 36.3973282 36.5221818 35.0847328 36.652 33.6198473 36.3995758 32.2782443 36.3707273 32.1259542 36.2264848 32.0244275 36.0750303 32.0534351zM35.4403636 40.9877863C35.2961212 41.0312977 35.2095758 41.1835878 35.2528485 41.3358779 35.6495152 42.7209924 35.6567273 44.3381679 35.2672727 45.7885496 35.224 45.9408397 35.3177576 46.0931298 35.462 46.1293893 35.4836364 46.1366412 35.5124848 46.1366412 35.5341212 46.1366412 35.6567273 46.1366412 35.7721212 46.0568702 35.8009697 45.9263359 36.2120606 44.3889313 36.2048485 42.6557252 35.7793333 41.1763359 35.7360606 41.0312977 35.5846061 40.9442748 35.4403636 40.9877863z"/>
  </g>
</svg>
