<svg xmlns="http://www.w3.org/2000/svg" width="98" height="111" viewBox="0 0 98 111">
  <g fill="none" fill-rule="evenodd" transform="translate(1 1)">
    <path fill="#DAE6F0" fill-rule="nonzero" d="M20.22,52.27 L9.9,52.27 C8.96,52.27 8.19,51.5 8.19,50.56 L8.19,40.23 C8.19,39.29 8.96,38.52 9.9,38.52 L20.23,38.52 C21.17,38.52 21.94,39.29 21.94,40.23 L21.94,50.56 C21.93,51.5 21.16,52.27 20.22,52.27 Z"/>
    <path fill="#2F1945" fill-rule="nonzero" d="M36.73 52.27L26.4 52.27C25.46 52.27 24.69 51.5 24.69 50.56L24.69 40.23C24.69 39.29 25.46 38.52 26.4 38.52L36.73 38.52C37.67 38.52 38.44 39.29 38.44 40.23L38.44 50.56C38.43 51.5 37.66 52.27 36.73 52.27zM69.73 52.27L59.4 52.27C58.46 52.27 57.69 51.5 57.69 50.56L57.69 40.23C57.69 39.29 58.46 38.52 59.4 38.52L69.73 38.52C70.67 38.52 71.44 39.29 71.44 40.23L71.44 50.56C71.44 51.5 70.67 52.27 69.73 52.27zM53.23 52.27L42.9 52.27C41.96 52.27 41.19 51.5 41.19 50.56L41.19 40.23C41.19 39.29 41.96 38.52 42.9 38.52L53.23 38.52C54.17 38.52 54.94 39.29 54.94 40.23L54.94 50.56C54.94 51.5 54.17 52.27 53.23 52.27zM20.22 69.06L9.9 69.06C8.96 69.06 8.19 68.29 8.19 67.35L8.19 57.02C8.19 56.08 8.96 55.31 9.9 55.31L20.23 55.31C21.17 55.31 21.94 56.08 21.94 57.02L21.94 67.35C21.93 68.29 21.16 69.06 20.22 69.06zM36.73 69.06L26.4 69.06C25.46 69.06 24.69 68.29 24.69 67.35L24.69 57.02C24.69 56.08 25.46 55.31 26.4 55.31L36.73 55.31C37.67 55.31 38.44 56.08 38.44 57.02L38.44 67.35C38.43 68.29 37.66 69.06 36.73 69.06zM69.73 69.06L59.4 69.06C58.46 69.06 57.69 68.29 57.69 67.35L57.69 57.02C57.69 56.08 58.46 55.31 59.4 55.31L69.73 55.31C70.67 55.31 71.44 56.08 71.44 57.02L71.44 67.35C71.44 68.29 70.67 69.06 69.73 69.06z"/>
    <path fill="#DAE6F0" fill-rule="nonzero" d="M53.23,69.06 L42.9,69.06 C41.96,69.06 41.19,68.29 41.19,67.35 L41.19,57.02 C41.19,56.08 41.96,55.31 42.9,55.31 L53.23,55.31 C54.17,55.31 54.94,56.08 54.94,57.02 L54.94,67.35 C54.94,68.29 54.17,69.06 53.23,69.06 Z"/>
    <path fill="#2F1945" fill-rule="nonzero" d="M20.22 85.85L9.9 85.85C8.96 85.85 8.19 85.08 8.19 84.14L8.19 73.81C8.19 72.87 8.96 72.1 9.9 72.1L20.23 72.1C21.17 72.1 21.94 72.87 21.94 73.81L21.94 84.14C21.93 85.09 21.16 85.85 20.22 85.85zM36.73 85.85L26.4 85.85C25.46 85.85 24.69 85.08 24.69 84.14L24.69 73.81C24.69 72.87 25.46 72.1 26.4 72.1L36.73 72.1C37.67 72.1 38.44 72.87 38.44 73.81L38.44 84.14C38.43 85.09 37.66 85.85 36.73 85.85zM69.73 85.85L59.4 85.85C58.46 85.85 57.69 85.08 57.69 84.14L57.69 73.81C57.69 72.87 58.46 72.1 59.4 72.1L69.73 72.1C70.67 72.1 71.44 72.87 71.44 73.81L71.44 84.14C71.44 85.09 70.67 85.85 69.73 85.85zM53.23 85.85L42.9 85.85C41.96 85.85 41.19 85.08 41.19 84.14L41.19 73.81C41.19 72.87 41.96 72.1 42.9 72.1L53.23 72.1C54.17 72.1 54.94 72.87 54.94 73.81L54.94 84.14C54.94 85.09 54.17 85.85 53.23 85.85z"/>
    <path fill="#DAE6F0" fill-rule="nonzero" d="M20.22,102.65 L9.9,102.65 C8.96,102.65 8.19,101.88 8.19,100.94 L8.19,90.61 C8.19,89.67 8.96,88.9 9.9,88.9 L20.23,88.9 C21.17,88.9 21.94,89.67 21.94,90.61 L21.94,100.94 C21.93,101.88 21.16,102.65 20.22,102.65 Z"/>
    <path fill="#2F1945" fill-rule="nonzero" d="M36.73,102.65 L26.4,102.65 C25.46,102.65 24.69,101.88 24.69,100.94 L24.69,90.61 C24.69,89.67 25.46,88.9 26.4,88.9 L36.73,88.9 C37.67,88.9 38.44,89.67 38.44,90.61 L38.44,100.94 C38.43,101.88 37.66,102.65 36.73,102.65 Z"/>
    <path fill="#DAE6F0" fill-rule="nonzero" d="M69.73,102.65 L59.4,102.65 C58.46,102.65 57.69,101.88 57.69,100.94 L57.69,90.61 C57.69,89.67 58.46,88.9 59.4,88.9 L69.73,88.9 C70.67,88.9 71.44,89.67 71.44,90.61 L71.44,100.94 C71.44,101.88 70.67,102.65 69.73,102.65 Z"/>
    <path fill="#2F1945" fill-rule="nonzero" d="M86.75,52.27 L76.42,52.27 C75.48,52.27 74.71,51.5 74.71,50.56 L74.71,40.23 C74.71,39.29 75.48,38.52 76.42,38.52 L86.75,38.52 C87.69,38.52 88.46,39.29 88.46,40.23 L88.46,50.56 C88.45,51.5 87.69,52.27 86.75,52.27 Z"/>
    <path fill="#DAE6F0" fill-rule="nonzero" d="M94.14,32.01 L49.78,32.01 C48.84,32.01 48.07,31.24 48.07,30.3 L48.07,9.17 C48.07,8.23 48.84,7.46 49.78,7.46 L94.14,7.46 C95.08,7.46 95.85,8.23 95.85,9.17 L95.85,30.3 C95.85,31.24 95.08,32.01 94.14,32.01 Z"/>
    <path fill="#2F1945" fill-rule="nonzero" d="M86.75,69.06 L76.42,69.06 C75.48,69.06 74.71,68.29 74.71,67.35 L74.71,57.02 C74.71,56.08 75.48,55.31 76.42,55.31 L86.75,55.31 C87.69,55.31 88.46,56.08 88.46,57.02 L88.46,67.35 C88.45,68.29 87.69,69.06 86.75,69.06 Z"/>
    <path fill="#DAE6F0" fill-rule="nonzero" d="M86.75 85.85L76.42 85.85C75.48 85.85 74.71 85.08 74.71 84.14L74.71 73.81C74.71 72.87 75.48 72.1 76.42 72.1L86.75 72.1C87.69 72.1 88.46 72.87 88.46 73.81L88.46 84.14C88.45 85.09 87.69 85.85 86.75 85.85zM86.75 102.65L76.42 102.65C75.48 102.65 74.71 101.88 74.71 100.94L74.71 90.61C74.71 89.67 75.48 88.9 76.42 88.9L86.75 88.9C87.69 88.9 88.46 89.67 88.46 90.61L88.46 100.94C88.45 101.88 87.69 102.65 86.75 102.65z"/>
    <path fill="#2F1945" fill-rule="nonzero" d="M53.23,102.65 L42.9,102.65 C41.96,102.65 41.19,101.88 41.19,100.94 L41.19,90.61 C41.19,89.67 41.96,88.9 42.9,88.9 L53.23,88.9 C54.17,88.9 54.94,89.67 54.94,90.61 L54.94,100.94 C54.94,101.88 54.17,102.65 53.23,102.65 Z"/>
    <path stroke="#A4C7E2" stroke-linecap="round" stroke-linejoin="round" stroke-width="2" d="M17.37 7.59L3.75 7.59C2.12 7.59.79 8.92.79 10.55L.79 105.69C.79 107.32 2.12 108.65 3.75 108.65L65.64 108.65 76.28 108.65M72.2 7.59L24.44 7.59M76.29 108.64L92.89 108.64C94.52 108.64 95.85 107.31 95.85 105.68L95.85 10.55C95.85 8.92 94.52 7.59 92.89 7.59L79.27 7.59"/>
    <path fill="#A4C7E2" fill-rule="nonzero" d="M20.9 15.87C23.03 15.87 24.77 17.61 24.77 19.74 24.77 21.87 23.03 23.61 20.9 23.61 18.77 23.61 17.03 21.87 17.03 19.74 17.03 17.61 18.78 15.87 20.9 15.87L20.9 15.87zM20.9 13.87C17.67 13.87 15.03 16.5 15.03 19.74 15.03 22.98 17.66 25.61 20.9 25.61 24.14 25.61 26.77 22.98 26.77 19.74 26.77 16.5 24.14 13.87 20.9 13.87L20.9 13.87zM75.74 15.87C77.87 15.87 79.61 17.61 79.61 19.74 79.61 21.87 77.87 23.61 75.74 23.61 73.61 23.61 71.87 21.87 71.87 19.74 71.87 17.61 73.61 15.87 75.74 15.87L75.74 15.87zM75.74 13.87C72.51 13.87 69.87 16.5 69.87 19.74 69.87 22.98 72.5 25.61 75.74 25.61 78.98 25.61 81.61 22.98 81.61 19.74 81.61 16.5 78.97 13.87 75.74 13.87L75.74 13.87z"/>
    <path stroke="#A4C7E2" stroke-linecap="round" stroke-linejoin="round" stroke-width="2" d="M0.8,32.01 L95.85,32.01"/>
    <path stroke="#A4C7E2" stroke-linecap="round" stroke-width="2" d="M20.9 14.29L20.9.64M75.74 14.29L75.74.64"/>
  </g>
</svg>
