<svg xmlns="http://www.w3.org/2000/svg" width="53" height="95" viewBox="0 0 53 95">
  <g fill="none" fill-rule="evenodd" transform="translate(0 1)">
    <path fill="#DAE6F0" fill-rule="nonzero" d="M34.603253,4.19780822 L26.723494,4.19780822 L26.723494,19.4760274 L34.603253,19.4760274 C37.4256627,19.4760274 39.7116867,17.1710959 39.7116867,14.3253425 L39.7116867,9.34849315 C39.7116867,6.50917808 37.4256627,4.19780822 34.603253,4.19780822 Z"/>
    <path stroke="#A4C7E2" stroke-width="1.28" d="M18.8501205,4.19780822 L34.6096386,4.19780822 C37.4320482,4.19780822 39.7180723,6.50273973 39.7180723,9.34849315 L39.7180723,14.3253425 C39.7180723,17.1710959 37.4320482,19.4760274 34.6096386,19.4760274 L18.8501205,19.4760274 C16.0277108,19.4760274 13.7416867,17.1710959 13.7416867,14.3253425 L13.7416867,9.34849315 C13.7416867,6.50917808 16.0277108,4.19780822 18.8501205,4.19780822 Z"/>
    <path stroke="#A4C7E2" stroke-width="1.28" d="M47.2210843,91.0190411 L6.2386747,91.0190411 C4.47626506,91.0190411 3.04590361,89.5768493 3.04590361,87.799863 L3.04590361,3.62479452 C3.04590361,1.84780822 4.47626506,0.405616438 6.2386747,0.405616438 L47.2210843,0.405616438 C48.983494,0.405616438 50.4138554,1.84780822 50.4138554,3.62479452 L50.4138554,87.7934247 C50.4138554,89.5768493 48.983494,91.0190411 47.2210843,91.0190411 Z"/>
    <g fill-rule="nonzero" transform="translate(0 16.096)">
      <path fill="#FFF" d="M5.10843373,75.1613699 C2.64361446,75.1613699 0.638554217,73.139726 0.638554217,70.6545205 L0.638554217,4.50684932 C0.638554217,2.02164384 2.64361446,0 5.10843373,0 L47.3679518,0 C49.8327711,0 51.8378313,2.02164384 51.8378313,4.50684932 L51.8378313,70.6480822 C51.8378313,73.1332877 49.8327711,75.1549315 47.3679518,75.1549315 L5.10843373,75.1549315 L5.10843373,75.1613699 Z"/>
      <path fill="#A4C7E2" d="M47.8596386,2.33712329 C49.973253,2.33712329 51.6909639,4.0690411 51.6909639,6.20013699 L51.6909639,72.3413699 C51.6909639,74.4724658 49.973253,76.2043836 47.8596386,76.2043836 L5.60012048,76.2043836 C3.48650602,76.2043836 1.76879518,74.4724658 1.76879518,72.3413699 L1.76879518,6.20013699 C1.76879518,4.0690411 3.48650602,2.33712329 5.60012048,2.33712329 L47.8596386,2.33712329 L47.8596386,2.33712329 Z M47.8596386,1.04945205 L5.60012048,1.04945205 C2.78409639,1.04945205 0.491686747,3.36082192 0.491686747,6.20013699 L0.491686747,72.3413699 C0.491686747,75.1806849 2.78409639,77.4920548 5.60012048,77.4920548 L47.8596386,77.4920548 C50.6756627,77.4920548 52.9680723,75.1806849 52.9680723,72.3413699 L52.9680723,6.20013699 C52.9680723,3.36082192 50.6756627,1.04945205 47.8596386,1.04945205 L47.8596386,1.04945205 Z"/>
    </g>
    <path fill="#DAE6F0" fill-rule="nonzero" d="M47.8596386,19.7206849 L26.7298795,19.7206849 L26.7298795,91.0126027 L47.8596386,91.0126027 C49.2708434,91.0126027 50.4138554,89.860137 50.4138554,88.4372603 L50.4138554,22.2960274 C50.4138554,20.879589 49.2644578,19.7206849 47.8596386,19.7206849 Z"/>
  </g>
</svg>
