<svg xmlns="http://www.w3.org/2000/svg" width="107" height="60" viewBox="0 0 107 60">
  <g fill="none" fill-rule="evenodd" transform="translate(1)">
    <rect width="104.304" height="33.803" x=".848" y="26.197" fill="#DAE6F0" fill-rule="nonzero"/>
    <g stroke="#A4C7E2" stroke-width="1.377" transform="translate(0 26.197)">
      <path d="M.05088.0845070423L.05088 33.3549296M5.05408.0845070423L5.05408 33.3549296M10.05728.0845070423L10.05728 33.3549296M15.06048.0845070423L15.06048 33.3549296M20.06368.0845070423L20.06368 33.3549296M25.06688.0845070423L25.06688 33.3549296M30.0616.0845070423L30.0616 33.3549296M35.0648.0845070423L35.0648 33.3549296M40.068.0845070423L40.068 33.3549296M45.0712.0845070423L45.0712 33.3549296M50.0744.0845070423L50.0744 33.3549296M55.0776.0845070423L55.0776 33.3549296M60.0808.0845070423L60.0808 33.3549296M65.084.0845070423L65.084 33.3549296M70.0872.0845070423L70.0872 33.3549296M75.0904.0845070423L75.0904 33.3549296M80.08512.0845070423L80.08512 33.3549296M85.08832.0845070423L85.08832 33.3549296M90.09152.0845070423L90.09152 33.3549296M95.09472.0845070423L95.09472 33.3549296M100.09792.0845070423L100.09792 33.3549296M105.10112.0845070423L105.10112 33.3549296"/>
    </g>
    <polygon fill="#512C84" fill-rule="nonzero" points="27.212 19.056 87.785 38.003 87.785 .11"/>
    <path fill="#A4C7E2" fill-rule="nonzero" d="M37.66816,32.6028169 C36.2096,32.6028169 34.78496,32.1971831 33.43664,31.1577465 C31.8848,29.9661972 31.31664,28.4957746 30.81632,27.2028169 C30.316,25.9014085 29.88352,24.7774648 28.50128,23.9830986 C27.80592,23.5774648 26.91552,23.6788732 26.19472,24.2366197 C23.93904,25.9859155 20.84384,27.0338028 17.90976,27.0338028 C12.73696,27.0338028 9.26864,23.6788732 9.26864,18.684507 C9.26864,13.6901408 12.74544,10.3352113 17.90976,10.3352113 C21.20848,10.3352113 24.66832,11.6450704 26.924,13.7492958 C27.48368,14.2647887 28.21296,14.3492958 28.79808,13.9521127 C29.94288,13.1746479 30.34992,12.1267606 30.81632,10.9098592 C31.31664,9.61690141 31.8848,8.14647887 33.43664,6.95492958 C37.49856,3.83661972 42.26432,6.41408451 46.47888,8.68732394 C48.87024,9.98028169 51.12592,11.1971831 52.8728,11.1971831 C55.34896,11.1971831 57.46048,10.2676056 59.69072,9.29577465 C62.25168,8.17183099 64.89744,7.01408451 68.3912,7.01408451 C71.29136,7.01408451 73.85232,8.3915493 76.82032,9.98873239 C80.83984,12.1521127 85.3936,14.6028169 92.39808,14.6028169 L92.39808,16.5042254 C84.91872,16.5042254 79.924,13.8253521 75.91296,11.6704225 C73.17392,10.2 70.808,8.92394366 68.3912,8.92394366 C65.296,8.92394366 62.8368,10.0056338 60.4624,11.0450704 C58.14736,12.0591549 55.756,13.1070423 52.8728,13.1070423 C50.64256,13.1070423 48.17488,11.7802817 45.57152,10.3690141 C41.68768,8.27323944 37.67664,6.10140845 34.60688,8.47605634 C33.47904,9.34647887 33.072,10.3943662 32.6056,11.6112676 C32.0968,12.9295775 31.52016,14.4253521 29.87504,15.5408451 C28.56912,16.428169 26.82224,16.2676056 25.62656,15.1521127 C23.73552,13.3859155 20.70816,12.2535211 17.91824,12.2535211 C13.83088,12.2535211 11.18512,14.7887324 11.18512,18.7014085 C11.18512,22.6140845 13.83088,25.1492958 17.91824,25.1492958 C20.40288,25.1492958 23.13344,24.228169 25.03296,22.7577465 C26.36432,21.7267606 28.10272,21.5746479 29.468,22.3605634 C31.42688,23.4929577 32.0544,25.115493 32.6056,26.543662 C33.072,27.7605634 33.47904,28.8084507 34.60688,29.6788732 C37.68512,32.0450704 41.69616,29.8732394 45.57152,27.7859155 C48.17488,26.3746479 50.64256,25.0478873 52.8728,25.0478873 C55.74752,25.0478873 58.14736,26.0957746 60.4624,27.1098592 C62.8368,28.1492958 65.296,29.2309859 68.3912,29.2309859 C70.808,29.2309859 73.17392,27.9549296 75.91296,26.484507 C79.924,24.3295775 84.91024,21.6422535 92.39808,21.6422535 L92.39808,23.543662 C85.3936,23.543662 80.83984,25.9943662 76.82032,28.1577465 C73.85232,29.7549296 71.29136,31.1323944 68.3912,31.1323944 C64.89744,31.1323944 62.25168,29.9746479 59.69072,28.8507042 C57.46048,27.8704225 55.34896,26.9492958 52.8728,26.9492958 C51.12592,26.9492958 48.87024,28.1661972 46.47888,29.4591549 C43.66352,30.9464789 40.60224,32.6028169 37.66816,32.6028169 Z"/>
    <g fill="#DAE6F0" fill-rule="nonzero" transform="translate(31.376 16.901)">
      <path d="M1.49248 3.58309859C1.11088 3.58309859.74624 3.43098592.48336 3.16901408.34768 3.03380282.23744 2.86478873.1696 2.70422535.10176 2.52676056.06784 2.34084507.06784 2.16338028.06784 2.07042254.07632 1.97746479.09328 1.88450704.11872 1.7915493.13568 1.69859155.17808 1.61408451.212 1.52112676.26288 1.43661972.31376 1.36056338.35616 1.29295775.41552 1.2084507.49184 1.14929577.81408.811267606 1.32288.65915493 1.7808.752112676 1.87408.777464789 1.96736.794366197 2.05216.836619718 2.13696.870422535 2.23024.921126761 2.29808.963380282 2.38288 1.02253521 2.45072 1.08169014 2.51856 1.14929577 2.5864 1.2084507 2.64576 1.28450704 2.69664 1.36056338 2.756 1.44507042 2.78992 1.52112676 2.82384 1.61408451 2.86624 1.69859155 2.89168 1.7915493 2.91712 1.88450704 2.9256 1.97746479 2.94256 2.07042254 2.94256 2.16338028 2.94256 2.34929577 2.90864 2.53521127 2.8408 2.70422535 2.756 2.88169014 2.65424 3.02535211 2.52704 3.16901408 2.39136 3.29577465 2.23872 3.3971831 2.06064 3.47323944 1.8656 3.54084507 1.67904 3.58309859 1.49248 3.58309859zM37.03216 2.16338028C37.03216 1.37746479 37.66816.735211268 38.46528.735211268L38.46528.735211268C39.25392.735211268 39.8984 1.36901408 39.8984 2.16338028L39.8984 2.16338028C39.8984 2.94929577 39.2624 3.5915493 38.46528 3.5915493L38.46528 3.5915493C37.67664 3.58309859 37.03216 2.94929577 37.03216 2.16338028zM33.33488 2.16338028C33.33488 1.37746479 33.98784.735211268 34.77648.735211268L34.77648.735211268C35.55664.735211268 36.20112 1.36901408 36.20112 2.16338028L36.20112 2.16338028C36.20112 2.94929577 35.56512 3.5915493 34.77648 3.5915493L34.77648 3.5915493C33.98784 3.58309859 33.33488 2.94929577 33.33488 2.16338028zM29.64608 2.16338028C29.64608 1.37746479 30.28208.735211268 31.0792.735211268L31.0792.735211268C31.86784.735211268 32.51232 1.36901408 32.51232 2.16338028L32.51232 2.16338028C32.51232 2.94929577 31.86784 3.5915493 31.0792 3.5915493L31.0792 3.5915493C30.28208 3.58309859 29.64608 2.94929577 29.64608 2.16338028zM25.94032 2.16338028C25.94032 1.37746479 26.5848.735211268 27.37344.735211268L27.37344.735211268C28.16208.735211268 28.80656 1.36901408 28.80656 2.16338028L28.80656 2.16338028C28.80656 2.94929577 28.17056 3.5915493 27.37344 3.5915493L27.37344 3.5915493C26.5848 3.58309859 25.94032 2.94929577 25.94032 2.16338028zM22.24304 2.16338028C22.24304 1.37746479 22.87904.735211268 23.67616.735211268L23.67616.735211268C24.4648.735211268 25.10928 1.36901408 25.10928 2.16338028L25.10928 2.16338028C25.10928 2.94929577 24.47328 3.5915493 23.67616 3.5915493L23.67616 3.5915493C22.87904 3.58309859 22.24304 2.94929577 22.24304 2.16338028zM18.53728 2.16338028C18.53728 1.37746479 19.19024.735211268 19.97888.735211268L19.97888.735211268C20.75904.735211268 21.40352 1.36901408 21.40352 2.16338028L21.40352 2.16338028C21.40352 2.94929577 20.76752 3.5915493 19.97888 3.5915493L19.97888 3.5915493C19.19024 3.58309859 18.53728 2.94929577 18.53728 2.16338028zM14.84848 2.16338028C14.84848 1.37746479 15.48448.735211268 16.2816.735211268L16.2816.735211268C17.07024.735211268 17.71472 1.36901408 17.71472 2.16338028L17.71472 2.16338028C17.71472 2.94929577 17.07024 3.5915493 16.2816 3.5915493L16.2816 3.5915493C15.49296 3.58309859 14.84848 2.94929577 14.84848 2.16338028zM11.1512 2.16338028C11.1512 1.37746479 11.7872.735211268 12.58432.735211268L12.58432.735211268C13.37296.735211268 14.01744 1.36901408 14.01744 2.16338028L14.01744 2.16338028C14.01744 2.94929577 13.38144 3.5915493 12.58432 3.5915493L12.58432 3.5915493C11.7872 3.58309859 11.1512 2.94929577 11.1512 2.16338028zM7.44544 2.16338028C7.44544 1.37746479 8.0984.735211268 8.87856.735211268L8.87856.735211268C9.6672.735211268 10.31168 1.36901408 10.31168 2.16338028L10.31168 2.16338028C10.31168 2.94929577 9.67568 3.5915493 8.87856 3.5915493L8.87856 3.5915493C8.0984 3.58309859 7.44544 2.94929577 7.44544 2.16338028zM3.75664 2.16338028C3.75664 1.37746479 4.39264.735211268 5.18976.735211268L5.18976.735211268C5.9784.735211268 6.62288 1.36901408 6.62288 2.16338028L6.62288 2.16338028C6.62288 2.94929577 5.9784 3.5915493 5.18976 3.5915493L5.18976 3.5915493C4.40112 3.58309859 3.75664 2.94929577 3.75664 2.16338028zM42.17104 3.58309859C41.78944 3.58309859 41.4248 3.43098592 41.16192 3.16901408 41.03472 3.03380282 40.93296 2.88169014 40.84816 2.70422535 40.78032 2.52676056 40.7464 2.34084507 40.7464 2.16338028 40.7464 2.07042254 40.75488 1.97746479 40.77184 1.88450704 40.79728 1.7915493 40.81424 1.69859155 40.85664 1.61408451 40.89056 1.52112676 40.94144 1.43661972 40.99232 1.36056338 41.03472 1.29295775 41.09408 1.2084507 41.1704 1.14929577 41.23824 1.08169014 41.30608 1.02253521 41.39088.963380282 41.45872.921126761 41.54352.870422535 41.6368.836619718 41.7216.802816901 41.81488.777464789 41.89968.752112676 42.08624.718309859 42.2728.718309859 42.45936.752112676 42.55264.777464789 42.64592.794366197 42.72224.836619718 42.80704.870422535 42.90032.921126761 42.96816.963380282 43.05296 1.02253521 43.1208 1.08169014 43.18864 1.14929577 43.25648 1.2084507 43.31584 1.28450704 43.36672 1.36056338 43.42608 1.44507042 43.46 1.52112676 43.49392 1.61408451 43.53632 1.69859155 43.56176 1.7915493 43.57872 1.88450704 43.60416 1.97746479 43.61264 2.07042254 43.61264 2.16338028 43.61264 2.34929577 43.57872 2.53521127 43.51088 2.70422535 43.42608 2.86478873 43.32432 3.02535211 43.19712 3.16901408 43.06144 3.29577465 42.9088 3.3971831 42.73072 3.47323944 42.54416 3.54084507 42.3576 3.58309859 42.17104 3.58309859z"/>
    </g>
  </g>
</svg>
