<svg xmlns="http://www.w3.org/2000/svg" width="70" height="69" viewBox="0 0 70 69">
  <g fill="none" fill-rule="evenodd" transform="translate(1)">
    <g transform="translate(5.064)">
      <path fill="#DAE6F0" fill-rule="nonzero" d="M49.292766 12.0678125C49.292766 12.0678125 52.2442553 20.6928125 49.9655319 30.288125 48.5548936 36.239375 42.7242553 50.0825 46.2689362 51.620625 60.3970213 49.9890625 58.1834043 36.34 58.1834043 36.34L55.0582979 22.2021875 54.6459574 15.8484375C54.6387234 15.8484375 51.4051064 12.1971875 49.292766 12.0678125zM10.9378723 1.020625C10.9378723 1.020625 7.57404255 9.4946875 9.37531915 19.1834375 10.4965957 25.1921875 15.64 39.3084375 12.0229787 40.666875-2.01106383 38.3525.868085106 24.8328125.868085106 24.8328125L4.68042553 10.8603125 5.40382979 4.5353125C5.41106383 4.5353125 8.82553191 1.049375 10.9378723 1.020625z"/>
      <path d="M55.9119149,50.643125 L55.9119149,50.643125 C56.266383,50.7940625 56.4255319,51.2109375 56.273617,51.5559375 L56.273617,51.5559375 C56.1217021,51.908125 55.7021277,52.06625 55.3548936,51.9153125 L55.3548936,51.9153125 C55.0004255,51.764375 54.8412766,51.3475 54.9931915,51.0025 L54.9931915,51.0025 C55.1451064,50.6575 55.5574468,50.4921875 55.9119149,50.643125 Z"/>
      <path fill="#E2E2E2" fill-rule="nonzero" d="M52.0995745,52.8640625 L52.0995745,52.8640625 C52.6204255,53.086875 52.8591489,53.6978125 52.6348936,54.2153125 L52.6348936,54.2153125 C52.4106383,54.7328125 51.7957447,54.97 51.2748936,54.7471875 L51.2748936,54.7471875 C50.7540426,54.524375 50.5153191,53.9134375 50.7395745,53.3959375 L50.7395745,53.3959375 C50.9710638,52.8784375 51.5787234,52.64125 52.0995745,52.8640625 Z"/>
      <path d="M47.4697872,54.1003125 L47.4697872,54.1003125 C48.106383,54.3734375 48.4029787,55.1209375 48.1280851,55.7534375 L48.1280851,55.7534375 C47.8531915,56.3859375 47.1008511,56.680625 46.4642553,56.4075 L46.4642553,56.4075 C45.8276596,56.134375 45.5310638,55.386875 45.8059574,54.754375 L45.8059574,54.754375 C46.0808511,54.1146875 46.8331915,53.82 47.4697872,54.1003125 Z"/>
      <path fill="#A4C7E2" fill-rule="nonzero" d="M51.5497872 54.294375C51.3906383 54.2296875 51.2097872 54.1075 51.2097872 53.805625 51.2025532 53.5828125 51.3110638 53.345625 51.4702128 53.201875 51.6148936 53.0725 51.8102128 53.0221875 52.0561702 53.058125 52.1068085 53.0653125 52.1357447 53.0725 52.1502128 53.0796875 52.2514894 53.1228125 52.352766 53.4246875 52.2731915 53.7984375 52.2153191 54.0859375 52.0778723 54.2871875 51.9765957 54.351875 51.9548936 54.36625 51.8970213 54.4021875 51.7089362 54.351875 51.6510638 54.3375 51.6004255 54.3159375 51.5497872 54.294375L51.5497872 54.294375zM50.9710638 55.616875C51.0795745 55.66 51.1953191 55.703125 51.3182979 55.7390625 52.6276596 56.105625 53.4740426 55.156875 53.6910638 54.07875 53.8719149 53.15875 53.5897872 52.138125 52.7217021 51.764375 52.5770213 51.6996875 52.4178723 51.6565625 52.2370213 51.635 50.6961702 51.43375 49.7412766 52.655625 49.7557447 53.834375 49.7702128 54.553125 50.146383 55.2575 50.9710638 55.616875L50.9710638 55.616875zM46.6378723 56.335625C46.5004255 56.278125 46.3485106 56.191875 46.2110638 56.0984375 46.0953191 55.9978125 45.8855319 55.4875 45.9868085 54.9771875 46.0374468 54.725625 46.1025532 54.3878125 46.9995745 54.495625 47.086383 54.5028125 47.1659574 54.524375 47.2310638 54.553125 47.3178723 54.5890625 47.4480851 54.668125 47.5421277 54.9053125 47.6723404 55.2359375 47.6506383 55.6959375 47.4914894 56.0409375 47.3106383 56.4721875 47.1008511 56.536875 46.6378723 56.335625L46.6378723 56.335625zM46.0591489 57.658125C47.4191489 58.2475 48.3812766 57.6078125 48.8153191 56.6446875 49.3434043 55.4659375 49.0902128 53.7984375 47.8097872 53.245 47.6217021 53.1659375 47.4119149 53.1084375 47.1804255 53.0796875 45.5310638 52.8784375 44.7642553 53.7121875 44.5689362 54.7040625 44.373617 55.6959375 44.7497872 56.8459375 45.386383 57.2771875 45.6178723 57.4425 45.8421277 57.5646875 46.0591489 57.658125L46.0591489 57.658125zM40.467234 57.3203125C40.293617 57.24125 39.7510638 57.01125 39.8451064 56.1415625 39.9029787 55.5809375 40.2285106 55.0059375 40.6191489 54.783125 40.8144681 54.6753125 40.9808511 54.668125 41.1978723 54.7615625 41.2846809 54.7975 41.3787234 54.855 41.472766 54.9196875 42.1382979 55.40125 42.1961702 56.191875 41.9574468 56.7596875 41.7765957 57.1909375 41.3931915 57.64375 40.5757447 57.35625 40.5395745 57.3490625 40.5034043 57.3346875 40.467234 57.3203125L40.467234 57.3203125zM39.8885106 58.635625C39.953617 58.664375 40.0259574 58.693125 40.0910638 58.7146875 41.6319149 59.2609375 42.8110638 58.463125 43.2957447 57.313125 43.7804255 56.163125 43.5634043 54.6465625 42.326383 53.7553125 42.1382979 53.61875 41.9574468 53.518125 41.7765957 53.4390625 40.0548936 52.69875 38.586383 54.3159375 38.4055319 55.9834375 38.2970213 57.0471875 38.7021277 58.1253125 39.8885106 58.635625L39.8885106 58.635625zM39.8017021 49.809375C38.9408511 49.435625 38.2029787 48.9325 37.6170213 48.3071875 34.6221277 45.1446875 36.4451064 41.5078125 39.8089362 35.9015625 41.9068085 32.40125 44.0770213 28.77875 44.0987234 25.113125 44.1059574 23.9990625 44.0119149 22.9065625 43.9251064 21.85 43.686383 18.94625 43.4765957 16.4378125 45.1838298 14.145 46.8042553 11.9528125 48.8442553 12.405625 49.9148936 12.865625 51.7234043 13.6490625 53.6982979 15.8196875 53.7489362 18.7378125 53.7923404 21.375625 54.5229787 24.7034375 55.2897872 28.2325 56.6931915 34.6653125 58.2846809 41.960625 55.7165957 45.439375 52.9314894 49.1840625 44.887234 52.0015625 39.8017021 49.809375L39.8017021 49.809375zM39.2302128 51.1246875C44.8293617 53.546875 53.5897872 50.729375 56.8812766 46.2803125 61.3374468 40.2571875 55.3187234 26.1121875 55.1957447 18.7090625 55.1378723 15.424375 53.0255319 12.6428125 50.493617 11.543125 48.2944681 10.594375 45.7770213 10.9178125 44.0191489 13.2825 41.2991489 16.948125 42.673617 21.001875 42.6519149 25.09875 42.6085106 33.26375 29.9561702 42.305625 36.5680851 49.291875 37.3131915 50.0825 38.2246809 50.68625 39.2302128 51.1246875L39.2302128 51.1246875z"/>
      <path fill="#A4C7E2" d="M57.0548936 46.0359375C57.0910638 45.985625 57.12 45.9425 57.1489362 45.91375 57.127234 45.9425 57.0982979 45.9784375 57.0548936 46.0359375zM56.6353191 46.60375C56.5846809 46.6684375 56.5919149 46.66125 56.6353191 46.60375L56.6353191 46.60375zM56.9029787 46.244375C56.9608511 46.1725 57.0114894 46.0934375 57.0621277 46.02875 57.0187234 46.08625 56.9608511 46.158125 56.9029787 46.244375zM56.9029787 46.244375C56.8957447 46.25875 56.8885106 46.2659375 56.8812766 46.2803125 56.8668085 46.2946875 56.8595745 46.3090625 56.8451064 46.330625 56.8595745 46.301875 56.8812766 46.273125 56.9029787 46.244375z"/>
      <path fill="#A4C7E2" fill-rule="nonzero" d="M31.6995745 57.6653125C29.8259574 56.8603125 30.6289362 54.53875 30.8097872 54.0859375 31.2438298 52.971875 32.0468085 52.0590625 32.8859574 51.7140625 33.3851064 51.505625 33.8697872 51.5128125 34.3689362 51.72125 34.5280851 51.793125 34.687234 51.879375 34.846383 51.9871875 36.2642553 52.971875 36.1991489 54.811875 35.5480851 56.105625 35.2659574 56.6590625 34.1808511 58.4271875 32.0323404 57.7803125 31.9093617 57.7515625 31.8008511 57.715625 31.6995745 57.6653125L31.6995745 57.6653125zM31.1208511 58.9878125C31.272766 59.0525 31.4319149 59.11 31.6055319 59.1675 33.9782979 59.8790625 35.9025532 58.5925 36.8357447 56.7596875 37.8340426 54.7975 37.6748936 52.21 35.6782979 50.815625 35.4323404 50.643125 35.193617 50.51375 34.9476596 50.4059375 32.5965957 49.3925 30.3685106 51.2684375 29.4642553 53.56125 28.6468085 55.6240625 28.9144681 58.031875 31.1208511 58.9878125L31.1208511 58.9878125zM55.8034043 51.6134375C55.767234 51.5990625 55.6804255 51.5559375 55.5574468 51.4409375 55.5429787 51.3546875 55.5429787 51.189375 55.6008511 51.0528125 55.6153191 51.0240625 55.6225532 51.0096875 55.6225532 51.0025 55.6514894 50.9953125 55.76 50.9953125 55.9625532 51.06 55.9625532 51.06 55.9842553 51.0671875 55.9987234 51.074375 56.0131915 51.1534375 55.9987234 51.333125 55.8974468 51.49125 55.8612766 51.5559375 55.8251064 51.591875 55.8034043 51.6134375L55.8034043 51.6134375zM55.2246809 52.9359375C56.0421277 53.288125 56.7510638 52.8784375 57.1344681 52.23875 57.633617 51.4121875 57.5974468 50.2046875 56.5702128 49.7590625 56.5195745 49.7375 56.4617021 49.7159375 56.4110638 49.7015625 55.2608511 49.3278125 54.5808511 49.809375 54.2842553 50.470625 53.9876596 51.1390625 54.067234 51.994375 54.4578723 52.3825 54.7110638 52.6484375 54.9714894 52.828125 55.2246809 52.9359375L55.2246809 52.9359375z"/>
      <path d="M2.43787234 39.229375L2.43787234 39.229375C2.07617021 39.3659375 1.89531915 39.7684375 2.03276596 40.1278125L2.03276596 40.1278125C2.17021277 40.4871875 2.57531915 40.666875 2.93702128 40.5303125L2.93702128 40.5303125C3.2987234 40.39375 3.47957447 39.99125 3.34212766 39.631875L3.34212766 39.631875C3.20468085 39.2796875 2.79957447 39.0928125 2.43787234 39.229375zM6.13446809 41.63L6.13446809 41.63C5.60638298 41.83125 5.33148936 42.4278125 5.53404255 42.9525L5.53404255 42.9525C5.73659574 43.4771875 6.33702128 43.7503125 6.86510638 43.5490625L6.86510638 43.5490625C7.39319149 43.3478125 7.66808511 42.75125 7.46553191 42.2265625L7.46553191 42.2265625C7.27021277 41.6946875 6.66978723 41.42875 6.13446809 41.63zM10.6991489 43.0890625L10.6991489 43.0890625C10.0480851 43.3334375 9.71531915 44.0665625 9.9612766 44.7134375L9.9612766 44.7134375C10.207234 45.3603125 10.9451064 45.6909375 11.5961702 45.4465625L11.5961702 45.4465625C12.247234 45.2021875 12.58 44.4690625 12.3340426 43.8221875L12.3340426 43.8221875C12.0880851 43.168125 11.3502128 42.8446875 10.6991489 43.0890625z"/>
      <path fill="#A4C7E2" fill-rule="nonzero" d="M6.61914894 43.081875C6.56851064 43.1034375 6.51787234 43.1178125 6.46 43.1321875 6.27191489 43.1753125 6.21404255 43.1321875 6.19234043 43.1178125 6.09106383 43.053125 5.96808511 42.8446875 5.92468085 42.55 5.86680851 42.17625 5.98255319 41.874375 6.08382979 41.8384375 6.09829787 41.83125 6.13446809 41.8240625 6.17787234 41.816875 6.42382979 41.7953125 6.61191489 41.8528125 6.75659574 41.989375 6.90851064 42.1403125 7.00255319 42.3846875 6.98808511 42.6075 6.96638298 42.9165625 6.77829787 43.024375 6.61914894 43.081875L6.61914894 43.081875zM7.12553191 44.433125C7.97191489 44.116875 8.37702128 43.426875 8.42765957 42.7153125 8.50723404 41.5365625 7.61021277 40.2715625 6.06212766 40.4009375 5.8812766 40.4153125 5.72212766 40.45125 5.57021277 40.50875 4.68765957 40.839375 4.35489362 41.845625 4.49234043 42.7728125 4.65148936 43.858125 5.45446809 44.8428125 6.77829787 44.5409375 6.9012766 44.505 7.01702128 44.4690625 7.12553191 44.433125L7.12553191 44.433125zM11.4225532 45.3603125C10.9523404 45.54 10.7425532 45.4609375 10.5834043 45.036875 10.4459574 44.6775 10.4459574 44.2246875 10.5906383 43.90125 10.6919149 43.67125 10.8293617 43.5921875 10.9161702 43.5634375 10.9812766 43.541875 11.0608511 43.5203125 11.1476596 43.513125 12.0519149 43.4484375 12.1025532 43.78625 12.1387234 44.0378125 12.2110638 44.548125 11.9795745 45.0440625 11.8565957 45.1446875 11.7191489 45.2309375 11.567234 45.31 11.4225532 45.3603125L11.4225532 45.3603125zM11.9361702 46.704375C12.1531915 46.618125 12.3846809 46.5103125 12.6306383 46.359375 13.2889362 45.9640625 13.7157447 44.8284375 13.5710638 43.829375 13.426383 42.8303125 12.6957447 41.9534375 11.046383 42.075625 10.8148936 42.09 10.5978723 42.1403125 10.4097872 42.2121875 9.10042553 42.7009375 8.76765957 44.3540625 9.23787234 45.554375 9.6212766 46.54625 10.5544681 47.2290625 11.9361702 46.704375L11.9361702 46.704375zM17.5425532 46.6396875C17.506383 46.6540625 17.4702128 46.6684375 17.4268085 46.675625 16.6021277 46.9271875 16.2331915 46.4528125 16.0740426 46.014375 15.8642553 45.4321875 15.9582979 44.6415625 16.6455319 44.1959375 16.7468085 44.13125 16.8408511 44.0809375 16.9276596 44.045 17.1519149 43.95875 17.3182979 43.973125 17.506383 44.0953125 17.8825532 44.3396875 18.1791489 44.921875 18.2153191 45.4896875 18.2659574 46.3665625 17.7234043 46.575 17.5425532 46.6396875L17.5425532 46.6396875zM18.0489362 47.98375C19.2642553 47.5309375 19.72 46.474375 19.6548936 45.410625 19.5608511 43.7359375 18.1646809 42.046875 16.4140426 42.7009375 16.2259574 42.7728125 16.0378723 42.86625 15.8497872 42.9884375 14.5693617 43.8221875 14.287234 45.3171875 14.7068085 46.4959375 15.133617 47.6675 16.2693617 48.5228125 17.8391489 48.0484375 17.9187234 48.0340625 17.9838298 48.0125 18.0489362 47.98375L18.0489362 47.98375zM18.5697872 39.171875C13.3902128 41.1196875 5.4906383 37.92125 2.90085106 34.0328125.506382979 30.4390625 2.45234043 23.23 4.16680851 16.8690625 5.10723404 13.383125 5.99702128 10.09125 6.1706383 7.460625 6.3587234 4.5496875 8.43489362 2.4796875 10.2868085 1.7825 11.3791489 1.3728125 13.433617 1.020625 14.952766 3.2846875 16.5370213 5.6565625 16.2114894 8.150625 15.8280851 11.04 15.6906383 12.089375 15.5459574 13.181875 15.4953191 14.28875 15.3361702 17.954375 17.3255319 21.6703125 19.2497872 25.27125 22.3314894 31.035625 23.973617 34.7515625 20.8340426 37.7703125 20.2046809 38.366875 19.4451064 38.84125 18.5697872 39.171875L18.5697872 39.171875zM19.0761702 40.5159375C20.1034043 40.1278125 21.0365957 39.5671875 21.8251064 38.8125 28.7697872 32.156875 16.5731915 22.51125 16.9276596 14.360625 17.1085106 10.26375 18.6782979 6.2890625 16.1391489 2.4940625 14.4970213.043125 12.0012766-.4025 9.7587234.4384375 7.17617021 1.40875 4.92638298 4.0896875 4.71659574 7.3671875 4.23191489 14.7559375-2.47404255 28.591875 1.68553191 34.8234375 4.76 39.4234375 13.3685106 42.6578125 19.0761702 40.5159375L19.0761702 40.5159375z"/>
      <path fill="#A4C7E2" d="M1.51914894 34.5646875C1.48297872 34.514375 1.45404255 34.47125 1.43234043 34.4353125 1.45404255 34.47125 1.48297872 34.514375 1.51914894 34.5646875zM1.90978723 35.1540625C1.96042553 35.2259375 1.95319149 35.2115625 1.90978723 35.1540625L1.90978723 35.1540625zM1.66382979 34.7875C1.61319149 34.7084375 1.56255319 34.6365625 1.51914894 34.5646875 1.55531915 34.6221875 1.60595745 34.70125 1.66382979 34.7875zM1.66382979 34.7875C1.67106383 34.801875 1.67829787 34.8090625 1.68553191 34.8234375 1.7 34.845 1.70723404 34.859375 1.71446809 34.87375 1.7 34.845 1.68553191 34.81625 1.66382979 34.7875z"/>
      <path fill="#A4C7E2" fill-rule="nonzero" d="M26.2812766 47.4159375C26.18 47.451875 26.0642553 47.4878125 25.9485106 47.5165625 23.7710638 48.055625 22.772766 46.244375 22.5195745 45.6765625 21.926383 44.3540625 21.9553191 42.5140625 23.4165957 41.5940625 23.5829787 41.4934375 23.7421277 41.4071875 23.9085106 41.3496875 24.4148936 41.1628125 24.8995745 41.1771875 25.3842553 41.4071875 26.2089362 41.7953125 26.9612766 42.7440625 27.3446809 43.8796875 27.5038298 44.3396875 28.1838298 46.6971875 26.2812766 47.4159375L26.2812766 47.4159375zM26.7876596 48.76C29.0446809 47.911875 29.4208511 45.525625 28.7119149 43.426875 27.9234043 41.0909375 25.7893617 39.1071875 23.3876596 40.005625 23.1417021 40.0990625 22.8885106 40.22125 22.6353191 40.379375 20.573617 41.673125 20.2842553 44.24625 21.1885106 46.25875 22.0276596 48.1346875 23.8868085 49.5146875 26.2885106 48.9109375 26.4693617 48.8678125 26.6357447 48.8175 26.7876596 48.76L26.7876596 48.76zM2.50297872 40.1996875C2.4812766 40.178125 2.44510638 40.135 2.41617021 40.0775 2.3293617 39.9121875 2.31489362 39.7325 2.33659574 39.6534375 2.35106383 39.64625 2.37276596 39.6390625 2.37276596 39.6390625 2.57531915 39.5815625 2.68382979 39.5959375 2.71276596 39.5959375 2.71276596 39.603125 2.72 39.6175 2.73446809 39.64625 2.78510638 39.7828125 2.78510638 39.948125 2.76340426 40.034375 2.62595745 40.149375 2.53914894 40.1925 2.50297872 40.1996875L2.50297872 40.1996875zM3.01659574 41.54375C3.26978723 41.4503125 3.53744681 41.285 3.81957447 41.02625 4.22468085 40.6525 4.35489362 39.804375 4.08723404 39.1215625 3.81957447 38.43875 3.1612766 37.935625 1.99659574 38.251875 1.9387234 38.26625 1.88085106 38.2878125 1.83021277 38.3021875.781276596 38.6975.687234043 39.8978125 1.14297872 40.753125 1.49021277 41.414375 2.17744681 41.86 3.01659574 41.54375L3.01659574 41.54375z"/>
    </g>
    <path stroke="#A4C7E2" stroke-linecap="square" stroke-width="2" d="M0.361702128,68 L67.642187,68"/>
  </g>
</svg>
