<svg xmlns="http://www.w3.org/2000/svg" width="108" height="59" viewBox="0 0 108 59">
  <g fill="none" transform="translate(0 -.167)">
    <rect width="105.469" height="33.822" x="1.688" y="25" fill="#DAE6F0"/>
    <g fill="#A4C7E2" transform="translate(0 25)">
      <rect width="1.384" height="33.342" x=".051" y=".683"/>
      <rect width="1.384" height="33.342" x="5.113" y=".683"/>
      <rect width="1.384" height="33.342" x="10.167" y=".683"/>
      <rect width="1.384" height="33.342" x="15.23" y=".683"/>
      <rect width="1.384" height="33.342" x="20.284" y=".683"/>
      <rect width="1.384" height="33.342" x="25.346" y=".683"/>
      <rect width="1.384" height="33.342" x="30.4" y=".683"/>
      <rect width="1.384" height="33.342" x="35.463" y=".683"/>
      <rect width="1.384" height="33.342" x="40.517" y=".683"/>
      <rect width="1.384" height="33.342" x="45.579" y=".683"/>
      <rect width="1.384" height="33.342" x="50.633" y=".683"/>
      <rect width="1.384" height="33.342" x="55.696" y=".683"/>
      <rect width="1.384" height="33.342" x="60.75" y=".683"/>
      <rect width="1.384" height="33.342" x="65.813" y=".683"/>
      <rect width="1.384" height="33.342" x="70.867" y=".683"/>
      <rect width="1.384" height="33.342" x="75.929" y=".683"/>
      <rect width="1.384" height="33.342" x="80.983" y=".683"/>
      <rect width="1.384" height="33.342" x="86.046" y=".683"/>
      <rect width="1.384" height="33.342" x="91.1" y=".683"/>
      <rect width="1.384" height="33.342" x="96.162" y=".683"/>
      <rect width="1.384" height="33.342" x="101.216" y=".683"/>
      <rect width="1.384" height="33.342" x="106.279" y=".683"/>
    </g>
    <polygon fill="#512C84" points="62.902 18.433 31.691 .642 31.691 36.233"/>
    <polygon fill="#512C84" points="62.902 18.433 94.112 36.233 94.112 .642"/>
    <path fill="#A4C7E2" d="M38.77875,32.0166667 C37.3021875,32.0166667 35.859375,31.6083333 34.5009375,30.5666667 C32.9315625,29.3666667 32.3578125,27.9 31.8515625,26.6 C31.3453125,25.2916667 30.9065625,24.1666667 29.514375,23.3666667 C28.805625,22.9583333 27.91125,23.0583333 27.185625,23.6166667 C24.9075,25.3666667 21.7771875,26.4166667 18.8071875,26.4166667 C13.584375,26.4166667 10.0659375,23.0583333 10.0659375,18.05 C10.0659375,13.0416667 13.5759375,9.68333333 18.8071875,9.68333333 C22.1484375,9.68333333 25.6415625,10.9916667 27.9196875,13.1 C28.485,13.6166667 29.2275,13.7 29.8096875,13.3083333 C30.9740625,12.525 31.3790625,11.475 31.8515625,10.2583333 C32.3578125,8.95833333 32.9315625,7.49166667 34.5009375,6.29166667 C38.6015625,3.16666667 43.4278125,5.75 47.68875,8.025 C50.101875,9.31666667 52.38,10.5416667 54.151875,10.5416667 C56.6578125,10.5416667 58.7925,9.61666667 61.0453125,8.63333333 C63.635625,7.50833333 66.3103125,6.35 69.8371875,6.35 C72.765,6.35 75.3553125,7.725 78.3590625,9.325 C82.4259375,11.4916667 87.0328125,13.95 94.111875,13.95 L94.111875,15.8583333 C86.5434375,15.8583333 81.4978125,13.1666667 77.4478125,11.0083333 C74.6803125,9.53333333 72.2840625,8.25833333 69.845625,8.25833333 C66.7153125,8.25833333 64.2346875,9.34166667 61.83,10.3833333 C59.4928125,11.4 57.07125,12.45 54.1603125,12.45 C51.8990625,12.45 49.41,11.1166667 46.7775,9.70833333 C42.8540625,7.60833333 38.795625,5.43333333 35.690625,7.80833333 C34.5515625,8.675 34.138125,9.725 33.665625,10.95 C33.1509375,12.275 32.56875,13.775 30.9065625,14.8916667 C29.5903125,15.7833333 27.8184375,15.6166667 26.611875,14.5 C24.705,12.7333333 21.6421875,11.5916667 18.815625,11.5916667 C14.68125,11.5916667 12.0065625,14.125 12.0065625,18.05 C12.0065625,21.975 14.68125,24.5083333 18.815625,24.5083333 C21.33,24.5083333 24.0890625,23.5916667 26.004375,22.1083333 C27.3459375,21.075 29.109375,20.9166667 30.4846875,21.7083333 C32.4675,22.8416667 33.1003125,24.4666667 33.6571875,25.9 C34.1296875,27.1166667 34.543125,28.1666667 35.6821875,29.0416667 C38.795625,31.4166667 42.8540625,29.2416667 46.7690625,27.1416667 C49.4015625,25.7333333 51.890625,24.4 54.151875,24.4 C57.0628125,24.4 59.484375,25.45 61.8215625,26.4666667 C64.22625,27.5083333 66.7153125,28.5916667 69.8371875,28.5916667 C72.275625,28.5916667 74.671875,27.3166667 77.439375,25.8416667 C81.4978125,23.6833333 86.5434375,20.9916667 94.1034375,20.9916667 L94.1034375,22.9 C87.024375,22.9 82.4175,25.3583333 78.350625,27.525 C75.3553125,29.125 72.765,30.5 69.82875,30.5 C66.2934375,30.5 63.61875,29.3416667 61.036875,28.2166667 C58.775625,27.2333333 56.649375,26.3083333 54.1434375,26.3083333 C52.3715625,26.3083333 50.0934375,27.5333333 47.6803125,28.825 C44.8453125,30.3583333 41.74875,32.0166667 38.77875,32.0166667 Z"/>
    <g fill="#DAE6F0" transform="translate(32.063 16.667)">
      <path d="M1.873125 3.2C1.670625 3.2 1.485 3.15 1.31625 3.08333333 1.1390625 3.01666667.97875 2.90833333.84375 2.78333333.7003125 2.64166667.5990625 2.49166667.523125 2.31666667.455625 2.14166667.4134375 1.95833333.4134375 1.76666667.4134375 1.675.4134375 1.58333333.43875 1.48333333.4471875 1.39166667.489375 1.3.523125 1.21666667.556875 1.125.6075 1.04166667.6496875.958333333.70875.891666667.7678125.808333333.826875.75 1.164375.416666667 1.6621875.258333333 2.143125.358333333 2.2275.383333333 2.3203125.408333333 2.413125.441666667 2.4975.475 2.581875.525 2.6578125.566666667 2.7421875.625 2.8096875.683333333 2.8771875.75 3.13875 1.01666667 3.2990625 1.375 3.2990625 1.75833333 3.2990625 1.94166667 3.2484375 2.13333333 3.1809375 2.30833333 3.1134375 2.48333333 3.00375 2.63333333 2.8603125 2.775 2.73375 2.9 2.565 3.00833333 2.4046875 3.075 2.244375 3.15833333 2.05875 3.2 1.873125 3.2zM37.8084375 1.775C37.8084375.983333333 38.458125.341666667 39.2596875.341666667L39.2596875.341666667C40.06125.341666667 40.7109375.983333333 40.7109375 1.775L40.7109375 1.775C40.7109375 2.56666667 40.06125 3.2 39.2596875 3.2L39.2596875 3.2C38.458125 3.2 37.8084375 2.56666667 37.8084375 1.775zM34.070625 1.775C34.070625.983333333 34.7203125.341666667 35.521875.341666667L35.521875.341666667C36.3234375.341666667 36.973125.983333333 36.973125 1.775L36.973125 1.775C36.973125 2.56666667 36.3234375 3.2 35.521875 3.2L35.521875 3.2C34.711875 3.2 34.070625 2.56666667 34.070625 1.775zM30.324375 1.775C30.324375.983333333 30.9825.341666667 31.775625.341666667L31.775625.341666667C32.5771875.341666667 33.226875.983333333 33.226875 1.775L33.226875 1.775C33.226875 2.56666667 32.5771875 3.2 31.775625 3.2L31.775625 3.2C30.9825 3.2 30.324375 2.56666667 30.324375 1.775zM26.595 1.775C26.595.983333333 27.2446875.341666667 28.04625.341666667L28.04625.341666667C28.8478125.341666667 29.4975.983333333 29.4975 1.775L29.4975 1.775C29.4975 2.56666667 28.8478125 3.2 28.04625 3.2L28.04625 3.2C27.2446875 3.2 26.595 2.56666667 26.595 1.775zM22.8571875 1.775C22.8571875.983333333 23.506875.341666667 24.3084375.341666667L24.3084375.341666667C25.11.341666667 25.7596875.983333333 25.7596875 1.775L25.7596875 1.775C25.7596875 2.56666667 25.11 3.2 24.3084375 3.2L24.3084375 3.2C23.4984375 3.2 22.8571875 2.56666667 22.8571875 1.775zM19.1109375 1.775C19.1109375.983333333 19.760625.341666667 20.5621875.341666667L20.5621875.341666667C21.36375.341666667 22.0134375.983333333 22.0134375 1.775L22.0134375 1.775C22.0134375 2.56666667 21.36375 3.2 20.5621875 3.2L20.5621875 3.2C19.760625 3.2 19.1109375 2.56666667 19.1109375 1.775zM15.3646875 1.775C15.3646875.983333333 16.0228125.341666667 16.8159375.341666667L16.8159375.341666667C17.6175.341666667 18.2671875.983333333 18.2671875 1.775L18.2671875 1.775C18.2671875 2.56666667 17.6175 3.2 16.8159375 3.2L16.8159375 3.2C16.03125 3.2 15.3646875 2.56666667 15.3646875 1.775zM11.6353125 1.775C11.6353125.983333333 12.285.341666667 13.0865625.341666667L13.0865625.341666667C13.888125.341666667 14.5378125.983333333 14.5378125 1.775L14.5378125 1.775C14.5378125 2.56666667 13.888125 3.2 13.0865625 3.2L13.0865625 3.2C12.285 3.2 11.6353125 2.56666667 11.6353125 1.775zM7.8975 1.775C7.8975.983333333 8.5471875.341666667 9.34875.341666667L9.34875.341666667C10.1503125.341666667 10.8.983333333 10.8 1.775L10.8 1.775C10.8 2.56666667 10.1503125 3.2 9.34875 3.2L9.34875 3.2C8.53875 3.2 7.8975 2.56666667 7.8975 1.775zM4.15125 1.775C4.15125.983333333 4.8009375.341666667 5.6025.341666667L5.6025.341666667C6.4040625.341666667 7.05375.983333333 7.05375 1.775L7.05375 1.775C7.05375 2.56666667 6.4040625 3.2 5.6025 3.2L5.6025 3.2C4.8009375 3.2 4.15125 2.56666667 4.15125 1.775zM42.9890625 3.2C42.8034375 3.2 42.609375 3.15 42.4321875 3.08333333 42.2634375 3.01666667 42.103125 2.90833333 41.9596875 2.78333333 41.833125 2.64166667 41.7234375 2.48333333 41.6559375 2.31666667 41.5884375 2.14166667 41.54625 1.95833333 41.54625 1.76666667 41.54625 1.675 41.54625 1.58333333 41.5715625 1.48333333 41.596875 1.38333333 41.6221875 1.3 41.6559375 1.21666667 41.6896875 1.125 41.7403125 1.04166667 41.7825.958333333 41.8415625.891666667 41.900625.808333333 41.9596875.75 42.0271875.683333333 42.103125.625 42.1790625.566666667 42.2634375.516666667 42.3478125.475 42.42375.441666667 42.5165625.408333333 42.609375.383333333 42.69375.358333333 42.879375.325 43.081875.325 43.2675.358333333 43.351875.383333333 43.4446875.408333333 43.5375.441666667 43.621875.475 43.70625.525 43.7821875.566666667 43.8496875.625 43.9340625.683333333 43.993125.75 44.060625.808333333 44.1196875.891666667 44.17875.958333333 44.229375 1.04166667 44.2715625 1.11666667 44.3053125 1.21666667 44.3390625 1.3 44.364375 1.39166667 44.3896875 1.48333333 44.415 1.575 44.415 1.66666667 44.415 1.76666667 44.415 2.14166667 44.2715625 2.5 43.993125 2.775 43.8665625 2.9 43.6978125 3.00833333 43.5375 3.075 43.3771875 3.15833333 43.1915625 3.2 42.9890625 3.2z"/>
    </g>
  </g>
</svg>
