<svg xmlns="http://www.w3.org/2000/svg" width="109" height="60" viewBox="0 0 109 60">
  <g fill="none" fill-rule="evenodd" transform="translate(1)">
    <g transform="translate(0 25.833)">
      <rect width="105.469" height="32.5" x=".844" y=".833" fill="#DAE6F0" fill-rule="nonzero"/>
      <g stroke="#A4C7E2" stroke-width="1.377">
        <path d="M.1603125.683333333L.1603125 34.0166667M5.214375.683333333L5.214375 34.0166667M10.276875.683333333L10.276875 34.0166667M15.3309375.683333333L15.3309375 34.0166667M20.3934375.683333333L20.3934375 34.0166667M25.4475.683333333L25.4475 34.0166667M30.51.683333333L30.51 34.0166667M35.5640625.683333333L35.5640625 34.0166667M40.6265625.683333333L40.6265625 34.0166667M45.680625.683333333L45.680625 34.0166667M50.743125.683333333L50.743125 34.0166667M55.7971875.683333333L55.7971875 34.0166667M60.8596875.683333333L60.8596875 34.0166667M65.91375.683333333L65.91375 34.0166667M70.97625.683333333L70.97625 34.0166667M76.0303125.683333333L76.0303125 34.0166667M81.0928125.683333333L81.0928125 34.0166667M86.146875.683333333L86.146875 34.0166667M91.209375.683333333L91.209375 34.0166667M96.2634375.683333333L96.2634375 34.0166667M101.325937.683333333L101.325937 34.0166667M106.38.683333333L106.38 34.0166667"/>
      </g>
    </g>
    <ellipse cx="54.321" cy="19.275" fill="#512C84" fill-rule="nonzero" rx="27.658" ry="18.642"/>
    <path fill="#A4C7E2" fill-rule="nonzero" d="M38.1965625,32.85 C36.72,32.85 35.2771875,32.4416667 33.91875,31.4 C32.349375,30.2 31.775625,28.7333333 31.269375,27.4333333 C30.763125,26.125 30.324375,25 28.9321875,24.2 C28.2234375,23.7916667 27.3290625,23.8916667 26.6034375,24.45 C24.3253125,26.2 21.195,27.25 18.225,27.25 C13.0021875,27.25 9.48375,23.8916667 9.48375,18.8833333 C9.48375,13.875 12.99375,10.5166667 18.225,10.5166667 C21.56625,10.5166667 25.059375,11.825 27.3375,13.9333333 C27.9028125,14.45 28.6453125,14.5333333 29.2275,14.1416667 C30.391875,13.3583333 30.796875,12.3083333 31.269375,11.0916667 C31.775625,9.79166667 32.349375,8.325 33.91875,7.125 C38.0278125,4 42.845625,6.58333333 47.1065625,8.85833333 C49.5196875,10.15 51.7978125,11.375 53.5696875,11.375 C56.075625,11.375 58.2103125,10.45 60.463125,9.46666667 C63.0534375,8.34166667 65.728125,7.18333333 69.255,7.18333333 C72.1828125,7.18333333 74.773125,8.55833333 77.776875,10.1583333 C81.84375,12.325 86.450625,14.7833333 93.5296875,14.7833333 L93.5296875,16.6916667 C85.96125,16.6916667 80.915625,14 76.865625,11.8416667 C74.098125,10.3666667 71.701875,9.09166667 69.2634375,9.09166667 C66.133125,9.09166667 63.6525,10.175 61.2478125,11.2166667 C58.910625,12.2333333 56.4890625,13.2833333 53.578125,13.2833333 C51.316875,13.2833333 48.8278125,11.95 46.1953125,10.5416667 C42.271875,8.44166667 38.2134375,6.26666667 35.1084375,8.64166667 C33.969375,9.50833333 33.5559375,10.5583333 33.0834375,11.7833333 C32.56875,13.1083333 31.9865625,14.6083333 30.324375,15.725 C29.008125,16.6166667 27.23625,16.45 26.0296875,15.3333333 C24.1228125,13.5666667 21.06,12.425 18.2334375,12.425 C14.0990625,12.425 11.424375,14.9583333 11.424375,18.8833333 C11.424375,22.8083333 14.0990625,25.3416667 18.2334375,25.3416667 C20.7478125,25.3416667 23.506875,24.425 25.4221875,22.9416667 C26.76375,21.9083333 28.5271875,21.75 29.9025,22.5416667 C31.8853125,23.675 32.518125,25.3 33.075,26.7333333 C33.5475,27.95 33.9609375,29 35.1,29.875 C38.2134375,32.25 42.271875,30.075 46.186875,27.975 C48.819375,26.5666667 51.3084375,25.2333333 53.5696875,25.2333333 C56.480625,25.2333333 58.9021875,26.2833333 61.239375,27.3 C63.6440625,28.3416667 66.133125,29.425 69.255,29.425 C71.6934375,29.425 74.0896875,28.15 76.8571875,26.675 C80.915625,24.5166667 85.96125,21.825 93.52125,21.825 L93.52125,23.7333333 C86.4421875,23.7333333 81.8353125,26.1916667 77.7684375,28.3583333 C74.773125,29.9583333 72.1828125,31.3333333 69.2465625,31.3333333 C65.71125,31.3333333 63.0365625,30.175 60.4546875,29.05 C58.1934375,28.0666667 56.0671875,27.1416667 53.56125,27.1416667 C51.789375,27.1416667 49.51125,28.3666667 47.098125,29.6583333 C44.263125,31.1916667 41.158125,32.85 38.1965625,32.85 Z"/>
    <g fill="#DAE6F0" fill-rule="nonzero" transform="translate(31.219 17.5)">
      <path d="M2.1178125 3.2C1.9321875 3.2 1.738125 3.15 1.5609375 3.08333333 1.38375 3.01666667 1.231875 2.90833333 1.0884375 2.78333333.961875 2.64166667.8521875 2.49166667.7678125 2.31666667.7003125 2.14166667.658125 1.95833333.658125 1.76666667.658125 1.38333333.81 1.025 1.08.758333333 1.1475.691666667 1.2234375.633333333 1.299375.575 1.366875.525 1.468125.483333333 1.5440625.45 1.6284375.416666667 1.72125.391666667 1.8140625.366666667 2.2865625.275 2.7928125.425 3.121875.758333333 3.189375.816666667 3.2484375.9 3.2990625.966666667 3.358125 1.05 3.40875 1.125 3.4425 1.225 3.47625 1.30833333 3.5015625 1.4 3.526875 1.49166667 3.5353125 1.58333333 3.5521875 1.675 3.5521875 1.775 3.5521875 1.95833333 3.5184375 2.15 3.4425 2.325 3.375 2.48333333 3.2653125 2.65 3.121875 2.79166667 2.9784375 2.91666667 2.8265625 3.025 2.649375 3.09166667 2.4975 3.15833333 2.311875 3.2 2.1178125 3.2zM38.0615625 1.775C38.0615625.983333333 38.71125.341666667 39.5128125.341666667L39.5128125.341666667C40.314375.341666667 40.9640625.983333333 40.9640625 1.775L40.9640625 1.775C40.9640625 2.56666667 40.314375 3.2 39.5128125 3.2L39.5128125 3.2C38.71125 3.2 38.0615625 2.56666667 38.0615625 1.775zM34.3321875 1.775C34.3321875.983333333 34.981875.341666667 35.7834375.341666667L35.7834375.341666667C36.585.341666667 37.2346875.983333333 37.2346875 1.775L37.2346875 1.775C37.2346875 2.56666667 36.585 3.2 35.7834375 3.2L35.7834375 3.2C34.981875 3.2 34.3321875 2.56666667 34.3321875 1.775zM30.594375 1.775C30.594375.983333333 31.2440625.341666667 32.045625.341666667L32.045625.341666667C32.8471875.341666667 33.496875.983333333 33.496875 1.775L33.496875 1.775C33.496875 2.56666667 32.8471875 3.2 32.045625 3.2L32.045625 3.2C31.235625 3.2 30.594375 2.56666667 30.594375 1.775zM26.848125 1.775C26.848125.983333333 27.4978125.341666667 28.299375.341666667L28.299375.341666667C29.1009375.341666667 29.750625.983333333 29.750625 1.775L29.750625 1.775C29.750625 2.56666667 29.1009375 3.2 28.299375 3.2L28.299375 3.2C27.4978125 3.2 26.848125 2.56666667 26.848125 1.775zM23.101875 1.775C23.101875.983333333 23.7515625.341666667 24.553125.341666667L24.553125.341666667C25.3546875.341666667 26.004375.983333333 26.004375 1.775L26.004375 1.775C26.004375 2.56666667 25.3546875 3.2 24.553125 3.2L24.553125 3.2C23.7515625 3.2 23.101875 2.56666667 23.101875 1.775zM19.3725 1.775C19.3725.983333333 20.0221875.341666667 20.82375.341666667L20.82375.341666667C21.6253125.341666667 22.275.983333333 22.275 1.775L22.275 1.775C22.275 2.56666667 21.6253125 3.2 20.82375 3.2L20.82375 3.2C20.0221875 3.2 19.3725 2.56666667 19.3725 1.775zM15.6346875 1.775C15.6346875.983333333 16.284375.341666667 17.0859375.341666667L17.0859375.341666667C17.8875.341666667 18.5371875.983333333 18.5371875 1.775L18.5371875 1.775C18.5371875 2.56666667 17.8875 3.2 17.0859375 3.2L17.0859375 3.2C16.2759375 3.2 15.6346875 2.56666667 15.6346875 1.775zM11.8884375 1.775C11.8884375.983333333 12.538125.341666667 13.3396875.341666667L13.3396875.341666667C14.14125.341666667 14.7909375.983333333 14.7909375 1.775L14.7909375 1.775C14.7909375 2.56666667 14.14125 3.2 13.3396875 3.2L13.3396875 3.2C12.538125 3.2 11.8884375 2.56666667 11.8884375 1.775zM8.1590625 1.775C8.1590625.983333333 8.80875.341666667 9.6103125.341666667L9.6103125.341666667C10.395.341666667 11.0615625.983333333 11.0615625 1.775L11.0615625 1.775C11.0615625 2.56666667 10.4034375 3.2 9.6103125 3.2L9.6103125 3.2C8.80875 3.2 8.1590625 2.56666667 8.1590625 1.775zM4.4128125 1.775C4.4128125.983333333 5.0625.341666667 5.8640625.341666667L5.8640625.341666667C6.665625.341666667 7.3153125.983333333 7.3153125 1.775L7.3153125 1.775C7.3153125 2.56666667 6.665625 3.2 5.8640625 3.2L5.8640625 3.2C5.0625 3.2 4.4128125 2.56666667 4.4128125 1.775zM43.250625 3.2C43.065 3.2 42.8709375 3.15 42.69375 3.08333333 42.5165625 3.01666667 42.3646875 2.90833333 42.22125 2.78333333 42.0946875 2.64166667 41.985 2.49166667 41.900625 2.31666667 41.833125 2.14166667 41.7909375 1.95833333 41.7909375 1.76666667 41.7909375 1.675 41.799375 1.58333333 41.81625 1.48333333 41.8415625 1.39166667 41.866875 1.3 41.900625 1.21666667 41.934375 1.125 41.985 1.04166667 42.0440625.958333333 42.0946875.891666667 42.15375.808333333 42.22125.75 42.5503125.416666667 43.0565625.258333333 43.5290625.358333333 43.621875.383333333 43.7146875.408333333 43.7990625.441666667 43.8834375.475 43.97625.525 44.04375.566666667 44.128125.625 44.195625.683333333 44.263125.75 44.330625.808333333 44.3896875.891666667 44.4403125.958333333 44.499375 1.04166667 44.533125 1.11666667 44.58375 1.21666667 44.6175 1.3 44.6428125 1.39166667 44.668125 1.48333333 44.6765625 1.575 44.6934375 1.66666667 44.6934375 1.76666667 44.6934375 1.95 44.6596875 2.14166667 44.58375 2.31666667 44.5078125 2.49166667 44.4065625 2.64166667 44.263125 2.78333333 44.1196875 2.90833333 43.9678125 3.01666667 43.790625 3.08333333 43.6303125 3.15833333 43.4446875 3.2 43.250625 3.2z"/>
    </g>
  </g>
</svg>
