<svg xmlns="http://www.w3.org/2000/svg" width="70" height="63" viewBox="0 0 70 63">
  <g fill="none" fill-rule="evenodd" transform="translate(1)">
    <path fill="#DAE6F0" fill-rule="nonzero" d="M26.4187234,50.0277273 C26.4187234,50.0277273 20.2553191,43.3125 18.4902128,33.6477273 C17.3978723,27.6555682 17.1808511,12.7073864 13.3106383,12.7073864 C1.00553191,19.7805682 8.52170213,31.3639773 8.52170213,31.3639773 L17.0651064,43.0404545 L19.9948936,48.6818182 C20.0021277,48.6818182 24.4293617,50.7436364 26.4187234,50.0277273 Z"/>
    <path d="M4.8612766 17.40375L4.8612766 17.40375C4.47787234 17.40375 4.15957447 17.08875 4.15957447 16.7093182L4.15957447 16.7093182C4.15957447 16.3298864 4.47787234 16.0148864 4.8612766 16.0148864L4.8612766 16.0148864C5.24468085 16.0148864 5.56297872 16.3298864 5.56297872 16.7093182L5.56297872 16.7093182C5.56297872 17.0959091 5.24468085 17.40375 4.8612766 17.40375zM7.46553191 13.8743182L7.46553191 13.8743182C6.89404255 13.8743182 6.43106383 13.4161364 6.43106383 12.8505682L6.43106383 12.8505682C6.43106383 12.285 6.89404255 11.8268182 7.46553191 11.8268182L7.46553191 11.8268182C8.03702128 11.8268182 8.5 12.285 8.5 12.8505682L8.5 12.8505682C8.49276596 13.4161364 8.02978723 13.8743182 7.46553191 13.8743182zM11.212766 10.9176136L11.212766 10.9176136C10.5182979 10.9176136 9.94680851 10.3520455 9.94680851 9.66477273L9.94680851 9.66477273C9.94680851 8.9775 10.5182979 8.41193182 11.212766 8.41193182L11.212766 8.41193182C11.907234 8.41193182 12.4787234 8.9775 12.4787234 9.66477273L12.4787234 9.66477273C12.4787234 10.3520455 11.907234 10.9176136 11.212766 10.9176136z"/>
    <path fill="#A4C7E2" fill-rule="nonzero" d="M7.39319149 12.3494318C7.56680851 12.3494318 7.77659574 12.3852273 7.90680851 12.6572727 8.00085106 12.8577273 8.00085106 13.1154545 7.91404255 13.3159091 7.83446809 13.4948864 7.67531915 13.6094318 7.43659574 13.6810227 7.38595745 13.6953409 7.35702128 13.6953409 7.34255319 13.6953409 7.23404255 13.6953409 7.01702128 13.4590909 6.93744681 13.0868182 6.87234043 12.8004545 6.92297872 12.5642045 6.98808511 12.4639773 7.00255319 12.4425 7.04595745 12.3852273 7.23404255 12.3565909 7.28468085 12.3565909 7.34255319 12.3494318 7.39319149 12.3494318L7.39319149 12.3494318zM7.39319149 10.9176136C7.27744681 10.9176136 7.15446809 10.9247727 7.02425532 10.94625 5.6787234 11.1323864 5.28085106 12.3279545 5.51234043 13.3946591 5.71489362 14.3110227 6.38765957 15.1271591 7.32808511 15.1271591 7.48723404 15.1271591 7.65361702 15.1056818 7.82723404 15.0555682 9.31744681 14.6331818 9.70808511 13.1369318 9.21617021 12.0702273 8.91957447 11.4115909 8.29744681 10.9176136 7.39319149 10.9176136L7.39319149 10.9176136zM11.0753191 8.54795455C11.227234 8.54795455 11.393617 8.56227273 11.56 8.59806818 11.7046809 8.64818182 12.1025532 9.02761364 12.2182979 9.52875 12.2761702 9.77215909 12.3485106 10.1086364 11.4804255 10.3663636 11.393617 10.3878409 11.3212766 10.4021591 11.2489362 10.4021591 11.1548936 10.4021591 11.0029787 10.3806818 10.8221277 10.2017045 10.5689362 9.95113636 10.4025532 9.52875 10.4097872 9.14215909 10.4097872 8.69113636 10.5761702 8.54795455 11.0753191 8.54795455L11.0753191 8.54795455zM11.0753191 7.11613636C9.59234043 7.11613636 8.96297872 8.07545455 8.95574468 9.12784091 8.9412766 10.4093182 9.84553191 11.8339773 11.2417021 11.8339773 11.4442553 11.8339773 11.6612766 11.8053409 11.8855319 11.73375 13.4770213 11.2684091 13.8459574 10.2017045 13.6217021 9.21375 13.4046809 8.22579545 12.5944681 7.32375 11.8421277 7.18772727 11.567234 7.13761364 11.3140426 7.11613636 11.0753191 7.11613636L11.0753191 7.11613636zM16.3417021 5.21181818C16.5370213 5.21181818 17.1157447 5.21181818 17.3834043 6.04227273 17.5570213 6.57920455 17.4846809 7.23068182 17.2170213 7.58863636 17.0868085 7.76761364 16.9348936 7.83920455 16.6961702 7.83920455 16.6021277 7.83920455 16.493617 7.82488636 16.3778723 7.80340909 15.5748936 7.62443182 15.2059574 6.92284091 15.1987234 6.30715909 15.1914894 5.84181818 15.3651064 5.27625 16.2259574 5.21181818 16.2621277 5.21181818 16.3055319 5.21181818 16.3417021 5.21181818L16.3417021 5.21181818zM16.3417021 3.78C16.2693617 3.78 16.1970213 3.78 16.1246809 3.78715909 14.4897872 3.90170455 13.7302128 5.09011364 13.7519149 6.32863636 13.773617 7.57431818 14.5765957 8.87011364 16.0668085 9.19227273 16.2910638 9.24238636 16.5008511 9.26386364 16.7034043 9.26386364 18.5770213 9.26386364 19.2787234 7.20204545 18.7723404 5.60556818 18.4468085 4.60329545 17.6365957 3.78 16.3417021 3.78L16.3417021 3.78zM19.9659574 11.8125C20.906383 11.8125 21.7817021 11.9843182 22.5702128 12.3207955 26.5851064 14.0246591 26.3753191 18.0695455 25.5434043 24.5198864 25.0225532 28.5432955 24.4944681 32.7098864 25.9485106 36.0675 26.3897872 37.0840909 26.9106383 38.0505682 27.4170213 38.98125 28.8059574 41.5370455 29.9995745 43.7492045 29.3629787 46.5126136 28.7553191 49.1543182 26.7080851 49.5480682 25.5361702 49.5480682 23.5612766 49.5480682 20.8846809 48.3453409 19.6693617 45.6964773 18.5697872 43.3053409 16.5659574 40.5490909 14.446383 37.6353409 10.5761702 32.3089773 6.18510638 26.2738636 7.14723404 22.0929545 8.18170213 17.56125 14.4246809 11.8125 19.9659574 11.8125L19.9659574 11.8125zM19.9659574 10.3806818C13.8604255 10.3806818 6.95914894 16.4086364 5.7293617 21.7779545 4.06553191 29.0372727 15.2565957 39.5826136 18.3455319 46.2906818 19.712766 49.2688636 22.772766 50.9798864 25.5289362 50.9798864 27.9306383 50.9798864 30.1008511 49.69125 30.766383 46.8347727 31.786383 42.4104545 28.9 39.2532955 27.2723404 35.5019318 24.0314894 28.0278409 32.0034043 14.7763636 23.1344681 11.0035227 22.1361702 10.5739773 21.0655319 10.3806818 19.9659574 10.3806818L19.9659574 10.3806818z"/>
    <path fill="#A4C7E2" d="M5.66425532 22.0714773C5.64978723 22.12875 5.64255319 22.1788636 5.62808511 22.2218182 5.63531915 22.1860227 5.64978723 22.1359091 5.66425532 22.0714773zM5.81617021 21.3842045C5.83787234 21.3054545 5.8306383 21.3197727 5.81617021 21.3842045L5.81617021 21.3842045zM5.72212766 21.81375C5.70042553 21.8996591 5.6787234 21.9927273 5.66425532 22.0714773 5.6787234 22.0070455 5.69319149 21.9211364 5.72212766 21.81375zM5.72212766 21.81375C5.72212766 21.7994318 5.7293617 21.7851136 5.7293617 21.7779545 5.73659574 21.7564773 5.73659574 21.7421591 5.74382979 21.7206818 5.73659574 21.7493182 5.7293617 21.7851136 5.72212766 21.81375z"/>
    <path fill="#A4C7E2" fill-rule="nonzero" d="M24.2412766 1.43181818C26.2812766 1.43181818 26.4765957 3.86590909 26.4982979 4.35272727 26.5417021 5.54113636 26.18 6.68659091 25.5434043 7.33806818 25.167234 7.72465909 24.7187234 7.91079545 24.1834043 7.91079545 24.0097872 7.91079545 23.8289362 7.88931818 23.6408511 7.85352273 21.9480851 7.50988636 21.2608511 5.80602273 21.3476596 4.36704545 21.3838298 3.74420455 21.6731915 1.70386364 23.9012766 1.44613636 24.0097872 1.43897727 24.1255319 1.43181818 24.2412766 1.43181818L24.2412766 1.43181818zM24.2412766 0C24.0748936 0 23.9012766.00715909091 23.7276596.0286363636 21.2680851.315 20.0165957 2.25511364 19.9008511 4.28829545 19.7778723 6.47897727 20.9570213 8.77704545 23.3514894 9.25670455 23.6408511 9.31397727 23.9229787 9.34261364 24.1834043 9.34261364 26.7442553 9.34261364 28.0391489 6.75102273 27.9451064 4.29545455 27.8582979 2.09045455 26.6502128 0 24.2412766 0L24.2412766 0zM4.57191489 16.4802273C4.60808511 16.4802273 4.7093617 16.4873864 4.86851064 16.5446591 4.91914894 16.61625 4.98425532 16.77375 4.98425532 16.9169318L4.98425532 16.9670455C4.95531915 16.9813636 4.8612766 17.0314773 4.65148936 17.0457955L4.60808511 17.0457955C4.56468085 16.9813636 4.50680851 16.8095455 4.53574468 16.6234091 4.54297872 16.5518182 4.55744681 16.5088636 4.57191489 16.4802273L4.57191489 16.4802273zM4.57191489 15.0484091C3.68212766 15.0484091 3.19744681 15.6998864 3.09617021 16.4372727 2.97319149 17.3894318 3.49404255 18.4776136 4.60808511 18.4776136 4.66595745 18.4776136 4.72382979 18.4776136 4.78170213 18.4704545 5.98255319 18.3559091 6.41659574 17.6543182 6.42382979 16.9240909 6.43106383 16.2010227 6.01148936 15.4493182 5.49787234 15.2488636 5.1506383 15.1056818 4.84680851 15.0484091 4.57191489 15.0484091L4.57191489 15.0484091z"/>
    <path d="M61.9161702 24.1834091L61.9161702 24.1834091C62.2995745 24.2120455 62.6395745 23.9185227 62.6612766 23.5390909L62.6612766 23.5390909C62.6902128 23.1596591 62.393617 22.8231818 62.0102128 22.8017045L62.0102128 22.8017045C61.6268085 22.7730682 61.2868085 23.0665909 61.2651064 23.4460227L61.2651064 23.4460227C61.2361702 23.8254545 61.532766 24.1547727 61.9161702 24.1834091zM59.5578723 20.4893182L59.5578723 20.4893182C60.1221277 20.5251136 60.6212766 20.0955682 60.6574468 19.5371591L60.6574468 19.5371591C60.693617 18.97875 60.2595745 18.4847727 59.6953191 18.4489773L59.6953191 18.4489773C59.1310638 18.4131818 58.6319149 18.8427273 58.5957447 19.4011364L58.5957447 19.4011364C58.5595745 19.9595455 58.993617 20.4535227 59.5578723 20.4893182zM56.0131915 17.2892045L56.0131915 17.2892045C56.7076596 17.3321591 57.3153191 16.8095455 57.3587234 16.1222727L57.3587234 16.1222727C57.4021277 15.435 56.8740426 14.8336364 56.1795745 14.7906818L56.1795745 14.7906818C55.4851064 14.7477273 54.8774468 15.2703409 54.8340426 15.9576136L54.8340426 15.9576136C54.7906383 16.6448864 55.3187234 17.24625 56.0131915 17.2892045z"/>
    <path fill="#DAE6F0" fill-rule="nonzero" d="M38.1957447,55.2968182 C38.1957447,55.2968182 44.8004255,49.0111364 47.2165957,39.4823864 C48.7140426,33.5761364 49.9438298,18.6780682 53.7995745,18.9357955 C65.5982979,26.8036364 57.3153191,37.8715909 57.3153191,37.8715909 L47.9978723,48.9538636 L44.6919149,54.3876136 C44.6919149,54.3876136 40.127234,56.1415909 38.1957447,55.2968182 Z"/>
    <path fill="#A4C7E2" fill-rule="nonzero" d="M59.7314894 18.9715909C59.7821277 18.9715909 59.84 18.9859091 59.8978723 18.9930682 60.0859574 19.0288636 60.1221277 19.0932955 60.1365957 19.1147727 60.2017021 19.215 60.2306383 19.4584091 60.1438298 19.7376136 60.0353191 20.1027273 59.8110638 20.3246591 59.7025532 20.3175 59.6880851 20.3175 59.6519149 20.3103409 59.6085106 20.2960227 59.3770213 20.2101136 59.2251064 20.08125 59.16 19.9022727 59.0804255 19.7018182 59.1021277 19.4440909 59.2106383 19.2507955 59.3480851 18.97875 59.5578723 18.9644318 59.7314894 18.9715909L59.7314894 18.9715909zM59.8255319 17.5469318C58.9285106 17.4896591 58.2702128 17.9406818 57.9229787 18.5706818 57.3587234 19.60875 57.6480851 21.1193182 59.1093617 21.6419318 59.2757447 21.6992045 59.4421277 21.735 59.6012766 21.7493182 60.5417021 21.81375 61.2651064 21.0405682 61.532766 20.1456818 61.8438298 19.1004545 61.5255319 17.87625 60.1944681 17.5970455 60.0642553 17.5684091 59.9485106 17.5540909 59.8255319 17.5469318L59.8255319 17.5469318zM56.3097872 14.9267045C56.8161702 14.9625 56.9680851 15.1128409 56.9391489 15.5638636 56.9174468 15.9432955 56.7221277 16.3585227 56.4544681 16.5947727 56.2591489 16.7665909 56.107234 16.77375 56.0131915 16.7665909 55.9408511 16.7594318 55.8685106 16.7451136 55.7817021 16.7164773 54.9353191 16.4014773 55.0293617 16.0721591 55.1017021 15.82875 55.246383 15.3347727 55.6731915 14.9839773 55.8178723 14.9410227 55.9914894 14.9267045 56.1651064 14.9195455 56.3097872 14.9267045L56.3097872 14.9267045zM56.4110638 13.5020455C56.1795745 13.4877273 55.9191489 13.4948864 55.6370213 13.5235227 54.8702128 13.6165909 54.0093617 14.4613636 53.72 15.4278409 53.4378723 16.3943182 53.727234 17.4825 55.2825532 18.0552273 55.4995745 18.1339773 55.7165957 18.1840909 55.9191489 18.19125 57.3153191 18.2843182 58.313617 16.9240909 58.3859574 15.6426136 58.4510638 14.5973864 57.8868085 13.6022727 56.4110638 13.5020455L56.4110638 13.5020455zM51.2893617 11.2540909C51.3255319 11.2540909 51.3689362 11.26125 51.4051064 11.2684091 52.2587234 11.3829545 52.3961702 11.9628409 52.352766 12.4281818 52.3021277 13.0438636 51.8825532 13.7168182 51.0723404 13.8385227 50.9565957 13.8528409 50.8480851 13.86 50.7540426 13.8528409 50.5153191 13.8385227 50.3706383 13.7526136 50.2476596 13.5664773 50.0089362 13.1942045 49.98 12.5355682 50.1897872 12.0129545 50.5080851 11.2039773 51.0940426 11.2397727 51.2893617 11.2540909L51.2893617 11.2540909zM51.3834043 9.82227273C50.0885106 9.73636364 49.2348936 10.5023864 48.8442553 11.4903409 48.2293617 13.0510227 48.786383 15.1486364 50.66 15.2775 50.8553191 15.2918182 51.0723404 15.2846591 51.2965957 15.2488636 52.8085106 15.0197727 53.6982979 13.78125 53.7995745 12.5427273 53.9080851 11.3042045 53.2280851 10.0656818 51.6076596 9.84375 51.5280851 9.83659091 51.4557447 9.82943182 51.3834043 9.82227273L51.3834043 9.82227273zM47.2238298 17.6042045C52.7506383 17.9693182 58.5957447 24.1189773 59.326383 28.7151136 59.9991489 32.9532955 55.2102128 38.6877273 50.992766 43.7420455 48.6778723 46.5126136 46.4931915 49.1256818 45.2344681 51.4380682 43.8455319 53.9938636 41.0893617 55.0176136 39.1144681 54.88875 37.9497872 54.81 35.9314894 54.2802273 35.5046809 51.6098864 35.0561702 48.8106818 36.3944681 46.6844318 37.9497872 44.2217045 38.5140426 43.3268182 39.1 42.4032955 39.613617 41.4081818 41.2919149 38.1579545 41.0387234 33.9627273 40.8 29.9106818 40.4093617 23.4173864 40.4744681 19.3725 44.5906383 17.9406818 45.4008511 17.6543182 46.2906383 17.5397727 47.2238298 17.6042045L47.2238298 17.6042045zM47.3178723 16.1723864C46.2255319 16.1007955 45.1404255 16.2225 44.1059574 16.5804545 35.0055319 19.7519318 42.0587234 33.5045455 38.3187234 40.7495455 36.4451064 44.3863636 33.3489362 47.3430682 34.0651064 51.8246591 34.5280851 54.7240909 36.6114894 56.14875 39.0059574 56.3134091 41.7621277 56.4995455 44.9234043 54.9961364 46.4931915 52.1110227 50.0306383 45.6177273 61.9161702 35.8455682 60.7442553 28.4860227 59.8906383 23.0522727 53.4161702 16.5804545 47.3178723 16.1723864L47.3178723 16.1723864z"/>
    <path fill="#A4C7E2" d="M60.8021277 28.7867045C60.8093617 28.8439773 60.8165957 28.8940909 60.8238298 28.9370455 60.8165957 28.90125 60.8093617 28.8511364 60.8021277 28.7867045zM60.693617 28.0922727C60.6791489 28.0063636 60.6791489 28.0206818 60.693617 28.0922727L60.693617 28.0922727zM60.7587234 28.5289773C60.7731915 28.6220455 60.7876596 28.7079545 60.8021277 28.7867045 60.7876596 28.7151136 60.7731915 28.6292045 60.7587234 28.5289773zM60.7587234 28.5289773C60.7587234 28.5146591 60.7514894 28.5003409 60.7514894 28.4860227 60.7514894 28.4645455 60.7442553 28.4502273 60.7442553 28.42875 60.7514894 28.4645455 60.7587234 28.4931818 60.7587234 28.5289773z"/>
    <path fill="#A4C7E2" fill-rule="nonzero" d="M43.6646809 6.95863636C43.7731915 6.96579545 43.8889362 6.98011364 44.0119149 7.00159091 46.2182979 7.4025 46.3629787 9.46431818 46.3557447 10.08 46.3412766 11.5189773 45.5455319 13.1798864 43.8310638 13.4089773 43.6429787 13.4376136 43.4548936 13.4447727 43.2812766 13.4304545 42.7387234 13.3946591 42.3119149 13.1798864 41.9646809 12.7646591 41.3787234 12.0702273 41.0893617 10.9032955 41.2195745 9.72204545 41.2629787 9.23522727 41.6246809 6.82261364 43.6646809 6.95863636L43.6646809 6.95863636zM43.7587234 5.53397727C41.3497872 5.37647727 40.0114894 7.38102273 39.772766 9.57170455 39.5123404 12.0129545 40.626383 14.6904545 43.18 14.8622727 43.4476596 14.8765909 43.7225532 14.8694318 44.0191489 14.8336364 46.4353191 14.5114773 47.773617 12.2921591 47.7953191 10.1014773 47.8170213 8.06113636 46.7029787 6.04227273 44.2651064 5.59840909 44.0987234 5.56261364 43.9251064 5.54113636 43.7587234 5.53397727L43.7587234 5.53397727zM62.2634043 23.2742045C62.2778723 23.3028409 62.2851064 23.3529545 62.2923404 23.4173864 62.3068085 23.6035227 62.2344681 23.7753409 62.1910638 23.8326136L62.1476596 23.8326136C61.9378723 23.7968182 61.8438298 23.7467045 61.8221277 23.7323864 61.8293617 23.7323864 61.8221277 23.7109091 61.8293617 23.6822727 61.8365957 23.5390909 61.9089362 23.3959091 61.9668085 23.3243182 62.1259574 23.2742045 62.227234 23.2742045 62.2634043 23.2742045L62.2634043 23.2742045zM62.3646809 21.8495455C62.0897872 21.8280682 61.7787234 21.8710227 61.4242553 21.9855682 60.8961702 22.1573864 60.4259574 22.8732955 60.3825532 23.5963636 60.3391489 24.3194318 60.7297872 25.0568182 61.9161702 25.2501136 61.9740426 25.2572727 62.0319149 25.2644318 62.0897872 25.2715909 63.2038298 25.3431818 63.7970213 24.2907955 63.7391489 23.3386364 63.6885106 22.5940909 63.2544681 21.9068182 62.3646809 21.8495455L62.3646809 21.8495455z"/>
    <path stroke="#A4C7E2" stroke-linecap="square" stroke-width="2" d="M0.361702128,62 L67.642187,62"/>
  </g>
</svg>
