<svg xmlns="http://www.w3.org/2000/svg" width="106" height="61" viewBox="0 0 106 61">
  <g fill="none" fill-rule="evenodd">
    <g transform="translate(0 16.647)">
      <rect width="102.409" height="33.562" x="1.679" y="10.102" fill="#DAE6F0" fill-rule="nonzero"/>
      <g stroke="#A4C7E2" stroke-width="1.377" transform="translate(0 10.05)">
        <path d="M.738686131.0840336134L.738686131 33.1680672M5.69124088.0840336134L5.69124088 33.1680672M10.6437956.0840336134L10.6437956 33.1680672M15.5963504.0840336134L15.5963504 33.1680672M20.5489051.0840336134L20.5489051 33.1680672M25.4930657.0840336134L25.4930657 33.1680672M30.4456204.0840336134L30.4456204 33.1680672M35.3981752.0840336134L35.3981752 33.1680672M40.3507299.0840336134L40.3507299 33.1680672M45.3032847.0840336134L45.3032847 33.1680672M50.2558394.0840336134L50.2558394 33.1680672M55.2083942.0840336134L55.2083942 33.1680672M60.1609489.0840336134L60.1609489 33.1680672M65.1135036.0840336134L65.1135036 33.1680672M70.0660584.0840336134L70.0660584 33.1680672M75.010219.0840336134L75.010219 33.1680672M79.9627737.0840336134L79.9627737 33.1680672M84.9153285.0840336134L84.9153285 33.1680672M89.8678832.0840336134L89.8678832 33.1680672M94.820438.0840336134L94.820438 33.1680672M99.7729927.0840336134L99.7729927 33.1680672M104.725547.0840336134L104.725547 33.1680672"/>
      </g>
    </g>
    <polygon fill="#512C84" fill-rule="nonzero" points="92.143 19.597 32.183 .756 32.183 38.437"/>
    <path fill="#A4C7E2" fill-rule="nonzero" d="M37.9751825,33.0672269 C36.5313869,33.0672269 35.1211679,32.6638655 33.7864964,31.6302521 C32.250365,30.4453782 31.6879562,28.9831933 31.1927007,27.697479 C30.6974453,26.4033613 30.2693431,25.2857143 28.9010949,24.4957983 C28.2127737,24.092437 27.3313869,24.1932773 26.6178832,24.7478992 C24.3850365,26.487395 21.3211679,27.5294118 18.4167883,27.5294118 C13.2963504,27.5294118 9.86313869,24.1932773 9.86313869,19.2268908 C9.86313869,14.2605042 13.3047445,10.9243697 18.4167883,10.9243697 C21.6821168,10.9243697 25.1069343,12.2268908 27.339781,14.3193277 C27.8937956,14.8319328 28.6156934,14.9159664 29.1948905,14.5210084 C30.3281022,13.7478992 30.7310219,12.7058824 31.1927007,11.4957983 C31.6879562,10.210084 32.250365,8.74789916 33.7864964,7.56302521 C37.8072993,4.46218487 42.5332117,7.02521008 46.6967153,9.28571429 C49.0638686,10.5714286 51.2967153,11.7815126 53.0259124,11.7815126 C55.4770073,11.7815126 57.5671533,10.8571429 59.7748175,9.8907563 C62.309854,8.77310924 64.9288321,7.62184874 68.3872263,7.62184874 C71.2580292,7.62184874 73.7930657,8.99159664 76.7310219,10.5798319 C80.709854,12.7310924 85.2175182,15.1680672 92.1510949,15.1680672 L92.1510949,17.0588235 C84.7474453,17.0588235 79.8032847,14.394958 75.8328467,12.2521008 C73.1215328,10.789916 70.779562,9.5210084 68.3872263,9.5210084 C65.3233577,9.5210084 62.8890511,10.5966387 60.5386861,11.6302521 C58.2470803,12.6386555 55.879927,13.6806723 53.0259124,13.6806723 C50.8182482,13.6806723 48.3755474,12.3613445 45.7985401,10.9579832 C41.9540146,8.87394958 37.9919708,6.72268908 34.9448905,9.07563025 C33.8284672,9.94117647 33.4255474,10.9831933 32.9638686,12.1932773 C32.460219,13.5042017 31.8894161,14.9915966 30.2609489,16.1008403 C28.9682482,16.9831933 27.2390511,16.8235294 26.0554745,15.7142857 C24.1835766,13.9579832 21.1868613,12.8319328 18.4251825,12.8319328 C14.3791971,12.8319328 11.760219,15.3529412 11.760219,19.2436975 C11.760219,23.1344538 14.3791971,25.6554622 18.4251825,25.6554622 C20.8846715,25.6554622 23.5875912,24.7394958 25.4678832,23.2773109 C26.7857664,22.2521008 28.5065693,22.1008403 29.8580292,22.8823529 C31.7970803,24.0084034 32.4182482,25.6218487 32.9638686,27.0420168 C33.4255474,28.2521008 33.8284672,29.2941176 34.9448905,30.1596639 C37.9919708,32.512605 41.9624088,30.3529412 45.7985401,28.2773109 C48.3755474,26.8739496 50.8182482,25.5546218 53.0259124,25.5546218 C55.8715328,25.5546218 58.2470803,26.5966387 60.5386861,27.605042 C62.8890511,28.6386555 65.3233577,29.7142857 68.3872263,29.7142857 C70.779562,29.7142857 73.1215328,28.4453782 75.8328467,26.9831933 C79.8032847,24.8403361 84.7390511,22.1680672 92.1510949,22.1680672 L92.1510949,24.0588235 C85.2175182,24.0588235 80.709854,26.4957983 76.7310219,28.6470588 C73.7930657,30.2352941 71.2580292,31.605042 68.3872263,31.605042 C64.9288321,31.605042 62.309854,30.4537815 59.7748175,29.3361345 C57.5671533,28.3613445 55.4770073,27.4453782 53.0259124,27.4453782 C51.2967153,27.4453782 49.0638686,28.6554622 46.6967153,29.9411765 C43.909854,31.4201681 40.879562,33.0672269 37.9751825,33.0672269 Z"/>
    <path fill="#DAE6F0" fill-rule="nonzero" d="M33.2240876 21.0168067C33.0310219 21.0168067 32.8463504 20.9747899 32.670073 20.8991597 32.5105839 20.8319328 32.3510949 20.7226891 32.2167883 20.5966387 32.0824818 20.4621849 31.9733577 20.3109244 31.9062044 20.1344538 31.8390511 19.9579832 31.7886861 19.7731092 31.7886861 19.5966387 31.7886861 19.5042017 31.7970803 19.4117647 31.8222628 19.3193277 31.8306569 19.2268908 31.8642336 19.1344538 31.9062044 19.0504202 31.939781 18.9579832 31.990146 18.8739496 32.0321168 18.7983193 32.0908759 18.7310924 32.149635 18.6470588 32.2167883 18.5882353 32.2755474 18.5210084 32.3510949 18.4621849 32.4266423 18.4033613 32.5105839 18.3613445 32.5861314 18.3109244 32.6784672 18.2773109 32.7624088 18.2436975 32.8547445 18.2184874 32.9470803 18.1932773 33.400365 18.1008403 33.8956204 18.2521008 34.2229927 18.5882353 34.2817518 18.6470588 34.3405109 18.7226891 34.3992701 18.7983193 34.4412409 18.8823529 34.4916058 18.9579832 34.5251825 19.0504202 34.5587591 19.1344538 34.5923358 19.2268908 34.6091241 19.3193277 34.6343066 19.4117647 34.6427007 19.5042017 34.6427007 19.5966387 34.6427007 19.7815126 34.6007299 19.9663866 34.5251825 20.1344538 34.4580292 20.3109244 34.3489051 20.4537815 34.2145985 20.5966387 34.0886861 20.7226891 33.9291971 20.8235294 33.769708 20.8991597 33.5934307 20.9747899 33.4087591 21.0168067 33.2240876 21.0168067zM68.4124088 19.605042C68.4124088 18.8235294 69.0419708 18.1848739 69.8310219 18.1848739L69.8310219 18.1848739C70.6116788 18.1848739 71.249635 18.8151261 71.249635 19.605042L71.249635 19.605042C71.249635 20.3865546 70.620073 21.0252101 69.8310219 21.0252101L69.8310219 21.0252101C69.0419708 21.0168067 68.4124088 20.3865546 68.4124088 19.605042zM64.7441606 19.605042C64.7441606 18.8235294 65.3821168 18.1848739 66.1627737 18.1848739L66.1627737 18.1848739C66.9434307 18.1848739 67.5813869 18.8151261 67.5813869 19.605042L67.5813869 19.605042C67.5813869 20.3865546 66.9518248 21.0252101 66.1627737 21.0252101L66.1627737 21.0252101C65.3821168 21.0168067 64.7441606 20.3865546 64.7441606 19.605042zM61.0843066 19.605042C61.0843066 18.8235294 61.7138686 18.1848739 62.5029197 18.1848739L62.5029197 18.1848739C63.2835766 18.1848739 63.9215328 18.8151261 63.9215328 19.605042L63.9215328 19.605042C63.9215328 20.3865546 63.2835766 21.0252101 62.5029197 21.0252101L62.5029197 21.0252101C61.7138686 21.0168067 61.0843066 20.3865546 61.0843066 19.605042zM57.4328467 19.605042C57.4328467 18.8235294 58.0708029 18.1848739 58.8514599 18.1848739L58.8514599 18.1848739C59.6321168 18.1848739 60.270073 18.8151261 60.270073 19.605042L60.270073 19.605042C60.270073 20.3865546 59.6321168 21.0252101 58.8514599 21.0252101L58.8514599 21.0252101C58.0624088 21.0168067 57.4328467 20.3865546 57.4328467 19.605042zM53.7645985 19.605042C53.7645985 18.8235294 54.3941606 18.1848739 55.1832117 18.1848739L55.1832117 18.1848739C55.9638686 18.1848739 56.6018248 18.8151261 56.6018248 19.605042L56.6018248 19.605042C56.6018248 20.3865546 55.9722628 21.0252101 55.1832117 21.0252101L55.1832117 21.0252101C54.4025547 21.0168067 53.7645985 20.3865546 53.7645985 19.605042zM50.1047445 19.605042C50.1047445 18.8235294 50.7427007 18.1848739 51.5233577 18.1848739L51.5233577 18.1848739C52.3040146 18.1848739 52.9419708 18.8151261 52.9419708 19.605042L52.9419708 19.605042C52.9419708 20.3865546 52.3124088 21.0252101 51.5233577 21.0252101L51.5233577 21.0252101C50.7343066 21.0168067 50.1047445 20.3865546 50.1047445 19.605042zM46.4448905 19.605042C46.4448905 18.8235294 47.0912409 18.1848739 47.8635036 18.1848739L47.8635036 18.1848739C48.6441606 18.1848739 49.2821168 18.8151261 49.2821168 19.605042L49.2821168 19.605042C49.2821168 20.3865546 48.6441606 21.0252101 47.8635036 21.0252101L47.8635036 21.0252101C47.0828467 21.0168067 46.4448905 20.3865546 46.4448905 19.605042zM42.7850365 19.605042C42.7850365 18.8235294 43.4229927 18.1848739 44.2036496 18.1848739L44.2036496 18.1848739C44.9843066 18.1848739 45.6222628 18.8151261 45.6222628 19.605042L45.6222628 19.605042C45.6222628 20.3865546 44.9927007 21.0252101 44.2036496 21.0252101L44.2036496 21.0252101C43.4229927 21.0168067 42.7850365 20.3865546 42.7850365 19.605042zM39.1251825 19.605042C39.1251825 18.8235294 39.7547445 18.1848739 40.5437956 18.1848739L40.5437956 18.1848739C41.3244526 18.1848739 41.9624088 18.8151261 41.9624088 19.605042L41.9624088 19.605042C41.9624088 20.3865546 41.3244526 21.0252101 40.5437956 21.0252101L40.5437956 21.0252101C39.7547445 21.0168067 39.1251825 20.3865546 39.1251825 19.605042zM35.4653285 19.605042C35.4653285 18.8235294 36.1032847 18.1848739 36.8839416 18.1848739L36.8839416 18.1848739C37.6645985 18.1848739 38.3025547 18.8151261 38.3025547 19.605042L38.3025547 19.605042C38.3025547 20.3865546 37.6729927 21.0252101 36.8839416 21.0252101L36.8839416 21.0252101C36.0948905 21.0168067 35.4653285 20.3865546 35.4653285 19.605042zM73.4824818 21.0168067C73.2978102 21.0168067 73.1131387 20.9747899 72.9452555 20.8991597 72.7857664 20.8319328 72.6262774 20.7226891 72.4919708 20.5966387 72.3576642 20.4621849 72.2485401 20.2941176 72.1813869 20.1344538 72.1142336 19.9579832 72.0806569 19.7731092 72.0806569 19.5966387 72.0806569 19.5042017 72.0806569 19.4117647 72.1058394 19.3193277 72.1310219 19.2268908 72.1478102 19.1344538 72.189781 19.0504202 72.2233577 18.9579832 72.2737226 18.8739496 72.3156934 18.7983193 72.3744526 18.7310924 72.4332117 18.6470588 72.500365 18.5882353 72.8193431 18.2521008 73.3062044 18.1008403 73.7762774 18.1932773 73.860219 18.2184874 73.9525547 18.2352941 74.0448905 18.2773109 74.1288321 18.3109244 74.2043796 18.3613445 74.2883212 18.4033613 74.3554745 18.4621849 74.4394161 18.5210084 74.4981752 18.5882353 74.7667883 18.8487395 74.9262774 19.210084 74.9262774 19.5882353 74.9262774 19.7731092 74.8843066 19.9579832 74.8087591 20.1260504 74.7416058 20.302521 74.6324818 20.4453782 74.4981752 20.5882353 74.3722628 20.7142857 74.2127737 20.8151261 74.0448905 20.8907563 73.860219 20.9747899 73.6755474 21.0168067 73.4824818 21.0168067z"/>
  </g>
</svg>
