<svg xmlns="http://www.w3.org/2000/svg" width="107" height="60" viewBox="0 0 107 60">
  <g fill="none" fill-rule="evenodd" transform="translate(1)">
    <rect width="105.152" height="33.803" x=".848" y="26.197" fill="#DAE6F0" fill-rule="nonzero"/>
    <g stroke="#A4C7E2" stroke-width="1.377" transform="translate(0 26.197)">
      <path d="M.0424.0845070423L.0424 33.3549296M5.0456.0845070423L5.0456 33.3549296M10.0488.0845070423L10.0488 33.3549296M15.052.0845070423L15.052 33.3549296M20.0552.0845070423L20.0552 33.3549296M25.0584.0845070423L25.0584 33.3549296M30.0616.0845070423L30.0616 33.3549296M35.0648.0845070423L35.0648 33.3549296M40.05952.0845070423L40.05952 33.3549296M45.06272.0845070423L45.06272 33.3549296M50.06592.0845070423L50.06592 33.3549296M55.06912.0845070423L55.06912 33.3549296M60.07232.0845070423L60.07232 33.3549296M65.07552.0845070423L65.07552 33.3549296M70.07872.0845070423L70.07872 33.3549296M75.08192.0845070423L75.08192 33.3549296M80.08512.0845070423L80.08512 33.3549296M85.08832.0845070423L85.08832 33.3549296M90.09152.0845070423L90.09152 33.3549296M95.08624.0845070423L95.08624 33.3549296M100.08944.0845070423L100.08944 33.3549296M105.09264.0845070423L105.09264 33.3549296"/>
    </g>
    <rect width="60.573" height="37.901" x="27.204" y=".11" fill="#512C84" fill-rule="nonzero"/>
    <path fill="#A4C7E2" fill-rule="nonzero" d="M37.65968,32.6028169 C36.20112,32.6028169 34.77648,32.1971831 33.42816,31.1577465 C31.87632,29.9661972 31.30816,28.4957746 30.80784,27.2028169 C30.30752,25.9014085 29.87504,24.7774648 28.4928,23.9830986 C27.78896,23.5774648 26.91552,23.6788732 26.18624,24.2366197 C23.93056,25.9859155 20.83536,27.0338028 17.90128,27.0338028 C12.72848,27.0338028 9.26016,23.6788732 9.26016,18.684507 C9.26016,13.6901408 12.72848,10.3352113 17.90128,10.3352113 C21.2,10.3352113 24.65984,11.6450704 26.91552,13.7492958 C27.46672,14.2647887 28.20448,14.3492958 28.7896,13.9521127 C29.9344,13.1746479 30.34144,12.1267606 30.80784,10.9098592 C31.30816,9.61690141 31.87632,8.14647887 33.42816,6.95492958 C37.49008,3.83661972 42.25584,6.41408451 46.4704,8.68732394 C48.86176,9.98028169 51.11744,11.1971831 52.86432,11.1971831 C55.34048,11.1971831 57.452,10.2676056 59.68224,9.29577465 C62.2432,8.17183099 64.88896,7.01408451 68.38272,7.01408451 C71.28288,7.01408451 73.84384,8.3915493 76.81184,9.98873239 C80.83136,12.1521127 85.38512,14.6028169 92.3896,14.6028169 L92.3896,16.5042254 C84.91024,16.5042254 79.91552,13.8253521 75.90448,11.6704225 C73.16544,10.2 70.79952,8.92394366 68.38272,8.92394366 C65.28752,8.92394366 62.82832,10.0056338 60.45392,11.0450704 C58.13888,12.0591549 55.74752,13.1070423 52.86432,13.1070423 C50.63408,13.1070423 48.1664,11.7802817 45.56304,10.3690141 C41.68768,8.27323944 37.67664,6.10985915 34.5984,8.47605634 C33.47056,9.34647887 33.06352,10.3943662 32.59712,11.6112676 C32.08832,12.9295775 31.51168,14.4253521 29.86656,15.5408451 C28.56064,16.428169 26.81376,16.2676056 25.61808,15.1521127 C23.72704,13.3859155 20.69968,12.2535211 17.90976,12.2535211 C13.8224,12.2535211 11.17664,14.7887324 11.17664,18.7014085 C11.17664,22.6140845 13.8224,25.1492958 17.90976,25.1492958 C20.3944,25.1492958 23.12496,24.228169 25.02448,22.7577465 C26.35584,21.7267606 28.08576,21.5661972 29.45952,22.3605634 C31.4184,23.4929577 32.04592,25.115493 32.59712,26.543662 C33.06352,27.7605634 33.47056,28.8084507 34.5984,29.6788732 C37.67664,32.0450704 41.68768,29.8816901 45.56304,27.7859155 C48.1664,26.3746479 50.63408,25.0478873 52.86432,25.0478873 C55.73904,25.0478873 58.13888,26.0957746 60.45392,27.1098592 C62.82832,28.1492958 65.28752,29.2309859 68.38272,29.2309859 C70.79952,29.2309859 73.16544,27.9549296 75.90448,26.484507 C79.91552,24.3295775 84.90176,21.6422535 92.3896,21.6422535 L92.3896,23.543662 C85.38512,23.543662 80.83136,25.9943662 76.81184,28.1577465 C73.84384,29.7549296 71.28288,31.1323944 68.38272,31.1323944 C64.88896,31.1323944 62.2432,29.9746479 59.68224,28.8507042 C57.452,27.8704225 55.34048,26.9492958 52.86432,26.9492958 C51.11744,26.9492958 48.86176,28.1661972 46.4704,29.4591549 C43.65504,30.9464789 40.59376,32.6028169 37.65968,32.6028169 Z"/>
    <g fill="#DAE6F0" fill-rule="nonzero" transform="translate(31.318 16.8)">
      <path d="M1.54181818 3.68450704C1.16021818 3.68450704.795578182 3.53239437.532698182 3.27042254.252858182 2.9915493.117178182 2.64507042.117178182 2.26478873.117178182 2.17183099.125658182 2.07887324.142618182 1.98591549.168058182 1.89295775.185018182 1.8.227418182 1.71549296.261338182 1.62253521.312218182 1.53802817.354618182 1.46197183.413978182 1.3943662.473338182 1.30985915.532698182 1.25070423.600538182 1.18309859.668378182 1.12394366.753178182 1.06478873.837978182 1.02253521.914298182.971830986.999098182.938028169 1.09237818.904225352 1.18565818.878873239 1.26197818.853521127 1.44853818.81971831 1.64357818.81971831 1.83013818.853521127 1.91493818.878873239 2.00821818.895774648 2.08453818.938028169 2.17781818.971830986 2.26261818 1.02253521 2.33893818 1.06478873 2.40677818 1.12394366 2.49157818 1.18309859 2.55941818 1.25070423 2.61877818 1.30985915 2.67813818 1.38591549 2.73749818 1.46197183 2.77989818 1.54647887 2.83077818 1.62253521 2.86469818 1.71549296 2.89861818 1.8 2.93253818 1.89295775 2.94949818 1.98591549 2.97493818 2.07887324 2.98341818 2.17183099 2.98341818 2.26478873 2.98341818 2.45070423 2.94101818 2.63661972 2.86469818 2.8056338 2.79685818 2.98309859 2.68661818 3.12676056 2.55093818 3.27042254 2.42373818 3.3971831 2.26261818 3.49859155 2.10149818 3.57464789 1.91493818 3.64225352 1.72837818 3.68450704 1.54181818 3.68450704zM37.0899782 2.26478873C37.0899782 1.47887324 37.7344582.836619718 38.5230982.836619718L38.5230982.836619718C39.3117382.836619718 39.9392582 1.47042254 39.9392582 2.26478873L39.9392582 2.26478873C39.9392582 3.05070423 39.3117382 3.69295775 38.5230982 3.69295775L38.5230982 3.69295775C37.7344582 3.68450704 37.0899782 3.05070423 37.0899782 2.26478873zM33.3926982 2.26478873C33.3926982 1.47887324 34.0286982.836619718 34.8258182.836619718L34.8258182.836619718C35.6144582.836619718 36.2589382 1.47042254 36.2589382 2.26478873L36.2589382 2.26478873C36.2589382 3.05070423 35.6229382 3.69295775 34.8258182 3.69295775L34.8258182 3.69295775C34.0286982 3.68450704 33.3926982 3.05070423 33.3926982 2.26478873zM29.6869382 2.26478873C29.6869382 1.47887324 30.3229382.836619718 31.1200582.836619718L31.1200582.836619718C31.9086982.836619718 32.5531782 1.47042254 32.5531782 2.26478873L32.5531782 2.26478873C32.5531782 3.05070423 31.9171782 3.69295775 31.1200582 3.69295775L31.1200582 3.69295775C30.3314182 3.68450704 29.6869382 3.05070423 29.6869382 2.26478873zM25.9896582 2.26478873C25.9896582 1.47887324 26.6426182.836619718 27.4312582.836619718L27.4312582.836619718C28.2114182.836619718 28.8558982 1.47042254 28.8558982 2.26478873L28.8558982 2.26478873C28.8558982 3.05070423 28.2114182 3.69295775 27.4312582 3.69295775L27.4312582 3.69295775C26.6426182 3.68450704 25.9896582 3.05070423 25.9896582 2.26478873zM22.3008582 2.26478873C22.3008582 1.47887324 22.9453382.836619718 23.7339782.836619718L23.7339782.836619718C24.5226182.836619718 25.1670982 1.47042254 25.1670982 2.26478873L25.1670982 2.26478873C25.1670982 3.05070423 24.5310982 3.69295775 23.7339782 3.69295775L23.7339782 3.69295775C22.9368582 3.68450704 22.3008582 3.05070423 22.3008582 2.26478873zM18.5950982 2.26478873C18.5950982 1.47887324 19.2310982.836619718 20.0282182.836619718L20.0282182.836619718C20.8168582.836619718 21.4613382 1.47042254 21.4613382 2.26478873L21.4613382 2.26478873C21.4613382 3.05070423 20.8253382 3.69295775 20.0282182 3.69295775L20.0282182 3.69295775C19.2395782 3.68450704 18.5950982 3.05070423 18.5950982 2.26478873zM14.8978182 2.26478873C14.8978182 1.47887324 15.5338182.836619718 16.3309382.836619718L16.3309382.836619718C17.1195782.836619718 17.7640582 1.47042254 17.7640582 2.26478873L17.7640582 2.26478873C17.7640582 3.05070423 17.1280582 3.69295775 16.3309382 3.69295775L16.3309382 3.69295775C15.5338182 3.68450704 14.8978182 3.05070423 14.8978182 2.26478873zM11.2090182 2.26478873C11.2090182 1.47887324 11.8450182.836619718 12.6421382.836619718L12.6421382.836619718C13.4307782.836619718 14.0752582 1.47042254 14.0752582 2.26478873L14.0752582 2.26478873C14.0752582 3.05070423 13.4392582 3.69295775 12.6421382 3.69295775L12.6421382 3.69295775C11.8450182 3.68450704 11.2090182 3.05070423 11.2090182 2.26478873zM7.50325818 2.26478873C7.50325818 1.47887324 8.14773818.836619718 8.93637818.836619718L8.93637818.836619718C9.72501818.836619718 10.3694982 1.47042254 10.3694982 2.26478873L10.3694982 2.26478873C10.3694982 3.05070423 9.73349818 3.69295775 8.93637818 3.69295775L8.93637818 3.69295775C8.14773818 3.68450704 7.50325818 3.05070423 7.50325818 2.26478873zM3.80597818 2.26478873C3.80597818 1.47887324 4.44197818.836619718 5.23909818.836619718L5.23909818.836619718C6.02773818.836619718 6.67221818 1.47042254 6.67221818 2.26478873L6.67221818 2.26478873C6.67221818 3.05070423 6.03621818 3.69295775 5.23909818 3.69295775L5.23909818 3.69295775C4.44197818 3.68450704 3.80597818 3.05070423 3.80597818 2.26478873zM42.2203782 3.68450704C42.0253382 3.68450704 41.8387782 3.64225352 41.6606982 3.56619718 41.4995782 3.49859155 41.3384582 3.38873239 41.2027782 3.26197183 40.9229382 2.98309859 40.7872582 2.61971831 40.7872582 2.25633803 40.7872582 2.16338028 40.7872582 2.07042254 40.8126982 1.97746479 40.8211782 1.88450704 40.8550982 1.7915493 40.8974982 1.70704225 40.9314182 1.61408451 40.9822982 1.52957746 41.0246982 1.45352113 41.0840582 1.38591549 41.1434182 1.30140845 41.2112582 1.24225352 41.2706182 1.17464789 41.3469382 1.11549296 41.4232582 1.05633803 41.5080582 1.01408451 41.5843782.963380282 41.6776582.929577465 41.7624582.895774648 41.8557382.870422535 41.9490182.845070423 42.3984582.752112676 42.8987782.904225352 43.2379782 1.24225352 43.2973382 1.30140845 43.3566982 1.37746479 43.4160582 1.45352113 43.4584582 1.53802817 43.5093382 1.61408451 43.5432582 1.70704225 43.5771782 1.7915493 43.6110982 1.88450704 43.6280582 1.97746479 43.6534982 2.07042254 43.6534982 2.16338028 43.6534982 2.25633803 43.6534982 2.62816901 43.5178182 2.98309859 43.2379782 3.26197183 43.1107782 3.38873239 42.9581382 3.49014085 42.7885382 3.56619718 42.5934982 3.64225352 42.4069382 3.68450704 42.2203782 3.68450704z"/>
    </g>
  </g>
</svg>
