<svg xmlns="http://www.w3.org/2000/svg" xmlns:xlink="http://www.w3.org/1999/xlink" width="61" height="49" viewBox="0 0 61 49">
  <defs>
    <polygon id="sleep-contacts-call-a" points="51.02 42.508 0 42.508 0 .295 51.02 .295"/>
  </defs>
  <g fill="none" fill-rule="evenodd" transform="translate(.826 .25)">
    <g transform="translate(0 5.744)">
      <mask id="sleep-contacts-call-b" fill="#fff">
        <use xlink:href="#sleep-contacts-call-a"/>
      </mask>
      <path fill="#472E8C" d="M12.4615776,2.13984036 C14.5604003,4.39795757 16.6488087,6.66296805 18.7517971,8.91821307 C19.3981762,9.91831027 19.4328905,10.4795366 19.2579307,10.9109398 C19.0822767,11.3452152 18.5796145,11.7599597 17.8922727,12.2694865 C15.2289965,14.2438312 14.254915,16.4002728 14.4868061,18.4131048 C14.7180029,20.419618 16.0878267,22.2417365 17.8617241,23.668067 C19.6557559,25.1518413 21.0283567,26.2875059 22.7717057,27.7293462 C24.4956146,29.1976107 26.6971915,30.3309776 29.1230223,30.52284 C31.5544074,30.7147024 34.1614465,29.908191 36.5483974,27.7040709 C37.1635336,27.1359514 37.6648072,26.7206325 38.1896865,26.5747251 C38.7110943,26.4305411 39.3901047,26.4586886 40.5981601,26.9934907 C43.323922,28.7328901 46.0614866,30.4613751 48.7907198,32.1979023 C49.7231442,32.969373 49.7925727,33.5277271 49.5426302,34.190629 C49.2926877,34.8535308 48.5893773,35.5974285 47.8090012,36.259756 C42.7462771,40.4485605 38.2730006,41.8645511 33.6178216,41.1976282 C28.9626425,40.5312797 24.0012839,37.6832142 18.3525834,33.0101581 C16.0517239,31.1064694 13.5217503,29.0137904 11.479859,27.3232183 C5.83185279,22.6507366 2.39028343,18.5452256 1.58421887,14.6936164 C0.778154314,10.8420072 2.48956615,7.14090077 7.55229033,2.95209621 C8.35349489,2.30700192 9.25189932,1.72452142 10.0531039,1.51772361 C10.8543085,1.31092579 11.5291532,1.36836963 12.4615776,2.13984036 M18.8434427,22.8558111 C17.2826907,21.6420229 16.0357553,19.8917092 15.8677384,18.3114292 C15.6775044,16.6668122 16.4065034,14.9147752 18.8281685,13.1196553 C19.5328675,12.5974908 20.2403436,12.0730286 20.5617974,11.2791548 C20.8832512,10.4847065 20.7069029,9.5265433 19.948744,8.35985898 C17.7131472,5.96789763 15.4636647,3.47655843 13.4439905,1.32758451 C12.2352408,0.328061751 10.8182057,0.117817309 9.62334165,0.426290711 C8.41736909,0.822078745 7.53285036,1.36434856 6.57057173,2.13984036 C1.3238621,6.48087109 -0.68609216,10.6432515 0.203980851,14.8969676 C1.09335958,19.1506837 4.76543146,23.392911 10.4981404,28.1360486 C12.799,30.0397373 15.3289735,32.1324163 17.3708648,33.8229884 C23.1035738,38.566126 28.2308664,41.6037561 33.3727391,42.3401861 C38.5139174,43.0760416 43.5440102,41.413617 48.7907198,37.0720118 C49.7280042,36.2758402 50.383409,35.5440058 50.8617712,34.5462063 C51.2346021,33.5575979 50.9804938,32.3851692 49.7731327,31.3856464 C47.1758136,29.7134564 44.1640065,27.852276 41.2736992,26.0031589 C39.8622183,25.3758723 38.7041514,25.2299649 37.7453442,25.4959299 C36.7851485,25.7618948 36.1512665,26.3472475 35.5201617,26.9303025 C33.3498277,28.9339435 31.2336478,29.5371038 29.2452164,29.3797077 C27.3352391,29.2406936 25.2190593,28.2084278 23.7534243,26.9170904" mask="url(#sleep-contacts-call-b)"/>
    </g>
    <path fill="#472E8C" d="M27.7602108,7.53054231 C27.8004793,7.83154802 28.1670617,8.07510988 28.5308669,8.0423669 C40.426047,8.0423669 50.0536932,16.0081037 50.0536932,25.8499562 C50.0488332,26.1532597 50.3813956,26.4324367 50.7479779,26.4324367 C51.1145602,26.4324367 51.4478169,26.1532597 51.4422626,25.8499562 C51.4422626,15.3871358 41.1765687,6.89349016 28.5308669,6.89349016 C27.9962676,6.90497893 27.7504908,7.20598464 27.7602108,7.53054231 M27.7602108,0.637281923 C27.8004793,0.938287627 28.1670617,1.18184949 28.5308669,1.14910651 C45.0270718,1.14910651 58.3851098,12.2007262 58.3851098,25.8499562 C58.3802498,26.1532597 58.7128122,26.4324367 59.0793945,26.4324367 C59.4459769,26.4324367 59.7792335,26.1532597 59.7736793,25.8499562 C59.7736793,11.5803328 45.7775936,0.000229775346 28.5308669,0.000229775346 C27.9927962,0.0128674194 27.7539623,0.302958794 27.7602108,0.637281923"/>
  </g>
</svg>
