<svg xmlns="http://www.w3.org/2000/svg" width="74" height="95" viewBox="0 0 74 95">
  <g fill="none" fill-rule="evenodd" transform="translate(0 1)">
    <path fill="#DAE6F0" fill-rule="nonzero" d="M31.3245217 4.84164384L23.384 4.84164384 23.384 20.119863 31.3245217 20.119863C34.1686957 20.119863 36.4723478 17.8149315 36.4723478 14.9691781L36.4723478 9.99232877C36.4723478 7.1530137 34.1622609 4.84164384 31.3245217 4.84164384zM59.6375652 4.84164384L51.6970435 4.84164384 51.6970435 20.119863 59.6375652 20.119863C62.4817391 20.119863 64.7853913 17.8149315 64.7853913 14.9691781L64.7853913 9.99232877C64.7853913 7.1530137 62.4753043 4.84164384 59.6375652 4.84164384z"/>
    <g stroke="#A4C7E2" stroke-width="1.28" transform="translate(10.296 4.507)">
      <path d="M5.14782609.334794521L21.0288696.334794521C23.8730435.334794521 26.1766957 2.63972603 26.1766957 5.48547945L26.1766957 10.4623288C26.1766957 13.3080822 23.8730435 15.6130137 21.0288696 15.6130137L5.14782609 15.6130137C2.30365217 15.6130137 0 13.3080822 0 10.4623288L0 5.48547945C0 2.64616438 2.30365217.334794521 5.14782609.334794521zM33.4608696.334794521L49.341913.334794521C52.186087.334794521 54.4897391 2.63972603 54.4897391 5.48547945L54.4897391 10.4623288C54.4897391 13.3080822 52.186087 15.6130137 49.341913 15.6130137L33.4608696 15.6130137C30.6166957 15.6130137 28.3130435 13.3080822 28.3130435 10.4623288L28.3130435 5.48547945C28.3130435 2.64616438 30.6166957.334794521 33.4608696.334794521z"/>
    </g>
    <path stroke="#A4C7E2" stroke-width="1.28" d="M67.9963478,91.2315068 L6.1773913,91.2315068 C4.4013913,91.2315068 2.96,89.7893151 2.96,88.0123288 L2.96,3.83726027 C2.96,2.06027397 4.4013913,0.618082192 6.1773913,0.618082192 L67.9963478,0.618082192 C69.7723478,0.618082192 71.2137391,2.06027397 71.2137391,3.83726027 L71.2137391,88.0123288 C71.2137391,89.7893151 69.7723478,91.2315068 67.9963478,91.2315068 Z"/>
    <g fill-rule="nonzero" transform="translate(0 16.74)">
      <path fill="#FFF" d="M5.53391304,76.4232877 C3.05008696,76.4232877 1.02956522,74.4016438 1.02956522,71.9164384 L1.02956522,5.77520548 C1.02956522,3.29 3.05008696,1.26835616 5.53391304,1.26835616 L68.6398261,1.26835616 C71.1236522,1.26835616 73.1441739,3.29 73.1441739,5.77520548 L73.1441739,71.9164384 C73.1441739,74.4016438 71.1236522,76.4232877 68.6398261,76.4232877 L5.53391304,76.4232877 Z"/>
      <path fill="#A4C7E2" d="M68.6398261,1.91219178 C70.7697391,1.91219178 72.5006957,3.64410959 72.5006957,5.77520548 L72.5006957,71.9164384 C72.5006957,74.0475342 70.7697391,75.7794521 68.6398261,75.7794521 L5.53391304,75.7794521 C3.404,75.7794521 1.67304348,74.0475342 1.67304348,71.9164384 L1.67304348,5.77520548 C1.67304348,3.64410959 3.404,1.91219178 5.53391304,1.91219178 L68.6398261,1.91219178 L68.6398261,1.91219178 Z M68.6398261,0.624520548 L5.53391304,0.624520548 C2.69617391,0.624520548 0.386086957,2.93589041 0.386086957,5.77520548 L0.386086957,71.9164384 C0.386086957,74.7557534 2.69617391,77.0671233 5.53391304,77.0671233 L68.6398261,77.0671233 C71.4775652,77.0671233 73.7876522,74.7557534 73.7876522,71.9164384 L73.7876522,5.77520548 C73.7876522,2.92945205 71.4775652,0.624520548 68.6398261,0.624520548 L68.6398261,0.624520548 Z"/>
    </g>
    <path fill="#DAE6F0" fill-rule="nonzero" d="M68.6398261,20.3645205 L37.534087,20.3645205 L37.534087,91.2315068 L68.6398261,91.2315068 C70.061913,91.2315068 71.2137391,90.0790411 71.2137391,88.6561644 L71.2137391,22.939863 C71.2137391,21.5234247 70.061913,20.3645205 68.6398261,20.3645205 Z"/>
  </g>
</svg>
