<svg xmlns="http://www.w3.org/2000/svg" width="98" height="111" viewBox="0 0 98 111">
  <g fill="none" fill-rule="evenodd" transform="translate(1 1)">
    <path fill="#DAE6F0" fill-rule="nonzero" d="M19.9,52.27 L9.57,52.27 C8.63,52.27 7.86,51.5 7.86,50.56 L7.86,40.23 C7.86,39.29 8.63,38.52 9.57,38.52 L19.9,38.52 C20.84,38.52 21.61,39.29 21.61,40.23 L21.61,50.56 C21.61,51.5 20.84,52.27 19.9,52.27 Z"/>
    <path fill="#2F1945" fill-rule="nonzero" d="M36.4,52.27 L26.07,52.27 C25.13,52.27 24.36,51.5 24.36,50.56 L24.36,40.23 C24.36,39.29 25.13,38.52 26.07,38.52 L36.4,38.52 C37.34,38.52 38.11,39.29 38.11,40.23 L38.11,50.56 C38.11,51.5 37.34,52.27 36.4,52.27 Z"/>
    <path fill="#DAE6F0" fill-rule="nonzero" d="M69.41 52.27L59.08 52.27C58.14 52.27 57.37 51.5 57.37 50.56L57.37 40.23C57.37 39.29 58.14 38.52 59.08 38.52L69.41 38.52C70.35 38.52 71.12 39.29 71.12 40.23L71.12 50.56C71.12 51.5 70.35 52.27 69.41 52.27zM52.91 52.27L42.58 52.27C41.64 52.27 40.87 51.5 40.87 50.56L40.87 40.23C40.87 39.29 41.64 38.52 42.58 38.52L52.91 38.52C53.85 38.52 54.62 39.29 54.62 40.23L54.62 50.56C54.62 51.5 53.85 52.27 52.91 52.27zM19.9 69.06L9.57 69.06C8.63 69.06 7.86 68.29 7.86 67.35L7.86 57.02C7.86 56.08 8.63 55.31 9.57 55.31L19.9 55.31C20.84 55.31 21.61 56.08 21.61 57.02L21.61 67.35C21.61 68.29 20.84 69.06 19.9 69.06zM36.4 69.06L26.07 69.06C25.13 69.06 24.36 68.29 24.36 67.35L24.36 57.02C24.36 56.08 25.13 55.31 26.07 55.31L36.4 55.31C37.34 55.31 38.11 56.08 38.11 57.02L38.11 67.35C38.11 68.29 37.34 69.06 36.4 69.06zM69.41 69.06L59.08 69.06C58.14 69.06 57.37 68.29 57.37 67.35L57.37 57.02C57.37 56.08 58.14 55.31 59.08 55.31L69.41 55.31C70.35 55.31 71.12 56.08 71.12 57.02L71.12 67.35C71.12 68.29 70.35 69.06 69.41 69.06z"/>
    <path fill="#2F1945" fill-rule="nonzero" d="M52.91,69.06 L42.58,69.06 C41.64,69.06 40.87,68.29 40.87,67.35 L40.87,57.02 C40.87,56.08 41.64,55.31 42.58,55.31 L52.91,55.31 C53.85,55.31 54.62,56.08 54.62,57.02 L54.62,67.35 C54.62,68.29 53.85,69.06 52.91,69.06 Z"/>
    <path fill="#DAE6F0" fill-rule="nonzero" d="M19.9,85.85 L9.57,85.85 C8.63,85.85 7.86,85.08 7.86,84.14 L7.86,73.81 C7.86,72.87 8.63,72.1 9.57,72.1 L19.9,72.1 C20.84,72.1 21.61,72.87 21.61,73.81 L21.61,84.14 C21.61,85.09 20.84,85.85 19.9,85.85 Z"/>
    <path fill="#2F1945" fill-rule="nonzero" d="M36.4,85.85 L26.07,85.85 C25.13,85.85 24.36,85.08 24.36,84.14 L24.36,73.81 C24.36,72.87 25.13,72.1 26.07,72.1 L36.4,72.1 C37.34,72.1 38.11,72.87 38.11,73.81 L38.11,84.14 C38.11,85.09 37.34,85.85 36.4,85.85 Z"/>
    <path fill="#DAE6F0" fill-rule="nonzero" d="M69.41 85.85L59.08 85.85C58.14 85.85 57.37 85.08 57.37 84.14L57.37 73.81C57.37 72.87 58.14 72.1 59.08 72.1L69.41 72.1C70.35 72.1 71.12 72.87 71.12 73.81L71.12 84.14C71.12 85.09 70.35 85.85 69.41 85.85zM52.91 85.85L42.58 85.85C41.64 85.85 40.87 85.08 40.87 84.14L40.87 73.81C40.87 72.87 41.64 72.1 42.58 72.1L52.91 72.1C53.85 72.1 54.62 72.87 54.62 73.81L54.62 84.14C54.62 85.09 53.85 85.85 52.91 85.85z"/>
    <path fill="#2F1945" fill-rule="nonzero" d="M19.9,102.65 L9.57,102.65 C8.63,102.65 7.86,101.88 7.86,100.94 L7.86,90.61 C7.86,89.67 8.63,88.9 9.57,88.9 L19.9,88.9 C20.84,88.9 21.61,89.67 21.61,90.61 L21.61,100.94 C21.61,101.88 20.84,102.65 19.9,102.65 Z"/>
    <path fill="#DAE6F0" fill-rule="nonzero" d="M36.4,102.65 L26.07,102.65 C25.13,102.65 24.36,101.88 24.36,100.94 L24.36,90.61 C24.36,89.67 25.13,88.9 26.07,88.9 L36.4,88.9 C37.34,88.9 38.11,89.67 38.11,90.61 L38.11,100.94 C38.11,101.88 37.34,102.65 36.4,102.65 Z"/>
    <path fill="#2F1945" fill-rule="nonzero" d="M69.41,102.65 L59.08,102.65 C58.14,102.65 57.37,101.88 57.37,100.94 L57.37,90.61 C57.37,89.67 58.14,88.9 59.08,88.9 L69.41,88.9 C70.35,88.9 71.12,89.67 71.12,90.61 L71.12,100.94 C71.12,101.88 70.35,102.65 69.41,102.65 Z"/>
    <path fill="#DAE6F0" fill-rule="nonzero" d="M86.43 52.27L76.1 52.27C75.16 52.27 74.39 51.5 74.39 50.56L74.39 40.23C74.39 39.29 75.16 38.52 76.1 38.52L86.43 38.52C87.37 38.52 88.14 39.29 88.14 40.23L88.14 50.56C88.13 51.5 87.36 52.27 86.43 52.27zM93.82 32.01L49.46 32.01C48.52 32.01 47.75 31.24 47.75 30.3L47.75 9.17C47.75 8.23 48.52 7.46 49.46 7.46L93.82 7.46C94.76 7.46 95.53 8.23 95.53 9.17L95.53 30.3C95.52 31.24 94.76 32.01 93.82 32.01zM86.43 69.06L76.1 69.06C75.16 69.06 74.39 68.29 74.39 67.35L74.39 57.02C74.39 56.08 75.16 55.31 76.1 55.31L86.43 55.31C87.37 55.31 88.14 56.08 88.14 57.02L88.14 67.35C88.13 68.29 87.36 69.06 86.43 69.06zM86.43 85.85L76.1 85.85C75.16 85.85 74.39 85.08 74.39 84.14L74.39 73.81C74.39 72.87 75.16 72.1 76.1 72.1L86.43 72.1C87.37 72.1 88.14 72.87 88.14 73.81L88.14 84.14C88.13 85.09 87.36 85.85 86.43 85.85zM86.43 102.65L76.1 102.65C75.16 102.65 74.39 101.88 74.39 100.94L74.39 90.61C74.39 89.67 75.16 88.9 76.1 88.9L86.43 88.9C87.37 88.9 88.14 89.67 88.14 90.61L88.14 100.94C88.13 101.88 87.36 102.65 86.43 102.65zM52.91 102.65L42.58 102.65C41.64 102.65 40.87 101.88 40.87 100.94L40.87 90.61C40.87 89.67 41.64 88.9 42.58 88.9L52.91 88.9C53.85 88.9 54.62 89.67 54.62 90.61L54.62 100.94C54.62 101.88 53.85 102.65 52.91 102.65z"/>
    <path stroke="#A4C7E2" stroke-linecap="round" stroke-linejoin="round" stroke-width="2" d="M17.05 7.59L3.43 7.59C1.8 7.59.47 8.92.47 10.55L.47 105.69C.47 107.32 1.8 108.65 3.43 108.65L65.32 108.65 75.96 108.65M71.88 7.59L24.12 7.59M75.97 108.64L92.57 108.64C94.2 108.64 95.53 107.31 95.53 105.68L95.53 10.55C95.53 8.92 94.2 7.59 92.57 7.59L78.95 7.59"/>
    <path fill="#A4C7E2" fill-rule="nonzero" d="M20.58 15.87C22.71 15.87 24.45 17.61 24.45 19.74 24.45 21.87 22.71 23.61 20.58 23.61 18.45 23.61 16.71 21.87 16.71 19.74 16.71 17.61 18.46 15.87 20.58 15.87L20.58 15.87zM20.58 13.87C17.35 13.87 14.71 16.5 14.71 19.74 14.71 22.98 17.34 25.61 20.58 25.61 23.82 25.61 26.45 22.98 26.45 19.74 26.45 16.5 23.82 13.87 20.58 13.87L20.58 13.87zM75.42 15.87C77.55 15.87 79.29 17.61 79.29 19.74 79.29 21.87 77.55 23.61 75.42 23.61 73.29 23.61 71.55 21.87 71.55 19.74 71.55 17.61 73.29 15.87 75.42 15.87L75.42 15.87zM75.42 13.87C72.19 13.87 69.55 16.5 69.55 19.74 69.55 22.98 72.18 25.61 75.42 25.61 78.66 25.61 81.29 22.98 81.29 19.74 81.29 16.5 78.65 13.87 75.42 13.87L75.42 13.87z"/>
    <path stroke="#A4C7E2" stroke-linecap="round" stroke-linejoin="round" stroke-width="2" d="M0.48,32.01 L95.52,32.01"/>
    <path stroke="#A4C7E2" stroke-linecap="round" stroke-width="2" d="M20.58 14.29L20.58.64M75.42 14.29L75.42.64"/>
  </g>
</svg>
