<svg xmlns="http://www.w3.org/2000/svg" width="80" height="94" viewBox="0 0 80 94">
  <g fill="none" fill-rule="evenodd" transform="translate(0 1)">
    <path fill="#DAE6F0" fill-rule="nonzero" d="M32.2176 4.1692517L24.32 4.1692517 24.32 19.3435374 32.2176 19.3435374C35.0464 19.3435374 37.3376 17.0542857 37.3376 14.2278912L37.3376 9.28489796C37.3376 6.46489796 35.0464 4.1692517 32.2176 4.1692517zM63.4624 4.1692517L55.5648 4.1692517 55.5648 19.3435374 63.4624 19.3435374C66.2912 19.3435374 68.5824 17.0542857 68.5824 14.2278912L68.5824 9.28489796C68.5824 6.46489796 66.2912 4.1692517 63.4624 4.1692517z"/>
    <g stroke="#A4C7E2" stroke-width="1.28" transform="translate(10.88 3.837)">
      <path d="M5.4336.332517007L21.2288.332517007C24.0576.332517007 26.3488 2.62176871 26.3488 5.44816327L26.3488 10.3911565C26.3488 13.217551 24.0576 15.5068027 21.2288 15.5068027L5.4336 15.5068027C2.6048 15.5068027.3136 13.217551.3136 10.3911565L.3136 5.44816327C.3136 2.62816327 2.6048.332517007 5.4336.332517007zM36.7936.332517007L52.5888.332517007C55.4176.332517007 57.7088 2.62176871 57.7088 5.44816327L57.7088 10.3911565C57.7088 13.217551 55.4176 15.5068027 52.5888 15.5068027L36.7936 15.5068027C33.9648 15.5068027 31.6736 13.217551 31.6736 10.3911565L31.6736 5.44816327C31.6736 2.62816327 33.9648.332517007 36.7936.332517007z"/>
    </g>
    <path stroke="#A4C7E2" stroke-width="1.28" d="M2.8352,87.0235374 L2.8352,3.42748299 C2.8352,1.66258503 4.2688,0.230204082 6.0352,0.230204082 L73.7344,0.230204082 C75.5008,0.230204082 76.9344,1.66258503 76.9344,3.42748299 L76.9344,87.0235374 C76.9344,88.7884354 75.5008,90.2208163 73.7344,90.2208163 L6.0352,90.2208163 C4.2688,90.2208163 2.8352,88.7948299 2.8352,87.0235374 Z"/>
    <g fill-rule="nonzero" transform="translate(0 16.626)">
      <path fill="#FFF" d="M5.4016,75.5133333 C2.9312,75.5133333 0.9216,73.5054422 0.9216,71.0371429 L0.9216,5.34585034 C0.9216,2.87755102 2.9312,0.869659864 5.4016,0.869659864 L74.3808,0.869659864 C76.8512,0.869659864 78.8608,2.87755102 78.8608,5.34585034 L78.8608,71.0371429 C78.8608,73.5054422 76.8512,75.5133333 74.3808,75.5133333 L5.4016,75.5133333 Z"/>
      <path fill="#A4C7E2" d="M74.3744,1.50911565 C76.4928,1.50911565 78.2144,3.2292517 78.2144,5.34585034 L78.2144,71.0371429 C78.2144,73.1537415 76.4928,74.8738776 74.3744,74.8738776 L5.4016,74.8738776 C3.2832,74.8738776 1.5616,73.1537415 1.5616,71.0371429 L1.5616,5.34585034 C1.5616,3.2292517 3.2832,1.50911565 5.4016,1.50911565 L74.3744,1.50911565 L74.3744,1.50911565 Z M74.3744,0.230204082 L5.4016,0.230204082 C2.5792,0.230204082 0.2816,2.52585034 0.2816,5.34585034 L0.2816,71.0371429 C0.2816,73.8571429 2.5792,76.1527891 5.4016,76.1527891 L74.3808,76.1527891 C77.2032,76.1527891 79.5008,73.8571429 79.5008,71.0371429 L79.5008,5.34585034 C79.4944,2.52585034 77.1968,0.230204082 74.3744,0.230204082 L74.3744,0.230204082 Z"/>
    </g>
    <path fill="#DAE6F0" fill-rule="nonzero" d="M74.3744,19.5865306 L38.3872,19.5865306 L38.3872,90.2208163 L74.3744,90.2208163 C75.7888,90.2208163 76.9344,89.0761905 76.9344,87.6629932 L76.9344,22.1443537 C76.9344,20.737551 75.7888,19.5865306 74.3744,19.5865306 Z"/>
  </g>
</svg>
