<svg xmlns="http://www.w3.org/2000/svg" width="71" height="84" viewBox="0 0 71 84">
  <g fill="none" fill-rule="evenodd" transform="translate(1 1)">
    <path fill="#FFF" fill-rule="nonzero" stroke="#A4C7E2" stroke-width="2" d="M7,5.1731234 C7,5.1731234 30.0661479,-4.21640425 64,5.1731234 L64,35 L7,35 L7,5.1731234 Z"/>
    <path fill="#FFF" fill-rule="nonzero" d="M7.7804878,0 L5.2195122,0 C4.54323725,0 4,0.54286468 4,1.21867581 L4,40.7813242 C4,41.4571353 4.54323725,42 5.2195122,42 L7.7804878,42 C8.45676275,42 9,41.4571353 9,40.7813242 L9,1.21867581 C9,0.54286468 8.45676275,0 7.7804878,0"/>
    <path stroke="#A4C7E2" stroke-width="2" d="M7.7804878,0 L5.2195122,0 C4.54323725,0 4,0.54286468 4,1.21867581 L4,40.7813242 C4,41.4571353 4.54323725,42 5.2195122,42 L7.7804878,42 C8.45676275,42 9,41.4571353 9,40.7813242 L9,1.21867581 C9,0.54286468 8.45676275,0 7.7804878,0 Z"/>
    <path fill="#FFF" fill-rule="nonzero" d="M64.7804878,0 L62.2195122,0 C61.5432373,0 61,0.54286468 61,1.21867581 L61,40.7813242 C61,41.4571353 61.5432373,42 62.2195122,42 L64.7804878,42 C65.4567627,42 66,41.4571353 66,40.7813242 L66,1.21867581 C66,0.54286468 65.4567627,0 64.7804878,0"/>
    <path stroke="#A4C7E2" stroke-width="2" d="M64.7804878,0 L62.2195122,0 C61.5432373,0 61,0.54286468 61,1.21867581 L61,40.7813242 C61,41.4571353 61.5432373,42 62.2195122,42 L64.7804878,42 C65.4567627,42 66,41.4571353 66,40.7813242 L66,1.21867581 C66,0.54286468 65.4567627,0 64.7804878,0 Z"/>
    <path fill="#FFF" fill-rule="nonzero" d="M49.2897875,34 L21.7213921,34 C17.4628594,34 14,30.5819975 14,26.3649815 L14,23.6461159 C14,19.4290999 17.4516528,16 21.7213921,16 L49.2897875,16 C53.5483201,16 56.9999729,19.4180025 56.9999729,23.6461159 L56.9999729,26.3649815 C57.0111795,30.5819975 53.5483201,34 49.2897875,34"/>
    <path fill="#DAE6F0" fill-rule="nonzero" d="M58,31 L36,31 L36,16 L48.8849105,16 C53.9263427,16 58,20.1312595 58,25.2185129 L58,31 L58,31 Z"/>
    <path stroke="#A4C7E2" stroke-width="2" d="M49.2897875,34 L21.7213921,34 C17.4628594,34 14,30.5819975 14,26.3649815 L14,23.6461159 C14,19.4290999 17.4516528,16 21.7213921,16 L49.2897875,16 C53.5483201,16 56.9999729,19.4180025 56.9999729,23.6461159 L56.9999729,26.3649815 C57.0111795,30.5819975 53.5483201,34 49.2897875,34 Z"/>
    <path fill="#FFF" fill-rule="nonzero" d="M68,82 L68,40.466203 C68,35.2453814 63.7506952,31 58.5113692,31 L9.48863079,31 C4.24930476,31 0,35.2342969 0,40.466203 L0,82"/>
    <path stroke="#A4C7E2" stroke-width="2" d="M0,83 L0,40.3954671 C0,35.2075831 4.03048066,31 9,31"/>
    <path fill="#FFF" fill-rule="nonzero" d="M41,22 C41,25.8684211 37.8684211,29 34,29 C30.1315789,29 27,25.8684211 27,22 C27,18.1315789 30.1315789,15 34,15 C37.8575851,15 41,18.1315789 41,22"/>
    <circle cx="34" cy="22" r="7" stroke="#A4C7E2" stroke-width="2"/>
    <path fill="#FFF" fill-rule="nonzero" d="M52,31 C50.7119266,31 49.666055,29.9483395 49.666055,28.6531365 C49.666055,24.9778598 46.7045872,22 43.0495413,22 L24.7192661,22 C21.0642202,22 18.1027523,24.9778598 18.1027523,28.6531365 C18.1027523,29.9483395 17.0568807,31 15.7688073,31 L10,31"/>
    <path stroke="#A4C7E2" stroke-width="2" d="M10,31.0119935 L15.7743743,31.0119935 C17.0636907,31.0119935 18.1105715,29.9589315 18.1105715,28.6620025 C18.1105715,24.9818281 21.0748973,22 24.7334703,22 L43.0814344,22 C46.7400075,22 49.7043332,24.9818281 49.7043332,28.6620025 C49.7043332,29.9589315 50.751214,31.0119935 52.0405304,31.0119935 L59.2254389,31.045248 C64.4157639,31.045248 69,34.9027803 69,40.1237507 L69,83"/>
    <path fill="#DAE6F0" fill-rule="nonzero" d="M58.9372385,34.7017327 L52.4435146,34.7017327 C49.2970711,34.7017327 46.7419805,32.1509901 46.7419805,29.009901 C46.7419805,26.7933168 44.9456067,25 42.7252441,25 L34,25 L34,79 L66,79 L66,41.7636139 C66,37.865099 62.8423989,34.7017327 58.9372385,34.7017327 Z"/>
    <polygon fill="#A4C7E2" fill-rule="nonzero" points="34.506 4 35.558 7.059 39 7.059 36.221 8.952 37.285 12 34.506 10.118 31.727 12 32.779 8.952 30 7.059 33.442 7.059"/>
  </g>
</svg>
