<svg xmlns="http://www.w3.org/2000/svg" width="118" height="94" viewBox="0 0 118 94">
  <g fill="none" transform="translate(1)">
    <path fill="#DAE6F0" d="M0.208159509,55.3226154 L0.208159509,65.3516923 L1.03361963,67.3690769 L46.0750307,93.3998462 L48.3145399,93.9493846 L50.4894479,93.6312308 L75.547546,79.0684615 C75.547546,79.0684615 114.344172,56.5084615 114.128834,56.3927692 C113.906319,56.2698462 115.112209,54.238 115.112209,54.238 L115.377791,43.7027692 L114.408773,42.6470769 L98.8973006,51.8373846 L52.1188344,79.0973846 C52.1188344,79.0973846 49.6065644,80.5652308 49.4845399,80.5869231 C49.3625153,80.6158462 47.2665644,80.1603077 47.2665644,80.1603077 L45.4003067,79.618 L8.95803681,58.1643077 L1.65092025,53.8475385 L0.832638037,54.3970769 L0.208159509,55.3226154 Z"/>
    <path fill="#231F20" stroke="#A4C7E2" stroke-width=".5" d="M13.3222086 40.1307692C13.7959509 40.1307692 14.1189571 39.8993846 14.1189571 39.6969231 14.1189571 39.4944615 13.788773 39.2630769 13.3222086 39.2630769 12.8484663 39.2630769 12.5182822 39.4944615 12.5182822 39.6969231 12.5254601 39.9066154 12.8556442 40.1307692 13.3222086 40.1307692zM25.4313497 39.8776923C25.4313497 39.6752308 25.1011656 39.4438462 24.6346012 39.4438462 24.1608589 39.4438462 23.8378528 39.6752308 23.8378528 39.8776923 23.8378528 40.0801538 24.1680368 40.3115385 24.6346012 40.3115385 25.1011656 40.3115385 25.4313497 40.0873846 25.4313497 39.8776923zM36.9734356 40.1813846C36.9734356 39.9789231 36.6432515 39.7475385 36.1695092 39.7475385 35.6957669 39.7475385 35.3727607 39.9789231 35.3727607 40.1813846 35.3727607 40.3910769 35.7029448 40.6152308 36.1695092 40.6152308 36.6432515 40.6152308 36.9734356 40.3910769 36.9734356 40.1813846zM48.3360736 40.1235385C48.3360736 39.9210769 48.0058896 39.6896923 47.5393252 39.6896923 47.0655828 39.6896923 46.7425767 39.9210769 46.7425767 40.1235385 46.7425767 40.326 47.0727607 40.5573846 47.5393252 40.5573846 48.0130675 40.5573846 48.3360736 40.326 48.3360736 40.1235385zM59.8279141 40.3043077C59.8279141 40.1018462 59.4977301 39.8704615 59.0239877 39.8704615 58.5502454 39.8704615 58.2272393 40.1018462 58.2272393 40.3043077 58.2272393 40.5067692 58.5574233 40.7381538 59.0239877 40.7381538 59.4977301 40.7381538 59.8279141 40.5067692 59.8279141 40.3043077zM71.283865 40.5501538C71.283865 40.3476923 70.953681 40.1163077 70.4871166 40.1163077 70.0133742 40.1163077 69.6831902 40.3476923 69.6831902 40.5501538 69.6831902 40.7598462 70.0133742 40.984 70.4871166 40.984 70.953681 40.9912308 71.283865 40.7598462 71.283865 40.5501538zM81.9215337 40.2247692C81.4477914 40.2247692 81.1247853 40.4561538 81.1247853 40.6586154 81.1247853 40.8610769 81.4549693 41.0924615 81.9215337 41.0924615 82.3952761 41.0924615 82.7182822 40.8610769 82.7182822 40.6586154 82.7182822 40.4561538 82.3952761 40.2247692 81.9215337 40.2247692zM24.404908 33.6809231C24.8786503 33.6809231 25.2016564 33.4495385 25.2016564 33.2470769 25.2016564 33.0446154 24.8714724 32.8132308 24.404908 32.8132308 23.9311656 32.8132308 23.6081595 33.0446154 23.6081595 33.2470769 23.6081595 33.4495385 23.9311656 33.6809231 24.404908 33.6809231zM35.7101227 32.9867692C35.2363804 32.9867692 34.9133742 33.2181538 34.9133742 33.4206154 34.9133742 33.6230769 35.2435583 33.8544615 35.7101227 33.8544615 36.183865 33.8544615 36.5068712 33.6230769 36.5068712 33.4206154 36.5068712 33.2181538 36.1766871 32.9867692 35.7101227 32.9867692zM46.4554601 33.7243077C46.4554601 33.934 46.7856442 34.1581538 47.2522086 34.1581538 47.7259509 34.1581538 48.0489571 33.9267692 48.0489571 33.7243077 48.0489571 33.5218462 47.718773 33.2904615 47.2522086 33.2904615 46.7784663 33.2904615 46.4554601 33.5218462 46.4554601 33.7243077zM58.6148466 33.2326154C58.1411043 33.2326154 57.8180982 33.464 57.8180982 33.6664615 57.8180982 33.8689231 58.1482822 34.1003077 58.6148466 34.1003077 59.088589 34.1003077 59.4115951 33.8689231 59.4115951 33.6664615 59.418773 33.4567692 59.088589 33.2326154 58.6148466 33.2326154zM70.9034356 33.8472308C70.9034356 33.6447692 70.5732515 33.4133846 70.1066871 33.4133846 69.6329448 33.4133846 69.3099387 33.6447692 69.3099387 33.8472308 69.3099387 34.0496923 69.6401227 34.2810769 70.1066871 34.2810769 70.5732515 34.2810769 70.9034356 34.0569231 70.9034356 33.8472308zM80.7587117 34.1003077C80.7587117 34.31 81.0888957 34.5341538 81.5554601 34.5341538 82.0292025 34.5341538 82.3593865 34.3027692 82.3593865 34.1003077 82.3593865 33.8978462 82.0292025 33.6664615 81.5554601 33.6664615 81.0888957 33.6592308 80.7587117 33.8906154 80.7587117 34.1003077zM92.2003067 34.2087692C92.2003067 34.4112308 92.5304908 34.6426154 92.9970552 34.6426154 93.4707975 34.6426154 93.7938037 34.4112308 93.7938037 34.2087692 93.7938037 34.0063077 93.4636196 33.7749231 92.9970552 33.7749231 92.5304908 33.7749231 92.2003067 33.9990769 92.2003067 34.2087692zM35.2220245 27.2816923C35.6957669 27.2816923 36.018773 27.0503077 36.018773 26.8478462 36.018773 26.6453846 35.688589 26.414 35.2220245 26.414 34.7554601 26.414 34.4252761 26.6453846 34.4252761 26.8478462 34.4252761 27.0575385 34.7554601 27.2816923 35.2220245 27.2816923zM47.4531902 26.8623077C47.4531902 26.6598462 47.1230061 26.4284615 46.6564417 26.4284615 46.1826994 26.4284615 45.8596933 26.6598462 45.8596933 26.8623077 45.8596933 27.0647692 46.1898773 27.2961538 46.6564417 27.2961538 47.130184 27.2961538 47.4531902 27.0647692 47.4531902 26.8623077zM58.2128834 26.7610769C57.7391411 26.7610769 57.416135 26.9924615 57.416135 27.1949231 57.416135 27.3973846 57.746319 27.6287692 58.2128834 27.6287692 58.6866258 27.6287692 59.0096319 27.3973846 59.0096319 27.1949231 59.0096319 26.9924615 58.6794479 26.7610769 58.2128834 26.7610769zM69.5611656 27.636C70.034908 27.636 70.365092 27.4046154 70.365092 27.2021538 70.365092 26.9996923 70.034908 26.7683077 69.5611656 26.7683077 69.0874233 26.7683077 68.7644172 26.9996923 68.7644172 27.2021538 68.7644172 27.4046154 69.0874233 27.636 69.5611656 27.636zM80.9238037 27.0213846C80.4500613 27.0213846 80.1198773 27.2527692 80.1198773 27.4552308 80.1198773 27.6576923 80.4500613 27.8890769 80.9238037 27.8890769 81.397546 27.8890769 81.7205521 27.6576923 81.7205521 27.4552308 81.7277301 27.2455385 81.397546 27.0213846 80.9238037 27.0213846zM92.3797546 27.2672308C91.9060123 27.2672308 91.5830061 27.4986154 91.5830061 27.7010769 91.5830061 27.9107692 91.9131902 28.1349231 92.3797546 28.1349231 92.8534969 28.1349231 93.1765031 27.9035385 93.1765031 27.7010769 93.183681 27.4986154 92.8534969 27.2672308 92.3797546 27.2672308zM103.82135 28.2506154C104.295092 28.2506154 104.625276 28.0192308 104.625276 27.8167692 104.625276 27.6143077 104.295092 27.3829231 103.82135 27.3829231 103.347607 27.3829231 103.024601 27.6143077 103.024601 27.8167692 103.024601 28.0192308 103.354785 28.2506154 103.82135 28.2506154zM46.5774847 20.6510769C47.051227 20.6510769 47.3742331 20.4196923 47.3742331 20.2172308 47.3742331 20.0147692 47.0440491 19.7833846 46.5774847 19.7833846 46.1037423 19.7833846 45.7735583 20.0147692 45.7735583 20.2172308 45.7735583 20.4196923 46.1037423 20.6510769 46.5774847 20.6510769zM58.0047239 19.7906154C57.5309816 19.7906154 57.2079755 20.022 57.2079755 20.2244615 57.2079755 20.4269231 57.5381595 20.6583077 58.0047239 20.6583077 58.4784663 20.6583077 58.8014724 20.4269231 58.8014724 20.2244615 58.8086503 20.022 58.4784663 19.7906154 58.0047239 19.7906154zM69.5611656 20.1304615C69.0874233 20.1304615 68.7644172 20.3618462 68.7644172 20.5643077 68.7644172 20.774 69.0946012 20.9981538 69.5611656 20.9981538 70.034908 20.9981538 70.3579141 20.7667692 70.3579141 20.5643077 70.3579141 20.3618462 70.034908 20.1304615 69.5611656 20.1304615zM80.1126994 20.5643077C80.1126994 20.7667692 80.4428834 20.9981538 80.9094479 20.9981538 81.3831902 20.9981538 81.7061963 20.7667692 81.7061963 20.5643077 81.7061963 20.3618462 81.3760123 20.1304615 80.9094479 20.1304615 80.4428834 20.1304615 80.1126994 20.3618462 80.1126994 20.5643077zM92.2792638 21.2584615C92.7530061 21.2584615 93.0831902 21.0270769 93.0831902 20.8246154 93.0831902 20.6221538 92.7530061 20.3907692 92.2792638 20.3907692 91.8055215 20.3907692 91.4825153 20.6221538 91.4825153 20.8246154 91.4753374 21.0270769 91.8055215 21.2584615 92.2792638 21.2584615zM57.5381595 14.2373846C58.0119018 14.2373846 58.334908 14.006 58.334908 13.8035385 58.334908 13.6010769 58.0047239 13.3696923 57.5381595 13.3696923 57.0715951 13.3696923 56.741411 13.6010769 56.741411 13.8035385 56.7342331 14.006 57.0644172 14.2373846 57.5381595 14.2373846zM68.9653988 14.2446154C69.4391411 14.2446154 69.7621472 14.0132308 69.7621472 13.8107692 69.7621472 13.6083077 69.4319632 13.3769231 68.9653988 13.3769231 68.4916564 13.3769231 68.1686503 13.6083077 68.1686503 13.8107692 68.1686503 14.0132308 68.4988344 14.2446154 68.9653988 14.2446154zM80.5218405 14.5844615C80.9955828 14.5844615 81.318589 14.3530769 81.318589 14.1506154 81.318589 13.9481538 80.9884049 13.7167692 80.5218405 13.7167692 80.0480982 13.7167692 79.725092 13.9481538 79.725092 14.1506154 79.725092 14.3530769 80.0480982 14.5844615 80.5218405 14.5844615zM68.7859509 7.97553846C69.2596933 7.97553846 69.5826994 7.74415385 69.5826994 7.54169231 69.5826994 7.33923077 69.2525153 7.10784615 68.7859509 7.10784615 68.3122086 7.10784615 67.9820245 7.33923077 67.9820245 7.54169231 67.9892025 7.74415385 68.3193865 7.97553846 68.7859509 7.97553846zM36.9160123 52.8135385C36.4422699 52.8135385 36.1192638 53.0449231 36.1192638 53.2473846 36.1192638 53.4498462 36.4494479 53.6812308 36.9160123 53.6812308 37.3897546 53.6812308 37.7127607 53.4498462 37.7127607 53.2473846 37.7127607 53.0449231 37.3897546 52.8135385 36.9160123 52.8135385zM49.1471779 53.2618462C49.1471779 53.0593846 48.8169939 52.828 48.3504294 52.828 47.8766871 52.828 47.553681 53.0593846 47.553681 53.2618462 47.553681 53.4643077 47.883865 53.6956923 48.3504294 53.6956923 48.8169939 53.6956923 49.1471779 53.4643077 49.1471779 53.2618462zM59.8996933 53.1606154C59.4259509 53.1606154 59.1029448 53.392 59.1029448 53.5944615 59.1029448 53.7969231 59.4331288 54.0283077 59.8996933 54.0283077 60.3734356 54.0283077 60.6964417 53.7969231 60.6964417 53.5944615 60.6964417 53.392 60.3734356 53.1606154 59.8996933 53.1606154zM48.802638 59.5815385C48.3288957 59.5815385 47.9987117 59.8129231 47.9987117 60.0153846 47.9987117 60.2250769 48.3288957 60.4492308 48.802638 60.4492308 49.2763804 60.4492308 49.5993865 60.2178462 49.5993865 60.0153846 49.6065644 59.8129231 49.2763804 59.5815385 48.802638 59.5815385zM25.151411 45.8286154C24.6776687 45.8286154 24.3474847 46.06 24.3474847 46.2624615 24.3474847 46.4721538 24.6776687 46.6963077 25.151411 46.6963077 25.6251534 46.6963077 25.9481595 46.4649231 25.9481595 46.2624615 25.9481595 46.06 25.6179755 45.8286154 25.151411 45.8286154zM37.3825767 46.2769231C37.3825767 46.0744615 37.0523926 45.8430769 36.5858282 45.8430769 36.1120859 45.8430769 35.7890798 46.0744615 35.7890798 46.2769231 35.7890798 46.4793846 36.1192638 46.7107692 36.5858282 46.7107692 37.0523926 46.718 37.3825767 46.4866154 37.3825767 46.2769231zM48.9318405 46.6167692C48.9318405 46.4143077 48.6016564 46.1829231 48.135092 46.1829231 47.6613497 46.1829231 47.3383436 46.4143077 47.3383436 46.6167692 47.3383436 46.8264615 47.6685276 47.0506154 48.135092 47.0506154 48.6016564 47.0506154 48.9318405 46.8264615 48.9318405 46.6167692zM60.2873006 46.6167692C60.2873006 46.4143077 59.9571166 46.1829231 59.4905521 46.1829231 59.0168098 46.1829231 58.6938037 46.4143077 58.6938037 46.6167692 58.6938037 46.8192308 59.0239877 47.0506154 59.4905521 47.0506154 59.9571166 47.0506154 60.2873006 46.8264615 60.2873006 46.6167692zM70.8460123 46.436C70.3722699 46.436 70.0492638 46.6673846 70.0492638 46.8698462 70.0492638 47.0795385 70.3794479 47.3036923 70.8460123 47.3036923 71.3197546 47.3036923 71.6499387 47.0723077 71.6499387 46.8698462 71.6499387 46.6673846 71.3197546 46.436 70.8460123 46.436z"/>
    <path fill="#231F20" stroke="#A4C7E2" stroke-width=".5" d="M115.980736,30.5644615 C116.275031,30.2173846 116.497546,29.8992308 116.648282,29.6461538 C116.69135,29.5738462 116.698528,29.4798462 116.662638,29.4003077 C116.353988,28.6193846 116.00227,27.7444615 113.985276,26.5007692 C113.942209,26.4718462 113.899141,26.4646154 113.856074,26.4646154 C111.853436,24.3243077 108.077853,21.5910769 103.577301,21.1210769 C102.730307,19.1687692 97.7560123,14.8664615 91.7911656,14.2446154 C90.9441718,12.3067692 85.991411,8.03338462 80.0552761,7.41876923 C79.2154601,5.50261538 74.212454,1.26538462 68.2117178,0.715846154 L68.2045399,0.715846154 L68.1686503,0.715846154 L68.1471166,0.715846154 C61.5649693,1.82215385 57.667362,5.66169231 56.8347239,7.10784615 C50.4463804,8.22861538 46.6061963,12.0103077 45.7304908,13.4998462 C45.716135,13.5070769 45.7017791,13.5215385 45.6874233,13.5287692 C45.6802454,13.5287692 45.6802454,13.536 45.6802454,13.5432308 C39.3852147,14.6423077 35.5450307,18.2938462 34.6262577,19.9424615 C28.1876687,21.0704615 24.3331288,24.91 23.5004908,26.3706154 C16.6886503,27.5636923 13.286319,31.49 12.5828834,32.7192308 C7.17791411,33.6664615 3.55306748,36.6383077 2.10312883,38.5038462 C0.394785276,39.2052308 0.064601227,40.5935385 0.0287116564,40.7526154 C0.0143558282,40.8249231 0.0287116564,40.8972308 0.064601227,40.9623077 C0.24404908,41.2443077 0.466564417,41.5552308 0.732147239,41.8878462 L0.732147239,50.4129231 C0.732147239,51.7506154 0.911595092,52.6616923 1.40687117,53.3992308 C0.961840491,53.6667692 0.753680982,54.238 0.753680982,54.7658462 L0.753680982,63.544 C0.753680982,66.0241538 1.36380368,67.0653846 3.47411043,68.1789231 C5.52699387,69.2635385 45.1203681,92.4598462 45.5223313,92.6984615 C46.6205521,93.3275385 47.639816,93.6384615 48.6806135,93.6384615 C49.8721472,93.6384615 51.0995706,93.2263077 52.5279755,92.3947692 C54.7172393,91.1221538 112.707607,57.3472308 113.310552,56.9929231 C113.45411,56.8916923 113.590491,56.7976923 113.726871,56.7109231 C115.148098,55.7492308 116.00227,55.1707692 116.00227,52.4736923 L116.00227,43.4424615 C116.00227,42.9001538 115.815644,42.2855385 115.320368,42.1192308 C115.729509,41.4973846 115.980736,40.6586154 115.980736,39.3426154 L115.980736,30.5644615 L115.980736,30.5644615 Z M11.3985276,38.7207692 C8.46276074,37.8313846 4.64411043,37.9398462 2.52662577,38.8798462 C3.73969325,37.3396923 6.98411043,34.3244615 12.4895706,33.3049231 C12.4967485,33.3266154 12.5039264,33.3483077 12.5182822,33.3627692 C12.5469939,33.4061538 12.5900613,33.4350769 12.6403067,33.4495385 C13.3652761,34.2738462 13.788773,36.3201538 13.5734356,38.0410769 C13.5519018,38.1929231 13.6595706,38.3303077 13.8103067,38.352 L13.8461963,38.352 C13.9825767,38.352 14.1046012,38.2507692 14.1189571,38.1061538 C14.3414724,36.3129231 13.9323313,34.2521538 13.1786503,33.2326154 C15.0664417,32.0973846 19.2798773,31.9455385 22.3520245,32.9506154 C22.5027607,33.0012308 22.6534969,32.9216923 22.7037423,32.7698462 C22.7539877,32.6252308 22.6750307,32.4661538 22.5242945,32.4155385 C19.5167485,31.4321538 15.5688957,31.5044615 13.3796319,32.4950769 C14.6142331,30.8175385 18.0596319,27.9324615 23.4215337,26.9418462 C23.4358896,26.978 23.4502454,27.0069231 23.4789571,27.0358462 C24.1895706,27.8095385 24.6202454,29.7473846 24.4551534,31.4538462 C24.4407975,31.6056923 24.5484663,31.7430769 24.7063804,31.7575385 L24.735092,31.7575385 C24.8786503,31.7575385 24.9934969,31.6490769 25.0078528,31.5044615 C25.1801227,29.7112308 24.7422699,27.73 23.988589,26.7827692 C25.7687117,25.6836923 29.9677914,25.5246154 33.0830061,26.4863077 C33.2265644,26.5296923 33.3844785,26.4501538 33.427546,26.2983077 C33.4706135,26.1536923 33.3916564,25.9946154 33.2409202,25.9512308 C30.3410429,25.0546154 26.6372393,25.0907692 24.4766871,25.9295385 C25.8189571,24.2953846 29.2356442,21.5043077 34.4826994,20.5209231 C34.4611656,20.6076923 34.4826994,20.7016923 34.5473006,20.7667692 C35.2435583,21.5187692 35.6383436,23.4204615 35.4445399,25.098 C35.430184,25.2498462 35.5378528,25.3872308 35.688589,25.4089231 L35.7173006,25.4089231 C35.853681,25.4089231 35.9757055,25.3076923 35.9900613,25.1630769 C36.1982209,23.3843077 35.7890798,21.4175385 35.0353988,20.492 C35.0784663,20.4847692 35.1143558,20.4703077 35.1502454,20.4413846 C36.8155215,19.176 41.2442945,18.9229231 44.4384663,19.9135385 C44.5820245,19.9569231 44.7399387,19.8773846 44.7830061,19.7255385 C44.8260736,19.5809231 44.7471166,19.4218462 44.5963804,19.3784615 C41.5816564,18.4456923 37.6409816,18.5686154 35.5234969,19.5736923 C36.8298773,17.9395385 40.3183436,15.0327692 45.7233129,14.0783077 C46.4195706,14.852 46.8574233,16.826 46.6923313,18.4890769 C46.6779755,18.6409231 46.7856442,18.7783077 46.9435583,18.7927692 L46.9722699,18.7927692 C47.1158282,18.7927692 47.2306748,18.6843077 47.2450307,18.5396923 C47.4244785,16.7464615 46.9866258,14.758 46.2257669,13.8035385 C48.056135,12.6466154 52.3269939,12.4586154 55.4493865,13.4347692 C55.5929448,13.4781538 55.7508589,13.3986154 55.7939264,13.254 C55.8369939,13.1093846 55.7580368,12.9503077 55.6144785,12.9069231 C52.7433129,12.0103077 49.0610429,12.0536923 46.8358896,12.8924615 C48.2930061,11.2221538 51.7025153,8.56123077 56.8419018,7.64292308 C57.5094479,8.44553846 57.8755215,10.3255385 57.6817178,12.0030769 C57.667362,12.1549231 57.7750307,12.2923077 57.9257669,12.314 L57.9616564,12.314 C58.0980368,12.314 58.2200613,12.2127692 58.2344172,12.0681538 C58.4353988,10.3255385 58.0765031,8.42384615 57.3874233,7.44046154 C59.2249693,6.26184615 63.5676074,6.09553846 66.7546012,7.12230769 C66.8981595,7.17292308 67.0560736,7.08615385 67.0991411,6.94153846 C67.1422086,6.79692308 67.0632515,6.63784615 66.9196933,6.59446154 C63.9839264,5.65446154 60.0791411,5.69784615 57.8539877,6.58723077 C59.253681,4.94584615 62.7206135,2.20538462 68.0609816,1.26538462 C68.7069939,2.09692308 69.0802454,4.00584615 68.9079755,5.65446154 C68.8936196,5.80630769 69.0012883,5.94369231 69.1520245,5.95815385 L69.1807362,5.95815385 C69.3171166,5.95815385 69.4391411,5.84969231 69.4534969,5.70507692 C69.618589,4.09984615 69.3242945,2.35723077 68.7428834,1.30153846 C73.5090184,1.95230769 77.6219632,4.982 79.0719018,6.862 C76.6457669,5.70507692 73.0280982,5.75569231 70.5158282,6.47876923 C70.3722699,6.52215385 70.286135,6.674 70.3292025,6.82584615 C70.3722699,6.97046154 70.5230061,7.05723077 70.6737423,7.01384615 C73.4300613,6.21846154 77.5358282,6.31246154 79.6604908,7.84538462 C80.3495706,8.61907692 80.6797546,10.6581538 80.399816,12.4152308 C80.3782822,12.5670769 80.478773,12.7116923 80.6295092,12.7333846 L80.6725767,12.7333846 C80.8089571,12.7333846 80.9238037,12.6321538 80.9453374,12.502 C81.2109202,10.8389231 80.981227,9.04569231 80.4141718,7.97553846 C85.3741104,8.64076923 89.3650307,11.844 90.7934356,13.6733846 C88.4462577,12.5526154 84.907546,12.4658462 82.4168098,13.0226154 C82.2660736,13.0587692 82.1727607,13.2033846 82.2086503,13.3552308 C82.2445399,13.5070769 82.3880982,13.6010769 82.5388344,13.5649231 C85.2592638,12.9575385 89.2860736,13.1383077 91.3963804,14.664 C92.0495706,15.3943077 92.4084663,17.2815385 92.2218405,18.9807692 C92.2074847,19.1326154 92.3151534,19.27 92.4658896,19.2916923 L92.4946012,19.2916923 C92.6309816,19.2916923 92.7530061,19.1832308 92.767362,19.0458462 C92.9468098,17.4550769 92.6884049,15.8064615 92.1500613,14.8013846 C97.1243558,15.4738462 101.143988,18.6987692 102.572393,20.5426154 C100.189325,19.4001538 96.607546,19.3278462 94.102454,19.9063077 C93.9517178,19.9424615 93.8584049,20.0943077 93.8942945,20.2389231 C93.930184,20.3907692 94.0737423,20.4847692 94.2244785,20.4486154 C97.0023313,19.8050769 101.10092,20.0364615 103.175337,21.5404615 C103.828528,22.2707692 104.13,24.2809231 103.857239,26.1392308 C103.835706,26.2910769 103.943374,26.4356923 104.09411,26.4573846 L104.137178,26.4573846 C104.273558,26.4573846 104.388405,26.3561538 104.409939,26.2187692 C104.625276,24.7364615 104.503252,22.8130769 103.929018,21.6706154 C108.838712,22.3575385 112.879877,25.85 114.301104,27.8167692 C111.961104,26.5152308 108.242945,26.3995385 105.687607,27.0141538 C105.536871,27.0503077 105.450736,27.2021538 105.479448,27.3467692 C105.515337,27.4986154 105.666074,27.5853846 105.809632,27.5564615 C108.472638,26.9129231 112.449202,27.0792308 114.573865,28.6483077 C114.609755,28.67 114.645644,28.6844615 114.681534,28.6916923 C113.863252,29.8703077 110.482454,33.3410769 104.287914,34.6570769 C105.134908,33.1747692 104.99135,30.7813846 104.402761,29.2050769 C104.345337,29.0604615 104.187423,28.9881538 104.043865,29.046 C103.900307,29.1038462 103.828528,29.2629231 103.885951,29.4075385 C104.453006,30.9187692 104.553497,33.2109231 103.749571,34.4835385 C101.466994,33.0012308 97.6698773,32.7626154 94.9709816,33.3121538 C94.8202454,33.3410769 94.7269325,33.4929231 94.7556442,33.6375385 C94.7843558,33.7893846 94.935092,33.8833846 95.0786503,33.8544615 C97.6842331,33.3266154 101.545951,33.5796923 103.641902,35.0764615 C102.701595,36.4503077 99.0408589,39.7764615 93.1262577,41.0129231 C93.1262577,41.0129231 93.1190798,41.0129231 93.1190798,41.0056923 C93.1406135,40.9912308 93.1621472,40.9767692 93.1765031,40.9550769 C94.1239877,39.5233846 94.0450307,37.2601538 93.5641104,35.7633846 C93.513865,35.6187692 93.3631288,35.5392308 93.2123926,35.5826154 C93.0688344,35.6332308 92.9898773,35.7850769 93.0329448,35.9369231 C93.4851534,37.3541538 93.5210429,39.4221538 92.7099387,40.6441538 C92.6955828,40.6658462 92.6884049,40.6947692 92.681227,40.7236923 C90.3053374,39.3064615 86.4436196,39.0895385 83.823681,39.6390769 C83.6729448,39.668 83.5796319,39.8198462 83.6083436,39.9716923 C83.6370552,40.1235385 83.7877914,40.2175385 83.9385276,40.1886154 C86.58,39.6318462 90.4847853,39.9283077 92.6381595,41.36 C91.7983436,42.676 88.1017178,46.1323077 82.0507362,47.3904615 C82.0507362,47.3398462 82.0435583,47.2892308 82.0220245,47.2458462 C82.0507362,47.2241538 82.0722699,47.2096923 82.0938037,47.1807692 C82.9766871,45.8430769 83.0197546,43.7967692 82.6680368,42.3506154 C82.6321472,42.1987692 82.481411,42.112 82.3306748,42.1481538 C82.1799387,42.1843077 82.0938037,42.3361538 82.1296933,42.488 C82.4526994,43.8112308 82.4239877,45.6767692 81.6344172,46.8698462 C81.6200613,46.8843077 81.6200613,46.906 81.6128834,46.9276923 C79.2872393,45.4670769 75.4973006,45.3441538 72.8199387,46.0166154 C72.6692025,46.0527692 72.5830675,46.2046154 72.6189571,46.3564615 C72.6548466,46.5083077 72.8055828,46.5950769 72.956319,46.5589231 C75.5762577,45.9009231 79.5025767,46.0455385 81.6200613,47.6001538 C81.6200613,47.6001538 81.6272393,47.6001538 81.6272393,47.6073846 C80.9381595,48.8004615 77.4640491,52.1627692 71.6858282,53.5655385 C72.3820859,52.1121538 72.209816,49.9067692 71.6355828,48.3376923 C71.5853374,48.1930769 71.4202454,48.1207692 71.2766871,48.1713846 C71.1331288,48.222 71.0613497,48.3883077 71.1115951,48.5329231 C71.6786503,50.0730769 71.8365644,52.3869231 71.0111043,53.6450769 C70.9967485,53.6667692 70.9895706,53.6884615 70.9823926,53.7173846 C70.9752147,53.7101538 70.9680368,53.6956923 70.9608589,53.6884615 C68.6711043,52.0036923 64.4720245,51.8084615 61.6941718,52.4736923 C61.5434356,52.5098462 61.4501227,52.6616923 61.4860123,52.8063077 C61.5219018,52.9581538 61.672638,53.0449231 61.8161963,53.016 C64.4289571,52.3869231 68.3193865,52.5532308 70.5014724,54.05 C69.6616564,55.3587692 66.0942331,58.6993846 60.2873006,60.0153846 C61.0553374,58.6343077 60.9907362,56.5373846 60.588773,55.0984615 C60.5457055,54.9538462 60.3949693,54.8670769 60.2442331,54.9032308 C60.1006748,54.9466154 60.0145399,55.0984615 60.0504294,55.2503077 C60.4308589,56.6024615 60.4954601,58.5764615 59.756135,59.8129231 C57.4089571,58.4029231 53.3606135,58.2510769 50.6042945,58.9524615 C50.4535583,58.9886154 50.3674233,59.1404615 50.4033129,59.2923077 C50.4392025,59.4441538 50.5899387,59.5309231 50.7406748,59.4947692 C53.403681,58.8150769 57.3012883,58.9524615 59.5120859,60.3118462 C58.8086503,61.5193846 55.2340491,64.9684615 49.2835583,66.3206154 C49.9152147,64.9106154 49.9582822,62.8787692 49.5850307,61.5121538 C49.5419632,61.3603077 49.391227,61.2735385 49.2476687,61.3169231 C49.0969325,61.3603077 49.0107975,61.5121538 49.053865,61.6567692 C49.4199387,63.0089231 49.3409816,65.1636923 48.6088344,66.4218462 C42.7516564,65.8144615 38.3300613,61.7652308 37.5046012,60.1383077 C39.1842331,59.0247692 43.3546012,58.562 46.7210429,59.6032308 C46.8717791,59.6466154 47.0225153,59.5670769 47.0655828,59.4224615 C47.1086503,59.2778462 47.0296933,59.1187692 46.886135,59.0753846 C43.7780982,58.1064615 39.6220859,58.3233846 37.5117791,59.4875385 C38.0716564,58.1136923 38.0501227,56.2047692 37.691227,54.8309231 C37.6481595,54.6790769 37.4974233,54.5923077 37.353865,54.6356923 C37.2031288,54.6718462 37.1169939,54.8309231 37.1600613,54.9755385 C37.526135,56.3710769 37.5189571,58.4607692 36.8011656,59.6972308 C31.0301227,59.1043077 26.4793252,54.9466154 25.6323313,53.3196923 C27.4339877,52.1555385 31.6617791,51.9386154 34.7411043,52.8930769 C34.8846626,52.9364615 35.0425767,52.8569231 35.0856442,52.7050769 C35.1287117,52.5604615 35.0497546,52.4013846 34.8990184,52.358 C31.841227,51.418 27.8215951,51.5698462 25.7184663,52.6327692 C26.321411,51.1649231 26.2711656,49.1258462 25.8548466,47.7375385 C25.8117791,47.5929231 25.653865,47.5061538 25.5103067,47.5495385 C25.3667485,47.5929231 25.2806135,47.752 25.323681,47.8966154 C25.7687117,49.3716923 25.7471779,51.6132308 24.9719632,52.8930769 C19.1650307,52.2567692 14.6070552,48.0195385 13.874908,46.4504615 C15.6334969,45.2646154 19.7679755,45.0476923 22.897546,45.9949231 C23.0482822,46.0383077 23.1990184,45.9587692 23.2420859,45.8069231 C23.2851534,45.6623077 23.2061963,45.5032308 23.0554601,45.4598462 C20.0909816,44.556 16.3656442,44.6644615 14.2409816,45.6116923 C14.6931902,44.2523077 14.6357669,42.4807692 14.2768712,41.1792308 C14.2338037,41.0273846 14.0830675,40.9406154 13.9395092,40.984 C13.788773,41.0273846 13.702638,41.1792308 13.7457055,41.3238462 C14.1333129,42.7338462 14.1404908,44.8235385 13.4370552,46.0672308 C13.4226994,46.0744615 13.4083436,46.0889231 13.3939877,46.0961538 L13.3939877,46.0961538 C13.3796319,46.0889231 13.3580982,46.0816923 13.3437423,46.0816923 C7.56552147,45.5538462 3.1008589,41.3961538 2.16773006,39.6463077 C3.93349693,38.4676923 8.08233129,38.2507692 11.2262577,39.198 C11.369816,39.2413846 11.5277301,39.1618462 11.5707975,39.01 C11.6282209,38.9232308 11.5420859,38.7641538 11.3985276,38.7207692 Z M0.588588957,40.7598462 C0.689079755,40.4127692 0.969018405,39.9066154 1.50736196,39.48 C1.50736196,39.5089231 1.50736196,39.5378462 1.52171779,39.5667692 C2.11748466,41.3744615 6.98411043,46.1033846 13.3006748,46.6818462 L13.3293865,46.6818462 C13.3437423,46.6818462 13.3509202,46.6746154 13.3652761,46.6746154 C14.2194479,48.6269231 19.1793865,52.922 25.1011656,53.5004615 C25.9984049,55.4744615 30.9798773,59.7623077 36.9088344,60.3046154 L36.937546,60.3046154 L36.937546,60.3046154 L36.9590798,60.3046154 L36.9734356,60.3046154 C37.8347853,62.2424615 42.8019018,66.4941538 48.7452147,67.0364615 L48.7667485,67.0364615 L48.7667485,67.0364615 L48.7667485,67.0364615 L48.7667485,67.0364615 L48.7667485,67.0364615 C48.7811043,67.0364615 48.802638,67.0364615 48.8169939,67.0292308 C55.1048466,65.7855385 59.0239877,62.2424615 59.9642945,60.6878462 C66.1803681,59.4224615 70.0707975,55.8793846 71.0182822,54.3247692 C77.2271779,53.0593846 81.1104294,49.5596923 82.065092,47.9978462 C88.3457669,46.7252308 92.2505521,43.1532308 93.1621472,41.6203077 C99.3782209,40.3476923 103.261472,36.8335385 104.201779,35.2861538 C110.539877,33.9918462 114.480552,30.2896923 115.306012,28.7856923 L115.306012,28.7784615 C115.31319,28.764 115.320368,28.7423077 115.327546,28.7206154 C115.334724,28.7061538 115.341902,28.6916923 115.341902,28.6772308 L115.341902,28.6410769 C115.341902,28.6193846 115.341902,28.5904615 115.334724,28.5687692 C115.334724,28.5687692 115.334724,28.5687692 115.334724,28.5615385 C115.277301,28.3807692 115.162454,28.1638462 115.011718,27.918 C115.672086,28.5109231 115.901779,28.9953846 116.088405,29.4581538 C115.047607,31.1284615 110.992086,34.9173846 104.95546,36.1104615 C104.948282,36.1104615 104.948282,36.1176923 104.941104,36.1176923 C104.919571,36.1249231 104.905215,36.1321538 104.890859,36.1393846 C104.876503,36.1466154 104.862147,36.1538462 104.847791,36.1610769 C104.833436,36.1683077 104.826258,36.1827692 104.811902,36.1972308 C104.797546,36.2116923 104.78319,36.2261538 104.776012,36.2406154 L104.768834,36.2478462 C104.26638,37.1589231 100.777914,41.1213846 93.9445399,42.4735385 C93.851227,42.4952308 93.7866258,42.5603077 93.7507362,42.6398462 C93.7435583,42.6470769 93.7363804,42.6470769 93.7363804,42.6543077 C93.0616564,43.8835385 89.2214724,47.6652308 82.8403067,48.9233846 C82.8331288,48.9233846 82.8259509,48.9306154 82.818773,48.9306154 C82.739816,48.9450769 82.6608589,48.9884615 82.6177914,49.068 C82.1225153,49.9646154 78.6555828,53.8764615 71.8006748,55.2358462 C71.7934969,55.2358462 71.7934969,55.2430769 71.786319,55.2430769 C71.7647853,55.2503077 71.7504294,55.2575385 71.7360736,55.2647692 C71.7217178,55.272 71.707362,55.2792308 71.6930061,55.2864615 C71.6786503,55.2936923 71.6714724,55.3081538 71.6571166,55.3226154 C71.6427607,55.3370769 71.6284049,55.3515385 71.621227,55.366 L71.6140491,55.3732308 C71.0972393,56.3132308 67.5441718,60.4058462 60.7682209,61.7435385 C60.7610429,61.7435385 60.7610429,61.7507692 60.753865,61.7507692 C60.7323313,61.758 60.7179755,61.7652308 60.7036196,61.7724615 C60.6892638,61.7796923 60.6677301,61.7869231 60.6605521,61.7941538 C60.6461963,61.8013846 60.6390184,61.8158462 60.6246626,61.8303077 C60.6103067,61.8447692 60.5959509,61.8592308 60.588773,61.8736923 L60.5815951,61.8809231 C59.8638037,63.1969231 55.1909816,67.1955385 48.9318405,68.4464615 C42.5722086,67.8535385 37.9568098,63.92 36.4063804,61.4181538 C36.4063804,61.4109231 36.3992025,61.4109231 36.3920245,61.4036923 C36.3776687,61.3892308 36.3704908,61.3747692 36.356135,61.3603077 C36.3417791,61.3458462 36.3274233,61.3386154 36.3130675,61.3241538 C36.2987117,61.3169231 36.2843558,61.3096923 36.27,61.3024615 C36.2484663,61.2952308 36.2341104,61.288 36.2125767,61.288 C36.2053988,61.288 36.1982209,61.2807692 36.1982209,61.2807692 C30.1472393,60.7312308 25.5820859,56.6386154 24.5915337,54.6718462 C24.5843558,54.6646154 24.5771779,54.6573846 24.57,54.6501538 C24.5628221,54.6356923 24.5484663,54.6212308 24.5341104,54.6067692 C24.5197546,54.5923077 24.5053988,54.5850769 24.4910429,54.5706154 C24.4766871,54.5633846 24.4623313,54.5561538 24.4479755,54.5489231 C24.4264417,54.5416923 24.4120859,54.5344615 24.3905521,54.5344615 C24.3833742,54.5344615 24.3761963,54.5272308 24.3618405,54.5272308 C18.2534356,53.9704615 13.7528834,49.8850769 12.8053988,47.9255385 C12.7982209,47.9183077 12.7910429,47.9110769 12.7910429,47.9038462 C12.783865,47.8893846 12.7695092,47.8749231 12.7551534,47.8604615 C12.7407975,47.846 12.7336196,47.8387692 12.7120859,47.8243077 C12.6977301,47.8170769 12.6833742,47.8098462 12.6690184,47.7953846 C12.6546626,47.7881538 12.6331288,47.7809231 12.6115951,47.7736923 C12.6044172,47.7736923 12.5972393,47.7664615 12.5900613,47.7664615 C6.21607362,46.9421538 2.08159509,43.0230769 0.588588957,40.7598462 Z M115.449571,43.4424615 L115.449571,52.4736923 C115.449571,54.8743077 114.767669,55.3298462 113.418221,56.2409231 C113.28184,56.3349231 113.14546,56.4289231 113.016258,56.5156923 C112.427669,56.8555385 54.4444785,90.6304615 52.2552147,91.9030769 C49.7357669,93.3636923 47.9915337,93.4432308 45.8022699,92.1995385 C44.1728834,91.2450769 5.79257669,68.7573846 3.73251534,67.6727692 C1.80883436,66.6532308 1.30638037,65.8072308 1.30638037,63.5367692 L1.30638037,54.7586154 C1.30638037,54.3753846 1.44993865,53.9632308 1.75858896,53.8330769 C2.16773006,54.2669231 2.72042945,54.6501538 3.45257669,55.0406154 C5.49828221,56.1252308 45.0988344,79.3215385 45.5007975,79.5601538 C46.5990184,80.1892308 47.6182822,80.5001538 48.6590798,80.5001538 C49.8506135,80.5001538 51.0780368,80.088 52.5064417,79.2564615 C54.6957055,77.9838462 112.686074,44.2089231 113.289018,43.8546154 C113.418221,43.7678462 113.540245,43.6810769 113.66227,43.6015385 C114.14319,43.2761538 114.602577,42.9652308 114.983006,42.5458462 C115.018896,42.582 115.061963,42.6181538 115.119387,42.6253846 C115.377791,42.6904615 115.449571,43.1893846 115.449571,43.4424615 Z M115.428037,39.3426154 C115.428037,41.736 114.559509,42.3289231 113.35362,43.1387692 C113.231595,43.2255385 113.102393,43.3050769 112.994724,43.3846154 C112.406135,43.7244615 54.4229448,77.4993846 52.233681,78.772 C49.7142331,80.2326154 47.97,80.3121538 45.7807362,79.0684615 C44.1513497,78.114 5.77104294,55.6263077 3.7109816,54.5416923 C1.78730061,53.5221538 1.28484663,52.6761538 1.28484663,50.4056923 L1.28484663,42.5313846 C3.33773006,44.7946154 7.11331288,47.5784615 12.3890798,48.3232308 C13.5016564,50.4056923 18.0596319,54.4693846 24.1752147,55.0912308 C25.3380368,57.1809231 29.9534356,61.2446154 36.018773,61.852 C38.0644785,65.0335385 43.1105521,68.4970769 48.9318405,69.0249231 L48.9533742,69.0249231 L48.9533742,69.0249231 L48.9533742,69.0249231 L48.9533742,69.0249231 L48.9533742,69.0249231 C48.9677301,69.0249231 48.9892638,69.0249231 49.0036196,69.0176923 C55.3847853,67.7523077 60.0504294,63.7970769 61.005092,62.2858462 C67.1422086,61.0349231 71.0685276,57.3833846 72.0447239,55.7781538 C78.2392638,54.52 82.1081595,51.0203077 83.0484663,49.4729231 C89.3434969,48.2003077 93.2841718,44.5632308 94.188589,43.0086154 C100.368773,41.7504615 104.252025,38.2073846 105.199509,36.6455385 C110.001534,35.6621538 113.576135,33.0807692 115.435215,31.1646154 L115.435215,39.3426154 L115.428037,39.3426154 Z"/>
    <path fill="#231F20" stroke="#A4C7E2" stroke-width=".5" d="M49.0036196 70.7169231C48.8528834 70.7169231 48.723681 70.8398462 48.723681 70.9989231L48.723681 77.7235385C48.723681 77.8753846 48.8457055 78.0055385 49.0036196 78.0055385 49.1615337 78.0055385 49.2835583 77.8826154 49.2835583 77.7235385L49.2835583 70.9989231C49.2763804 70.8470769 49.1543558 70.7169231 49.0036196 70.7169231zM37.1959509 26.4718462C37.2174847 26.4718462 37.2461963 26.4718462 37.2677301 26.4646154 39.1770552 25.9295385 42.1774233 25.7198462 44.5604908 26.4429231 44.711227 26.4863077 44.8619632 26.4067692 44.9050307 26.2549231 44.9480982 26.1103077 44.8691411 25.9512308 44.7184049 25.9078462 42.2276687 25.1486154 39.112454 25.3727692 37.1169939 25.9223077 36.9662577 25.9656923 36.8801227 26.1175385 36.9231902 26.2621538 36.9662577 26.3850769 37.0739264 26.4718462 37.1959509 26.4718462zM48.7739264 25.9006154C48.6231902 25.9367692 48.5298773 26.0813846 48.558589 26.2332308 48.5944785 26.3850769 48.7380368 26.4790769 48.888773 26.4501538 51.0708589 25.9729231 53.8774233 26.0958462 56.0379755 26.7683077 56.0666871 26.7755385 56.0953988 26.7827692 56.1169325 26.7827692 56.2317791 26.7827692 56.3466258 26.7032308 56.3825153 26.5875385 56.4255828 26.4429231 56.3466258 26.2838462 56.1958896 26.2404615 53.9563804 25.5318462 51.0421472 25.4089231 48.7739264 25.9006154zM60.251411 26.6815385C62.4909202 26.132 65.3620859 26.1898462 67.4077914 26.8261538 67.4365031 26.8333846 67.4652147 26.8406154 67.4867485 26.8406154 67.6015951 26.8406154 67.7164417 26.7610769 67.7523313 26.6453846 67.7953988 26.5007692 67.7164417 26.3416923 67.5728834 26.2983077 65.4123313 25.6258462 62.4837423 25.5607692 60.1222086 26.1464615 59.9714724 26.1826154 59.8853374 26.3344615 59.921227 26.4863077 59.9499387 26.6309231 60.1006748 26.7176923 60.251411 26.6815385zM71.6068712 26.32C71.456135 26.3561538 71.3628221 26.508 71.3987117 26.6526154 71.4346012 26.8044615 71.5853374 26.8912308 71.7288957 26.8623077 73.9468712 26.3272308 76.7749693 26.4429231 78.9211656 27.1515385 78.9498773 27.1587692 78.978589 27.166 79.0073006 27.166 79.1221472 27.166 79.229816 27.0936923 79.2728834 26.9707692 79.3231288 26.8261538 79.2441718 26.6670769 79.0934356 26.6164615 76.8611043 25.8789231 73.9181595 25.7632308 71.6068712 26.32zM82.8044172 27.0286154C85.1803067 26.4356923 88.2955215 26.5586154 90.3914724 27.3323077 90.420184 27.3467692 90.4560736 27.3467692 90.4847853 27.3467692 90.5996319 27.3467692 90.7001227 27.2744615 90.7431902 27.166 90.7934356 27.0213846 90.7216564 26.8623077 90.5780982 26.8044615 88.0155828 25.8572308 84.7568098 25.9584615 82.6680368 26.4790769 82.5173006 26.5152308 82.4311656 26.6670769 82.4670552 26.8189231 82.5101227 26.9707692 82.6608589 27.0647692 82.8044172 27.0286154zM94.3249693 27.2961538C96.528589 26.8333846 99.3925767 26.9996923 101.61773 27.73 101.646442 27.7372308 101.675153 27.7444615 101.703865 27.7444615 101.818712 27.7444615 101.92638 27.6721538 101.969448 27.5492308 102.019693 27.4046154 101.933558 27.2455385 101.79 27.1949231 99.4787117 26.4429231 96.4998773 26.2621538 94.2101227 26.7466154 94.0593865 26.7755385 93.9660736 26.9273846 93.9947853 27.0792308 94.0306748 27.2310769 94.1742331 27.3250769 94.3249693 27.2961538zM48.558589 19.8556923C50.475092 19.3423077 53.4754601 19.1615385 55.8728834 19.9352308 55.9015951 19.9424615 55.9303067 19.9496923 55.9590184 19.9496923 56.073865 19.9496923 56.1887117 19.8773846 56.2246012 19.7544615 56.2676687 19.6098462 56.1887117 19.4507692 56.0451534 19.4073846 53.5400613 18.6047692 50.4104908 18.7855385 48.4222086 19.3206154 48.2714724 19.364 48.1853374 19.5158462 48.2284049 19.6604615 48.2571166 19.8123077 48.4078528 19.8990769 48.558589 19.8556923zM60.0504294 19.3856923C59.8996933 19.4146154 59.8063804 19.5664615 59.835092 19.7110769 59.8638037 19.8629231 60.007362 19.9569231 60.1580982 19.928 62.3688957 19.4724615 65.2257055 19.6315385 67.4221472 20.3256923 67.4508589 20.3329231 67.4795706 20.3401538 67.5082822 20.3401538 67.6231288 20.3401538 67.7379755 20.2606154 67.773865 20.1449231 67.8169325 20.0003077 67.7379755 19.8412308 67.5944172 19.7978462 65.3046626 19.0747692 62.347362 18.9156923 60.0504294 19.3856923zM71.7719632 19.5809231C71.621227 19.6170769 71.5279141 19.7689231 71.5638037 19.9135385 71.5996933 20.0653846 71.7504294 20.1521538 71.8939877 20.1232308 74.126319 19.5881538 76.7965031 19.6532308 78.6842945 20.2895385 78.7130061 20.2967692 78.7417178 20.304 78.7704294 20.304 78.8852761 20.304 78.9929448 20.2316923 79.0360123 20.116 79.0862577 19.9713846 79.0073006 19.8123077 78.8637423 19.7616923 76.8539264 19.082 74.1334969 19.0096923 71.7719632 19.5809231zM83.0628221 20.1955385C85.2807975 19.7833846 88.0730061 19.9713846 90.1833129 20.6872308 90.2120245 20.6944615 90.2407362 20.7016923 90.2694479 20.7016923 90.3842945 20.7016923 90.4919632 20.6293846 90.5350307 20.5136923 90.5852761 20.3690769 90.506319 20.21 90.3627607 20.1593846 88.1376074 19.4073846 85.3023313 19.2121538 82.9623313 19.646 82.8115951 19.6749231 82.7111043 19.8195385 82.739816 19.9713846 82.7685276 20.1232308 82.9120859 20.2172308 83.0628221 20.1955385zM26.4577914 32.8204615C28.7260123 32.2781538 31.6115337 32.3576923 33.6285276 33.0301538 33.6572393 33.0373846 33.6859509 33.0446154 33.7146626 33.0446154 33.8295092 33.0446154 33.9371779 32.9723077 33.9802454 32.8566154 34.0304908 32.712 33.9515337 32.5529231 33.8007975 32.5023077 31.6546012 31.7864615 28.7260123 31.6996923 26.328589 32.2781538 26.1778528 32.3143077 26.0917178 32.4661538 26.1204294 32.6107692 26.1634969 32.7626154 26.3142331 32.8566154 26.4577914 32.8204615zM37.6553374 32.4950769C37.5046012 32.5312308 37.4112883 32.6830769 37.4471779 32.8276923 37.4830675 32.9795385 37.6338037 33.0663077 37.777362 33.0373846 40.031227 32.5023077 42.9167485 32.5890769 45.1203681 33.2687692 45.1490798 33.276 45.1777914 33.2832308 45.1993252 33.2832308 45.3213497 33.2832308 45.4290184 33.2036923 45.464908 33.088 45.5079755 32.9433846 45.4290184 32.7843077 45.2782822 32.7409231 42.9957055 32.0323077 40.0025153 31.9383077 37.6553374 32.4950769zM49.1256442 32.6107692C48.974908 32.6469231 48.888773 32.7987692 48.9246626 32.9506154 48.9605521 33.1024615 49.1112883 33.1892308 49.2620245 33.1530769 51.1713497 32.6613846 54.150184 32.5095385 56.497362 33.2832308 56.5260736 33.2904615 56.5547853 33.2976923 56.5834969 33.2976923 56.6983436 33.2976923 56.8060123 33.2253846 56.8490798 33.1024615 56.8993252 32.9578462 56.8203681 32.7987692 56.6696319 32.7481538 54.2219632 31.9383077 51.1139264 32.0973846 49.1256442 32.6107692zM67.8671779 33.5796923C67.8958896 33.5869231 67.9174233 33.5941538 67.946135 33.5941538 68.0681595 33.5941538 68.1758282 33.5146154 68.2117178 33.3916923 68.2547853 33.2470769 68.1686503 33.088 68.025092 33.0446154 65.7927607 32.3721538 62.8928834 32.242 60.6461963 32.712 60.4954601 32.7409231 60.4021472 32.8927692 60.4308589 33.0446154 60.4595706 33.1964615 60.6103067 33.2904615 60.7610429 33.2615385 62.9215951 32.806 65.7066258 32.9289231 67.8671779 33.5796923zM72.209816 32.9216923C72.0590798 32.9578462 71.9729448 33.1096923 72.0088344 33.2615385 72.0447239 33.4133846 72.1954601 33.5001538 72.3461963 33.464 74.7364417 32.8855385 77.550184 32.994 79.5241104 33.7387692 79.5528221 33.7532308 79.5887117 33.7532308 79.6246012 33.7532308 79.7394479 33.7532308 79.8399387 33.6809231 79.8830061 33.5724615 79.9404294 33.4278462 79.8614724 33.2687692 79.725092 33.2109231 77.6434969 32.43 74.7005521 32.3143077 72.209816 32.9216923zM83.2996933 33.088C83.1489571 33.1169231 83.0556442 33.2687692 83.0843558 33.4206154 83.1130675 33.5724615 83.2638037 33.6664615 83.4145399 33.6375385 85.7042945 33.1603077 88.6257055 33.3483077 90.8652147 34.1075385 90.8939264 34.1147692 90.922638 34.122 90.9513497 34.122 91.0661963 34.122 91.173865 34.0496923 91.2169325 33.934 91.2671779 33.7893846 91.1882209 33.6303077 91.0446626 33.5796923 88.7118405 32.7843077 85.6755828 32.5963077 83.2996933 33.088zM15.3392025 39.2486154C17.5643558 38.634 20.4570552 38.6629231 22.5386503 39.3136923 22.567362 39.3209231 22.5960736 39.3281538 22.6176074 39.3281538 22.732454 39.3281538 22.8473006 39.2486154 22.8831902 39.1329231 22.9262577 38.9883077 22.8473006 38.8292308 22.7037423 38.7858462 20.5360123 38.1061538 17.5141104 38.0772308 15.1956442 38.7207692 15.044908 38.7641538 14.958773 38.916 15.0018405 39.0606154 15.0377301 39.2052308 15.1956442 39.292 15.3392025 39.2486154zM26.5439264 38.8798462C26.3931902 38.916 26.2998773 39.0678462 26.3357669 39.2124615 26.3716564 39.3643077 26.5223926 39.4583077 26.6659509 39.4221538 28.8695706 38.9087692 31.7694479 39.0461538 34.0520245 39.7692308 34.0807362 39.7764615 34.1094479 39.7836923 34.1381595 39.7836923 34.2530061 39.7836923 34.3678528 39.7041538 34.4037423 39.5884615 34.4468098 39.4438462 34.3678528 39.2847692 34.2242945 39.2413846 31.8555828 38.4821538 28.8408589 38.3447692 26.5439264 38.8798462zM38.0573006 39.1401538C37.9065644 39.1835385 37.8204294 39.3353846 37.8634969 39.48 37.9065644 39.6318462 38.0573006 39.7186154 38.2008589 39.6752308 40.117362 39.1546154 43.0961963 38.9521538 45.4505521 39.6824615 45.4792638 39.6896923 45.5079755 39.6969231 45.5295092 39.6969231 45.6443558 39.6969231 45.7592025 39.6173846 45.795092 39.5016923 45.8381595 39.3570769 45.7592025 39.198 45.6156442 39.1546154 43.1536196 38.3881538 40.0455828 38.5978462 38.0573006 39.1401538zM56.9352147 39.9644615C56.9639264 39.9716923 56.992638 39.9789231 57.0141718 39.9789231 57.1290184 39.9789231 57.243865 39.8993846 57.2797546 39.7836923 57.3228221 39.6390769 57.243865 39.48 57.1003067 39.4366154 54.8033742 38.7207692 51.817362 38.6123077 49.4988957 39.1618462 49.3481595 39.198 49.2548466 39.3498462 49.2907362 39.4944615 49.3266258 39.6463077 49.477362 39.7330769 49.6209202 39.7041538 51.8532515 39.1763077 54.7244172 39.2775385 56.9352147 39.9644615zM68.448589 40.138C68.4773006 40.1452308 68.5060123 40.1524615 68.5347239 40.1524615 68.6495706 40.1524615 68.7572393 40.0801538 68.8003067 39.9644615 68.8505521 39.8198462 68.7715951 39.6607692 68.6280368 39.6101538 66.4674847 38.8726154 63.3881595 38.7569231 60.9763804 39.3281538 60.8256442 39.3643077 60.7323313 39.5161538 60.7682209 39.6607692 60.8041104 39.8126154 60.9548466 39.9066154 61.0984049 39.8704615 63.4240491 39.3209231 66.3813497 39.4293846 68.448589 40.138zM80.0911656 39.8704615C77.808589 39.1184615 74.8010429 39.0027692 72.4251534 39.5812308 72.2744172 39.6173846 72.1882822 39.7692308 72.2241718 39.9210769 72.2600613 40.0729231 72.4107975 40.1596923 72.5615337 40.1235385 74.8441104 39.5667692 77.7296319 39.6824615 79.9260736 40.4055385 79.9547853 40.4127692 79.9834969 40.42 80.0122086 40.42 80.1270552 40.42 80.2347239 40.3476923 80.2777914 40.2247692 80.3208589 40.0729231 80.2419018 39.9210769 80.0911656 39.8704615zM34.6693252 45.6550769C32.5303067 44.9247692 29.580184 44.8307692 27.1468712 45.4092308 26.996135 45.4453846 26.91 45.5972308 26.9387117 45.7418462 26.9746012 45.8936923 27.1253374 45.9876923 27.2688957 45.9515385 29.5658282 45.402 32.4657055 45.4887692 34.4826994 46.1829231 34.511411 46.1901538 34.5401227 46.1973846 34.5688344 46.1973846 34.683681 46.1973846 34.7913497 46.1250769 34.8272393 46.0093846 34.8918405 45.8647692 34.8128834 45.7056923 34.6693252 45.6550769zM45.9386503 46.3564615C45.967362 46.3636923 45.9888957 46.3709231 46.0176074 46.3709231 46.1396319 46.3709231 46.2473006 46.2913846 46.2831902 46.1756923 46.3262577 46.0310769 46.2473006 45.872 46.0965644 45.8286154 43.8426994 45.1416923 40.8782209 45.0476923 38.5453988 45.5827692 38.3946626 45.6189231 38.3013497 45.7635385 38.3372393 45.9153846 38.3731288 46.0672308 38.523865 46.1612308 38.6674233 46.1250769 40.9212883 45.6044615 43.7709202 45.6912308 45.9386503 46.3564615zM50.2023313 46.1829231C52.1619018 45.7056923 55.1766258 45.5972308 57.4807362 46.4287692 57.5094479 46.4432308 57.5453374 46.4432308 57.5740491 46.4432308 57.6888957 46.4432308 57.7965644 46.3709231 57.832454 46.2552308 57.8826994 46.1106154 57.8109202 45.9515385 57.667362 45.9009231 55.2484049 45.026 52.1116564 45.1416923 50.0731288 45.6333846 49.9223926 45.6695385 49.8362577 45.8213846 49.8721472 45.9732308 49.9008589 46.1323077 50.0515951 46.2190769 50.2023313 46.1829231zM68.8936196 46.1973846C66.6469325 45.496 63.7255215 45.3369231 61.4573006 45.7852308 61.3065644 45.8141538 61.2132515 45.9587692 61.2419632 46.1106154 61.2706748 46.2624615 61.4142331 46.3636923 61.5649693 46.3275385 63.7470552 45.8864615 66.5607975 46.0455385 68.7285276 46.7252308 68.7572393 46.7324615 68.7859509 46.7396923 68.8074847 46.7396923 68.9223313 46.7396923 69.0371779 46.6601538 69.0730675 46.5444615 69.1233129 46.3998462 69.0443558 46.2407692 68.8936196 46.1973846zM46.4123926 52.3363077C44.2733742 51.6493846 41.3088957 51.6204615 38.861227 52.264 38.7104908 52.3001538 38.6243558 52.452 38.6602454 52.6038462 38.696135 52.7556923 38.8468712 52.8424615 38.9976074 52.8063077 40.9284663 52.3001538 43.9144785 52.1193846 46.2401227 52.8713846 46.2688344 52.8786154 46.297546 52.8858462 46.3262577 52.8858462 46.4411043 52.8858462 46.5559509 52.8135385 46.5918405 52.6906154 46.6420859 52.5387692 46.5631288 52.3796923 46.4123926 52.3363077zM58.0262577 52.7123077C55.7006135 51.9313846 52.6571779 51.7650769 50.2741104 52.2929231 50.1233742 52.3290769 50.0300613 52.4736923 50.0659509 52.6255385 50.1018405 52.7773846 50.2453988 52.8713846 50.396135 52.8352308 52.6858896 52.3290769 55.6144785 52.4881538 57.8539877 53.2401538 57.8826994 53.2473846 57.911411 53.2546154 57.9401227 53.2546154 58.0549693 53.2546154 58.162638 53.1823077 58.2057055 53.0666154 58.248773 52.922 58.1769939 52.7629231 58.0262577 52.7123077zM59.5479755 13.3913846C61.8161963 12.8129231 64.7447853 12.8563077 66.8407362 13.5070769 66.8694479 13.5143077 66.8981595 13.5215385 66.9196933 13.5215385 67.0345399 13.5215385 67.1493865 13.442 67.1852761 13.3263077 67.2283436 13.1816923 67.1493865 13.0226154 67.0058282 12.9792308 64.8237423 12.2995385 61.7731288 12.2489231 59.4115951 12.8563077 59.2608589 12.8924615 59.1747239 13.0443077 59.2106135 13.1961538 59.2465031 13.3407692 59.3972393 13.4275385 59.5479755 13.3913846zM71.0541718 13.5504615C73.2865031 12.9936923 76.1433129 13.1021538 78.3469325 13.818 78.3756442 13.8252308 78.4043558 13.8324615 78.4330675 13.8324615 78.5479141 13.8324615 78.6555828 13.7601538 78.6986503 13.6372308 78.7488957 13.4926154 78.6627607 13.3335385 78.5192025 13.2829231 76.2294479 12.5381538 73.2506135 12.4296923 70.9249693 13.0081538 70.7742331 13.0443077 70.6880982 13.1961538 70.7239877 13.348 70.7598773 13.4998462 70.9106135 13.5866154 71.0541718 13.5504615zM47.0584049 21.7067692C46.9076687 21.7429231 46.8215337 21.8947692 46.8574233 22.0466154 47.0799387 22.9793846 47.1230061 24.1218462 46.9722699 25.1124615 46.9507362 25.2643077 47.051227 25.4089231 47.2019632 25.4306154L47.2450307 25.4306154C47.381411 25.4306154 47.4962577 25.3293846 47.5177914 25.192 47.6828834 24.1146154 47.639816 22.9143077 47.3957669 21.902 47.3598773 21.7573846 47.2091411 21.6706154 47.0584049 21.7067692zM47.1876074 28.1855385C47.0440491 28.2289231 46.9579141 28.388 47.0081595 28.5326154 47.3311656 29.5449231 47.4460123 30.8030769 47.3168098 31.9021538 47.302454 32.054 47.4101227 32.1913846 47.5608589 32.2130769L47.5895706 32.2130769C47.7259509 32.2130769 47.8479755 32.1118462 47.8623313 31.9672308 47.9987117 30.7958462 47.8766871 29.4509231 47.5321472 28.3663077 47.4890798 28.2216923 47.3311656 28.1421538 47.1876074 28.1855385zM47.7403067 35.0764615C47.5895706 35.1198462 47.5034356 35.2716923 47.5465031 35.4163077 47.8120859 36.378 47.8910429 37.5276923 47.7546626 38.4893846 47.7331288 38.6412308 47.8407975 38.7858462 47.9915337 38.8075385L48.0274233 38.8075385C48.1638037 38.8075385 48.2786503 38.7063077 48.300184 38.5689231 48.4509202 37.5204615 48.3647853 36.3129231 48.0776687 35.2716923 48.0417791 35.1270769 47.8910429 35.0403077 47.7403067 35.0764615zM48.386319 45.1416923L48.4150307 45.1416923C48.558589 45.1416923 48.6734356 45.0332308 48.6877914 44.8886154 48.7954601 43.8256923 48.6877914 42.6543077 48.4006748 41.6781538 48.3576074 41.5335385 48.1996933 41.4467692 48.056135 41.4901538 47.9125767 41.5335385 47.8264417 41.6926154 47.8695092 41.8372308 48.1422699 42.7410769 48.2355828 43.8329231 48.135092 44.8307692 48.1279141 44.9898462 48.2355828 45.1272308 48.386319 45.1416923zM48.7165031 51.8735385L48.7595706 51.8735385C48.8959509 51.8735385 49.0107975 51.7723077 49.0323313 51.6349231 49.1902454 50.5213846 49.1112883 49.2270769 48.809816 48.1713846 48.7667485 48.0267692 48.6160123 47.94 48.4652761 47.9833846 48.3217178 48.0267692 48.2355828 48.1786154 48.2786503 48.3304615 48.558589 49.3138462 48.637546 50.5213846 48.4868098 51.5626154 48.4652761 51.7072308 48.5657669 51.8518462 48.7165031 51.8735385zM49.1328221 58.5258462L49.1615337 58.5258462C49.2979141 58.5258462 49.4199387 58.4173846 49.4342945 58.2727692 49.5491411 57.1375385 49.4342945 55.8721538 49.1041104 54.8164615 49.0610429 54.6718462 48.9031288 54.5850769 48.7595706 54.6356923 48.6160123 54.6790769 48.5298773 54.8381538 48.5801227 54.9827692 48.8815951 55.9589231 48.9964417 57.1664615 48.888773 58.2149231 48.8672393 58.374 48.9820859 58.5113846 49.1328221 58.5258462zM58.0477914 15.1556923C57.9042331 15.1990769 57.8180982 15.3581538 57.8683436 15.5027692 58.1554601 16.4355385 58.2631288 17.5707692 58.162638 18.5469231 58.1482822 18.6987692 58.2559509 18.8361538 58.4066871 18.8506154L58.4353988 18.8506154C58.5717791 18.8506154 58.6938037 18.7421538 58.7081595 18.5975385 58.8158282 17.5346154 58.7009816 16.3415385 58.3923313 15.3292308 58.3492638 15.1918462 58.1913497 15.1050769 58.0477914 15.1556923zM58.4210429 21.8007692C58.2703067 21.8369231 58.1841718 21.9887692 58.2200613 22.1406154 58.4569325 23.1095385 58.5 24.3315385 58.334908 25.4016923 58.3133742 25.5535385 58.413865 25.6981538 58.5646012 25.7198462L58.6076687 25.7198462C58.7440491 25.7198462 58.8588957 25.6186154 58.8804294 25.4812308 59.0598773 24.3170769 59.0168098 23.0516923 58.7584049 22.0032308 58.7225153 21.8513846 58.5717791 21.7573846 58.4210429 21.8007692zM58.6866258 28.5470769C58.5430675 28.5904615 58.4569325 28.7423077 58.4928221 28.8941538 58.7584049 29.8413846 58.8517178 30.9838462 58.7296933 31.96 58.7081595 32.1118462 58.8158282 32.2492308 58.9737423 32.2709231L59.0096319 32.2709231C59.1460123 32.2709231 59.2680368 32.1696923 59.2823926 32.0250769 59.4115951 30.9693846 59.3182822 29.7690769 59.0311656 28.7350769 58.9880982 28.5904615 58.837362 28.5036923 58.6866258 28.5470769zM59.3685276 38.8653846L59.3972393 38.8653846C59.5336196 38.8653846 59.6556442 38.7569231 59.67 38.6195385 59.7920245 37.506 59.6843558 36.2767692 59.3685276 35.25 59.3254601 35.1053846 59.167546 35.0186154 59.0239877 35.062 58.8804294 35.1053846 58.7942945 35.2644615 58.837362 35.4090769 59.1316564 36.3707692 59.2321472 37.5204615 59.1173006 38.5544615 59.1101227 38.7135385 59.2177914 38.8509231 59.3685276 38.8653846zM59.4977301 41.6709231C59.3541718 41.7143077 59.2680368 41.8661538 59.3039264 42.018 59.5551534 42.9073846 59.6412883 43.9630769 59.5336196 44.9103077 59.5192638 45.0621538 59.6269325 45.1995385 59.7776687 45.2212308L59.8063804 45.2212308C59.9427607 45.2212308 60.0647853 45.1127692 60.0791411 44.9753846 60.1939877 43.9558462 60.1006748 42.8278462 59.8279141 41.8661538 59.7992025 41.7143077 59.6484663 41.6275385 59.4977301 41.6709231zM69.2955828 8.87938462C69.1448466 8.92276923 69.0587117 9.07461538 69.1017791 9.21923077 69.3314724 10.0869231 69.4032515 11.1209231 69.2955828 12.0464615 69.281227 12.1983077 69.3888957 12.3356923 69.5396319 12.3573846L69.5683436 12.3573846C69.7047239 12.3573846 69.8267485 12.2489231 69.8411043 12.1115385 69.9559509 11.1136923 69.8769939 10.0073846 69.6257669 9.07461538 69.5898773 8.93 69.4391411 8.836 69.2955828 8.87938462zM69.5468098 15.3798462C69.4032515 15.4232308 69.3171166 15.5823077 69.360184 15.7269231 69.6401227 16.6741538 69.7477914 17.8021538 69.6544785 18.8289231 69.6401227 18.9807692 69.7549693 19.1181538 69.9057055 19.1326154L69.9344172 19.1326154C70.0779755 19.1326154 70.1928221 19.0241538 70.2071779 18.8795385 70.3076687 17.7876923 70.1928221 16.5801538 69.8913497 15.5678462 69.8482822 15.4232308 69.6903681 15.3364615 69.5468098 15.3798462zM69.948773 21.9236923C69.7980368 21.9670769 69.7119018 22.1189231 69.7549693 22.2635385 70.0061963 23.2107692 70.0564417 24.4110769 69.8985276 25.4667692 69.8769939 25.6186154 69.9774847 25.7632308 70.1282209 25.7849231L70.1712883 25.7849231C70.3076687 25.7849231 70.4225153 25.6836923 70.4440491 25.5463077 70.616319 24.4110769 70.5588957 23.1312308 70.286135 22.1116923 70.2502454 21.9670769 70.0923313 21.8803077 69.948773 21.9236923zM70.0851534 28.5904615C69.9415951 28.6410769 69.862638 28.7929231 69.9057055 28.9447692 70.2071779 29.8847692 70.3292025 31.0706154 70.2287117 32.1190769 70.2143558 32.2709231 70.3292025 32.4083077 70.4799387 32.4227692L70.5086503 32.4227692C70.6522086 32.4227692 70.7670552 32.3143077 70.781411 32.1696923 70.8890798 31.0344615 70.7598773 29.798 70.4368712 28.7712308 70.3866258 28.6266154 70.2287117 28.5470769 70.0851534 28.5904615zM70.9106135 39.1763077L70.9465031 39.1763077C71.0828834 39.1763077 71.204908 39.0750769 71.2192638 38.9304615 71.3628221 37.8096923 71.2407975 36.5009231 70.9106135 35.4307692 70.867546 35.2861538 70.7096319 35.1993846 70.5660736 35.25 70.4225153 35.2933846 70.3363804 35.4524615 70.3866258 35.5970769 70.6952761 36.5949231 70.8029448 37.8169231 70.6737423 38.8581538 70.6522086 39.0172308 70.7598773 39.1546154 70.9106135 39.1763077zM71.2479755 45.6044615L71.283865 45.6044615C71.4202454 45.6044615 71.5422699 45.5032308 71.5566258 45.3586154 71.6858282 44.2378462 71.5853374 43.0158462 71.2766871 42.0107692 71.2336196 41.8661538 71.0757055 41.7793846 70.9321472 41.83 70.788589 41.8733846 70.702454 42.0324615 70.7526994 42.1770769 71.039816 43.1098462 71.1331288 44.2450769 71.0111043 45.2935385 70.9895706 45.4453846 71.0972393 45.5827692 71.2479755 45.6044615zM80.7874233 15.51C80.643865 15.5533846 80.5577301 15.7052308 80.6007975 15.8570769 80.8663804 16.7753846 80.9596933 17.8455385 80.8663804 18.8 80.8520245 18.9518462 80.9596933 19.0892308 81.1104294 19.1036923L81.1391411 19.1036923C81.2826994 19.1036923 81.397546 18.9952308 81.4119018 18.8506154 81.5123926 17.8238462 81.4119018 16.6741538 81.1319632 15.698 81.0817178 15.5533846 80.9309816 15.4666154 80.7874233 15.51zM81.2109202 26.0886154C81.2252761 26.0886154 81.2396319 26.0958462 81.2539877 26.0958462 81.3903681 26.0958462 81.5052147 26.0018462 81.5267485 25.8644615 81.734908 24.6207692 81.6846626 23.2324615 81.397546 22.1478462 81.3544785 21.996 81.2037423 21.9092308 81.060184 21.9526154 80.9094479 21.996 80.8233129 22.1478462 80.8663804 22.2924615 81.1319632 23.3047692 81.1822086 24.6063077 80.9884049 25.7776923 80.9596933 25.9223077 81.060184 26.0669231 81.2109202 26.0886154zM81.318589 28.764C81.1750307 28.8073846 81.0888957 28.9664615 81.1391411 29.1110769 81.4477914 30.1233846 81.5554601 31.3526154 81.4262577 32.3938462 81.4047239 32.5456923 81.5123926 32.6830769 81.6631288 32.7047692L81.6990184 32.7047692C81.8353988 32.7047692 81.9574233 32.6035385 81.9717791 32.4589231 82.1153374 31.3453846 82.0004908 30.0293846 81.6703067 28.9447692 81.6200613 28.8001538 81.4621472 28.7133846 81.318589 28.764zM81.8066871 35.5898462C81.6631288 35.6332308 81.5769939 35.7850769 81.6200613 35.9369231 81.9 36.8841538 82.0004908 37.9832308 81.9071779 38.9521538 81.8928221 39.104 82.0004908 39.2413846 82.1584049 39.2558462L82.1871166 39.2558462C82.3306748 39.2558462 82.4455215 39.1473846 82.4598773 39.0027692 82.5603681 37.9615385 82.4455215 36.7829231 82.151227 35.7778462 82.1009816 35.626 81.9502454 35.5464615 81.8066871 35.5898462zM92.5017791 22.2418462C92.3510429 22.2852308 92.264908 22.4370769 92.3079755 22.5816923 92.5735583 23.5867692 92.6309816 24.8883077 92.4587117 25.9801538 92.4371779 26.132 92.5376687 26.2766154 92.6884049 26.2983077 92.7027607 26.2983077 92.7171166 26.3055385 92.7314724 26.3055385 92.8678528 26.3055385 92.9826994 26.2115385 93.0042331 26.0741538 93.1980368 24.8955385 93.1334356 23.5361538 92.846319 22.4443077 92.8032515 22.2924615 92.6453374 22.2056923 92.5017791 22.2418462zM92.7099387 29.0315385C92.5663804 29.0821538 92.4874233 29.234 92.5304908 29.3858462 92.8391411 30.3475385 92.9683436 31.5478462 92.8750307 32.5818462 92.8606748 32.7336923 92.9755215 32.8710769 93.1262577 32.8855385L93.1477914 32.8855385C93.2913497 32.8855385 93.4133742 32.7770769 93.4205521 32.6324615 93.5210429 31.5044615 93.3846626 30.2607692 93.0544785 29.2123077 93.011411 29.0676923 92.8606748 28.9881538 92.7099387 29.0315385zM24.821227 34.592C24.6776687 34.6353846 24.5915337 34.7944615 24.6417791 34.9390769 24.9504294 35.9369231 25.0509202 37.1444615 24.9145399 38.164 24.8930061 38.3158462 25.0006748 38.4604615 25.151411 38.4749231L25.1873006 38.4749231C25.323681 38.4749231 25.4457055 38.3736923 25.4600613 38.2363077 25.6107975 37.1372308 25.4959509 35.8429231 25.1657669 34.7655385 25.1226994 34.6281538 24.9647853 34.5486154 24.821227 34.592zM25.2231902 41.1936923C25.0796319 41.2370769 24.9934969 41.3889231 25.0293865 41.5407692 25.2877914 42.4590769 25.3739264 43.5653846 25.2590798 44.5704615 25.2447239 44.7223077 25.3523926 44.8596923 25.5031288 44.8813846L25.5318405 44.8813846C25.6682209 44.8813846 25.7902454 44.7729231 25.8046012 44.6355385 25.9194479 43.5581538 25.8333129 42.3723077 25.5533742 41.3889231 25.5246626 41.2370769 25.3739264 41.1503077 25.2231902 41.1936923zM35.8321472 28.3663077C35.688589 28.4096923 35.602454 28.5615385 35.6383436 28.7133846 35.9111043 29.6678462 35.9972393 30.8103077 35.8823926 31.772 35.8608589 31.9238462 35.9685276 32.0612308 36.1264417 32.0829231L36.1623313 32.0829231C36.2987117 32.0829231 36.4207362 31.9816923 36.435092 31.8370769 36.5642945 30.7886154 36.4638037 29.5955385 36.1766871 28.5543077 36.1336196 28.4096923 35.9828834 28.3229231 35.8321472 28.3663077zM36.1695092 34.7872308C36.0259509 34.8306154 35.939816 34.9896923 35.9900613 35.1343077 36.2987117 36.1104615 36.4135583 37.3324615 36.2987117 38.4026154 36.2843558 38.5544615 36.3920245 38.6918462 36.5427607 38.7135385L36.5714724 38.7135385C36.7078528 38.7135385 36.8298773 38.6050769 36.8442331 38.4676923 36.9662577 37.3252308 36.8442331 36.0236923 36.5140491 34.968 36.4709816 34.8161538 36.3202454 34.7366154 36.1695092 34.7872308zM36.9734356 44.8813846L37.0021472 44.8813846C37.1457055 44.8813846 37.2605521 44.7729231 37.274908 44.6283077 37.3610429 43.6666154 37.274908 42.6036923 37.023681 41.7070769 36.9806135 41.5624615 36.8298773 41.4756923 36.6791411 41.5118462 36.5355828 41.5552308 36.4494479 41.7070769 36.4853374 41.8589231 36.7150307 42.6904615 36.8011656 43.6810769 36.7222086 44.5776923 36.7078528 44.7295385 36.8226994 44.8669231 36.9734356 44.8813846zM37.2390184 51.9241538L37.274908 51.9241538C37.4112883 51.9241538 37.5333129 51.8229231 37.5476687 51.6783077 37.7055828 50.4635385 37.5907362 49.0824615 37.2461963 47.9906154 37.2031288 47.846 37.0452147 47.7592308 36.9016564 47.8098462 36.7580982 47.8532308 36.6719632 48.0123077 36.7222086 48.1569231 37.0452147 49.1764615 37.1457055 50.4635385 37.0021472 51.5987692 36.9806135 51.7650769 37.0882822 51.9024615 37.2390184 51.9241538zM49.0251534 82.7489231C48.8744172 82.7489231 48.7452147 82.8718462 48.7452147 83.0309231L48.7452147 90.8618462C48.7452147 91.0136923 48.8672393 91.1438462 49.0251534 91.1438462 49.1830675 91.1438462 49.305092 91.0209231 49.305092 90.8618462L49.305092 83.0309231C49.2979141 82.8718462 49.1758896 82.7489231 49.0251534 82.7489231zM59.8566258 52.1772308L59.8925153 52.1772308C60.0288957 52.1772308 60.1509202 52.076 60.1652761 51.9313846 60.2801227 50.948 60.258589 49.2993846 59.9930061 48.1858462 59.9571166 48.034 59.8063804 47.9472308 59.6628221 47.9833846 59.5120859 48.0195385 59.4259509 48.1713846 59.4618405 48.316 59.7058896 49.3283077 59.7346012 50.9118462 59.6197546 51.8663077 59.5982209 52.0181538 59.7058896 52.1555385 59.8566258 52.1772308z"/>
  </g>
</svg>
