<svg xmlns="http://www.w3.org/2000/svg" width="66" height="87" viewBox="0 0 66 87">
  <g fill="none" fill-rule="evenodd" transform="translate(0 1)">
    <path fill="#DAE6F0" fill-rule="nonzero" d="M26.7807692 4.15348148L18.9496154 4.15348148 18.9496154 19.2703704 26.7807692 19.2703704C29.5857692 19.2703704 31.8576923 16.9897778 31.8576923 14.1740741L31.8576923 9.24977778C31.8576923 6.44044444 29.5857692 4.15348148 26.7807692 4.15348148zM54.7038462 4.15348148L46.8726923 4.15348148 46.8726923 19.2703704 54.7038462 19.2703704C57.5088462 19.2703704 59.7807692 16.9897778 59.7807692 14.1740741L59.7807692 9.24977778C59.7807692 6.44044444 57.5088462 4.15348148 54.7038462 4.15348148z"/>
    <path stroke="#A4C7E2" stroke-width="1.28" d="M11.1184615 4.15348148L26.7807692 4.15348148C29.5857692 4.15348148 31.8576923 6.43407407 31.8576923 9.24977778L31.8576923 14.1740741C31.8576923 16.9897778 29.5857692 19.2703704 26.7807692 19.2703704L11.1184615 19.2703704C8.31346154 19.2703704 6.04153846 16.9897778 6.04153846 14.1740741L6.04153846 9.24977778C6.04153846 6.44044444 8.31980769 4.15348148 11.1184615 4.15348148zM39.0415385 4.15348148L54.7038462 4.15348148C57.5088462 4.15348148 59.7807692 6.43407407 59.7807692 9.24977778L59.7807692 14.1740741C59.7807692 16.9897778 57.5088462 19.2703704 54.7038462 19.2703704L39.0415385 19.2703704C36.2365385 19.2703704 33.9646154 16.9897778 33.9646154 14.1740741L33.9646154 9.24977778C33.9646154 6.44044444 36.2428846 4.15348148 39.0415385 4.15348148z"/>
    <path stroke="#A4C7E2" stroke-width="1.28" d="M2.77326923,80.2475556 L2.77326923,3.58651852 C2.77326923,1.8282963 4.19480769,0.401333333 5.94634615,0.401333333 L59.8759615,0.401333333 C61.6275,0.401333333 63.0490385,1.8282963 63.0490385,3.58651852 L63.0490385,80.2411852 C63.0490385,81.9994074 61.6275,83.4263704 59.8759615,83.4263704 L5.94634615,83.4263704 C4.19480769,83.4327407 2.77326923,82.0057778 2.77326923,80.2475556 Z"/>
    <path fill="#FFF" fill-rule="nonzero" d="M5.31173077,85.3438519 C2.86211538,85.3438519 0.869423077,83.3435556 0.869423077,80.8845926 L0.869423077,22.066963 C0.869423077,19.608 2.86211538,17.6077037 5.31173077,17.6077037 L60.5105769,17.6077037 C62.9601923,17.6077037 64.9528846,19.608 64.9528846,22.066963 L64.9528846,80.8845926 C64.9528846,83.3435556 62.9601923,85.3438519 60.5105769,85.3438519 L5.31173077,85.3438519 Z"/>
    <path fill="#A4C7E2" fill-rule="nonzero" d="M60.5105769,18.2383704 C62.6111538,18.2383704 64.3182692,19.952 64.3182692,22.0605926 L64.3182692,80.8782222 C64.3182692,82.9868148 62.6111538,84.7004444 60.5105769,84.7004444 L5.31173077,84.7004444 C3.21115385,84.7004444 1.50403846,82.9868148 1.50403846,80.8782222 L1.50403846,22.0605926 C1.50403846,19.952 3.21115385,18.2383704 5.31173077,18.2383704 L60.5105769,18.2383704 L60.5105769,18.2383704 Z M60.5105769,16.9642963 L5.31173077,16.9642963 C2.51307692,16.9642963 0.234807692,19.2512593 0.234807692,22.0605926 L0.234807692,80.8782222 C0.234807692,83.6875556 2.51307692,85.9745185 5.31173077,85.9745185 L60.5105769,85.9745185 C63.3092308,85.9745185 65.5875,83.6875556 65.5875,80.8782222 L65.5875,22.0605926 C65.5875,19.2512593 63.3092308,16.9642963 60.5105769,16.9642963 L60.5105769,16.9642963 Z"/>
    <path fill="#DAE6F0" fill-rule="nonzero" d="M60.5105769,19.5124444 L32.9111538,19.5124444 L32.9111538,83.4263704 L60.5105769,83.4263704 C61.9130769,83.4263704 63.0490385,82.2860741 63.0490385,80.8782222 L63.0490385,22.0605926 C63.0490385,20.6591111 61.9130769,19.5124444 60.5105769,19.5124444 Z"/>
  </g>
</svg>
