<svg xmlns="http://www.w3.org/2000/svg" width="71" height="66" viewBox="0 0 71 66">
  <g fill="none" fill-rule="evenodd">
    <path d="M53.4092784 53.8879121L53.4092784 53.8879121C53.4597938 54.2723077 53.8134021 54.5479121 54.1886598 54.4971429L54.1886598 54.4971429C54.571134 54.4463736 54.8453608 54.090989 54.7948454 53.7138462L54.7948454 53.7138462C54.7443299 53.3294505 54.3907216 53.0538462 54.0154639 53.1046154L54.0154639 53.1046154C53.6329897 53.1481319 53.3587629 53.5035165 53.4092784 53.8879121zM56.6061856 50.8417582L56.6061856 50.8417582C56.6783505 51.4074725 57.1979381 51.8063736 57.7608247 51.7338462L57.7608247 51.7338462C58.3237113 51.6613187 58.7206186 51.1391209 58.6484536 50.5734066L58.6484536 50.5734066C58.5762887 50.0076923 58.056701 49.6087912 57.4938144 49.6813187L57.4938144 49.6813187C56.9381443 49.7538462 56.5340206 50.276044 56.6061856 50.8417582z"/>
    <path fill="#A4C7E2" fill-rule="nonzero" d="M58.143299,50.7184615 C58.1505155,50.7692308 58.1505155,50.8272527 58.1505155,50.8852747 C58.1505155,51.0810989 58.1,51.1246154 58.0783505,51.1463736 C57.9917526,51.2261538 57.7608247,51.3059341 57.4649485,51.2769231 C57.0824742,51.2406593 56.8226804,51.0593407 56.8082474,50.9505495 C56.8082474,50.936044 56.8082474,50.8997802 56.8154639,50.849011 C56.8515464,50.6024176 56.9525773,50.4356044 57.1185567,50.3268132 C57.2989691,50.2107692 57.5587629,50.1817582 57.7752577,50.247033 C58.056701,50.3340659 58.1216495,50.5443956 58.143299,50.7184615 L58.143299,50.7184615 Z M59.5721649,50.5298901 C59.456701,49.6305495 58.8793814,49.0720879 58.1938144,48.8617582 C57.0608247,48.5136264 55.6175258,49.0865934 55.3865979,50.6241758 C55.357732,50.8054945 55.357732,50.9723077 55.3793814,51.1246154 C55.5020619,52.0674725 56.4041237,52.6259341 57.342268,52.7057143 C58.4391753,52.8072527 59.5865979,52.2487912 59.6010309,50.8925275 C59.5938144,50.7692308 59.5865979,50.6459341 59.5721649,50.5298901 L59.5721649,50.5298901 Z"/>
    <path fill="#010101" d="M48.6463918 53.6920879C48.5886598 53.7138462 48.5381443 53.7283516 48.5020619 53.7428571 48.5309278 53.7283516 48.5814433 53.7138462 48.6463918 53.6920879zM49.3103093 53.4454945C49.3896907 53.4164835 49.3752577 53.4237363 49.3103093 53.4454945L49.3103093 53.4454945zM48.8917526 53.5978022C48.8051546 53.6268132 48.7185567 53.6630769 48.6463918 53.6920879 48.7113402 53.6630769 48.7907216 53.6340659 48.8917526 53.5978022zM48.8917526 53.5978022C48.9061856 53.5905495 48.9134021 53.5905495 48.9278351 53.5832967 48.9494845 53.576044 48.9639175 53.5687912 48.985567 53.5615385 48.956701 53.576044 48.9206186 53.5832967 48.8917526 53.5978022z"/>
    <path fill="#DAE6F0" fill-rule="nonzero" d="M1.59484536,29.0182418 C1.59484536,29.0182418 7.20206186,21.7582418 16.5041237,18.3421978 C22.2701031,16.2171429 37.0783505,13.4103297 36.414433,9.58813187 C27.285567,-1.33450549 17.0670103,8.10131868 17.0670103,8.10131868 L6.92783505,18.567033 L1.83298969,22.44 C1.83298969,22.44 0.548453608,27.176044 1.59484536,29.0182418 Z"/>
    <path d="M30.3020619 2.05252747L30.3020619 2.05252747C30.2371134 1.67538462 30.4896907 1.30549451 30.8721649 1.24021978L30.8721649 1.24021978C31.2474227 1.17494505 31.6154639 1.42879121 31.6804124 1.81318681L31.6804124 1.81318681C31.7453608 2.19032967 31.4927835 2.56021978 31.1103093 2.62549451L31.1103093 2.62549451C30.7278351 2.69076923 30.3670103 2.42967033 30.3020619 2.05252747zM34.2494845 4.01076923L34.2494845 4.01076923C34.1556701 3.45230769 34.5309278 2.90835165 35.0865979 2.81406593L35.0865979 2.81406593C35.642268 2.71978022 36.1835052 3.09692308 36.2773196 3.65538462L36.2773196 3.65538462C36.371134 4.21384615 35.9958763 4.7578022 35.4402062 4.85208791L35.4402062 4.85208791C34.8845361 4.94637363 34.3505155 4.56923077 34.2494845 4.01076923zM37.828866 7.20197802L37.828866 7.20197802C37.7061856 6.51296703 38.1752577 5.85296703 38.8536082 5.72967033L38.8536082 5.72967033C39.5391753 5.60637363 40.1958763 6.0778022 40.3185567 6.75956044L40.3185567 6.75956044C40.4412371 7.44857143 39.9721649 8.10857143 39.2938144 8.23186813L39.2938144 8.23186813C38.6082474 8.35516484 37.9515464 7.89098901 37.828866 7.20197802z"/>
    <path fill="#A4C7E2" fill-rule="nonzero" d="M35.7505155 3.67714286C35.7793814 3.84395604 35.7793814 4.06153846 35.5340206 4.2356044 35.3463918 4.36615385 35.0938144 4.40967033 34.8845361 4.35164835 34.6969072 4.30087912 34.5525773 4.17032967 34.4443299 3.94549451 34.4226804 3.90197802 34.4154639 3.87296703 34.4082474 3.85120879 34.3865979 3.74241758 34.5886598 3.48857143 34.942268 3.34351648 35.2164948 3.22747253 35.4618557 3.23472527 35.5701031 3.28549451 35.5917526 3.3 35.656701 3.32901099 35.714433 3.51032967 35.728866 3.56835165 35.743299 3.62637363 35.7505155 3.67714286L35.7505155 3.67714286zM37.1721649 3.4232967C37.1505155 3.30725275 37.1216495 3.19120879 37.085567 3.06791209 36.6742268 1.76967033 35.4113402 1.5810989 34.3938144 2.00175824 33.5206186 2.35714286 32.8278351 3.1621978 32.9865979 4.0978022 33.0154639 4.25736264 33.0659794 4.41692308 33.1453608 4.57648352 33.8237113 5.97626374 35.3680412 6.09956044 36.3494845 5.43230769 36.9412371 5.0189011 37.3309278 4.31538462 37.1721649 3.4232967L37.1721649 3.4232967zM40.1670103 6.65076923C40.1958763 6.80307692 40.2030928 6.96989011 40.2030928 7.1367033 40.1742268 7.28901099 39.871134 7.74593407 39.3876289 7.94901099 39.1494845 8.0432967 38.8319588 8.1810989 38.4278351 7.36153846 38.3917526 7.28175824 38.3628866 7.20923077 38.3484536 7.1367033 38.3340206 7.04241758 38.3268041 6.89010989 38.4783505 6.67978022 38.6876289 6.38967033 39.0773196 6.15032967 39.4597938 6.08505495 39.9072165 6.01978022 40.0804124 6.15758242 40.1670103 6.65076923L40.1670103 6.65076923zM41.5886598 6.40417582C41.3360825 4.93912088 40.2752577 4.48945055 39.228866 4.66351648 37.9515464 4.87384615 36.6958763 6.01252747 36.9340206 7.39054945 36.9701031 7.59362637 37.0350515 7.80395604 37.143299 8.01428571 37.8793814 9.5010989 38.9979381 9.68241758 39.943299 9.29802198 40.8814433 8.91362637 41.6391753 7.95626374 41.6536082 7.18747253 41.6463918 6.89736264 41.6247423 6.63626374 41.5886598 6.40417582L41.5886598 6.40417582zM44.3742268 11.2707692C44.4103093 11.4593407 44.5041237 12.0395604 43.7247423 12.4457143 43.2195876 12.7068132 42.5628866 12.7503297 42.1587629 12.5545055 41.9639175 12.452967 41.8628866 12.3151648 41.8195876 12.0830769 41.8051546 11.9887912 41.7979381 11.88 41.8051546 11.763956 41.8412371 10.9443956 42.4762887 10.4512088 43.0824742 10.3351648 43.5443299 10.2481319 44.1360825 10.3206593 44.3453608 11.161978 44.3597938 11.1982418 44.3670103 11.2345055 44.3742268 11.2707692L44.3742268 11.2707692zM45.7958763 11.0241758C45.7814433 10.9516484 45.7670103 10.8791209 45.7525773 10.8065934 45.3628866 9.21098901 44.0494845 8.66703297 42.8226804 8.90637363 41.5886598 9.14571429 40.4412371 10.1610989 40.3690722 11.6914286 40.3618557 11.9235165 40.3690722 12.1338462 40.4051546 12.3296703 40.7226804 14.1791209 42.8948454 14.5127473 44.3886598 13.7367033 45.3412371 13.2435165 46.0195876 12.3079121 45.7958763 11.0241758L45.7958763 11.0241758zM38.442268 15.9995604C38.6010309 16.9279121 38.5865979 17.82 38.3845361 18.6613187 37.3742268 22.9259341 33.3257732 23.4191209 26.7804124 23.7164835 22.6958763 23.9050549 18.4670103 24.1008791 15.385567 26.1171429 14.4474227 26.7336264 13.5814433 27.4153846 12.7443299 28.0753846 10.442268 29.8885714 8.45051546 31.4551648 5.59278351 31.3028571 2.86494845 31.1578022 2.12164948 29.2068132 1.92680412 28.0536264 1.58762887 26.1026374 2.32371134 23.2450549 4.74123711 21.5841758 6.92783505 20.0828571 9.31649485 17.6241758 11.8494845 15.0204396 16.4752577 10.2698901 21.714433 4.88835165 26.0371134 5.10593407 30.7134021 5.35978022 37.4896907 10.530989 38.442268 15.9995604L38.442268 15.9995604zM39.8639175 15.752967C38.8175258 9.71868132 31.6515464 3.95274725 26.1092784 3.66989011 18.6113402 3.28549451 10.0597938 16.1736264 3.9257732 20.3947253 1.20515464 22.2659341.0288659794 25.5804396.497938144 28.3074725.909278351 30.6791209 2.56185567 32.6010989 5.51340206 32.7606593 10.0814433 33 12.7226804 29.5984615 16.1649485 27.3428571 23.0350515 22.8461538 37.5618557 28.409011 39.7845361 19.0021978 40.0371134 17.9287912 40.0515464 16.8336264 39.8639175 15.752967L39.8639175 15.752967z"/>
    <path fill="#010101" d="M25.8061856 3.65538462C25.7484536 3.65538462 25.6907216 3.64813187 25.6546392 3.64813187 25.6907216 3.64813187 25.7412371 3.64813187 25.8061856 3.65538462zM26.5134021 3.69164835L26.5134021 3.69164835 26.5134021 3.69164835zM26.0659794 3.66989011C25.9721649 3.66263736 25.8783505 3.66263736 25.7989691 3.65538462 25.871134 3.65538462 25.9649485 3.66263736 26.0659794 3.66989011zM26.0659794 3.66989011L26.1092784 3.66989011 26.1670103 3.66989011 26.0659794 3.66989011z"/>
    <path fill="#A4C7E2" fill-rule="nonzero" d="M49.4835052 18.4147253C49.8298969 20.430989 47.4484536 21.0474725 46.9721649 21.149011 45.7958763 21.4028571 44.5979381 21.2432967 43.8402062 20.7283516 43.3927835 20.4237363 43.1257732 20.0175824 43.0391753 19.4808791 43.0103093 19.3140659 42.9958763 19.1254945 43.0030928 18.9296703 43.0536082 17.1962637 44.6268041 16.2243956 46.0701031 16.0575824 46.6907216 15.9850549 48.7690722 15.9125275 49.4041237 18.0665934 49.4329897 18.1971429 49.4618557 18.3059341 49.4835052 18.4147253L49.4835052 18.4147253zM50.9051546 18.1681319C50.8762887 18.0013187 50.8402062 17.8345055 50.7896907 17.6676923 50.0896907 15.2815385 47.9463918 14.3894505 45.9041237 14.6287912 43.7103093 14.8826374 41.6319588 16.4564835 41.5597938 18.9006593 41.5525773 19.198022 41.5742268 19.4808791 41.6175258 19.741978 42.057732 22.2731868 44.8505155 23.1 47.2752577 22.5778022 49.4402062 22.1063736 51.3164948 20.547033 50.9051546 18.1681319L50.9051546 18.1681319zM31.1752577 1.60285714C31.1824742 1.63912088 31.1896907 1.74065934 31.1680412 1.90747253 31.1030928 1.97274725 30.9659794 2.05978022 30.8216495 2.08153846 30.7927835 2.08879121 30.771134 2.08879121 30.771134 2.08879121 30.7494845 2.06703297 30.6917526 1.98 30.6340206 1.76967033 30.6340206 1.76967033 30.6268041 1.74791209 30.6268041 1.73340659 30.6845361 1.67538462 30.843299 1.5956044 31.0309278 1.58835165 31.0886598 1.58835165 31.1391753 1.5956044 31.1752577 1.60285714L31.1752577 1.60285714zM32.5969072 1.35626374C32.4453608.478681319 31.7092784.108791209 30.9659794.145054945 29.9989691.188571429 29.0103093.892087912 29.1979381 1.99450549 29.2051546 2.05252747 29.2195876 2.1032967 29.2340206 2.16131868 29.5515464 3.32901099 30.3237113 3.63362637 31.0525773 3.51758242 31.7742268 3.40153846 32.4453608 2.85032967 32.5608247 2.31362637 32.6329897 1.94373626 32.6402062 1.62461538 32.5969072 1.35626374L32.5969072 1.35626374z"/>
    <path fill="#DAE6F0" fill-rule="nonzero" d="M18.0628866,36.6408791 C18.0628866,36.6408791 25.5536082,41.9063736 35.4402062,42.4213187 C41.5742268,42.7404396 56.5412371,41.0287912 57.0319588,44.8727473 C51.5257732,58.0147253 38.9835052,52.0384615 38.9835052,52.0384615 L26.2247423,45.0468132 L20.2134021,42.8564835 C20.2206186,42.8564835 17.6010309,38.7151648 18.0628866,36.6408791 Z"/>
    <path fill="#E2E2E2" fill-rule="nonzero" d="M59.0886598,46.7294505 L59.0886598,46.7294505 C59.1752577,47.4257143 59.8103093,47.9189011 60.5030928,47.8246154 L60.5030928,47.8246154 C61.1958763,47.7375824 61.6865979,47.0993407 61.5927835,46.4030769 L61.5927835,46.4030769 C61.5061856,45.7068132 60.871134,45.2136264 60.1783505,45.3079121 L60.1783505,45.3079121 C59.4927835,45.4021978 59.0020619,46.0404396 59.0886598,46.7294505 Z"/>
    <path fill="#A4C7E2" fill-rule="nonzero" d="M61.4845361 46.5626374C61.5494845 47.0630769 61.4268041 47.2443956 60.9721649 47.3096703 60.5896907 47.3604396 60.142268 47.2516484 59.8608247 47.0340659 59.6587629 46.8745055 59.6154639 46.7294505 59.6082474 46.6351648 59.6010309 46.5626374 59.6010309 46.4828571 59.6154639 46.3958242 59.7597938 45.4964835 60.1061856 45.5327473 60.3587629 45.5545055 60.8783505 45.598022 61.3041237 45.9461538 61.3762887 46.083956 61.4195876 46.2435165 61.4628866 46.4103297 61.4845361 46.5626374L61.4845361 46.5626374zM62.9134021 46.3740659C62.8845361 46.141978 62.8268041 45.8881319 62.7402062 45.6125275 62.5020619 44.88 61.4989691 44.190989 60.4886598 44.103956 59.4783505 44.0096703 58.4608247 44.5173626 58.1938144 46.1564835 58.157732 46.3885714 58.1505155 46.6061538 58.1793814 46.8092308 58.3597938 48.2017582 59.8969072 48.9125275 61.1742268 48.7384615 62.2206186 48.6006593 63.1010309 47.8463736 62.9134021 46.3740659L62.9134021 46.3740659zM64.1474227 40.8982418C64.1546392 40.9345055 64.1546392 40.978022 64.1618557 41.0142857 64.2123711 41.8773626 63.6639175 42.123956 63.2020619 42.1747253 62.5814433 42.24 61.8381443 41.9643956 61.556701 41.1883516 61.5206186 41.0795604 61.4917526 40.9707692 61.4773196 40.8764835 61.4484536 40.6371429 61.4989691 40.4775824 61.657732 40.3252747 61.9824742 40.0134066 62.6247423 39.8610989 63.1804124 39.9626374 64.0463918 40.1221978 64.1257732 40.7024176 64.1474227 40.8982418L64.1474227 40.8982418zM65.5762887 40.7096703C65.4103093 39.4186813 64.4865979 38.7296703 63.4329897 38.5338462 61.7731959 38.2364835 59.8030928 39.1938462 60.0412371 41.0578022 60.0628866 41.2536264 60.1134021 41.463956 60.1927835 41.6815385 60.7123711 43.1248352 62.1051546 43.7558242 63.3536082 43.618022 64.6020619 43.4802198 65.6917526 42.5663736 65.5979381 40.9345055 65.5979381 40.8547253 65.5907216 40.7821978 65.5762887 40.7096703L65.5762887 40.7096703zM57.0896907 38.1421978C57.7896907 43.6542857 52.8391753 50.6024176 48.4371134 52.2197802 44.3742268 53.7138462 37.785567 50.1237363 31.9690722 46.9615385 28.7865979 45.2281319 25.7773196 43.589011 23.2443299 42.8057143 20.4443299 41.9353846 18.9 39.4259341 18.6546392 37.4604396 18.5103093 36.3 18.6402062 34.2112088 21.2020619 33.2683516 23.8865979 32.2747253 26.2463918 33.1813187 28.9814433 34.232967 29.9773196 34.6173626 31.0020619 35.009011 32.0845361 35.3208791 35.6278351 36.3362637 39.7195876 35.2701099 43.6814433 34.232967 50.0247423 32.5793407 54.0371134 31.8468132 56.2525773 35.6182418 56.685567 36.358022 56.9670103 37.2065934 57.0896907 38.1421978L57.0896907 38.1421978zM58.5185567 37.9608791C58.3814433 36.872967 58.0494845 35.8285714 57.4938144 34.8784615 52.6010309 26.5523077 40.3618557 36.1767033 32.4742268 33.9210989 28.5195876 32.7896703 24.9979381 30.3237363 20.7041237 31.9048352 17.9257732 32.9274725 16.9154639 35.2628571 17.2185567 37.6417582 17.5721649 40.3905495 19.6649485 43.2046154 22.8185567 44.1837363 29.9268041 46.3885714 41.8773196 56.1652747 48.9278351 53.576044 54.1381443 51.6685714 59.2907216 44.0314286 58.5185567 37.9608791L58.5185567 37.9608791zM66.9257732 32.5575824C66.9402062 32.6663736 66.9474227 32.7824176 66.9474227 32.9057143 66.9762887 35.1540659 64.9701031 35.7052747 64.3494845 35.8140659 62.9206186 36.0824176 61.1309278 35.6182418 60.5752577 33.9791209 60.5103093 33.7978022 60.4742268 33.6164835 60.4453608 33.4424176 60.3804124 32.9057143 60.5103093 32.4342857 60.8494845 32.0136264 61.4195876 31.3028571 62.5164948 30.7879121 63.714433 30.6791209 64.2123711 30.6428571 66.6659794 30.5268132 66.9257732 32.5575824L66.9257732 32.5575824zM68.3546392 32.369011C68.0515464 29.9683516 65.8072165 29.04 63.5917526 29.2430769 61.1237113 29.4606593 58.6917526 31.0852747 59.0164948 33.630989 59.0525773 33.8920879 59.1103093 34.1676923 59.2113402 34.4505495 59.9979381 36.7641758 62.4443299 37.649011 64.6164948 37.2428571 66.6371134 36.8657143 68.4195876 35.3716484 68.3907216 32.8912088 68.3907216 32.7098901 68.3762887 32.5358242 68.3546392 32.369011L68.3546392 32.369011zM54.3762887 54.0547253C54.3474227 54.0692308 54.3041237 54.090989 54.2391753 54.1127473 54.0515464 54.1635165 53.8783505 54.1272527 53.8061856 54.090989 53.8061856 54.0764835 53.7989691 54.0547253 53.7989691 54.0547253 53.7917526 53.8443956 53.8278351 53.7428571 53.8350515 53.7138462 53.842268 53.7138462 53.856701 53.7138462 53.885567 53.7065934 54.0298969 53.6848352 54.1886598 53.7283516 54.2680412 53.7718681 54.3474227 53.9169231 54.3690722 54.0112088 54.3762887 54.0547253L54.3762887 54.0547253zM55.8051546 53.8661538C55.7690722 53.5978022 55.6680412 53.2931868 55.4876289 52.9668132 55.2206186 52.4808791 54.4195876 52.1617582 53.6907216 52.2632967 52.9618557 52.3648352 52.3123711 52.887033 52.3556701 54.0982418 52.3556701 54.1562637 52.3628866 54.2142857 52.3701031 54.2723077 52.514433 55.381978 53.6690722 55.7591209 54.6 55.5125275 55.328866 55.3167033 55.9206186 54.7582418 55.8051546 53.8661538L55.8051546 53.8661538z"/>
    <path stroke="#A4C7E2" stroke-linecap="square" stroke-width="2" d="M2.5257732,65 L69.643055,65"/>
  </g>
</svg>
