<svg xmlns="http://www.w3.org/2000/svg" width="81" height="96" viewBox="0 0 81 96">
  <g fill="none" fill-rule="evenodd" transform="translate(1 1)">
    <path fill="#FFF" fill-rule="nonzero" stroke="#A4C7E2" stroke-width="2" d="M7.28555556,6.775 L71.7395238,6.775 L71.7395238,40.05 L7.28555556,40.05 L7.28555556,6.775 Z"/>
    <path fill="#FFF" fill-rule="nonzero" d="M8.74015873,0.6875 L5.84349206,0.6875 C5.07857143,0.6875 4.46412698,1.3 4.46412698,2.0625 L4.46412698,46.7 C4.46412698,47.4625 5.07857143,48.075 5.84349206,48.075 L8.74015873,48.075 C9.50507937,48.075 10.1195238,47.4625 10.1195238,46.7 L10.1195238,2.0625 C10.1195238,1.3 9.50507937,0.6875 8.74015873,0.6875"/>
    <path stroke="#A4C7E2" stroke-width="2" d="M8.74015873,0.6875 L5.84349206,0.6875 C5.07857143,0.6875 4.46412698,1.3 4.46412698,2.0625 L4.46412698,46.7 C4.46412698,47.4625 5.07857143,48.075 5.84349206,48.075 L8.74015873,48.075 C9.50507937,48.075 10.1195238,47.4625 10.1195238,46.7 L10.1195238,2.0625 C10.1195238,1.3 9.50507937,0.6875 8.74015873,0.6875 Z"/>
    <path fill="#FFF" fill-rule="nonzero" d="M73.1815873,0.6875 L70.2849206,0.6875 C69.52,0.6875 68.9055556,1.3 68.9055556,2.0625 L68.9055556,46.7 C68.9055556,47.4625 69.52,48.075 70.2849206,48.075 L73.1815873,48.075 C73.9465079,48.075 74.5609524,47.4625 74.5609524,46.7 L74.5609524,2.0625 C74.5609524,1.3 73.9465079,0.6875 73.1815873,0.6875"/>
    <path stroke="#A4C7E2" stroke-width="2" d="M73.1815873,0.6875 L70.2849206,0.6875 C69.52,0.6875 68.9055556,1.3 68.9055556,2.0625 L68.9055556,46.7 C68.9055556,47.4625 69.52,48.075 70.2849206,48.075 L73.1815873,48.075 C73.9465079,48.075 74.5609524,47.4625 74.5609524,46.7 L74.5609524,2.0625 C74.5609524,1.3 73.9465079,0.6875 73.1815873,0.6875 Z"/>
    <path fill="#FFF" fill-rule="nonzero" d="M55.5131746,39.2125 L24.6655556,39.2125 C19.9004762,39.2125 16.0257143,35.3625 16.0257143,30.6125 L16.0257143,27.55 C16.0257143,22.8 19.8879365,18.9375 24.6655556,18.9375 L55.5131746,18.9375 C60.278254,18.9375 64.1404762,22.7875 64.1404762,27.55 L64.1404762,30.6125 C64.1404762,35.3625 60.278254,39.2125 55.5131746,39.2125"/>
    <path fill="#DAE6F0" fill-rule="nonzero" d="M64.4790476,35.4125 L39.9639683,35.4125 L39.9639683,18.9375 L54.3219048,18.9375 C59.9396825,18.9375 64.4790476,23.475 64.4790476,29.0625 L64.4790476,35.4125 L64.4790476,35.4125 Z"/>
    <path stroke="#A4C7E2" stroke-width="2" d="M55.5131746,39.2125 L24.6655556,39.2125 C19.9004762,39.2125 16.0257143,35.3625 16.0257143,30.6125 L16.0257143,27.55 C16.0257143,22.8 19.8879365,18.9375 24.6655556,18.9375 L55.5131746,18.9375 C60.278254,18.9375 64.1404762,22.7875 64.1404762,27.55 L64.1404762,30.6125 C64.1404762,35.3625 60.278254,39.2125 55.5131746,39.2125 Z"/>
    <path fill="#FFF" fill-rule="nonzero" d="M76.9560317,92.9125 L76.9560317,46.075 C76.9560317,40.1875 72.165873,35.4 66.2596825,35.4 L10.9973016,35.4 C5.09111111,35.4 0.300952381,40.175 0.300952381,46.075 L0.300952381,92.9125"/>
    <path stroke="#A4C7E2" stroke-width="2" d="M0.288412698,94.425 L0.288412698,46.075 C0.288412698,40.1875 5.07857143,35.4125 10.9847619,35.4125"/>
    <path fill="#FFF" fill-rule="nonzero" d="M46.4971429,25.275 C46.4971429,29.7375 42.8731746,33.35 38.3965079,33.35 C33.9198413,33.35 30.295873,29.7375 30.295873,25.275 C30.295873,20.8125 33.9198413,17.2 38.3965079,17.2 C42.8731746,17.2 46.4971429,20.8125 46.4971429,25.275"/>
    <ellipse cx="38.397" cy="25.275" stroke="#A4C7E2" stroke-width="2" rx="8.101" ry="8.075"/>
    <path fill="#FFF" fill-rule="nonzero" d="M58.8236508,35.4 C57.3565079,35.4 56.1652381,34.2125 56.1652381,32.75 C56.1652381,28.6 52.7920635,25.2375 48.6288889,25.2375 L27.7503175,25.2375 C23.5871429,25.2375 20.2139683,28.6 20.2139683,32.75 C20.2139683,34.2125 19.0226984,35.4 17.5555556,35.4 L10.9847619,35.4"/>
    <path stroke="#A4C7E2" stroke-width="2" d="M10.9847619,35.4 L17.5555556,35.4 C19.0226984,35.4 20.2139683,34.2125 20.2139683,32.75 C20.2139683,28.6 23.5871429,25.2375 27.7503175,25.2375 L48.6288889,25.2375 C52.7920635,25.2375 56.1652381,28.6 56.1652381,32.75 C56.1652381,34.2125 57.3565079,35.4 58.8236508,35.4 L66.9995238,35.4375 C72.9057143,35.4375 78.1222222,39.7875 78.1222222,45.675 L78.1222222,94.025"/>
    <path fill="#DAE6F0" fill-rule="nonzero" d="M66.0214286,39.3875 L58.7233333,39.3875 C55.1871429,39.3875 52.3155556,36.525 52.3155556,33 C52.3155556,30.5125 50.2966667,28.5 47.8012698,28.5 L37.9952381,28.5 L37.9952381,89.1 L73.9590476,89.1 L73.9590476,47.3125 C73.9590476,42.925 70.3977778,39.3875 66.0214286,39.3875 Z"/>
  </g>
</svg>
