<svg xmlns="http://www.w3.org/2000/svg" width="84" height="84" viewBox="0 0 84 84">
  <g fill="none">
    <path fill="#FFF" d="M82.64,42.13 C82.64,64.58 64.44,82.77 42,82.77 C19.55,82.77 1.36,64.57 1.36,42.13 C1.36,19.69 19.56,1.49 42,1.49 C64.45,1.49 82.64,19.69 82.64,42.13"/>
    <path fill="#A4C7E2" d="M42,83.78 C19.04,83.78 0.36,65.1 0.36,42.14 C0.36,19.18 19.04,0.5 42,0.5 C64.96,0.5 83.64,19.18 83.64,42.14 C83.64,65.1 64.96,83.78 42,83.78 Z M42,2.49 C20.14,2.49 2.36,20.27 2.36,42.13 C2.36,63.99 20.14,81.77 42,81.77 C63.86,81.77 81.64,63.99 81.64,42.13 C81.64,20.27 63.86,2.49 42,2.49 Z"/>
    <path fill="#DAE6F0" d="M42,77.89 L42,6.37 C61.75,6.37 77.76,22.39 77.76,42.13 C77.76,61.88 61.75,77.89 42,77.89 Z"/>
    <g transform="translate(26 18)">
      <path fill="#FFF" d="M16.23,47.27 C12.55,47.27 9.67,44.36 9.67,40.65 C9.67,36.94 12.55,34.03 16.23,34.03 C19.91,34.03 22.79,36.94 22.79,40.65 C22.79,44.36 19.91,47.27 16.23,47.27 Z M11.11,33.87 L11.23,31.76 C11.47,27.34 12.85,25.14 15.84,21.88 C16.31,21.35 16.83,20.82 17.35,20.3 C19.1,18.53 20.61,17 20.61,14.99 C20.61,12.59 19.03,11.16 16.38,11.16 C12.89,11.16 11.97,13.86 11.81,16.13 L11.68,17.99 L0.36,17.99 L0.59,15.78 C1.52,6.94 7.87,0.99 16.38,0.99 C25.67,0.99 31.44,6.32 31.44,14.91 C31.44,20.45 27.81,24.14 24.61,27.39 L24.04,27.97 C21.97,30.1 21.8,31.1 21.8,31.86 L21.8,33.86 L11.11,33.86 L11.11,33.87 Z"/>
      <path fill="#A4C7E2" d="M22.6,26.58 C20.26,28.99 19.79,30.47 19.79,31.87 L13.22,31.87 C13.42,28.19 14.36,26.44 17.31,23.23 C19.59,20.68 22.6,18.54 22.6,14.99 C22.6,11.57 20.26,9.16 16.37,9.16 C12.22,9.16 10.07,12.11 9.81,15.99 L2.58,15.99 C3.38,8.35 8.74,3 16.38,3 C24.62,3 29.44,7.62 29.44,14.92 C29.43,19.95 25.75,23.36 22.6,26.58 Z M16.23,36.02 C18.78,36.02 20.79,38.03 20.79,40.64 C20.79,43.25 18.78,45.26 16.23,45.26 C13.68,45.26 11.67,43.25 11.67,40.64 C11.68,38.03 13.69,36.02 16.23,36.02 Z"/>
    </g>
  </g>
</svg>
