<svg xmlns="http://www.w3.org/2000/svg" width="87" height="95" viewBox="0 0 87 95">
  <g fill="none" fill-rule="evenodd" transform="translate(0 1)">
    <path fill="#DAE6F0" fill-rule="nonzero" d="M35.7211765 4.19780822L27.8272059 4.19780822 27.8272059 19.4760274 35.7211765 19.4760274C38.5486765 19.4760274 40.8388235 17.1710959 40.8388235 14.3253425L40.8388235 9.34849315C40.8388235 6.50917808 38.5486765 4.19780822 35.7211765 4.19780822zM67.0667647 4.19780822L59.1727941 4.19780822 59.1727941 19.4760274 67.0667647 19.4760274C69.8942647 19.4760274 72.1844118 17.1710959 72.1844118 14.3253425L72.1844118 9.34849315C72.1844118 6.50917808 69.8942647 4.19780822 67.0667647 4.19780822z"/>
    <g stroke="#A4C7E2" stroke-width="1.28" transform="translate(14.713 3.863)">
      <path d="M5.22.334794521L21.0079412.334794521C23.8354412.334794521 26.1255882 2.63972603 26.1255882 5.48547945L26.1255882 10.4623288C26.1255882 13.3080822 23.8354412 15.6130137 21.0079412 15.6130137L5.22 15.6130137C2.3925 15.6130137.102352941 13.3080822.102352941 10.4623288L.102352941 5.48547945C.102352941 2.64616438 2.3925.334794521 5.22.334794521zM36.5655882.334794521L52.3535294.334794521C55.1810294.334794521 57.4711765 2.63972603 57.4711765 5.48547945L57.4711765 10.4623288C57.4711765 13.3080822 55.1810294 15.6130137 52.3535294 15.6130137L36.5655882 15.6130137C33.7380882 15.6130137 31.4479412 13.3080822 31.4479412 10.4623288L31.4479412 5.48547945C31.4479412 2.64616438 33.7380882.334794521 36.5655882.334794521z"/>
    </g>
    <path stroke="#A4C7E2" stroke-width="1.28" d="M2.92345588,87.799863 L2.92345588,3.62479452 C2.92345588,1.84780822 4.35639706,0.405616438 6.12198529,0.405616438 L80.8844118,0.405616438 C82.65,0.405616438 84.0829412,1.84780822 84.0829412,3.62479452 L84.0829412,87.7934247 C84.0829412,89.570411 82.65,91.0126027 80.8844118,91.0126027 L6.12198529,91.0126027 C4.35,91.0190411 2.92345588,89.5768493 2.92345588,87.799863 Z"/>
    <g fill-rule="nonzero" transform="translate(0 16.74)">
      <path fill="#FFF" d="M5.48227941,76.2108219 C3.01301471,76.2108219 1.00433824,74.1891781 1.00433824,71.7039726 L1.00433824,5.55630137 C1.00433824,3.07109589 3.01301471,1.04945205 5.48227941,1.04945205 L81.5241176,1.04945205 C83.9933824,1.04945205 86.0020588,3.07109589 86.0020588,5.55630137 L86.0020588,71.6975342 C86.0020588,74.1827397 83.9933824,76.2043836 81.5241176,76.2043836 L5.48227941,76.2043836 L5.48227941,76.2108219 Z"/>
      <path fill="#A4C7E2" d="M81.5177206,1.69328767 C83.6351471,1.69328767 85.3559559,3.42520548 85.3559559,5.55630137 L85.3559559,71.6975342 C85.3559559,73.8286301 83.6351471,75.5605479 81.5177206,75.5605479 L5.48227941,75.5605479 C3.36485294,75.5605479 1.64404412,73.8286301 1.64404412,71.6975342 L1.64404412,5.55630137 C1.64404412,3.42520548 3.36485294,1.69328767 5.48227941,1.69328767 L81.5177206,1.69328767 L81.5177206,1.69328767 Z M81.5177206,0.405616438 L5.48227941,0.405616438 C2.66117647,0.405616438 0.364632353,2.7169863 0.364632353,5.55630137 L0.364632353,71.6975342 C0.364632353,74.5368493 2.66117647,76.8482192 5.48227941,76.8482192 L81.5241176,76.8482192 C84.3452206,76.8482192 86.6417647,74.5368493 86.6417647,71.6975342 L86.6417647,5.55630137 C86.6353676,2.7169863 84.3452206,0.405616438 81.5177206,0.405616438 L81.5177206,0.405616438 Z"/>
    </g>
    <path fill="#DAE6F0" fill-rule="nonzero" d="M81.5177206,19.7206849 L43.5,19.7206849 L43.5,91.0126027 L81.5177206,91.0126027 C82.9314706,91.0126027 84.0765441,89.860137 84.0765441,88.4372603 L84.0765441,22.2960274 C84.0765441,20.879589 82.9314706,19.7206849 81.5177206,19.7206849 Z"/>
  </g>
</svg>
