<svg xmlns="http://www.w3.org/2000/svg" width="124" height="29"><g fill="none" fill-rule="evenodd"><path fill="#2E1A47" fill-rule="nonzero" d="M8.56 22.07a.637.637 0 0 1-.609-.837l1.854-5.714-4.874-3.542a.638.638 0 0 1-.232-.716.637.637 0 0 1 .607-.442h6.024l1.854-5.71a.64.64 0 0 1 1.217 0l1.853 5.71h6.024a.64.64 0 0 1 .377 1.158l-4.875 3.542 1.854 5.714a.64.64 0 0 1-.985.715l-4.856-3.53-4.857 3.53a.643.643 0 0 1-.376.123m24-.001a.637.637 0 0 1-.609-.837l1.854-5.714-4.874-3.542a.638.638 0 0 1-.232-.716.637.637 0 0 1 .607-.442h6.024l1.854-5.71a.64.64 0 0 1 1.217 0l1.853 5.71h6.024a.64.64 0 0 1 .377 1.158l-4.875 3.542 1.854 5.714a.64.64 0 0 1-.985.715l-4.856-3.53-4.857 3.53a.643.643 0 0 1-.376.123m25-.001a.637.637 0 0 1-.609-.837l1.854-5.714-4.874-3.542a.638.638 0 0 1-.232-.716.637.637 0 0 1 .607-.442h6.024l1.854-5.71a.64.64 0 0 1 1.217 0l1.853 5.71h6.024a.64.64 0 0 1 .377 1.158l-4.875 3.542 1.854 5.714a.64.64 0 0 1-.985.715l-4.856-3.53-4.857 3.53a.643.643 0 0 1-.376.123m23-.001a.637.637 0 0 1-.609-.837l1.854-5.714-4.874-3.542a.638.638 0 0 1-.232-.716.637.637 0 0 1 .607-.442h6.024l1.854-5.71a.64.64 0 0 1 1.217 0l1.853 5.71h6.024a.64.64 0 0 1 .377 1.158l-4.875 3.542 1.854 5.714a.64.64 0 0 1-.985.715l-4.856-3.53-4.857 3.53a.643.643 0 0 1-.376.123M109.286 17.594c.136 0 .273.042.39.126l3.77 2.74-1.44-4.435a.662.662 0 0 1 .24-.74l3.79-2.755h-4.683a.662.662 0 0 1-.63-.457l-1.437-4.43-1.439 4.43a.662.662 0 0 1-.63.457h-4.681l3.789 2.755a.66.66 0 0 1 .24.74l-1.44 4.435 3.77-2.74a.671.671 0 0 1 .39-.126m-5.42 5.264a.665.665 0 0 1-.63-.866l1.92-5.918-5.048-3.67a.662.662 0 0 1 .389-1.199h6.24l1.92-5.913a.663.663 0 0 1 1.26 0l1.92 5.913h6.238c.287 0 .543.185.63.458a.659.659 0 0 1-.24.741l-5.048 3.67 1.92 5.917a.663.663 0 0 1-1.021.741l-5.03-3.657-5.03 3.657a.671.671 0 0 1-.39.126"/><path fill="#2E1A47" d="M110.13 5.043v13.968l-5.473 3.685 2.131-6.486-5.484-4.22h6.444z"/></g></svg>